<svg width="375" height="200" viewBox="0 0 375 200" xmlns="http://www.w3.org/2000/svg"><mask id="satori_om-id"><rect x="0" y="0" width="375" height="124" fill="#fff"/></mask><clipPath id="satori_cp-id-0"><path x="0" y="0" width="375" height="8" d="M4,0 h367 a4,4 0 0 1 4,4 v0 a4,4 0 0 1 -4,4 h-367 a4,4 0 0 1 -4,-4 v0 a4,4 0 0 1 4,-4"/></clipPath><mask id="satori_om-id-0"><rect x="0" y="0" width="375" height="8" fill="#fff"/></mask><mask id="satori_om-id-0-0"><rect x="0" y="0" width="240" height="8" fill="#fff" mask="url(#satori_om-id-0)"/></mask><rect x="0" y="0" width="240" height="8" fill="#3178c6" clip-path="url(#satori_cp-id-0)" mask="url(#satori_om-id-0)"/><mask id="satori_om-id-0-1"><rect x="240" y="0" width="29" height="8" fill="#fff" mask="url(#satori_om-id-0)"/></mask><rect x="240" y="0" width="29" height="8" fill="#663399" clip-path="url(#satori_cp-id-0)" mask="url(#satori_om-id-0)"/><mask id="satori_om-id-0-2"><rect x="269" y="0" width="28" height="8" fill="#fff" mask="url(#satori_om-id-0)"/></mask><rect x="269" y="0" width="28" height="8" fill="#701516" clip-path="url(#satori_cp-id-0)" mask="url(#satori_om-id-0)"/><mask id="satori_om-id-0-3"><rect x="297" y="0" width="24" height="8" fill="#fff" mask="url(#satori_om-id-0)"/></mask><rect x="297" y="0" width="24" height="8" fill="#3572A5" clip-path="url(#satori_cp-id-0)" mask="url(#satori_om-id-0)"/><mask id="satori_om-id-0-4"><rect x="321" y="0" width="21" height="8" fill="#fff" mask="url(#satori_om-id-0)"/></mask><rect x="321" y="0" width="21" height="8" fill="#e34c26" clip-path="url(#satori_cp-id-0)" mask="url(#satori_om-id-0)"/><mask id="satori_om-id-0-5"><rect x="342" y="0" width="11" height="8" fill="#fff" mask="url(#satori_om-id-0)"/></mask><rect x="342" y="0" width="11" height="8" fill="#f1e05a" clip-path="url(#satori_cp-id-0)" mask="url(#satori_om-id-0)"/><mask id="satori_om-id-0-6"><rect x="353" y="0" width="6" height="8" fill="#fff" mask="url(#satori_om-id-0)"/></mask><rect x="353" y="0" width="6" height="8" fill="#00ADD8" clip-path="url(#satori_cp-id-0)" mask="url(#satori_om-id-0)"/><mask id="satori_om-id-0-7"><rect x="359" y="0" width="5" height="8" fill="#fff" mask="url(#satori_om-id-0)"/></mask><rect x="359" y="0" width="5" height="8" fill="#ff5a03" clip-path="url(#satori_cp-id-0)" mask="url(#satori_om-id-0)"/><mask id="satori_om-id-0-8"><rect x="364" y="0" width="3" height="8" fill="#fff" mask="url(#satori_om-id-0)"/></mask><rect x="364" y="0" width="3" height="8" fill="#555555" clip-path="url(#satori_cp-id-0)" mask="url(#satori_om-id-0)"/><mask id="satori_om-id-0-9"><rect x="367" y="0" width="2" height="8" fill="#fff" mask="url(#satori_om-id-0)"/></mask><rect x="367" y="0" width="2" height="8" fill="#844FBA" clip-path="url(#satori_cp-id-0)" mask="url(#satori_om-id-0)"/><mask id="satori_om-id-1"><rect x="0" y="18" width="375" height="106" fill="#fff"/></mask><mask id="satori_om-id-1-0"><rect x="0" y="18" width="160" height="19" fill="#fff"/></mask><mask id="satori_om-id-1-0-0"><rect x="0" y="20" width="16" height="16" fill="#fff"/></mask><mask id="satori_om-id-1-0-0-0"><rect x="4" y="24" width="8" height="8" fill="#fff"/></mask><path x="4" y="24" width="8" height="8" fill="#3178c6" d="M8,24 h0 a4,4 0 0 1 4,4 v0 a4,4 0 0 1 -4,4 h0 a4,4 0 0 1 -4,-4 v0 a4,4 0 0 1 4,-4"/><mask id="satori_om-id-1-0-1"><rect x="29" y="18" width="79" height="19" fill="#fff"/></mask><g  ><path fill="#24292f" d="M38.6 21.6L38.6 23.5L35.1 23.5L35.1 33L32.8 33L32.8 23.5L29.3 23.5L29.3 21.6L38.6 21.6ZM40.7 24.5L42.3 29.8L43.8 24.5L46.3 24.5L42.9 34.3L42.7 34.8Q41.9 36.4 40.2 36.4L40.2 36.4Q39.7 36.4 39.2 36.3L39.2 36.3L39.2 34.6L39.5 34.6Q40.2 34.6 40.5 34.4Q40.8 34.2 41.0 33.7L41.0 33.7L41.2 33.0L38.3 24.5L40.7 24.5ZM54.8 28.7L54.8 28.9Q54.8 30.8 53.9 32.0Q53.0 33.2 51.5 33.2L51.5 33.2Q50.2 33.2 49.4 32.3L49.4 32.3L49.4 36.3L47.2 36.3L47.2 24.5L49.3 24.5L49.3 25.4Q50.1 24.4 51.5 24.4L51.5 24.4Q53.0 24.4 53.9 25.5Q54.8 26.7 54.8 28.7L54.8 28.7ZM52.5 28.7L52.5 28.7Q52.5 27.5 52.1 26.9Q51.7 26.2 50.9 26.2L50.9 26.2Q49.8 26.2 49.4 27.0L49.4 27.0L49.4 30.5Q49.8 31.3 50.9 31.3L50.9 31.3Q52.5 31.3 52.5 28.7ZM60.1 33.2L60.1 33.2Q58.2 33.2 57.0 32.0Q55.9 30.9 55.9 29.0L55.9 29.0L55.9 28.8Q55.9 27.5 56.4 26.5Q56.8 25.5 57.7 24.9Q58.6 24.4 59.8 24.4L59.8 24.4Q61.5 24.4 62.5 25.5Q63.5 26.6 63.5 28.6L63.5 28.6L63.5 29.5L58.1 29.5Q58.3 30.3 58.8 30.8Q59.4 31.3 60.2 31.3L60.2 31.3Q61.5 31.3 62.2 30.4L62.2 30.4L63.4 31.6Q62.8 32.4 62.0 32.8Q61.1 33.2 60.1 33.2ZM59.8 26.2L59.8 26.2Q59.1 26.2 58.7 26.7Q58.3 27.1 58.2 28.0L58.2 28.0L61.3 28.0L61.3 27.8Q61.3 27.0 60.9 26.6Q60.5 26.2 59.8 26.2ZM70.9 30.0L70.9 30.0Q70.9 29.4 70.4 29.0Q69.9 28.6 68.7 28.2Q67.5 27.9 66.8 27.5L66.8 27.5Q64.8 26.4 64.8 24.6L64.8 24.6Q64.8 23.7 65.4 23.0Q65.9 22.3 66.8 21.9Q67.8 21.5 69.0 21.5L69.0 21.5Q70.3 21.5 71.2 21.9Q72.2 22.4 72.7 23.2Q73.2 24.0 73.2 25.0L73.2 25.0L70.9 25.0Q70.9 24.2 70.4 23.8Q69.9 23.3 69.0 23.3L69.0 23.3Q68.1 23.3 67.7 23.7Q67.2 24.1 67.2 24.7L67.2 24.7Q67.2 25.2 67.7 25.6Q68.3 26.0 69.4 26.3L69.4 26.3Q71.4 26.9 72.3 27.8Q73.2 28.7 73.2 30L73.2 30Q73.2 31.5 72.1 32.3Q71.0 33.2 69.1 33.2L69.1 33.2Q67.8 33.2 66.7 32.7Q65.6 32.2 65.1 31.4Q64.5 30.5 64.5 29.4L64.5 29.4L66.8 29.4Q66.8 31.3 69.1 31.3L69.1 31.3Q69.9 31.3 70.4 31.0Q70.9 30.6 70.9 30.0ZM78.2 31.3L78.2 31.3Q78.8 31.3 79.2 31.0Q79.6 30.6 79.6 30.1L79.6 30.1L81.7 30.1Q81.7 30.9 81.2 31.7Q80.8 32.4 80.0 32.8Q79.2 33.2 78.2 33.2L78.2 33.2Q76.4 33.2 75.3 32.0Q74.3 30.9 74.3 28.8L74.3 28.8L74.3 28.7Q74.3 26.7 75.3 25.6Q76.4 24.4 78.2 24.4L78.2 24.4Q79.8 24.4 80.7 25.3Q81.7 26.2 81.7 27.7L81.7 27.7L79.6 27.7Q79.6 27.0 79.2 26.6Q78.8 26.2 78.1 26.2L78.1 26.2Q77.4 26.2 77.0 26.8Q76.6 27.4 76.6 28.7L76.6 28.7L76.6 28.9Q76.6 30.2 77.0 30.8Q77.4 31.3 78.2 31.3ZM87.8 24.5L87.7 26.7Q87.3 26.6 86.9 26.6L86.9 26.6Q85.6 26.6 85.3 27.5L85.3 27.5L85.3 33L83.0 33L83.0 24.5L85.1 24.5L85.2 25.6Q85.9 24.4 87.1 24.4L87.1 24.4Q87.4 24.4 87.8 24.5L87.8 24.5ZM91.2 24.5L91.2 33L88.9 33L88.9 24.5L91.2 24.5ZM88.8 22.4L88.8 22.4Q88.8 21.9 89.2 21.5Q89.5 21.2 90.1 21.2L90.1 21.2Q90.7 21.2 91 21.5Q91.3 21.9 91.3 22.4L91.3 22.4Q91.3 22.9 91.0 23.2Q90.6 23.5 90.1 23.5Q89.5 23.5 89.2 23.2Q88.8 22.9 88.8 22.4ZM100.7 28.7L100.7 28.9Q100.7 30.8 99.8 32.0Q98.9 33.2 97.4 33.2L97.4 33.2Q96.1 33.2 95.3 32.3L95.3 32.3L95.3 36.3L93.1 36.3L93.1 24.5L95.2 24.5L95.2 25.4Q96.1 24.4 97.4 24.4L97.4 24.4Q98.9 24.4 99.8 25.5Q100.7 26.7 100.7 28.7L100.7 28.7ZM98.4 28.7L98.4 28.7Q98.4 27.5 98.0 26.9Q97.6 26.2 96.8 26.2L96.8 26.2Q95.7 26.2 95.3 27.0L95.3 27.0L95.3 30.5Q95.7 31.3 96.8 31.3L96.8 31.3Q98.4 31.3 98.4 28.7ZM102.5 22.5L104.8 22.5L104.8 24.5L106.2 24.5L106.2 26.2L104.8 26.2L104.8 30.4Q104.8 30.9 105.0 31.1Q105.1 31.3 105.6 31.3L105.6 31.3Q106.0 31.3 106.3 31.2L106.3 31.2L106.3 33.0Q105.6 33.2 104.9 33.2L104.9 33.2Q102.6 33.2 102.5 30.8L102.5 30.8L102.5 26.2L101.3 26.2L101.3 24.5L102.5 24.5L102.5 22.5Z "/></g><mask id="satori_om-id-1-0-2"><rect x="117" y="18" width="43" height="19" fill="#fff"/></mask><g  ><path fill="#57606a" d="M123.4 21.6L123.6 21.6L123.6 22.8L123.4 22.8Q121.7 22.9 120.7 23.8Q119.7 24.8 119.5 26.6L119.5 26.6Q120.4 25.5 122.0 25.5L122.0 25.5Q123.4 25.5 124.3 26.6Q125.2 27.6 125.2 29.3L125.2 29.3Q125.2 31.0 124.3 32.1Q123.3 33.2 121.7 33.2L121.7 33.2Q120.1 33.2 119.0 31.9Q118.0 30.6 118.0 28.7L118.0 28.7L118.0 28.1Q118.0 25.0 119.4 23.3Q120.7 21.7 123.4 21.6L123.4 21.6ZM121.7 26.7L121.7 26.7Q121.0 26.7 120.4 27.2Q119.7 27.6 119.5 28.3L119.5 28.3L119.5 28.8Q119.5 30.2 120.1 31.1Q120.8 32.0 121.7 32.0L121.7 32.0Q122.7 32.0 123.2 31.2Q123.8 30.5 123.8 29.4L123.8 29.4Q123.8 28.2 123.2 27.5Q122.7 26.7 121.7 26.7ZM129.0 27.8L129.0 26.6L130.1 26.6Q131.1 26.6 131.7 26.1Q132.3 25.5 132.3 24.7L132.3 24.7Q132.3 22.7 130.3 22.7L130.3 22.7Q129.4 22.7 128.8 23.2Q128.3 23.7 128.3 24.6L128.3 24.6L126.8 24.6Q126.8 23.3 127.8 22.4Q128.8 21.5 130.3 21.5L130.3 21.5Q131.9 21.5 132.8 22.3Q133.8 23.2 133.8 24.7L133.8 24.7Q133.8 25.4 133.3 26.1Q132.8 26.8 132.0 27.2L132.0 27.2Q132.9 27.5 133.4 28.1Q133.9 28.8 133.9 29.8L133.9 29.8Q133.9 31.4 132.9 32.3Q131.9 33.2 130.3 33.2Q128.7 33.2 127.7 32.3Q126.7 31.4 126.7 30L126.7 30L128.2 30Q128.2 30.9 128.8 31.4Q129.3 32.0 130.3 32.0L130.3 32.0Q131.4 32.0 131.9 31.4Q132.5 30.9 132.5 29.9L132.5 29.9Q132.5 28.9 131.9 28.3Q131.3 27.8 130.1 27.8L130.1 27.8L129.0 27.8ZM136.1 32.2L136.1 32.2Q136.1 31.9 136.3 31.6Q136.5 31.4 137.0 31.4Q137.4 31.4 137.7 31.6Q137.9 31.9 137.9 32.2L137.9 32.2Q137.9 32.6 137.7 32.8Q137.4 33.1 137.0 33.1Q136.5 33.1 136.3 32.8Q136.1 32.6 136.1 32.2ZM145.7 28L145.7 28Q145.2 28.5 144.6 28.9Q144.0 29.2 143.2 29.2L143.2 29.2Q142.2 29.2 141.5 28.7Q140.8 28.2 140.4 27.3Q140.0 26.5 140.0 25.4L140.0 25.4Q140.0 24.3 140.4 23.4Q140.8 22.4 141.6 22.0Q142.4 21.5 143.5 21.5L143.5 21.5Q145.2 21.5 146.1 22.7Q147.1 24.0 147.1 26.2L147.1 26.2L147.1 26.6Q147.1 29.9 145.8 31.4Q144.5 33.0 141.8 33.0L141.8 33.0L141.6 33.0L141.6 31.8L141.9 31.8Q143.7 31.8 144.6 30.9Q145.6 30.0 145.7 28ZM143.4 28L143.4 28Q144.2 28 144.8 27.6Q145.4 27.1 145.7 26.5L145.7 26.5L145.7 25.9Q145.7 24.5 145.1 23.6Q144.4 22.7 143.5 22.7L143.5 22.7Q142.5 22.7 142.0 23.4Q141.4 24.1 141.4 25.3L141.4 25.3Q141.4 26.5 141.9 27.2Q142.5 28 143.4 28ZM149.0 24.4L149.0 23.8Q149.0 22.8 149.6 22.1Q150.3 21.5 151.3 21.5L151.3 21.5Q152.4 21.5 153.0 22.1Q153.6 22.8 153.6 23.9L153.6 23.9L153.6 24.4Q153.6 25.4 153.0 26.1Q152.3 26.8 151.3 26.8L151.3 26.8Q150.3 26.8 149.6 26.1Q149.0 25.4 149.0 24.4L149.0 24.4ZM150.1 23.8L150.1 24.4Q150.1 25.0 150.4 25.4Q150.8 25.8 151.3 25.8L151.3 25.8Q151.9 25.8 152.2 25.4Q152.6 25.0 152.6 24.4L152.6 24.4L152.6 23.8Q152.6 23.2 152.2 22.8Q151.9 22.4 151.3 22.4Q150.7 22.4 150.4 22.8Q150.1 23.2 150.1 23.8L150.1 23.8ZM154.5 30.8L154.5 30.2Q154.5 29.2 155.2 28.5Q155.8 27.9 156.9 27.9Q157.9 27.9 158.5 28.5Q159.2 29.2 159.2 30.3L159.2 30.3L159.2 30.8Q159.2 31.8 158.5 32.5Q157.9 33.2 156.9 33.2Q155.9 33.2 155.2 32.5Q154.5 31.9 154.5 30.8L154.5 30.8ZM155.6 30.2L155.6 30.8Q155.6 31.4 155.9 31.8Q156.3 32.2 156.9 32.2L156.9 32.2Q157.4 32.2 157.8 31.8Q158.1 31.5 158.1 30.8L158.1 30.8L158.1 30.2Q158.1 29.6 157.8 29.2Q157.4 28.8 156.9 28.8L156.9 28.8Q156.3 28.8 155.9 29.2Q155.6 29.6 155.6 30.2L155.6 30.2ZM157.2 23.3L151.7 32.1L150.8 31.6L156.4 22.7L157.2 23.3Z "/></g><mask id="satori_om-id-1-1"><rect x="170" y="18" width="103" height="19" fill="#fff"/></mask><mask id="satori_om-id-1-1-0"><rect x="170" y="20" width="16" height="16" fill="#fff"/></mask><mask id="satori_om-id-1-1-0-0"><rect x="174" y="24" width="8" height="8" fill="#fff"/></mask><path x="174" y="24" width="8" height="8" fill="#663399" d="M178,24 h0 a4,4 0 0 1 4,4 v0 a4,4 0 0 1 -4,4 h0 a4,4 0 0 1 -4,-4 v0 a4,4 0 0 1 4,-4"/><mask id="satori_om-id-1-1-1"><rect x="199" y="18" width="31" height="19" fill="#fff"/></mask><g  ><path fill="#24292f" d="M206.6 29.2L208.9 29.2Q208.8 31.0 207.6 32.1Q206.4 33.2 204.4 33.2L204.4 33.2Q202.2 33.2 200.9 31.7Q199.7 30.2 199.7 27.6L199.7 27.6L199.7 26.9Q199.7 25.3 200.3 24.1Q200.8 22.8 201.9 22.1Q203.0 21.5 204.4 21.5L204.4 21.5Q206.4 21.5 207.6 22.5Q208.8 23.6 209.0 25.5L209.0 25.5L206.6 25.5Q206.5 24.4 206.0 23.9Q205.5 23.4 204.4 23.4L204.4 23.4Q203.2 23.4 202.6 24.2Q202.1 25.1 202.0 26.8L202.0 26.8L202.0 27.7Q202.0 29.5 202.6 30.4Q203.2 31.2 204.4 31.2L204.4 31.2Q205.5 31.2 206.0 30.7Q206.5 30.3 206.6 29.2L206.6 29.2ZM216.4 30.0L216.4 30.0Q216.4 29.4 215.9 29.0Q215.4 28.6 214.2 28.2Q213.0 27.9 212.3 27.5L212.3 27.5Q210.4 26.4 210.4 24.6L210.4 24.6Q210.4 23.7 210.9 23.0Q211.4 22.3 212.4 21.9Q213.3 21.5 214.6 21.5L214.6 21.5Q215.8 21.5 216.7 21.9Q217.7 22.4 218.2 23.2Q218.7 24.0 218.7 25.0L218.7 25.0L216.4 25.0Q216.4 24.2 215.9 23.8Q215.4 23.3 214.5 23.3L214.5 23.3Q213.7 23.3 213.2 23.7Q212.7 24.1 212.7 24.7L212.7 24.7Q212.7 25.2 213.3 25.6Q213.8 26.0 214.9 26.3L214.9 26.3Q216.9 26.9 217.8 27.8Q218.7 28.7 218.7 30L218.7 30Q218.7 31.5 217.6 32.3Q216.5 33.2 214.6 33.2L214.6 33.2Q213.3 33.2 212.2 32.7Q211.1 32.2 210.6 31.4Q210.0 30.5 210.0 29.4L210.0 29.4L212.4 29.4Q212.4 31.3 214.6 31.3L214.6 31.3Q215.4 31.3 215.9 31.0Q216.4 30.6 216.4 30.0ZM226.2 30.0L226.2 30.0Q226.2 29.4 225.8 29.0Q225.3 28.6 224.1 28.2Q222.8 27.9 222.1 27.5L222.1 27.5Q220.2 26.4 220.2 24.6L220.2 24.6Q220.2 23.7 220.7 23.0Q221.2 22.3 222.2 21.9Q223.2 21.5 224.4 21.5L224.4 21.5Q225.6 21.5 226.6 21.9Q227.5 22.4 228.0 23.2Q228.6 24.0 228.6 25.0L228.6 25.0L226.2 25.0Q226.2 24.2 225.7 23.8Q225.2 23.3 224.4 23.3L224.4 23.3Q223.5 23.3 223.0 23.7Q222.5 24.1 222.5 24.7L222.5 24.7Q222.5 25.2 223.1 25.6Q223.7 26.0 224.7 26.3L224.7 26.3Q226.7 26.9 227.7 27.8Q228.6 28.7 228.6 30L228.6 30Q228.6 31.5 227.5 32.3Q226.3 33.2 224.4 33.2L224.4 33.2Q223.1 33.2 222.1 32.7Q221.0 32.2 220.4 31.4Q219.8 30.5 219.8 29.4L219.8 29.4L222.2 29.4Q222.2 31.3 224.4 31.3L224.4 31.3Q225.3 31.3 225.8 31.0Q226.2 30.6 226.2 30.0Z "/></g><mask id="satori_om-id-1-1-2"><rect x="239" y="18" width="34" height="19" fill="#fff"/></mask><g  ><path fill="#57606a" d="M247.3 21.6L247.3 22.4L242.6 33L241.1 33L245.8 22.8L239.6 22.8L239.6 21.6L247.3 21.6ZM249.1 32.2L249.1 32.2Q249.1 31.9 249.3 31.6Q249.6 31.4 250 31.4Q250.4 31.4 250.7 31.6Q250.9 31.9 250.9 32.2L250.9 32.2Q250.9 32.6 250.7 32.8Q250.4 33.1 250 33.1Q249.6 33.1 249.3 32.8Q249.1 32.6 249.1 32.2ZM260.0 24.6L260.0 24.6Q260.0 25.4 259.6 26.1Q259.1 26.8 258.4 27.1L258.4 27.1Q259.3 27.5 259.8 28.3Q260.3 29 260.3 29.9L260.3 29.9Q260.3 31.4 259.3 32.3Q258.3 33.2 256.7 33.2L256.7 33.2Q255.0 33.2 254.1 32.3Q253.1 31.4 253.1 29.9L253.1 29.9Q253.1 29.0 253.6 28.3Q254.1 27.5 255.0 27.1L255.0 27.1Q254.2 26.8 253.8 26.1Q253.3 25.4 253.3 24.6L253.3 24.6Q253.3 23.2 254.3 22.3Q255.2 21.5 256.7 21.5L256.7 21.5Q258.2 21.5 259.1 22.3Q260.0 23.2 260.0 24.6ZM258.9 29.9L258.9 29.9Q258.9 28.9 258.3 28.3Q257.6 27.7 256.7 27.7Q255.7 27.7 255.1 28.3Q254.5 28.9 254.5 29.9Q254.5 30.9 255.1 31.4Q255.7 32.0 256.7 32.0L256.7 32.0Q257.7 32.0 258.3 31.4Q258.9 30.9 258.9 29.9ZM256.7 22.7L256.7 22.7Q255.8 22.7 255.3 23.2Q254.8 23.7 254.8 24.6L254.8 24.6Q254.8 25.5 255.3 26.0Q255.8 26.6 256.7 26.6Q257.6 26.6 258.1 26.0Q258.6 25.5 258.6 24.6Q258.6 23.8 258.1 23.2Q257.5 22.7 256.7 22.7ZM262 24.4L262 23.8Q262 22.8 262.7 22.1Q263.3 21.5 264.3 21.5L264.3 21.5Q265.4 21.5 266.0 22.1Q266.7 22.8 266.7 23.9L266.7 23.9L266.7 24.4Q266.7 25.4 266.0 26.1Q265.4 26.8 264.3 26.8L264.3 26.8Q263.3 26.8 262.7 26.1Q262 25.4 262 24.4L262 24.4ZM263.1 23.8L263.1 24.4Q263.1 25.0 263.4 25.4Q263.8 25.8 264.3 25.8L264.3 25.8Q264.9 25.8 265.2 25.4Q265.6 25.0 265.6 24.4L265.6 24.4L265.6 23.8Q265.6 23.2 265.2 22.8Q264.9 22.4 264.3 22.4Q263.8 22.4 263.4 22.8Q263.1 23.2 263.1 23.8L263.1 23.8ZM267.5 30.8L267.5 30.2Q267.5 29.2 268.2 28.5Q268.8 27.9 269.9 27.9Q270.9 27.9 271.5 28.5Q272.2 29.2 272.2 30.3L272.2 30.3L272.2 30.8Q272.2 31.8 271.6 32.5Q270.9 33.2 269.9 33.2Q268.9 33.2 268.2 32.5Q267.5 31.9 267.5 30.8L267.5 30.8ZM268.6 30.2L268.6 30.8Q268.6 31.4 269.0 31.8Q269.3 32.2 269.9 32.2L269.9 32.2Q270.4 32.2 270.8 31.8Q271.1 31.5 271.1 30.8L271.1 30.8L271.1 30.2Q271.1 29.6 270.8 29.2Q270.4 28.8 269.9 28.8L269.9 28.8Q269.3 28.8 269.0 29.2Q268.6 29.6 268.6 30.2L268.6 30.2ZM270.2 23.3L264.7 32.1L263.9 31.6L269.4 22.7L270.2 23.3Z "/></g><mask id="satori_om-id-1-2"><rect x="0" y="47" width="109" height="19" fill="#fff"/></mask><mask id="satori_om-id-1-2-0"><rect x="0" y="49" width="16" height="16" fill="#fff"/></mask><mask id="satori_om-id-1-2-0-0"><rect x="4" y="53" width="8" height="8" fill="#fff"/></mask><path x="4" y="53" width="8" height="8" fill="#701516" d="M8,53 h0 a4,4 0 0 1 4,4 v0 a4,4 0 0 1 -4,4 h0 a4,4 0 0 1 -4,-4 v0 a4,4 0 0 1 4,-4"/><mask id="satori_om-id-1-2-1"><rect x="29" y="47" width="37" height="19" fill="#fff"/></mask><g  ><path fill="#24292f" d="M36.4 62L34.2 57.8L32.4 57.8L32.4 62L30.0 62L30.0 50.6L34.2 50.6Q36.3 50.6 37.4 51.5Q38.4 52.4 38.4 54.1L38.4 54.1Q38.4 55.2 37.9 56.0Q37.4 56.8 36.4 57.2L36.4 57.2L38.9 61.9L38.9 62L36.4 62ZM32.4 52.5L32.4 55.9L34.3 55.9Q35.1 55.9 35.6 55.5Q36.1 55.0 36.1 54.3L36.1 54.3Q36.1 53.4 35.6 53.0Q35.2 52.5 34.2 52.5L34.2 52.5L32.4 52.5ZM45.2 62L45.1 61.1Q44.3 62.2 42.8 62.2L42.8 62.2Q41.5 62.2 40.8 61.4Q40.0 60.6 40.0 59.1L40.0 59.1L40.0 53.5L42.3 53.5L42.3 59.0Q42.3 60.3 43.5 60.3L43.5 60.3Q44.6 60.3 45.1 59.5L45.1 59.5L45.1 53.5L47.3 53.5L47.3 62L45.2 62ZM56.6 57.7L56.6 57.9Q56.6 59.9 55.8 61.0Q54.9 62.2 53.4 62.2L53.4 62.2Q52.0 62.2 51.2 61.1L51.2 61.1L51.1 62L49.0 62L49.0 50L51.3 50L51.3 54.3Q52.1 53.4 53.3 53.4L53.3 53.4Q54.9 53.4 55.8 54.5Q56.6 55.7 56.6 57.7L56.6 57.7ZM54.4 57.7L54.4 57.7Q54.4 56.4 54.0 55.8Q53.6 55.2 52.8 55.2L52.8 55.2Q51.7 55.2 51.3 56.1L51.3 56.1L51.3 59.4Q51.7 60.3 52.8 60.3L52.8 60.3Q53.9 60.3 54.2 59.3L54.2 59.3Q54.4 58.7 54.4 57.7ZM59.5 53.5L61.1 58.8L62.7 53.5L65.1 53.5L61.7 63.3L61.5 63.8Q60.8 65.4 59.0 65.4L59.0 65.4Q58.5 65.4 58.0 65.3L58.0 65.3L58.0 63.6L58.4 63.6Q59.0 63.6 59.3 63.4Q59.6 63.2 59.8 62.7L59.8 62.7L60.1 62.0L57.1 53.5L59.5 53.5Z "/></g><mask id="satori_om-id-1-2-2"><rect x="75" y="47" width="34" height="19" fill="#fff"/></mask><g  ><path fill="#57606a" d="M83.3 50.6L83.3 51.4L78.6 62L77.1 62L81.8 51.8L75.6 51.8L75.6 50.6L83.3 50.6ZM85.1 61.2L85.1 61.2Q85.1 60.9 85.3 60.6Q85.6 60.4 86 60.4Q86.4 60.4 86.7 60.6Q86.9 60.9 86.9 61.2L86.9 61.2Q86.9 61.6 86.7 61.8Q86.4 62.1 86 62.1Q85.6 62.1 85.3 61.8Q85.1 61.6 85.1 61.2ZM91.0 56.6L89.8 56.3L90.4 50.6L96.2 50.6L96.2 52.0L91.6 52.0L91.3 55.1Q92.1 54.6 93.2 54.6L93.2 54.6Q94.7 54.6 95.6 55.6Q96.5 56.6 96.5 58.4L96.5 58.4Q96.5 60.1 95.6 61.1Q94.6 62.2 92.9 62.2L92.9 62.2Q91.4 62.2 90.5 61.3Q89.5 60.5 89.4 59.0L89.4 59.0L90.8 59.0Q90.9 60.0 91.5 60.5Q92.0 61.0 92.9 61.0L92.9 61.0Q94.0 61.0 94.5 60.3Q95.1 59.6 95.1 58.4L95.1 58.4Q95.1 57.3 94.5 56.6Q93.9 55.9 92.8 55.9L92.8 55.9Q91.9 55.9 91.3 56.3L91.3 56.3L91.0 56.6ZM98 53.4L98 52.8Q98 51.8 98.7 51.1Q99.3 50.5 100.3 50.5L100.3 50.5Q101.4 50.5 102.0 51.1Q102.7 51.8 102.7 52.9L102.7 52.9L102.7 53.4Q102.7 54.4 102.0 55.1Q101.4 55.8 100.3 55.8L100.3 55.8Q99.3 55.8 98.7 55.1Q98 54.4 98 53.4L98 53.4ZM99.1 52.8L99.1 53.4Q99.1 54.0 99.4 54.4Q99.8 54.8 100.3 54.8L100.3 54.8Q100.9 54.8 101.2 54.4Q101.6 54.0 101.6 53.4L101.6 53.4L101.6 52.8Q101.6 52.2 101.2 51.8Q100.9 51.4 100.3 51.4Q99.8 51.4 99.4 51.8Q99.1 52.2 99.1 52.8L99.1 52.8ZM103.5 59.8L103.5 59.2Q103.5 58.2 104.2 57.5Q104.8 56.9 105.9 56.9Q106.9 56.9 107.5 57.5Q108.2 58.2 108.2 59.3L108.2 59.3L108.2 59.8Q108.2 60.8 107.6 61.5Q106.9 62.2 105.9 62.2Q104.9 62.2 104.2 61.5Q103.5 60.9 103.5 59.8L103.5 59.8ZM104.6 59.2L104.6 59.8Q104.6 60.4 105.0 60.8Q105.3 61.2 105.9 61.2L105.9 61.2Q106.4 61.2 106.8 60.8Q107.1 60.5 107.1 59.8L107.1 59.8L107.1 59.2Q107.1 58.6 106.8 58.2Q106.4 57.8 105.9 57.8L105.9 57.8Q105.3 57.8 105.0 58.2Q104.6 58.6 104.6 59.2L104.6 59.2ZM106.2 52.3L100.7 61.1L99.9 60.6L105.4 51.7L106.2 52.3Z "/></g><mask id="satori_om-id-1-3"><rect x="119" y="47" width="123" height="19" fill="#fff"/></mask><mask id="satori_om-id-1-3-0"><rect x="119" y="49" width="16" height="16" fill="#fff"/></mask><mask id="satori_om-id-1-3-0-0"><rect x="123" y="53" width="8" height="8" fill="#fff"/></mask><path x="123" y="53" width="8" height="8" fill="#3572A5" d="M127,53 h0 a4,4 0 0 1 4,4 v0 a4,4 0 0 1 -4,4 h0 a4,4 0 0 1 -4,-4 v0 a4,4 0 0 1 4,-4"/><mask id="satori_om-id-1-3-1"><rect x="148" y="47" width="51" height="19" fill="#fff"/></mask><g  ><path fill="#24292f" d="M153.4 58.0L151.4 58.0L151.4 62L149.0 62L149.0 50.6L153.5 50.6Q154.7 50.6 155.7 51.1Q156.7 51.6 157.2 52.4Q157.7 53.3 157.7 54.4L157.7 54.4Q157.7 56.1 156.6 57.0Q155.4 58.0 153.4 58.0L153.4 58.0ZM151.4 52.5L151.4 56.1L153.5 56.1Q154.4 56.1 154.9 55.7Q155.4 55.2 155.4 54.4L155.4 54.4Q155.4 53.6 154.9 53.1Q154.4 52.5 153.5 52.5L153.5 52.5L151.4 52.5ZM160.9 53.5L162.5 58.8L164.0 53.5L166.4 53.5L163.0 63.3L162.9 63.8Q162.1 65.4 160.4 65.4L160.4 65.4Q159.9 65.4 159.4 65.3L159.4 65.3L159.4 63.6L159.7 63.6Q160.3 63.6 160.7 63.4Q161.0 63.2 161.2 62.7L161.2 62.7L161.4 62.0L158.5 53.5L160.9 53.5ZM167.8 51.5L170.0 51.5L170.0 53.5L171.5 53.5L171.5 55.2L170.0 55.2L170.0 59.4Q170.0 59.9 170.2 60.1Q170.4 60.3 170.9 60.3L170.9 60.3Q171.3 60.3 171.6 60.2L171.6 60.2L171.6 62.0Q170.9 62.2 170.2 62.2L170.2 62.2Q167.8 62.2 167.8 59.8L167.8 59.8L167.8 55.2L166.5 55.2L166.5 53.5L167.8 53.5L167.8 51.5ZM174.9 50L174.9 54.5Q175.8 53.4 177.2 53.4L177.2 53.4Q180.0 53.4 180.0 56.6L180.0 56.6L180.0 62L177.7 62L177.7 56.6Q177.7 55.9 177.4 55.6Q177.1 55.2 176.4 55.2L176.4 55.2Q175.4 55.2 174.9 56.0L174.9 56.0L174.9 62L172.7 62L172.7 50L174.9 50ZM181.3 57.8L181.3 57.7Q181.3 56.4 181.8 55.5Q182.3 54.5 183.2 53.9Q184.1 53.4 185.3 53.4L185.3 53.4Q187.0 53.4 188.1 54.4Q189.2 55.5 189.3 57.3L189.3 57.3L189.4 57.9Q189.4 59.8 188.3 61.0Q187.2 62.2 185.4 62.2Q183.5 62.2 182.4 61.0Q181.3 59.8 181.3 57.8L181.3 57.8ZM183.6 57.9L183.6 57.9Q183.6 59.1 184.1 59.7Q184.5 60.3 185.4 60.3L185.4 60.3Q186.2 60.3 186.6 59.7Q187.1 59.1 187.1 57.7L187.1 57.7Q187.1 56.5 186.6 55.9Q186.2 55.2 185.3 55.2L185.3 55.2Q184.5 55.2 184.1 55.9Q183.6 56.5 183.6 57.9ZM190.7 53.5L192.8 53.5L192.9 54.5Q193.8 53.4 195.3 53.4L195.3 53.4Q196.7 53.4 197.3 54.2Q198.0 55.0 198.0 56.5L198.0 56.5L198.0 62L195.7 62L195.7 56.6Q195.7 55.9 195.4 55.6Q195.1 55.2 194.4 55.2L194.4 55.2Q193.4 55.2 193.0 56.0L193.0 56.0L193.0 62L190.7 62L190.7 53.5Z "/></g><mask id="satori_om-id-1-3-2"><rect x="208" y="47" width="34" height="19" fill="#fff"/></mask><g  ><path fill="#57606a" d="M214.4 50.6L214.6 50.6L214.6 51.8L214.4 51.8Q212.7 51.9 211.7 52.8Q210.7 53.8 210.5 55.6L210.5 55.6Q211.4 54.5 213.0 54.5L213.0 54.5Q214.4 54.5 215.3 55.6Q216.2 56.6 216.2 58.3L216.2 58.3Q216.2 60.0 215.3 61.1Q214.3 62.2 212.7 62.2L212.7 62.2Q211.1 62.2 210.0 60.9Q209.0 59.6 209.0 57.7L209.0 57.7L209.0 57.1Q209.0 54.0 210.4 52.3Q211.7 50.7 214.4 50.6L214.4 50.6ZM212.7 55.7L212.7 55.7Q212.0 55.7 211.4 56.2Q210.7 56.6 210.5 57.3L210.5 57.3L210.5 57.8Q210.5 59.2 211.1 60.1Q211.8 61.0 212.7 61.0L212.7 61.0Q213.7 61.0 214.2 60.2Q214.8 59.5 214.8 58.4L214.8 58.4Q214.8 57.2 214.2 56.5Q213.7 55.7 212.7 55.7ZM218.1 61.2L218.1 61.2Q218.1 60.9 218.3 60.6Q218.6 60.4 219 60.4Q219.4 60.4 219.7 60.6Q219.9 60.9 219.9 61.2L219.9 61.2Q219.9 61.6 219.7 61.8Q219.4 62.1 219 62.1Q218.6 62.1 218.3 61.8Q218.1 61.6 218.1 61.2ZM224.0 56.6L222.8 56.3L223.4 50.6L229.2 50.6L229.2 52.0L224.6 52.0L224.3 55.1Q225.1 54.6 226.2 54.6L226.2 54.6Q227.7 54.6 228.6 55.6Q229.5 56.6 229.5 58.4L229.5 58.4Q229.5 60.1 228.6 61.1Q227.6 62.2 225.9 62.2L225.9 62.2Q224.4 62.2 223.5 61.3Q222.5 60.5 222.4 59.0L222.4 59.0L223.8 59.0Q223.9 60.0 224.5 60.5Q225.0 61.0 225.9 61.0L225.9 61.0Q227.0 61.0 227.5 60.3Q228.1 59.6 228.1 58.4L228.1 58.4Q228.1 57.3 227.5 56.6Q226.9 55.9 225.8 55.9L225.8 55.9Q224.9 55.9 224.3 56.3L224.3 56.3L224.0 56.6ZM231 53.4L231 52.8Q231 51.8 231.7 51.1Q232.3 50.5 233.3 50.5L233.3 50.5Q234.4 50.5 235.0 51.1Q235.7 51.8 235.7 52.9L235.7 52.9L235.7 53.4Q235.7 54.4 235.0 55.1Q234.4 55.8 233.3 55.8L233.3 55.8Q232.3 55.8 231.7 55.1Q231 54.4 231 53.4L231 53.4ZM232.1 52.8L232.1 53.4Q232.1 54.0 232.4 54.4Q232.8 54.8 233.3 54.8L233.3 54.8Q233.9 54.8 234.2 54.4Q234.6 54.0 234.6 53.4L234.6 53.4L234.6 52.8Q234.6 52.2 234.2 51.8Q233.9 51.4 233.3 51.4Q232.8 51.4 232.4 51.8Q232.1 52.2 232.1 52.8L232.1 52.8ZM236.5 59.8L236.5 59.2Q236.5 58.2 237.2 57.5Q237.8 56.9 238.9 56.9Q239.9 56.9 240.5 57.5Q241.2 58.2 241.2 59.3L241.2 59.3L241.2 59.8Q241.2 60.8 240.6 61.5Q239.9 62.2 238.9 62.2Q237.9 62.2 237.2 61.5Q236.5 60.9 236.5 59.8L236.5 59.8ZM237.6 59.2L237.6 59.8Q237.6 60.4 238.0 60.8Q238.3 61.2 238.9 61.2L238.9 61.2Q239.4 61.2 239.8 60.8Q240.1 60.5 240.1 59.8L240.1 59.8L240.1 59.2Q240.1 58.6 239.8 58.2Q239.4 57.8 238.9 57.8L238.9 57.8Q238.3 57.8 238.0 58.2Q237.6 58.6 237.6 59.2L237.6 59.2ZM239.2 52.3L233.7 61.1L232.9 60.6L238.4 51.7L239.2 52.3Z "/></g><mask id="satori_om-id-1-4"><rect x="252" y="47" width="116" height="19" fill="#fff"/></mask><mask id="satori_om-id-1-4-0"><rect x="252" y="49" width="16" height="16" fill="#fff"/></mask><mask id="satori_om-id-1-4-0-0"><rect x="256" y="53" width="8" height="8" fill="#fff"/></mask><path x="256" y="53" width="8" height="8" fill="#e34c26" d="M260,53 h0 a4,4 0 0 1 4,4 v0 a4,4 0 0 1 -4,4 h0 a4,4 0 0 1 -4,-4 v0 a4,4 0 0 1 4,-4"/><mask id="satori_om-id-1-4-1"><rect x="281" y="47" width="44" height="19" fill="#fff"/></mask><g  ><path fill="#24292f" d="M291.3 50.6L291.3 62L288.9 62L288.9 57.1L284.4 57.1L284.4 62L282.0 62L282.0 50.6L284.4 50.6L284.4 55.2L288.9 55.2L288.9 50.6L291.3 50.6ZM301.7 50.6L301.7 52.5L298.2 52.5L298.2 62L295.8 62L295.8 52.5L292.4 52.5L292.4 50.6L301.7 50.6ZM303.0 50.6L306.1 50.6L309.0 58.9L311.9 50.6L315.0 50.6L315.0 62L312.6 62L312.6 58.9L312.8 53.5L309.8 62L308.2 62L305.1 53.5L305.3 58.9L305.3 62L303.0 62L303.0 50.6ZM319.4 50.6L319.4 60.1L324.3 60.1L324.3 62L317.0 62L317.0 50.6L319.4 50.6Z "/></g><mask id="satori_om-id-1-4-2"><rect x="334" y="47" width="34" height="19" fill="#fff"/></mask><g  ><path fill="#57606a" d="M336.8 56.6L335.6 56.3L336.2 50.6L342.0 50.6L342.0 52.0L337.4 52.0L337.1 55.1Q337.9 54.6 339.0 54.6L339.0 54.6Q340.5 54.6 341.4 55.6Q342.4 56.6 342.4 58.4L342.4 58.4Q342.4 60.1 341.4 61.1Q340.5 62.2 338.8 62.2L338.8 62.2Q337.2 62.2 336.3 61.3Q335.3 60.5 335.2 59.0L335.2 59.0L336.6 59.0Q336.7 60.0 337.3 60.5Q337.8 61.0 338.8 61.0L338.8 61.0Q339.8 61.0 340.3 60.3Q340.9 59.6 340.9 58.4L340.9 58.4Q340.9 57.3 340.3 56.6Q339.7 55.9 338.6 55.9L338.6 55.9Q337.7 55.9 337.1 56.3L337.1 56.3L336.8 56.6ZM344.1 61.2L344.1 61.2Q344.1 60.9 344.3 60.6Q344.6 60.4 345 60.4Q345.4 60.4 345.7 60.6Q345.9 60.9 345.9 61.2L345.9 61.2Q345.9 61.6 345.7 61.8Q345.4 62.1 345 62.1Q344.6 62.1 344.3 61.8Q344.1 61.6 344.1 61.2ZM354.2 50.6L354.2 58.2L355.8 58.2L355.8 59.4L354.2 59.4L354.2 62L352.8 62L352.8 59.4L347.6 59.4L347.6 58.5L352.7 50.6L354.2 50.6ZM352.6 52.9L349.3 58.2L352.8 58.2L352.8 52.6L352.6 52.9ZM357 53.4L357 52.8Q357 51.8 357.7 51.1Q358.3 50.5 359.3 50.5L359.3 50.5Q360.4 50.5 361.0 51.1Q361.7 51.8 361.7 52.9L361.7 52.9L361.7 53.4Q361.7 54.4 361.0 55.1Q360.4 55.8 359.3 55.8L359.3 55.8Q358.3 55.8 357.7 55.1Q357 54.4 357 53.4L357 53.4ZM358.1 52.8L358.1 53.4Q358.1 54.0 358.4 54.4Q358.8 54.8 359.3 54.8L359.3 54.8Q359.9 54.8 360.2 54.4Q360.6 54.0 360.6 53.4L360.6 53.4L360.6 52.8Q360.6 52.2 360.2 51.8Q359.9 51.4 359.3 51.4Q358.8 51.4 358.4 51.8Q358.1 52.2 358.1 52.8L358.1 52.8ZM362.5 59.8L362.5 59.2Q362.5 58.2 363.2 57.5Q363.8 56.9 364.9 56.9Q365.9 56.9 366.5 57.5Q367.2 58.2 367.2 59.3L367.2 59.3L367.2 59.8Q367.2 60.8 366.6 61.5Q365.9 62.2 364.9 62.2Q363.9 62.2 363.2 61.5Q362.5 60.9 362.5 59.8L362.5 59.8ZM363.6 59.2L363.6 59.8Q363.6 60.4 364.0 60.8Q364.3 61.2 364.9 61.2L364.9 61.2Q365.4 61.2 365.8 60.8Q366.1 60.5 366.1 59.8L366.1 59.8L366.1 59.2Q366.1 58.6 365.8 58.2Q365.4 57.8 364.9 57.8L364.9 57.8Q364.3 57.8 364.0 58.2Q363.6 58.6 363.6 59.2L363.6 59.2ZM365.2 52.3L359.7 61.1L358.9 60.6L364.4 51.7L365.2 52.3Z "/></g><mask id="satori_om-id-1-5"><rect x="0" y="76" width="149" height="19" fill="#fff"/></mask><mask id="satori_om-id-1-5-0"><rect x="0" y="78" width="16" height="16" fill="#fff"/></mask><mask id="satori_om-id-1-5-0-0"><rect x="4" y="82" width="8" height="8" fill="#fff"/></mask><path x="4" y="82" width="8" height="8" fill="#f1e05a" d="M8,82 h0 a4,4 0 0 1 4,4 v0 a4,4 0 0 1 -4,4 h0 a4,4 0 0 1 -4,-4 v0 a4,4 0 0 1 4,-4"/><mask id="satori_om-id-1-5-1"><rect x="29" y="76" width="77" height="19" fill="#fff"/></mask><g  ><path fill="#24292f" d="M34.6 87.5L34.6 79.6L36.9 79.6L36.9 87.5Q36.9 88.6 36.5 89.4Q36.0 90.3 35.1 90.7Q34.2 91.2 33.1 91.2L33.1 91.2Q31.3 91.2 30.3 90.2Q29.3 89.3 29.3 87.6L29.3 87.6L31.7 87.6Q31.7 88.5 32.0 88.9Q32.4 89.3 33.1 89.3L33.1 89.3Q33.8 89.3 34.2 88.8Q34.6 88.4 34.6 87.5L34.6 87.5ZM46.0 91L43.7 91Q43.5 90.7 43.5 90.2L43.5 90.2Q42.7 91.2 41.3 91.2L41.3 91.2Q40.1 91.2 39.3 90.4Q38.5 89.7 38.5 88.6L38.5 88.6Q38.5 87.3 39.5 86.6Q40.5 85.8 42.3 85.8L42.3 85.8L43.4 85.8L43.4 85.4Q43.4 84.8 43.1 84.4Q42.8 84.1 42.1 84.1L42.1 84.1Q41.6 84.1 41.2 84.3Q40.9 84.6 40.9 85.1L40.9 85.1L38.7 85.1Q38.7 84.4 39.1 83.7Q39.6 83.1 40.4 82.7Q41.2 82.4 42.3 82.4L42.3 82.4Q43.8 82.4 44.7 83.2Q45.6 84.0 45.6 85.4L45.6 85.4L45.6 89.0Q45.7 90.3 46.0 90.9L46.0 90.9L46.0 91ZM41.8 89.4L41.8 89.4Q42.3 89.4 42.8 89.2Q43.2 89.0 43.4 88.6L43.4 88.6L43.4 87.2L42.5 87.2Q40.8 87.2 40.7 88.3L40.7 88.3L40.7 88.5Q40.7 88.9 41.0 89.2Q41.3 89.4 41.8 89.4ZM48.9 82.5L50.4 88.2L52 82.5L54.4 82.5L51.5 91L49.4 91L46.5 82.5L48.9 82.5ZM62.4 91L60.1 91Q60.0 90.7 59.9 90.2L59.9 90.2Q59.1 91.2 57.8 91.2L57.8 91.2Q56.5 91.2 55.7 90.4Q54.9 89.7 54.9 88.6L54.9 88.6Q54.9 87.3 55.9 86.6Q56.9 85.8 58.8 85.8L58.8 85.8L59.8 85.8L59.8 85.4Q59.8 84.8 59.5 84.4Q59.2 84.1 58.6 84.1L58.6 84.1Q58.0 84.1 57.7 84.3Q57.3 84.6 57.3 85.1L57.3 85.1L55.1 85.1Q55.1 84.4 55.5 83.7Q56.0 83.1 56.8 82.7Q57.6 82.4 58.7 82.4L58.7 82.4Q60.2 82.4 61.2 83.2Q62.1 84.0 62.1 85.4L62.1 85.4L62.1 89.0Q62.1 90.3 62.4 90.9L62.4 90.9L62.4 91ZM58.3 89.4L58.3 89.4Q58.8 89.4 59.2 89.2Q59.6 89.0 59.8 88.6L59.8 88.6L59.8 87.2L59.0 87.2Q57.3 87.2 57.2 88.3L57.2 88.3L57.2 88.5Q57.2 88.9 57.5 89.2Q57.8 89.4 58.3 89.4ZM69.9 88.0L69.9 88.0Q69.9 87.4 69.4 87.0Q68.9 86.6 67.7 86.2Q66.5 85.9 65.8 85.5L65.8 85.5Q63.8 84.4 63.8 82.6L63.8 82.6Q63.8 81.7 64.4 81.0Q64.9 80.3 65.8 79.9Q66.8 79.5 68.0 79.5L68.0 79.5Q69.3 79.5 70.2 79.9Q71.2 80.4 71.7 81.2Q72.2 82.0 72.2 83.0L72.2 83.0L69.9 83.0Q69.9 82.2 69.4 81.8Q68.9 81.3 68.0 81.3L68.0 81.3Q67.1 81.3 66.7 81.7Q66.2 82.1 66.2 82.7L66.2 82.7Q66.2 83.2 66.7 83.6Q67.3 84.0 68.4 84.3L68.4 84.3Q70.4 84.9 71.3 85.8Q72.2 86.7 72.2 88L72.2 88Q72.2 89.5 71.1 90.3Q70.0 91.2 68.1 91.2L68.1 91.2Q66.8 91.2 65.7 90.7Q64.6 90.2 64.1 89.4Q63.5 88.5 63.5 87.4L63.5 87.4L65.8 87.4Q65.8 89.3 68.1 89.3L68.1 89.3Q68.9 89.3 69.4 89.0Q69.9 88.6 69.9 88.0ZM77.2 89.3L77.2 89.3Q77.8 89.3 78.2 89.0Q78.6 88.6 78.6 88.1L78.6 88.1L80.7 88.1Q80.7 88.9 80.2 89.7Q79.8 90.4 79.0 90.8Q78.2 91.2 77.2 91.2L77.2 91.2Q75.4 91.2 74.3 90.0Q73.3 88.9 73.3 86.8L73.3 86.8L73.3 86.7Q73.3 84.7 74.3 83.6Q75.4 82.4 77.2 82.4L77.2 82.4Q78.8 82.4 79.7 83.3Q80.7 84.2 80.7 85.7L80.7 85.7L78.6 85.7Q78.6 85.0 78.2 84.6Q77.8 84.2 77.1 84.2L77.1 84.2Q76.4 84.2 76.0 84.8Q75.6 85.4 75.6 86.7L75.6 86.7L75.6 86.9Q75.6 88.2 76.0 88.8Q76.4 89.3 77.2 89.3ZM86.8 82.5L86.7 84.7Q86.3 84.6 85.9 84.6L85.9 84.6Q84.6 84.6 84.3 85.5L84.3 85.5L84.3 91L82.0 91L82.0 82.5L84.1 82.5L84.2 83.6Q84.9 82.4 86.1 82.4L86.1 82.4Q86.4 82.4 86.8 82.5L86.8 82.5ZM90.2 82.5L90.2 91L87.9 91L87.9 82.5L90.2 82.5ZM87.8 80.4L87.8 80.4Q87.8 79.9 88.2 79.5Q88.5 79.2 89.1 79.2L89.1 79.2Q89.7 79.2 90 79.5Q90.3 79.9 90.3 80.4L90.3 80.4Q90.3 80.9 90.0 81.2Q89.6 81.5 89.1 81.5Q88.5 81.5 88.2 81.2Q87.8 80.9 87.8 80.4ZM99.7 86.7L99.7 86.9Q99.7 88.8 98.8 90.0Q97.9 91.2 96.4 91.2L96.4 91.2Q95.1 91.2 94.3 90.3L94.3 90.3L94.3 94.3L92.1 94.3L92.1 82.5L94.2 82.5L94.2 83.4Q95.1 82.4 96.4 82.4L96.4 82.4Q97.9 82.4 98.8 83.5Q99.7 84.7 99.7 86.7L99.7 86.7ZM97.4 86.7L97.4 86.7Q97.4 85.5 97.0 84.9Q96.6 84.2 95.8 84.2L95.8 84.2Q94.7 84.2 94.3 85.0L94.3 85.0L94.3 88.5Q94.7 89.3 95.8 89.3L95.8 89.3Q97.4 89.3 97.4 86.7ZM101.5 80.5L103.8 80.5L103.8 82.5L105.2 82.5L105.2 84.2L103.8 84.2L103.8 88.4Q103.8 88.9 104.0 89.1Q104.1 89.3 104.6 89.3L104.6 89.3Q105.0 89.3 105.3 89.2L105.3 89.2L105.3 91.0Q104.6 91.2 103.9 91.2L103.9 91.2Q101.6 91.2 101.5 88.8L101.5 88.8L101.5 84.2L100.3 84.2L100.3 82.5L101.5 82.5L101.5 80.5Z "/></g><mask id="satori_om-id-1-5-2"><rect x="115" y="76" width="34" height="19" fill="#fff"/></mask><g  ><path fill="#57606a" d="M118.0 85.8L118.0 84.6L119.1 84.6Q120.2 84.6 120.7 84.1Q121.3 83.5 121.3 82.7L121.3 82.7Q121.3 80.7 119.3 80.7L119.3 80.7Q118.4 80.7 117.8 81.2Q117.3 81.7 117.3 82.6L117.3 82.6L115.8 82.6Q115.8 81.3 116.8 80.4Q117.8 79.5 119.3 79.5L119.3 79.5Q120.9 79.5 121.9 80.3Q122.8 81.2 122.8 82.7L122.8 82.7Q122.8 83.4 122.3 84.1Q121.8 84.8 121.0 85.2L121.0 85.2Q121.9 85.5 122.4 86.1Q122.9 86.8 122.9 87.8L122.9 87.8Q122.9 89.4 121.9 90.3Q120.9 91.2 119.3 91.2Q117.7 91.2 116.7 90.3Q115.7 89.4 115.7 88L115.7 88L117.2 88Q117.2 88.9 117.8 89.4Q118.4 90.0 119.3 90.0L119.3 90.0Q120.4 90.0 120.9 89.4Q121.5 88.9 121.5 87.9L121.5 87.9Q121.5 86.9 120.9 86.3Q120.3 85.8 119.1 85.8L119.1 85.8L118.0 85.8ZM125.1 90.2L125.1 90.2Q125.1 89.9 125.3 89.6Q125.6 89.4 126 89.4Q126.4 89.4 126.7 89.6Q126.9 89.9 126.9 90.2L126.9 90.2Q126.9 90.6 126.7 90.8Q126.4 91.1 126 91.1Q125.6 91.1 125.3 90.8Q125.1 90.6 125.1 90.2ZM136.3 84.3L136.3 86.1Q136.3 88.7 135.4 89.9Q134.5 91.2 132.7 91.2L132.7 91.2Q130.9 91.2 130 89.9Q129.1 88.7 129.1 86.3L129.1 86.3L129.1 84.4Q129.1 81.9 130.0 80.7Q130.8 79.5 132.7 79.5L132.7 79.5Q134.5 79.5 135.4 80.6Q136.3 81.8 136.3 84.3L136.3 84.3ZM134.8 86.5L134.8 84.2Q134.8 82.3 134.3 81.5Q133.8 80.7 132.7 80.7L132.7 80.7Q131.6 80.7 131.1 81.5Q130.6 82.3 130.5 84.1L130.5 84.1L130.5 86.4Q130.5 88.2 131.1 89.1Q131.6 90.0 132.7 90.0L132.7 90.0Q133.8 90.0 134.3 89.1Q134.8 88.3 134.8 86.5L134.8 86.5ZM138 82.4L138 81.8Q138 80.8 138.7 80.1Q139.3 79.5 140.3 79.5L140.3 79.5Q141.4 79.5 142.0 80.1Q142.7 80.8 142.7 81.9L142.7 81.9L142.7 82.4Q142.7 83.4 142.0 84.1Q141.4 84.8 140.3 84.8L140.3 84.8Q139.3 84.8 138.7 84.1Q138 83.4 138 82.4L138 82.4ZM139.1 81.8L139.1 82.4Q139.1 83.0 139.4 83.4Q139.8 83.8 140.3 83.8L140.3 83.8Q140.9 83.8 141.2 83.4Q141.6 83.0 141.6 82.4L141.6 82.4L141.6 81.8Q141.6 81.2 141.2 80.8Q140.9 80.4 140.3 80.4Q139.8 80.4 139.4 80.8Q139.1 81.2 139.1 81.8L139.1 81.8ZM143.5 88.8L143.5 88.2Q143.5 87.2 144.2 86.5Q144.8 85.9 145.9 85.9Q146.9 85.9 147.5 86.5Q148.2 87.2 148.2 88.3L148.2 88.3L148.2 88.8Q148.2 89.8 147.6 90.5Q146.9 91.2 145.9 91.2Q144.9 91.2 144.2 90.5Q143.5 89.9 143.5 88.8L143.5 88.8ZM144.6 88.2L144.6 88.8Q144.6 89.4 145.0 89.8Q145.3 90.2 145.9 90.2L145.9 90.2Q146.4 90.2 146.8 89.8Q147.1 89.5 147.1 88.8L147.1 88.8L147.1 88.2Q147.1 87.6 146.8 87.2Q146.4 86.8 145.9 86.8L145.9 86.8Q145.3 86.8 145.0 87.2Q144.6 87.6 144.6 88.2L144.6 88.2ZM146.2 81.3L140.7 90.1L139.9 89.6L145.4 80.7L146.2 81.3Z "/></g><mask id="satori_om-id-1-6"><rect x="159" y="76" width="92" height="19" fill="#fff"/></mask><mask id="satori_om-id-1-6-0"><rect x="159" y="78" width="16" height="16" fill="#fff"/></mask><mask id="satori_om-id-1-6-0-0"><rect x="163" y="82" width="8" height="8" fill="#fff"/></mask><path x="163" y="82" width="8" height="8" fill="#00ADD8" d="M167,82 h0 a4,4 0 0 1 4,4 v0 a4,4 0 0 1 -4,4 h0 a4,4 0 0 1 -4,-4 v0 a4,4 0 0 1 4,-4"/><mask id="satori_om-id-1-6-1"><rect x="188" y="76" width="20" height="19" fill="#fff"/></mask><g  ><path fill="#24292f" d="M198.0 85.0L198.0 89.6Q197.4 90.3 196.2 90.7Q195.1 91.2 193.7 91.2L193.7 91.2Q192.2 91.2 191.1 90.5Q190.0 89.9 189.4 88.6Q188.8 87.4 188.7 85.8L188.7 85.8L188.7 85.0Q188.7 83.3 189.3 82.0Q189.9 80.8 191.0 80.1Q192.0 79.5 193.5 79.5L193.5 79.5Q195.5 79.5 196.7 80.4Q197.8 81.4 198.0 83.2L198.0 83.2L195.7 83.2Q195.6 82.3 195.0 81.8Q194.5 81.4 193.6 81.4L193.6 81.4Q192.4 81.4 191.8 82.3Q191.1 83.2 191.1 84.9L191.1 84.9L191.1 85.7Q191.1 87.4 191.8 88.4Q192.5 89.3 193.8 89.3L193.8 89.3Q195.1 89.3 195.7 88.7L195.7 88.7L195.7 86.8L193.5 86.8L193.5 85.0L198.0 85.0ZM199.4 86.8L199.4 86.7Q199.4 85.4 199.9 84.5Q200.4 83.5 201.3 82.9Q202.2 82.4 203.4 82.4L203.4 82.4Q205.1 82.4 206.2 83.4Q207.3 84.5 207.4 86.3L207.4 86.3L207.4 86.9Q207.4 88.8 206.3 90.0Q205.3 91.2 203.4 91.2Q201.6 91.2 200.5 90.0Q199.4 88.8 199.4 86.8L199.4 86.8ZM201.7 86.9L201.7 86.9Q201.7 88.1 202.1 88.7Q202.6 89.3 203.4 89.3L203.4 89.3Q204.2 89.3 204.7 88.7Q205.2 88.1 205.2 86.7L205.2 86.7Q205.2 85.5 204.7 84.9Q204.2 84.2 203.4 84.2L203.4 84.2Q202.6 84.2 202.1 84.9Q201.7 85.5 201.7 86.9Z "/></g><mask id="satori_om-id-1-6-2"><rect x="217" y="76" width="34" height="19" fill="#fff"/></mask><g  ><path fill="#57606a" d="M222.7 79.6L222.7 91L221.2 91L221.2 81.4L218.3 82.4L218.3 81.1L222.5 79.6L222.7 79.6ZM227.1 90.2L227.1 90.2Q227.1 89.9 227.3 89.6Q227.6 89.4 228 89.4Q228.4 89.4 228.7 89.6Q228.9 89.9 228.9 90.2L228.9 90.2Q228.9 90.6 228.7 90.8Q228.4 91.1 228 91.1Q227.6 91.1 227.3 90.8Q227.1 90.6 227.1 90.2ZM238.5 79.6L238.5 80.4L233.8 91L232.3 91L237.0 80.8L230.8 80.8L230.8 79.6L238.5 79.6ZM240 82.4L240 81.8Q240 80.8 240.7 80.1Q241.3 79.5 242.3 79.5L242.3 79.5Q243.4 79.5 244.0 80.1Q244.7 80.8 244.7 81.9L244.7 81.9L244.7 82.4Q244.7 83.4 244.0 84.1Q243.4 84.8 242.3 84.8L242.3 84.8Q241.3 84.8 240.7 84.1Q240 83.4 240 82.4L240 82.4ZM241.1 81.8L241.1 82.4Q241.1 83.0 241.4 83.4Q241.8 83.8 242.3 83.8L242.3 83.8Q242.9 83.8 243.2 83.4Q243.6 83.0 243.6 82.4L243.6 82.4L243.6 81.8Q243.6 81.2 243.2 80.8Q242.9 80.4 242.3 80.4Q241.8 80.4 241.4 80.8Q241.1 81.2 241.1 81.8L241.1 81.8ZM245.5 88.8L245.5 88.2Q245.5 87.2 246.2 86.5Q246.8 85.9 247.9 85.9Q248.9 85.9 249.5 86.5Q250.2 87.2 250.2 88.3L250.2 88.3L250.2 88.8Q250.2 89.8 249.6 90.5Q248.9 91.2 247.9 91.2Q246.9 91.2 246.2 90.5Q245.5 89.9 245.5 88.8L245.5 88.8ZM246.6 88.2L246.6 88.8Q246.6 89.4 247.0 89.8Q247.3 90.2 247.9 90.2L247.9 90.2Q248.4 90.2 248.8 89.8Q249.1 89.5 249.1 88.8L249.1 88.8L249.1 88.2Q249.1 87.6 248.8 87.2Q248.4 86.8 247.9 86.8L247.9 86.8Q247.3 86.8 247.0 87.2Q246.6 87.6 246.6 88.2L246.6 88.2ZM248.2 81.3L242.7 90.1L241.9 89.6L247.4 80.7L248.2 81.3Z "/></g><mask id="satori_om-id-1-7"><rect x="261" y="76" width="112" height="19" fill="#fff"/></mask><mask id="satori_om-id-1-7-0"><rect x="261" y="78" width="16" height="16" fill="#fff"/></mask><mask id="satori_om-id-1-7-0-0"><rect x="265" y="82" width="8" height="8" fill="#fff"/></mask><path x="265" y="82" width="8" height="8" fill="#ff5a03" d="M269,82 h0 a4,4 0 0 1 4,4 v0 a4,4 0 0 1 -4,4 h0 a4,4 0 0 1 -4,-4 v0 a4,4 0 0 1 4,-4"/><mask id="satori_om-id-1-7-1"><rect x="290" y="76" width="40" height="19" fill="#fff"/></mask><g  ><path fill="#24292f" d="M298.2 91L297.4 88.7L293.3 88.7L292.5 91L290.1 91L294.3 79.6L296.5 79.6L300.7 91L298.2 91ZM295.4 82.5L294.0 86.8L296.8 86.8L295.4 82.5ZM306.2 88.7L306.2 88.7Q306.2 88.3 305.8 88.0Q305.4 87.8 304.5 87.6L304.5 87.6Q301.5 87.0 301.5 85.0L301.5 85.0Q301.5 83.9 302.4 83.1Q303.3 82.4 304.8 82.4L304.8 82.4Q306.5 82.4 307.4 83.1Q308.4 83.9 308.4 85.1L308.4 85.1L306.1 85.1Q306.1 84.6 305.8 84.3Q305.5 84 304.8 84L304.8 84Q304.3 84 304.0 84.3Q303.6 84.5 303.6 84.9L303.6 84.9Q303.6 85.3 304.0 85.5Q304.4 85.8 305.2 85.9Q306.0 86.1 306.6 86.3L306.6 86.3Q308.4 87.0 308.4 88.6L308.4 88.6Q308.4 89.7 307.4 90.4Q306.4 91.2 304.9 91.2L304.9 91.2Q303.8 91.2 303.0 90.8Q302.1 90.4 301.7 89.7Q301.2 89.1 301.2 88.3L301.2 88.3L303.3 88.3Q303.4 88.9 303.8 89.2Q304.2 89.6 304.9 89.6L304.9 89.6Q305.5 89.6 305.9 89.3Q306.2 89.1 306.2 88.7ZM310.3 80.5L312.6 80.5L312.6 82.5L314.0 82.5L314.0 84.2L312.6 84.2L312.6 88.4Q312.6 88.9 312.7 89.1Q312.9 89.3 313.4 89.3L313.4 89.3Q313.8 89.3 314.1 89.2L314.1 89.2L314.1 91.0Q313.4 91.2 312.7 91.2L312.7 91.2Q310.4 91.2 310.3 88.8L310.3 88.8L310.3 84.2L309.1 84.2L309.1 82.5L310.3 82.5L310.3 80.5ZM320.0 82.5L320.0 84.7Q319.6 84.6 319.2 84.6L319.2 84.6Q317.9 84.6 317.5 85.5L317.5 85.5L317.5 91L315.3 91L315.3 82.5L317.4 82.5L317.5 83.6Q318.1 82.4 319.3 82.4L319.3 82.4Q319.7 82.4 320.0 82.5L320.0 82.5ZM320.5 86.8L320.5 86.7Q320.5 85.4 321.0 84.5Q321.4 83.5 322.3 82.9Q323.3 82.4 324.5 82.4L324.5 82.4Q326.2 82.4 327.3 83.4Q328.3 84.5 328.5 86.3L328.5 86.3L328.5 86.9Q328.5 88.8 327.4 90.0Q326.3 91.2 324.5 91.2Q322.6 91.2 321.6 90.0Q320.5 88.8 320.5 86.8L320.5 86.8ZM322.7 86.9L322.7 86.9Q322.7 88.1 323.2 88.7Q323.6 89.3 324.5 89.3L324.5 89.3Q325.3 89.3 325.8 88.7Q326.2 88.1 326.2 86.7L326.2 86.7Q326.2 85.5 325.8 84.9Q325.3 84.2 324.5 84.2L324.5 84.2Q323.6 84.2 323.2 84.9Q322.7 85.5 322.7 86.9Z "/></g><mask id="satori_om-id-1-7-2"><rect x="339" y="76" width="34" height="19" fill="#fff"/></mask><g  ><path fill="#57606a" d="M344.7 79.6L344.7 91L343.2 91L343.2 81.4L340.3 82.4L340.3 81.1L344.5 79.6L344.7 79.6ZM349.1 90.2L349.1 90.2Q349.1 89.9 349.3 89.6Q349.6 89.4 350 89.4Q350.4 89.4 350.7 89.6Q350.9 89.9 350.9 90.2L350.9 90.2Q350.9 90.6 350.7 90.8Q350.4 91.1 350 91.1Q349.6 91.1 349.3 90.8Q349.1 90.6 349.1 90.2ZM355.2 85.8L355.2 84.6L356.3 84.6Q357.4 84.6 357.9 84.1Q358.5 83.5 358.5 82.7L358.5 82.7Q358.5 80.7 356.5 80.7L356.5 80.7Q355.6 80.7 355.0 81.2Q354.5 81.7 354.5 82.6L354.5 82.6L353.0 82.6Q353.0 81.3 354.0 80.4Q355.0 79.5 356.5 79.5L356.5 79.5Q358.1 79.5 359.1 80.3Q360.0 81.2 360.0 82.7L360.0 82.7Q360.0 83.4 359.5 84.1Q359.0 84.8 358.2 85.2L358.2 85.2Q359.1 85.5 359.6 86.1Q360.1 86.8 360.1 87.8L360.1 87.8Q360.1 89.4 359.1 90.3Q358.1 91.2 356.5 91.2Q354.9 91.2 353.9 90.3Q352.9 89.4 352.9 88L352.9 88L354.4 88Q354.4 88.9 355.0 89.4Q355.6 90.0 356.5 90.0L356.5 90.0Q357.6 90.0 358.1 89.4Q358.7 88.9 358.7 87.9L358.7 87.9Q358.7 86.9 358.1 86.3Q357.5 85.8 356.3 85.8L356.3 85.8L355.2 85.8ZM362 82.4L362 81.8Q362 80.8 362.7 80.1Q363.3 79.5 364.3 79.5L364.3 79.5Q365.4 79.5 366.0 80.1Q366.7 80.8 366.7 81.9L366.7 81.9L366.7 82.4Q366.7 83.4 366.0 84.1Q365.4 84.8 364.3 84.8L364.3 84.8Q363.3 84.8 362.7 84.1Q362 83.4 362 82.4L362 82.4ZM363.1 81.8L363.1 82.4Q363.1 83.0 363.4 83.4Q363.8 83.8 364.3 83.8L364.3 83.8Q364.9 83.8 365.2 83.4Q365.6 83.0 365.6 82.4L365.6 82.4L365.6 81.8Q365.6 81.2 365.2 80.8Q364.9 80.4 364.3 80.4Q363.8 80.4 363.4 80.8Q363.1 81.2 363.1 81.8L363.1 81.8ZM367.5 88.8L367.5 88.2Q367.5 87.2 368.2 86.5Q368.8 85.9 369.9 85.9Q370.9 85.9 371.5 86.5Q372.2 87.2 372.2 88.3L372.2 88.3L372.2 88.8Q372.2 89.8 371.6 90.5Q370.9 91.2 369.9 91.2Q368.9 91.2 368.2 90.5Q367.5 89.9 367.5 88.8L367.5 88.8ZM368.6 88.2L368.6 88.8Q368.6 89.4 369.0 89.8Q369.3 90.2 369.9 90.2L369.9 90.2Q370.4 90.2 370.8 89.8Q371.1 89.5 371.1 88.8L371.1 88.8L371.1 88.2Q371.1 87.6 370.8 87.2Q370.4 86.8 369.9 86.8L369.9 86.8Q369.3 86.8 369.0 87.2Q368.6 87.6 368.6 88.2L368.6 88.2ZM370.2 81.3L364.7 90.1L363.9 89.6L369.4 80.7L370.2 81.3Z "/></g><mask id="satori_om-id-1-8"><rect x="0" y="105" width="83" height="19" fill="#fff"/></mask><mask id="satori_om-id-1-8-0"><rect x="0" y="107" width="16" height="16" fill="#fff"/></mask><mask id="satori_om-id-1-8-0-0"><rect x="4" y="111" width="8" height="8" fill="#fff"/></mask><path x="4" y="111" width="8" height="8" fill="#555555" d="M8,111 h0 a4,4 0 0 1 4,4 v0 a4,4 0 0 1 -4,4 h0 a4,4 0 0 1 -4,-4 v0 a4,4 0 0 1 4,-4"/><mask id="satori_om-id-1-8-1"><rect x="29" y="105" width="11" height="19" fill="#fff"/></mask><g  ><path fill="#24292f" d="M36.6 116.2L38.9 116.2Q38.8 118.0 37.6 119.1Q36.4 120.2 34.4 120.2L34.4 120.2Q32.2 120.2 30.9 118.7Q29.7 117.2 29.7 114.6L29.7 114.6L29.7 113.9Q29.7 112.3 30.3 111.1Q30.8 109.8 31.9 109.1Q33.0 108.5 34.4 108.5L34.4 108.5Q36.4 108.5 37.6 109.5Q38.8 110.6 39.0 112.5L39.0 112.5L36.6 112.5Q36.5 111.4 36.0 110.9Q35.5 110.4 34.4 110.4L34.4 110.4Q33.2 110.4 32.6 111.2Q32.1 112.1 32.0 113.8L32.0 113.8L32.0 114.7Q32.0 116.5 32.6 117.4Q33.2 118.2 34.4 118.2L34.4 118.2Q35.5 118.2 36.0 117.7Q36.5 117.3 36.6 116.2L36.6 116.2Z "/></g><mask id="satori_om-id-1-8-2"><rect x="49" y="105" width="34" height="19" fill="#fff"/></mask><g  ><path fill="#57606a" d="M57.1 113.3L57.1 115.1Q57.1 117.7 56.2 118.9Q55.3 120.2 53.5 120.2L53.5 120.2Q51.7 120.2 50.8 118.9Q49.9 117.7 49.9 115.3L49.9 115.3L49.9 113.4Q49.9 110.9 50.8 109.7Q51.6 108.5 53.5 108.5L53.5 108.5Q55.3 108.5 56.2 109.6Q57.1 110.8 57.1 113.3L57.1 113.3ZM55.6 115.5L55.6 113.2Q55.6 111.3 55.1 110.5Q54.6 109.7 53.5 109.7L53.5 109.7Q52.4 109.7 51.9 110.5Q51.4 111.3 51.3 113.1L51.3 113.1L51.3 115.4Q51.3 117.2 51.9 118.1Q52.4 119.0 53.5 119.0L53.5 119.0Q54.6 119.0 55.1 118.1Q55.6 117.3 55.6 115.5L55.6 115.5ZM59.1 119.2L59.1 119.2Q59.1 118.9 59.3 118.6Q59.6 118.4 60 118.4Q60.4 118.4 60.7 118.6Q60.9 118.9 60.9 119.2L60.9 119.2Q60.9 119.6 60.7 119.8Q60.4 120.1 60 120.1Q59.6 120.1 59.3 119.8Q59.1 119.6 59.1 119.2ZM70.5 108.6L70.5 109.4L65.8 120L64.3 120L69.0 109.8L62.8 109.8L62.8 108.6L70.5 108.6ZM72 111.4L72 110.8Q72 109.8 72.7 109.1Q73.3 108.5 74.3 108.5L74.3 108.5Q75.4 108.5 76.0 109.1Q76.7 109.8 76.7 110.9L76.7 110.9L76.7 111.4Q76.7 112.4 76.0 113.1Q75.4 113.8 74.3 113.8L74.3 113.8Q73.3 113.8 72.7 113.1Q72 112.4 72 111.4L72 111.4ZM73.1 110.8L73.1 111.4Q73.1 112.0 73.4 112.4Q73.8 112.8 74.3 112.8L74.3 112.8Q74.9 112.8 75.2 112.4Q75.6 112.0 75.6 111.4L75.6 111.4L75.6 110.8Q75.6 110.2 75.2 109.8Q74.9 109.4 74.3 109.4Q73.8 109.4 73.4 109.8Q73.1 110.2 73.1 110.8L73.1 110.8ZM77.5 117.8L77.5 117.2Q77.5 116.2 78.2 115.5Q78.8 114.9 79.9 114.9Q80.9 114.9 81.5 115.5Q82.2 116.2 82.2 117.3L82.2 117.3L82.2 117.8Q82.2 118.8 81.6 119.5Q80.9 120.2 79.9 120.2Q78.9 120.2 78.2 119.5Q77.5 118.9 77.5 117.8L77.5 117.8ZM78.6 117.2L78.6 117.8Q78.6 118.4 79.0 118.8Q79.3 119.2 79.9 119.2L79.9 119.2Q80.4 119.2 80.8 118.8Q81.1 118.5 81.1 117.8L81.1 117.8L81.1 117.2Q81.1 116.6 80.8 116.2Q80.4 115.8 79.9 115.8L79.9 115.8Q79.3 115.8 79.0 116.2Q78.6 116.6 78.6 117.2L78.6 117.2ZM80.2 110.3L74.7 119.1L73.9 118.6L79.4 109.7L80.2 110.3Z "/></g><mask id="satori_om-id-1-9"><rect x="93" y="105" width="103" height="19" fill="#fff"/></mask><mask id="satori_om-id-1-9-0"><rect x="93" y="107" width="16" height="16" fill="#fff"/></mask><mask id="satori_om-id-1-9-0-0"><rect x="97" y="111" width="8" height="8" fill="#fff"/></mask><path x="97" y="111" width="8" height="8" fill="#844FBA" d="M101,111 h0 a4,4 0 0 1 4,4 v0 a4,4 0 0 1 -4,4 h0 a4,4 0 0 1 -4,-4 v0 a4,4 0 0 1 4,-4"/><mask id="satori_om-id-1-9-1"><rect x="122" y="105" width="31" height="19" fill="#fff"/></mask><g  ><path fill="#24292f" d="M132.3 108.6L132.3 120L129.9 120L129.9 115.1L125.4 115.1L125.4 120L123.0 120L123.0 108.6L125.4 108.6L125.4 113.2L129.9 113.2L129.9 108.6L132.3 108.6ZM140.9 116.2L143.3 116.2Q143.1 118.0 141.9 119.1Q140.7 120.2 138.7 120.2L138.7 120.2Q136.5 120.2 135.2 118.7Q134.0 117.2 134.0 114.6L134.0 114.6L134.0 113.9Q134.0 112.3 134.6 111.1Q135.1 109.8 136.2 109.1Q137.3 108.5 138.7 108.5L138.7 108.5Q140.7 108.5 141.9 109.5Q143.1 110.6 143.3 112.5L143.3 112.5L140.9 112.5Q140.8 111.4 140.3 110.9Q139.8 110.4 138.7 110.4L138.7 110.4Q137.5 110.4 136.9 111.2Q136.4 112.1 136.4 113.8L136.4 113.8L136.4 114.7Q136.4 116.5 136.9 117.4Q137.5 118.2 138.7 118.2L138.7 118.2Q139.8 118.2 140.3 117.7Q140.8 117.3 140.9 116.2L140.9 116.2ZM147.1 108.6L147.1 118.1L152.1 118.1L152.1 120L144.8 120L144.8 108.6L147.1 108.6Z "/></g><mask id="satori_om-id-1-9-2"><rect x="162" y="105" width="34" height="19" fill="#fff"/></mask><g  ><path fill="#57606a" d="M170.1 113.3L170.1 115.1Q170.1 117.7 169.2 118.9Q168.3 120.2 166.5 120.2L166.5 120.2Q164.7 120.2 163.8 118.9Q162.9 117.7 162.9 115.3L162.9 115.3L162.9 113.4Q162.9 110.9 163.8 109.7Q164.6 108.5 166.5 108.5L166.5 108.5Q168.3 108.5 169.2 109.6Q170.1 110.8 170.1 113.3L170.1 113.3ZM168.6 115.5L168.6 113.2Q168.6 111.3 168.1 110.5Q167.6 109.7 166.5 109.7L166.5 109.7Q165.4 109.7 164.9 110.5Q164.4 111.3 164.3 113.1L164.3 113.1L164.3 115.4Q164.3 117.2 164.9 118.1Q165.4 119.0 166.5 119.0L166.5 119.0Q167.6 119.0 168.1 118.1Q168.6 117.3 168.6 115.5L168.6 115.5ZM172.1 119.2L172.1 119.2Q172.1 118.9 172.3 118.6Q172.6 118.4 173 118.4Q173.4 118.4 173.7 118.6Q173.9 118.9 173.9 119.2L173.9 119.2Q173.9 119.6 173.7 119.8Q173.4 120.1 173 120.1Q172.6 120.1 172.3 119.8Q172.1 119.6 172.1 119.2ZM183.5 108.6L183.5 109.4L178.8 120L177.3 120L182.0 109.8L175.8 109.8L175.8 108.6L183.5 108.6ZM185 111.4L185 110.8Q185 109.8 185.7 109.1Q186.3 108.5 187.3 108.5L187.3 108.5Q188.4 108.5 189.0 109.1Q189.7 109.8 189.7 110.9L189.7 110.9L189.7 111.4Q189.7 112.4 189.0 113.1Q188.4 113.8 187.3 113.8L187.3 113.8Q186.3 113.8 185.7 113.1Q185 112.4 185 111.4L185 111.4ZM186.1 110.8L186.1 111.4Q186.1 112.0 186.4 112.4Q186.8 112.8 187.3 112.8L187.3 112.8Q187.9 112.8 188.2 112.4Q188.6 112.0 188.6 111.4L188.6 111.4L188.6 110.8Q188.6 110.2 188.2 109.8Q187.9 109.4 187.3 109.4Q186.8 109.4 186.4 109.8Q186.1 110.2 186.1 110.8L186.1 110.8ZM190.5 117.8L190.5 117.2Q190.5 116.2 191.2 115.5Q191.8 114.9 192.9 114.9Q193.9 114.9 194.5 115.5Q195.2 116.2 195.2 117.3L195.2 117.3L195.2 117.8Q195.2 118.8 194.6 119.5Q193.9 120.2 192.9 120.2Q191.9 120.2 191.2 119.5Q190.5 118.9 190.5 117.8L190.5 117.8ZM191.6 117.2L191.6 117.8Q191.6 118.4 192.0 118.8Q192.3 119.2 192.9 119.2L192.9 119.2Q193.4 119.2 193.8 118.8Q194.1 118.5 194.1 117.8L194.1 117.8L194.1 117.2Q194.1 116.6 193.8 116.2Q193.4 115.8 192.9 115.8L192.9 115.8Q192.3 115.8 192.0 116.2Q191.6 116.6 191.6 117.2L191.6 117.2ZM193.2 110.3L187.7 119.1L186.9 118.6L192.4 109.7L193.2 110.3Z "/></g></svg>