<svg width="375" height="200" viewBox="0 0 375 200" xmlns="http://www.w3.org/2000/svg"><mask id="satori_om-id"><rect x="0" y="0" width="375" height="153" fill="#fff"/></mask><clipPath id="satori_cp-id-0"><path x="0" y="0" width="375" height="8" d="M4,0 h367 a4,4 0 0 1 4,4 v0 a4,4 0 0 1 -4,4 h-367 a4,4 0 0 1 -4,-4 v0 a4,4 0 0 1 4,-4"/></clipPath><mask id="satori_om-id-0"><rect x="0" y="0" width="375" height="8" fill="#fff"/></mask><mask id="satori_om-id-0-0"><rect x="0" y="0" width="144" height="8" fill="#fff" mask="url(#satori_om-id-0)"/></mask><rect x="0" y="0" width="144" height="8" fill="#3178c6" clip-path="url(#satori_cp-id-0)" mask="url(#satori_om-id-0)"/><mask id="satori_om-id-0-1"><rect x="144" y="0" width="54" height="8" fill="#fff" mask="url(#satori_om-id-0)"/></mask><rect x="144" y="0" width="54" height="8" fill="#3572A5" clip-path="url(#satori_cp-id-0)" mask="url(#satori_om-id-0)"/><mask id="satori_om-id-0-2"><rect x="198" y="0" width="49" height="8" fill="#fff" mask="url(#satori_om-id-0)"/></mask><rect x="198" y="0" width="49" height="8" fill="#00ADD8" clip-path="url(#satori_cp-id-0)" mask="url(#satori_om-id-0)"/><mask id="satori_om-id-0-3"><rect x="247" y="0" width="25" height="8" fill="#fff" mask="url(#satori_om-id-0)"/></mask><rect x="247" y="0" width="25" height="8" fill="#844FBA" clip-path="url(#satori_cp-id-0)" mask="url(#satori_om-id-0)"/><mask id="satori_om-id-0-4"><rect x="272" y="0" width="14" height="8" fill="#fff" mask="url(#satori_om-id-0)"/></mask><rect x="272" y="0" width="14" height="8" fill="#dea584" clip-path="url(#satori_cp-id-0)" mask="url(#satori_om-id-0)"/><mask id="satori_om-id-0-5"><rect x="286" y="0" width="14" height="8" fill="#fff" mask="url(#satori_om-id-0)"/></mask><rect x="286" y="0" width="14" height="8" fill="#f1e05a" clip-path="url(#satori_cp-id-0)" mask="url(#satori_om-id-0)"/><mask id="satori_om-id-0-6"><rect x="300" y="0" width="13" height="8" fill="#fff" mask="url(#satori_om-id-0)"/></mask><rect x="300" y="0" width="13" height="8" fill="#A97BFF" clip-path="url(#satori_cp-id-0)" mask="url(#satori_om-id-0)"/><mask id="satori_om-id-0-7"><rect x="313" y="0" width="13" height="8" fill="#fff" mask="url(#satori_om-id-0)"/></mask><rect x="313" y="0" width="13" height="8" fill="#ff3e00" clip-path="url(#satori_cp-id-0)" mask="url(#satori_om-id-0)"/><mask id="satori_om-id-0-8"><rect x="326" y="0" width="12" height="8" fill="#fff" mask="url(#satori_om-id-0)"/></mask><rect x="326" y="0" width="12" height="8" fill="#701516" clip-path="url(#satori_cp-id-0)" mask="url(#satori_om-id-0)"/><mask id="satori_om-id-0-9"><rect x="338" y="0" width="11" height="8" fill="#fff" mask="url(#satori_om-id-0)"/></mask><rect x="338" y="0" width="11" height="8" fill="#e16737" clip-path="url(#satori_cp-id-0)" mask="url(#satori_om-id-0)"/><mask id="satori_om-id-1"><rect x="0" y="18" width="375" height="135" fill="#fff"/></mask><mask id="satori_om-id-1-0"><rect x="0" y="18" width="160" height="19" fill="#fff"/></mask><mask id="satori_om-id-1-0-0"><rect x="0" y="20" width="16" height="16" fill="#fff"/></mask><mask id="satori_om-id-1-0-0-0"><rect x="4" y="24" width="8" height="8" fill="#fff"/></mask><path x="4" y="24" width="8" height="8" fill="#3178c6" d="M8,24 h0 a4,4 0 0 1 4,4 v0 a4,4 0 0 1 -4,4 h0 a4,4 0 0 1 -4,-4 v0 a4,4 0 0 1 4,-4"/><mask id="satori_om-id-1-0-1"><rect x="29" y="18" width="79" height="19" fill="#fff"/></mask><g  ><path fill="#24292f" d="M38.6 21.6L38.6 23.5L35.1 23.5L35.1 33L32.8 33L32.8 23.5L29.3 23.5L29.3 21.6L38.6 21.6ZM40.7 24.5L42.3 29.8L43.8 24.5L46.3 24.5L42.9 34.3L42.7 34.8Q41.9 36.4 40.2 36.4L40.2 36.4Q39.7 36.4 39.2 36.3L39.2 36.3L39.2 34.6L39.5 34.6Q40.2 34.6 40.5 34.4Q40.8 34.2 41.0 33.7L41.0 33.7L41.2 33.0L38.3 24.5L40.7 24.5ZM54.8 28.7L54.8 28.9Q54.8 30.8 53.9 32.0Q53.0 33.2 51.5 33.2L51.5 33.2Q50.2 33.2 49.4 32.3L49.4 32.3L49.4 36.3L47.2 36.3L47.2 24.5L49.3 24.5L49.3 25.4Q50.1 24.4 51.5 24.4L51.5 24.4Q53.0 24.4 53.9 25.5Q54.8 26.7 54.8 28.7L54.8 28.7ZM52.5 28.7L52.5 28.7Q52.5 27.5 52.1 26.9Q51.7 26.2 50.9 26.2L50.9 26.2Q49.8 26.2 49.4 27.0L49.4 27.0L49.4 30.5Q49.8 31.3 50.9 31.3L50.9 31.3Q52.5 31.3 52.5 28.7ZM60.1 33.2L60.1 33.2Q58.2 33.2 57.0 32.0Q55.9 30.9 55.9 29.0L55.9 29.0L55.9 28.8Q55.9 27.5 56.4 26.5Q56.8 25.5 57.7 24.9Q58.6 24.4 59.8 24.4L59.8 24.4Q61.5 24.4 62.5 25.5Q63.5 26.6 63.5 28.6L63.5 28.6L63.5 29.5L58.1 29.5Q58.3 30.3 58.8 30.8Q59.4 31.3 60.2 31.3L60.2 31.3Q61.5 31.3 62.2 30.4L62.2 30.4L63.4 31.6Q62.8 32.4 62.0 32.8Q61.1 33.2 60.1 33.2ZM59.8 26.2L59.8 26.2Q59.1 26.2 58.7 26.7Q58.3 27.1 58.2 28.0L58.2 28.0L61.3 28.0L61.3 27.8Q61.3 27.0 60.9 26.6Q60.5 26.2 59.8 26.2ZM70.9 30.0L70.9 30.0Q70.9 29.4 70.4 29.0Q69.9 28.6 68.7 28.2Q67.5 27.9 66.8 27.5L66.8 27.5Q64.8 26.4 64.8 24.6L64.8 24.6Q64.8 23.7 65.4 23.0Q65.9 22.3 66.8 21.9Q67.8 21.5 69.0 21.5L69.0 21.5Q70.3 21.5 71.2 21.9Q72.2 22.4 72.7 23.2Q73.2 24.0 73.2 25.0L73.2 25.0L70.9 25.0Q70.9 24.2 70.4 23.8Q69.9 23.3 69.0 23.3L69.0 23.3Q68.1 23.3 67.7 23.7Q67.2 24.1 67.2 24.7L67.2 24.7Q67.2 25.2 67.7 25.6Q68.3 26.0 69.4 26.3L69.4 26.3Q71.4 26.9 72.3 27.8Q73.2 28.7 73.2 30L73.2 30Q73.2 31.5 72.1 32.3Q71.0 33.2 69.1 33.2L69.1 33.2Q67.8 33.2 66.7 32.7Q65.6 32.2 65.1 31.4Q64.5 30.5 64.5 29.4L64.5 29.4L66.8 29.4Q66.8 31.3 69.1 31.3L69.1 31.3Q69.9 31.3 70.4 31.0Q70.9 30.6 70.9 30.0ZM78.2 31.3L78.2 31.3Q78.8 31.3 79.2 31.0Q79.6 30.6 79.6 30.1L79.6 30.1L81.7 30.1Q81.7 30.9 81.2 31.7Q80.8 32.4 80.0 32.8Q79.2 33.2 78.2 33.2L78.2 33.2Q76.4 33.2 75.3 32.0Q74.3 30.9 74.3 28.8L74.3 28.8L74.3 28.7Q74.3 26.7 75.3 25.6Q76.4 24.4 78.2 24.4L78.2 24.4Q79.8 24.4 80.7 25.3Q81.7 26.2 81.7 27.7L81.7 27.7L79.6 27.7Q79.6 27.0 79.2 26.6Q78.8 26.2 78.1 26.2L78.1 26.2Q77.4 26.2 77.0 26.8Q76.6 27.4 76.6 28.7L76.6 28.7L76.6 28.9Q76.6 30.2 77.0 30.8Q77.4 31.3 78.2 31.3ZM87.8 24.5L87.7 26.7Q87.3 26.6 86.9 26.6L86.9 26.6Q85.6 26.6 85.3 27.5L85.3 27.5L85.3 33L83.0 33L83.0 24.5L85.1 24.5L85.2 25.6Q85.9 24.4 87.1 24.4L87.1 24.4Q87.4 24.4 87.8 24.5L87.8 24.5ZM91.2 24.5L91.2 33L88.9 33L88.9 24.5L91.2 24.5ZM88.8 22.4L88.8 22.4Q88.8 21.9 89.2 21.5Q89.5 21.2 90.1 21.2L90.1 21.2Q90.7 21.2 91 21.5Q91.3 21.9 91.3 22.4L91.3 22.4Q91.3 22.9 91.0 23.2Q90.6 23.5 90.1 23.5Q89.5 23.5 89.2 23.2Q88.8 22.9 88.8 22.4ZM100.7 28.7L100.7 28.9Q100.7 30.8 99.8 32.0Q98.9 33.2 97.4 33.2L97.4 33.2Q96.1 33.2 95.3 32.3L95.3 32.3L95.3 36.3L93.1 36.3L93.1 24.5L95.2 24.5L95.2 25.4Q96.1 24.4 97.4 24.4L97.4 24.4Q98.9 24.4 99.8 25.5Q100.7 26.7 100.7 28.7L100.7 28.7ZM98.4 28.7L98.4 28.7Q98.4 27.5 98.0 26.9Q97.6 26.2 96.8 26.2L96.8 26.2Q95.7 26.2 95.3 27.0L95.3 27.0L95.3 30.5Q95.7 31.3 96.8 31.3L96.8 31.3Q98.4 31.3 98.4 28.7ZM102.5 22.5L104.8 22.5L104.8 24.5L106.2 24.5L106.2 26.2L104.8 26.2L104.8 30.4Q104.8 30.9 105.0 31.1Q105.1 31.3 105.6 31.3L105.6 31.3Q106.0 31.3 106.3 31.2L106.3 31.2L106.3 33.0Q105.6 33.2 104.9 33.2L104.9 33.2Q102.6 33.2 102.5 30.8L102.5 30.8L102.5 26.2L101.3 26.2L101.3 24.5L102.5 24.5L102.5 22.5Z "/></g><mask id="satori_om-id-1-0-2"><rect x="117" y="18" width="43" height="19" fill="#fff"/></mask><g  ><path fill="#57606a" d="M120.0 27.8L120.0 26.6L121.1 26.6Q122.2 26.6 122.7 26.1Q123.3 25.5 123.3 24.7L123.3 24.7Q123.3 22.7 121.3 22.7L121.3 22.7Q120.4 22.7 119.8 23.2Q119.3 23.7 119.3 24.6L119.3 24.6L117.8 24.6Q117.8 23.3 118.8 22.4Q119.8 21.5 121.3 21.5L121.3 21.5Q122.9 21.5 123.9 22.3Q124.8 23.2 124.8 24.7L124.8 24.7Q124.8 25.4 124.3 26.1Q123.8 26.8 123.0 27.2L123.0 27.2Q123.9 27.5 124.4 28.1Q124.9 28.8 124.9 29.8L124.9 29.8Q124.9 31.4 123.9 32.3Q122.9 33.2 121.3 33.2Q119.7 33.2 118.7 32.3Q117.7 31.4 117.7 30L117.7 30L119.2 30Q119.2 30.9 119.8 31.4Q120.4 32.0 121.3 32.0L121.3 32.0Q122.4 32.0 122.9 31.4Q123.5 30.9 123.5 29.9L123.5 29.9Q123.5 28.9 122.9 28.3Q122.3 27.8 121.1 27.8L121.1 27.8L120.0 27.8ZM133.8 24.6L133.8 24.6Q133.8 25.4 133.4 26.1Q132.9 26.8 132.2 27.1L132.2 27.1Q133.1 27.5 133.6 28.3Q134.1 29 134.1 29.9L134.1 29.9Q134.1 31.4 133.1 32.3Q132.1 33.2 130.5 33.2L130.5 33.2Q128.8 33.2 127.8 32.3Q126.9 31.4 126.9 29.9L126.9 29.9Q126.9 29.0 127.4 28.3Q127.9 27.5 128.8 27.1L128.8 27.1Q128 26.8 127.6 26.1Q127.1 25.4 127.1 24.6L127.1 24.6Q127.1 23.2 128.0 22.3Q129.0 21.5 130.5 21.5L130.5 21.5Q132.0 21.5 132.9 22.3Q133.8 23.2 133.8 24.6ZM132.6 29.9L132.6 29.9Q132.6 28.9 132.0 28.3Q131.4 27.7 130.5 27.7Q129.5 27.7 128.9 28.3Q128.3 28.9 128.3 29.9Q128.3 30.9 128.9 31.4Q129.5 32.0 130.5 32.0L130.5 32.0Q131.5 32.0 132.1 31.4Q132.6 30.9 132.6 29.9ZM130.5 22.7L130.5 22.7Q129.6 22.7 129.1 23.2Q128.6 23.7 128.6 24.6L128.6 24.6Q128.6 25.5 129.1 26.0Q129.6 26.6 130.5 26.6Q131.3 26.6 131.9 26.0Q132.4 25.5 132.4 24.6Q132.4 23.8 131.8 23.2Q131.3 22.7 130.5 22.7ZM136.1 32.2L136.1 32.2Q136.1 31.9 136.3 31.6Q136.5 31.4 137.0 31.4Q137.4 31.4 137.7 31.6Q137.9 31.9 137.9 32.2L137.9 32.2Q137.9 32.6 137.7 32.8Q137.4 33.1 137.0 33.1Q136.5 33.1 136.3 32.8Q136.1 32.6 136.1 32.2ZM141.9 27.6L140.8 27.3L141.4 21.6L147.2 21.6L147.2 23.0L142.6 23.0L142.3 26.1Q143.1 25.6 144.1 25.6L144.1 25.6Q145.7 25.6 146.6 26.6Q147.5 27.6 147.5 29.4L147.5 29.4Q147.5 31.1 146.6 32.1Q145.6 33.2 143.9 33.2L143.9 33.2Q142.4 33.2 141.5 32.3Q140.5 31.5 140.4 30.0L140.4 30.0L141.8 30.0Q141.9 31.0 142.4 31.5Q143.0 32.0 143.9 32.0L143.9 32.0Q144.9 32.0 145.5 31.3Q146.1 30.6 146.1 29.4L146.1 29.4Q146.1 28.3 145.5 27.6Q144.8 26.9 143.8 26.9L143.8 26.9Q142.9 26.9 142.3 27.3L142.3 27.3L141.9 27.6ZM149.0 24.4L149.0 23.8Q149.0 22.8 149.6 22.1Q150.3 21.5 151.3 21.5L151.3 21.5Q152.4 21.5 153.0 22.1Q153.6 22.8 153.6 23.9L153.6 23.9L153.6 24.4Q153.6 25.4 153.0 26.1Q152.3 26.8 151.3 26.8L151.3 26.8Q150.3 26.8 149.6 26.1Q149.0 25.4 149.0 24.4L149.0 24.4ZM150.1 23.8L150.1 24.4Q150.1 25.0 150.4 25.4Q150.8 25.8 151.3 25.8L151.3 25.8Q151.9 25.8 152.2 25.4Q152.6 25.0 152.6 24.4L152.6 24.4L152.6 23.8Q152.6 23.2 152.2 22.8Q151.9 22.4 151.3 22.4Q150.7 22.4 150.4 22.8Q150.1 23.2 150.1 23.8L150.1 23.8ZM154.5 30.8L154.5 30.2Q154.5 29.2 155.2 28.5Q155.8 27.9 156.9 27.9Q157.9 27.9 158.5 28.5Q159.2 29.2 159.2 30.3L159.2 30.3L159.2 30.8Q159.2 31.8 158.5 32.5Q157.9 33.2 156.9 33.2Q155.9 33.2 155.2 32.5Q154.5 31.9 154.5 30.8L154.5 30.8ZM155.6 30.2L155.6 30.8Q155.6 31.4 155.9 31.8Q156.3 32.2 156.9 32.2L156.9 32.2Q157.4 32.2 157.8 31.8Q158.1 31.5 158.1 30.8L158.1 30.8L158.1 30.2Q158.1 29.6 157.8 29.2Q157.4 28.8 156.9 28.8L156.9 28.8Q156.3 28.8 155.9 29.2Q155.6 29.6 155.6 30.2L155.6 30.2ZM157.2 23.3L151.7 32.1L150.8 31.6L156.4 22.7L157.2 23.3Z "/></g><mask id="satori_om-id-1-1"><rect x="170" y="18" width="132" height="19" fill="#fff"/></mask><mask id="satori_om-id-1-1-0"><rect x="170" y="20" width="16" height="16" fill="#fff"/></mask><mask id="satori_om-id-1-1-0-0"><rect x="174" y="24" width="8" height="8" fill="#fff"/></mask><path x="174" y="24" width="8" height="8" fill="#3572A5" d="M178,24 h0 a4,4 0 0 1 4,4 v0 a4,4 0 0 1 -4,4 h0 a4,4 0 0 1 -4,-4 v0 a4,4 0 0 1 4,-4"/><mask id="satori_om-id-1-1-1"><rect x="199" y="18" width="51" height="19" fill="#fff"/></mask><g  ><path fill="#24292f" d="M204.4 29.0L202.4 29.0L202.4 33L200.0 33L200.0 21.6L204.5 21.6Q205.7 21.6 206.7 22.1Q207.7 22.6 208.2 23.4Q208.7 24.3 208.7 25.4L208.7 25.4Q208.7 27.1 207.6 28.0Q206.4 29.0 204.4 29.0L204.4 29.0ZM202.4 23.5L202.4 27.1L204.5 27.1Q205.4 27.1 205.9 26.7Q206.4 26.2 206.4 25.4L206.4 25.4Q206.4 24.6 205.9 24.1Q205.4 23.5 204.5 23.5L204.5 23.5L202.4 23.5ZM211.9 24.5L213.5 29.8L215.0 24.5L217.4 24.5L214.0 34.3L213.9 34.8Q213.1 36.4 211.4 36.4L211.4 36.4Q210.9 36.4 210.4 36.3L210.4 36.3L210.4 34.6L210.7 34.6Q211.3 34.6 211.7 34.4Q212.0 34.2 212.2 33.7L212.2 33.7L212.4 33.0L209.5 24.5L211.9 24.5ZM218.8 22.5L221.0 22.5L221.0 24.5L222.5 24.5L222.5 26.2L221.0 26.2L221.0 30.4Q221.0 30.9 221.2 31.1Q221.4 31.3 221.9 31.3L221.9 31.3Q222.3 31.3 222.6 31.2L222.6 31.2L222.6 33.0Q221.9 33.2 221.2 33.2L221.2 33.2Q218.8 33.2 218.8 30.8L218.8 30.8L218.8 26.2L217.5 26.2L217.5 24.5L218.8 24.5L218.8 22.5ZM225.9 21L225.9 25.5Q226.8 24.4 228.2 24.4L228.2 24.4Q231.0 24.4 231.0 27.6L231.0 27.6L231.0 33L228.7 33L228.7 27.6Q228.7 26.9 228.4 26.6Q228.1 26.2 227.4 26.2L227.4 26.2Q226.4 26.2 225.9 27.0L225.9 27.0L225.9 33L223.7 33L223.7 21L225.9 21ZM232.3 28.8L232.3 28.7Q232.3 27.4 232.8 26.5Q233.3 25.5 234.2 24.9Q235.1 24.4 236.3 24.4L236.3 24.4Q238.0 24.4 239.1 25.4Q240.2 26.5 240.3 28.3L240.3 28.3L240.4 28.9Q240.4 30.8 239.3 32.0Q238.2 33.2 236.4 33.2Q234.5 33.2 233.4 32.0Q232.3 30.8 232.3 28.8L232.3 28.8ZM234.6 28.9L234.6 28.9Q234.6 30.1 235.1 30.7Q235.5 31.3 236.4 31.3L236.4 31.3Q237.2 31.3 237.6 30.7Q238.1 30.1 238.1 28.7L238.1 28.7Q238.1 27.5 237.6 26.9Q237.2 26.2 236.3 26.2L236.3 26.2Q235.5 26.2 235.1 26.9Q234.6 27.5 234.6 28.9ZM241.7 24.5L243.8 24.5L243.9 25.5Q244.8 24.4 246.3 24.4L246.3 24.4Q247.7 24.4 248.3 25.2Q249.0 26.0 249.0 27.5L249.0 27.5L249.0 33L246.7 33L246.7 27.6Q246.7 26.9 246.4 26.6Q246.1 26.2 245.4 26.2L245.4 26.2Q244.4 26.2 244.0 27.0L244.0 27.0L244.0 33L241.7 33L241.7 24.5Z "/></g><mask id="satori_om-id-1-1-2"><rect x="259" y="18" width="43" height="19" fill="#fff"/></mask><g  ><path fill="#57606a" d="M264.7 21.6L264.7 33L263.2 33L263.2 23.4L260.3 24.4L260.3 23.1L264.5 21.6L264.7 21.6ZM275.0 21.6L275.0 29.2L276.6 29.2L276.6 30.4L275.0 30.4L275.0 33L273.6 33L273.6 30.4L268.4 30.4L268.4 29.5L273.5 21.6L275.0 21.6ZM273.4 23.9L270.0 29.2L273.6 29.2L273.6 23.6L273.4 23.9ZM278.1 32.2L278.1 32.2Q278.1 31.9 278.3 31.6Q278.5 31.4 279.0 31.4Q279.4 31.4 279.7 31.6Q279.9 31.9 279.9 32.2L279.9 32.2Q279.9 32.6 279.7 32.8Q279.4 33.1 279.0 33.1Q278.5 33.1 278.3 32.8Q278.1 32.6 278.1 32.2ZM284.2 27.8L284.2 26.6L285.3 26.6Q286.3 26.6 286.9 26.1Q287.5 25.5 287.5 24.7L287.5 24.7Q287.5 22.7 285.5 22.7L285.5 22.7Q284.6 22.7 284.0 23.2Q283.5 23.7 283.5 24.6L283.5 24.6L282.0 24.6Q282.0 23.3 283.0 22.4Q284.0 21.5 285.5 21.5L285.5 21.5Q287.1 21.5 288.0 22.3Q289.0 23.2 289.0 24.7L289.0 24.7Q289.0 25.4 288.5 26.1Q288.0 26.8 287.2 27.2L287.2 27.2Q288.1 27.5 288.6 28.1Q289.1 28.8 289.1 29.8L289.1 29.8Q289.1 31.4 288.1 32.3Q287.1 33.2 285.5 33.2Q283.9 33.2 282.9 32.3Q281.9 31.4 281.9 30L281.9 30L283.4 30Q283.4 30.9 284.0 31.4Q284.5 32.0 285.5 32.0L285.5 32.0Q286.6 32.0 287.1 31.4Q287.7 30.9 287.7 29.9L287.7 29.9Q287.7 28.9 287.1 28.3Q286.5 27.8 285.3 27.8L285.3 27.8L284.2 27.8ZM291.0 24.4L291.0 23.8Q291.0 22.8 291.6 22.1Q292.3 21.5 293.3 21.5L293.3 21.5Q294.4 21.5 295.0 22.1Q295.6 22.8 295.6 23.9L295.6 23.9L295.6 24.4Q295.6 25.4 295.0 26.1Q294.3 26.8 293.3 26.8L293.3 26.8Q292.3 26.8 291.6 26.1Q291.0 25.4 291.0 24.4L291.0 24.4ZM292.1 23.8L292.1 24.4Q292.1 25.0 292.4 25.4Q292.8 25.8 293.3 25.8L293.3 25.8Q293.9 25.8 294.2 25.4Q294.6 25.0 294.6 24.4L294.6 24.4L294.6 23.8Q294.6 23.2 294.2 22.8Q293.9 22.4 293.3 22.4Q292.7 22.4 292.4 22.8Q292.1 23.2 292.1 23.8L292.1 23.8ZM296.5 30.8L296.5 30.2Q296.5 29.2 297.2 28.5Q297.8 27.9 298.9 27.9Q299.9 27.9 300.5 28.5Q301.2 29.2 301.2 30.3L301.2 30.3L301.2 30.8Q301.2 31.8 300.5 32.5Q299.9 33.2 298.9 33.2Q297.9 33.2 297.2 32.5Q296.5 31.9 296.5 30.8L296.5 30.8ZM297.6 30.2L297.6 30.8Q297.6 31.4 297.9 31.8Q298.3 32.2 298.9 32.2L298.9 32.2Q299.4 32.2 299.8 31.8Q300.1 31.5 300.1 30.8L300.1 30.8L300.1 30.2Q300.1 29.6 299.8 29.2Q299.4 28.8 298.9 28.8L298.9 28.8Q298.3 28.8 297.9 29.2Q297.6 29.6 297.6 30.2L297.6 30.2ZM299.2 23.3L293.7 32.1L292.8 31.6L298.4 22.7L299.2 23.3Z "/></g><mask id="satori_om-id-1-2"><rect x="0" y="47" width="101" height="19" fill="#fff"/></mask><mask id="satori_om-id-1-2-0"><rect x="0" y="49" width="16" height="16" fill="#fff"/></mask><mask id="satori_om-id-1-2-0-0"><rect x="4" y="53" width="8" height="8" fill="#fff"/></mask><path x="4" y="53" width="8" height="8" fill="#00ADD8" d="M8,53 h0 a4,4 0 0 1 4,4 v0 a4,4 0 0 1 -4,4 h0 a4,4 0 0 1 -4,-4 v0 a4,4 0 0 1 4,-4"/><mask id="satori_om-id-1-2-1"><rect x="29" y="47" width="20" height="19" fill="#fff"/></mask><g  ><path fill="#24292f" d="M39.0 56.0L39.0 60.6Q38.4 61.3 37.2 61.7Q36.1 62.2 34.7 62.2L34.7 62.2Q33.2 62.2 32.1 61.5Q31.0 60.9 30.4 59.6Q29.8 58.4 29.7 56.8L29.7 56.8L29.7 56.0Q29.7 54.3 30.3 53.0Q30.9 51.8 32.0 51.1Q33.0 50.5 34.5 50.5L34.5 50.5Q36.5 50.5 37.7 51.4Q38.8 52.4 39.0 54.2L39.0 54.2L36.7 54.2Q36.6 53.3 36.0 52.8Q35.5 52.4 34.6 52.4L34.6 52.4Q33.4 52.4 32.8 53.3Q32.1 54.2 32.1 55.9L32.1 55.9L32.1 56.7Q32.1 58.4 32.8 59.4Q33.5 60.3 34.8 60.3L34.8 60.3Q36.1 60.3 36.7 59.7L36.7 59.7L36.7 57.8L34.5 57.8L34.5 56.0L39.0 56.0ZM40.4 57.8L40.4 57.7Q40.4 56.4 40.9 55.5Q41.4 54.5 42.3 53.9Q43.2 53.4 44.4 53.4L44.4 53.4Q46.1 53.4 47.2 54.4Q48.3 55.5 48.4 57.3L48.4 57.3L48.4 57.9Q48.4 59.8 47.3 61.0Q46.3 62.2 44.4 62.2Q42.6 62.2 41.5 61.0Q40.4 59.8 40.4 57.8L40.4 57.8ZM42.7 57.9L42.7 57.9Q42.7 59.1 43.1 59.7Q43.6 60.3 44.4 60.3L44.4 60.3Q45.2 60.3 45.7 59.7Q46.2 59.1 46.2 57.7L46.2 57.7Q46.2 56.5 45.7 55.9Q45.2 55.2 44.4 55.2L44.4 55.2Q43.6 55.2 43.1 55.9Q42.7 56.5 42.7 57.9Z "/></g><mask id="satori_om-id-1-2-2"><rect x="58" y="47" width="43" height="19" fill="#fff"/></mask><g  ><path fill="#57606a" d="M63.7 50.6L63.7 62L62.2 62L62.2 52.4L59.3 53.4L59.3 52.1L63.5 50.6L63.7 50.6ZM70.0 56.8L70.0 55.6L71.1 55.6Q72.1 55.6 72.7 55.1Q73.3 54.5 73.3 53.7L73.3 53.7Q73.3 51.7 71.3 51.7L71.3 51.7Q70.4 51.7 69.8 52.2Q69.3 52.7 69.3 53.6L69.3 53.6L67.8 53.6Q67.8 52.3 68.8 51.4Q69.8 50.5 71.3 50.5L71.3 50.5Q72.9 50.5 73.8 51.3Q74.8 52.2 74.8 53.7L74.8 53.7Q74.8 54.4 74.3 55.1Q73.8 55.8 73.0 56.2L73.0 56.2Q73.9 56.5 74.4 57.1Q74.9 57.8 74.9 58.8L74.9 58.8Q74.9 60.4 73.9 61.3Q72.9 62.2 71.3 62.2Q69.7 62.2 68.7 61.3Q67.7 60.4 67.7 59L67.7 59L69.2 59Q69.2 59.9 69.8 60.4Q70.3 61.0 71.3 61.0L71.3 61.0Q72.4 61.0 72.9 60.4Q73.5 59.9 73.5 58.9L73.5 58.9Q73.5 57.9 72.9 57.3Q72.3 56.8 71.1 56.8L71.1 56.8L70.0 56.8ZM77.1 61.2L77.1 61.2Q77.1 60.9 77.3 60.6Q77.5 60.4 78.0 60.4Q78.4 60.4 78.7 60.6Q78.9 60.9 78.9 61.2L78.9 61.2Q78.9 61.6 78.7 61.8Q78.4 62.1 78.0 62.1Q77.5 62.1 77.3 61.8Q77.1 61.6 77.1 61.2ZM85.9 50.6L85.9 62L84.4 62L84.4 52.4L81.5 53.4L81.5 52.1L85.6 50.6L85.9 50.6ZM90.0 53.4L90.0 52.8Q90.0 51.8 90.6 51.1Q91.3 50.5 92.3 50.5L92.3 50.5Q93.4 50.5 94.0 51.1Q94.6 51.8 94.6 52.9L94.6 52.9L94.6 53.4Q94.6 54.4 94.0 55.1Q93.3 55.8 92.3 55.8L92.3 55.8Q91.3 55.8 90.6 55.1Q90.0 54.4 90.0 53.4L90.0 53.4ZM91.1 52.8L91.1 53.4Q91.1 54.0 91.4 54.4Q91.8 54.8 92.3 54.8L92.3 54.8Q92.9 54.8 93.2 54.4Q93.6 54.0 93.6 53.4L93.6 53.4L93.6 52.8Q93.6 52.2 93.2 51.8Q92.9 51.4 92.3 51.4Q91.7 51.4 91.4 51.8Q91.1 52.2 91.1 52.8L91.1 52.8ZM95.5 59.8L95.5 59.2Q95.5 58.2 96.2 57.5Q96.8 56.9 97.9 56.9Q98.9 56.9 99.5 57.5Q100.2 58.2 100.2 59.3L100.2 59.3L100.2 59.8Q100.2 60.8 99.5 61.5Q98.9 62.2 97.9 62.2Q96.9 62.2 96.2 61.5Q95.5 60.9 95.5 59.8L95.5 59.8ZM96.6 59.2L96.6 59.8Q96.6 60.4 96.9 60.8Q97.3 61.2 97.9 61.2L97.9 61.2Q98.4 61.2 98.8 60.8Q99.1 60.5 99.1 59.8L99.1 59.8L99.1 59.2Q99.1 58.6 98.8 58.2Q98.4 57.8 97.9 57.8L97.9 57.8Q97.3 57.8 96.9 58.2Q96.6 58.6 96.6 59.2L96.6 59.2ZM98.2 52.3L92.7 61.1L91.8 60.6L97.4 51.7L98.2 52.3Z "/></g><mask id="satori_om-id-1-3"><rect x="111" y="47" width="103" height="19" fill="#fff"/></mask><mask id="satori_om-id-1-3-0"><rect x="111" y="49" width="16" height="16" fill="#fff"/></mask><mask id="satori_om-id-1-3-0-0"><rect x="115" y="53" width="8" height="8" fill="#fff"/></mask><path x="115" y="53" width="8" height="8" fill="#844FBA" d="M119,53 h0 a4,4 0 0 1 4,4 v0 a4,4 0 0 1 -4,4 h0 a4,4 0 0 1 -4,-4 v0 a4,4 0 0 1 4,-4"/><mask id="satori_om-id-1-3-1"><rect x="140" y="47" width="31" height="19" fill="#fff"/></mask><g  ><path fill="#24292f" d="M150.3 50.6L150.3 62L147.9 62L147.9 57.1L143.4 57.1L143.4 62L141.0 62L141.0 50.6L143.4 50.6L143.4 55.2L147.9 55.2L147.9 50.6L150.3 50.6ZM158.9 58.2L161.3 58.2Q161.1 60.0 159.9 61.1Q158.7 62.2 156.7 62.2L156.7 62.2Q154.5 62.2 153.2 60.7Q152.0 59.2 152.0 56.6L152.0 56.6L152.0 55.9Q152.0 54.3 152.6 53.1Q153.1 51.8 154.2 51.1Q155.3 50.5 156.7 50.5L156.7 50.5Q158.7 50.5 159.9 51.5Q161.1 52.6 161.3 54.5L161.3 54.5L158.9 54.5Q158.8 53.4 158.3 52.9Q157.8 52.4 156.7 52.4L156.7 52.4Q155.5 52.4 154.9 53.2Q154.4 54.1 154.4 55.8L154.4 55.8L154.4 56.7Q154.4 58.5 154.9 59.4Q155.5 60.2 156.7 60.2L156.7 60.2Q157.8 60.2 158.3 59.7Q158.8 59.3 158.9 58.2L158.9 58.2ZM165.1 50.6L165.1 60.1L170.1 60.1L170.1 62L162.8 62L162.8 50.6L165.1 50.6Z "/></g><mask id="satori_om-id-1-3-2"><rect x="180" y="47" width="34" height="19" fill="#fff"/></mask><g  ><path fill="#57606a" d="M186.4 50.6L186.6 50.6L186.6 51.8L186.4 51.8Q184.7 51.9 183.7 52.8Q182.7 53.8 182.5 55.6L182.5 55.6Q183.4 54.5 185.0 54.5L185.0 54.5Q186.4 54.5 187.3 55.6Q188.2 56.6 188.2 58.3L188.2 58.3Q188.2 60.0 187.3 61.1Q186.3 62.2 184.7 62.2L184.7 62.2Q183.1 62.2 182.0 60.9Q181.0 59.6 181.0 57.7L181.0 57.7L181.0 57.1Q181.0 54.0 182.4 52.3Q183.7 50.7 186.4 50.6L186.4 50.6ZM184.7 55.7L184.7 55.7Q184.0 55.7 183.4 56.2Q182.7 56.6 182.5 57.3L182.5 57.3L182.5 57.8Q182.5 59.2 183.1 60.1Q183.8 61.0 184.7 61.0L184.7 61.0Q185.7 61.0 186.2 60.2Q186.8 59.5 186.8 58.4L186.8 58.4Q186.8 57.2 186.2 56.5Q185.7 55.7 184.7 55.7ZM190.1 61.2L190.1 61.2Q190.1 60.9 190.3 60.6Q190.6 60.4 191 60.4Q191.4 60.4 191.7 60.6Q191.9 60.9 191.9 61.2L191.9 61.2Q191.9 61.6 191.7 61.8Q191.4 62.1 191 62.1Q190.6 62.1 190.3 61.8Q190.1 61.6 190.1 61.2ZM196.0 56.6L194.8 56.3L195.4 50.6L201.2 50.6L201.2 52.0L196.6 52.0L196.3 55.1Q197.1 54.6 198.2 54.6L198.2 54.6Q199.7 54.6 200.6 55.6Q201.5 56.6 201.5 58.4L201.5 58.4Q201.5 60.1 200.6 61.1Q199.6 62.2 197.9 62.2L197.9 62.2Q196.4 62.2 195.5 61.3Q194.5 60.5 194.4 59.0L194.4 59.0L195.8 59.0Q195.9 60.0 196.5 60.5Q197.0 61.0 197.9 61.0L197.9 61.0Q199.0 61.0 199.5 60.3Q200.1 59.6 200.1 58.4L200.1 58.4Q200.1 57.3 199.5 56.6Q198.9 55.9 197.8 55.9L197.8 55.9Q196.9 55.9 196.3 56.3L196.3 56.3L196.0 56.6ZM203 53.4L203 52.8Q203 51.8 203.7 51.1Q204.3 50.5 205.3 50.5L205.3 50.5Q206.4 50.5 207.0 51.1Q207.7 51.8 207.7 52.9L207.7 52.9L207.7 53.4Q207.7 54.4 207.0 55.1Q206.4 55.8 205.3 55.8L205.3 55.8Q204.3 55.8 203.7 55.1Q203 54.4 203 53.4L203 53.4ZM204.1 52.8L204.1 53.4Q204.1 54.0 204.4 54.4Q204.8 54.8 205.3 54.8L205.3 54.8Q205.9 54.8 206.2 54.4Q206.6 54.0 206.6 53.4L206.6 53.4L206.6 52.8Q206.6 52.2 206.2 51.8Q205.9 51.4 205.3 51.4Q204.8 51.4 204.4 51.8Q204.1 52.2 204.1 52.8L204.1 52.8ZM208.5 59.8L208.5 59.2Q208.5 58.2 209.2 57.5Q209.8 56.9 210.9 56.9Q211.9 56.9 212.5 57.5Q213.2 58.2 213.2 59.3L213.2 59.3L213.2 59.8Q213.2 60.8 212.6 61.5Q211.9 62.2 210.9 62.2Q209.9 62.2 209.2 61.5Q208.5 60.9 208.5 59.8L208.5 59.8ZM209.6 59.2L209.6 59.8Q209.6 60.4 210.0 60.8Q210.3 61.2 210.9 61.2L210.9 61.2Q211.4 61.2 211.8 60.8Q212.1 60.5 212.1 59.8L212.1 59.8L212.1 59.2Q212.1 58.6 211.8 58.2Q211.4 57.8 210.9 57.8L210.9 57.8Q210.3 57.8 210.0 58.2Q209.6 58.6 209.6 59.2L209.6 59.2ZM211.2 52.3L205.7 61.1L204.9 60.6L210.4 51.7L211.2 52.3Z "/></g><mask id="satori_om-id-1-4"><rect x="224" y="47" width="105" height="19" fill="#fff"/></mask><mask id="satori_om-id-1-4-0"><rect x="224" y="49" width="16" height="16" fill="#fff"/></mask><mask id="satori_om-id-1-4-0-0"><rect x="228" y="53" width="8" height="8" fill="#fff"/></mask><path x="228" y="53" width="8" height="8" fill="#dea584" d="M232,53 h0 a4,4 0 0 1 4,4 v0 a4,4 0 0 1 -4,4 h0 a4,4 0 0 1 -4,-4 v0 a4,4 0 0 1 4,-4"/><mask id="satori_om-id-1-4-1"><rect x="253" y="47" width="33" height="19" fill="#fff"/></mask><g  ><path fill="#24292f" d="M260.4 62L258.2 57.8L256.4 57.8L256.4 62L254.0 62L254.0 50.6L258.2 50.6Q260.3 50.6 261.4 51.5Q262.4 52.4 262.4 54.1L262.4 54.1Q262.4 55.2 261.9 56.0Q261.4 56.8 260.4 57.2L260.4 57.2L262.9 61.9L262.9 62L260.4 62ZM256.4 52.5L256.4 55.9L258.3 55.9Q259.1 55.9 259.6 55.5Q260.1 55.0 260.1 54.3L260.1 54.3Q260.1 53.4 259.6 53.0Q259.2 52.5 258.2 52.5L258.2 52.5L256.4 52.5ZM269.2 62L269.1 61.1Q268.3 62.2 266.8 62.2L266.8 62.2Q265.5 62.2 264.8 61.4Q264.0 60.6 264.0 59.1L264.0 59.1L264.0 53.5L266.3 53.5L266.3 59.0Q266.3 60.3 267.5 60.3L267.5 60.3Q268.6 60.3 269.1 59.5L269.1 59.5L269.1 53.5L271.3 53.5L271.3 62L269.2 62ZM277.6 59.7L277.6 59.7Q277.6 59.3 277.2 59.0Q276.8 58.8 275.9 58.6L275.9 58.6Q272.9 58.0 272.9 56.0L272.9 56.0Q272.9 54.9 273.8 54.1Q274.7 53.4 276.2 53.4L276.2 53.4Q277.9 53.4 278.8 54.1Q279.8 54.9 279.8 56.1L279.8 56.1L277.5 56.1Q277.5 55.6 277.2 55.3Q276.9 55 276.2 55L276.2 55Q275.7 55 275.4 55.3Q275.0 55.5 275.0 55.9L275.0 55.9Q275.0 56.3 275.4 56.5Q275.8 56.8 276.6 56.9Q277.4 57.1 278.0 57.3L278.0 57.3Q279.8 58.0 279.8 59.6L279.8 59.6Q279.8 60.7 278.8 61.4Q277.8 62.2 276.3 62.2L276.3 62.2Q275.2 62.2 274.4 61.8Q273.5 61.4 273.1 60.7Q272.6 60.1 272.6 59.3L272.6 59.3L274.7 59.3Q274.8 59.9 275.2 60.2Q275.6 60.6 276.3 60.6L276.3 60.6Q276.9 60.6 277.3 60.3Q277.6 60.1 277.6 59.7ZM281.7 51.5L284.0 51.5L284.0 53.5L285.4 53.5L285.4 55.2L284.0 55.2L284.0 59.4Q284.0 59.9 284.1 60.1Q284.3 60.3 284.8 60.3L284.8 60.3Q285.2 60.3 285.5 60.2L285.5 60.2L285.5 62.0Q284.8 62.2 284.1 62.2L284.1 62.2Q281.8 62.2 281.7 59.8L281.7 59.8L281.7 55.2L280.5 55.2L280.5 53.5L281.7 53.5L281.7 51.5Z "/></g><mask id="satori_om-id-1-4-2"><rect x="295" y="47" width="34" height="19" fill="#fff"/></mask><g  ><path fill="#57606a" d="M298.0 56.8L298.0 55.6L299.1 55.6Q300.2 55.6 300.7 55.1Q301.3 54.5 301.3 53.7L301.3 53.7Q301.3 51.7 299.3 51.7L299.3 51.7Q298.4 51.7 297.8 52.2Q297.3 52.7 297.3 53.6L297.3 53.6L295.8 53.6Q295.8 52.3 296.8 51.4Q297.8 50.5 299.3 50.5L299.3 50.5Q300.9 50.5 301.9 51.3Q302.8 52.2 302.8 53.7L302.8 53.7Q302.8 54.4 302.3 55.1Q301.8 55.8 301.0 56.2L301.0 56.2Q301.9 56.5 302.4 57.1Q302.9 57.8 302.9 58.8L302.9 58.8Q302.9 60.4 301.9 61.3Q300.9 62.2 299.3 62.2Q297.7 62.2 296.7 61.3Q295.7 60.4 295.7 59L295.7 59L297.2 59Q297.2 59.9 297.8 60.4Q298.4 61.0 299.3 61.0L299.3 61.0Q300.4 61.0 300.9 60.4Q301.5 59.9 301.5 58.9L301.5 58.9Q301.5 57.9 300.9 57.3Q300.3 56.8 299.1 56.8L299.1 56.8L298.0 56.8ZM305.1 61.2L305.1 61.2Q305.1 60.9 305.3 60.6Q305.6 60.4 306 60.4Q306.4 60.4 306.7 60.6Q306.9 60.9 306.9 61.2L306.9 61.2Q306.9 61.6 306.7 61.8Q306.4 62.1 306 62.1Q305.6 62.1 305.3 61.8Q305.1 61.6 305.1 61.2ZM316.0 53.6L316.0 53.6Q316.0 54.4 315.6 55.1Q315.1 55.8 314.4 56.1L314.4 56.1Q315.3 56.5 315.8 57.3Q316.3 58 316.3 58.9L316.3 58.9Q316.3 60.4 315.3 61.3Q314.3 62.2 312.7 62.2L312.7 62.2Q311.0 62.2 310.1 61.3Q309.1 60.4 309.1 58.9L309.1 58.9Q309.1 58.0 309.6 57.3Q310.1 56.5 311.0 56.1L311.0 56.1Q310.2 55.8 309.8 55.1Q309.3 54.4 309.3 53.6L309.3 53.6Q309.3 52.2 310.3 51.3Q311.2 50.5 312.7 50.5L312.7 50.5Q314.2 50.5 315.1 51.3Q316.0 52.2 316.0 53.6ZM314.9 58.9L314.9 58.9Q314.9 57.9 314.3 57.3Q313.6 56.7 312.7 56.7Q311.7 56.7 311.1 57.3Q310.5 57.9 310.5 58.9Q310.5 59.9 311.1 60.4Q311.7 61.0 312.7 61.0L312.7 61.0Q313.7 61.0 314.3 60.4Q314.9 59.9 314.9 58.9ZM312.7 51.7L312.7 51.7Q311.8 51.7 311.3 52.2Q310.8 52.7 310.8 53.6L310.8 53.6Q310.8 54.5 311.3 55.0Q311.8 55.6 312.7 55.6Q313.6 55.6 314.1 55.0Q314.6 54.5 314.6 53.6Q314.6 52.8 314.1 52.2Q313.5 51.7 312.7 51.7ZM318 53.4L318 52.8Q318 51.8 318.7 51.1Q319.3 50.5 320.3 50.5L320.3 50.5Q321.4 50.5 322.0 51.1Q322.7 51.8 322.7 52.9L322.7 52.9L322.7 53.4Q322.7 54.4 322.0 55.1Q321.4 55.8 320.3 55.8L320.3 55.8Q319.3 55.8 318.7 55.1Q318 54.4 318 53.4L318 53.4ZM319.1 52.8L319.1 53.4Q319.1 54.0 319.4 54.4Q319.8 54.8 320.3 54.8L320.3 54.8Q320.9 54.8 321.2 54.4Q321.6 54.0 321.6 53.4L321.6 53.4L321.6 52.8Q321.6 52.2 321.2 51.8Q320.9 51.4 320.3 51.4Q319.8 51.4 319.4 51.8Q319.1 52.2 319.1 52.8L319.1 52.8ZM323.5 59.8L323.5 59.2Q323.5 58.2 324.2 57.5Q324.8 56.9 325.9 56.9Q326.9 56.9 327.5 57.5Q328.2 58.2 328.2 59.3L328.2 59.3L328.2 59.8Q328.2 60.8 327.6 61.5Q326.9 62.2 325.9 62.2Q324.9 62.2 324.2 61.5Q323.5 60.9 323.5 59.8L323.5 59.8ZM324.6 59.2L324.6 59.8Q324.6 60.4 325.0 60.8Q325.3 61.2 325.9 61.2L325.9 61.2Q326.4 61.2 326.8 60.8Q327.1 60.5 327.1 59.8L327.1 59.8L327.1 59.2Q327.1 58.6 326.8 58.2Q326.4 57.8 325.9 57.8L325.9 57.8Q325.3 57.8 325.0 58.2Q324.6 58.6 324.6 59.2L324.6 59.2ZM326.2 52.3L320.7 61.1L319.9 60.6L325.4 51.7L326.2 52.3Z "/></g><mask id="satori_om-id-1-5"><rect x="0" y="76" width="149" height="19" fill="#fff"/></mask><mask id="satori_om-id-1-5-0"><rect x="0" y="78" width="16" height="16" fill="#fff"/></mask><mask id="satori_om-id-1-5-0-0"><rect x="4" y="82" width="8" height="8" fill="#fff"/></mask><path x="4" y="82" width="8" height="8" fill="#f1e05a" d="M8,82 h0 a4,4 0 0 1 4,4 v0 a4,4 0 0 1 -4,4 h0 a4,4 0 0 1 -4,-4 v0 a4,4 0 0 1 4,-4"/><mask id="satori_om-id-1-5-1"><rect x="29" y="76" width="77" height="19" fill="#fff"/></mask><g  ><path fill="#24292f" d="M34.6 87.5L34.6 79.6L36.9 79.6L36.9 87.5Q36.9 88.6 36.5 89.4Q36.0 90.3 35.1 90.7Q34.2 91.2 33.1 91.2L33.1 91.2Q31.3 91.2 30.3 90.2Q29.3 89.3 29.3 87.6L29.3 87.6L31.7 87.6Q31.7 88.5 32.0 88.9Q32.4 89.3 33.1 89.3L33.1 89.3Q33.8 89.3 34.2 88.8Q34.6 88.4 34.6 87.5L34.6 87.5ZM46.0 91L43.7 91Q43.5 90.7 43.5 90.2L43.5 90.2Q42.7 91.2 41.3 91.2L41.3 91.2Q40.1 91.2 39.3 90.4Q38.5 89.7 38.5 88.6L38.5 88.6Q38.5 87.3 39.5 86.6Q40.5 85.8 42.3 85.8L42.3 85.8L43.4 85.8L43.4 85.4Q43.4 84.8 43.1 84.4Q42.8 84.1 42.1 84.1L42.1 84.1Q41.6 84.1 41.2 84.3Q40.9 84.6 40.9 85.1L40.9 85.1L38.7 85.1Q38.7 84.4 39.1 83.7Q39.6 83.1 40.4 82.7Q41.2 82.4 42.3 82.4L42.3 82.4Q43.8 82.4 44.7 83.2Q45.6 84.0 45.6 85.4L45.6 85.4L45.6 89.0Q45.7 90.3 46.0 90.9L46.0 90.9L46.0 91ZM41.8 89.4L41.8 89.4Q42.3 89.4 42.8 89.2Q43.2 89.0 43.4 88.6L43.4 88.6L43.4 87.2L42.5 87.2Q40.8 87.2 40.7 88.3L40.7 88.3L40.7 88.5Q40.7 88.9 41.0 89.2Q41.3 89.4 41.8 89.4ZM48.9 82.5L50.4 88.2L52 82.5L54.4 82.5L51.5 91L49.4 91L46.5 82.5L48.9 82.5ZM62.4 91L60.1 91Q60.0 90.7 59.9 90.2L59.9 90.2Q59.1 91.2 57.8 91.2L57.8 91.2Q56.5 91.2 55.7 90.4Q54.9 89.7 54.9 88.6L54.9 88.6Q54.9 87.3 55.9 86.6Q56.9 85.8 58.8 85.8L58.8 85.8L59.8 85.8L59.8 85.4Q59.8 84.8 59.5 84.4Q59.2 84.1 58.6 84.1L58.6 84.1Q58.0 84.1 57.7 84.3Q57.3 84.6 57.3 85.1L57.3 85.1L55.1 85.1Q55.1 84.4 55.5 83.7Q56.0 83.1 56.8 82.7Q57.6 82.4 58.7 82.4L58.7 82.4Q60.2 82.4 61.2 83.2Q62.1 84.0 62.1 85.4L62.1 85.4L62.1 89.0Q62.1 90.3 62.4 90.9L62.4 90.9L62.4 91ZM58.3 89.4L58.3 89.4Q58.8 89.4 59.2 89.2Q59.6 89.0 59.8 88.6L59.8 88.6L59.8 87.2L59.0 87.2Q57.3 87.2 57.2 88.3L57.2 88.3L57.2 88.5Q57.2 88.9 57.5 89.2Q57.8 89.4 58.3 89.4ZM69.9 88.0L69.9 88.0Q69.9 87.4 69.4 87.0Q68.9 86.6 67.7 86.2Q66.5 85.9 65.8 85.5L65.8 85.5Q63.8 84.4 63.8 82.6L63.8 82.6Q63.8 81.7 64.4 81.0Q64.9 80.3 65.8 79.9Q66.8 79.5 68.0 79.5L68.0 79.5Q69.3 79.5 70.2 79.9Q71.2 80.4 71.7 81.2Q72.2 82.0 72.2 83.0L72.2 83.0L69.9 83.0Q69.9 82.2 69.4 81.8Q68.9 81.3 68.0 81.3L68.0 81.3Q67.1 81.3 66.7 81.7Q66.2 82.1 66.2 82.7L66.2 82.7Q66.2 83.2 66.7 83.6Q67.3 84.0 68.4 84.3L68.4 84.3Q70.4 84.9 71.3 85.8Q72.2 86.7 72.2 88L72.2 88Q72.2 89.5 71.1 90.3Q70.0 91.2 68.1 91.2L68.1 91.2Q66.8 91.2 65.7 90.7Q64.6 90.2 64.1 89.4Q63.5 88.5 63.5 87.4L63.5 87.4L65.8 87.4Q65.8 89.3 68.1 89.3L68.1 89.3Q68.9 89.3 69.4 89.0Q69.9 88.6 69.9 88.0ZM77.2 89.3L77.2 89.3Q77.8 89.3 78.2 89.0Q78.6 88.6 78.6 88.1L78.6 88.1L80.7 88.1Q80.7 88.9 80.2 89.7Q79.8 90.4 79.0 90.8Q78.2 91.2 77.2 91.2L77.2 91.2Q75.4 91.2 74.3 90.0Q73.3 88.9 73.3 86.8L73.3 86.8L73.3 86.7Q73.3 84.7 74.3 83.6Q75.4 82.4 77.2 82.4L77.2 82.4Q78.8 82.4 79.7 83.3Q80.7 84.2 80.7 85.7L80.7 85.7L78.6 85.7Q78.6 85.0 78.2 84.6Q77.8 84.2 77.1 84.2L77.1 84.2Q76.4 84.2 76.0 84.8Q75.6 85.4 75.6 86.7L75.6 86.7L75.6 86.9Q75.6 88.2 76.0 88.8Q76.4 89.3 77.2 89.3ZM86.8 82.5L86.7 84.7Q86.3 84.6 85.9 84.6L85.9 84.6Q84.6 84.6 84.3 85.5L84.3 85.5L84.3 91L82.0 91L82.0 82.5L84.1 82.5L84.2 83.6Q84.9 82.4 86.1 82.4L86.1 82.4Q86.4 82.4 86.8 82.5L86.8 82.5ZM90.2 82.5L90.2 91L87.9 91L87.9 82.5L90.2 82.5ZM87.8 80.4L87.8 80.4Q87.8 79.9 88.2 79.5Q88.5 79.2 89.1 79.2L89.1 79.2Q89.7 79.2 90 79.5Q90.3 79.9 90.3 80.4L90.3 80.4Q90.3 80.9 90.0 81.2Q89.6 81.5 89.1 81.5Q88.5 81.5 88.2 81.2Q87.8 80.9 87.8 80.4ZM99.7 86.7L99.7 86.9Q99.7 88.8 98.8 90.0Q97.9 91.2 96.4 91.2L96.4 91.2Q95.1 91.2 94.3 90.3L94.3 90.3L94.3 94.3L92.1 94.3L92.1 82.5L94.2 82.5L94.2 83.4Q95.1 82.4 96.4 82.4L96.4 82.4Q97.9 82.4 98.8 83.5Q99.7 84.7 99.7 86.7L99.7 86.7ZM97.4 86.7L97.4 86.7Q97.4 85.5 97.0 84.9Q96.6 84.2 95.8 84.2L95.8 84.2Q94.7 84.2 94.3 85.0L94.3 85.0L94.3 88.5Q94.7 89.3 95.8 89.3L95.8 89.3Q97.4 89.3 97.4 86.7ZM101.5 80.5L103.8 80.5L103.8 82.5L105.2 82.5L105.2 84.2L103.8 84.2L103.8 88.4Q103.8 88.9 104.0 89.1Q104.1 89.3 104.6 89.3L104.6 89.3Q105.0 89.3 105.3 89.2L105.3 89.2L105.3 91.0Q104.6 91.2 103.9 91.2L103.9 91.2Q101.6 91.2 101.5 88.8L101.5 88.8L101.5 84.2L100.3 84.2L100.3 82.5L101.5 82.5L101.5 80.5Z "/></g><mask id="satori_om-id-1-5-2"><rect x="115" y="76" width="34" height="19" fill="#fff"/></mask><g  ><path fill="#57606a" d="M118.0 85.8L118.0 84.6L119.1 84.6Q120.2 84.6 120.7 84.1Q121.3 83.5 121.3 82.7L121.3 82.7Q121.3 80.7 119.3 80.7L119.3 80.7Q118.4 80.7 117.8 81.2Q117.3 81.7 117.3 82.6L117.3 82.6L115.8 82.6Q115.8 81.3 116.8 80.4Q117.8 79.5 119.3 79.5L119.3 79.5Q120.9 79.5 121.9 80.3Q122.8 81.2 122.8 82.7L122.8 82.7Q122.8 83.4 122.3 84.1Q121.8 84.8 121.0 85.2L121.0 85.2Q121.9 85.5 122.4 86.1Q122.9 86.8 122.9 87.8L122.9 87.8Q122.9 89.4 121.9 90.3Q120.9 91.2 119.3 91.2Q117.7 91.2 116.7 90.3Q115.7 89.4 115.7 88L115.7 88L117.2 88Q117.2 88.9 117.8 89.4Q118.4 90.0 119.3 90.0L119.3 90.0Q120.4 90.0 120.9 89.4Q121.5 88.9 121.5 87.9L121.5 87.9Q121.5 86.9 120.9 86.3Q120.3 85.8 119.1 85.8L119.1 85.8L118.0 85.8ZM125.1 90.2L125.1 90.2Q125.1 89.9 125.3 89.6Q125.6 89.4 126 89.4Q126.4 89.4 126.7 89.6Q126.9 89.9 126.9 90.2L126.9 90.2Q126.9 90.6 126.7 90.8Q126.4 91.1 126 91.1Q125.6 91.1 125.3 90.8Q125.1 90.6 125.1 90.2ZM136.5 79.6L136.5 80.4L131.8 91L130.3 91L135.0 80.8L128.8 80.8L128.8 79.6L136.5 79.6ZM138 82.4L138 81.8Q138 80.8 138.7 80.1Q139.3 79.5 140.3 79.5L140.3 79.5Q141.4 79.5 142.0 80.1Q142.7 80.8 142.7 81.9L142.7 81.9L142.7 82.4Q142.7 83.4 142.0 84.1Q141.4 84.8 140.3 84.8L140.3 84.8Q139.3 84.8 138.7 84.1Q138 83.4 138 82.4L138 82.4ZM139.1 81.8L139.1 82.4Q139.1 83.0 139.4 83.4Q139.8 83.8 140.3 83.8L140.3 83.8Q140.9 83.8 141.2 83.4Q141.6 83.0 141.6 82.4L141.6 82.4L141.6 81.8Q141.6 81.2 141.2 80.8Q140.9 80.4 140.3 80.4Q139.8 80.4 139.4 80.8Q139.1 81.2 139.1 81.8L139.1 81.8ZM143.5 88.8L143.5 88.2Q143.5 87.2 144.2 86.5Q144.8 85.9 145.9 85.9Q146.9 85.9 147.5 86.5Q148.2 87.2 148.2 88.3L148.2 88.3L148.2 88.8Q148.2 89.8 147.6 90.5Q146.9 91.2 145.9 91.2Q144.9 91.2 144.2 90.5Q143.5 89.9 143.5 88.8L143.5 88.8ZM144.6 88.2L144.6 88.8Q144.6 89.4 145.0 89.8Q145.3 90.2 145.9 90.2L145.9 90.2Q146.4 90.2 146.8 89.8Q147.1 89.5 147.1 88.8L147.1 88.8L147.1 88.2Q147.1 87.6 146.8 87.2Q146.4 86.8 145.9 86.8L145.9 86.8Q145.3 86.8 145.0 87.2Q144.6 87.6 144.6 88.2L144.6 88.2ZM146.2 81.3L140.7 90.1L139.9 89.6L145.4 80.7L146.2 81.3Z "/></g><mask id="satori_om-id-1-6"><rect x="159" y="76" width="115" height="19" fill="#fff"/></mask><mask id="satori_om-id-1-6-0"><rect x="159" y="78" width="16" height="16" fill="#fff"/></mask><mask id="satori_om-id-1-6-0-0"><rect x="163" y="82" width="8" height="8" fill="#fff"/></mask><path x="163" y="82" width="8" height="8" fill="#A97BFF" d="M167,82 h0 a4,4 0 0 1 4,4 v0 a4,4 0 0 1 -4,4 h0 a4,4 0 0 1 -4,-4 v0 a4,4 0 0 1 4,-4"/><mask id="satori_om-id-1-6-1"><rect x="188" y="76" width="43" height="19" fill="#fff"/></mask><g  ><path fill="#24292f" d="M195.5 91L192.6 86.4L191.4 87.8L191.4 91L189.0 91L189.0 79.6L191.4 79.6L191.4 84.8L192.4 83.4L195.3 79.6L198.2 79.6L194.1 84.7L198.3 91L195.5 91ZM198.5 86.8L198.5 86.7Q198.5 85.4 198.9 84.5Q199.4 83.5 200.3 82.9Q201.3 82.4 202.5 82.4L202.5 82.4Q204.2 82.4 205.2 83.4Q206.3 84.5 206.5 86.3L206.5 86.3L206.5 86.9Q206.5 88.8 205.4 90.0Q204.3 91.2 202.5 91.2Q200.6 91.2 199.6 90.0Q198.5 88.8 198.5 86.8L198.5 86.8ZM200.7 86.9L200.7 86.9Q200.7 88.1 201.2 88.7Q201.6 89.3 202.5 89.3L202.5 89.3Q203.3 89.3 203.8 88.7Q204.2 88.1 204.2 86.7L204.2 86.7Q204.2 85.5 203.8 84.9Q203.3 84.2 202.5 84.2L202.5 84.2Q201.6 84.2 201.2 84.9Q200.7 85.5 200.7 86.9ZM208.3 80.5L210.6 80.5L210.6 82.5L212.0 82.5L212.0 84.2L210.6 84.2L210.6 88.4Q210.6 88.9 210.7 89.1Q210.9 89.3 211.4 89.3L211.4 89.3Q211.8 89.3 212.1 89.2L212.1 89.2L212.1 91.0Q211.4 91.2 210.7 91.2L210.7 91.2Q208.4 91.2 208.3 88.8L208.3 88.8L208.3 84.2L207.1 84.2L207.1 82.5L208.3 82.5L208.3 80.5ZM215.6 79L215.6 91L213.4 91L213.4 79L215.6 79ZM219.9 82.5L219.9 91L217.6 91L217.6 82.5L219.9 82.5ZM217.5 80.4L217.5 80.4Q217.5 79.9 217.8 79.5Q218.2 79.2 218.8 79.2L218.8 79.2Q219.3 79.2 219.7 79.5Q220.0 79.9 220.0 80.4L220.0 80.4Q220.0 80.9 219.7 81.2Q219.3 81.5 218.8 81.5Q218.2 81.5 217.8 81.2Q217.5 80.9 217.5 80.4ZM221.7 82.5L223.8 82.5L223.9 83.5Q224.8 82.4 226.3 82.4L226.3 82.4Q227.7 82.4 228.3 83.2Q229.0 84.0 229 85.5L229 85.5L229 91L226.7 91L226.7 85.6Q226.7 84.9 226.4 84.6Q226.1 84.2 225.4 84.2L225.4 84.2Q224.4 84.2 224.0 85.0L224.0 85.0L224.0 91L221.7 91L221.7 82.5Z "/></g><mask id="satori_om-id-1-6-2"><rect x="240" y="76" width="34" height="19" fill="#fff"/></mask><g  ><path fill="#57606a" d="M243.0 85.8L243.0 84.6L244.1 84.6Q245.2 84.6 245.7 84.1Q246.3 83.5 246.3 82.7L246.3 82.7Q246.3 80.7 244.3 80.7L244.3 80.7Q243.4 80.7 242.8 81.2Q242.3 81.7 242.3 82.6L242.3 82.6L240.8 82.6Q240.8 81.3 241.8 80.4Q242.8 79.5 244.3 79.5L244.3 79.5Q245.9 79.5 246.9 80.3Q247.8 81.2 247.8 82.7L247.8 82.7Q247.8 83.4 247.3 84.1Q246.8 84.8 246.0 85.2L246.0 85.2Q246.9 85.5 247.4 86.1Q247.9 86.8 247.9 87.8L247.9 87.8Q247.9 89.4 246.9 90.3Q245.9 91.2 244.3 91.2Q242.7 91.2 241.7 90.3Q240.7 89.4 240.7 88L240.7 88L242.2 88Q242.2 88.9 242.8 89.4Q243.4 90.0 244.3 90.0L244.3 90.0Q245.4 90.0 245.9 89.4Q246.5 88.9 246.5 87.9L246.5 87.9Q246.5 86.9 245.9 86.3Q245.3 85.8 244.1 85.8L244.1 85.8L243.0 85.8ZM250.1 90.2L250.1 90.2Q250.1 89.9 250.3 89.6Q250.6 89.4 251 89.4Q251.4 89.4 251.7 89.6Q251.9 89.9 251.9 90.2L251.9 90.2Q251.9 90.6 251.7 90.8Q251.4 91.1 251 91.1Q250.6 91.1 250.3 90.8Q250.1 90.6 250.1 90.2ZM256.0 85.6L254.8 85.3L255.4 79.6L261.2 79.6L261.2 81.0L256.6 81.0L256.3 84.1Q257.1 83.6 258.2 83.6L258.2 83.6Q259.7 83.6 260.6 84.6Q261.5 85.6 261.5 87.4L261.5 87.4Q261.5 89.1 260.6 90.1Q259.6 91.2 257.9 91.2L257.9 91.2Q256.4 91.2 255.5 90.3Q254.5 89.5 254.4 88.0L254.4 88.0L255.8 88.0Q255.9 89.0 256.5 89.5Q257.0 90.0 257.9 90.0L257.9 90.0Q259.0 90.0 259.5 89.3Q260.1 88.6 260.1 87.4L260.1 87.4Q260.1 86.3 259.5 85.6Q258.9 84.9 257.8 84.9L257.8 84.9Q256.9 84.9 256.3 85.3L256.3 85.3L256.0 85.6ZM263 82.4L263 81.8Q263 80.8 263.7 80.1Q264.3 79.5 265.3 79.5L265.3 79.5Q266.4 79.5 267.0 80.1Q267.7 80.8 267.7 81.9L267.7 81.9L267.7 82.4Q267.7 83.4 267.0 84.1Q266.4 84.8 265.3 84.8L265.3 84.8Q264.3 84.8 263.7 84.1Q263 83.4 263 82.4L263 82.4ZM264.1 81.8L264.1 82.4Q264.1 83.0 264.4 83.4Q264.8 83.8 265.3 83.8L265.3 83.8Q265.9 83.8 266.2 83.4Q266.6 83.0 266.6 82.4L266.6 82.4L266.6 81.8Q266.6 81.2 266.2 80.8Q265.9 80.4 265.3 80.4Q264.8 80.4 264.4 80.8Q264.1 81.2 264.1 81.8L264.1 81.8ZM268.5 88.8L268.5 88.2Q268.5 87.2 269.2 86.5Q269.8 85.9 270.9 85.9Q271.9 85.9 272.5 86.5Q273.2 87.2 273.2 88.3L273.2 88.3L273.2 88.8Q273.2 89.8 272.6 90.5Q271.9 91.2 270.9 91.2Q269.9 91.2 269.2 90.5Q268.5 89.9 268.5 88.8L268.5 88.8ZM269.6 88.2L269.6 88.8Q269.6 89.4 270.0 89.8Q270.3 90.2 270.9 90.2L270.9 90.2Q271.4 90.2 271.8 89.8Q272.1 89.5 272.1 88.8L272.1 88.8L272.1 88.2Q272.1 87.6 271.8 87.2Q271.4 86.8 270.9 86.8L270.9 86.8Q270.3 86.8 270.0 87.2Q269.6 87.6 269.6 88.2L269.6 88.2ZM271.2 81.3L265.7 90.1L264.9 89.6L270.4 80.7L271.2 81.3Z "/></g><mask id="satori_om-id-1-7"><rect x="0" y="105" width="117" height="19" fill="#fff"/></mask><mask id="satori_om-id-1-7-0"><rect x="0" y="107" width="16" height="16" fill="#fff"/></mask><mask id="satori_om-id-1-7-0-0"><rect x="4" y="111" width="8" height="8" fill="#fff"/></mask><path x="4" y="111" width="8" height="8" fill="#ff3e00" d="M8,111 h0 a4,4 0 0 1 4,4 v0 a4,4 0 0 1 -4,4 h0 a4,4 0 0 1 -4,-4 v0 a4,4 0 0 1 4,-4"/><mask id="satori_om-id-1-7-1"><rect x="29" y="105" width="45" height="19" fill="#fff"/></mask><g  ><path fill="#24292f" d="M35.9 117.0L35.9 117.0Q35.9 116.4 35.4 116.0Q35.0 115.6 33.8 115.2Q32.5 114.9 31.8 114.5L31.8 114.5Q29.9 113.4 29.9 111.6L29.9 111.6Q29.9 110.7 30.4 110.0Q30.9 109.3 31.9 108.9Q32.9 108.5 34.1 108.5L34.1 108.5Q35.3 108.5 36.3 108.9Q37.2 109.4 37.7 110.2Q38.3 111.0 38.3 112.0L38.3 112.0L35.9 112.0Q35.9 111.2 35.4 110.8Q34.9 110.3 34.0 110.3L34.0 110.3Q33.2 110.3 32.7 110.7Q32.2 111.1 32.2 111.7L32.2 111.7Q32.2 112.2 32.8 112.6Q33.4 113.0 34.4 113.3L34.4 113.3Q36.4 113.9 37.4 114.8Q38.3 115.7 38.3 117L38.3 117Q38.3 118.5 37.1 119.3Q36.0 120.2 34.1 120.2L34.1 120.2Q32.8 120.2 31.8 119.7Q30.7 119.2 30.1 118.4Q29.5 117.5 29.5 116.4L29.5 116.4L31.9 116.4Q31.9 118.3 34.1 118.3L34.1 118.3Q35.0 118.3 35.4 118.0Q35.9 117.6 35.9 117.0ZM41.3 111.5L42.9 117.2L44.4 111.5L46.8 111.5L43.9 120L41.8 120L38.9 111.5L41.3 111.5ZM51.6 120.2L51.6 120.2Q49.7 120.2 48.6 119.0Q47.4 117.9 47.4 116.0L47.4 116.0L47.4 115.8Q47.4 114.5 47.9 113.5Q48.4 112.5 49.3 111.9Q50.2 111.4 51.3 111.4L51.3 111.4Q53.1 111.4 54.1 112.5Q55.1 113.6 55.1 115.6L55.1 115.6L55.1 116.5L49.7 116.5Q49.8 117.3 50.3 117.8Q50.9 118.3 51.7 118.3L51.7 118.3Q53.0 118.3 53.8 117.4L53.8 117.4L54.9 118.6Q54.4 119.4 53.5 119.8Q52.6 120.2 51.6 120.2ZM51.3 113.2L51.3 113.2Q50.6 113.2 50.2 113.7Q49.8 114.1 49.7 115.0L49.7 115.0L52.8 115.0L52.8 114.8Q52.8 114.0 52.4 113.6Q52.0 113.2 51.3 113.2ZM58.7 108L58.7 120L56.5 120L56.5 108L58.7 108ZM61.0 109.5L63.3 109.5L63.3 111.5L64.7 111.5L64.7 113.2L63.3 113.2L63.3 117.4Q63.3 117.9 63.5 118.1Q63.6 118.3 64.1 118.3L64.1 118.3Q64.5 118.3 64.8 118.2L64.8 118.2L64.8 120.0Q64.1 120.2 63.4 120.2L63.4 120.2Q61.1 120.2 61.0 117.8L61.0 117.8L61.0 113.2L59.8 113.2L59.8 111.5L61.0 111.5L61.0 109.5ZM69.9 120.2L69.9 120.2Q68.0 120.2 66.8 119.0Q65.7 117.9 65.7 116.0L65.7 116.0L65.7 115.8Q65.7 114.5 66.2 113.5Q66.7 112.5 67.6 111.9Q68.5 111.4 69.6 111.4L69.6 111.4Q71.4 111.4 72.4 112.5Q73.4 113.6 73.4 115.6L73.4 115.6L73.4 116.5L68.0 116.5Q68.1 117.3 68.6 117.8Q69.2 118.3 70.0 118.3L70.0 118.3Q71.3 118.3 72.1 117.4L72.1 117.4L73.2 118.6Q72.7 119.4 71.8 119.8Q70.9 120.2 69.9 120.2ZM69.6 113.2L69.6 113.2Q68.9 113.2 68.5 113.7Q68.1 114.1 68.0 115.0L68.0 115.0L71.1 115.0L71.1 114.8Q71.1 114.0 70.7 113.6Q70.3 113.2 69.6 113.2Z "/></g><mask id="satori_om-id-1-7-2"><rect x="83" y="105" width="34" height="19" fill="#fff"/></mask><g  ><path fill="#57606a" d="M86.0 114.8L86.0 113.6L87.1 113.6Q88.2 113.6 88.7 113.1Q89.3 112.5 89.3 111.7L89.3 111.7Q89.3 109.7 87.3 109.7L87.3 109.7Q86.4 109.7 85.8 110.2Q85.3 110.7 85.3 111.6L85.3 111.6L83.8 111.6Q83.8 110.3 84.8 109.4Q85.8 108.5 87.3 108.5L87.3 108.5Q88.9 108.5 89.9 109.3Q90.8 110.2 90.8 111.7L90.8 111.7Q90.8 112.4 90.3 113.1Q89.8 113.8 89.0 114.2L89.0 114.2Q89.9 114.5 90.4 115.1Q90.9 115.8 90.9 116.8L90.9 116.8Q90.9 118.4 89.9 119.3Q88.9 120.2 87.3 120.2Q85.7 120.2 84.7 119.3Q83.7 118.4 83.7 117L83.7 117L85.2 117Q85.2 117.9 85.8 118.4Q86.4 119.0 87.3 119.0L87.3 119.0Q88.4 119.0 88.9 118.4Q89.5 117.9 89.5 116.9L89.5 116.9Q89.5 115.9 88.9 115.3Q88.3 114.8 87.1 114.8L87.1 114.8L86.0 114.8ZM93.1 119.2L93.1 119.2Q93.1 118.9 93.3 118.6Q93.6 118.4 94 118.4Q94.4 118.4 94.7 118.6Q94.9 118.9 94.9 119.2L94.9 119.2Q94.9 119.6 94.7 119.8Q94.4 120.1 94 120.1Q93.6 120.1 93.3 119.8Q93.1 119.6 93.1 119.2ZM99.0 114.6L97.8 114.3L98.4 108.6L104.2 108.6L104.2 110.0L99.6 110.0L99.3 113.1Q100.1 112.6 101.2 112.6L101.2 112.6Q102.7 112.6 103.6 113.6Q104.5 114.6 104.5 116.4L104.5 116.4Q104.5 118.1 103.6 119.1Q102.6 120.2 100.9 120.2L100.9 120.2Q99.4 120.2 98.5 119.3Q97.5 118.5 97.4 117.0L97.4 117.0L98.8 117.0Q98.9 118.0 99.5 118.5Q100.0 119.0 100.9 119.0L100.9 119.0Q102.0 119.0 102.5 118.3Q103.1 117.6 103.1 116.4L103.1 116.4Q103.1 115.3 102.5 114.6Q101.9 113.9 100.8 113.9L100.8 113.9Q99.9 113.9 99.3 114.3L99.3 114.3L99.0 114.6ZM106 111.4L106 110.8Q106 109.8 106.7 109.1Q107.3 108.5 108.3 108.5L108.3 108.5Q109.4 108.5 110.0 109.1Q110.7 109.8 110.7 110.9L110.7 110.9L110.7 111.4Q110.7 112.4 110.0 113.1Q109.4 113.8 108.3 113.8L108.3 113.8Q107.3 113.8 106.7 113.1Q106 112.4 106 111.4L106 111.4ZM107.1 110.8L107.1 111.4Q107.1 112.0 107.4 112.4Q107.8 112.8 108.3 112.8L108.3 112.8Q108.9 112.8 109.2 112.4Q109.6 112.0 109.6 111.4L109.6 111.4L109.6 110.8Q109.6 110.2 109.2 109.8Q108.9 109.4 108.3 109.4Q107.8 109.4 107.4 109.8Q107.1 110.2 107.1 110.8L107.1 110.8ZM111.5 117.8L111.5 117.2Q111.5 116.2 112.2 115.5Q112.8 114.9 113.9 114.9Q114.9 114.9 115.5 115.5Q116.2 116.2 116.2 117.3L116.2 117.3L116.2 117.8Q116.2 118.8 115.6 119.5Q114.9 120.2 113.9 120.2Q112.9 120.2 112.2 119.5Q111.5 118.9 111.5 117.8L111.5 117.8ZM112.6 117.2L112.6 117.8Q112.6 118.4 113.0 118.8Q113.3 119.2 113.9 119.2L113.9 119.2Q114.4 119.2 114.8 118.8Q115.1 118.5 115.1 117.8L115.1 117.8L115.1 117.2Q115.1 116.6 114.8 116.2Q114.4 115.8 113.9 115.8L113.9 115.8Q113.3 115.8 113.0 116.2Q112.6 116.6 112.6 117.2L112.6 117.2ZM114.2 110.3L108.7 119.1L107.9 118.6L113.4 109.7L114.2 110.3Z "/></g><mask id="satori_om-id-1-8"><rect x="127" y="105" width="109" height="19" fill="#fff"/></mask><mask id="satori_om-id-1-8-0"><rect x="127" y="107" width="16" height="16" fill="#fff"/></mask><mask id="satori_om-id-1-8-0-0"><rect x="131" y="111" width="8" height="8" fill="#fff"/></mask><path x="131" y="111" width="8" height="8" fill="#701516" d="M135,111 h0 a4,4 0 0 1 4,4 v0 a4,4 0 0 1 -4,4 h0 a4,4 0 0 1 -4,-4 v0 a4,4 0 0 1 4,-4"/><mask id="satori_om-id-1-8-1"><rect x="156" y="105" width="37" height="19" fill="#fff"/></mask><g  ><path fill="#24292f" d="M163.4 120L161.2 115.8L159.4 115.8L159.4 120L157.0 120L157.0 108.6L161.2 108.6Q163.3 108.6 164.4 109.5Q165.4 110.4 165.4 112.1L165.4 112.1Q165.4 113.2 164.9 114.0Q164.4 114.8 163.4 115.2L163.4 115.2L165.9 119.9L165.9 120L163.4 120ZM159.4 110.5L159.4 113.9L161.3 113.9Q162.1 113.9 162.6 113.5Q163.1 113.0 163.1 112.3L163.1 112.3Q163.1 111.4 162.6 111.0Q162.2 110.5 161.2 110.5L161.2 110.5L159.4 110.5ZM172.2 120L172.1 119.1Q171.3 120.2 169.8 120.2L169.8 120.2Q168.5 120.2 167.8 119.4Q167.0 118.6 167.0 117.1L167.0 117.1L167.0 111.5L169.3 111.5L169.3 117.0Q169.3 118.3 170.5 118.3L170.5 118.3Q171.6 118.3 172.1 117.5L172.1 117.5L172.1 111.5L174.3 111.5L174.3 120L172.2 120ZM183.6 115.7L183.6 115.9Q183.6 117.9 182.8 119.0Q181.9 120.2 180.4 120.2L180.4 120.2Q179.0 120.2 178.2 119.1L178.2 119.1L178.1 120L176.0 120L176.0 108L178.3 108L178.3 112.3Q179.1 111.4 180.3 111.4L180.3 111.4Q181.9 111.4 182.8 112.5Q183.6 113.7 183.6 115.7L183.6 115.7ZM181.4 115.7L181.4 115.7Q181.4 114.4 181.0 113.8Q180.6 113.2 179.8 113.2L179.8 113.2Q178.7 113.2 178.3 114.1L178.3 114.1L178.3 117.4Q178.7 118.3 179.8 118.3L179.8 118.3Q180.9 118.3 181.2 117.3L181.2 117.3Q181.4 116.7 181.4 115.7ZM186.5 111.5L188.1 116.8L189.7 111.5L192.1 111.5L188.7 121.3L188.5 121.8Q187.8 123.4 186.0 123.4L186.0 123.4Q185.5 123.4 185.0 123.3L185.0 123.3L185.0 121.6L185.4 121.6Q186.0 121.6 186.3 121.4Q186.6 121.2 186.8 120.7L186.8 120.7L187.1 120.0L184.1 111.5L186.5 111.5Z "/></g><mask id="satori_om-id-1-8-2"><rect x="202" y="105" width="34" height="19" fill="#fff"/></mask><g  ><path fill="#57606a" d="M205.0 114.8L205.0 113.6L206.1 113.6Q207.2 113.6 207.7 113.1Q208.3 112.5 208.3 111.7L208.3 111.7Q208.3 109.7 206.3 109.7L206.3 109.7Q205.4 109.7 204.8 110.2Q204.3 110.7 204.3 111.6L204.3 111.6L202.8 111.6Q202.8 110.3 203.8 109.4Q204.8 108.5 206.3 108.5L206.3 108.5Q207.9 108.5 208.9 109.3Q209.8 110.2 209.8 111.7L209.8 111.7Q209.8 112.4 209.3 113.1Q208.8 113.8 208.0 114.2L208.0 114.2Q208.9 114.5 209.4 115.1Q209.9 115.8 209.9 116.8L209.9 116.8Q209.9 118.4 208.9 119.3Q207.9 120.2 206.3 120.2Q204.7 120.2 203.7 119.3Q202.7 118.4 202.7 117L202.7 117L204.2 117Q204.2 117.9 204.8 118.4Q205.4 119.0 206.3 119.0L206.3 119.0Q207.4 119.0 207.9 118.4Q208.5 117.9 208.5 116.9L208.5 116.9Q208.5 115.9 207.9 115.3Q207.3 114.8 206.1 114.8L206.1 114.8L205.0 114.8ZM212.1 119.2L212.1 119.2Q212.1 118.9 212.3 118.6Q212.6 118.4 213 118.4Q213.4 118.4 213.7 118.6Q213.9 118.9 213.9 119.2L213.9 119.2Q213.9 119.6 213.7 119.8Q213.4 120.1 213 120.1Q212.6 120.1 212.3 119.8Q212.1 119.6 212.1 119.2ZM218.2 114.8L218.2 113.6L219.3 113.6Q220.4 113.6 220.9 113.1Q221.5 112.5 221.5 111.7L221.5 111.7Q221.5 109.7 219.5 109.7L219.5 109.7Q218.6 109.7 218.0 110.2Q217.5 110.7 217.5 111.6L217.5 111.6L216.0 111.6Q216.0 110.3 217.0 109.4Q218.0 108.5 219.5 108.5L219.5 108.5Q221.1 108.5 222.1 109.3Q223.0 110.2 223.0 111.7L223.0 111.7Q223.0 112.4 222.5 113.1Q222.0 113.8 221.2 114.2L221.2 114.2Q222.1 114.5 222.6 115.1Q223.1 115.8 223.1 116.8L223.1 116.8Q223.1 118.4 222.1 119.3Q221.1 120.2 219.5 120.2Q217.9 120.2 216.9 119.3Q215.9 118.4 215.9 117L215.9 117L217.4 117Q217.4 117.9 218.0 118.4Q218.6 119.0 219.5 119.0L219.5 119.0Q220.6 119.0 221.1 118.4Q221.7 117.9 221.7 116.9L221.7 116.9Q221.7 115.9 221.1 115.3Q220.5 114.8 219.3 114.8L219.3 114.8L218.2 114.8ZM225 111.4L225 110.8Q225 109.8 225.7 109.1Q226.3 108.5 227.3 108.5L227.3 108.5Q228.4 108.5 229.0 109.1Q229.7 109.8 229.7 110.9L229.7 110.9L229.7 111.4Q229.7 112.4 229.0 113.1Q228.4 113.8 227.3 113.8L227.3 113.8Q226.3 113.8 225.7 113.1Q225 112.4 225 111.4L225 111.4ZM226.1 110.8L226.1 111.4Q226.1 112.0 226.4 112.4Q226.8 112.8 227.3 112.8L227.3 112.8Q227.9 112.8 228.2 112.4Q228.6 112.0 228.6 111.4L228.6 111.4L228.6 110.8Q228.6 110.2 228.2 109.8Q227.9 109.4 227.3 109.4Q226.8 109.4 226.4 109.8Q226.1 110.2 226.1 110.8L226.1 110.8ZM230.5 117.8L230.5 117.2Q230.5 116.2 231.2 115.5Q231.8 114.9 232.9 114.9Q233.9 114.9 234.5 115.5Q235.2 116.2 235.2 117.3L235.2 117.3L235.2 117.8Q235.2 118.8 234.6 119.5Q233.9 120.2 232.9 120.2Q231.9 120.2 231.2 119.5Q230.5 118.9 230.5 117.8L230.5 117.8ZM231.6 117.2L231.6 117.8Q231.6 118.4 232.0 118.8Q232.3 119.2 232.9 119.2L232.9 119.2Q233.4 119.2 233.8 118.8Q234.1 118.5 234.1 117.8L234.1 117.8L234.1 117.2Q234.1 116.6 233.8 116.2Q233.4 115.8 232.9 115.8L232.9 115.8Q232.3 115.8 232.0 116.2Q231.6 116.6 231.6 117.2L231.6 117.2ZM233.2 110.3L227.7 119.1L226.9 118.6L232.4 109.7L233.2 110.3Z "/></g><mask id="satori_om-id-1-9"><rect x="0" y="134" width="137" height="19" fill="#fff"/></mask><mask id="satori_om-id-1-9-0"><rect x="0" y="136" width="16" height="16" fill="#fff"/></mask><mask id="satori_om-id-1-9-0-0"><rect x="4" y="140" width="8" height="8" fill="#fff"/></mask><path x="4" y="140" width="8" height="8" fill="#e16737" d="M8,140 h0 a4,4 0 0 1 4,4 v0 a4,4 0 0 1 -4,4 h0 a4,4 0 0 1 -4,-4 v0 a4,4 0 0 1 4,-4"/><mask id="satori_om-id-1-9-1"><rect x="29" y="134" width="65" height="19" fill="#fff"/></mask><g  ><path fill="#24292f" d="M30.0 137.6L33.1 137.6L36 145.9L38.9 137.6L42.0 137.6L42.0 149L39.6 149L39.6 145.9L39.9 140.5L36.8 149L35.2 149L32.1 140.5L32.4 145.9L32.4 149L30.0 149L30.0 137.6ZM51.4 149L50.6 146.7L46.5 146.7L45.7 149L43.2 149L47.4 137.6L49.6 137.6L53.9 149L51.4 149ZM48.5 140.5L47.1 144.8L50.0 144.8L48.5 140.5ZM62.6 137.6L62.6 139.5L59.1 139.5L59.1 149L56.7 149L56.7 139.5L53.3 139.5L53.3 137.6L62.6 137.6ZM66.2 137.6L66.2 147.1L71.2 147.1L71.2 149L63.9 149L63.9 137.6L66.2 137.6ZM79.9 149L79.1 146.7L75.0 146.7L74.2 149L71.8 149L76.0 137.6L78.2 137.6L82.4 149L79.9 149ZM77.1 140.5L75.7 144.8L78.5 144.8L77.1 140.5ZM87.9 149L83.5 149L83.5 137.6L87.5 137.6Q89.5 137.6 90.6 138.4Q91.7 139.2 91.7 140.7L91.7 140.7Q91.7 141.6 91.2 142.2Q90.8 142.9 90.0 143.1L90.0 143.1Q90.9 143.4 91.4 144.0Q91.9 144.7 91.9 145.7L91.9 145.7Q91.9 147.3 90.9 148.1Q89.8 149.0 87.9 149L87.9 149ZM88.0 144.0L85.8 144.0L85.8 147.1L87.8 147.1Q88.7 147.1 89.1 146.7Q89.6 146.3 89.6 145.6L89.6 145.6Q89.6 144.1 88.0 144.0L88.0 144.0ZM85.8 139.5L85.8 142.4L87.6 142.4Q89.3 142.4 89.3 141.0L89.3 141.0Q89.3 140.2 88.9 139.9Q88.4 139.5 87.5 139.5L87.5 139.5L85.8 139.5Z "/></g><mask id="satori_om-id-1-9-2"><rect x="103" y="134" width="34" height="19" fill="#fff"/></mask><g  ><path fill="#57606a" d="M111.4 147.8L111.4 149L103.9 149L103.9 148.0L107.9 143.6Q108.8 142.6 109.1 142.0Q109.4 141.4 109.4 140.7L109.4 140.7Q109.4 139.8 108.9 139.2Q108.3 138.7 107.4 138.7L107.4 138.7Q106.4 138.7 105.8 139.3Q105.2 139.9 105.2 141.0L105.2 141.0L103.7 141.0Q103.7 139.4 104.7 138.4Q105.8 137.5 107.4 137.5L107.4 137.5Q109.0 137.5 110.0 138.3Q110.9 139.1 110.9 140.5L110.9 140.5Q110.9 142.2 108.7 144.5L108.7 144.5L105.7 147.8L111.4 147.8ZM113.1 148.2L113.1 148.2Q113.1 147.9 113.3 147.6Q113.6 147.4 114 147.4Q114.4 147.4 114.7 147.6Q114.9 147.9 114.9 148.2L114.9 148.2Q114.9 148.6 114.7 148.8Q114.4 149.1 114 149.1Q113.6 149.1 113.3 148.8Q113.1 148.6 113.1 148.2ZM124.0 140.6L124.0 140.6Q124.0 141.4 123.6 142.1Q123.1 142.8 122.4 143.1L122.4 143.1Q123.3 143.5 123.8 144.3Q124.3 145 124.3 145.9L124.3 145.9Q124.3 147.4 123.3 148.3Q122.3 149.2 120.7 149.2L120.7 149.2Q119.0 149.2 118.1 148.3Q117.1 147.4 117.1 145.9L117.1 145.9Q117.1 145.0 117.6 144.3Q118.1 143.5 119.0 143.1L119.0 143.1Q118.2 142.8 117.8 142.1Q117.3 141.4 117.3 140.6L117.3 140.6Q117.3 139.2 118.3 138.3Q119.2 137.5 120.7 137.5L120.7 137.5Q122.2 137.5 123.1 138.3Q124.0 139.2 124.0 140.6ZM122.9 145.9L122.9 145.9Q122.9 144.9 122.3 144.3Q121.6 143.7 120.7 143.7Q119.7 143.7 119.1 144.3Q118.5 144.9 118.5 145.9Q118.5 146.9 119.1 147.4Q119.7 148.0 120.7 148.0L120.7 148.0Q121.7 148.0 122.3 147.4Q122.9 146.9 122.9 145.9ZM120.7 138.7L120.7 138.7Q119.8 138.7 119.3 139.2Q118.8 139.7 118.8 140.6L118.8 140.6Q118.8 141.5 119.3 142.0Q119.8 142.6 120.7 142.6Q121.6 142.6 122.1 142.0Q122.6 141.5 122.6 140.6Q122.6 139.8 122.1 139.2Q121.5 138.7 120.7 138.7ZM126 140.4L126 139.8Q126 138.8 126.7 138.1Q127.3 137.5 128.3 137.5L128.3 137.5Q129.4 137.5 130.0 138.1Q130.7 138.8 130.7 139.9L130.7 139.9L130.7 140.4Q130.7 141.4 130.0 142.1Q129.4 142.8 128.3 142.8L128.3 142.8Q127.3 142.8 126.7 142.1Q126 141.4 126 140.4L126 140.4ZM127.1 139.8L127.1 140.4Q127.1 141.0 127.4 141.4Q127.8 141.8 128.3 141.8L128.3 141.8Q128.9 141.8 129.2 141.4Q129.6 141.0 129.6 140.4L129.6 140.4L129.6 139.8Q129.6 139.2 129.2 138.8Q128.9 138.4 128.3 138.4Q127.8 138.4 127.4 138.8Q127.1 139.2 127.1 139.8L127.1 139.8ZM131.5 146.8L131.5 146.2Q131.5 145.2 132.2 144.5Q132.8 143.9 133.9 143.9Q134.9 143.9 135.5 144.5Q136.2 145.2 136.2 146.3L136.2 146.3L136.2 146.8Q136.2 147.8 135.6 148.5Q134.9 149.2 133.9 149.2Q132.9 149.2 132.2 148.5Q131.5 147.9 131.5 146.8L131.5 146.8ZM132.6 146.2L132.6 146.8Q132.6 147.4 133.0 147.8Q133.3 148.2 133.9 148.2L133.9 148.2Q134.4 148.2 134.8 147.8Q135.1 147.5 135.1 146.8L135.1 146.8L135.1 146.2Q135.1 145.6 134.8 145.2Q134.4 144.8 133.9 144.8L133.9 144.8Q133.3 144.8 133.0 145.2Q132.6 145.6 132.6 146.2L132.6 146.2ZM134.2 139.3L128.7 148.1L127.9 147.6L133.4 138.7L134.2 139.3Z "/></g></svg>