<svg width="375" height="200" viewBox="0 0 375 200" xmlns="http://www.w3.org/2000/svg"><mask id="satori_om-id"><rect x="0" y="0" width="375" height="124" fill="#fff"/></mask><clipPath id="satori_cp-id-0"><path x="0" y="0" width="375" height="8" d="M4,0 h367 a4,4 0 0 1 4,4 v0 a4,4 0 0 1 -4,4 h-367 a4,4 0 0 1 -4,-4 v0 a4,4 0 0 1 4,-4"/></clipPath><mask id="satori_om-id-0"><rect x="0" y="0" width="375" height="8" fill="#fff"/></mask><mask id="satori_om-id-0-0"><rect x="0" y="0" width="156" height="8" fill="#fff" mask="url(#satori_om-id-0)"/></mask><rect x="0" y="0" width="156" height="8" fill="#3178c6" clip-path="url(#satori_cp-id-0)" mask="url(#satori_om-id-0)"/><mask id="satori_om-id-0-1"><rect x="156" y="0" width="55" height="8" fill="#fff" mask="url(#satori_om-id-0)"/></mask><rect x="156" y="0" width="55" height="8" fill="#00ADD8" clip-path="url(#satori_cp-id-0)" mask="url(#satori_om-id-0)"/><mask id="satori_om-id-0-2"><rect x="211" y="0" width="43" height="8" fill="#fff" mask="url(#satori_om-id-0)"/></mask><rect x="211" y="0" width="43" height="8" fill="#3572A5" clip-path="url(#satori_cp-id-0)" mask="url(#satori_om-id-0)"/><mask id="satori_om-id-0-3"><rect x="254" y="0" width="30" height="8" fill="#fff" mask="url(#satori_om-id-0)"/></mask><rect x="254" y="0" width="30" height="8" fill="#844FBA" clip-path="url(#satori_cp-id-0)" mask="url(#satori_om-id-0)"/><mask id="satori_om-id-0-4"><rect x="284" y="0" width="17" height="8" fill="#fff" mask="url(#satori_om-id-0)"/></mask><rect x="284" y="0" width="17" height="8" fill="#dea584" clip-path="url(#satori_cp-id-0)" mask="url(#satori_om-id-0)"/><mask id="satori_om-id-0-5"><rect x="301" y="0" width="16" height="8" fill="#fff" mask="url(#satori_om-id-0)"/></mask><rect x="301" y="0" width="16" height="8" fill="#A97BFF" clip-path="url(#satori_cp-id-0)" mask="url(#satori_om-id-0)"/><mask id="satori_om-id-0-6"><rect x="317" y="0" width="16" height="8" fill="#fff" mask="url(#satori_om-id-0)"/></mask><rect x="317" y="0" width="16" height="8" fill="#ff3e00" clip-path="url(#satori_cp-id-0)" mask="url(#satori_om-id-0)"/><mask id="satori_om-id-0-7"><rect x="333" y="0" width="15" height="8" fill="#fff" mask="url(#satori_om-id-0)"/></mask><rect x="333" y="0" width="15" height="8" fill="#701516" clip-path="url(#satori_cp-id-0)" mask="url(#satori_om-id-0)"/><mask id="satori_om-id-0-8"><rect x="348" y="0" width="10" height="8" fill="#fff" mask="url(#satori_om-id-0)"/></mask><rect x="348" y="0" width="10" height="8" fill="#555555" clip-path="url(#satori_cp-id-0)" mask="url(#satori_om-id-0)"/><mask id="satori_om-id-0-9"><rect x="358" y="0" width="10" height="8" fill="#fff" mask="url(#satori_om-id-0)"/></mask><rect x="358" y="0" width="10" height="8" fill="#f1e05a" clip-path="url(#satori_cp-id-0)" mask="url(#satori_om-id-0)"/><mask id="satori_om-id-1"><rect x="0" y="18" width="375" height="106" fill="#fff"/></mask><mask id="satori_om-id-1-0"><rect x="0" y="18" width="160" height="19" fill="#fff"/></mask><mask id="satori_om-id-1-0-0"><rect x="0" y="20" width="16" height="16" fill="#fff"/></mask><mask id="satori_om-id-1-0-0-0"><rect x="4" y="24" width="8" height="8" fill="#fff"/></mask><path x="4" y="24" width="8" height="8" fill="#3178c6" d="M8,24 h0 a4,4 0 0 1 4,4 v0 a4,4 0 0 1 -4,4 h0 a4,4 0 0 1 -4,-4 v0 a4,4 0 0 1 4,-4"/><mask id="satori_om-id-1-0-1"><rect x="29" y="18" width="79" height="19" fill="#fff"/></mask><g  ><path fill="#24292f" d="M38.6 21.6L38.6 23.5L35.1 23.5L35.1 33L32.8 33L32.8 23.5L29.3 23.5L29.3 21.6L38.6 21.6ZM40.7 24.5L42.3 29.8L43.8 24.5L46.3 24.5L42.9 34.3L42.7 34.8Q41.9 36.4 40.2 36.4L40.2 36.4Q39.7 36.4 39.2 36.3L39.2 36.3L39.2 34.6L39.5 34.6Q40.2 34.6 40.5 34.4Q40.8 34.2 41.0 33.7L41.0 33.7L41.2 33.0L38.3 24.5L40.7 24.5ZM54.8 28.7L54.8 28.9Q54.8 30.8 53.9 32.0Q53.0 33.2 51.5 33.2L51.5 33.2Q50.2 33.2 49.4 32.3L49.4 32.3L49.4 36.3L47.2 36.3L47.2 24.5L49.3 24.5L49.3 25.4Q50.1 24.4 51.5 24.4L51.5 24.4Q53.0 24.4 53.9 25.5Q54.8 26.7 54.8 28.7L54.8 28.7ZM52.5 28.7L52.5 28.7Q52.5 27.5 52.1 26.9Q51.7 26.2 50.9 26.2L50.9 26.2Q49.8 26.2 49.4 27.0L49.4 27.0L49.4 30.5Q49.8 31.3 50.9 31.3L50.9 31.3Q52.5 31.3 52.5 28.7ZM60.1 33.2L60.1 33.2Q58.2 33.2 57.0 32.0Q55.9 30.9 55.9 29.0L55.9 29.0L55.9 28.8Q55.9 27.5 56.4 26.5Q56.8 25.5 57.7 24.9Q58.6 24.4 59.8 24.4L59.8 24.4Q61.5 24.4 62.5 25.5Q63.5 26.6 63.5 28.6L63.5 28.6L63.5 29.5L58.1 29.5Q58.3 30.3 58.8 30.8Q59.4 31.3 60.2 31.3L60.2 31.3Q61.5 31.3 62.2 30.4L62.2 30.4L63.4 31.6Q62.8 32.4 62.0 32.8Q61.1 33.2 60.1 33.2ZM59.8 26.2L59.8 26.2Q59.1 26.2 58.7 26.7Q58.3 27.1 58.2 28.0L58.2 28.0L61.3 28.0L61.3 27.8Q61.3 27.0 60.9 26.6Q60.5 26.2 59.8 26.2ZM70.9 30.0L70.9 30.0Q70.9 29.4 70.4 29.0Q69.9 28.6 68.7 28.2Q67.5 27.9 66.8 27.5L66.8 27.5Q64.8 26.4 64.8 24.6L64.8 24.6Q64.8 23.7 65.4 23.0Q65.9 22.3 66.8 21.9Q67.8 21.5 69.0 21.5L69.0 21.5Q70.3 21.5 71.2 21.9Q72.2 22.4 72.7 23.2Q73.2 24.0 73.2 25.0L73.2 25.0L70.9 25.0Q70.9 24.2 70.4 23.8Q69.9 23.3 69.0 23.3L69.0 23.3Q68.1 23.3 67.7 23.7Q67.2 24.1 67.2 24.7L67.2 24.7Q67.2 25.2 67.7 25.6Q68.3 26.0 69.4 26.3L69.4 26.3Q71.4 26.9 72.3 27.8Q73.2 28.7 73.2 30L73.2 30Q73.2 31.5 72.1 32.3Q71.0 33.2 69.1 33.2L69.1 33.2Q67.8 33.2 66.7 32.7Q65.6 32.2 65.1 31.4Q64.5 30.5 64.5 29.4L64.5 29.4L66.8 29.4Q66.8 31.3 69.1 31.3L69.1 31.3Q69.9 31.3 70.4 31.0Q70.9 30.6 70.9 30.0ZM78.2 31.3L78.2 31.3Q78.8 31.3 79.2 31.0Q79.6 30.6 79.6 30.1L79.6 30.1L81.7 30.1Q81.7 30.9 81.2 31.7Q80.8 32.4 80.0 32.8Q79.2 33.2 78.2 33.2L78.2 33.2Q76.4 33.2 75.3 32.0Q74.3 30.9 74.3 28.8L74.3 28.8L74.3 28.7Q74.3 26.7 75.3 25.6Q76.4 24.4 78.2 24.4L78.2 24.4Q79.8 24.4 80.7 25.3Q81.7 26.2 81.7 27.7L81.7 27.7L79.6 27.7Q79.6 27.0 79.2 26.6Q78.8 26.2 78.1 26.2L78.1 26.2Q77.4 26.2 77.0 26.8Q76.6 27.4 76.6 28.7L76.6 28.7L76.6 28.9Q76.6 30.2 77.0 30.8Q77.4 31.3 78.2 31.3ZM87.8 24.5L87.7 26.7Q87.3 26.6 86.9 26.6L86.9 26.6Q85.6 26.6 85.3 27.5L85.3 27.5L85.3 33L83.0 33L83.0 24.5L85.1 24.5L85.2 25.6Q85.9 24.4 87.1 24.4L87.1 24.4Q87.4 24.4 87.8 24.5L87.8 24.5ZM91.2 24.5L91.2 33L88.9 33L88.9 24.5L91.2 24.5ZM88.8 22.4L88.8 22.4Q88.8 21.9 89.2 21.5Q89.5 21.2 90.1 21.2L90.1 21.2Q90.7 21.2 91 21.5Q91.3 21.9 91.3 22.4L91.3 22.4Q91.3 22.9 91.0 23.2Q90.6 23.5 90.1 23.5Q89.5 23.5 89.2 23.2Q88.8 22.9 88.8 22.4ZM100.7 28.7L100.7 28.9Q100.7 30.8 99.8 32.0Q98.9 33.2 97.4 33.2L97.4 33.2Q96.1 33.2 95.3 32.3L95.3 32.3L95.3 36.3L93.1 36.3L93.1 24.5L95.2 24.5L95.2 25.4Q96.1 24.4 97.4 24.4L97.4 24.4Q98.9 24.4 99.8 25.5Q100.7 26.7 100.7 28.7L100.7 28.7ZM98.4 28.7L98.4 28.7Q98.4 27.5 98.0 26.9Q97.6 26.2 96.8 26.2L96.8 26.2Q95.7 26.2 95.3 27.0L95.3 27.0L95.3 30.5Q95.7 31.3 96.8 31.3L96.8 31.3Q98.4 31.3 98.4 28.7ZM102.5 22.5L104.8 22.5L104.8 24.5L106.2 24.5L106.2 26.2L104.8 26.2L104.8 30.4Q104.8 30.9 105.0 31.1Q105.1 31.3 105.6 31.3L105.6 31.3Q106.0 31.3 106.3 31.2L106.3 31.2L106.3 33.0Q105.6 33.2 104.9 33.2L104.9 33.2Q102.6 33.2 102.5 30.8L102.5 30.8L102.5 26.2L101.3 26.2L101.3 24.5L102.5 24.5L102.5 22.5Z "/></g><mask id="satori_om-id-1-0-2"><rect x="117" y="18" width="43" height="19" fill="#fff"/></mask><g  ><path fill="#57606a" d="M124.0 21.6L124.0 29.2L125.6 29.2L125.6 30.4L124.0 30.4L124.0 33L122.6 33L122.6 30.4L117.4 30.4L117.4 29.5L122.5 21.6L124.0 21.6ZM122.4 23.9L119.1 29.2L122.6 29.2L122.6 23.6L122.4 23.9ZM131.7 21.6L131.7 33L130.2 33L130.2 23.4L127.3 24.4L127.3 23.1L131.5 21.6L131.7 21.6ZM136.1 32.2L136.1 32.2Q136.1 31.9 136.3 31.6Q136.5 31.4 137.0 31.4Q137.4 31.4 137.7 31.6Q137.9 31.9 137.9 32.2L137.9 32.2Q137.9 32.6 137.7 32.8Q137.4 33.1 137.0 33.1Q136.5 33.1 136.3 32.8Q136.1 32.6 136.1 32.2ZM147.5 21.6L147.5 22.4L142.8 33L141.2 33L145.9 22.8L139.8 22.8L139.8 21.6L147.5 21.6ZM149.0 24.4L149.0 23.8Q149.0 22.8 149.6 22.1Q150.3 21.5 151.3 21.5L151.3 21.5Q152.4 21.5 153.0 22.1Q153.6 22.8 153.6 23.9L153.6 23.9L153.6 24.4Q153.6 25.4 153.0 26.1Q152.3 26.8 151.3 26.8L151.3 26.8Q150.3 26.8 149.6 26.1Q149.0 25.4 149.0 24.4L149.0 24.4ZM150.1 23.8L150.1 24.4Q150.1 25.0 150.4 25.4Q150.8 25.8 151.3 25.8L151.3 25.8Q151.9 25.8 152.2 25.4Q152.6 25.0 152.6 24.4L152.6 24.4L152.6 23.8Q152.6 23.2 152.2 22.8Q151.9 22.4 151.3 22.4Q150.7 22.4 150.4 22.8Q150.1 23.2 150.1 23.8L150.1 23.8ZM154.5 30.8L154.5 30.2Q154.5 29.2 155.2 28.5Q155.8 27.9 156.9 27.9Q157.9 27.9 158.5 28.5Q159.2 29.2 159.2 30.3L159.2 30.3L159.2 30.8Q159.2 31.8 158.5 32.5Q157.9 33.2 156.9 33.2Q155.9 33.2 155.2 32.5Q154.5 31.9 154.5 30.8L154.5 30.8ZM155.6 30.2L155.6 30.8Q155.6 31.4 155.9 31.8Q156.3 32.2 156.9 32.2L156.9 32.2Q157.4 32.2 157.8 31.8Q158.1 31.5 158.1 30.8L158.1 30.8L158.1 30.2Q158.1 29.6 157.8 29.2Q157.4 28.8 156.9 28.8L156.9 28.8Q156.3 28.8 155.9 29.2Q155.6 29.6 155.6 30.2L155.6 30.2ZM157.2 23.3L151.7 32.1L150.8 31.6L156.4 22.7L157.2 23.3Z "/></g><mask id="satori_om-id-1-1"><rect x="170" y="18" width="101" height="19" fill="#fff"/></mask><mask id="satori_om-id-1-1-0"><rect x="170" y="20" width="16" height="16" fill="#fff"/></mask><mask id="satori_om-id-1-1-0-0"><rect x="174" y="24" width="8" height="8" fill="#fff"/></mask><path x="174" y="24" width="8" height="8" fill="#00ADD8" d="M178,24 h0 a4,4 0 0 1 4,4 v0 a4,4 0 0 1 -4,4 h0 a4,4 0 0 1 -4,-4 v0 a4,4 0 0 1 4,-4"/><mask id="satori_om-id-1-1-1"><rect x="199" y="18" width="20" height="19" fill="#fff"/></mask><g  ><path fill="#24292f" d="M209.0 27.0L209.0 31.6Q208.4 32.3 207.2 32.7Q206.1 33.2 204.7 33.2L204.7 33.2Q203.2 33.2 202.1 32.5Q201.0 31.9 200.4 30.6Q199.8 29.4 199.7 27.8L199.7 27.8L199.7 27.0Q199.7 25.3 200.3 24.0Q200.9 22.8 202.0 22.1Q203.0 21.5 204.5 21.5L204.5 21.5Q206.5 21.5 207.7 22.4Q208.8 23.4 209.0 25.2L209.0 25.2L206.7 25.2Q206.6 24.3 206.0 23.8Q205.5 23.4 204.6 23.4L204.6 23.4Q203.4 23.4 202.8 24.3Q202.1 25.2 202.1 26.9L202.1 26.9L202.1 27.7Q202.1 29.4 202.8 30.4Q203.5 31.3 204.8 31.3L204.8 31.3Q206.1 31.3 206.7 30.7L206.7 30.7L206.7 28.8L204.5 28.8L204.5 27.0L209.0 27.0ZM210.4 28.8L210.4 28.7Q210.4 27.4 210.9 26.5Q211.4 25.5 212.3 24.9Q213.2 24.4 214.4 24.4L214.4 24.4Q216.1 24.4 217.2 25.4Q218.3 26.5 218.4 28.3L218.4 28.3L218.4 28.9Q218.4 30.8 217.3 32.0Q216.3 33.2 214.4 33.2Q212.6 33.2 211.5 32.0Q210.4 30.8 210.4 28.8L210.4 28.8ZM212.7 28.9L212.7 28.9Q212.7 30.1 213.1 30.7Q213.6 31.3 214.4 31.3L214.4 31.3Q215.2 31.3 215.7 30.7Q216.2 30.1 216.2 28.7L216.2 28.7Q216.2 27.5 215.7 26.9Q215.2 26.2 214.4 26.2L214.4 26.2Q213.6 26.2 213.1 26.9Q212.7 27.5 212.7 28.9Z "/></g><mask id="satori_om-id-1-1-2"><rect x="228" y="18" width="43" height="19" fill="#fff"/></mask><g  ><path fill="#57606a" d="M233.7 21.6L233.7 33L232.2 33L232.2 23.4L229.3 24.4L229.3 23.1L233.5 21.6L233.7 21.6ZM244.0 21.6L244.0 29.2L245.6 29.2L245.6 30.4L244.0 30.4L244.0 33L242.6 33L242.6 30.4L237.4 30.4L237.4 29.5L242.5 21.6L244.0 21.6ZM242.4 23.9L239.0 29.2L242.6 29.2L242.6 23.6L242.4 23.9ZM247.1 32.2L247.1 32.2Q247.1 31.9 247.3 31.6Q247.5 31.4 248.0 31.4Q248.4 31.4 248.7 31.6Q248.9 31.9 248.9 32.2L248.9 32.2Q248.9 32.6 248.7 32.8Q248.4 33.1 248.0 33.1Q247.5 33.1 247.3 32.8Q247.1 32.6 247.1 32.2ZM258.5 21.6L258.5 22.4L253.8 33L252.2 33L256.9 22.8L250.8 22.8L250.8 21.6L258.5 21.6ZM260.0 24.4L260.0 23.8Q260.0 22.8 260.6 22.1Q261.3 21.5 262.3 21.5L262.3 21.5Q263.4 21.5 264.0 22.1Q264.6 22.8 264.6 23.9L264.6 23.9L264.6 24.4Q264.6 25.4 264.0 26.1Q263.3 26.8 262.3 26.8L262.3 26.8Q261.3 26.8 260.6 26.1Q260.0 25.4 260.0 24.4L260.0 24.4ZM261.1 23.8L261.1 24.4Q261.1 25.0 261.4 25.4Q261.8 25.8 262.3 25.8L262.3 25.8Q262.9 25.8 263.2 25.4Q263.6 25.0 263.6 24.4L263.6 24.4L263.6 23.8Q263.6 23.2 263.2 22.8Q262.9 22.4 262.3 22.4Q261.7 22.4 261.4 22.8Q261.1 23.2 261.1 23.8L261.1 23.8ZM265.5 30.8L265.5 30.2Q265.5 29.2 266.2 28.5Q266.8 27.9 267.9 27.9Q268.9 27.9 269.5 28.5Q270.2 29.2 270.2 30.3L270.2 30.3L270.2 30.8Q270.2 31.8 269.5 32.5Q268.9 33.2 267.9 33.2Q266.9 33.2 266.2 32.5Q265.5 31.9 265.5 30.8L265.5 30.8ZM266.6 30.2L266.6 30.8Q266.6 31.4 266.9 31.8Q267.3 32.2 267.9 32.2L267.9 32.2Q268.4 32.2 268.8 31.8Q269.1 31.5 269.1 30.8L269.1 30.8L269.1 30.2Q269.1 29.6 268.8 29.2Q268.4 28.8 267.9 28.8L267.9 28.8Q267.3 28.8 266.9 29.2Q266.6 29.6 266.6 30.2L266.6 30.2ZM268.2 23.3L262.7 32.1L261.8 31.6L267.4 22.7L268.2 23.3Z "/></g><mask id="satori_om-id-1-2"><rect x="0" y="47" width="132" height="19" fill="#fff"/></mask><mask id="satori_om-id-1-2-0"><rect x="0" y="49" width="16" height="16" fill="#fff"/></mask><mask id="satori_om-id-1-2-0-0"><rect x="4" y="53" width="8" height="8" fill="#fff"/></mask><path x="4" y="53" width="8" height="8" fill="#3572A5" d="M8,53 h0 a4,4 0 0 1 4,4 v0 a4,4 0 0 1 -4,4 h0 a4,4 0 0 1 -4,-4 v0 a4,4 0 0 1 4,-4"/><mask id="satori_om-id-1-2-1"><rect x="29" y="47" width="51" height="19" fill="#fff"/></mask><g  ><path fill="#24292f" d="M34.4 58.0L32.4 58.0L32.4 62L30.0 62L30.0 50.6L34.5 50.6Q35.7 50.6 36.7 51.1Q37.7 51.6 38.2 52.4Q38.7 53.3 38.7 54.4L38.7 54.4Q38.7 56.1 37.6 57.0Q36.4 58.0 34.4 58.0L34.4 58.0ZM32.4 52.5L32.4 56.1L34.5 56.1Q35.4 56.1 35.9 55.7Q36.4 55.2 36.4 54.4L36.4 54.4Q36.4 53.6 35.9 53.1Q35.4 52.5 34.5 52.5L34.5 52.5L32.4 52.5ZM41.9 53.5L43.5 58.8L45.0 53.5L47.4 53.5L44.0 63.3L43.9 63.8Q43.1 65.4 41.4 65.4L41.4 65.4Q40.9 65.4 40.4 65.3L40.4 65.3L40.4 63.6L40.7 63.6Q41.3 63.6 41.7 63.4Q42.0 63.2 42.2 62.7L42.2 62.7L42.4 62.0L39.5 53.5L41.9 53.5ZM48.8 51.5L51.0 51.5L51.0 53.5L52.5 53.5L52.5 55.2L51.0 55.2L51.0 59.4Q51.0 59.9 51.2 60.1Q51.4 60.3 51.9 60.3L51.9 60.3Q52.3 60.3 52.6 60.2L52.6 60.2L52.6 62.0Q51.9 62.2 51.2 62.2L51.2 62.2Q48.8 62.2 48.8 59.8L48.8 59.8L48.8 55.2L47.5 55.2L47.5 53.5L48.8 53.5L48.8 51.5ZM55.9 50L55.9 54.5Q56.8 53.4 58.2 53.4L58.2 53.4Q61.0 53.4 61.0 56.6L61.0 56.6L61.0 62L58.7 62L58.7 56.6Q58.7 55.9 58.4 55.6Q58.1 55.2 57.4 55.2L57.4 55.2Q56.4 55.2 55.9 56.0L55.9 56.0L55.9 62L53.7 62L53.7 50L55.9 50ZM62.3 57.8L62.3 57.7Q62.3 56.4 62.8 55.5Q63.3 54.5 64.2 53.9Q65.1 53.4 66.3 53.4L66.3 53.4Q68.0 53.4 69.1 54.4Q70.2 55.5 70.3 57.3L70.3 57.3L70.4 57.9Q70.4 59.8 69.3 61.0Q68.2 62.2 66.4 62.2Q64.5 62.2 63.4 61.0Q62.3 59.8 62.3 57.8L62.3 57.8ZM64.6 57.9L64.6 57.9Q64.6 59.1 65.1 59.7Q65.5 60.3 66.4 60.3L66.4 60.3Q67.2 60.3 67.6 59.7Q68.1 59.1 68.1 57.7L68.1 57.7Q68.1 56.5 67.6 55.9Q67.2 55.2 66.3 55.2L66.3 55.2Q65.5 55.2 65.1 55.9Q64.6 56.5 64.6 57.9ZM71.7 53.5L73.8 53.5L73.9 54.5Q74.8 53.4 76.3 53.4L76.3 53.4Q77.7 53.4 78.3 54.2Q79.0 55.0 79.0 56.5L79.0 56.5L79.0 62L76.7 62L76.7 56.6Q76.7 55.9 76.4 55.6Q76.1 55.2 75.4 55.2L75.4 55.2Q74.4 55.2 74.0 56.0L74.0 56.0L74.0 62L71.7 62L71.7 53.5Z "/></g><mask id="satori_om-id-1-2-2"><rect x="89" y="47" width="43" height="19" fill="#fff"/></mask><g  ><path fill="#57606a" d="M94.7 50.6L94.7 62L93.2 62L93.2 52.4L90.3 53.4L90.3 52.1L94.5 50.6L94.7 50.6ZM103.7 50.6L103.7 62L102.2 62L102.2 52.4L99.3 53.4L99.3 52.1L103.5 50.6L103.7 50.6ZM108.1 61.2L108.1 61.2Q108.1 60.9 108.3 60.6Q108.5 60.4 109.0 60.4Q109.4 60.4 109.7 60.6Q109.9 60.9 109.9 61.2L109.9 61.2Q109.9 61.6 109.7 61.8Q109.4 62.1 109.0 62.1Q108.5 62.1 108.3 61.8Q108.1 61.6 108.1 61.2ZM114.2 56.8L114.2 55.6L115.3 55.6Q116.3 55.6 116.9 55.1Q117.5 54.5 117.5 53.7L117.5 53.7Q117.5 51.7 115.5 51.7L115.5 51.7Q114.6 51.7 114.0 52.2Q113.5 52.7 113.5 53.6L113.5 53.6L112.0 53.6Q112.0 52.3 113.0 51.4Q114.0 50.5 115.5 50.5L115.5 50.5Q117.1 50.5 118.0 51.3Q119.0 52.2 119.0 53.7L119.0 53.7Q119.0 54.4 118.5 55.1Q118.0 55.8 117.2 56.2L117.2 56.2Q118.1 56.5 118.6 57.1Q119.1 57.8 119.1 58.8L119.1 58.8Q119.1 60.4 118.1 61.3Q117.1 62.2 115.5 62.2Q113.9 62.2 112.9 61.3Q111.9 60.4 111.9 59L111.9 59L113.4 59Q113.4 59.9 114.0 60.4Q114.5 61.0 115.5 61.0L115.5 61.0Q116.6 61.0 117.1 60.4Q117.7 59.9 117.7 58.9L117.7 58.9Q117.7 57.9 117.1 57.3Q116.5 56.8 115.3 56.8L115.3 56.8L114.2 56.8ZM121.0 53.4L121.0 52.8Q121.0 51.8 121.6 51.1Q122.3 50.5 123.3 50.5L123.3 50.5Q124.4 50.5 125.0 51.1Q125.6 51.8 125.6 52.9L125.6 52.9L125.6 53.4Q125.6 54.4 125.0 55.1Q124.3 55.8 123.3 55.8L123.3 55.8Q122.3 55.8 121.6 55.1Q121.0 54.4 121.0 53.4L121.0 53.4ZM122.1 52.8L122.1 53.4Q122.1 54.0 122.4 54.4Q122.8 54.8 123.3 54.8L123.3 54.8Q123.9 54.8 124.2 54.4Q124.6 54.0 124.6 53.4L124.6 53.4L124.6 52.8Q124.6 52.2 124.2 51.8Q123.9 51.4 123.3 51.4Q122.7 51.4 122.4 51.8Q122.1 52.2 122.1 52.8L122.1 52.8ZM126.5 59.8L126.5 59.2Q126.5 58.2 127.2 57.5Q127.8 56.9 128.9 56.9Q129.9 56.9 130.5 57.5Q131.2 58.2 131.2 59.3L131.2 59.3L131.2 59.8Q131.2 60.8 130.5 61.5Q129.9 62.2 128.9 62.2Q127.9 62.2 127.2 61.5Q126.5 60.9 126.5 59.8L126.5 59.8ZM127.6 59.2L127.6 59.8Q127.6 60.4 127.9 60.8Q128.3 61.2 128.9 61.2L128.9 61.2Q129.4 61.2 129.8 60.8Q130.1 60.5 130.1 59.8L130.1 59.8L130.1 59.2Q130.1 58.6 129.8 58.2Q129.4 57.8 128.9 57.8L128.9 57.8Q128.3 57.8 127.9 58.2Q127.6 58.6 127.6 59.2L127.6 59.2ZM129.2 52.3L123.7 61.1L122.8 60.6L128.4 51.7L129.2 52.3Z "/></g><mask id="satori_om-id-1-3"><rect x="142" y="47" width="103" height="19" fill="#fff"/></mask><mask id="satori_om-id-1-3-0"><rect x="142" y="49" width="16" height="16" fill="#fff"/></mask><mask id="satori_om-id-1-3-0-0"><rect x="146" y="53" width="8" height="8" fill="#fff"/></mask><path x="146" y="53" width="8" height="8" fill="#844FBA" d="M150,53 h0 a4,4 0 0 1 4,4 v0 a4,4 0 0 1 -4,4 h0 a4,4 0 0 1 -4,-4 v0 a4,4 0 0 1 4,-4"/><mask id="satori_om-id-1-3-1"><rect x="171" y="47" width="31" height="19" fill="#fff"/></mask><g  ><path fill="#24292f" d="M181.3 50.6L181.3 62L178.9 62L178.9 57.1L174.4 57.1L174.4 62L172.0 62L172.0 50.6L174.4 50.6L174.4 55.2L178.9 55.2L178.9 50.6L181.3 50.6ZM189.9 58.2L192.3 58.2Q192.1 60.0 190.9 61.1Q189.7 62.2 187.7 62.2L187.7 62.2Q185.5 62.2 184.2 60.7Q183.0 59.2 183.0 56.6L183.0 56.6L183.0 55.9Q183.0 54.3 183.6 53.1Q184.1 51.8 185.2 51.1Q186.3 50.5 187.7 50.5L187.7 50.5Q189.7 50.5 190.9 51.5Q192.1 52.6 192.3 54.5L192.3 54.5L189.9 54.5Q189.8 53.4 189.3 52.9Q188.8 52.4 187.7 52.4L187.7 52.4Q186.5 52.4 185.9 53.2Q185.4 54.1 185.4 55.8L185.4 55.8L185.4 56.7Q185.4 58.5 185.9 59.4Q186.5 60.2 187.7 60.2L187.7 60.2Q188.8 60.2 189.3 59.7Q189.8 59.3 189.9 58.2L189.9 58.2ZM196.1 50.6L196.1 60.1L201.1 60.1L201.1 62L193.8 62L193.8 50.6L196.1 50.6Z "/></g><mask id="satori_om-id-1-3-2"><rect x="211" y="47" width="34" height="19" fill="#fff"/></mask><g  ><path fill="#57606a" d="M218.8 53.6L218.8 53.6Q218.8 54.4 218.4 55.1Q217.9 55.8 217.2 56.1L217.2 56.1Q218.1 56.5 218.6 57.3Q219.1 58 219.1 58.9L219.1 58.9Q219.1 60.4 218.1 61.3Q217.1 62.2 215.5 62.2L215.5 62.2Q213.9 62.2 212.9 61.3Q211.9 60.4 211.9 58.9L211.9 58.9Q211.9 58.0 212.4 57.3Q212.9 56.5 213.8 56.1L213.8 56.1Q213.0 55.8 212.6 55.1Q212.1 54.4 212.1 53.6L212.1 53.6Q212.1 52.2 213.1 51.3Q214.0 50.5 215.5 50.5L215.5 50.5Q217.0 50.5 217.9 51.3Q218.8 52.2 218.8 53.6ZM217.7 58.9L217.7 58.9Q217.7 57.9 217.1 57.3Q216.5 56.7 215.5 56.7Q214.5 56.7 213.9 57.3Q213.3 57.9 213.3 58.9Q213.3 59.9 213.9 60.4Q214.5 61.0 215.5 61.0L215.5 61.0Q216.5 61.0 217.1 60.4Q217.7 59.9 217.7 58.9ZM215.5 51.7L215.5 51.7Q214.6 51.7 214.1 52.2Q213.6 52.7 213.6 53.6L213.6 53.6Q213.6 54.5 214.1 55.0Q214.6 55.6 215.5 55.6Q216.4 55.6 216.9 55.0Q217.4 54.5 217.4 53.6Q217.4 52.8 216.9 52.2Q216.3 51.7 215.5 51.7ZM221.1 61.2L221.1 61.2Q221.1 60.9 221.3 60.6Q221.6 60.4 222 60.4Q222.4 60.4 222.7 60.6Q222.9 60.9 222.9 61.2L222.9 61.2Q222.9 61.6 222.7 61.8Q222.4 62.1 222 62.1Q221.6 62.1 221.3 61.8Q221.1 61.6 221.1 61.2ZM232.3 55.3L232.3 57.1Q232.3 59.7 231.4 60.9Q230.5 62.2 228.7 62.2L228.7 62.2Q226.9 62.2 226 60.9Q225.1 59.7 225.1 57.3L225.1 57.3L225.1 55.4Q225.1 52.9 226.0 51.7Q226.8 50.5 228.7 50.5L228.7 50.5Q230.5 50.5 231.4 51.6Q232.3 52.8 232.3 55.3L232.3 55.3ZM230.8 57.5L230.8 55.2Q230.8 53.3 230.3 52.5Q229.8 51.7 228.7 51.7L228.7 51.7Q227.6 51.7 227.1 52.5Q226.6 53.3 226.5 55.1L226.5 55.1L226.5 57.4Q226.5 59.2 227.1 60.1Q227.6 61.0 228.7 61.0L228.7 61.0Q229.8 61.0 230.3 60.1Q230.8 59.3 230.8 57.5L230.8 57.5ZM234 53.4L234 52.8Q234 51.8 234.7 51.1Q235.3 50.5 236.3 50.5L236.3 50.5Q237.4 50.5 238.0 51.1Q238.7 51.8 238.7 52.9L238.7 52.9L238.7 53.4Q238.7 54.4 238.0 55.1Q237.4 55.8 236.3 55.8L236.3 55.8Q235.3 55.8 234.7 55.1Q234 54.4 234 53.4L234 53.4ZM235.1 52.8L235.1 53.4Q235.1 54.0 235.4 54.4Q235.8 54.8 236.3 54.8L236.3 54.8Q236.9 54.8 237.2 54.4Q237.6 54.0 237.6 53.4L237.6 53.4L237.6 52.8Q237.6 52.2 237.2 51.8Q236.9 51.4 236.3 51.4Q235.8 51.4 235.4 51.8Q235.1 52.2 235.1 52.8L235.1 52.8ZM239.5 59.8L239.5 59.2Q239.5 58.2 240.2 57.5Q240.8 56.9 241.9 56.9Q242.9 56.9 243.5 57.5Q244.2 58.2 244.2 59.3L244.2 59.3L244.2 59.8Q244.2 60.8 243.6 61.5Q242.9 62.2 241.9 62.2Q240.9 62.2 240.2 61.5Q239.5 60.9 239.5 59.8L239.5 59.8ZM240.6 59.2L240.6 59.8Q240.6 60.4 241.0 60.8Q241.3 61.2 241.9 61.2L241.9 61.2Q242.4 61.2 242.8 60.8Q243.1 60.5 243.1 59.8L243.1 59.8L243.1 59.2Q243.1 58.6 242.8 58.2Q242.4 57.8 241.9 57.8L241.9 57.8Q241.3 57.8 241.0 58.2Q240.6 58.6 240.6 59.2L240.6 59.2ZM242.2 52.3L236.7 61.1L235.9 60.6L241.4 51.7L242.2 52.3Z "/></g><mask id="satori_om-id-1-4"><rect x="255" y="47" width="105" height="19" fill="#fff"/></mask><mask id="satori_om-id-1-4-0"><rect x="255" y="49" width="16" height="16" fill="#fff"/></mask><mask id="satori_om-id-1-4-0-0"><rect x="259" y="53" width="8" height="8" fill="#fff"/></mask><path x="259" y="53" width="8" height="8" fill="#dea584" d="M263,53 h0 a4,4 0 0 1 4,4 v0 a4,4 0 0 1 -4,4 h0 a4,4 0 0 1 -4,-4 v0 a4,4 0 0 1 4,-4"/><mask id="satori_om-id-1-4-1"><rect x="284" y="47" width="33" height="19" fill="#fff"/></mask><g  ><path fill="#24292f" d="M291.4 62L289.2 57.8L287.4 57.8L287.4 62L285.0 62L285.0 50.6L289.2 50.6Q291.3 50.6 292.4 51.5Q293.4 52.4 293.4 54.1L293.4 54.1Q293.4 55.2 292.9 56.0Q292.4 56.8 291.4 57.2L291.4 57.2L293.9 61.9L293.9 62L291.4 62ZM287.4 52.5L287.4 55.9L289.3 55.9Q290.1 55.9 290.6 55.5Q291.1 55.0 291.1 54.3L291.1 54.3Q291.1 53.4 290.6 53.0Q290.2 52.5 289.2 52.5L289.2 52.5L287.4 52.5ZM300.2 62L300.1 61.1Q299.3 62.2 297.8 62.2L297.8 62.2Q296.5 62.2 295.8 61.4Q295.0 60.6 295.0 59.1L295.0 59.1L295.0 53.5L297.3 53.5L297.3 59.0Q297.3 60.3 298.5 60.3L298.5 60.3Q299.6 60.3 300.1 59.5L300.1 59.5L300.1 53.5L302.3 53.5L302.3 62L300.2 62ZM308.6 59.7L308.6 59.7Q308.6 59.3 308.2 59.0Q307.8 58.8 306.9 58.6L306.9 58.6Q303.9 58.0 303.9 56.0L303.9 56.0Q303.9 54.9 304.8 54.1Q305.7 53.4 307.2 53.4L307.2 53.4Q308.9 53.4 309.8 54.1Q310.8 54.9 310.8 56.1L310.8 56.1L308.5 56.1Q308.5 55.6 308.2 55.3Q307.9 55 307.2 55L307.2 55Q306.7 55 306.4 55.3Q306.0 55.5 306.0 55.9L306.0 55.9Q306.0 56.3 306.4 56.5Q306.8 56.8 307.6 56.9Q308.4 57.1 309.0 57.3L309.0 57.3Q310.8 58.0 310.8 59.6L310.8 59.6Q310.8 60.7 309.8 61.4Q308.8 62.2 307.3 62.2L307.3 62.2Q306.2 62.2 305.4 61.8Q304.5 61.4 304.1 60.7Q303.6 60.1 303.6 59.3L303.6 59.3L305.7 59.3Q305.8 59.9 306.2 60.2Q306.6 60.6 307.3 60.6L307.3 60.6Q307.9 60.6 308.3 60.3Q308.6 60.1 308.6 59.7ZM312.7 51.5L315.0 51.5L315.0 53.5L316.4 53.5L316.4 55.2L315.0 55.2L315.0 59.4Q315.0 59.9 315.1 60.1Q315.3 60.3 315.8 60.3L315.8 60.3Q316.2 60.3 316.5 60.2L316.5 60.2L316.5 62.0Q315.8 62.2 315.1 62.2L315.1 62.2Q312.8 62.2 312.7 59.8L312.7 59.8L312.7 55.2L311.5 55.2L311.5 53.5L312.7 53.5L312.7 51.5Z "/></g><mask id="satori_om-id-1-4-2"><rect x="326" y="47" width="34" height="19" fill="#fff"/></mask><g  ><path fill="#57606a" d="M333.0 50.6L333.0 58.2L334.6 58.2L334.6 59.4L333.0 59.4L333.0 62L331.6 62L331.6 59.4L326.4 59.4L326.4 58.5L331.5 50.6L333.0 50.6ZM331.4 52.9L328.1 58.2L331.6 58.2L331.6 52.6L331.4 52.9ZM336.1 61.2L336.1 61.2Q336.1 60.9 336.3 60.6Q336.6 60.4 337 60.4Q337.4 60.4 337.7 60.6Q337.9 60.9 337.9 61.2L337.9 61.2Q337.9 61.6 337.7 61.8Q337.4 62.1 337 62.1Q336.6 62.1 336.3 61.8Q336.1 61.6 336.1 61.2ZM345.6 50.6L345.8 50.6L345.8 51.8L345.5 51.8Q343.9 51.9 342.9 52.8Q341.9 53.8 341.7 55.6L341.7 55.6Q342.6 54.5 344.2 54.5L344.2 54.5Q345.6 54.5 346.5 55.6Q347.4 56.6 347.4 58.3L347.4 58.3Q347.4 60.0 346.5 61.1Q345.5 62.2 343.9 62.2L343.9 62.2Q342.3 62.2 341.2 60.9Q340.2 59.6 340.2 57.7L340.2 57.7L340.2 57.1Q340.2 54.0 341.6 52.3Q342.9 50.7 345.6 50.6L345.6 50.6ZM343.9 55.7L343.9 55.7Q343.2 55.7 342.5 56.2Q341.9 56.6 341.7 57.3L341.7 57.3L341.7 57.8Q341.7 59.2 342.3 60.1Q342.9 61.0 343.9 61.0L343.9 61.0Q344.9 61.0 345.4 60.2Q346.0 59.5 346.0 58.4L346.0 58.4Q346.0 57.2 345.4 56.5Q344.9 55.7 343.9 55.7ZM349 53.4L349 52.8Q349 51.8 349.7 51.1Q350.3 50.5 351.3 50.5L351.3 50.5Q352.4 50.5 353.0 51.1Q353.7 51.8 353.7 52.9L353.7 52.9L353.7 53.4Q353.7 54.4 353.0 55.1Q352.4 55.8 351.3 55.8L351.3 55.8Q350.3 55.8 349.7 55.1Q349 54.4 349 53.4L349 53.4ZM350.1 52.8L350.1 53.4Q350.1 54.0 350.4 54.4Q350.8 54.8 351.3 54.8L351.3 54.8Q351.9 54.8 352.2 54.4Q352.6 54.0 352.6 53.4L352.6 53.4L352.6 52.8Q352.6 52.2 352.2 51.8Q351.9 51.4 351.3 51.4Q350.8 51.4 350.4 51.8Q350.1 52.2 350.1 52.8L350.1 52.8ZM354.5 59.8L354.5 59.2Q354.5 58.2 355.2 57.5Q355.8 56.9 356.9 56.9Q357.9 56.9 358.5 57.5Q359.2 58.2 359.2 59.3L359.2 59.3L359.2 59.8Q359.2 60.8 358.6 61.5Q357.9 62.2 356.9 62.2Q355.9 62.2 355.2 61.5Q354.5 60.9 354.5 59.8L354.5 59.8ZM355.6 59.2L355.6 59.8Q355.6 60.4 356.0 60.8Q356.3 61.2 356.9 61.2L356.9 61.2Q357.4 61.2 357.8 60.8Q358.1 60.5 358.1 59.8L358.1 59.8L358.1 59.2Q358.1 58.6 357.8 58.2Q357.4 57.8 356.9 57.8L356.9 57.8Q356.3 57.8 356.0 58.2Q355.6 58.6 355.6 59.2L355.6 59.2ZM357.2 52.3L351.7 61.1L350.9 60.6L356.4 51.7L357.2 52.3Z "/></g><mask id="satori_om-id-1-5"><rect x="0" y="76" width="115" height="19" fill="#fff"/></mask><mask id="satori_om-id-1-5-0"><rect x="0" y="78" width="16" height="16" fill="#fff"/></mask><mask id="satori_om-id-1-5-0-0"><rect x="4" y="82" width="8" height="8" fill="#fff"/></mask><path x="4" y="82" width="8" height="8" fill="#A97BFF" d="M8,82 h0 a4,4 0 0 1 4,4 v0 a4,4 0 0 1 -4,4 h0 a4,4 0 0 1 -4,-4 v0 a4,4 0 0 1 4,-4"/><mask id="satori_om-id-1-5-1"><rect x="29" y="76" width="43" height="19" fill="#fff"/></mask><g  ><path fill="#24292f" d="M36.5 91L33.6 86.4L32.4 87.8L32.4 91L30.0 91L30.0 79.6L32.4 79.6L32.4 84.8L33.4 83.4L36.3 79.6L39.2 79.6L35.1 84.7L39.3 91L36.5 91ZM39.5 86.8L39.5 86.7Q39.5 85.4 39.9 84.5Q40.4 83.5 41.3 82.9Q42.3 82.4 43.5 82.4L43.5 82.4Q45.2 82.4 46.2 83.4Q47.3 84.5 47.5 86.3L47.5 86.3L47.5 86.9Q47.5 88.8 46.4 90.0Q45.3 91.2 43.5 91.2Q41.6 91.2 40.6 90.0Q39.5 88.8 39.5 86.8L39.5 86.8ZM41.7 86.9L41.7 86.9Q41.7 88.1 42.2 88.7Q42.6 89.3 43.5 89.3L43.5 89.3Q44.3 89.3 44.8 88.7Q45.2 88.1 45.2 86.7L45.2 86.7Q45.2 85.5 44.8 84.9Q44.3 84.2 43.5 84.2L43.5 84.2Q42.6 84.2 42.2 84.9Q41.7 85.5 41.7 86.9ZM49.3 80.5L51.6 80.5L51.6 82.5L53.0 82.5L53.0 84.2L51.6 84.2L51.6 88.4Q51.6 88.9 51.7 89.1Q51.9 89.3 52.4 89.3L52.4 89.3Q52.8 89.3 53.1 89.2L53.1 89.2L53.1 91.0Q52.4 91.2 51.7 91.2L51.7 91.2Q49.4 91.2 49.3 88.8L49.3 88.8L49.3 84.2L48.1 84.2L48.1 82.5L49.3 82.5L49.3 80.5ZM56.6 79L56.6 91L54.4 91L54.4 79L56.6 79ZM60.9 82.5L60.9 91L58.6 91L58.6 82.5L60.9 82.5ZM58.5 80.4L58.5 80.4Q58.5 79.9 58.8 79.5Q59.2 79.2 59.8 79.2L59.8 79.2Q60.3 79.2 60.7 79.5Q61.0 79.9 61.0 80.4L61.0 80.4Q61.0 80.9 60.7 81.2Q60.3 81.5 59.8 81.5Q59.2 81.5 58.8 81.2Q58.5 80.9 58.5 80.4ZM62.7 82.5L64.8 82.5L64.9 83.5Q65.8 82.4 67.3 82.4L67.3 82.4Q68.7 82.4 69.3 83.2Q70.0 84.0 70 85.5L70 85.5L70 91L67.7 91L67.7 85.6Q67.7 84.9 67.4 84.6Q67.1 84.2 66.4 84.2L66.4 84.2Q65.4 84.2 65.0 85.0L65.0 85.0L65.0 91L62.7 91L62.7 82.5Z "/></g><mask id="satori_om-id-1-5-2"><rect x="81" y="76" width="34" height="19" fill="#fff"/></mask><g  ><path fill="#57606a" d="M88.0 79.6L88.0 87.2L89.6 87.2L89.6 88.4L88.0 88.4L88.0 91L86.6 91L86.6 88.4L81.4 88.4L81.4 87.5L86.5 79.6L88.0 79.6ZM86.4 81.9L83.1 87.2L86.6 87.2L86.6 81.6L86.4 81.9ZM91.1 90.2L91.1 90.2Q91.1 89.9 91.3 89.6Q91.6 89.4 92 89.4Q92.4 89.4 92.7 89.6Q92.9 89.9 92.9 90.2L92.9 90.2Q92.9 90.6 92.7 90.8Q92.4 91.1 92 91.1Q91.6 91.1 91.3 90.8Q91.1 90.6 91.1 90.2ZM102.6 89.8L102.6 91L95.1 91L95.1 90.0L99.1 85.6Q100.0 84.6 100.3 84.0Q100.6 83.4 100.6 82.7L100.6 82.7Q100.6 81.8 100.1 81.2Q99.5 80.7 98.6 80.7L98.6 80.7Q97.6 80.7 97.0 81.3Q96.4 81.9 96.4 83.0L96.4 83.0L94.9 83.0Q94.9 81.4 95.9 80.4Q96.9 79.5 98.6 79.5L98.6 79.5Q100.2 79.5 101.1 80.3Q102.1 81.1 102.1 82.5L102.1 82.5Q102.1 84.2 99.9 86.5L99.9 86.5L96.9 89.8L102.6 89.8ZM104 82.4L104 81.8Q104 80.8 104.7 80.1Q105.3 79.5 106.3 79.5L106.3 79.5Q107.4 79.5 108.0 80.1Q108.7 80.8 108.7 81.9L108.7 81.9L108.7 82.4Q108.7 83.4 108.0 84.1Q107.4 84.8 106.3 84.8L106.3 84.8Q105.3 84.8 104.7 84.1Q104 83.4 104 82.4L104 82.4ZM105.1 81.8L105.1 82.4Q105.1 83.0 105.4 83.4Q105.8 83.8 106.3 83.8L106.3 83.8Q106.9 83.8 107.2 83.4Q107.6 83.0 107.6 82.4L107.6 82.4L107.6 81.8Q107.6 81.2 107.2 80.8Q106.9 80.4 106.3 80.4Q105.8 80.4 105.4 80.8Q105.1 81.2 105.1 81.8L105.1 81.8ZM109.5 88.8L109.5 88.2Q109.5 87.2 110.2 86.5Q110.8 85.9 111.9 85.9Q112.9 85.9 113.5 86.5Q114.2 87.2 114.2 88.3L114.2 88.3L114.2 88.8Q114.2 89.8 113.6 90.5Q112.9 91.2 111.9 91.2Q110.9 91.2 110.2 90.5Q109.5 89.9 109.5 88.8L109.5 88.8ZM110.6 88.2L110.6 88.8Q110.6 89.4 111.0 89.8Q111.3 90.2 111.9 90.2L111.9 90.2Q112.4 90.2 112.8 89.8Q113.1 89.5 113.1 88.8L113.1 88.8L113.1 88.2Q113.1 87.6 112.8 87.2Q112.4 86.8 111.9 86.8L111.9 86.8Q111.3 86.8 111.0 87.2Q110.6 87.6 110.6 88.2L110.6 88.2ZM112.2 81.3L106.7 90.1L105.9 89.6L111.4 80.7L112.2 81.3Z "/></g><mask id="satori_om-id-1-6"><rect x="125" y="76" width="117" height="19" fill="#fff"/></mask><mask id="satori_om-id-1-6-0"><rect x="125" y="78" width="16" height="16" fill="#fff"/></mask><mask id="satori_om-id-1-6-0-0"><rect x="129" y="82" width="8" height="8" fill="#fff"/></mask><path x="129" y="82" width="8" height="8" fill="#ff3e00" d="M133,82 h0 a4,4 0 0 1 4,4 v0 a4,4 0 0 1 -4,4 h0 a4,4 0 0 1 -4,-4 v0 a4,4 0 0 1 4,-4"/><mask id="satori_om-id-1-6-1"><rect x="154" y="76" width="45" height="19" fill="#fff"/></mask><g  ><path fill="#24292f" d="M160.9 88.0L160.9 88.0Q160.9 87.4 160.4 87.0Q160.0 86.6 158.8 86.2Q157.5 85.9 156.8 85.5L156.8 85.5Q154.9 84.4 154.9 82.6L154.9 82.6Q154.9 81.7 155.4 81.0Q155.9 80.3 156.9 79.9Q157.9 79.5 159.1 79.5L159.1 79.5Q160.3 79.5 161.3 79.9Q162.2 80.4 162.7 81.2Q163.3 82.0 163.3 83.0L163.3 83.0L160.9 83.0Q160.9 82.2 160.4 81.8Q159.9 81.3 159.0 81.3L159.0 81.3Q158.2 81.3 157.7 81.7Q157.2 82.1 157.2 82.7L157.2 82.7Q157.2 83.2 157.8 83.6Q158.4 84.0 159.4 84.3L159.4 84.3Q161.4 84.9 162.4 85.8Q163.3 86.7 163.3 88L163.3 88Q163.3 89.5 162.1 90.3Q161.0 91.2 159.1 91.2L159.1 91.2Q157.8 91.2 156.8 90.7Q155.7 90.2 155.1 89.4Q154.5 88.5 154.5 87.4L154.5 87.4L156.9 87.4Q156.9 89.3 159.1 89.3L159.1 89.3Q160.0 89.3 160.4 89.0Q160.9 88.6 160.9 88.0ZM166.3 82.5L167.9 88.2L169.4 82.5L171.8 82.5L168.9 91L166.8 91L163.9 82.5L166.3 82.5ZM176.6 91.2L176.6 91.2Q174.7 91.2 173.6 90.0Q172.4 88.9 172.4 87.0L172.4 87.0L172.4 86.8Q172.4 85.5 172.9 84.5Q173.4 83.5 174.3 82.9Q175.2 82.4 176.3 82.4L176.3 82.4Q178.1 82.4 179.1 83.5Q180.1 84.6 180.1 86.6L180.1 86.6L180.1 87.5L174.7 87.5Q174.8 88.3 175.3 88.8Q175.9 89.3 176.7 89.3L176.7 89.3Q178.0 89.3 178.8 88.4L178.8 88.4L179.9 89.6Q179.4 90.4 178.5 90.8Q177.6 91.2 176.6 91.2ZM176.3 84.2L176.3 84.2Q175.6 84.2 175.2 84.7Q174.8 85.1 174.7 86.0L174.7 86.0L177.8 86.0L177.8 85.8Q177.8 85.0 177.4 84.6Q177.0 84.2 176.3 84.2ZM183.7 79L183.7 91L181.5 91L181.5 79L183.7 79ZM186.0 80.5L188.3 80.5L188.3 82.5L189.7 82.5L189.7 84.2L188.3 84.2L188.3 88.4Q188.3 88.9 188.5 89.1Q188.6 89.3 189.1 89.3L189.1 89.3Q189.5 89.3 189.8 89.2L189.8 89.2L189.8 91.0Q189.1 91.2 188.4 91.2L188.4 91.2Q186.1 91.2 186.0 88.8L186.0 88.8L186.0 84.2L184.8 84.2L184.8 82.5L186.0 82.5L186.0 80.5ZM194.9 91.2L194.9 91.2Q193.0 91.2 191.8 90.0Q190.7 88.9 190.7 87.0L190.7 87.0L190.7 86.8Q190.7 85.5 191.2 84.5Q191.7 83.5 192.6 82.9Q193.5 82.4 194.6 82.4L194.6 82.4Q196.4 82.4 197.4 83.5Q198.4 84.6 198.4 86.6L198.4 86.6L198.4 87.5L193.0 87.5Q193.1 88.3 193.6 88.8Q194.2 89.3 195.0 89.3L195.0 89.3Q196.3 89.3 197.1 88.4L197.1 88.4L198.2 89.6Q197.7 90.4 196.8 90.8Q195.9 91.2 194.9 91.2ZM194.6 84.2L194.6 84.2Q193.9 84.2 193.5 84.7Q193.1 85.1 193.0 86.0L193.0 86.0L196.1 86.0L196.1 85.8Q196.1 85.0 195.7 84.6Q195.3 84.2 194.6 84.2Z "/></g><mask id="satori_om-id-1-6-2"><rect x="208" y="76" width="34" height="19" fill="#fff"/></mask><g  ><path fill="#57606a" d="M215.0 79.6L215.0 87.2L216.6 87.2L216.6 88.4L215.0 88.4L215.0 91L213.6 91L213.6 88.4L208.4 88.4L208.4 87.5L213.5 79.6L215.0 79.6ZM213.4 81.9L210.1 87.2L213.6 87.2L213.6 81.6L213.4 81.9ZM218.1 90.2L218.1 90.2Q218.1 89.9 218.3 89.6Q218.6 89.4 219 89.4Q219.4 89.4 219.7 89.6Q219.9 89.9 219.9 90.2L219.9 90.2Q219.9 90.6 219.7 90.8Q219.4 91.1 219 91.1Q218.6 91.1 218.3 90.8Q218.1 90.6 218.1 90.2ZM229.6 89.8L229.6 91L222.1 91L222.1 90.0L226.1 85.6Q227.0 84.6 227.3 84.0Q227.6 83.4 227.6 82.7L227.6 82.7Q227.6 81.8 227.1 81.2Q226.5 80.7 225.6 80.7L225.6 80.7Q224.6 80.7 224.0 81.3Q223.4 81.9 223.4 83.0L223.4 83.0L221.9 83.0Q221.9 81.4 222.9 80.4Q223.9 79.5 225.6 79.5L225.6 79.5Q227.2 79.5 228.1 80.3Q229.1 81.1 229.1 82.5L229.1 82.5Q229.1 84.2 226.9 86.5L226.9 86.5L223.9 89.8L229.6 89.8ZM231 82.4L231 81.8Q231 80.8 231.7 80.1Q232.3 79.5 233.3 79.5L233.3 79.5Q234.4 79.5 235.0 80.1Q235.7 80.8 235.7 81.9L235.7 81.9L235.7 82.4Q235.7 83.4 235.0 84.1Q234.4 84.8 233.3 84.8L233.3 84.8Q232.3 84.8 231.7 84.1Q231 83.4 231 82.4L231 82.4ZM232.1 81.8L232.1 82.4Q232.1 83.0 232.4 83.4Q232.8 83.8 233.3 83.8L233.3 83.8Q233.9 83.8 234.2 83.4Q234.6 83.0 234.6 82.4L234.6 82.4L234.6 81.8Q234.6 81.2 234.2 80.8Q233.9 80.4 233.3 80.4Q232.8 80.4 232.4 80.8Q232.1 81.2 232.1 81.8L232.1 81.8ZM236.5 88.8L236.5 88.2Q236.5 87.2 237.2 86.5Q237.8 85.9 238.9 85.9Q239.9 85.9 240.5 86.5Q241.2 87.2 241.2 88.3L241.2 88.3L241.2 88.8Q241.2 89.8 240.6 90.5Q239.9 91.2 238.9 91.2Q237.9 91.2 237.2 90.5Q236.5 89.9 236.5 88.8L236.5 88.8ZM237.6 88.2L237.6 88.8Q237.6 89.4 238.0 89.8Q238.3 90.2 238.9 90.2L238.9 90.2Q239.4 90.2 239.8 89.8Q240.1 89.5 240.1 88.8L240.1 88.8L240.1 88.2Q240.1 87.6 239.8 87.2Q239.4 86.8 238.9 86.8L238.9 86.8Q238.3 86.8 238.0 87.2Q237.6 87.6 237.6 88.2L237.6 88.2ZM239.2 81.3L233.7 90.1L232.9 89.6L238.4 80.7L239.2 81.3Z "/></g><mask id="satori_om-id-1-7"><rect x="252" y="76" width="109" height="19" fill="#fff"/></mask><mask id="satori_om-id-1-7-0"><rect x="252" y="78" width="16" height="16" fill="#fff"/></mask><mask id="satori_om-id-1-7-0-0"><rect x="256" y="82" width="8" height="8" fill="#fff"/></mask><path x="256" y="82" width="8" height="8" fill="#701516" d="M260,82 h0 a4,4 0 0 1 4,4 v0 a4,4 0 0 1 -4,4 h0 a4,4 0 0 1 -4,-4 v0 a4,4 0 0 1 4,-4"/><mask id="satori_om-id-1-7-1"><rect x="281" y="76" width="37" height="19" fill="#fff"/></mask><g  ><path fill="#24292f" d="M288.4 91L286.2 86.8L284.4 86.8L284.4 91L282.0 91L282.0 79.6L286.2 79.6Q288.3 79.6 289.4 80.5Q290.4 81.4 290.4 83.1L290.4 83.1Q290.4 84.2 289.9 85.0Q289.4 85.8 288.4 86.2L288.4 86.2L290.9 90.9L290.9 91L288.4 91ZM284.4 81.5L284.4 84.9L286.3 84.9Q287.1 84.9 287.6 84.5Q288.1 84.0 288.1 83.3L288.1 83.3Q288.1 82.4 287.6 82.0Q287.2 81.5 286.2 81.5L286.2 81.5L284.4 81.5ZM297.2 91L297.1 90.1Q296.3 91.2 294.8 91.2L294.8 91.2Q293.5 91.2 292.8 90.4Q292.0 89.6 292.0 88.1L292.0 88.1L292.0 82.5L294.3 82.5L294.3 88.0Q294.3 89.3 295.5 89.3L295.5 89.3Q296.6 89.3 297.1 88.5L297.1 88.5L297.1 82.5L299.3 82.5L299.3 91L297.2 91ZM308.6 86.7L308.6 86.9Q308.6 88.9 307.8 90.0Q306.9 91.2 305.4 91.2L305.4 91.2Q304.0 91.2 303.2 90.1L303.2 90.1L303.1 91L301.0 91L301.0 79L303.3 79L303.3 83.3Q304.1 82.4 305.3 82.4L305.3 82.4Q306.9 82.4 307.8 83.5Q308.6 84.7 308.6 86.7L308.6 86.7ZM306.4 86.7L306.4 86.7Q306.4 85.4 306.0 84.8Q305.6 84.2 304.8 84.2L304.8 84.2Q303.7 84.2 303.3 85.1L303.3 85.1L303.3 88.4Q303.7 89.3 304.8 89.3L304.8 89.3Q305.9 89.3 306.2 88.3L306.2 88.3Q306.4 87.7 306.4 86.7ZM311.5 82.5L313.1 87.8L314.7 82.5L317.1 82.5L313.7 92.3L313.5 92.8Q312.8 94.4 311.0 94.4L311.0 94.4Q310.5 94.4 310.0 94.3L310.0 94.3L310.0 92.6L310.4 92.6Q311.0 92.6 311.3 92.4Q311.6 92.2 311.8 91.7L311.8 91.7L312.1 91.0L309.1 82.5L311.5 82.5Z "/></g><mask id="satori_om-id-1-7-2"><rect x="327" y="76" width="34" height="19" fill="#fff"/></mask><g  ><path fill="#57606a" d="M334.0 79.6L334.0 87.2L335.6 87.2L335.6 88.4L334.0 88.4L334.0 91L332.6 91L332.6 88.4L327.4 88.4L327.4 87.5L332.5 79.6L334.0 79.6ZM332.4 81.9L329.1 87.2L332.6 87.2L332.6 81.6L332.4 81.9ZM337.1 90.2L337.1 90.2Q337.1 89.9 337.3 89.6Q337.6 89.4 338 89.4Q338.4 89.4 338.7 89.6Q338.9 89.9 338.9 90.2L338.9 90.2Q338.9 90.6 338.7 90.8Q338.4 91.1 338 91.1Q337.6 91.1 337.3 90.8Q337.1 90.6 337.1 90.2ZM345.9 79.6L345.9 91L344.4 91L344.4 81.4L341.5 82.4L341.5 81.1L345.7 79.6L345.9 79.6ZM350 82.4L350 81.8Q350 80.8 350.7 80.1Q351.3 79.5 352.3 79.5L352.3 79.5Q353.4 79.5 354.0 80.1Q354.7 80.8 354.7 81.9L354.7 81.9L354.7 82.4Q354.7 83.4 354.0 84.1Q353.4 84.8 352.3 84.8L352.3 84.8Q351.3 84.8 350.7 84.1Q350 83.4 350 82.4L350 82.4ZM351.1 81.8L351.1 82.4Q351.1 83.0 351.4 83.4Q351.8 83.8 352.3 83.8L352.3 83.8Q352.9 83.8 353.2 83.4Q353.6 83.0 353.6 82.4L353.6 82.4L353.6 81.8Q353.6 81.2 353.2 80.8Q352.9 80.4 352.3 80.4Q351.8 80.4 351.4 80.8Q351.1 81.2 351.1 81.8L351.1 81.8ZM355.5 88.8L355.5 88.2Q355.5 87.2 356.2 86.5Q356.8 85.9 357.9 85.9Q358.9 85.9 359.5 86.5Q360.2 87.2 360.2 88.3L360.2 88.3L360.2 88.8Q360.2 89.8 359.6 90.5Q358.9 91.2 357.9 91.2Q356.9 91.2 356.2 90.5Q355.5 89.9 355.5 88.8L355.5 88.8ZM356.6 88.2L356.6 88.8Q356.6 89.4 357.0 89.8Q357.3 90.2 357.9 90.2L357.9 90.2Q358.4 90.2 358.8 89.8Q359.1 89.5 359.1 88.8L359.1 88.8L359.1 88.2Q359.1 87.6 358.8 87.2Q358.4 86.8 357.9 86.8L357.9 86.8Q357.3 86.8 357.0 87.2Q356.6 87.6 356.6 88.2L356.6 88.2ZM358.2 81.3L352.7 90.1L351.9 89.6L357.4 80.7L358.2 81.3Z "/></g><mask id="satori_om-id-1-8"><rect x="0" y="105" width="83" height="19" fill="#fff"/></mask><mask id="satori_om-id-1-8-0"><rect x="0" y="107" width="16" height="16" fill="#fff"/></mask><mask id="satori_om-id-1-8-0-0"><rect x="4" y="111" width="8" height="8" fill="#fff"/></mask><path x="4" y="111" width="8" height="8" fill="#555555" d="M8,111 h0 a4,4 0 0 1 4,4 v0 a4,4 0 0 1 -4,4 h0 a4,4 0 0 1 -4,-4 v0 a4,4 0 0 1 4,-4"/><mask id="satori_om-id-1-8-1"><rect x="29" y="105" width="11" height="19" fill="#fff"/></mask><g  ><path fill="#24292f" d="M36.6 116.2L38.9 116.2Q38.8 118.0 37.6 119.1Q36.4 120.2 34.4 120.2L34.4 120.2Q32.2 120.2 30.9 118.7Q29.7 117.2 29.7 114.6L29.7 114.6L29.7 113.9Q29.7 112.3 30.3 111.1Q30.8 109.8 31.9 109.1Q33.0 108.5 34.4 108.5L34.4 108.5Q36.4 108.5 37.6 109.5Q38.8 110.6 39.0 112.5L39.0 112.5L36.6 112.5Q36.5 111.4 36.0 110.9Q35.5 110.4 34.4 110.4L34.4 110.4Q33.2 110.4 32.6 111.2Q32.1 112.1 32.0 113.8L32.0 113.8L32.0 114.7Q32.0 116.5 32.6 117.4Q33.2 118.2 34.4 118.2L34.4 118.2Q35.5 118.2 36.0 117.7Q36.5 117.3 36.6 116.2L36.6 116.2Z "/></g><mask id="satori_om-id-1-8-2"><rect x="49" y="105" width="34" height="19" fill="#fff"/></mask><g  ><path fill="#57606a" d="M57.4 118.8L57.4 120L49.9 120L49.9 119.0L53.9 114.6Q54.8 113.6 55.1 113.0Q55.4 112.4 55.4 111.7L55.4 111.7Q55.4 110.8 54.9 110.2Q54.3 109.7 53.4 109.7L53.4 109.7Q52.4 109.7 51.8 110.3Q51.2 110.9 51.2 112.0L51.2 112.0L49.7 112.0Q49.7 110.4 50.7 109.4Q51.8 108.5 53.4 108.5L53.4 108.5Q55.0 108.5 56.0 109.3Q56.9 110.1 56.9 111.5L56.9 111.5Q56.9 113.2 54.7 115.5L54.7 115.5L51.7 118.8L57.4 118.8ZM59.1 119.2L59.1 119.2Q59.1 118.9 59.3 118.6Q59.6 118.4 60 118.4Q60.4 118.4 60.7 118.6Q60.9 118.9 60.9 119.2L60.9 119.2Q60.9 119.6 60.7 119.8Q60.4 120.1 60 120.1Q59.6 120.1 59.3 119.8Q59.1 119.6 59.1 119.2ZM70.5 108.6L70.5 109.4L65.8 120L64.3 120L69.0 109.8L62.8 109.8L62.8 108.6L70.5 108.6ZM72 111.4L72 110.8Q72 109.8 72.7 109.1Q73.3 108.5 74.3 108.5L74.3 108.5Q75.4 108.5 76.0 109.1Q76.7 109.8 76.7 110.9L76.7 110.9L76.7 111.4Q76.7 112.4 76.0 113.1Q75.4 113.8 74.3 113.8L74.3 113.8Q73.3 113.8 72.7 113.1Q72 112.4 72 111.4L72 111.4ZM73.1 110.8L73.1 111.4Q73.1 112.0 73.4 112.4Q73.8 112.8 74.3 112.8L74.3 112.8Q74.9 112.8 75.2 112.4Q75.6 112.0 75.6 111.4L75.6 111.4L75.6 110.8Q75.6 110.2 75.2 109.8Q74.9 109.4 74.3 109.4Q73.8 109.4 73.4 109.8Q73.1 110.2 73.1 110.8L73.1 110.8ZM77.5 117.8L77.5 117.2Q77.5 116.2 78.2 115.5Q78.8 114.9 79.9 114.9Q80.9 114.9 81.5 115.5Q82.2 116.2 82.2 117.3L82.2 117.3L82.2 117.8Q82.2 118.8 81.6 119.5Q80.9 120.2 79.9 120.2Q78.9 120.2 78.2 119.5Q77.5 118.9 77.5 117.8L77.5 117.8ZM78.6 117.2L78.6 117.8Q78.6 118.4 79.0 118.8Q79.3 119.2 79.9 119.2L79.9 119.2Q80.4 119.2 80.8 118.8Q81.1 118.5 81.1 117.8L81.1 117.8L81.1 117.2Q81.1 116.6 80.8 116.2Q80.4 115.8 79.9 115.8L79.9 115.8Q79.3 115.8 79.0 116.2Q78.6 116.6 78.6 117.2L78.6 117.2ZM80.2 110.3L74.7 119.1L73.9 118.6L79.4 109.7L80.2 110.3Z "/></g><mask id="satori_om-id-1-9"><rect x="93" y="105" width="149" height="19" fill="#fff"/></mask><mask id="satori_om-id-1-9-0"><rect x="93" y="107" width="16" height="16" fill="#fff"/></mask><mask id="satori_om-id-1-9-0-0"><rect x="97" y="111" width="8" height="8" fill="#fff"/></mask><path x="97" y="111" width="8" height="8" fill="#f1e05a" d="M101,111 h0 a4,4 0 0 1 4,4 v0 a4,4 0 0 1 -4,4 h0 a4,4 0 0 1 -4,-4 v0 a4,4 0 0 1 4,-4"/><mask id="satori_om-id-1-9-1"><rect x="122" y="105" width="77" height="19" fill="#fff"/></mask><g  ><path fill="#24292f" d="M127.6 116.5L127.6 108.6L129.9 108.6L129.9 116.5Q129.9 117.6 129.5 118.4Q129.0 119.3 128.1 119.7Q127.2 120.2 126.1 120.2L126.1 120.2Q124.3 120.2 123.3 119.2Q122.3 118.3 122.3 116.6L122.3 116.6L124.7 116.6Q124.7 117.5 125.0 117.9Q125.4 118.3 126.1 118.3L126.1 118.3Q126.8 118.3 127.2 117.8Q127.6 117.4 127.6 116.5L127.6 116.5ZM139.0 120L136.7 120Q136.5 119.7 136.5 119.2L136.5 119.2Q135.7 120.2 134.3 120.2L134.3 120.2Q133.1 120.2 132.3 119.4Q131.5 118.7 131.5 117.6L131.5 117.6Q131.5 116.3 132.5 115.6Q133.5 114.8 135.3 114.8L135.3 114.8L136.4 114.8L136.4 114.4Q136.4 113.8 136.1 113.4Q135.8 113.1 135.1 113.1L135.1 113.1Q134.6 113.1 134.2 113.3Q133.9 113.6 133.9 114.1L133.9 114.1L131.7 114.1Q131.7 113.4 132.1 112.7Q132.6 112.1 133.4 111.7Q134.2 111.4 135.3 111.4L135.3 111.4Q136.8 111.4 137.7 112.2Q138.6 113.0 138.6 114.4L138.6 114.4L138.6 118.0Q138.7 119.3 139.0 119.9L139.0 119.9L139.0 120ZM134.8 118.4L134.8 118.4Q135.3 118.4 135.8 118.2Q136.2 118.0 136.4 117.6L136.4 117.6L136.4 116.2L135.5 116.2Q133.8 116.2 133.7 117.3L133.7 117.3L133.7 117.5Q133.7 117.9 134.0 118.2Q134.3 118.4 134.8 118.4ZM141.9 111.5L143.4 117.2L145 111.5L147.4 111.5L144.5 120L142.4 120L139.5 111.5L141.9 111.5ZM155.4 120L153.1 120Q153.0 119.7 152.9 119.2L152.9 119.2Q152.1 120.2 150.8 120.2L150.8 120.2Q149.5 120.2 148.7 119.4Q147.9 118.7 147.9 117.6L147.9 117.6Q147.9 116.3 148.9 115.6Q149.9 114.8 151.8 114.8L151.8 114.8L152.8 114.8L152.8 114.4Q152.8 113.8 152.5 113.4Q152.2 113.1 151.6 113.1L151.6 113.1Q151.0 113.1 150.7 113.3Q150.3 113.6 150.3 114.1L150.3 114.1L148.1 114.1Q148.1 113.4 148.5 112.7Q149.0 112.1 149.8 111.7Q150.6 111.4 151.7 111.4L151.7 111.4Q153.2 111.4 154.2 112.2Q155.1 113.0 155.1 114.4L155.1 114.4L155.1 118.0Q155.1 119.3 155.4 119.9L155.4 119.9L155.4 120ZM151.3 118.4L151.3 118.4Q151.8 118.4 152.2 118.2Q152.6 118.0 152.8 117.6L152.8 117.6L152.8 116.2L152.0 116.2Q150.3 116.2 150.2 117.3L150.2 117.3L150.2 117.5Q150.2 117.9 150.5 118.2Q150.8 118.4 151.3 118.4ZM162.9 117.0L162.9 117.0Q162.9 116.4 162.4 116.0Q161.9 115.6 160.7 115.2Q159.5 114.9 158.8 114.5L158.8 114.5Q156.8 113.4 156.8 111.6L156.8 111.6Q156.8 110.7 157.4 110.0Q157.9 109.3 158.8 108.9Q159.8 108.5 161.0 108.5L161.0 108.5Q162.3 108.5 163.2 108.9Q164.2 109.4 164.7 110.2Q165.2 111.0 165.2 112.0L165.2 112.0L162.9 112.0Q162.9 111.2 162.4 110.8Q161.9 110.3 161.0 110.3L161.0 110.3Q160.1 110.3 159.7 110.7Q159.2 111.1 159.2 111.7L159.2 111.7Q159.2 112.2 159.7 112.6Q160.3 113.0 161.4 113.3L161.4 113.3Q163.4 113.9 164.3 114.8Q165.2 115.7 165.2 117L165.2 117Q165.2 118.5 164.1 119.3Q163.0 120.2 161.1 120.2L161.1 120.2Q159.8 120.2 158.7 119.7Q157.6 119.2 157.1 118.4Q156.5 117.5 156.5 116.4L156.5 116.4L158.8 116.4Q158.8 118.3 161.1 118.3L161.1 118.3Q161.9 118.3 162.4 118.0Q162.9 117.6 162.9 117.0ZM170.2 118.3L170.2 118.3Q170.8 118.3 171.2 118.0Q171.6 117.6 171.6 117.1L171.6 117.1L173.7 117.1Q173.7 117.9 173.2 118.7Q172.8 119.4 172.0 119.8Q171.2 120.2 170.2 120.2L170.2 120.2Q168.4 120.2 167.3 119.0Q166.3 117.9 166.3 115.8L166.3 115.8L166.3 115.7Q166.3 113.7 167.3 112.6Q168.4 111.4 170.2 111.4L170.2 111.4Q171.8 111.4 172.7 112.3Q173.7 113.2 173.7 114.7L173.7 114.7L171.6 114.7Q171.6 114.0 171.2 113.6Q170.8 113.2 170.1 113.2L170.1 113.2Q169.4 113.2 169.0 113.8Q168.6 114.4 168.6 115.7L168.6 115.7L168.6 115.9Q168.6 117.2 169.0 117.8Q169.4 118.3 170.2 118.3ZM179.8 111.5L179.7 113.7Q179.3 113.6 178.9 113.6L178.9 113.6Q177.6 113.6 177.3 114.5L177.3 114.5L177.3 120L175.0 120L175.0 111.5L177.1 111.5L177.2 112.6Q177.9 111.4 179.1 111.4L179.1 111.4Q179.4 111.4 179.8 111.5L179.8 111.5ZM183.2 111.5L183.2 120L180.9 120L180.9 111.5L183.2 111.5ZM180.8 109.4L180.8 109.4Q180.8 108.9 181.2 108.5Q181.5 108.2 182.1 108.2L182.1 108.2Q182.7 108.2 183 108.5Q183.3 108.9 183.3 109.4L183.3 109.4Q183.3 109.9 183.0 110.2Q182.6 110.5 182.1 110.5Q181.5 110.5 181.2 110.2Q180.8 109.9 180.8 109.4ZM192.7 115.7L192.7 115.9Q192.7 117.8 191.8 119.0Q190.9 120.2 189.4 120.2L189.4 120.2Q188.1 120.2 187.3 119.3L187.3 119.3L187.3 123.3L185.1 123.3L185.1 111.5L187.2 111.5L187.2 112.4Q188.1 111.4 189.4 111.4L189.4 111.4Q190.9 111.4 191.8 112.5Q192.7 113.7 192.7 115.7L192.7 115.7ZM190.4 115.7L190.4 115.7Q190.4 114.5 190.0 113.9Q189.6 113.2 188.8 113.2L188.8 113.2Q187.7 113.2 187.3 114.0L187.3 114.0L187.3 117.5Q187.7 118.3 188.8 118.3L188.8 118.3Q190.4 118.3 190.4 115.7ZM194.5 109.5L196.8 109.5L196.8 111.5L198.2 111.5L198.2 113.2L196.8 113.2L196.8 117.4Q196.8 117.9 197.0 118.1Q197.1 118.3 197.6 118.3L197.6 118.3Q198.0 118.3 198.3 118.2L198.3 118.2L198.3 120.0Q197.6 120.2 196.9 120.2L196.9 120.2Q194.6 120.2 194.5 117.8L194.5 117.8L194.5 113.2L193.3 113.2L193.3 111.5L194.5 111.5L194.5 109.5Z "/></g><mask id="satori_om-id-1-9-2"><rect x="208" y="105" width="34" height="19" fill="#fff"/></mask><g  ><path fill="#57606a" d="M216.4 118.8L216.4 120L208.9 120L208.9 119.0L212.9 114.6Q213.8 113.6 214.1 113.0Q214.4 112.4 214.4 111.7L214.4 111.7Q214.4 110.8 213.9 110.2Q213.3 109.7 212.4 109.7L212.4 109.7Q211.4 109.7 210.8 110.3Q210.2 110.9 210.2 112.0L210.2 112.0L208.7 112.0Q208.7 110.4 209.7 109.4Q210.8 108.5 212.4 108.5L212.4 108.5Q214.0 108.5 215.0 109.3Q215.9 110.1 215.9 111.5L215.9 111.5Q215.9 113.2 213.7 115.5L213.7 115.5L210.7 118.8L216.4 118.8ZM218.1 119.2L218.1 119.2Q218.1 118.9 218.3 118.6Q218.6 118.4 219 118.4Q219.4 118.4 219.7 118.6Q219.9 118.9 219.9 119.2L219.9 119.2Q219.9 119.6 219.7 119.8Q219.4 120.1 219 120.1Q218.6 120.1 218.3 119.8Q218.1 119.6 218.1 119.2ZM227.6 108.6L227.8 108.6L227.8 109.8L227.5 109.8Q225.9 109.9 224.9 110.8Q223.9 111.8 223.7 113.6L223.7 113.6Q224.6 112.5 226.2 112.5L226.2 112.5Q227.6 112.5 228.5 113.6Q229.4 114.6 229.4 116.3L229.4 116.3Q229.4 118.0 228.5 119.1Q227.5 120.2 225.9 120.2L225.9 120.2Q224.3 120.2 223.2 118.9Q222.2 117.6 222.2 115.7L222.2 115.7L222.2 115.1Q222.2 112.0 223.6 110.3Q224.9 108.7 227.6 108.6L227.6 108.6ZM225.9 113.7L225.9 113.7Q225.2 113.7 224.5 114.2Q223.9 114.6 223.7 115.3L223.7 115.3L223.7 115.8Q223.7 117.2 224.3 118.1Q224.9 119.0 225.9 119.0L225.9 119.0Q226.9 119.0 227.4 118.2Q228.0 117.5 228.0 116.4L228.0 116.4Q228.0 115.2 227.4 114.5Q226.9 113.7 225.9 113.7ZM231 111.4L231 110.8Q231 109.8 231.7 109.1Q232.3 108.5 233.3 108.5L233.3 108.5Q234.4 108.5 235.0 109.1Q235.7 109.8 235.7 110.9L235.7 110.9L235.7 111.4Q235.7 112.4 235.0 113.1Q234.4 113.8 233.3 113.8L233.3 113.8Q232.3 113.8 231.7 113.1Q231 112.4 231 111.4L231 111.4ZM232.1 110.8L232.1 111.4Q232.1 112.0 232.4 112.4Q232.8 112.8 233.3 112.8L233.3 112.8Q233.9 112.8 234.2 112.4Q234.6 112.0 234.6 111.4L234.6 111.4L234.6 110.8Q234.6 110.2 234.2 109.8Q233.9 109.4 233.3 109.4Q232.8 109.4 232.4 109.8Q232.1 110.2 232.1 110.8L232.1 110.8ZM236.5 117.8L236.5 117.2Q236.5 116.2 237.2 115.5Q237.8 114.9 238.9 114.9Q239.9 114.9 240.5 115.5Q241.2 116.2 241.2 117.3L241.2 117.3L241.2 117.8Q241.2 118.8 240.6 119.5Q239.9 120.2 238.9 120.2Q237.9 120.2 237.2 119.5Q236.5 118.9 236.5 117.8L236.5 117.8ZM237.6 117.2L237.6 117.8Q237.6 118.4 238.0 118.8Q238.3 119.2 238.9 119.2L238.9 119.2Q239.4 119.2 239.8 118.8Q240.1 118.5 240.1 117.8L240.1 117.8L240.1 117.2Q240.1 116.6 239.8 116.2Q239.4 115.8 238.9 115.8L238.9 115.8Q238.3 115.8 238.0 116.2Q237.6 116.6 237.6 117.2L237.6 117.2ZM239.2 110.3L233.7 119.1L232.9 118.6L238.4 109.7L239.2 110.3Z "/></g></svg>