<svg width="375" height="200" viewBox="0 0 375 200" xmlns="http://www.w3.org/2000/svg"><mask id="satori_om-id"><rect x="0" y="0" width="375" height="123" fill="#fff"/></mask><clipPath id="satori_cp-id-0"><path x="0" y="0" width="375" height="8" d="M4,0 h367 a4,4 0 0 1 4,4 v0 a4,4 0 0 1 -4,4 h-367 a4,4 0 0 1 -4,-4 v0 a4,4 0 0 1 4,-4"/></clipPath><mask id="satori_om-id-0"><rect x="0" y="0" width="375" height="8" fill="#fff"/></mask><mask id="satori_om-id-0-0"><rect x="0" y="0" width="179" height="8" fill="#fff" mask="url(#satori_om-id-0)"/></mask><rect x="0" y="0" width="179" height="8" fill="#3178c6" clip-path="url(#satori_cp-id-0)" mask="url(#satori_om-id-0)"/><mask id="satori_om-id-0-1"><rect x="179" y="0" width="45" height="8" fill="#fff" mask="url(#satori_om-id-0)"/></mask><rect x="179" y="0" width="45" height="8" fill="#844FBA" clip-path="url(#satori_cp-id-0)" mask="url(#satori_om-id-0)"/><mask id="satori_om-id-0-2"><rect x="224" y="0" width="39" height="8" fill="#fff" mask="url(#satori_om-id-0)"/></mask><rect x="224" y="0" width="39" height="8" fill="#DA5B0B" clip-path="url(#satori_cp-id-0)" mask="url(#satori_om-id-0)"/><mask id="satori_om-id-0-3"><rect x="263" y="0" width="27" height="8" fill="#fff" mask="url(#satori_om-id-0)"/></mask><rect x="263" y="0" width="27" height="8" fill="#3572A5" clip-path="url(#satori_cp-id-0)" mask="url(#satori_om-id-0)"/><mask id="satori_om-id-0-4"><rect x="290" y="0" width="19" height="8" fill="#fff" mask="url(#satori_om-id-0)"/></mask><rect x="290" y="0" width="19" height="8" fill="#ff3e00" clip-path="url(#satori_cp-id-0)" mask="url(#satori_om-id-0)"/><mask id="satori_om-id-0-5"><rect x="309" y="0" width="15" height="8" fill="#fff" mask="url(#satori_om-id-0)"/></mask><rect x="309" y="0" width="15" height="8" fill="#e34c26" clip-path="url(#satori_cp-id-0)" mask="url(#satori_om-id-0)"/><mask id="satori_om-id-0-6"><rect x="324" y="0" width="13" height="8" fill="#fff" mask="url(#satori_om-id-0)"/></mask><rect x="324" y="0" width="13" height="8" fill="#00ADD8" clip-path="url(#satori_cp-id-0)" mask="url(#satori_om-id-0)"/><mask id="satori_om-id-0-7"><rect x="337" y="0" width="13" height="8" fill="#fff" mask="url(#satori_om-id-0)"/></mask><rect x="337" y="0" width="13" height="8" fill="#f1e05a" clip-path="url(#satori_cp-id-0)" mask="url(#satori_om-id-0)"/><mask id="satori_om-id-0-8"><rect x="350" y="0" width="13" height="8" fill="#fff" mask="url(#satori_om-id-0)"/></mask><rect x="350" y="0" width="13" height="8" fill="#555555" clip-path="url(#satori_cp-id-0)" mask="url(#satori_om-id-0)"/><mask id="satori_om-id-0-9"><rect x="363" y="0" width="6" height="8" fill="#fff" mask="url(#satori_om-id-0)"/></mask><rect x="363" y="0" width="6" height="8" fill="#ff5a03" clip-path="url(#satori_cp-id-0)" mask="url(#satori_om-id-0)"/><mask id="satori_om-id-1"><rect x="0" y="18" width="375" height="105" fill="#fff"/></mask><mask id="satori_om-id-1-0"><rect x="0" y="18" width="160" height="19" fill="#fff"/></mask><mask id="satori_om-id-1-0-0"><rect x="0" y="19" width="16" height="16" fill="#fff"/></mask><mask id="satori_om-id-1-0-0-0"><rect x="4" y="23" width="8" height="8" fill="#fff"/></mask><path x="4" y="23" width="8" height="8" fill="#3178c6" d="M8,23 h0 a4,4 0 0 1 4,4 v0 a4,4 0 0 1 -4,4 h0 a4,4 0 0 1 -4,-4 v0 a4,4 0 0 1 4,-4"/><mask id="satori_om-id-1-0-1"><rect x="29" y="18" width="79" height="19" fill="#fff"/></mask><path fill="#24292f" d="M38.6 22.1L38.6 24.0L35.1 24.0L35.1 33.5L32.8 33.5L32.8 24.0L29.3 24.0L29.3 22.1L38.6 22.1ZM40.7 25.0L42.3 30.3L43.8 25.0L46.3 25.0L42.9 34.8L42.7 35.2Q41.9 36.9 40.2 36.9L40.2 36.9Q39.7 36.9 39.2 36.7L39.2 36.7L39.2 35.0L39.5 35.0Q40.2 35.0 40.5 34.9Q40.8 34.7 41.0 34.2L41.0 34.2L41.2 33.5L38.3 25.0L40.7 25.0ZM54.8 29.2L54.8 29.3Q54.8 31.3 53.9 32.5Q53.0 33.6 51.5 33.6L51.5 33.6Q50.2 33.6 49.4 32.7L49.4 32.7L49.4 36.7L47.2 36.7L47.2 25.0L49.3 25.0L49.3 25.9Q50.1 24.9 51.5 24.9L51.5 24.9Q53.0 24.9 53.9 26.0Q54.8 27.2 54.8 29.2L54.8 29.2ZM52.5 29.2L52.5 29.2Q52.5 28.0 52.1 27.4Q51.7 26.7 50.9 26.7L50.9 26.7Q49.8 26.7 49.4 27.5L49.4 27.5L49.4 31.0Q49.8 31.8 50.9 31.8L50.9 31.8Q52.5 31.8 52.5 29.2ZM60.1 33.6L60.1 33.6Q58.2 33.6 57.0 32.5Q55.9 31.4 55.9 29.5L55.9 29.5L55.9 29.2Q55.9 28.0 56.4 27.0Q56.8 26.0 57.7 25.4Q58.6 24.9 59.8 24.9L59.8 24.9Q61.5 24.9 62.5 26.0Q63.5 27.1 63.5 29.1L63.5 29.1L63.5 30.0L58.1 30.0Q58.3 30.8 58.8 31.3Q59.4 31.8 60.2 31.8L60.2 31.8Q61.5 31.8 62.2 30.9L62.2 30.9L63.4 32.1Q62.8 32.8 62.0 33.2Q61.1 33.6 60.1 33.6ZM59.8 26.7L59.8 26.7Q59.1 26.7 58.7 27.2Q58.3 27.6 58.2 28.5L58.2 28.5L61.3 28.5L61.3 28.3Q61.3 27.5 60.9 27.1Q60.5 26.7 59.8 26.7ZM70.9 30.5L70.9 30.5Q70.9 29.8 70.4 29.5Q69.9 29.1 68.7 28.7Q67.5 28.3 66.8 28.0L66.8 28.0Q64.8 26.9 64.8 25.1L64.8 25.1Q64.8 24.2 65.4 23.5Q65.9 22.8 66.8 22.4Q67.8 22.0 69.0 22.0L69.0 22.0Q70.3 22.0 71.2 22.4Q72.2 22.8 72.7 23.6Q73.2 24.4 73.2 25.5L73.2 25.5L70.9 25.5Q70.9 24.7 70.4 24.3Q69.9 23.8 69.0 23.8L69.0 23.8Q68.1 23.8 67.7 24.2Q67.2 24.5 67.2 25.1L67.2 25.1Q67.2 25.7 67.7 26.1Q68.3 26.4 69.4 26.8L69.4 26.8Q71.4 27.4 72.3 28.3Q73.2 29.2 73.2 30.5L73.2 30.5Q73.2 32.0 72.1 32.8Q71.0 33.6 69.1 33.6L69.1 33.6Q67.8 33.6 66.7 33.2Q65.6 32.7 65.1 31.8Q64.5 31.0 64.5 29.9L64.5 29.9L66.8 29.9Q66.8 31.8 69.1 31.8L69.1 31.8Q69.9 31.8 70.4 31.4Q70.9 31.1 70.9 30.5ZM78.2 31.8L78.2 31.8Q78.8 31.8 79.2 31.5Q79.6 31.1 79.6 30.6L79.6 30.6L81.7 30.6Q81.7 31.4 81.2 32.1Q80.8 32.9 80.0 33.2Q79.2 33.6 78.2 33.6L78.2 33.6Q76.4 33.6 75.3 32.5Q74.3 31.3 74.3 29.3L74.3 29.3L74.3 29.2Q74.3 27.2 75.3 26.0Q76.4 24.9 78.2 24.9L78.2 24.9Q79.8 24.9 80.7 25.8Q81.7 26.7 81.7 28.2L81.7 28.2L79.6 28.2Q79.6 27.5 79.2 27.1Q78.8 26.7 78.1 26.7L78.1 26.7Q77.4 26.7 77.0 27.3Q76.6 27.9 76.6 29.1L76.6 29.1L76.6 29.4Q76.6 30.7 77.0 31.2Q77.4 31.8 78.2 31.8ZM87.8 25.0L87.7 27.1Q87.3 27.1 86.9 27.1L86.9 27.1Q85.6 27.1 85.3 28.0L85.3 28.0L85.3 33.5L83.0 33.5L83.0 25.0L85.1 25.0L85.2 26.0Q85.9 24.9 87.1 24.9L87.1 24.9Q87.4 24.9 87.8 25.0L87.8 25.0ZM91.2 25.0L91.2 33.5L88.9 33.5L88.9 25.0L91.2 25.0ZM88.8 22.8L88.8 22.8Q88.8 22.3 89.2 22.0Q89.5 21.7 90.1 21.7L90.1 21.7Q90.7 21.7 91 22.0Q91.3 22.3 91.3 22.8L91.3 22.8Q91.3 23.4 91.0 23.7Q90.6 24.0 90.1 24.0Q89.5 24.0 89.2 23.7Q88.8 23.4 88.8 22.8ZM100.7 29.2L100.7 29.3Q100.7 31.3 99.8 32.5Q98.9 33.6 97.4 33.6L97.4 33.6Q96.1 33.6 95.3 32.7L95.3 32.7L95.3 36.7L93.1 36.7L93.1 25.0L95.2 25.0L95.2 25.9Q96.1 24.9 97.4 24.9L97.4 24.9Q98.9 24.9 99.8 26.0Q100.7 27.2 100.7 29.2L100.7 29.2ZM98.4 29.2L98.4 29.2Q98.4 28.0 98.0 27.4Q97.6 26.7 96.8 26.7L96.8 26.7Q95.7 26.7 95.3 27.5L95.3 27.5L95.3 31.0Q95.7 31.8 96.8 31.8L96.8 31.8Q98.4 31.8 98.4 29.2ZM102.5 23.0L104.8 23.0L104.8 25.0L106.2 25.0L106.2 26.7L104.8 26.7L104.8 30.9Q104.8 31.4 105.0 31.6Q105.1 31.8 105.6 31.8L105.6 31.8Q106.0 31.8 106.3 31.7L106.3 31.7L106.3 33.4Q105.6 33.6 104.9 33.6L104.9 33.6Q102.6 33.6 102.5 31.2L102.5 31.2L102.5 26.7L101.3 26.7L101.3 25.0L102.5 25.0L102.5 23.0Z "/><mask id="satori_om-id-1-0-2"><rect x="117" y="18" width="43" height="19" fill="#fff"/></mask><path fill="#57606a" d="M124.0 22.1L124.0 29.7L125.6 29.7L125.6 30.8L124.0 30.8L124.0 33.5L122.6 33.5L122.6 30.8L117.4 30.8L117.4 30.0L122.5 22.1L124.0 22.1ZM122.4 24.4L119.1 29.7L122.6 29.7L122.6 24.1L122.4 24.4ZM134.3 22.1L134.3 22.9L129.6 33.5L128.0 33.5L132.7 23.3L126.6 23.3L126.6 22.1L134.3 22.1ZM136.1 32.7L136.1 32.7Q136.1 32.4 136.3 32.1Q136.5 31.9 137.0 31.9Q137.4 31.9 137.7 32.1Q137.9 32.4 137.9 32.7L137.9 32.7Q137.9 33.1 137.7 33.3Q137.4 33.6 137.0 33.6Q136.5 33.6 136.3 33.3Q136.1 33.1 136.1 32.7ZM147.0 25.1L147.0 25.1Q147.0 25.9 146.6 26.6Q146.1 27.3 145.4 27.6L145.4 27.6Q146.3 28.0 146.8 28.7Q147.3 29.5 147.3 30.4L147.3 30.4Q147.3 31.9 146.3 32.8Q145.3 33.6 143.7 33.6L143.7 33.6Q142.0 33.6 141.0 32.8Q140.1 31.9 140.1 30.4L140.1 30.4Q140.1 29.5 140.6 28.7Q141.1 28.0 142.0 27.6L142.0 27.6Q141.2 27.2 140.8 26.6Q140.3 25.9 140.3 25.1L140.3 25.1Q140.3 23.6 141.2 22.8Q142.2 22.0 143.7 22.0L143.7 22.0Q145.2 22.0 146.1 22.8Q147.0 23.6 147.0 25.1ZM145.8 30.4L145.8 30.4Q145.8 29.4 145.2 28.8Q144.6 28.2 143.7 28.2Q142.7 28.2 142.1 28.8Q141.5 29.4 141.5 30.4Q141.5 31.4 142.1 31.9Q142.6 32.5 143.7 32.5L143.7 32.5Q144.7 32.5 145.3 31.9Q145.8 31.3 145.8 30.4ZM143.7 23.1L143.7 23.1Q142.8 23.1 142.3 23.7Q141.8 24.2 141.8 25.1L141.8 25.1Q141.8 26.0 142.3 26.5Q142.8 27.0 143.7 27.0Q144.5 27.0 145.1 26.5Q145.6 26.0 145.6 25.1Q145.6 24.2 145.0 23.7Q144.5 23.1 143.7 23.1ZM149.0 24.8L149.0 24.3Q149.0 23.3 149.6 22.6Q150.3 21.9 151.3 21.9L151.3 21.9Q152.4 21.9 153.0 22.6Q153.6 23.3 153.6 24.3L153.6 24.3L153.6 24.9Q153.6 25.9 153.0 26.6Q152.3 27.2 151.3 27.2L151.3 27.2Q150.3 27.2 149.6 26.6Q149.0 25.9 149.0 24.8L149.0 24.8ZM150.1 24.3L150.1 24.9Q150.1 25.5 150.4 25.9Q150.8 26.3 151.3 26.3L151.3 26.3Q151.9 26.3 152.2 25.9Q152.6 25.5 152.6 24.9L152.6 24.9L152.6 24.3Q152.6 23.7 152.2 23.3Q151.9 22.9 151.3 22.9Q150.7 22.9 150.4 23.3Q150.1 23.7 150.1 24.3L150.1 24.3ZM154.5 31.3L154.5 30.7Q154.5 29.7 155.2 29.0Q155.8 28.4 156.9 28.4Q157.9 28.4 158.5 29.0Q159.2 29.7 159.2 30.7L159.2 30.7L159.2 31.3Q159.2 32.3 158.5 33.0Q157.9 33.6 156.9 33.6Q155.9 33.6 155.2 33.0Q154.5 32.3 154.5 31.3L154.5 31.3ZM155.6 30.7L155.6 31.3Q155.6 31.9 155.9 32.3Q156.3 32.7 156.9 32.7L156.9 32.7Q157.4 32.7 157.8 32.3Q158.1 31.9 158.1 31.3L158.1 31.3L158.1 30.7Q158.1 30.1 157.8 29.7Q157.4 29.3 156.9 29.3L156.9 29.3Q156.3 29.3 155.9 29.7Q155.6 30.1 155.6 30.7L155.6 30.7ZM157.2 23.7L151.7 32.6L150.8 32.1L156.4 23.2L157.2 23.7Z "/><mask id="satori_om-id-1-1"><rect x="170" y="18" width="112" height="19" fill="#fff"/></mask><mask id="satori_om-id-1-1-0"><rect x="170" y="19" width="16" height="16" fill="#fff"/></mask><mask id="satori_om-id-1-1-0-0"><rect x="174" y="23" width="8" height="8" fill="#fff"/></mask><path x="174" y="23" width="8" height="8" fill="#844FBA" d="M178,23 h0 a4,4 0 0 1 4,4 v0 a4,4 0 0 1 -4,4 h0 a4,4 0 0 1 -4,-4 v0 a4,4 0 0 1 4,-4"/><mask id="satori_om-id-1-1-1"><rect x="199" y="18" width="31" height="19" fill="#fff"/></mask><path fill="#24292f" d="M209.3 22.1L209.3 33.5L206.9 33.5L206.9 28.6L202.4 28.6L202.4 33.5L200.0 33.5L200.0 22.1L202.4 22.1L202.4 26.7L206.9 26.7L206.9 22.1L209.3 22.1ZM217.9 29.7L220.3 29.7Q220.1 31.5 218.9 32.6Q217.7 33.6 215.7 33.6L215.7 33.6Q213.5 33.6 212.2 32.2Q211.0 30.7 211.0 28.1L211.0 28.1L211.0 27.4Q211.0 25.8 211.6 24.5Q212.1 23.3 213.2 22.6Q214.3 22.0 215.7 22.0L215.7 22.0Q217.7 22.0 218.9 23.0Q220.1 24.1 220.3 26.0L220.3 26.0L217.9 26.0Q217.8 24.9 217.3 24.4Q216.8 23.9 215.7 23.9L215.7 23.9Q214.5 23.9 213.9 24.7Q213.4 25.6 213.4 27.3L213.4 27.3L213.4 28.2Q213.4 30.0 213.9 30.9Q214.5 31.7 215.7 31.7L215.7 31.7Q216.8 31.7 217.3 31.2Q217.8 30.7 217.9 29.7L217.9 29.7ZM224.1 22.1L224.1 31.6L229.1 31.6L229.1 33.5L221.8 33.5L221.8 22.1L224.1 22.1Z "/><mask id="satori_om-id-1-1-2"><rect x="239" y="18" width="43" height="19" fill="#fff"/></mask><path fill="#57606a" d="M244.7 22.1L244.7 33.5L243.2 33.5L243.2 23.9L240.3 24.9L240.3 23.6L244.5 22.1L244.7 22.1ZM256.4 32.3L256.4 33.5L248.9 33.5L248.9 32.4L252.9 28.1Q253.7 27.1 254.1 26.5Q254.4 25.8 254.4 25.2L254.4 25.2Q254.4 24.3 253.9 23.7Q253.3 23.1 252.4 23.1L252.4 23.1Q251.4 23.1 250.8 23.8Q250.2 24.4 250.2 25.5L250.2 25.5L248.7 25.5Q248.7 23.9 249.7 22.9Q250.7 22.0 252.4 22.0L252.4 22.0Q254.0 22.0 254.9 22.8Q255.9 23.6 255.9 25.0L255.9 25.0Q255.9 26.7 253.7 29.0L253.7 29.0L250.7 32.3L256.4 32.3ZM258.1 32.7L258.1 32.7Q258.1 32.4 258.3 32.1Q258.5 31.9 259.0 31.9Q259.4 31.9 259.7 32.1Q259.9 32.4 259.9 32.7L259.9 32.7Q259.9 33.1 259.7 33.3Q259.4 33.6 259.0 33.6Q258.5 33.6 258.3 33.3Q258.1 33.1 258.1 32.7ZM269.3 26.8L269.3 28.6Q269.3 31.2 268.4 32.4Q267.5 33.6 265.7 33.6L265.7 33.6Q263.9 33.6 263.0 32.4Q262.1 31.2 262.1 28.8L262.1 28.8L262.1 26.9Q262.1 24.4 262.9 23.2Q263.8 22.0 265.7 22.0L265.7 22.0Q267.5 22.0 268.4 23.1Q269.2 24.3 269.3 26.8L269.3 26.8ZM267.8 29.0L267.8 26.7Q267.8 24.8 267.3 24.0Q266.8 23.1 265.7 23.1L265.7 23.1Q264.6 23.1 264.0 24.0Q263.5 24.8 263.5 26.5L263.5 26.5L263.5 28.9Q263.5 30.7 264.1 31.6Q264.6 32.5 265.7 32.5L265.7 32.5Q266.8 32.5 267.3 31.6Q267.8 30.8 267.8 29.0L267.8 29.0ZM271.0 24.8L271.0 24.3Q271.0 23.3 271.6 22.6Q272.3 21.9 273.3 21.9L273.3 21.9Q274.4 21.9 275.0 22.6Q275.6 23.3 275.6 24.3L275.6 24.3L275.6 24.9Q275.6 25.9 275.0 26.6Q274.3 27.2 273.3 27.2L273.3 27.2Q272.3 27.2 271.6 26.6Q271.0 25.9 271.0 24.8L271.0 24.8ZM272.1 24.3L272.1 24.9Q272.1 25.5 272.4 25.9Q272.8 26.3 273.3 26.3L273.3 26.3Q273.9 26.3 274.2 25.9Q274.6 25.5 274.6 24.9L274.6 24.9L274.6 24.3Q274.6 23.7 274.2 23.3Q273.9 22.9 273.3 22.9Q272.7 22.9 272.4 23.3Q272.1 23.7 272.1 24.3L272.1 24.3ZM276.5 31.3L276.5 30.7Q276.5 29.7 277.2 29.0Q277.8 28.4 278.9 28.4Q279.9 28.4 280.5 29.0Q281.2 29.7 281.2 30.7L281.2 30.7L281.2 31.3Q281.2 32.3 280.5 33.0Q279.9 33.6 278.9 33.6Q277.9 33.6 277.2 33.0Q276.5 32.3 276.5 31.3L276.5 31.3ZM277.6 30.7L277.6 31.3Q277.6 31.9 277.9 32.3Q278.3 32.7 278.9 32.7L278.9 32.7Q279.4 32.7 279.8 32.3Q280.1 31.9 280.1 31.3L280.1 31.3L280.1 30.7Q280.1 30.1 279.8 29.7Q279.4 29.3 278.9 29.3L278.9 29.3Q278.3 29.3 277.9 29.7Q277.6 30.1 277.6 30.7L277.6 30.7ZM279.2 23.7L273.7 32.6L272.8 32.1L278.4 23.2L279.2 23.7Z "/><mask id="satori_om-id-1-2"><rect x="0" y="47" width="210" height="19" fill="#fff"/></mask><mask id="satori_om-id-1-2-0"><rect x="0" y="48" width="16" height="16" fill="#fff"/></mask><mask id="satori_om-id-1-2-0-0"><rect x="4" y="52" width="8" height="8" fill="#fff"/></mask><path x="4" y="52" width="8" height="8" fill="#DA5B0B" d="M8,52 h0 a4,4 0 0 1 4,4 v0 a4,4 0 0 1 -4,4 h0 a4,4 0 0 1 -4,-4 v0 a4,4 0 0 1 4,-4"/><mask id="satori_om-id-1-2-1"><rect x="29" y="47" width="129" height="19" fill="#fff"/></mask><path fill="#24292f" d="M34.6 59.0L34.6 51.1L36.9 51.1L36.9 59.0Q36.9 60.1 36.5 60.9Q36.0 61.7 35.1 62.2Q34.2 62.6 33.1 62.6L33.1 62.6Q31.3 62.6 30.3 61.7Q29.3 60.8 29.3 59.1L29.3 59.1L31.7 59.1Q31.7 60.0 32.0 60.4Q32.4 60.8 33.1 60.8L33.1 60.8Q33.8 60.8 34.2 60.3Q34.6 59.8 34.6 59.0L34.6 59.0ZM43.9 62.5L43.9 61.6Q43.0 62.6 41.6 62.6L41.6 62.6Q40.2 62.6 39.5 61.9Q38.8 61.1 38.8 59.6L38.8 59.6L38.8 54.0L41.0 54.0L41.0 59.5Q41.0 60.8 42.2 60.8L42.2 60.8Q43.4 60.8 43.8 60.0L43.8 60.0L43.8 54.0L46.1 54.0L46.1 62.5L43.9 62.5ZM55.4 58.2L55.4 58.3Q55.4 60.3 54.5 61.5Q53.6 62.6 52.1 62.6L52.1 62.6Q50.8 62.6 50.0 61.7L50.0 61.7L50.0 65.7L47.8 65.7L47.8 54.0L49.9 54.0L49.9 54.9Q50.8 53.9 52.1 53.9L52.1 53.9Q53.6 53.9 54.5 55.0Q55.4 56.2 55.4 58.2L55.4 58.2ZM53.1 58.2L53.1 58.2Q53.1 57.0 52.7 56.4Q52.3 55.7 51.5 55.7L51.5 55.7Q50.4 55.7 50.0 56.5L50.0 56.5L50.0 60.0Q50.4 60.8 51.5 60.8L51.5 60.8Q53.1 60.8 53.1 58.2ZM58.3 54.0L59.8 59.3L61.4 54.0L63.8 54.0L60.4 63.8L60.2 64.2Q59.5 65.9 57.7 65.9L57.7 65.9Q57.2 65.9 56.7 65.7L56.7 65.7L56.7 64.0L57.1 64.0Q57.7 64.0 58.0 63.9Q58.4 63.7 58.5 63.2L58.5 63.2L58.8 62.5L55.8 54.0L58.3 54.0ZM65.2 52.0L67.4 52.0L67.4 54.0L68.9 54.0L68.9 55.7L67.4 55.7L67.4 59.9Q67.4 60.4 67.6 60.6Q67.8 60.8 68.3 60.8L68.3 60.8Q68.7 60.8 68.9 60.7L68.9 60.7L68.9 62.4Q68.3 62.6 67.6 62.6L67.6 62.6Q65.2 62.6 65.2 60.2L65.2 60.2L65.2 55.7L63.9 55.7L63.9 54.0L65.2 54.0L65.2 52.0ZM74.0 62.6L74.0 62.6Q72.1 62.6 71.0 61.5Q69.8 60.4 69.8 58.5L69.8 58.5L69.8 58.2Q69.8 57.0 70.3 56.0Q70.8 55.0 71.7 54.4Q72.6 53.9 73.8 53.9L73.8 53.9Q75.5 53.9 76.5 55.0Q77.5 56.1 77.5 58.1L77.5 58.1L77.5 59.0L72.1 59.0Q72.2 59.8 72.8 60.3Q73.3 60.8 74.2 60.8L74.2 60.8Q75.5 60.8 76.2 59.9L76.2 59.9L77.3 61.1Q76.8 61.8 75.9 62.2Q75.1 62.6 74.0 62.6ZM73.8 55.7L73.8 55.7Q73.1 55.7 72.7 56.2Q72.2 56.6 72.1 57.5L72.1 57.5L75.3 57.5L75.3 57.3Q75.3 56.5 74.9 56.1Q74.5 55.7 73.8 55.7ZM83.5 54.0L83.5 56.1Q83.1 56.1 82.7 56.1L82.7 56.1Q81.4 56.1 81.0 57.0L81.0 57.0L81.0 62.5L78.8 62.5L78.8 54.0L80.9 54.0L81.0 55.0Q81.6 53.9 82.8 53.9L82.8 53.9Q83.2 53.9 83.5 54.0L83.5 54.0Z M98.1 51.1L98.1 62.5L95.7 62.5L91.2 55.0L91.2 62.5L88.8 62.5L88.8 51.1L91.2 51.1L95.7 58.6L95.7 51.1L98.1 51.1ZM99.6 58.3L99.6 58.2Q99.6 56.9 100.1 55.9Q100.6 55.0 101.5 54.4Q102.4 53.9 103.6 53.9L103.6 53.9Q105.3 53.9 106.4 54.9Q107.5 56.0 107.6 57.8L107.6 57.8L107.6 58.3Q107.6 60.3 106.5 61.5Q105.5 62.6 103.6 62.6Q101.8 62.6 100.7 61.5Q99.6 60.3 99.6 58.3L99.6 58.3ZM101.9 58.3L101.9 58.3Q101.9 59.5 102.3 60.2Q102.8 60.8 103.6 60.8L103.6 60.8Q104.4 60.8 104.9 60.2Q105.4 59.6 105.4 58.2L105.4 58.2Q105.4 57.0 104.9 56.4Q104.4 55.7 103.6 55.7L103.6 55.7Q102.8 55.7 102.3 56.3Q101.9 57.0 101.9 58.3ZM109.5 52.0L111.7 52.0L111.7 54.0L113.2 54.0L113.2 55.7L111.7 55.7L111.7 59.9Q111.7 60.4 111.9 60.6Q112.1 60.8 112.6 60.8L112.6 60.8Q113.0 60.8 113.3 60.7L113.3 60.7L113.3 62.4Q112.6 62.6 111.9 62.6L111.9 62.6Q109.5 62.6 109.5 60.2L109.5 60.2L109.5 55.7L108.2 55.7L108.2 54.0L109.5 54.0L109.5 52.0ZM118.3 62.6L118.3 62.6Q116.5 62.6 115.3 61.5Q114.1 60.4 114.1 58.5L114.1 58.5L114.1 58.2Q114.1 57.0 114.6 56.0Q115.1 55.0 116.0 54.4Q116.9 53.9 118.1 53.9L118.1 53.9Q119.8 53.9 120.8 55.0Q121.8 56.1 121.8 58.1L121.8 58.1L121.8 59.0L116.4 59.0Q116.5 59.8 117.1 60.3Q117.6 60.8 118.5 60.8L118.5 60.8Q119.8 60.8 120.5 59.9L120.5 59.9L121.6 61.1Q121.1 61.8 120.2 62.2Q119.4 62.6 118.3 62.6ZM118.1 55.7L118.1 55.7Q117.4 55.7 117.0 56.2Q116.5 56.6 116.4 57.5L116.4 57.5L119.6 57.5L119.6 57.3Q119.6 56.5 119.2 56.1Q118.8 55.7 118.1 55.7ZM130.7 58.2L130.7 58.3Q130.7 60.4 129.8 61.5Q129.0 62.6 127.4 62.6L127.4 62.6Q126.0 62.6 125.2 61.6L125.2 61.6L125.1 62.5L123.1 62.5L123.1 50.5L125.3 50.5L125.3 54.8Q126.1 53.9 127.4 53.9L127.4 53.9Q128.9 53.9 129.8 55.0Q130.7 56.1 130.7 58.2L130.7 58.2ZM128.4 58.2L128.4 58.2Q128.4 56.9 128.0 56.3Q127.6 55.7 126.8 55.7L126.8 55.7Q125.7 55.7 125.3 56.6L125.3 56.6L125.3 59.9Q125.7 60.8 126.8 60.8L126.8 60.8Q127.9 60.8 128.3 59.7L128.3 59.7Q128.4 59.2 128.4 58.2ZM131.7 58.3L131.7 58.2Q131.7 56.9 132.2 55.9Q132.7 55.0 133.6 54.4Q134.5 53.9 135.7 53.9L135.7 53.9Q137.4 53.9 138.5 54.9Q139.6 56.0 139.7 57.8L139.7 57.8L139.7 58.3Q139.7 60.3 138.6 61.5Q137.6 62.6 135.7 62.6Q133.9 62.6 132.8 61.5Q131.7 60.3 131.7 58.3L131.7 58.3ZM134.0 58.3L134.0 58.3Q134.0 59.5 134.4 60.2Q134.9 60.8 135.7 60.8L135.7 60.8Q136.6 60.8 137.0 60.2Q137.5 59.6 137.5 58.2L137.5 58.2Q137.5 57.0 137.0 56.4Q136.6 55.7 135.7 55.7L135.7 55.7Q134.9 55.7 134.4 56.3Q134.0 57.0 134.0 58.3ZM140.8 58.3L140.8 58.2Q140.8 56.9 141.3 55.9Q141.7 55.0 142.7 54.4Q143.6 53.9 144.8 53.9L144.8 53.9Q146.5 53.9 147.6 54.9Q148.6 56.0 148.8 57.8L148.8 57.8L148.8 58.3Q148.8 60.3 147.7 61.5Q146.6 62.6 144.8 62.6Q143.0 62.6 141.9 61.5Q140.8 60.3 140.8 58.3L140.8 58.3ZM143.0 58.3L143.0 58.3Q143.0 59.5 143.5 60.2Q143.9 60.8 144.8 60.8L144.8 60.8Q145.6 60.8 146.1 60.2Q146.5 59.6 146.5 58.2L146.5 58.2Q146.5 57.0 146.1 56.4Q145.6 55.7 144.8 55.7L144.8 55.7Q143.9 55.7 143.5 56.3Q143.0 57.0 143.0 58.3ZM155.4 62.5L153.2 59.1L152.4 59.9L152.4 62.5L150.2 62.5L150.2 50.5L152.4 50.5L152.4 57.1L152.9 56.6L155.0 54.0L157.7 54.0L154.7 57.6L158.0 62.5L155.4 62.5Z "/><mask id="satori_om-id-1-2-2"><rect x="167" y="47" width="43" height="19" fill="#fff"/></mask><path fill="#57606a" d="M172.7 51.1L172.7 62.5L171.2 62.5L171.2 52.9L168.3 53.9L168.3 52.6L172.5 51.1L172.7 51.1ZM184.1 55.8L184.1 57.6Q184.1 60.2 183.2 61.4Q182.3 62.6 180.5 62.6L180.5 62.6Q178.7 62.6 177.8 61.4Q176.9 60.2 176.9 57.8L176.9 57.8L176.9 55.9Q176.9 53.4 177.8 52.2Q178.6 51.0 180.5 51.0L180.5 51.0Q182.3 51.0 183.2 52.1Q184.0 53.3 184.1 55.8L184.1 55.8ZM182.6 58.0L182.6 55.7Q182.6 53.8 182.1 53.0Q181.6 52.1 180.5 52.1L180.5 52.1Q179.4 52.1 178.9 53.0Q178.3 53.8 178.3 55.5L178.3 55.5L178.3 57.9Q178.3 59.7 178.9 60.6Q179.4 61.5 180.5 61.5L180.5 61.5Q181.6 61.5 182.1 60.6Q182.6 59.8 182.6 58.0L182.6 58.0ZM186.1 61.7L186.1 61.7Q186.1 61.4 186.3 61.1Q186.5 60.9 187.0 60.9Q187.4 60.9 187.7 61.1Q187.9 61.4 187.9 61.7L187.9 61.7Q187.9 62.1 187.7 62.3Q187.4 62.6 187.0 62.6Q186.5 62.6 186.3 62.3Q186.1 62.1 186.1 61.7ZM192.2 57.3L192.2 56.1L193.3 56.1Q194.3 56.1 194.9 55.6Q195.5 55.0 195.5 54.1L195.5 54.1Q195.5 52.1 193.5 52.1L193.5 52.1Q192.6 52.1 192.0 52.7Q191.5 53.2 191.5 54.1L191.5 54.1L190.0 54.1Q190.0 52.7 191.0 51.8Q192.0 51.0 193.5 51.0L193.5 51.0Q195.1 51.0 196.0 51.8Q197.0 52.7 197.0 54.2L197.0 54.2Q197.0 54.9 196.5 55.6Q196.0 56.3 195.2 56.6L195.2 56.6Q196.1 56.9 196.6 57.6Q197.1 58.3 197.1 59.3L197.1 59.3Q197.1 60.8 196.1 61.7Q195.1 62.6 193.5 62.6Q191.9 62.6 190.9 61.8Q189.9 60.9 189.9 59.5L189.9 59.5L191.4 59.5Q191.4 60.4 192.0 60.9Q192.5 61.5 193.5 61.5L193.5 61.5Q194.6 61.5 195.1 60.9Q195.7 60.4 195.7 59.3L195.7 59.3Q195.7 58.4 195.1 57.8Q194.5 57.3 193.3 57.3L193.3 57.3L192.2 57.3ZM199.0 53.8L199.0 53.3Q199.0 52.3 199.6 51.6Q200.3 50.9 201.3 50.9L201.3 50.9Q202.4 50.9 203.0 51.6Q203.6 52.3 203.6 53.3L203.6 53.3L203.6 53.9Q203.6 54.9 203.0 55.6Q202.3 56.2 201.3 56.2L201.3 56.2Q200.3 56.2 199.6 55.6Q199.0 54.9 199.0 53.8L199.0 53.8ZM200.1 53.3L200.1 53.9Q200.1 54.5 200.4 54.9Q200.8 55.3 201.3 55.3L201.3 55.3Q201.9 55.3 202.2 54.9Q202.6 54.5 202.6 53.9L202.6 53.9L202.6 53.3Q202.6 52.7 202.2 52.3Q201.9 51.9 201.3 51.9Q200.7 51.9 200.4 52.3Q200.1 52.7 200.1 53.3L200.1 53.3ZM204.5 60.3L204.5 59.7Q204.5 58.7 205.2 58.0Q205.8 57.4 206.9 57.4Q207.9 57.4 208.5 58.0Q209.2 58.7 209.2 59.7L209.2 59.7L209.2 60.3Q209.2 61.3 208.5 62.0Q207.9 62.6 206.9 62.6Q205.9 62.6 205.2 62.0Q204.5 61.3 204.5 60.3L204.5 60.3ZM205.6 59.7L205.6 60.3Q205.6 60.9 205.9 61.3Q206.3 61.7 206.9 61.7L206.9 61.7Q207.4 61.7 207.8 61.3Q208.1 60.9 208.1 60.3L208.1 60.3L208.1 59.7Q208.1 59.1 207.8 58.7Q207.4 58.3 206.9 58.3L206.9 58.3Q206.3 58.3 205.9 58.7Q205.6 59.1 205.6 59.7L205.6 59.7ZM207.2 52.7L201.7 61.6L200.8 61.1L206.4 52.2L207.2 52.7Z "/><mask id="satori_om-id-1-3"><rect x="220" y="47" width="123" height="19" fill="#fff"/></mask><mask id="satori_om-id-1-3-0"><rect x="220" y="48" width="16" height="16" fill="#fff"/></mask><mask id="satori_om-id-1-3-0-0"><rect x="224" y="52" width="8" height="8" fill="#fff"/></mask><path x="224" y="52" width="8" height="8" fill="#3572A5" d="M228,52 h0 a4,4 0 0 1 4,4 v0 a4,4 0 0 1 -4,4 h0 a4,4 0 0 1 -4,-4 v0 a4,4 0 0 1 4,-4"/><mask id="satori_om-id-1-3-1"><rect x="249" y="47" width="51" height="19" fill="#fff"/></mask><path fill="#24292f" d="M254.4 58.5L252.4 58.5L252.4 62.5L250.0 62.5L250.0 51.1L254.5 51.1Q255.7 51.1 256.7 51.6Q257.7 52.0 258.2 52.9Q258.7 53.8 258.7 54.9L258.7 54.9Q258.7 56.5 257.6 57.5Q256.4 58.5 254.4 58.5L254.4 58.5ZM252.4 53.0L252.4 56.6L254.5 56.6Q255.4 56.6 255.9 56.1Q256.4 55.7 256.4 54.9L256.4 54.9Q256.4 54.1 255.9 53.5Q255.4 53.0 254.5 53.0L254.5 53.0L252.4 53.0ZM261.9 54.0L263.5 59.3L265.0 54.0L267.4 54.0L264.0 63.8L263.9 64.2Q263.1 65.9 261.4 65.9L261.4 65.9Q260.9 65.9 260.4 65.7L260.4 65.7L260.4 64.0L260.7 64.0Q261.3 64.0 261.7 63.9Q262.0 63.7 262.2 63.2L262.2 63.2L262.4 62.5L259.5 54.0L261.9 54.0ZM268.8 52.0L271.0 52.0L271.0 54.0L272.5 54.0L272.5 55.7L271.0 55.7L271.0 59.9Q271.0 60.4 271.2 60.6Q271.4 60.8 271.9 60.8L271.9 60.8Q272.3 60.8 272.6 60.7L272.6 60.7L272.6 62.4Q271.9 62.6 271.2 62.6L271.2 62.6Q268.8 62.6 268.8 60.2L268.8 60.2L268.8 55.7L267.5 55.7L267.5 54.0L268.8 54.0L268.8 52.0ZM275.9 50.5L275.9 55.0Q276.8 53.9 278.2 53.9L278.2 53.9Q281.0 53.9 281.0 57.1L281.0 57.1L281.0 62.5L278.7 62.5L278.7 57.1Q278.7 56.4 278.4 56.1Q278.1 55.7 277.4 55.7L277.4 55.7Q276.4 55.7 275.9 56.5L275.9 56.5L275.9 62.5L273.7 62.5L273.7 50.5L275.9 50.5ZM282.3 58.3L282.3 58.2Q282.3 56.9 282.8 55.9Q283.3 55.0 284.2 54.4Q285.1 53.9 286.3 53.9L286.3 53.9Q288.0 53.9 289.1 54.9Q290.2 56.0 290.3 57.8L290.3 57.8L290.4 58.3Q290.4 60.3 289.3 61.5Q288.2 62.6 286.4 62.6Q284.5 62.6 283.4 61.5Q282.3 60.3 282.3 58.3L282.3 58.3ZM284.6 58.3L284.6 58.3Q284.6 59.5 285.1 60.2Q285.5 60.8 286.4 60.8L286.4 60.8Q287.2 60.8 287.6 60.2Q288.1 59.6 288.1 58.2L288.1 58.2Q288.1 57.0 287.6 56.4Q287.2 55.7 286.3 55.7L286.3 55.7Q285.5 55.7 285.1 56.3Q284.6 57.0 284.6 58.3ZM291.7 54.0L293.8 54.0L293.9 55.0Q294.8 53.9 296.3 53.9L296.3 53.9Q297.7 53.9 298.3 54.7Q299.0 55.5 299.0 57.0L299.0 57.0L299.0 62.5L296.7 62.5L296.7 57.1Q296.7 56.4 296.4 56.0Q296.1 55.7 295.4 55.7L295.4 55.7Q294.4 55.7 294.0 56.5L294.0 56.5L294.0 62.5L291.7 62.5L291.7 54.0Z "/><mask id="satori_om-id-1-3-2"><rect x="309" y="47" width="34" height="19" fill="#fff"/></mask><path fill="#57606a" d="M317.3 51.1L317.3 51.9L312.6 62.5L311.1 62.5L315.8 52.3L309.6 52.3L309.6 51.1L317.3 51.1ZM319.1 61.7L319.1 61.7Q319.1 61.4 319.3 61.1Q319.6 60.9 320 60.9Q320.4 60.9 320.7 61.1Q320.9 61.4 320.9 61.7L320.9 61.7Q320.9 62.1 320.7 62.3Q320.4 62.6 320 62.6Q319.6 62.6 319.3 62.3Q319.1 62.1 319.1 61.7ZM330.6 61.3L330.6 62.5L323.1 62.5L323.1 61.4L327.1 57.1Q328.0 56.1 328.3 55.5Q328.6 54.8 328.6 54.2L328.6 54.2Q328.6 53.3 328.1 52.7Q327.5 52.1 326.6 52.1L326.6 52.1Q325.6 52.1 325.0 52.8Q324.4 53.4 324.4 54.5L324.4 54.5L322.9 54.5Q322.9 52.9 323.9 51.9Q324.9 51.0 326.6 51.0L326.6 51.0Q328.2 51.0 329.1 51.8Q330.1 52.6 330.1 54.0L330.1 54.0Q330.1 55.7 327.9 58.0L327.9 58.0L324.9 61.3L330.6 61.3ZM332 53.8L332 53.3Q332 52.3 332.7 51.6Q333.3 50.9 334.3 50.9L334.3 50.9Q335.4 50.9 336.0 51.6Q336.7 52.3 336.7 53.3L336.7 53.3L336.7 53.9Q336.7 54.9 336.0 55.6Q335.4 56.2 334.3 56.2L334.3 56.2Q333.3 56.2 332.7 55.6Q332 54.9 332 53.8L332 53.8ZM333.1 53.3L333.1 53.9Q333.1 54.5 333.4 54.9Q333.8 55.3 334.3 55.3L334.3 55.3Q334.9 55.3 335.2 54.9Q335.6 54.5 335.6 53.9L335.6 53.9L335.6 53.3Q335.6 52.7 335.2 52.3Q334.9 51.9 334.3 51.9Q333.8 51.9 333.4 52.3Q333.1 52.7 333.1 53.3L333.1 53.3ZM337.5 60.3L337.5 59.7Q337.5 58.7 338.2 58.0Q338.8 57.4 339.9 57.4Q340.9 57.4 341.5 58.0Q342.2 58.7 342.2 59.7L342.2 59.7L342.2 60.3Q342.2 61.3 341.6 62.0Q340.9 62.6 339.9 62.6Q338.9 62.6 338.2 62.0Q337.5 61.3 337.5 60.3L337.5 60.3ZM338.6 59.7L338.6 60.3Q338.6 60.9 339.0 61.3Q339.3 61.7 339.9 61.7L339.9 61.7Q340.4 61.7 340.8 61.3Q341.1 60.9 341.1 60.3L341.1 60.3L341.1 59.7Q341.1 59.1 340.8 58.7Q340.4 58.3 339.9 58.3L339.9 58.3Q339.3 58.3 339.0 58.7Q338.6 59.1 338.6 59.7L338.6 59.7ZM340.2 52.7L334.7 61.6L333.9 61.1L339.4 52.2L340.2 52.7Z "/><mask id="satori_om-id-1-4"><rect x="0" y="76" width="117" height="18" fill="#fff"/></mask><mask id="satori_om-id-1-4-0"><rect x="0" y="77" width="16" height="16" fill="#fff"/></mask><mask id="satori_om-id-1-4-0-0"><rect x="4" y="81" width="8" height="8" fill="#fff"/></mask><path x="4" y="81" width="8" height="8" fill="#ff3e00" d="M8,81 h0 a4,4 0 0 1 4,4 v0 a4,4 0 0 1 -4,4 h0 a4,4 0 0 1 -4,-4 v0 a4,4 0 0 1 4,-4"/><mask id="satori_om-id-1-4-1"><rect x="29" y="76" width="45" height="18" fill="#fff"/></mask><path fill="#24292f" d="M35.9 88.5L35.9 88.5Q35.9 87.8 35.4 87.5Q35.0 87.1 33.8 86.7Q32.5 86.3 31.8 86.0L31.8 86.0Q29.9 84.9 29.9 83.1L29.9 83.1Q29.9 82.2 30.4 81.5Q30.9 80.8 31.9 80.4Q32.9 80.0 34.1 80.0L34.1 80.0Q35.3 80.0 36.3 80.4Q37.2 80.8 37.7 81.6Q38.3 82.4 38.3 83.5L38.3 83.5L35.9 83.5Q35.9 82.7 35.4 82.3Q34.9 81.8 34.0 81.8L34.0 81.8Q33.2 81.8 32.7 82.2Q32.2 82.5 32.2 83.1L32.2 83.1Q32.2 83.7 32.8 84.1Q33.4 84.4 34.4 84.8L34.4 84.8Q36.4 85.4 37.4 86.3Q38.3 87.2 38.3 88.5L38.3 88.5Q38.3 90.0 37.1 90.8Q36.0 91.6 34.1 91.6L34.1 91.6Q32.8 91.6 31.8 91.2Q30.7 90.7 30.1 89.8Q29.5 89.0 29.5 87.9L29.5 87.9L31.9 87.9Q31.9 89.8 34.1 89.8L34.1 89.8Q35.0 89.8 35.4 89.4Q35.9 89.1 35.9 88.5ZM41.3 83.0L42.9 88.7L44.4 83.0L46.8 83.0L43.9 91.5L41.8 91.5L38.9 83.0L41.3 83.0ZM51.6 91.6L51.6 91.6Q49.7 91.6 48.6 90.5Q47.4 89.4 47.4 87.5L47.4 87.5L47.4 87.2Q47.4 86.0 47.9 85.0Q48.4 84.0 49.3 83.4Q50.2 82.9 51.3 82.9L51.3 82.9Q53.1 82.9 54.1 84.0Q55.1 85.1 55.1 87.1L55.1 87.1L55.1 88.0L49.7 88.0Q49.8 88.8 50.3 89.3Q50.9 89.8 51.7 89.8L51.7 89.8Q53.0 89.8 53.8 88.9L53.8 88.9L54.9 90.1Q54.4 90.8 53.5 91.2Q52.6 91.6 51.6 91.6ZM51.3 84.7L51.3 84.7Q50.6 84.7 50.2 85.2Q49.8 85.6 49.7 86.5L49.7 86.5L52.8 86.5L52.8 86.3Q52.8 85.5 52.4 85.1Q52.0 84.7 51.3 84.7ZM58.7 79.5L58.7 91.5L56.5 91.5L56.5 79.5L58.7 79.5ZM61.0 81.0L63.3 81.0L63.3 83.0L64.7 83.0L64.7 84.7L63.3 84.7L63.3 88.9Q63.3 89.4 63.5 89.6Q63.6 89.8 64.1 89.8L64.1 89.8Q64.5 89.8 64.8 89.7L64.8 89.7L64.8 91.4Q64.1 91.6 63.4 91.6L63.4 91.6Q61.1 91.6 61.0 89.2L61.0 89.2L61.0 84.7L59.8 84.7L59.8 83.0L61.0 83.0L61.0 81.0ZM69.9 91.6L69.9 91.6Q68.0 91.6 66.8 90.5Q65.7 89.4 65.7 87.5L65.7 87.5L65.7 87.2Q65.7 86.0 66.2 85.0Q66.7 84.0 67.6 83.4Q68.5 82.9 69.6 82.9L69.6 82.9Q71.4 82.9 72.4 84.0Q73.4 85.1 73.4 87.1L73.4 87.1L73.4 88.0L68.0 88.0Q68.1 88.8 68.6 89.3Q69.2 89.8 70.0 89.8L70.0 89.8Q71.3 89.8 72.1 88.9L72.1 88.9L73.2 90.1Q72.7 90.8 71.8 91.2Q70.9 91.6 69.9 91.6ZM69.6 84.7L69.6 84.7Q68.9 84.7 68.5 85.2Q68.1 85.6 68.0 86.5L68.0 86.5L71.1 86.5L71.1 86.3Q71.1 85.5 70.7 85.1Q70.3 84.7 69.6 84.7Z "/><mask id="satori_om-id-1-4-2"><rect x="83" y="76" width="34" height="18" fill="#fff"/></mask><path fill="#57606a" d="M85.8 86.1L84.6 85.8L85.2 80.1L91.0 80.1L91.0 81.4L86.4 81.4L86.1 84.5Q86.9 84.1 88.0 84.1L88.0 84.1Q89.5 84.1 90.4 85.1Q91.4 86.1 91.4 87.9L91.4 87.9Q91.4 89.6 90.4 90.6Q89.5 91.6 87.8 91.6L87.8 91.6Q86.2 91.6 85.3 90.8Q84.3 90.0 84.2 88.5L84.2 88.5L85.6 88.5Q85.7 89.5 86.3 90.0Q86.8 90.5 87.8 90.5L87.8 90.5Q88.8 90.5 89.3 89.8Q89.9 89.1 89.9 87.9L89.9 87.9Q89.9 86.7 89.3 86.0Q88.7 85.4 87.6 85.4L87.6 85.4Q86.7 85.4 86.1 85.8L86.1 85.8L85.8 86.1ZM93.1 90.7L93.1 90.7Q93.1 90.4 93.3 90.1Q93.6 89.9 94 89.9Q94.4 89.9 94.7 90.1Q94.9 90.4 94.9 90.7L94.9 90.7Q94.9 91.1 94.7 91.3Q94.4 91.6 94 91.6Q93.6 91.6 93.3 91.3Q93.1 91.1 93.1 90.7ZM104.6 90.3L104.6 91.5L97.1 91.5L97.1 90.4L101.1 86.1Q102.0 85.1 102.3 84.5Q102.6 83.8 102.6 83.2L102.6 83.2Q102.6 82.3 102.1 81.7Q101.5 81.1 100.6 81.1L100.6 81.1Q99.6 81.1 99.0 81.8Q98.4 82.4 98.4 83.5L98.4 83.5L96.9 83.5Q96.9 81.9 97.9 80.9Q98.9 80.0 100.6 80.0L100.6 80.0Q102.2 80.0 103.1 80.8Q104.1 81.6 104.1 83.0L104.1 83.0Q104.1 84.7 101.9 87.0L101.9 87.0L98.9 90.3L104.6 90.3ZM106 82.8L106 82.3Q106 81.3 106.7 80.6Q107.3 79.9 108.3 79.9L108.3 79.9Q109.4 79.9 110.0 80.6Q110.7 81.3 110.7 82.3L110.7 82.3L110.7 82.9Q110.7 83.9 110.0 84.6Q109.4 85.2 108.3 85.2L108.3 85.2Q107.3 85.2 106.7 84.6Q106 83.9 106 82.8L106 82.8ZM107.1 82.3L107.1 82.9Q107.1 83.5 107.4 83.9Q107.8 84.3 108.3 84.3L108.3 84.3Q108.9 84.3 109.2 83.9Q109.6 83.5 109.6 82.9L109.6 82.9L109.6 82.3Q109.6 81.7 109.2 81.3Q108.9 80.9 108.3 80.9Q107.8 80.9 107.4 81.3Q107.1 81.7 107.1 82.3L107.1 82.3ZM111.5 89.3L111.5 88.7Q111.5 87.7 112.2 87.0Q112.8 86.4 113.9 86.4Q114.9 86.4 115.5 87.0Q116.2 87.7 116.2 88.7L116.2 88.7L116.2 89.3Q116.2 90.3 115.6 91.0Q114.9 91.6 113.9 91.6Q112.9 91.6 112.2 91.0Q111.5 90.3 111.5 89.3L111.5 89.3ZM112.6 88.7L112.6 89.3Q112.6 89.9 113.0 90.3Q113.3 90.7 113.9 90.7L113.9 90.7Q114.4 90.7 114.8 90.3Q115.1 89.9 115.1 89.3L115.1 89.3L115.1 88.7Q115.1 88.1 114.8 87.7Q114.4 87.3 113.9 87.3L113.9 87.3Q113.3 87.3 113.0 87.7Q112.6 88.1 112.6 88.7L112.6 88.7ZM114.2 81.7L108.7 90.6L107.9 90.1L113.4 81.2L114.2 81.7Z "/><mask id="satori_om-id-1-5"><rect x="127" y="76" width="116" height="18" fill="#fff"/></mask><mask id="satori_om-id-1-5-0"><rect x="127" y="77" width="16" height="16" fill="#fff"/></mask><mask id="satori_om-id-1-5-0-0"><rect x="131" y="81" width="8" height="8" fill="#fff"/></mask><path x="131" y="81" width="8" height="8" fill="#e34c26" d="M135,81 h0 a4,4 0 0 1 4,4 v0 a4,4 0 0 1 -4,4 h0 a4,4 0 0 1 -4,-4 v0 a4,4 0 0 1 4,-4"/><mask id="satori_om-id-1-5-1"><rect x="156" y="76" width="44" height="18" fill="#fff"/></mask><path fill="#24292f" d="M166.3 80.1L166.3 91.5L163.9 91.5L163.9 86.6L159.4 86.6L159.4 91.5L157.0 91.5L157.0 80.1L159.4 80.1L159.4 84.7L163.9 84.7L163.9 80.1L166.3 80.1ZM176.7 80.1L176.7 82.0L173.2 82.0L173.2 91.5L170.8 91.5L170.8 82.0L167.4 82.0L167.4 80.1L176.7 80.1ZM178.0 80.1L181.1 80.1L184.0 88.4L186.9 80.1L190.0 80.1L190.0 91.5L187.6 91.5L187.6 88.4L187.8 83.0L184.8 91.5L183.2 91.5L180.1 83.0L180.3 88.4L180.3 91.5L178.0 91.5L178.0 80.1ZM194.4 80.1L194.4 89.6L199.3 89.6L199.3 91.5L192.0 91.5L192.0 80.1L194.4 80.1Z "/><mask id="satori_om-id-1-5-2"><rect x="209" y="76" width="34" height="18" fill="#fff"/></mask><path fill="#57606a" d="M212.0 86.3L212.0 85.1L213.1 85.1Q214.2 85.1 214.7 84.6Q215.3 84.0 215.3 83.1L215.3 83.1Q215.3 81.1 213.3 81.1L213.3 81.1Q212.4 81.1 211.8 81.7Q211.3 82.2 211.3 83.1L211.3 83.1L209.8 83.1Q209.8 81.7 210.8 80.8Q211.8 80.0 213.3 80.0L213.3 80.0Q214.9 80.0 215.9 80.8Q216.8 81.7 216.8 83.2L216.8 83.2Q216.8 83.9 216.3 84.6Q215.8 85.3 215.0 85.6L215.0 85.6Q215.9 85.9 216.4 86.6Q216.9 87.3 216.9 88.3L216.9 88.3Q216.9 89.8 215.9 90.7Q214.9 91.6 213.3 91.6Q211.7 91.6 210.7 90.8Q209.7 89.9 209.7 88.5L209.7 88.5L211.2 88.5Q211.2 89.4 211.8 89.9Q212.4 90.5 213.3 90.5L213.3 90.5Q214.4 90.5 214.9 89.9Q215.5 89.4 215.5 88.3L215.5 88.3Q215.5 87.4 214.9 86.8Q214.3 86.3 213.1 86.3L213.1 86.3L212.0 86.3ZM219.1 90.7L219.1 90.7Q219.1 90.4 219.3 90.1Q219.6 89.9 220 89.9Q220.4 89.9 220.7 90.1Q220.9 90.4 220.9 90.7L220.9 90.7Q220.9 91.1 220.7 91.3Q220.4 91.6 220 91.6Q219.6 91.6 219.3 91.3Q219.1 91.1 219.1 90.7ZM228.7 86.5L228.7 86.5Q228.2 87.0 227.6 87.4Q227.0 87.7 226.2 87.7L226.2 87.7Q225.2 87.7 224.5 87.2Q223.8 86.7 223.4 85.8Q223.0 85.0 223.0 83.9L223.0 83.9Q223.0 82.7 223.4 81.8Q223.8 80.9 224.6 80.4Q225.4 80.0 226.5 80.0L226.5 80.0Q228.2 80.0 229.2 81.2Q230.1 82.5 230.1 84.7L230.1 84.7L230.1 85.1Q230.1 88.4 228.8 89.9Q227.5 91.5 224.9 91.5L224.9 91.5L224.6 91.5L224.6 90.3L224.9 90.3Q226.7 90.2 227.6 89.3Q228.6 88.4 228.7 86.5ZM226.5 86.5L226.5 86.5Q227.2 86.5 227.8 86.0Q228.4 85.6 228.7 84.9L228.7 84.9L228.7 84.4Q228.7 82.9 228.1 82.0Q227.5 81.2 226.5 81.2L226.5 81.2Q225.6 81.2 225.0 81.9Q224.4 82.6 224.4 83.8L224.4 83.8Q224.4 85.0 225.0 85.7Q225.5 86.5 226.5 86.5ZM232 82.8L232 82.3Q232 81.3 232.7 80.6Q233.3 79.9 234.3 79.9L234.3 79.9Q235.4 79.9 236.0 80.6Q236.7 81.3 236.7 82.3L236.7 82.3L236.7 82.9Q236.7 83.9 236.0 84.6Q235.4 85.2 234.3 85.2L234.3 85.2Q233.3 85.2 232.7 84.6Q232 83.9 232 82.8L232 82.8ZM233.1 82.3L233.1 82.9Q233.1 83.5 233.4 83.9Q233.8 84.3 234.3 84.3L234.3 84.3Q234.9 84.3 235.2 83.9Q235.6 83.5 235.6 82.9L235.6 82.9L235.6 82.3Q235.6 81.7 235.2 81.3Q234.9 80.9 234.3 80.9Q233.8 80.9 233.4 81.3Q233.1 81.7 233.1 82.3L233.1 82.3ZM237.5 89.3L237.5 88.7Q237.5 87.7 238.2 87.0Q238.8 86.4 239.9 86.4Q240.9 86.4 241.5 87.0Q242.2 87.7 242.2 88.7L242.2 88.7L242.2 89.3Q242.2 90.3 241.6 91.0Q240.9 91.6 239.9 91.6Q238.9 91.6 238.2 91.0Q237.5 90.3 237.5 89.3L237.5 89.3ZM238.6 88.7L238.6 89.3Q238.6 89.9 239.0 90.3Q239.3 90.7 239.9 90.7L239.9 90.7Q240.4 90.7 240.8 90.3Q241.1 89.9 241.1 89.3L241.1 89.3L241.1 88.7Q241.1 88.1 240.8 87.7Q240.4 87.3 239.9 87.3L239.9 87.3Q239.3 87.3 239.0 87.7Q238.6 88.1 238.6 88.7L238.6 88.7ZM240.2 81.7L234.7 90.6L233.9 90.1L239.4 81.2L240.2 81.7Z "/><mask id="satori_om-id-1-6"><rect x="253" y="76" width="92" height="18" fill="#fff"/></mask><mask id="satori_om-id-1-6-0"><rect x="253" y="77" width="16" height="16" fill="#fff"/></mask><mask id="satori_om-id-1-6-0-0"><rect x="257" y="81" width="8" height="8" fill="#fff"/></mask><path x="257" y="81" width="8" height="8" fill="#00ADD8" d="M261,81 h0 a4,4 0 0 1 4,4 v0 a4,4 0 0 1 -4,4 h0 a4,4 0 0 1 -4,-4 v0 a4,4 0 0 1 4,-4"/><mask id="satori_om-id-1-6-1"><rect x="282" y="76" width="20" height="18" fill="#fff"/></mask><path fill="#24292f" d="M292.0 85.5L292.0 90.0Q291.4 90.8 290.2 91.2Q289.1 91.6 287.7 91.6L287.7 91.6Q286.2 91.6 285.1 91.0Q284.0 90.4 283.4 89.1Q282.8 87.9 282.7 86.2L282.7 86.2L282.7 85.5Q282.7 83.8 283.3 82.5Q283.9 81.3 285.0 80.6Q286.0 80.0 287.5 80.0L287.5 80.0Q289.5 80.0 290.7 80.9Q291.8 81.9 292.0 83.7L292.0 83.7L289.7 83.7Q289.6 82.7 289.0 82.3Q288.5 81.8 287.6 81.8L287.6 81.8Q286.4 81.8 285.8 82.7Q285.1 83.6 285.1 85.4L285.1 85.4L285.1 86.1Q285.1 87.9 285.8 88.8Q286.5 89.8 287.8 89.8L287.8 89.8Q289.1 89.8 289.7 89.2L289.7 89.2L289.7 87.2L287.5 87.2L287.5 85.5L292.0 85.5ZM293.4 87.3L293.4 87.2Q293.4 85.9 293.9 84.9Q294.4 84.0 295.3 83.4Q296.2 82.9 297.4 82.9L297.4 82.9Q299.1 82.9 300.2 83.9Q301.3 85.0 301.4 86.8L301.4 86.8L301.4 87.3Q301.4 89.3 300.3 90.5Q299.3 91.6 297.4 91.6Q295.6 91.6 294.5 90.5Q293.4 89.3 293.4 87.3L293.4 87.3ZM295.7 87.3L295.7 87.3Q295.7 88.5 296.1 89.2Q296.6 89.8 297.4 89.8L297.4 89.8Q298.2 89.8 298.7 89.2Q299.2 88.6 299.2 87.2L299.2 87.2Q299.2 86.0 298.7 85.4Q298.2 84.7 297.4 84.7L297.4 84.7Q296.6 84.7 296.1 85.3Q295.7 86.0 295.7 87.3Z "/><mask id="satori_om-id-1-6-2"><rect x="311" y="76" width="34" height="18" fill="#fff"/></mask><path fill="#57606a" d="M314.0 86.3L314.0 85.1L315.1 85.1Q316.2 85.1 316.7 84.6Q317.3 84.0 317.3 83.1L317.3 83.1Q317.3 81.1 315.3 81.1L315.3 81.1Q314.4 81.1 313.8 81.7Q313.3 82.2 313.3 83.1L313.3 83.1L311.8 83.1Q311.8 81.7 312.8 80.8Q313.8 80.0 315.3 80.0L315.3 80.0Q316.9 80.0 317.9 80.8Q318.8 81.7 318.8 83.2L318.8 83.2Q318.8 83.9 318.3 84.6Q317.8 85.3 317.0 85.6L317.0 85.6Q317.9 85.9 318.4 86.6Q318.9 87.3 318.9 88.3L318.9 88.3Q318.9 89.8 317.9 90.7Q316.9 91.6 315.3 91.6Q313.7 91.6 312.7 90.8Q311.7 89.9 311.7 88.5L311.7 88.5L313.2 88.5Q313.2 89.4 313.8 89.9Q314.4 90.5 315.3 90.5L315.3 90.5Q316.4 90.5 316.9 89.9Q317.5 89.4 317.5 88.3L317.5 88.3Q317.5 87.4 316.9 86.8Q316.3 86.3 315.1 86.3L315.1 86.3L314.0 86.3ZM321.1 90.7L321.1 90.7Q321.1 90.4 321.3 90.1Q321.6 89.9 322 89.9Q322.4 89.9 322.7 90.1Q322.9 90.4 322.9 90.7L322.9 90.7Q322.9 91.1 322.7 91.3Q322.4 91.6 322 91.6Q321.6 91.6 321.3 91.3Q321.1 91.1 321.1 90.7ZM327.0 86.1L325.8 85.8L326.4 80.1L332.2 80.1L332.2 81.4L327.6 81.4L327.3 84.5Q328.1 84.1 329.2 84.1L329.2 84.1Q330.7 84.1 331.6 85.1Q332.5 86.1 332.5 87.9L332.5 87.9Q332.5 89.6 331.6 90.6Q330.6 91.6 328.9 91.6L328.9 91.6Q327.4 91.6 326.5 90.8Q325.5 90.0 325.4 88.5L325.4 88.5L326.8 88.5Q326.9 89.5 327.5 90.0Q328.0 90.5 328.9 90.5L328.9 90.5Q330.0 90.5 330.5 89.8Q331.1 89.1 331.1 87.9L331.1 87.9Q331.1 86.7 330.5 86.0Q329.9 85.4 328.8 85.4L328.8 85.4Q327.9 85.4 327.3 85.8L327.3 85.8L327.0 86.1ZM334 82.8L334 82.3Q334 81.3 334.7 80.6Q335.3 79.9 336.3 79.9L336.3 79.9Q337.4 79.9 338.0 80.6Q338.7 81.3 338.7 82.3L338.7 82.3L338.7 82.9Q338.7 83.9 338.0 84.6Q337.4 85.2 336.3 85.2L336.3 85.2Q335.3 85.2 334.7 84.6Q334 83.9 334 82.8L334 82.8ZM335.1 82.3L335.1 82.9Q335.1 83.5 335.4 83.9Q335.8 84.3 336.3 84.3L336.3 84.3Q336.9 84.3 337.2 83.9Q337.6 83.5 337.6 82.9L337.6 82.9L337.6 82.3Q337.6 81.7 337.2 81.3Q336.9 80.9 336.3 80.9Q335.8 80.9 335.4 81.3Q335.1 81.7 335.1 82.3L335.1 82.3ZM339.5 89.3L339.5 88.7Q339.5 87.7 340.2 87.0Q340.8 86.4 341.9 86.4Q342.9 86.4 343.5 87.0Q344.2 87.7 344.2 88.7L344.2 88.7L344.2 89.3Q344.2 90.3 343.6 91.0Q342.9 91.6 341.9 91.6Q340.9 91.6 340.2 91.0Q339.5 90.3 339.5 89.3L339.5 89.3ZM340.6 88.7L340.6 89.3Q340.6 89.9 341.0 90.3Q341.3 90.7 341.9 90.7L341.9 90.7Q342.4 90.7 342.8 90.3Q343.1 89.9 343.1 89.3L343.1 89.3L343.1 88.7Q343.1 88.1 342.8 87.7Q342.4 87.3 341.9 87.3L341.9 87.3Q341.3 87.3 341.0 87.7Q340.6 88.1 340.6 88.7L340.6 88.7ZM342.2 81.7L336.7 90.6L335.9 90.1L341.4 81.2L342.2 81.7Z "/><mask id="satori_om-id-1-7"><rect x="0" y="104" width="149" height="19" fill="#fff"/></mask><mask id="satori_om-id-1-7-0"><rect x="0" y="105" width="16" height="16" fill="#fff"/></mask><mask id="satori_om-id-1-7-0-0"><rect x="4" y="109" width="8" height="8" fill="#fff"/></mask><path x="4" y="109" width="8" height="8" fill="#f1e05a" d="M8,109 h0 a4,4 0 0 1 4,4 v0 a4,4 0 0 1 -4,4 h0 a4,4 0 0 1 -4,-4 v0 a4,4 0 0 1 4,-4"/><mask id="satori_om-id-1-7-1"><rect x="29" y="104" width="77" height="19" fill="#fff"/></mask><path fill="#24292f" d="M34.6 116.0L34.6 108.1L36.9 108.1L36.9 116.0Q36.9 117.1 36.5 117.9Q36.0 118.7 35.1 119.2Q34.2 119.6 33.1 119.6L33.1 119.6Q31.3 119.6 30.3 118.7Q29.3 117.8 29.3 116.1L29.3 116.1L31.7 116.1Q31.7 117.0 32.0 117.4Q32.4 117.8 33.1 117.8L33.1 117.8Q33.8 117.8 34.2 117.3Q34.6 116.8 34.6 116.0L34.6 116.0ZM46.0 119.5L43.7 119.5Q43.5 119.2 43.5 118.7L43.5 118.7Q42.7 119.6 41.3 119.6L41.3 119.6Q40.1 119.6 39.3 118.9Q38.5 118.2 38.5 117.1L38.5 117.1Q38.5 115.8 39.5 115.0Q40.5 114.3 42.3 114.3L42.3 114.3L43.4 114.3L43.4 113.8Q43.4 113.2 43.1 112.9Q42.8 112.5 42.1 112.5L42.1 112.5Q41.6 112.5 41.2 112.8Q40.9 113.1 40.9 113.6L40.9 113.6L38.7 113.6Q38.7 112.8 39.1 112.2Q39.6 111.6 40.4 111.2Q41.2 110.9 42.3 110.9L42.3 110.9Q43.8 110.9 44.7 111.7Q45.6 112.4 45.6 113.9L45.6 113.9L45.6 117.5Q45.7 118.7 46.0 119.4L46.0 119.4L46.0 119.5ZM41.8 117.9L41.8 117.9Q42.3 117.9 42.8 117.7Q43.2 117.5 43.4 117.1L43.4 117.1L43.4 115.6L42.5 115.6Q40.8 115.6 40.7 116.8L40.7 116.8L40.7 116.9Q40.7 117.4 41.0 117.6Q41.3 117.9 41.8 117.9ZM48.9 111.0L50.4 116.7L52 111.0L54.4 111.0L51.5 119.5L49.4 119.5L46.5 111.0L48.9 111.0ZM62.4 119.5L60.1 119.5Q60.0 119.2 59.9 118.7L59.9 118.7Q59.1 119.6 57.8 119.6L57.8 119.6Q56.5 119.6 55.7 118.9Q54.9 118.2 54.9 117.1L54.9 117.1Q54.9 115.8 55.9 115.0Q56.9 114.3 58.8 114.3L58.8 114.3L59.8 114.3L59.8 113.8Q59.8 113.2 59.5 112.9Q59.2 112.5 58.6 112.5L58.6 112.5Q58.0 112.5 57.7 112.8Q57.3 113.1 57.3 113.6L57.3 113.6L55.1 113.6Q55.1 112.8 55.5 112.2Q56.0 111.6 56.8 111.2Q57.6 110.9 58.7 110.9L58.7 110.9Q60.2 110.9 61.2 111.7Q62.1 112.4 62.1 113.9L62.1 113.9L62.1 117.5Q62.1 118.7 62.4 119.4L62.4 119.4L62.4 119.5ZM58.3 117.9L58.3 117.9Q58.8 117.9 59.2 117.7Q59.6 117.5 59.8 117.1L59.8 117.1L59.8 115.6L59.0 115.6Q57.3 115.6 57.2 116.8L57.2 116.8L57.2 116.9Q57.2 117.4 57.5 117.6Q57.8 117.9 58.3 117.9ZM69.9 116.5L69.9 116.5Q69.9 115.8 69.4 115.5Q68.9 115.1 67.7 114.7Q66.5 114.3 65.8 114.0L65.8 114.0Q63.8 112.9 63.8 111.1L63.8 111.1Q63.8 110.2 64.4 109.5Q64.9 108.8 65.8 108.4Q66.8 108.0 68.0 108.0L68.0 108.0Q69.3 108.0 70.2 108.4Q71.2 108.8 71.7 109.6Q72.2 110.4 72.2 111.5L72.2 111.5L69.9 111.5Q69.9 110.7 69.4 110.3Q68.9 109.8 68.0 109.8L68.0 109.8Q67.1 109.8 66.7 110.2Q66.2 110.5 66.2 111.1L66.2 111.1Q66.2 111.7 66.7 112.1Q67.3 112.4 68.4 112.8L68.4 112.8Q70.4 113.4 71.3 114.3Q72.2 115.2 72.2 116.5L72.2 116.5Q72.2 118.0 71.1 118.8Q70.0 119.6 68.1 119.6L68.1 119.6Q66.8 119.6 65.7 119.2Q64.6 118.7 64.1 117.8Q63.5 117.0 63.5 115.9L63.5 115.9L65.8 115.9Q65.8 117.8 68.1 117.8L68.1 117.8Q68.9 117.8 69.4 117.4Q69.9 117.1 69.9 116.5ZM77.2 117.8L77.2 117.8Q77.8 117.8 78.2 117.5Q78.6 117.1 78.6 116.6L78.6 116.6L80.7 116.6Q80.7 117.4 80.2 118.1Q79.8 118.9 79.0 119.2Q78.2 119.6 77.2 119.6L77.2 119.6Q75.4 119.6 74.3 118.5Q73.3 117.3 73.3 115.3L73.3 115.3L73.3 115.2Q73.3 113.2 74.3 112.0Q75.4 110.9 77.2 110.9L77.2 110.9Q78.8 110.9 79.7 111.8Q80.7 112.7 80.7 114.2L80.7 114.2L78.6 114.2Q78.6 113.5 78.2 113.1Q77.8 112.7 77.1 112.7L77.1 112.7Q76.4 112.7 76.0 113.3Q75.6 113.9 75.6 115.1L75.6 115.1L75.6 115.4Q75.6 116.7 76.0 117.2Q76.4 117.8 77.2 117.8ZM86.8 111.0L86.7 113.1Q86.3 113.1 85.9 113.1L85.9 113.1Q84.6 113.1 84.3 114.0L84.3 114.0L84.3 119.5L82.0 119.5L82.0 111.0L84.1 111.0L84.2 112.0Q84.9 110.9 86.1 110.9L86.1 110.9Q86.4 110.9 86.8 111.0L86.8 111.0ZM90.2 111.0L90.2 119.5L87.9 119.5L87.9 111.0L90.2 111.0ZM87.8 108.8L87.8 108.8Q87.8 108.3 88.2 108.0Q88.5 107.7 89.1 107.7L89.1 107.7Q89.7 107.7 90 108.0Q90.3 108.3 90.3 108.8L90.3 108.8Q90.3 109.4 90.0 109.7Q89.6 110.0 89.1 110.0Q88.5 110.0 88.2 109.7Q87.8 109.4 87.8 108.8ZM99.7 115.2L99.7 115.3Q99.7 117.3 98.8 118.5Q97.9 119.6 96.4 119.6L96.4 119.6Q95.1 119.6 94.3 118.7L94.3 118.7L94.3 122.7L92.1 122.7L92.1 111.0L94.2 111.0L94.2 111.9Q95.1 110.9 96.4 110.9L96.4 110.9Q97.9 110.9 98.8 112.0Q99.7 113.2 99.7 115.2L99.7 115.2ZM97.4 115.2L97.4 115.2Q97.4 114.0 97.0 113.4Q96.6 112.7 95.8 112.7L95.8 112.7Q94.7 112.7 94.3 113.5L94.3 113.5L94.3 117.0Q94.7 117.8 95.8 117.8L95.8 117.8Q97.4 117.8 97.4 115.2ZM101.5 109.0L103.8 109.0L103.8 111.0L105.2 111.0L105.2 112.7L103.8 112.7L103.8 116.9Q103.8 117.4 104.0 117.6Q104.1 117.8 104.6 117.8L104.6 117.8Q105.0 117.8 105.3 117.7L105.3 117.7L105.3 119.4Q104.6 119.6 103.9 119.6L103.9 119.6Q101.6 119.6 101.5 117.2L101.5 117.2L101.5 112.7L100.3 112.7L100.3 111.0L101.5 111.0L101.5 109.0Z "/><mask id="satori_om-id-1-7-2"><rect x="115" y="104" width="34" height="19" fill="#fff"/></mask><path fill="#57606a" d="M118.0 114.3L118.0 113.1L119.1 113.1Q120.2 113.1 120.7 112.6Q121.3 112.0 121.3 111.1L121.3 111.1Q121.3 109.1 119.3 109.1L119.3 109.1Q118.4 109.1 117.8 109.7Q117.3 110.2 117.3 111.1L117.3 111.1L115.8 111.1Q115.8 109.7 116.8 108.8Q117.8 108.0 119.3 108.0L119.3 108.0Q120.9 108.0 121.9 108.8Q122.8 109.7 122.8 111.2L122.8 111.2Q122.8 111.9 122.3 112.6Q121.8 113.3 121.0 113.6L121.0 113.6Q121.9 113.9 122.4 114.6Q122.9 115.3 122.9 116.3L122.9 116.3Q122.9 117.8 121.9 118.7Q120.9 119.6 119.3 119.6Q117.7 119.6 116.7 118.8Q115.7 117.9 115.7 116.5L115.7 116.5L117.2 116.5Q117.2 117.4 117.8 117.9Q118.4 118.5 119.3 118.5L119.3 118.5Q120.4 118.5 120.9 117.9Q121.5 117.4 121.5 116.3L121.5 116.3Q121.5 115.4 120.9 114.8Q120.3 114.3 119.1 114.3L119.1 114.3L118.0 114.3ZM125.1 118.7L125.1 118.7Q125.1 118.4 125.3 118.1Q125.6 117.9 126 117.9Q126.4 117.9 126.7 118.1Q126.9 118.4 126.9 118.7L126.9 118.7Q126.9 119.1 126.7 119.3Q126.4 119.6 126 119.6Q125.6 119.6 125.3 119.3Q125.1 119.1 125.1 118.7ZM135.2 108.1L135.2 115.7L136.8 115.7L136.8 116.8L135.2 116.8L135.2 119.5L133.8 119.5L133.8 116.8L128.6 116.8L128.6 116.0L133.7 108.1L135.2 108.1ZM133.6 110.4L130.3 115.7L133.8 115.7L133.8 110.1L133.6 110.4ZM138 110.8L138 110.3Q138 109.3 138.7 108.6Q139.3 107.9 140.3 107.9L140.3 107.9Q141.4 107.9 142.0 108.6Q142.7 109.3 142.7 110.3L142.7 110.3L142.7 110.9Q142.7 111.9 142.0 112.6Q141.4 113.2 140.3 113.2L140.3 113.2Q139.3 113.2 138.7 112.6Q138 111.9 138 110.8L138 110.8ZM139.1 110.3L139.1 110.9Q139.1 111.5 139.4 111.9Q139.8 112.3 140.3 112.3L140.3 112.3Q140.9 112.3 141.2 111.9Q141.6 111.5 141.6 110.9L141.6 110.9L141.6 110.3Q141.6 109.7 141.2 109.3Q140.9 108.9 140.3 108.9Q139.8 108.9 139.4 109.3Q139.1 109.7 139.1 110.3L139.1 110.3ZM143.5 117.3L143.5 116.7Q143.5 115.7 144.2 115.0Q144.8 114.4 145.9 114.4Q146.9 114.4 147.5 115.0Q148.2 115.7 148.2 116.7L148.2 116.7L148.2 117.3Q148.2 118.3 147.6 119.0Q146.9 119.6 145.9 119.6Q144.9 119.6 144.2 119.0Q143.5 118.3 143.5 117.3L143.5 117.3ZM144.6 116.7L144.6 117.3Q144.6 117.9 145.0 118.3Q145.3 118.7 145.9 118.7L145.9 118.7Q146.4 118.7 146.8 118.3Q147.1 117.9 147.1 117.3L147.1 117.3L147.1 116.7Q147.1 116.1 146.8 115.7Q146.4 115.3 145.9 115.3L145.9 115.3Q145.3 115.3 145.0 115.7Q144.6 116.1 144.6 116.7L144.6 116.7ZM146.2 109.7L140.7 118.6L139.9 118.1L145.4 109.2L146.2 109.7Z "/><mask id="satori_om-id-1-8"><rect x="159" y="104" width="83" height="19" fill="#fff"/></mask><mask id="satori_om-id-1-8-0"><rect x="159" y="105" width="16" height="16" fill="#fff"/></mask><mask id="satori_om-id-1-8-0-0"><rect x="163" y="109" width="8" height="8" fill="#fff"/></mask><path x="163" y="109" width="8" height="8" fill="#555555" d="M167,109 h0 a4,4 0 0 1 4,4 v0 a4,4 0 0 1 -4,4 h0 a4,4 0 0 1 -4,-4 v0 a4,4 0 0 1 4,-4"/><mask id="satori_om-id-1-8-1"><rect x="188" y="104" width="11" height="19" fill="#fff"/></mask><path fill="#24292f" d="M195.6 115.7L197.9 115.7Q197.8 117.5 196.6 118.6Q195.4 119.6 193.4 119.6L193.4 119.6Q191.2 119.6 189.9 118.2Q188.7 116.7 188.7 114.1L188.7 114.1L188.7 113.4Q188.7 111.8 189.3 110.5Q189.8 109.3 190.9 108.6Q192.0 108.0 193.4 108.0L193.4 108.0Q195.4 108.0 196.6 109.0Q197.8 110.1 198.0 112.0L198.0 112.0L195.6 112.0Q195.5 110.9 195.0 110.4Q194.5 109.9 193.4 109.9L193.4 109.9Q192.2 109.9 191.6 110.7Q191.1 111.6 191.0 113.3L191.0 113.3L191.0 114.2Q191.0 116.0 191.6 116.9Q192.2 117.7 193.4 117.7L193.4 117.7Q194.5 117.7 195.0 117.2Q195.5 116.7 195.6 115.7L195.6 115.7Z "/><mask id="satori_om-id-1-8-2"><rect x="208" y="104" width="34" height="19" fill="#fff"/></mask><path fill="#57606a" d="M211.0 114.3L211.0 113.1L212.1 113.1Q213.2 113.1 213.7 112.6Q214.3 112.0 214.3 111.1L214.3 111.1Q214.3 109.1 212.3 109.1L212.3 109.1Q211.4 109.1 210.8 109.7Q210.3 110.2 210.3 111.1L210.3 111.1L208.8 111.1Q208.8 109.7 209.8 108.8Q210.8 108.0 212.3 108.0L212.3 108.0Q213.9 108.0 214.9 108.8Q215.8 109.7 215.8 111.2L215.8 111.2Q215.8 111.9 215.3 112.6Q214.8 113.3 214.0 113.6L214.0 113.6Q214.9 113.9 215.4 114.6Q215.9 115.3 215.9 116.3L215.9 116.3Q215.9 117.8 214.9 118.7Q213.9 119.6 212.3 119.6Q210.7 119.6 209.7 118.8Q208.7 117.9 208.7 116.5L208.7 116.5L210.2 116.5Q210.2 117.4 210.8 117.9Q211.4 118.5 212.3 118.5L212.3 118.5Q213.4 118.5 213.9 117.9Q214.5 117.4 214.5 116.3L214.5 116.3Q214.5 115.4 213.9 114.8Q213.3 114.3 212.1 114.3L212.1 114.3L211.0 114.3ZM218.1 118.7L218.1 118.7Q218.1 118.4 218.3 118.1Q218.6 117.9 219 117.9Q219.4 117.9 219.7 118.1Q219.9 118.4 219.9 118.7L219.9 118.7Q219.9 119.1 219.7 119.3Q219.4 119.6 219 119.6Q218.6 119.6 218.3 119.3Q218.1 119.1 218.1 118.7ZM224.2 114.3L224.2 113.1L225.3 113.1Q226.4 113.1 226.9 112.6Q227.5 112.0 227.5 111.1L227.5 111.1Q227.5 109.1 225.5 109.1L225.5 109.1Q224.6 109.1 224.0 109.7Q223.5 110.2 223.5 111.1L223.5 111.1L222.0 111.1Q222.0 109.7 223.0 108.8Q224.0 108.0 225.5 108.0L225.5 108.0Q227.1 108.0 228.1 108.8Q229.0 109.7 229.0 111.2L229.0 111.2Q229.0 111.9 228.5 112.6Q228.0 113.3 227.2 113.6L227.2 113.6Q228.1 113.9 228.6 114.6Q229.1 115.3 229.1 116.3L229.1 116.3Q229.1 117.8 228.1 118.7Q227.1 119.6 225.5 119.6Q223.9 119.6 222.9 118.8Q221.9 117.9 221.9 116.5L221.9 116.5L223.4 116.5Q223.4 117.4 224.0 117.9Q224.6 118.5 225.5 118.5L225.5 118.5Q226.6 118.5 227.1 117.9Q227.7 117.4 227.7 116.3L227.7 116.3Q227.7 115.4 227.1 114.8Q226.5 114.3 225.3 114.3L225.3 114.3L224.2 114.3ZM231 110.8L231 110.3Q231 109.3 231.7 108.6Q232.3 107.9 233.3 107.9L233.3 107.9Q234.4 107.9 235.0 108.6Q235.7 109.3 235.7 110.3L235.7 110.3L235.7 110.9Q235.7 111.9 235.0 112.6Q234.4 113.2 233.3 113.2L233.3 113.2Q232.3 113.2 231.7 112.6Q231 111.9 231 110.8L231 110.8ZM232.1 110.3L232.1 110.9Q232.1 111.5 232.4 111.9Q232.8 112.3 233.3 112.3L233.3 112.3Q233.9 112.3 234.2 111.9Q234.6 111.5 234.6 110.9L234.6 110.9L234.6 110.3Q234.6 109.7 234.2 109.3Q233.9 108.9 233.3 108.9Q232.8 108.9 232.4 109.3Q232.1 109.7 232.1 110.3L232.1 110.3ZM236.5 117.3L236.5 116.7Q236.5 115.7 237.2 115.0Q237.8 114.4 238.9 114.4Q239.9 114.4 240.5 115.0Q241.2 115.7 241.2 116.7L241.2 116.7L241.2 117.3Q241.2 118.3 240.6 119.0Q239.9 119.6 238.9 119.6Q237.9 119.6 237.2 119.0Q236.5 118.3 236.5 117.3L236.5 117.3ZM237.6 116.7L237.6 117.3Q237.6 117.9 238.0 118.3Q238.3 118.7 238.9 118.7L238.9 118.7Q239.4 118.7 239.8 118.3Q240.1 117.9 240.1 117.3L240.1 117.3L240.1 116.7Q240.1 116.1 239.8 115.7Q239.4 115.3 238.9 115.3L238.9 115.3Q238.3 115.3 238.0 115.7Q237.6 116.1 237.6 116.7L237.6 116.7ZM239.2 109.7L233.7 118.6L232.9 118.1L238.4 109.2L239.2 109.7Z "/><mask id="satori_om-id-1-9"><rect x="252" y="104" width="112" height="19" fill="#fff"/></mask><mask id="satori_om-id-1-9-0"><rect x="252" y="105" width="16" height="16" fill="#fff"/></mask><mask id="satori_om-id-1-9-0-0"><rect x="256" y="109" width="8" height="8" fill="#fff"/></mask><path x="256" y="109" width="8" height="8" fill="#ff5a03" d="M260,109 h0 a4,4 0 0 1 4,4 v0 a4,4 0 0 1 -4,4 h0 a4,4 0 0 1 -4,-4 v0 a4,4 0 0 1 4,-4"/><mask id="satori_om-id-1-9-1"><rect x="281" y="104" width="40" height="19" fill="#fff"/></mask><path fill="#24292f" d="M289.2 119.5L288.4 117.1L284.3 117.1L283.5 119.5L281.1 119.5L285.3 108.1L287.5 108.1L291.7 119.5L289.2 119.5ZM286.4 111.0L285.0 115.2L287.8 115.2L286.4 111.0ZM297.2 117.1L297.2 117.1Q297.2 116.7 296.8 116.5Q296.4 116.3 295.5 116.1L295.5 116.1Q292.5 115.4 292.5 113.5L292.5 113.5Q292.5 112.4 293.4 111.6Q294.3 110.9 295.8 110.9L295.8 110.9Q297.5 110.9 298.4 111.6Q299.4 112.4 299.4 113.6L299.4 113.6L297.1 113.6Q297.1 113.1 296.8 112.8Q296.5 112.5 295.8 112.5L295.8 112.5Q295.3 112.5 295.0 112.7Q294.6 113.0 294.6 113.4L294.6 113.4Q294.6 113.8 295.0 114.0Q295.4 114.2 296.2 114.4Q297.0 114.6 297.6 114.8L297.6 114.8Q299.4 115.4 299.4 117.1L299.4 117.1Q299.4 118.2 298.4 118.9Q297.4 119.6 295.9 119.6L295.9 119.6Q294.8 119.6 294.0 119.3Q293.1 118.9 292.7 118.2Q292.2 117.6 292.2 116.8L292.2 116.8L294.3 116.8Q294.4 117.4 294.8 117.7Q295.2 118.0 295.9 118.0L295.9 118.0Q296.5 118.0 296.9 117.8Q297.2 117.5 297.2 117.1ZM301.3 109.0L303.6 109.0L303.6 111.0L305.0 111.0L305.0 112.7L303.6 112.7L303.6 116.9Q303.6 117.4 303.7 117.6Q303.9 117.8 304.4 117.8L304.4 117.8Q304.8 117.8 305.1 117.7L305.1 117.7L305.1 119.4Q304.4 119.6 303.7 119.6L303.7 119.6Q301.4 119.6 301.3 117.2L301.3 117.2L301.3 112.7L300.1 112.7L300.1 111.0L301.3 111.0L301.3 109.0ZM311.0 111.0L311.0 113.1Q310.6 113.1 310.2 113.1L310.2 113.1Q308.9 113.1 308.5 114.0L308.5 114.0L308.5 119.5L306.3 119.5L306.3 111.0L308.4 111.0L308.5 112.0Q309.1 110.9 310.3 110.9L310.3 110.9Q310.7 110.9 311.0 111.0L311.0 111.0ZM311.5 115.3L311.5 115.2Q311.5 113.9 312.0 112.9Q312.4 112.0 313.3 111.4Q314.3 110.9 315.5 110.9L315.5 110.9Q317.2 110.9 318.3 111.9Q319.3 113.0 319.5 114.8L319.5 114.8L319.5 115.3Q319.5 117.3 318.4 118.5Q317.3 119.6 315.5 119.6Q313.6 119.6 312.6 118.5Q311.5 117.3 311.5 115.3L311.5 115.3ZM313.7 115.3L313.7 115.3Q313.7 116.5 314.2 117.2Q314.6 117.8 315.5 117.8L315.5 117.8Q316.3 117.8 316.8 117.2Q317.2 116.6 317.2 115.2L317.2 115.2Q317.2 114.0 316.8 113.4Q316.3 112.7 315.5 112.7L315.5 112.7Q314.6 112.7 314.2 113.3Q313.7 114.0 313.7 115.3Z "/><mask id="satori_om-id-1-9-2"><rect x="330" y="104" width="34" height="19" fill="#fff"/></mask><path fill="#57606a" d="M335.7 108.1L335.7 119.5L334.2 119.5L334.2 109.9L331.3 110.9L331.3 109.6L335.5 108.1L335.7 108.1ZM340.1 118.7L340.1 118.7Q340.1 118.4 340.3 118.1Q340.6 117.9 341 117.9Q341.4 117.9 341.7 118.1Q341.9 118.4 341.9 118.7L341.9 118.7Q341.9 119.1 341.7 119.3Q341.4 119.6 341 119.6Q340.6 119.6 340.3 119.3Q340.1 119.1 340.1 118.7ZM351.0 111.1L351.0 111.1Q351.0 111.9 350.6 112.6Q350.1 113.3 349.4 113.6L349.4 113.6Q350.3 114.0 350.8 114.7Q351.3 115.5 351.3 116.4L351.3 116.4Q351.3 117.9 350.3 118.8Q349.3 119.6 347.7 119.6L347.7 119.6Q346.0 119.6 345.1 118.8Q344.1 117.9 344.1 116.4L344.1 116.4Q344.1 115.5 344.6 114.7Q345.1 114.0 346.0 113.6L346.0 113.6Q345.2 113.2 344.8 112.6Q344.3 111.9 344.3 111.1L344.3 111.1Q344.3 109.6 345.3 108.8Q346.2 108.0 347.7 108.0L347.7 108.0Q349.2 108.0 350.1 108.8Q351.0 109.6 351.0 111.1ZM349.9 116.4L349.9 116.4Q349.9 115.4 349.3 114.8Q348.6 114.2 347.7 114.2Q346.7 114.2 346.1 114.8Q345.5 115.4 345.5 116.4Q345.5 117.4 346.1 117.9Q346.7 118.5 347.7 118.5L347.7 118.5Q348.7 118.5 349.3 117.9Q349.9 117.3 349.9 116.4ZM347.7 109.1L347.7 109.1Q346.8 109.1 346.3 109.7Q345.8 110.2 345.8 111.1L345.8 111.1Q345.8 112.0 346.3 112.5Q346.8 113.0 347.7 113.0Q348.6 113.0 349.1 112.5Q349.6 112.0 349.6 111.1Q349.6 110.2 349.1 109.7Q348.5 109.1 347.7 109.1ZM353 110.8L353 110.3Q353 109.3 353.7 108.6Q354.3 107.9 355.3 107.9L355.3 107.9Q356.4 107.9 357.0 108.6Q357.7 109.3 357.7 110.3L357.7 110.3L357.7 110.9Q357.7 111.9 357.0 112.6Q356.4 113.2 355.3 113.2L355.3 113.2Q354.3 113.2 353.7 112.6Q353 111.9 353 110.8L353 110.8ZM354.1 110.3L354.1 110.9Q354.1 111.5 354.4 111.9Q354.8 112.3 355.3 112.3L355.3 112.3Q355.9 112.3 356.2 111.9Q356.6 111.5 356.6 110.9L356.6 110.9L356.6 110.3Q356.6 109.7 356.2 109.3Q355.9 108.9 355.3 108.9Q354.8 108.9 354.4 109.3Q354.1 109.7 354.1 110.3L354.1 110.3ZM358.5 117.3L358.5 116.7Q358.5 115.7 359.2 115.0Q359.8 114.4 360.9 114.4Q361.9 114.4 362.5 115.0Q363.2 115.7 363.2 116.7L363.2 116.7L363.2 117.3Q363.2 118.3 362.6 119.0Q361.9 119.6 360.9 119.6Q359.9 119.6 359.2 119.0Q358.5 118.3 358.5 117.3L358.5 117.3ZM359.6 116.7L359.6 117.3Q359.6 117.9 360.0 118.3Q360.3 118.7 360.9 118.7L360.9 118.7Q361.4 118.7 361.8 118.3Q362.1 117.9 362.1 117.3L362.1 117.3L362.1 116.7Q362.1 116.1 361.8 115.7Q361.4 115.3 360.9 115.3L360.9 115.3Q360.3 115.3 360.0 115.7Q359.6 116.1 359.6 116.7L359.6 116.7ZM361.2 109.7L355.7 118.6L354.9 118.1L360.4 109.2L361.2 109.7Z "/></svg>