<svg width="375" height="200" viewBox="0 0 375 200" xmlns="http://www.w3.org/2000/svg"><mask id="satori_om-id"><rect x="0" y="0" width="375" height="124" fill="#fff"/></mask><clipPath id="satori_cp-id-0"><path x="0" y="0" width="375" height="8" d="M4,0 h367 a4,4 0 0 1 4,4 v0 a4,4 0 0 1 -4,4 h-367 a4,4 0 0 1 -4,-4 v0 a4,4 0 0 1 4,-4"/></clipPath><mask id="satori_om-id-0"><rect x="0" y="0" width="375" height="8" fill="#fff"/></mask><mask id="satori_om-id-0-0"><rect x="0" y="0" width="145" height="8" fill="#fff" mask="url(#satori_om-id-0)"/></mask><rect x="0" y="0" width="145" height="8" fill="#3178c6" clip-path="url(#satori_cp-id-0)" mask="url(#satori_om-id-0)"/><mask id="satori_om-id-0-1"><rect x="145" y="0" width="52" height="8" fill="#fff" mask="url(#satori_om-id-0)"/></mask><rect x="145" y="0" width="52" height="8" fill="#00ADD8" clip-path="url(#satori_cp-id-0)" mask="url(#satori_om-id-0)"/><mask id="satori_om-id-0-2"><rect x="197" y="0" width="51" height="8" fill="#fff" mask="url(#satori_om-id-0)"/></mask><rect x="197" y="0" width="51" height="8" fill="#3572A5" clip-path="url(#satori_cp-id-0)" mask="url(#satori_om-id-0)"/><mask id="satori_om-id-0-3"><rect x="248" y="0" width="26" height="8" fill="#fff" mask="url(#satori_om-id-0)"/></mask><rect x="248" y="0" width="26" height="8" fill="#844FBA" clip-path="url(#satori_cp-id-0)" mask="url(#satori_om-id-0)"/><mask id="satori_om-id-0-4"><rect x="274" y="0" width="15" height="8" fill="#fff" mask="url(#satori_om-id-0)"/></mask><rect x="274" y="0" width="15" height="8" fill="#dea584" clip-path="url(#satori_cp-id-0)" mask="url(#satori_om-id-0)"/><mask id="satori_om-id-0-5"><rect x="289" y="0" width="14" height="8" fill="#fff" mask="url(#satori_om-id-0)"/></mask><rect x="289" y="0" width="14" height="8" fill="#A97BFF" clip-path="url(#satori_cp-id-0)" mask="url(#satori_om-id-0)"/><mask id="satori_om-id-0-6"><rect x="303" y="0" width="14" height="8" fill="#fff" mask="url(#satori_om-id-0)"/></mask><rect x="303" y="0" width="14" height="8" fill="#ff3e00" clip-path="url(#satori_cp-id-0)" mask="url(#satori_om-id-0)"/><mask id="satori_om-id-0-7"><rect x="317" y="0" width="13" height="8" fill="#fff" mask="url(#satori_om-id-0)"/></mask><rect x="317" y="0" width="13" height="8" fill="#701516" clip-path="url(#satori_cp-id-0)" mask="url(#satori_om-id-0)"/><mask id="satori_om-id-0-8"><rect x="330" y="0" width="12" height="8" fill="#fff" mask="url(#satori_om-id-0)"/></mask><rect x="330" y="0" width="12" height="8" fill="#f1e05a" clip-path="url(#satori_cp-id-0)" mask="url(#satori_om-id-0)"/><mask id="satori_om-id-0-9"><rect x="342" y="0" width="10" height="8" fill="#fff" mask="url(#satori_om-id-0)"/></mask><rect x="342" y="0" width="10" height="8" fill="#e34c26" clip-path="url(#satori_cp-id-0)" mask="url(#satori_om-id-0)"/><mask id="satori_om-id-1"><rect x="0" y="18" width="375" height="106" fill="#fff"/></mask><mask id="satori_om-id-1-0"><rect x="0" y="18" width="160" height="19" fill="#fff"/></mask><mask id="satori_om-id-1-0-0"><rect x="0" y="20" width="16" height="16" fill="#fff"/></mask><mask id="satori_om-id-1-0-0-0"><rect x="4" y="24" width="8" height="8" fill="#fff"/></mask><path x="4" y="24" width="8" height="8" fill="#3178c6" d="M8,24 h0 a4,4 0 0 1 4,4 v0 a4,4 0 0 1 -4,4 h0 a4,4 0 0 1 -4,-4 v0 a4,4 0 0 1 4,-4"/><mask id="satori_om-id-1-0-1"><rect x="29" y="18" width="79" height="19" fill="#fff"/></mask><g  ><path fill="#24292f" d="M38.6 21.6L38.6 23.5L35.1 23.5L35.1 33L32.8 33L32.8 23.5L29.3 23.5L29.3 21.6L38.6 21.6ZM40.7 24.5L42.3 29.8L43.8 24.5L46.3 24.5L42.9 34.3L42.7 34.8Q41.9 36.4 40.2 36.4L40.2 36.4Q39.7 36.4 39.2 36.3L39.2 36.3L39.2 34.6L39.5 34.6Q40.2 34.6 40.5 34.4Q40.8 34.2 41.0 33.7L41.0 33.7L41.2 33.0L38.3 24.5L40.7 24.5ZM54.8 28.7L54.8 28.9Q54.8 30.8 53.9 32.0Q53.0 33.2 51.5 33.2L51.5 33.2Q50.2 33.2 49.4 32.3L49.4 32.3L49.4 36.3L47.2 36.3L47.2 24.5L49.3 24.5L49.3 25.4Q50.1 24.4 51.5 24.4L51.5 24.4Q53.0 24.4 53.9 25.5Q54.8 26.7 54.8 28.7L54.8 28.7ZM52.5 28.7L52.5 28.7Q52.5 27.5 52.1 26.9Q51.7 26.2 50.9 26.2L50.9 26.2Q49.8 26.2 49.4 27.0L49.4 27.0L49.4 30.5Q49.8 31.3 50.9 31.3L50.9 31.3Q52.5 31.3 52.5 28.7ZM60.1 33.2L60.1 33.2Q58.2 33.2 57.0 32.0Q55.9 30.9 55.9 29.0L55.9 29.0L55.9 28.8Q55.9 27.5 56.4 26.5Q56.8 25.5 57.7 24.9Q58.6 24.4 59.8 24.4L59.8 24.4Q61.5 24.4 62.5 25.5Q63.5 26.6 63.5 28.6L63.5 28.6L63.5 29.5L58.1 29.5Q58.3 30.3 58.8 30.8Q59.4 31.3 60.2 31.3L60.2 31.3Q61.5 31.3 62.2 30.4L62.2 30.4L63.4 31.6Q62.8 32.4 62.0 32.8Q61.1 33.2 60.1 33.2ZM59.8 26.2L59.8 26.2Q59.1 26.2 58.7 26.7Q58.3 27.1 58.2 28.0L58.2 28.0L61.3 28.0L61.3 27.8Q61.3 27.0 60.9 26.6Q60.5 26.2 59.8 26.2ZM70.9 30.0L70.9 30.0Q70.9 29.4 70.4 29.0Q69.9 28.6 68.7 28.2Q67.5 27.9 66.8 27.5L66.8 27.5Q64.8 26.4 64.8 24.6L64.8 24.6Q64.8 23.7 65.4 23.0Q65.9 22.3 66.8 21.9Q67.8 21.5 69.0 21.5L69.0 21.5Q70.3 21.5 71.2 21.9Q72.2 22.4 72.7 23.2Q73.2 24.0 73.2 25.0L73.2 25.0L70.9 25.0Q70.9 24.2 70.4 23.8Q69.9 23.3 69.0 23.3L69.0 23.3Q68.1 23.3 67.7 23.7Q67.2 24.1 67.2 24.7L67.2 24.7Q67.2 25.2 67.7 25.6Q68.3 26.0 69.4 26.3L69.4 26.3Q71.4 26.9 72.3 27.8Q73.2 28.7 73.2 30L73.2 30Q73.2 31.5 72.1 32.3Q71.0 33.2 69.1 33.2L69.1 33.2Q67.8 33.2 66.7 32.7Q65.6 32.2 65.1 31.4Q64.5 30.5 64.5 29.4L64.5 29.4L66.8 29.4Q66.8 31.3 69.1 31.3L69.1 31.3Q69.9 31.3 70.4 31.0Q70.9 30.6 70.9 30.0ZM78.2 31.3L78.2 31.3Q78.8 31.3 79.2 31.0Q79.6 30.6 79.6 30.1L79.6 30.1L81.7 30.1Q81.7 30.9 81.2 31.7Q80.8 32.4 80.0 32.8Q79.2 33.2 78.2 33.2L78.2 33.2Q76.4 33.2 75.3 32.0Q74.3 30.9 74.3 28.8L74.3 28.8L74.3 28.7Q74.3 26.7 75.3 25.6Q76.4 24.4 78.2 24.4L78.2 24.4Q79.8 24.4 80.7 25.3Q81.7 26.2 81.7 27.7L81.7 27.7L79.6 27.7Q79.6 27.0 79.2 26.6Q78.8 26.2 78.1 26.2L78.1 26.2Q77.4 26.2 77.0 26.8Q76.6 27.4 76.6 28.7L76.6 28.7L76.6 28.9Q76.6 30.2 77.0 30.8Q77.4 31.3 78.2 31.3ZM87.8 24.5L87.7 26.7Q87.3 26.6 86.9 26.6L86.9 26.6Q85.6 26.6 85.3 27.5L85.3 27.5L85.3 33L83.0 33L83.0 24.5L85.1 24.5L85.2 25.6Q85.9 24.4 87.1 24.4L87.1 24.4Q87.4 24.4 87.8 24.5L87.8 24.5ZM91.2 24.5L91.2 33L88.9 33L88.9 24.5L91.2 24.5ZM88.8 22.4L88.8 22.4Q88.8 21.9 89.2 21.5Q89.5 21.2 90.1 21.2L90.1 21.2Q90.7 21.2 91 21.5Q91.3 21.9 91.3 22.4L91.3 22.4Q91.3 22.9 91.0 23.2Q90.6 23.5 90.1 23.5Q89.5 23.5 89.2 23.2Q88.8 22.9 88.8 22.4ZM100.7 28.7L100.7 28.9Q100.7 30.8 99.8 32.0Q98.9 33.2 97.4 33.2L97.4 33.2Q96.1 33.2 95.3 32.3L95.3 32.3L95.3 36.3L93.1 36.3L93.1 24.5L95.2 24.5L95.2 25.4Q96.1 24.4 97.4 24.4L97.4 24.4Q98.9 24.4 99.8 25.5Q100.7 26.7 100.7 28.7L100.7 28.7ZM98.4 28.7L98.4 28.7Q98.4 27.5 98.0 26.9Q97.6 26.2 96.8 26.2L96.8 26.2Q95.7 26.2 95.3 27.0L95.3 27.0L95.3 30.5Q95.7 31.3 96.8 31.3L96.8 31.3Q98.4 31.3 98.4 28.7ZM102.5 22.5L104.8 22.5L104.8 24.5L106.2 24.5L106.2 26.2L104.8 26.2L104.8 30.4Q104.8 30.9 105.0 31.1Q105.1 31.3 105.6 31.3L105.6 31.3Q106.0 31.3 106.3 31.2L106.3 31.2L106.3 33.0Q105.6 33.2 104.9 33.2L104.9 33.2Q102.6 33.2 102.5 30.8L102.5 30.8L102.5 26.2L101.3 26.2L101.3 24.5L102.5 24.5L102.5 22.5Z "/></g><mask id="satori_om-id-1-0-2"><rect x="117" y="18" width="43" height="19" fill="#fff"/></mask><g  ><path fill="#57606a" d="M120.0 27.8L120.0 26.6L121.1 26.6Q122.2 26.6 122.7 26.1Q123.3 25.5 123.3 24.7L123.3 24.7Q123.3 22.7 121.3 22.7L121.3 22.7Q120.4 22.7 119.8 23.2Q119.3 23.7 119.3 24.6L119.3 24.6L117.8 24.6Q117.8 23.3 118.8 22.4Q119.8 21.5 121.3 21.5L121.3 21.5Q122.9 21.5 123.9 22.3Q124.8 23.2 124.8 24.7L124.8 24.7Q124.8 25.4 124.3 26.1Q123.8 26.8 123.0 27.2L123.0 27.2Q123.9 27.5 124.4 28.1Q124.9 28.8 124.9 29.8L124.9 29.8Q124.9 31.4 123.9 32.3Q122.9 33.2 121.3 33.2Q119.7 33.2 118.7 32.3Q117.7 31.4 117.7 30L117.7 30L119.2 30Q119.2 30.9 119.8 31.4Q120.4 32.0 121.3 32.0L121.3 32.0Q122.4 32.0 122.9 31.4Q123.5 30.9 123.5 29.9L123.5 29.9Q123.5 28.9 122.9 28.3Q122.3 27.8 121.1 27.8L121.1 27.8L120.0 27.8ZM133.8 24.6L133.8 24.6Q133.8 25.4 133.4 26.1Q132.9 26.8 132.2 27.1L132.2 27.1Q133.1 27.5 133.6 28.3Q134.1 29 134.1 29.9L134.1 29.9Q134.1 31.4 133.1 32.3Q132.1 33.2 130.5 33.2L130.5 33.2Q128.8 33.2 127.8 32.3Q126.9 31.4 126.9 29.9L126.9 29.9Q126.9 29.0 127.4 28.3Q127.9 27.5 128.8 27.1L128.8 27.1Q128 26.8 127.6 26.1Q127.1 25.4 127.1 24.6L127.1 24.6Q127.1 23.2 128.0 22.3Q129.0 21.5 130.5 21.5L130.5 21.5Q132.0 21.5 132.9 22.3Q133.8 23.2 133.8 24.6ZM132.6 29.9L132.6 29.9Q132.6 28.9 132.0 28.3Q131.4 27.7 130.5 27.7Q129.5 27.7 128.9 28.3Q128.3 28.9 128.3 29.9Q128.3 30.9 128.9 31.4Q129.5 32.0 130.5 32.0L130.5 32.0Q131.5 32.0 132.1 31.4Q132.6 30.9 132.6 29.9ZM130.5 22.7L130.5 22.7Q129.6 22.7 129.1 23.2Q128.6 23.7 128.6 24.6L128.6 24.6Q128.6 25.5 129.1 26.0Q129.6 26.6 130.5 26.6Q131.3 26.6 131.9 26.0Q132.4 25.5 132.4 24.6Q132.4 23.8 131.8 23.2Q131.3 22.7 130.5 22.7ZM136.1 32.2L136.1 32.2Q136.1 31.9 136.3 31.6Q136.5 31.4 137.0 31.4Q137.4 31.4 137.7 31.6Q137.9 31.9 137.9 32.2L137.9 32.2Q137.9 32.6 137.7 32.8Q137.4 33.1 137.0 33.1Q136.5 33.1 136.3 32.8Q136.1 32.6 136.1 32.2ZM145.5 21.6L145.8 21.6L145.8 22.8L145.5 22.8Q143.8 22.9 142.8 23.8Q141.8 24.8 141.7 26.6L141.7 26.6Q142.6 25.5 144.1 25.5L144.1 25.5Q145.6 25.5 146.5 26.6Q147.4 27.6 147.4 29.3L147.4 29.3Q147.4 31.0 146.4 32.1Q145.5 33.2 143.9 33.2L143.9 33.2Q142.2 33.2 141.2 31.9Q140.2 30.6 140.2 28.7L140.2 28.7L140.2 28.1Q140.2 25.0 141.6 23.3Q142.9 21.7 145.5 21.6L145.5 21.6ZM143.9 26.7L143.9 26.7Q143.2 26.7 142.5 27.2Q141.9 27.6 141.7 28.3L141.7 28.3L141.7 28.8Q141.7 30.2 142.3 31.1Q142.9 32.0 143.9 32.0L143.9 32.0Q144.9 32.0 145.4 31.2Q146.0 30.5 146.0 29.4L146.0 29.4Q146.0 28.2 145.4 27.5Q144.8 26.7 143.9 26.7ZM149.0 24.4L149.0 23.8Q149.0 22.8 149.6 22.1Q150.3 21.5 151.3 21.5L151.3 21.5Q152.4 21.5 153.0 22.1Q153.6 22.8 153.6 23.9L153.6 23.9L153.6 24.4Q153.6 25.4 153.0 26.1Q152.3 26.8 151.3 26.8L151.3 26.8Q150.3 26.8 149.6 26.1Q149.0 25.4 149.0 24.4L149.0 24.4ZM150.1 23.8L150.1 24.4Q150.1 25.0 150.4 25.4Q150.8 25.8 151.3 25.8L151.3 25.8Q151.9 25.8 152.2 25.4Q152.6 25.0 152.6 24.4L152.6 24.4L152.6 23.8Q152.6 23.2 152.2 22.8Q151.9 22.4 151.3 22.4Q150.7 22.4 150.4 22.8Q150.1 23.2 150.1 23.8L150.1 23.8ZM154.5 30.8L154.5 30.2Q154.5 29.2 155.2 28.5Q155.8 27.9 156.9 27.9Q157.9 27.9 158.5 28.5Q159.2 29.2 159.2 30.3L159.2 30.3L159.2 30.8Q159.2 31.8 158.5 32.5Q157.9 33.2 156.9 33.2Q155.9 33.2 155.2 32.5Q154.5 31.9 154.5 30.8L154.5 30.8ZM155.6 30.2L155.6 30.8Q155.6 31.4 155.9 31.8Q156.3 32.2 156.9 32.2L156.9 32.2Q157.4 32.2 157.8 31.8Q158.1 31.5 158.1 30.8L158.1 30.8L158.1 30.2Q158.1 29.6 157.8 29.2Q157.4 28.8 156.9 28.8L156.9 28.8Q156.3 28.8 155.9 29.2Q155.6 29.6 155.6 30.2L155.6 30.2ZM157.2 23.3L151.7 32.1L150.8 31.6L156.4 22.7L157.2 23.3Z "/></g><mask id="satori_om-id-1-1"><rect x="170" y="18" width="101" height="19" fill="#fff"/></mask><mask id="satori_om-id-1-1-0"><rect x="170" y="20" width="16" height="16" fill="#fff"/></mask><mask id="satori_om-id-1-1-0-0"><rect x="174" y="24" width="8" height="8" fill="#fff"/></mask><path x="174" y="24" width="8" height="8" fill="#00ADD8" d="M178,24 h0 a4,4 0 0 1 4,4 v0 a4,4 0 0 1 -4,4 h0 a4,4 0 0 1 -4,-4 v0 a4,4 0 0 1 4,-4"/><mask id="satori_om-id-1-1-1"><rect x="199" y="18" width="20" height="19" fill="#fff"/></mask><g  ><path fill="#24292f" d="M209.0 27.0L209.0 31.6Q208.4 32.3 207.2 32.7Q206.1 33.2 204.7 33.2L204.7 33.2Q203.2 33.2 202.1 32.5Q201.0 31.9 200.4 30.6Q199.8 29.4 199.7 27.8L199.7 27.8L199.7 27.0Q199.7 25.3 200.3 24.0Q200.9 22.8 202.0 22.1Q203.0 21.5 204.5 21.5L204.5 21.5Q206.5 21.5 207.7 22.4Q208.8 23.4 209.0 25.2L209.0 25.2L206.7 25.2Q206.6 24.3 206.0 23.8Q205.5 23.4 204.6 23.4L204.6 23.4Q203.4 23.4 202.8 24.3Q202.1 25.2 202.1 26.9L202.1 26.9L202.1 27.7Q202.1 29.4 202.8 30.4Q203.5 31.3 204.8 31.3L204.8 31.3Q206.1 31.3 206.7 30.7L206.7 30.7L206.7 28.8L204.5 28.8L204.5 27.0L209.0 27.0ZM210.4 28.8L210.4 28.7Q210.4 27.4 210.9 26.5Q211.4 25.5 212.3 24.9Q213.2 24.4 214.4 24.4L214.4 24.4Q216.1 24.4 217.2 25.4Q218.3 26.5 218.4 28.3L218.4 28.3L218.4 28.9Q218.4 30.8 217.3 32.0Q216.3 33.2 214.4 33.2Q212.6 33.2 211.5 32.0Q210.4 30.8 210.4 28.8L210.4 28.8ZM212.7 28.9L212.7 28.9Q212.7 30.1 213.1 30.7Q213.6 31.3 214.4 31.3L214.4 31.3Q215.2 31.3 215.7 30.7Q216.2 30.1 216.2 28.7L216.2 28.7Q216.2 27.5 215.7 26.9Q215.2 26.2 214.4 26.2L214.4 26.2Q213.6 26.2 213.1 26.9Q212.7 27.5 212.7 28.9Z "/></g><mask id="satori_om-id-1-1-2"><rect x="228" y="18" width="43" height="19" fill="#fff"/></mask><g  ><path fill="#57606a" d="M233.7 21.6L233.7 33L232.2 33L232.2 23.4L229.3 24.4L229.3 23.1L233.5 21.6L233.7 21.6ZM240.0 27.8L240.0 26.6L241.1 26.6Q242.1 26.6 242.7 26.1Q243.3 25.5 243.3 24.7L243.3 24.7Q243.3 22.7 241.3 22.7L241.3 22.7Q240.4 22.7 239.8 23.2Q239.3 23.7 239.3 24.6L239.3 24.6L237.8 24.6Q237.8 23.3 238.8 22.4Q239.8 21.5 241.3 21.5L241.3 21.5Q242.9 21.5 243.8 22.3Q244.8 23.2 244.8 24.7L244.8 24.7Q244.8 25.4 244.3 26.1Q243.8 26.8 243.0 27.2L243.0 27.2Q243.9 27.5 244.4 28.1Q244.9 28.8 244.9 29.8L244.9 29.8Q244.9 31.4 243.9 32.3Q242.9 33.2 241.3 33.2Q239.7 33.2 238.7 32.3Q237.7 31.4 237.7 30L237.7 30L239.2 30Q239.2 30.9 239.8 31.4Q240.3 32.0 241.3 32.0L241.3 32.0Q242.4 32.0 242.9 31.4Q243.5 30.9 243.5 29.9L243.5 29.9Q243.5 28.9 242.9 28.3Q242.3 27.8 241.1 27.8L241.1 27.8L240.0 27.8ZM247.1 32.2L247.1 32.2Q247.1 31.9 247.3 31.6Q247.5 31.4 248.0 31.4Q248.4 31.4 248.7 31.6Q248.9 31.9 248.9 32.2L248.9 32.2Q248.9 32.6 248.7 32.8Q248.4 33.1 248.0 33.1Q247.5 33.1 247.3 32.8Q247.1 32.6 247.1 32.2ZM256.7 28L256.7 28Q256.2 28.5 255.6 28.9Q255.0 29.2 254.2 29.2L254.2 29.2Q253.2 29.2 252.5 28.7Q251.8 28.2 251.4 27.3Q251.0 26.5 251.0 25.4L251.0 25.4Q251.0 24.3 251.4 23.4Q251.8 22.4 252.6 22.0Q253.4 21.5 254.5 21.5L254.5 21.5Q256.2 21.5 257.1 22.7Q258.1 24.0 258.1 26.2L258.1 26.2L258.1 26.6Q258.1 29.9 256.8 31.4Q255.5 33.0 252.8 33.0L252.8 33.0L252.6 33.0L252.6 31.8L252.9 31.8Q254.7 31.8 255.6 30.9Q256.6 30.0 256.7 28ZM254.4 28L254.4 28Q255.2 28 255.8 27.6Q256.4 27.1 256.7 26.5L256.7 26.5L256.7 25.9Q256.7 24.5 256.1 23.6Q255.4 22.7 254.5 22.7L254.5 22.7Q253.5 22.7 253.0 23.4Q252.4 24.1 252.4 25.3L252.4 25.3Q252.4 26.5 252.9 27.2Q253.5 28 254.4 28ZM260.0 24.4L260.0 23.8Q260.0 22.8 260.6 22.1Q261.3 21.5 262.3 21.5L262.3 21.5Q263.4 21.5 264.0 22.1Q264.6 22.8 264.6 23.9L264.6 23.9L264.6 24.4Q264.6 25.4 264.0 26.1Q263.3 26.8 262.3 26.8L262.3 26.8Q261.3 26.8 260.6 26.1Q260.0 25.4 260.0 24.4L260.0 24.4ZM261.1 23.8L261.1 24.4Q261.1 25.0 261.4 25.4Q261.8 25.8 262.3 25.8L262.3 25.8Q262.9 25.8 263.2 25.4Q263.6 25.0 263.6 24.4L263.6 24.4L263.6 23.8Q263.6 23.2 263.2 22.8Q262.9 22.4 262.3 22.4Q261.7 22.4 261.4 22.8Q261.1 23.2 261.1 23.8L261.1 23.8ZM265.5 30.8L265.5 30.2Q265.5 29.2 266.2 28.5Q266.8 27.9 267.9 27.9Q268.9 27.9 269.5 28.5Q270.2 29.2 270.2 30.3L270.2 30.3L270.2 30.8Q270.2 31.8 269.5 32.5Q268.9 33.2 267.9 33.2Q266.9 33.2 266.2 32.5Q265.5 31.9 265.5 30.8L265.5 30.8ZM266.6 30.2L266.6 30.8Q266.6 31.4 266.9 31.8Q267.3 32.2 267.9 32.2L267.9 32.2Q268.4 32.2 268.8 31.8Q269.1 31.5 269.1 30.8L269.1 30.8L269.1 30.2Q269.1 29.6 268.8 29.2Q268.4 28.8 267.9 28.8L267.9 28.8Q267.3 28.8 266.9 29.2Q266.6 29.6 266.6 30.2L266.6 30.2ZM268.2 23.3L262.7 32.1L261.8 31.6L267.4 22.7L268.2 23.3Z "/></g><mask id="satori_om-id-1-2"><rect x="0" y="47" width="132" height="19" fill="#fff"/></mask><mask id="satori_om-id-1-2-0"><rect x="0" y="49" width="16" height="16" fill="#fff"/></mask><mask id="satori_om-id-1-2-0-0"><rect x="4" y="53" width="8" height="8" fill="#fff"/></mask><path x="4" y="53" width="8" height="8" fill="#3572A5" d="M8,53 h0 a4,4 0 0 1 4,4 v0 a4,4 0 0 1 -4,4 h0 a4,4 0 0 1 -4,-4 v0 a4,4 0 0 1 4,-4"/><mask id="satori_om-id-1-2-1"><rect x="29" y="47" width="51" height="19" fill="#fff"/></mask><g  ><path fill="#24292f" d="M34.4 58.0L32.4 58.0L32.4 62L30.0 62L30.0 50.6L34.5 50.6Q35.7 50.6 36.7 51.1Q37.7 51.6 38.2 52.4Q38.7 53.3 38.7 54.4L38.7 54.4Q38.7 56.1 37.6 57.0Q36.4 58.0 34.4 58.0L34.4 58.0ZM32.4 52.5L32.4 56.1L34.5 56.1Q35.4 56.1 35.9 55.7Q36.4 55.2 36.4 54.4L36.4 54.4Q36.4 53.6 35.9 53.1Q35.4 52.5 34.5 52.5L34.5 52.5L32.4 52.5ZM41.9 53.5L43.5 58.8L45.0 53.5L47.4 53.5L44.0 63.3L43.9 63.8Q43.1 65.4 41.4 65.4L41.4 65.4Q40.9 65.4 40.4 65.3L40.4 65.3L40.4 63.6L40.7 63.6Q41.3 63.6 41.7 63.4Q42.0 63.2 42.2 62.7L42.2 62.7L42.4 62.0L39.5 53.5L41.9 53.5ZM48.8 51.5L51.0 51.5L51.0 53.5L52.5 53.5L52.5 55.2L51.0 55.2L51.0 59.4Q51.0 59.9 51.2 60.1Q51.4 60.3 51.9 60.3L51.9 60.3Q52.3 60.3 52.6 60.2L52.6 60.2L52.6 62.0Q51.9 62.2 51.2 62.2L51.2 62.2Q48.8 62.2 48.8 59.8L48.8 59.8L48.8 55.2L47.5 55.2L47.5 53.5L48.8 53.5L48.8 51.5ZM55.9 50L55.9 54.5Q56.8 53.4 58.2 53.4L58.2 53.4Q61.0 53.4 61.0 56.6L61.0 56.6L61.0 62L58.7 62L58.7 56.6Q58.7 55.9 58.4 55.6Q58.1 55.2 57.4 55.2L57.4 55.2Q56.4 55.2 55.9 56.0L55.9 56.0L55.9 62L53.7 62L53.7 50L55.9 50ZM62.3 57.8L62.3 57.7Q62.3 56.4 62.8 55.5Q63.3 54.5 64.2 53.9Q65.1 53.4 66.3 53.4L66.3 53.4Q68.0 53.4 69.1 54.4Q70.2 55.5 70.3 57.3L70.3 57.3L70.4 57.9Q70.4 59.8 69.3 61.0Q68.2 62.2 66.4 62.2Q64.5 62.2 63.4 61.0Q62.3 59.8 62.3 57.8L62.3 57.8ZM64.6 57.9L64.6 57.9Q64.6 59.1 65.1 59.7Q65.5 60.3 66.4 60.3L66.4 60.3Q67.2 60.3 67.6 59.7Q68.1 59.1 68.1 57.7L68.1 57.7Q68.1 56.5 67.6 55.9Q67.2 55.2 66.3 55.2L66.3 55.2Q65.5 55.2 65.1 55.9Q64.6 56.5 64.6 57.9ZM71.7 53.5L73.8 53.5L73.9 54.5Q74.8 53.4 76.3 53.4L76.3 53.4Q77.7 53.4 78.3 54.2Q79.0 55.0 79.0 56.5L79.0 56.5L79.0 62L76.7 62L76.7 56.6Q76.7 55.9 76.4 55.6Q76.1 55.2 75.4 55.2L75.4 55.2Q74.4 55.2 74.0 56.0L74.0 56.0L74.0 62L71.7 62L71.7 53.5Z "/></g><mask id="satori_om-id-1-2-2"><rect x="89" y="47" width="43" height="19" fill="#fff"/></mask><g  ><path fill="#57606a" d="M94.7 50.6L94.7 62L93.2 62L93.2 52.4L90.3 53.4L90.3 52.1L94.5 50.6L94.7 50.6ZM101.0 56.8L101.0 55.6L102.1 55.6Q103.1 55.6 103.7 55.1Q104.3 54.5 104.3 53.7L104.3 53.7Q104.3 51.7 102.3 51.7L102.3 51.7Q101.4 51.7 100.8 52.2Q100.3 52.7 100.3 53.6L100.3 53.6L98.8 53.6Q98.8 52.3 99.8 51.4Q100.8 50.5 102.3 50.5L102.3 50.5Q103.9 50.5 104.8 51.3Q105.8 52.2 105.8 53.7L105.8 53.7Q105.8 54.4 105.3 55.1Q104.8 55.8 104.0 56.2L104.0 56.2Q104.9 56.5 105.4 57.1Q105.9 57.8 105.9 58.8L105.9 58.8Q105.9 60.4 104.9 61.3Q103.9 62.2 102.3 62.2Q100.7 62.2 99.7 61.3Q98.7 60.4 98.7 59L98.7 59L100.2 59Q100.2 59.9 100.8 60.4Q101.3 61.0 102.3 61.0L102.3 61.0Q103.4 61.0 103.9 60.4Q104.5 59.9 104.5 58.9L104.5 58.9Q104.5 57.9 103.9 57.3Q103.3 56.8 102.1 56.8L102.1 56.8L101.0 56.8ZM108.1 61.2L108.1 61.2Q108.1 60.9 108.3 60.6Q108.5 60.4 109.0 60.4Q109.4 60.4 109.7 60.6Q109.9 60.9 109.9 61.2L109.9 61.2Q109.9 61.6 109.7 61.8Q109.4 62.1 109.0 62.1Q108.5 62.1 108.3 61.8Q108.1 61.6 108.1 61.2ZM113.9 56.6L112.8 56.3L113.4 50.6L119.2 50.6L119.2 52.0L114.6 52.0L114.3 55.1Q115.1 54.6 116.1 54.6L116.1 54.6Q117.7 54.6 118.6 55.6Q119.5 56.6 119.5 58.4L119.5 58.4Q119.5 60.1 118.6 61.1Q117.6 62.2 115.9 62.2L115.9 62.2Q114.4 62.2 113.5 61.3Q112.5 60.5 112.4 59.0L112.4 59.0L113.8 59.0Q113.9 60.0 114.4 60.5Q115.0 61.0 115.9 61.0L115.9 61.0Q116.9 61.0 117.5 60.3Q118.1 59.6 118.1 58.4L118.1 58.4Q118.1 57.3 117.5 56.6Q116.8 55.9 115.8 55.9L115.8 55.9Q114.9 55.9 114.3 56.3L114.3 56.3L113.9 56.6ZM121.0 53.4L121.0 52.8Q121.0 51.8 121.6 51.1Q122.3 50.5 123.3 50.5L123.3 50.5Q124.4 50.5 125.0 51.1Q125.6 51.8 125.6 52.9L125.6 52.9L125.6 53.4Q125.6 54.4 125.0 55.1Q124.3 55.8 123.3 55.8L123.3 55.8Q122.3 55.8 121.6 55.1Q121.0 54.4 121.0 53.4L121.0 53.4ZM122.1 52.8L122.1 53.4Q122.1 54.0 122.4 54.4Q122.8 54.8 123.3 54.8L123.3 54.8Q123.9 54.8 124.2 54.4Q124.6 54.0 124.6 53.4L124.6 53.4L124.6 52.8Q124.6 52.2 124.2 51.8Q123.9 51.4 123.3 51.4Q122.7 51.4 122.4 51.8Q122.1 52.2 122.1 52.8L122.1 52.8ZM126.5 59.8L126.5 59.2Q126.5 58.2 127.2 57.5Q127.8 56.9 128.9 56.9Q129.9 56.9 130.5 57.5Q131.2 58.2 131.2 59.3L131.2 59.3L131.2 59.8Q131.2 60.8 130.5 61.5Q129.9 62.2 128.9 62.2Q127.9 62.2 127.2 61.5Q126.5 60.9 126.5 59.8L126.5 59.8ZM127.6 59.2L127.6 59.8Q127.6 60.4 127.9 60.8Q128.3 61.2 128.9 61.2L128.9 61.2Q129.4 61.2 129.8 60.8Q130.1 60.5 130.1 59.8L130.1 59.8L130.1 59.2Q130.1 58.6 129.8 58.2Q129.4 57.8 128.9 57.8L128.9 57.8Q128.3 57.8 127.9 58.2Q127.6 58.6 127.6 59.2L127.6 59.2ZM129.2 52.3L123.7 61.1L122.8 60.6L128.4 51.7L129.2 52.3Z "/></g><mask id="satori_om-id-1-3"><rect x="142" y="47" width="103" height="19" fill="#fff"/></mask><mask id="satori_om-id-1-3-0"><rect x="142" y="49" width="16" height="16" fill="#fff"/></mask><mask id="satori_om-id-1-3-0-0"><rect x="146" y="53" width="8" height="8" fill="#fff"/></mask><path x="146" y="53" width="8" height="8" fill="#844FBA" d="M150,53 h0 a4,4 0 0 1 4,4 v0 a4,4 0 0 1 -4,4 h0 a4,4 0 0 1 -4,-4 v0 a4,4 0 0 1 4,-4"/><mask id="satori_om-id-1-3-1"><rect x="171" y="47" width="31" height="19" fill="#fff"/></mask><g  ><path fill="#24292f" d="M181.3 50.6L181.3 62L178.9 62L178.9 57.1L174.4 57.1L174.4 62L172.0 62L172.0 50.6L174.4 50.6L174.4 55.2L178.9 55.2L178.9 50.6L181.3 50.6ZM189.9 58.2L192.3 58.2Q192.1 60.0 190.9 61.1Q189.7 62.2 187.7 62.2L187.7 62.2Q185.5 62.2 184.2 60.7Q183.0 59.2 183.0 56.6L183.0 56.6L183.0 55.9Q183.0 54.3 183.6 53.1Q184.1 51.8 185.2 51.1Q186.3 50.5 187.7 50.5L187.7 50.5Q189.7 50.5 190.9 51.5Q192.1 52.6 192.3 54.5L192.3 54.5L189.9 54.5Q189.8 53.4 189.3 52.9Q188.8 52.4 187.7 52.4L187.7 52.4Q186.5 52.4 185.9 53.2Q185.4 54.1 185.4 55.8L185.4 55.8L185.4 56.7Q185.4 58.5 185.9 59.4Q186.5 60.2 187.7 60.2L187.7 60.2Q188.8 60.2 189.3 59.7Q189.8 59.3 189.9 58.2L189.9 58.2ZM196.1 50.6L196.1 60.1L201.1 60.1L201.1 62L193.8 62L193.8 50.6L196.1 50.6Z "/></g><mask id="satori_om-id-1-3-2"><rect x="211" y="47" width="34" height="19" fill="#fff"/></mask><g  ><path fill="#57606a" d="M217.4 50.6L217.6 50.6L217.6 51.8L217.4 51.8Q215.7 51.9 214.7 52.8Q213.7 53.8 213.5 55.6L213.5 55.6Q214.4 54.5 216.0 54.5L216.0 54.5Q217.4 54.5 218.3 55.6Q219.2 56.6 219.2 58.3L219.2 58.3Q219.2 60.0 218.3 61.1Q217.3 62.2 215.7 62.2L215.7 62.2Q214.1 62.2 213.0 60.9Q212.0 59.6 212.0 57.7L212.0 57.7L212.0 57.1Q212.0 54.0 213.4 52.3Q214.7 50.7 217.4 50.6L217.4 50.6ZM215.7 55.7L215.7 55.7Q215.0 55.7 214.4 56.2Q213.7 56.6 213.5 57.3L213.5 57.3L213.5 57.8Q213.5 59.2 214.1 60.1Q214.8 61.0 215.7 61.0L215.7 61.0Q216.7 61.0 217.2 60.2Q217.8 59.5 217.8 58.4L217.8 58.4Q217.8 57.2 217.2 56.5Q216.7 55.7 215.7 55.7ZM221.1 61.2L221.1 61.2Q221.1 60.9 221.3 60.6Q221.6 60.4 222 60.4Q222.4 60.4 222.7 60.6Q222.9 60.9 222.9 61.2L222.9 61.2Q222.9 61.6 222.7 61.8Q222.4 62.1 222 62.1Q221.6 62.1 221.3 61.8Q221.1 61.6 221.1 61.2ZM230.7 57L230.7 57Q230.2 57.5 229.6 57.9Q229.0 58.2 228.2 58.2L228.2 58.2Q227.2 58.2 226.5 57.7Q225.8 57.2 225.4 56.3Q225.0 55.5 225.0 54.4L225.0 54.4Q225.0 53.3 225.4 52.4Q225.8 51.4 226.6 51.0Q227.4 50.5 228.5 50.5L228.5 50.5Q230.2 50.5 231.2 51.7Q232.1 53.0 232.1 55.2L232.1 55.2L232.1 55.6Q232.1 58.9 230.8 60.4Q229.5 62.0 226.9 62.0L226.9 62.0L226.6 62.0L226.6 60.8L226.9 60.8Q228.7 60.8 229.6 59.9Q230.6 59.0 230.7 57ZM228.5 57L228.5 57Q229.2 57 229.8 56.6Q230.4 56.1 230.7 55.5L230.7 55.5L230.7 54.9Q230.7 53.5 230.1 52.6Q229.5 51.7 228.5 51.7L228.5 51.7Q227.6 51.7 227.0 52.4Q226.4 53.1 226.4 54.3L226.4 54.3Q226.4 55.5 227.0 56.2Q227.5 57 228.5 57ZM234 53.4L234 52.8Q234 51.8 234.7 51.1Q235.3 50.5 236.3 50.5L236.3 50.5Q237.4 50.5 238.0 51.1Q238.7 51.8 238.7 52.9L238.7 52.9L238.7 53.4Q238.7 54.4 238.0 55.1Q237.4 55.8 236.3 55.8L236.3 55.8Q235.3 55.8 234.7 55.1Q234 54.4 234 53.4L234 53.4ZM235.1 52.8L235.1 53.4Q235.1 54.0 235.4 54.4Q235.8 54.8 236.3 54.8L236.3 54.8Q236.9 54.8 237.2 54.4Q237.6 54.0 237.6 53.4L237.6 53.4L237.6 52.8Q237.6 52.2 237.2 51.8Q236.9 51.4 236.3 51.4Q235.8 51.4 235.4 51.8Q235.1 52.2 235.1 52.8L235.1 52.8ZM239.5 59.8L239.5 59.2Q239.5 58.2 240.2 57.5Q240.8 56.9 241.9 56.9Q242.9 56.9 243.5 57.5Q244.2 58.2 244.2 59.3L244.2 59.3L244.2 59.8Q244.2 60.8 243.6 61.5Q242.9 62.2 241.9 62.2Q240.9 62.2 240.2 61.5Q239.5 60.9 239.5 59.8L239.5 59.8ZM240.6 59.2L240.6 59.8Q240.6 60.4 241.0 60.8Q241.3 61.2 241.9 61.2L241.9 61.2Q242.4 61.2 242.8 60.8Q243.1 60.5 243.1 59.8L243.1 59.8L243.1 59.2Q243.1 58.6 242.8 58.2Q242.4 57.8 241.9 57.8L241.9 57.8Q241.3 57.8 241.0 58.2Q240.6 58.6 240.6 59.2L240.6 59.2ZM242.2 52.3L236.7 61.1L235.9 60.6L241.4 51.7L242.2 52.3Z "/></g><mask id="satori_om-id-1-4"><rect x="255" y="47" width="105" height="19" fill="#fff"/></mask><mask id="satori_om-id-1-4-0"><rect x="255" y="49" width="16" height="16" fill="#fff"/></mask><mask id="satori_om-id-1-4-0-0"><rect x="259" y="53" width="8" height="8" fill="#fff"/></mask><path x="259" y="53" width="8" height="8" fill="#dea584" d="M263,53 h0 a4,4 0 0 1 4,4 v0 a4,4 0 0 1 -4,4 h0 a4,4 0 0 1 -4,-4 v0 a4,4 0 0 1 4,-4"/><mask id="satori_om-id-1-4-1"><rect x="284" y="47" width="33" height="19" fill="#fff"/></mask><g  ><path fill="#24292f" d="M291.4 62L289.2 57.8L287.4 57.8L287.4 62L285.0 62L285.0 50.6L289.2 50.6Q291.3 50.6 292.4 51.5Q293.4 52.4 293.4 54.1L293.4 54.1Q293.4 55.2 292.9 56.0Q292.4 56.8 291.4 57.2L291.4 57.2L293.9 61.9L293.9 62L291.4 62ZM287.4 52.5L287.4 55.9L289.3 55.9Q290.1 55.9 290.6 55.5Q291.1 55.0 291.1 54.3L291.1 54.3Q291.1 53.4 290.6 53.0Q290.2 52.5 289.2 52.5L289.2 52.5L287.4 52.5ZM300.2 62L300.1 61.1Q299.3 62.2 297.8 62.2L297.8 62.2Q296.5 62.2 295.8 61.4Q295.0 60.6 295.0 59.1L295.0 59.1L295.0 53.5L297.3 53.5L297.3 59.0Q297.3 60.3 298.5 60.3L298.5 60.3Q299.6 60.3 300.1 59.5L300.1 59.5L300.1 53.5L302.3 53.5L302.3 62L300.2 62ZM308.6 59.7L308.6 59.7Q308.6 59.3 308.2 59.0Q307.8 58.8 306.9 58.6L306.9 58.6Q303.9 58.0 303.9 56.0L303.9 56.0Q303.9 54.9 304.8 54.1Q305.7 53.4 307.2 53.4L307.2 53.4Q308.9 53.4 309.8 54.1Q310.8 54.9 310.8 56.1L310.8 56.1L308.5 56.1Q308.5 55.6 308.2 55.3Q307.9 55 307.2 55L307.2 55Q306.7 55 306.4 55.3Q306.0 55.5 306.0 55.9L306.0 55.9Q306.0 56.3 306.4 56.5Q306.8 56.8 307.6 56.9Q308.4 57.1 309.0 57.3L309.0 57.3Q310.8 58.0 310.8 59.6L310.8 59.6Q310.8 60.7 309.8 61.4Q308.8 62.2 307.3 62.2L307.3 62.2Q306.2 62.2 305.4 61.8Q304.5 61.4 304.1 60.7Q303.6 60.1 303.6 59.3L303.6 59.3L305.7 59.3Q305.8 59.9 306.2 60.2Q306.6 60.6 307.3 60.6L307.3 60.6Q307.9 60.6 308.3 60.3Q308.6 60.1 308.6 59.7ZM312.7 51.5L315.0 51.5L315.0 53.5L316.4 53.5L316.4 55.2L315.0 55.2L315.0 59.4Q315.0 59.9 315.1 60.1Q315.3 60.3 315.8 60.3L315.8 60.3Q316.2 60.3 316.5 60.2L316.5 60.2L316.5 62.0Q315.8 62.2 315.1 62.2L315.1 62.2Q312.8 62.2 312.7 59.8L312.7 59.8L312.7 55.2L311.5 55.2L311.5 53.5L312.7 53.5L312.7 51.5Z "/></g><mask id="satori_om-id-1-4-2"><rect x="326" y="47" width="34" height="19" fill="#fff"/></mask><g  ><path fill="#57606a" d="M333.0 50.6L333.0 58.2L334.6 58.2L334.6 59.4L333.0 59.4L333.0 62L331.6 62L331.6 59.4L326.4 59.4L326.4 58.5L331.5 50.6L333.0 50.6ZM331.4 52.9L328.1 58.2L331.6 58.2L331.6 52.6L331.4 52.9ZM336.1 61.2L336.1 61.2Q336.1 60.9 336.3 60.6Q336.6 60.4 337 60.4Q337.4 60.4 337.7 60.6Q337.9 60.9 337.9 61.2L337.9 61.2Q337.9 61.6 337.7 61.8Q337.4 62.1 337 62.1Q336.6 62.1 336.3 61.8Q336.1 61.6 336.1 61.2ZM347.3 55.3L347.3 57.1Q347.3 59.7 346.4 60.9Q345.5 62.2 343.7 62.2L343.7 62.2Q341.9 62.2 341 60.9Q340.1 59.7 340.1 57.3L340.1 57.3L340.1 55.4Q340.1 52.9 341.0 51.7Q341.8 50.5 343.7 50.5L343.7 50.5Q345.5 50.5 346.4 51.6Q347.3 52.8 347.3 55.3L347.3 55.3ZM345.8 57.5L345.8 55.2Q345.8 53.3 345.3 52.5Q344.8 51.7 343.7 51.7L343.7 51.7Q342.6 51.7 342.1 52.5Q341.6 53.3 341.5 55.1L341.5 55.1L341.5 57.4Q341.5 59.2 342.1 60.1Q342.6 61.0 343.7 61.0L343.7 61.0Q344.8 61.0 345.3 60.1Q345.8 59.3 345.8 57.5L345.8 57.5ZM349 53.4L349 52.8Q349 51.8 349.7 51.1Q350.3 50.5 351.3 50.5L351.3 50.5Q352.4 50.5 353.0 51.1Q353.7 51.8 353.7 52.9L353.7 52.9L353.7 53.4Q353.7 54.4 353.0 55.1Q352.4 55.8 351.3 55.8L351.3 55.8Q350.3 55.8 349.7 55.1Q349 54.4 349 53.4L349 53.4ZM350.1 52.8L350.1 53.4Q350.1 54.0 350.4 54.4Q350.8 54.8 351.3 54.8L351.3 54.8Q351.9 54.8 352.2 54.4Q352.6 54.0 352.6 53.4L352.6 53.4L352.6 52.8Q352.6 52.2 352.2 51.8Q351.9 51.4 351.3 51.4Q350.8 51.4 350.4 51.8Q350.1 52.2 350.1 52.8L350.1 52.8ZM354.5 59.8L354.5 59.2Q354.5 58.2 355.2 57.5Q355.8 56.9 356.9 56.9Q357.9 56.9 358.5 57.5Q359.2 58.2 359.2 59.3L359.2 59.3L359.2 59.8Q359.2 60.8 358.6 61.5Q357.9 62.2 356.9 62.2Q355.9 62.2 355.2 61.5Q354.5 60.9 354.5 59.8L354.5 59.8ZM355.6 59.2L355.6 59.8Q355.6 60.4 356.0 60.8Q356.3 61.2 356.9 61.2L356.9 61.2Q357.4 61.2 357.8 60.8Q358.1 60.5 358.1 59.8L358.1 59.8L358.1 59.2Q358.1 58.6 357.8 58.2Q357.4 57.8 356.9 57.8L356.9 57.8Q356.3 57.8 356.0 58.2Q355.6 58.6 355.6 59.2L355.6 59.2ZM357.2 52.3L351.7 61.1L350.9 60.6L356.4 51.7L357.2 52.3Z "/></g><mask id="satori_om-id-1-5"><rect x="0" y="76" width="115" height="19" fill="#fff"/></mask><mask id="satori_om-id-1-5-0"><rect x="0" y="78" width="16" height="16" fill="#fff"/></mask><mask id="satori_om-id-1-5-0-0"><rect x="4" y="82" width="8" height="8" fill="#fff"/></mask><path x="4" y="82" width="8" height="8" fill="#A97BFF" d="M8,82 h0 a4,4 0 0 1 4,4 v0 a4,4 0 0 1 -4,4 h0 a4,4 0 0 1 -4,-4 v0 a4,4 0 0 1 4,-4"/><mask id="satori_om-id-1-5-1"><rect x="29" y="76" width="43" height="19" fill="#fff"/></mask><g  ><path fill="#24292f" d="M36.5 91L33.6 86.4L32.4 87.8L32.4 91L30.0 91L30.0 79.6L32.4 79.6L32.4 84.8L33.4 83.4L36.3 79.6L39.2 79.6L35.1 84.7L39.3 91L36.5 91ZM39.5 86.8L39.5 86.7Q39.5 85.4 39.9 84.5Q40.4 83.5 41.3 82.9Q42.3 82.4 43.5 82.4L43.5 82.4Q45.2 82.4 46.2 83.4Q47.3 84.5 47.5 86.3L47.5 86.3L47.5 86.9Q47.5 88.8 46.4 90.0Q45.3 91.2 43.5 91.2Q41.6 91.2 40.6 90.0Q39.5 88.8 39.5 86.8L39.5 86.8ZM41.7 86.9L41.7 86.9Q41.7 88.1 42.2 88.7Q42.6 89.3 43.5 89.3L43.5 89.3Q44.3 89.3 44.8 88.7Q45.2 88.1 45.2 86.7L45.2 86.7Q45.2 85.5 44.8 84.9Q44.3 84.2 43.5 84.2L43.5 84.2Q42.6 84.2 42.2 84.9Q41.7 85.5 41.7 86.9ZM49.3 80.5L51.6 80.5L51.6 82.5L53.0 82.5L53.0 84.2L51.6 84.2L51.6 88.4Q51.6 88.9 51.7 89.1Q51.9 89.3 52.4 89.3L52.4 89.3Q52.8 89.3 53.1 89.2L53.1 89.2L53.1 91.0Q52.4 91.2 51.7 91.2L51.7 91.2Q49.4 91.2 49.3 88.8L49.3 88.8L49.3 84.2L48.1 84.2L48.1 82.5L49.3 82.5L49.3 80.5ZM56.6 79L56.6 91L54.4 91L54.4 79L56.6 79ZM60.9 82.5L60.9 91L58.6 91L58.6 82.5L60.9 82.5ZM58.5 80.4L58.5 80.4Q58.5 79.9 58.8 79.5Q59.2 79.2 59.8 79.2L59.8 79.2Q60.3 79.2 60.7 79.5Q61.0 79.9 61.0 80.4L61.0 80.4Q61.0 80.9 60.7 81.2Q60.3 81.5 59.8 81.5Q59.2 81.5 58.8 81.2Q58.5 80.9 58.5 80.4ZM62.7 82.5L64.8 82.5L64.9 83.5Q65.8 82.4 67.3 82.4L67.3 82.4Q68.7 82.4 69.3 83.2Q70.0 84.0 70 85.5L70 85.5L70 91L67.7 91L67.7 85.6Q67.7 84.9 67.4 84.6Q67.1 84.2 66.4 84.2L66.4 84.2Q65.4 84.2 65.0 85.0L65.0 85.0L65.0 91L62.7 91L62.7 82.5Z "/></g><mask id="satori_om-id-1-5-2"><rect x="81" y="76" width="34" height="19" fill="#fff"/></mask><g  ><path fill="#57606a" d="M84.0 85.8L84.0 84.6L85.1 84.6Q86.2 84.6 86.7 84.1Q87.3 83.5 87.3 82.7L87.3 82.7Q87.3 80.7 85.3 80.7L85.3 80.7Q84.4 80.7 83.8 81.2Q83.3 81.7 83.3 82.6L83.3 82.6L81.8 82.6Q81.8 81.3 82.8 80.4Q83.8 79.5 85.3 79.5L85.3 79.5Q86.9 79.5 87.9 80.3Q88.8 81.2 88.8 82.7L88.8 82.7Q88.8 83.4 88.3 84.1Q87.8 84.8 87.0 85.2L87.0 85.2Q87.9 85.5 88.4 86.1Q88.9 86.8 88.9 87.8L88.9 87.8Q88.9 89.4 87.9 90.3Q86.9 91.2 85.3 91.2Q83.7 91.2 82.7 90.3Q81.7 89.4 81.7 88L81.7 88L83.2 88Q83.2 88.9 83.8 89.4Q84.4 90.0 85.3 90.0L85.3 90.0Q86.4 90.0 86.9 89.4Q87.5 88.9 87.5 87.9L87.5 87.9Q87.5 86.9 86.9 86.3Q86.3 85.8 85.1 85.8L85.1 85.8L84.0 85.8ZM91.1 90.2L91.1 90.2Q91.1 89.9 91.3 89.6Q91.6 89.4 92 89.4Q92.4 89.4 92.7 89.6Q92.9 89.9 92.9 90.2L92.9 90.2Q92.9 90.6 92.7 90.8Q92.4 91.1 92 91.1Q91.6 91.1 91.3 90.8Q91.1 90.6 91.1 90.2ZM102.5 79.6L102.5 80.4L97.8 91L96.3 91L101.0 80.8L94.8 80.8L94.8 79.6L102.5 79.6ZM104 82.4L104 81.8Q104 80.8 104.7 80.1Q105.3 79.5 106.3 79.5L106.3 79.5Q107.4 79.5 108.0 80.1Q108.7 80.8 108.7 81.9L108.7 81.9L108.7 82.4Q108.7 83.4 108.0 84.1Q107.4 84.8 106.3 84.8L106.3 84.8Q105.3 84.8 104.7 84.1Q104 83.4 104 82.4L104 82.4ZM105.1 81.8L105.1 82.4Q105.1 83.0 105.4 83.4Q105.8 83.8 106.3 83.8L106.3 83.8Q106.9 83.8 107.2 83.4Q107.6 83.0 107.6 82.4L107.6 82.4L107.6 81.8Q107.6 81.2 107.2 80.8Q106.9 80.4 106.3 80.4Q105.8 80.4 105.4 80.8Q105.1 81.2 105.1 81.8L105.1 81.8ZM109.5 88.8L109.5 88.2Q109.5 87.2 110.2 86.5Q110.8 85.9 111.9 85.9Q112.9 85.9 113.5 86.5Q114.2 87.2 114.2 88.3L114.2 88.3L114.2 88.8Q114.2 89.8 113.6 90.5Q112.9 91.2 111.9 91.2Q110.9 91.2 110.2 90.5Q109.5 89.9 109.5 88.8L109.5 88.8ZM110.6 88.2L110.6 88.8Q110.6 89.4 111.0 89.8Q111.3 90.2 111.9 90.2L111.9 90.2Q112.4 90.2 112.8 89.8Q113.1 89.5 113.1 88.8L113.1 88.8L113.1 88.2Q113.1 87.6 112.8 87.2Q112.4 86.8 111.9 86.8L111.9 86.8Q111.3 86.8 111.0 87.2Q110.6 87.6 110.6 88.2L110.6 88.2ZM112.2 81.3L106.7 90.1L105.9 89.6L111.4 80.7L112.2 81.3Z "/></g><mask id="satori_om-id-1-6"><rect x="125" y="76" width="117" height="19" fill="#fff"/></mask><mask id="satori_om-id-1-6-0"><rect x="125" y="78" width="16" height="16" fill="#fff"/></mask><mask id="satori_om-id-1-6-0-0"><rect x="129" y="82" width="8" height="8" fill="#fff"/></mask><path x="129" y="82" width="8" height="8" fill="#ff3e00" d="M133,82 h0 a4,4 0 0 1 4,4 v0 a4,4 0 0 1 -4,4 h0 a4,4 0 0 1 -4,-4 v0 a4,4 0 0 1 4,-4"/><mask id="satori_om-id-1-6-1"><rect x="154" y="76" width="45" height="19" fill="#fff"/></mask><g  ><path fill="#24292f" d="M160.9 88.0L160.9 88.0Q160.9 87.4 160.4 87.0Q160.0 86.6 158.8 86.2Q157.5 85.9 156.8 85.5L156.8 85.5Q154.9 84.4 154.9 82.6L154.9 82.6Q154.9 81.7 155.4 81.0Q155.9 80.3 156.9 79.9Q157.9 79.5 159.1 79.5L159.1 79.5Q160.3 79.5 161.3 79.9Q162.2 80.4 162.7 81.2Q163.3 82.0 163.3 83.0L163.3 83.0L160.9 83.0Q160.9 82.2 160.4 81.8Q159.9 81.3 159.0 81.3L159.0 81.3Q158.2 81.3 157.7 81.7Q157.2 82.1 157.2 82.7L157.2 82.7Q157.2 83.2 157.8 83.6Q158.4 84.0 159.4 84.3L159.4 84.3Q161.4 84.9 162.4 85.8Q163.3 86.7 163.3 88L163.3 88Q163.3 89.5 162.1 90.3Q161.0 91.2 159.1 91.2L159.1 91.2Q157.8 91.2 156.8 90.7Q155.7 90.2 155.1 89.4Q154.5 88.5 154.5 87.4L154.5 87.4L156.9 87.4Q156.9 89.3 159.1 89.3L159.1 89.3Q160.0 89.3 160.4 89.0Q160.9 88.6 160.9 88.0ZM166.3 82.5L167.9 88.2L169.4 82.5L171.8 82.5L168.9 91L166.8 91L163.9 82.5L166.3 82.5ZM176.6 91.2L176.6 91.2Q174.7 91.2 173.6 90.0Q172.4 88.9 172.4 87.0L172.4 87.0L172.4 86.8Q172.4 85.5 172.9 84.5Q173.4 83.5 174.3 82.9Q175.2 82.4 176.3 82.4L176.3 82.4Q178.1 82.4 179.1 83.5Q180.1 84.6 180.1 86.6L180.1 86.6L180.1 87.5L174.7 87.5Q174.8 88.3 175.3 88.8Q175.9 89.3 176.7 89.3L176.7 89.3Q178.0 89.3 178.8 88.4L178.8 88.4L179.9 89.6Q179.4 90.4 178.5 90.8Q177.6 91.2 176.6 91.2ZM176.3 84.2L176.3 84.2Q175.6 84.2 175.2 84.7Q174.8 85.1 174.7 86.0L174.7 86.0L177.8 86.0L177.8 85.8Q177.8 85.0 177.4 84.6Q177.0 84.2 176.3 84.2ZM183.7 79L183.7 91L181.5 91L181.5 79L183.7 79ZM186.0 80.5L188.3 80.5L188.3 82.5L189.7 82.5L189.7 84.2L188.3 84.2L188.3 88.4Q188.3 88.9 188.5 89.1Q188.6 89.3 189.1 89.3L189.1 89.3Q189.5 89.3 189.8 89.2L189.8 89.2L189.8 91.0Q189.1 91.2 188.4 91.2L188.4 91.2Q186.1 91.2 186.0 88.8L186.0 88.8L186.0 84.2L184.8 84.2L184.8 82.5L186.0 82.5L186.0 80.5ZM194.9 91.2L194.9 91.2Q193.0 91.2 191.8 90.0Q190.7 88.9 190.7 87.0L190.7 87.0L190.7 86.8Q190.7 85.5 191.2 84.5Q191.7 83.5 192.6 82.9Q193.5 82.4 194.6 82.4L194.6 82.4Q196.4 82.4 197.4 83.5Q198.4 84.6 198.4 86.6L198.4 86.6L198.4 87.5L193.0 87.5Q193.1 88.3 193.6 88.8Q194.2 89.3 195.0 89.3L195.0 89.3Q196.3 89.3 197.1 88.4L197.1 88.4L198.2 89.6Q197.7 90.4 196.8 90.8Q195.9 91.2 194.9 91.2ZM194.6 84.2L194.6 84.2Q193.9 84.2 193.5 84.7Q193.1 85.1 193.0 86.0L193.0 86.0L196.1 86.0L196.1 85.8Q196.1 85.0 195.7 84.6Q195.3 84.2 194.6 84.2Z "/></g><mask id="satori_om-id-1-6-2"><rect x="208" y="76" width="34" height="19" fill="#fff"/></mask><g  ><path fill="#57606a" d="M211.0 85.8L211.0 84.6L212.1 84.6Q213.2 84.6 213.7 84.1Q214.3 83.5 214.3 82.7L214.3 82.7Q214.3 80.7 212.3 80.7L212.3 80.7Q211.4 80.7 210.8 81.2Q210.3 81.7 210.3 82.6L210.3 82.6L208.8 82.6Q208.8 81.3 209.8 80.4Q210.8 79.5 212.3 79.5L212.3 79.5Q213.9 79.5 214.9 80.3Q215.8 81.2 215.8 82.7L215.8 82.7Q215.8 83.4 215.3 84.1Q214.8 84.8 214.0 85.2L214.0 85.2Q214.9 85.5 215.4 86.1Q215.9 86.8 215.9 87.8L215.9 87.8Q215.9 89.4 214.9 90.3Q213.9 91.2 212.3 91.2Q210.7 91.2 209.7 90.3Q208.7 89.4 208.7 88L208.7 88L210.2 88Q210.2 88.9 210.8 89.4Q211.4 90.0 212.3 90.0L212.3 90.0Q213.4 90.0 213.9 89.4Q214.5 88.9 214.5 87.9L214.5 87.9Q214.5 86.9 213.9 86.3Q213.3 85.8 212.1 85.8L212.1 85.8L211.0 85.8ZM218.1 90.2L218.1 90.2Q218.1 89.9 218.3 89.6Q218.6 89.4 219 89.4Q219.4 89.4 219.7 89.6Q219.9 89.9 219.9 90.2L219.9 90.2Q219.9 90.6 219.7 90.8Q219.4 91.1 219 91.1Q218.6 91.1 218.3 90.8Q218.1 90.6 218.1 90.2ZM229.5 79.6L229.5 80.4L224.8 91L223.3 91L228.0 80.8L221.8 80.8L221.8 79.6L229.5 79.6ZM231 82.4L231 81.8Q231 80.8 231.7 80.1Q232.3 79.5 233.3 79.5L233.3 79.5Q234.4 79.5 235.0 80.1Q235.7 80.8 235.7 81.9L235.7 81.9L235.7 82.4Q235.7 83.4 235.0 84.1Q234.4 84.8 233.3 84.8L233.3 84.8Q232.3 84.8 231.7 84.1Q231 83.4 231 82.4L231 82.4ZM232.1 81.8L232.1 82.4Q232.1 83.0 232.4 83.4Q232.8 83.8 233.3 83.8L233.3 83.8Q233.9 83.8 234.2 83.4Q234.6 83.0 234.6 82.4L234.6 82.4L234.6 81.8Q234.6 81.2 234.2 80.8Q233.9 80.4 233.3 80.4Q232.8 80.4 232.4 80.8Q232.1 81.2 232.1 81.8L232.1 81.8ZM236.5 88.8L236.5 88.2Q236.5 87.2 237.2 86.5Q237.8 85.9 238.9 85.9Q239.9 85.9 240.5 86.5Q241.2 87.2 241.2 88.3L241.2 88.3L241.2 88.8Q241.2 89.8 240.6 90.5Q239.9 91.2 238.9 91.2Q237.9 91.2 237.2 90.5Q236.5 89.9 236.5 88.8L236.5 88.8ZM237.6 88.2L237.6 88.8Q237.6 89.4 238.0 89.8Q238.3 90.2 238.9 90.2L238.9 90.2Q239.4 90.2 239.8 89.8Q240.1 89.5 240.1 88.8L240.1 88.8L240.1 88.2Q240.1 87.6 239.8 87.2Q239.4 86.8 238.9 86.8L238.9 86.8Q238.3 86.8 238.0 87.2Q237.6 87.6 237.6 88.2L237.6 88.2ZM239.2 81.3L233.7 90.1L232.9 89.6L238.4 80.7L239.2 81.3Z "/></g><mask id="satori_om-id-1-7"><rect x="252" y="76" width="109" height="19" fill="#fff"/></mask><mask id="satori_om-id-1-7-0"><rect x="252" y="78" width="16" height="16" fill="#fff"/></mask><mask id="satori_om-id-1-7-0-0"><rect x="256" y="82" width="8" height="8" fill="#fff"/></mask><path x="256" y="82" width="8" height="8" fill="#701516" d="M260,82 h0 a4,4 0 0 1 4,4 v0 a4,4 0 0 1 -4,4 h0 a4,4 0 0 1 -4,-4 v0 a4,4 0 0 1 4,-4"/><mask id="satori_om-id-1-7-1"><rect x="281" y="76" width="37" height="19" fill="#fff"/></mask><g  ><path fill="#24292f" d="M288.4 91L286.2 86.8L284.4 86.8L284.4 91L282.0 91L282.0 79.6L286.2 79.6Q288.3 79.6 289.4 80.5Q290.4 81.4 290.4 83.1L290.4 83.1Q290.4 84.2 289.9 85.0Q289.4 85.8 288.4 86.2L288.4 86.2L290.9 90.9L290.9 91L288.4 91ZM284.4 81.5L284.4 84.9L286.3 84.9Q287.1 84.9 287.6 84.5Q288.1 84.0 288.1 83.3L288.1 83.3Q288.1 82.4 287.6 82.0Q287.2 81.5 286.2 81.5L286.2 81.5L284.4 81.5ZM297.2 91L297.1 90.1Q296.3 91.2 294.8 91.2L294.8 91.2Q293.5 91.2 292.8 90.4Q292.0 89.6 292.0 88.1L292.0 88.1L292.0 82.5L294.3 82.5L294.3 88.0Q294.3 89.3 295.5 89.3L295.5 89.3Q296.6 89.3 297.1 88.5L297.1 88.5L297.1 82.5L299.3 82.5L299.3 91L297.2 91ZM308.6 86.7L308.6 86.9Q308.6 88.9 307.8 90.0Q306.9 91.2 305.4 91.2L305.4 91.2Q304.0 91.2 303.2 90.1L303.2 90.1L303.1 91L301.0 91L301.0 79L303.3 79L303.3 83.3Q304.1 82.4 305.3 82.4L305.3 82.4Q306.9 82.4 307.8 83.5Q308.6 84.7 308.6 86.7L308.6 86.7ZM306.4 86.7L306.4 86.7Q306.4 85.4 306.0 84.8Q305.6 84.2 304.8 84.2L304.8 84.2Q303.7 84.2 303.3 85.1L303.3 85.1L303.3 88.4Q303.7 89.3 304.8 89.3L304.8 89.3Q305.9 89.3 306.2 88.3L306.2 88.3Q306.4 87.7 306.4 86.7ZM311.5 82.5L313.1 87.8L314.7 82.5L317.1 82.5L313.7 92.3L313.5 92.8Q312.8 94.4 311.0 94.4L311.0 94.4Q310.5 94.4 310.0 94.3L310.0 94.3L310.0 92.6L310.4 92.6Q311.0 92.6 311.3 92.4Q311.6 92.2 311.8 91.7L311.8 91.7L312.1 91.0L309.1 82.5L311.5 82.5Z "/></g><mask id="satori_om-id-1-7-2"><rect x="327" y="76" width="34" height="19" fill="#fff"/></mask><g  ><path fill="#57606a" d="M330.0 85.8L330.0 84.6L331.1 84.6Q332.2 84.6 332.7 84.1Q333.3 83.5 333.3 82.7L333.3 82.7Q333.3 80.7 331.3 80.7L331.3 80.7Q330.4 80.7 329.8 81.2Q329.3 81.7 329.3 82.6L329.3 82.6L327.8 82.6Q327.8 81.3 328.8 80.4Q329.8 79.5 331.3 79.5L331.3 79.5Q332.9 79.5 333.9 80.3Q334.8 81.2 334.8 82.7L334.8 82.7Q334.8 83.4 334.3 84.1Q333.8 84.8 333.0 85.2L333.0 85.2Q333.9 85.5 334.4 86.1Q334.9 86.8 334.9 87.8L334.9 87.8Q334.9 89.4 333.9 90.3Q332.9 91.2 331.3 91.2Q329.7 91.2 328.7 90.3Q327.7 89.4 327.7 88L327.7 88L329.2 88Q329.2 88.9 329.8 89.4Q330.4 90.0 331.3 90.0L331.3 90.0Q332.4 90.0 332.9 89.4Q333.5 88.9 333.5 87.9L333.5 87.9Q333.5 86.9 332.9 86.3Q332.3 85.8 331.1 85.8L331.1 85.8L330.0 85.8ZM337.1 90.2L337.1 90.2Q337.1 89.9 337.3 89.6Q337.6 89.4 338 89.4Q338.4 89.4 338.7 89.6Q338.9 89.9 338.9 90.2L338.9 90.2Q338.9 90.6 338.7 90.8Q338.4 91.1 338 91.1Q337.6 91.1 337.3 90.8Q337.1 90.6 337.1 90.2ZM343.0 85.6L341.8 85.3L342.4 79.6L348.2 79.6L348.2 81.0L343.6 81.0L343.3 84.1Q344.1 83.6 345.2 83.6L345.2 83.6Q346.7 83.6 347.6 84.6Q348.5 85.6 348.5 87.4L348.5 87.4Q348.5 89.1 347.6 90.1Q346.6 91.2 344.9 91.2L344.9 91.2Q343.4 91.2 342.5 90.3Q341.5 89.5 341.4 88.0L341.4 88.0L342.8 88.0Q342.9 89.0 343.5 89.5Q344.0 90.0 344.9 90.0L344.9 90.0Q346.0 90.0 346.5 89.3Q347.1 88.6 347.1 87.4L347.1 87.4Q347.1 86.3 346.5 85.6Q345.9 84.9 344.8 84.9L344.8 84.9Q343.9 84.9 343.3 85.3L343.3 85.3L343.0 85.6ZM350 82.4L350 81.8Q350 80.8 350.7 80.1Q351.3 79.5 352.3 79.5L352.3 79.5Q353.4 79.5 354.0 80.1Q354.7 80.8 354.7 81.9L354.7 81.9L354.7 82.4Q354.7 83.4 354.0 84.1Q353.4 84.8 352.3 84.8L352.3 84.8Q351.3 84.8 350.7 84.1Q350 83.4 350 82.4L350 82.4ZM351.1 81.8L351.1 82.4Q351.1 83.0 351.4 83.4Q351.8 83.8 352.3 83.8L352.3 83.8Q352.9 83.8 353.2 83.4Q353.6 83.0 353.6 82.4L353.6 82.4L353.6 81.8Q353.6 81.2 353.2 80.8Q352.9 80.4 352.3 80.4Q351.8 80.4 351.4 80.8Q351.1 81.2 351.1 81.8L351.1 81.8ZM355.5 88.8L355.5 88.2Q355.5 87.2 356.2 86.5Q356.8 85.9 357.9 85.9Q358.9 85.9 359.5 86.5Q360.2 87.2 360.2 88.3L360.2 88.3L360.2 88.8Q360.2 89.8 359.6 90.5Q358.9 91.2 357.9 91.2Q356.9 91.2 356.2 90.5Q355.5 89.9 355.5 88.8L355.5 88.8ZM356.6 88.2L356.6 88.8Q356.6 89.4 357.0 89.8Q357.3 90.2 357.9 90.2L357.9 90.2Q358.4 90.2 358.8 89.8Q359.1 89.5 359.1 88.8L359.1 88.8L359.1 88.2Q359.1 87.6 358.8 87.2Q358.4 86.8 357.9 86.8L357.9 86.8Q357.3 86.8 357.0 87.2Q356.6 87.6 356.6 88.2L356.6 88.2ZM358.2 81.3L352.7 90.1L351.9 89.6L357.4 80.7L358.2 81.3Z "/></g><mask id="satori_om-id-1-8"><rect x="0" y="105" width="149" height="19" fill="#fff"/></mask><mask id="satori_om-id-1-8-0"><rect x="0" y="107" width="16" height="16" fill="#fff"/></mask><mask id="satori_om-id-1-8-0-0"><rect x="4" y="111" width="8" height="8" fill="#fff"/></mask><path x="4" y="111" width="8" height="8" fill="#f1e05a" d="M8,111 h0 a4,4 0 0 1 4,4 v0 a4,4 0 0 1 -4,4 h0 a4,4 0 0 1 -4,-4 v0 a4,4 0 0 1 4,-4"/><mask id="satori_om-id-1-8-1"><rect x="29" y="105" width="77" height="19" fill="#fff"/></mask><g  ><path fill="#24292f" d="M34.6 116.5L34.6 108.6L36.9 108.6L36.9 116.5Q36.9 117.6 36.5 118.4Q36.0 119.3 35.1 119.7Q34.2 120.2 33.1 120.2L33.1 120.2Q31.3 120.2 30.3 119.2Q29.3 118.3 29.3 116.6L29.3 116.6L31.7 116.6Q31.7 117.5 32.0 117.9Q32.4 118.3 33.1 118.3L33.1 118.3Q33.8 118.3 34.2 117.8Q34.6 117.4 34.6 116.5L34.6 116.5ZM46.0 120L43.7 120Q43.5 119.7 43.5 119.2L43.5 119.2Q42.7 120.2 41.3 120.2L41.3 120.2Q40.1 120.2 39.3 119.4Q38.5 118.7 38.5 117.6L38.5 117.6Q38.5 116.3 39.5 115.6Q40.5 114.8 42.3 114.8L42.3 114.8L43.4 114.8L43.4 114.4Q43.4 113.8 43.1 113.4Q42.8 113.1 42.1 113.1L42.1 113.1Q41.6 113.1 41.2 113.3Q40.9 113.6 40.9 114.1L40.9 114.1L38.7 114.1Q38.7 113.4 39.1 112.7Q39.6 112.1 40.4 111.7Q41.2 111.4 42.3 111.4L42.3 111.4Q43.8 111.4 44.7 112.2Q45.6 113.0 45.6 114.4L45.6 114.4L45.6 118.0Q45.7 119.3 46.0 119.9L46.0 119.9L46.0 120ZM41.8 118.4L41.8 118.4Q42.3 118.4 42.8 118.2Q43.2 118.0 43.4 117.6L43.4 117.6L43.4 116.2L42.5 116.2Q40.8 116.2 40.7 117.3L40.7 117.3L40.7 117.5Q40.7 117.9 41.0 118.2Q41.3 118.4 41.8 118.4ZM48.9 111.5L50.4 117.2L52 111.5L54.4 111.5L51.5 120L49.4 120L46.5 111.5L48.9 111.5ZM62.4 120L60.1 120Q60.0 119.7 59.9 119.2L59.9 119.2Q59.1 120.2 57.8 120.2L57.8 120.2Q56.5 120.2 55.7 119.4Q54.9 118.7 54.9 117.6L54.9 117.6Q54.9 116.3 55.9 115.6Q56.9 114.8 58.8 114.8L58.8 114.8L59.8 114.8L59.8 114.4Q59.8 113.8 59.5 113.4Q59.2 113.1 58.6 113.1L58.6 113.1Q58.0 113.1 57.7 113.3Q57.3 113.6 57.3 114.1L57.3 114.1L55.1 114.1Q55.1 113.4 55.5 112.7Q56.0 112.1 56.8 111.7Q57.6 111.4 58.7 111.4L58.7 111.4Q60.2 111.4 61.2 112.2Q62.1 113.0 62.1 114.4L62.1 114.4L62.1 118.0Q62.1 119.3 62.4 119.9L62.4 119.9L62.4 120ZM58.3 118.4L58.3 118.4Q58.8 118.4 59.2 118.2Q59.6 118.0 59.8 117.6L59.8 117.6L59.8 116.2L59.0 116.2Q57.3 116.2 57.2 117.3L57.2 117.3L57.2 117.5Q57.2 117.9 57.5 118.2Q57.8 118.4 58.3 118.4ZM69.9 117.0L69.9 117.0Q69.9 116.4 69.4 116.0Q68.9 115.6 67.7 115.2Q66.5 114.9 65.8 114.5L65.8 114.5Q63.8 113.4 63.8 111.6L63.8 111.6Q63.8 110.7 64.4 110.0Q64.9 109.3 65.8 108.9Q66.8 108.5 68.0 108.5L68.0 108.5Q69.3 108.5 70.2 108.9Q71.2 109.4 71.7 110.2Q72.2 111.0 72.2 112.0L72.2 112.0L69.9 112.0Q69.9 111.2 69.4 110.8Q68.9 110.3 68.0 110.3L68.0 110.3Q67.1 110.3 66.7 110.7Q66.2 111.1 66.2 111.7L66.2 111.7Q66.2 112.2 66.7 112.6Q67.3 113.0 68.4 113.3L68.4 113.3Q70.4 113.9 71.3 114.8Q72.2 115.7 72.2 117L72.2 117Q72.2 118.5 71.1 119.3Q70.0 120.2 68.1 120.2L68.1 120.2Q66.8 120.2 65.7 119.7Q64.6 119.2 64.1 118.4Q63.5 117.5 63.5 116.4L63.5 116.4L65.8 116.4Q65.8 118.3 68.1 118.3L68.1 118.3Q68.9 118.3 69.4 118.0Q69.9 117.6 69.9 117.0ZM77.2 118.3L77.2 118.3Q77.8 118.3 78.2 118.0Q78.6 117.6 78.6 117.1L78.6 117.1L80.7 117.1Q80.7 117.9 80.2 118.7Q79.8 119.4 79.0 119.8Q78.2 120.2 77.2 120.2L77.2 120.2Q75.4 120.2 74.3 119.0Q73.3 117.9 73.3 115.8L73.3 115.8L73.3 115.7Q73.3 113.7 74.3 112.6Q75.4 111.4 77.2 111.4L77.2 111.4Q78.8 111.4 79.7 112.3Q80.7 113.2 80.7 114.7L80.7 114.7L78.6 114.7Q78.6 114.0 78.2 113.6Q77.8 113.2 77.1 113.2L77.1 113.2Q76.4 113.2 76.0 113.8Q75.6 114.4 75.6 115.7L75.6 115.7L75.6 115.9Q75.6 117.2 76.0 117.8Q76.4 118.3 77.2 118.3ZM86.8 111.5L86.7 113.7Q86.3 113.6 85.9 113.6L85.9 113.6Q84.6 113.6 84.3 114.5L84.3 114.5L84.3 120L82.0 120L82.0 111.5L84.1 111.5L84.2 112.6Q84.9 111.4 86.1 111.4L86.1 111.4Q86.4 111.4 86.8 111.5L86.8 111.5ZM90.2 111.5L90.2 120L87.9 120L87.9 111.5L90.2 111.5ZM87.8 109.4L87.8 109.4Q87.8 108.9 88.2 108.5Q88.5 108.2 89.1 108.2L89.1 108.2Q89.7 108.2 90 108.5Q90.3 108.9 90.3 109.4L90.3 109.4Q90.3 109.9 90.0 110.2Q89.6 110.5 89.1 110.5Q88.5 110.5 88.2 110.2Q87.8 109.9 87.8 109.4ZM99.7 115.7L99.7 115.9Q99.7 117.8 98.8 119.0Q97.9 120.2 96.4 120.2L96.4 120.2Q95.1 120.2 94.3 119.3L94.3 119.3L94.3 123.3L92.1 123.3L92.1 111.5L94.2 111.5L94.2 112.4Q95.1 111.4 96.4 111.4L96.4 111.4Q97.9 111.4 98.8 112.5Q99.7 113.7 99.7 115.7L99.7 115.7ZM97.4 115.7L97.4 115.7Q97.4 114.5 97.0 113.9Q96.6 113.2 95.8 113.2L95.8 113.2Q94.7 113.2 94.3 114.0L94.3 114.0L94.3 117.5Q94.7 118.3 95.8 118.3L95.8 118.3Q97.4 118.3 97.4 115.7ZM101.5 109.5L103.8 109.5L103.8 111.5L105.2 111.5L105.2 113.2L103.8 113.2L103.8 117.4Q103.8 117.9 104.0 118.1Q104.1 118.3 104.6 118.3L104.6 118.3Q105.0 118.3 105.3 118.2L105.3 118.2L105.3 120.0Q104.6 120.2 103.9 120.2L103.9 120.2Q101.6 120.2 101.5 117.8L101.5 117.8L101.5 113.2L100.3 113.2L100.3 111.5L101.5 111.5L101.5 109.5Z "/></g><mask id="satori_om-id-1-8-2"><rect x="115" y="105" width="34" height="19" fill="#fff"/></mask><g  ><path fill="#57606a" d="M118.0 114.8L118.0 113.6L119.1 113.6Q120.2 113.6 120.7 113.1Q121.3 112.5 121.3 111.7L121.3 111.7Q121.3 109.7 119.3 109.7L119.3 109.7Q118.4 109.7 117.8 110.2Q117.3 110.7 117.3 111.6L117.3 111.6L115.8 111.6Q115.8 110.3 116.8 109.4Q117.8 108.5 119.3 108.5L119.3 108.5Q120.9 108.5 121.9 109.3Q122.8 110.2 122.8 111.7L122.8 111.7Q122.8 112.4 122.3 113.1Q121.8 113.8 121.0 114.2L121.0 114.2Q121.9 114.5 122.4 115.1Q122.9 115.8 122.9 116.8L122.9 116.8Q122.9 118.4 121.9 119.3Q120.9 120.2 119.3 120.2Q117.7 120.2 116.7 119.3Q115.7 118.4 115.7 117L115.7 117L117.2 117Q117.2 117.9 117.8 118.4Q118.4 119.0 119.3 119.0L119.3 119.0Q120.4 119.0 120.9 118.4Q121.5 117.9 121.5 116.9L121.5 116.9Q121.5 115.9 120.9 115.3Q120.3 114.8 119.1 114.8L119.1 114.8L118.0 114.8ZM125.1 119.2L125.1 119.2Q125.1 118.9 125.3 118.6Q125.6 118.4 126 118.4Q126.4 118.4 126.7 118.6Q126.9 118.9 126.9 119.2L126.9 119.2Q126.9 119.6 126.7 119.8Q126.4 120.1 126 120.1Q125.6 120.1 125.3 119.8Q125.1 119.6 125.1 119.2ZM131.2 114.8L131.2 113.6L132.3 113.6Q133.4 113.6 133.9 113.1Q134.5 112.5 134.5 111.7L134.5 111.7Q134.5 109.7 132.5 109.7L132.5 109.7Q131.6 109.7 131.0 110.2Q130.5 110.7 130.5 111.6L130.5 111.6L129.0 111.6Q129.0 110.3 130.0 109.4Q131.0 108.5 132.5 108.5L132.5 108.5Q134.1 108.5 135.1 109.3Q136.0 110.2 136.0 111.7L136.0 111.7Q136.0 112.4 135.5 113.1Q135.0 113.8 134.2 114.2L134.2 114.2Q135.1 114.5 135.6 115.1Q136.1 115.8 136.1 116.8L136.1 116.8Q136.1 118.4 135.1 119.3Q134.1 120.2 132.5 120.2Q130.9 120.2 129.9 119.3Q128.9 118.4 128.9 117L128.9 117L130.4 117Q130.4 117.9 131.0 118.4Q131.6 119.0 132.5 119.0L132.5 119.0Q133.6 119.0 134.1 118.4Q134.7 117.9 134.7 116.9L134.7 116.9Q134.7 115.9 134.1 115.3Q133.5 114.8 132.3 114.8L132.3 114.8L131.2 114.8ZM138 111.4L138 110.8Q138 109.8 138.7 109.1Q139.3 108.5 140.3 108.5L140.3 108.5Q141.4 108.5 142.0 109.1Q142.7 109.8 142.7 110.9L142.7 110.9L142.7 111.4Q142.7 112.4 142.0 113.1Q141.4 113.8 140.3 113.8L140.3 113.8Q139.3 113.8 138.7 113.1Q138 112.4 138 111.4L138 111.4ZM139.1 110.8L139.1 111.4Q139.1 112.0 139.4 112.4Q139.8 112.8 140.3 112.8L140.3 112.8Q140.9 112.8 141.2 112.4Q141.6 112.0 141.6 111.4L141.6 111.4L141.6 110.8Q141.6 110.2 141.2 109.8Q140.9 109.4 140.3 109.4Q139.8 109.4 139.4 109.8Q139.1 110.2 139.1 110.8L139.1 110.8ZM143.5 117.8L143.5 117.2Q143.5 116.2 144.2 115.5Q144.8 114.9 145.9 114.9Q146.9 114.9 147.5 115.5Q148.2 116.2 148.2 117.3L148.2 117.3L148.2 117.8Q148.2 118.8 147.6 119.5Q146.9 120.2 145.9 120.2Q144.9 120.2 144.2 119.5Q143.5 118.9 143.5 117.8L143.5 117.8ZM144.6 117.2L144.6 117.8Q144.6 118.4 145.0 118.8Q145.3 119.2 145.9 119.2L145.9 119.2Q146.4 119.2 146.8 118.8Q147.1 118.5 147.1 117.8L147.1 117.8L147.1 117.2Q147.1 116.6 146.8 116.2Q146.4 115.8 145.9 115.8L145.9 115.8Q145.3 115.8 145.0 116.2Q144.6 116.6 144.6 117.2L144.6 117.2ZM146.2 110.3L140.7 119.1L139.9 118.6L145.4 109.7L146.2 110.3Z "/></g><mask id="satori_om-id-1-9"><rect x="159" y="105" width="116" height="19" fill="#fff"/></mask><mask id="satori_om-id-1-9-0"><rect x="159" y="107" width="16" height="16" fill="#fff"/></mask><mask id="satori_om-id-1-9-0-0"><rect x="163" y="111" width="8" height="8" fill="#fff"/></mask><path x="163" y="111" width="8" height="8" fill="#e34c26" d="M167,111 h0 a4,4 0 0 1 4,4 v0 a4,4 0 0 1 -4,4 h0 a4,4 0 0 1 -4,-4 v0 a4,4 0 0 1 4,-4"/><mask id="satori_om-id-1-9-1"><rect x="188" y="105" width="44" height="19" fill="#fff"/></mask><g  ><path fill="#24292f" d="M198.3 108.6L198.3 120L195.9 120L195.9 115.1L191.4 115.1L191.4 120L189.0 120L189.0 108.6L191.4 108.6L191.4 113.2L195.9 113.2L195.9 108.6L198.3 108.6ZM208.7 108.6L208.7 110.5L205.2 110.5L205.2 120L202.8 120L202.8 110.5L199.4 110.5L199.4 108.6L208.7 108.6ZM210.0 108.6L213.1 108.6L216.0 116.9L218.9 108.6L222.0 108.6L222.0 120L219.6 120L219.6 116.9L219.8 111.5L216.8 120L215.2 120L212.1 111.5L212.3 116.9L212.3 120L210.0 120L210.0 108.6ZM226.4 108.6L226.4 118.1L231.3 118.1L231.3 120L224.0 120L224.0 108.6L226.4 108.6Z "/></g><mask id="satori_om-id-1-9-2"><rect x="241" y="105" width="34" height="19" fill="#fff"/></mask><g  ><path fill="#57606a" d="M249.4 118.8L249.4 120L241.9 120L241.9 119.0L245.9 114.6Q246.8 113.6 247.1 113.0Q247.4 112.4 247.4 111.7L247.4 111.7Q247.4 110.8 246.9 110.2Q246.3 109.7 245.4 109.7L245.4 109.7Q244.4 109.7 243.8 110.3Q243.2 110.9 243.2 112.0L243.2 112.0L241.7 112.0Q241.7 110.4 242.7 109.4Q243.8 108.5 245.4 108.5L245.4 108.5Q247.0 108.5 248.0 109.3Q248.9 110.1 248.9 111.5L248.9 111.5Q248.9 113.2 246.7 115.5L246.7 115.5L243.7 118.8L249.4 118.8ZM251.1 119.2L251.1 119.2Q251.1 118.9 251.3 118.6Q251.6 118.4 252 118.4Q252.4 118.4 252.7 118.6Q252.9 118.9 252.9 119.2L252.9 119.2Q252.9 119.6 252.7 119.8Q252.4 120.1 252 120.1Q251.6 120.1 251.3 119.8Q251.1 119.6 251.1 119.2ZM262.5 108.6L262.5 109.4L257.8 120L256.3 120L261.0 109.8L254.8 109.8L254.8 108.6L262.5 108.6ZM264 111.4L264 110.8Q264 109.8 264.7 109.1Q265.3 108.5 266.3 108.5L266.3 108.5Q267.4 108.5 268.0 109.1Q268.7 109.8 268.7 110.9L268.7 110.9L268.7 111.4Q268.7 112.4 268.0 113.1Q267.4 113.8 266.3 113.8L266.3 113.8Q265.3 113.8 264.7 113.1Q264 112.4 264 111.4L264 111.4ZM265.1 110.8L265.1 111.4Q265.1 112.0 265.4 112.4Q265.8 112.8 266.3 112.8L266.3 112.8Q266.9 112.8 267.2 112.4Q267.6 112.0 267.6 111.4L267.6 111.4L267.6 110.8Q267.6 110.2 267.2 109.8Q266.9 109.4 266.3 109.4Q265.8 109.4 265.4 109.8Q265.1 110.2 265.1 110.8L265.1 110.8ZM269.5 117.8L269.5 117.2Q269.5 116.2 270.2 115.5Q270.8 114.9 271.9 114.9Q272.9 114.9 273.5 115.5Q274.2 116.2 274.2 117.3L274.2 117.3L274.2 117.8Q274.2 118.8 273.6 119.5Q272.9 120.2 271.9 120.2Q270.9 120.2 270.2 119.5Q269.5 118.9 269.5 117.8L269.5 117.8ZM270.6 117.2L270.6 117.8Q270.6 118.4 271.0 118.8Q271.3 119.2 271.9 119.2L271.9 119.2Q272.4 119.2 272.8 118.8Q273.1 118.5 273.1 117.8L273.1 117.8L273.1 117.2Q273.1 116.6 272.8 116.2Q272.4 115.8 271.9 115.8L271.9 115.8Q271.3 115.8 271.0 116.2Q270.6 116.6 270.6 117.2L270.6 117.2ZM272.2 110.3L266.7 119.1L265.9 118.6L271.4 109.7L272.2 110.3Z "/></g></svg>