<svg width="375" height="200" viewBox="0 0 375 200" xmlns="http://www.w3.org/2000/svg"><mask id="satori_om-id"><rect x="0" y="0" width="375" height="123" fill="#fff"/></mask><clipPath id="satori_cp-id-0"><path x="0" y="0" width="375" height="8" d="M4,0 h367 a4,4 0 0 1 4,4 v0 a4,4 0 0 1 -4,4 h-367 a4,4 0 0 1 -4,-4 v0 a4,4 0 0 1 4,-4"/></clipPath><mask id="satori_om-id-0"><rect x="0" y="0" width="375" height="8" fill="#fff"/></mask><mask id="satori_om-id-0-0"><rect x="0" y="0" width="195" height="8" fill="#fff" mask="url(#satori_om-id-0)"/></mask><rect x="0" y="0" width="195" height="8" fill="#3178c6" clip-path="url(#satori_cp-id-0)" mask="url(#satori_om-id-0)"/><mask id="satori_om-id-0-1"><rect x="195" y="0" width="59" height="8" fill="#fff" mask="url(#satori_om-id-0)"/></mask><rect x="195" y="0" width="59" height="8" fill="#3572A5" clip-path="url(#satori_cp-id-0)" mask="url(#satori_om-id-0)"/><mask id="satori_om-id-0-2"><rect x="254" y="0" width="33" height="8" fill="#fff" mask="url(#satori_om-id-0)"/></mask><rect x="254" y="0" width="33" height="8" fill="#844FBA" clip-path="url(#satori_cp-id-0)" mask="url(#satori_om-id-0)"/><mask id="satori_om-id-0-3"><rect x="287" y="0" width="24" height="8" fill="#fff" mask="url(#satori_om-id-0)"/></mask><rect x="287" y="0" width="24" height="8" fill="#ff3e00" clip-path="url(#satori_cp-id-0)" mask="url(#satori_om-id-0)"/><mask id="satori_om-id-0-4"><rect x="311" y="0" width="17" height="8" fill="#fff" mask="url(#satori_om-id-0)"/></mask><rect x="311" y="0" width="17" height="8" fill="#00ADD8" clip-path="url(#satori_cp-id-0)" mask="url(#satori_om-id-0)"/><mask id="satori_om-id-0-5"><rect x="328" y="0" width="15" height="8" fill="#fff" mask="url(#satori_om-id-0)"/></mask><rect x="328" y="0" width="15" height="8" fill="#555555" clip-path="url(#satori_cp-id-0)" mask="url(#satori_om-id-0)"/><mask id="satori_om-id-0-6"><rect x="343" y="0" width="12" height="8" fill="#fff" mask="url(#satori_om-id-0)"/></mask><rect x="343" y="0" width="12" height="8" fill="#f1e05a" clip-path="url(#satori_cp-id-0)" mask="url(#satori_om-id-0)"/><mask id="satori_om-id-0-7"><rect x="355" y="0" width="8" height="8" fill="#fff" mask="url(#satori_om-id-0)"/></mask><rect x="355" y="0" width="8" height="8" fill="#ff5a03" clip-path="url(#satori_cp-id-0)" mask="url(#satori_om-id-0)"/><mask id="satori_om-id-0-8"><rect x="363" y="0" width="4" height="8" fill="#fff" mask="url(#satori_om-id-0)"/></mask><rect x="363" y="0" width="4" height="8" fill="#563d7c" clip-path="url(#satori_cp-id-0)" mask="url(#satori_om-id-0)"/><mask id="satori_om-id-0-9"><rect x="367" y="0" width="4" height="8" fill="#fff" mask="url(#satori_om-id-0)"/></mask><rect x="367" y="0" width="4" height="8" fill="#701516" clip-path="url(#satori_cp-id-0)" mask="url(#satori_om-id-0)"/><mask id="satori_om-id-1"><rect x="0" y="18" width="375" height="105" fill="#fff"/></mask><mask id="satori_om-id-1-0"><rect x="0" y="18" width="160" height="19" fill="#fff"/></mask><mask id="satori_om-id-1-0-0"><rect x="0" y="19" width="16" height="16" fill="#fff"/></mask><mask id="satori_om-id-1-0-0-0"><rect x="4" y="23" width="8" height="8" fill="#fff"/></mask><path x="4" y="23" width="8" height="8" fill="#3178c6" d="M8,23 h0 a4,4 0 0 1 4,4 v0 a4,4 0 0 1 -4,4 h0 a4,4 0 0 1 -4,-4 v0 a4,4 0 0 1 4,-4"/><mask id="satori_om-id-1-0-1"><rect x="29" y="18" width="79" height="19" fill="#fff"/></mask><path fill="#fff" d="M38.6 22.1L38.6 24.0L35.1 24.0L35.1 33.5L32.8 33.5L32.8 24.0L29.3 24.0L29.3 22.1L38.6 22.1ZM40.7 25.0L42.3 30.3L43.8 25.0L46.3 25.0L42.9 34.8L42.7 35.2Q41.9 36.9 40.2 36.9L40.2 36.9Q39.7 36.9 39.2 36.7L39.2 36.7L39.2 35.0L39.5 35.0Q40.2 35.0 40.5 34.9Q40.8 34.7 41.0 34.2L41.0 34.2L41.2 33.5L38.3 25.0L40.7 25.0ZM54.8 29.2L54.8 29.3Q54.8 31.3 53.9 32.5Q53.0 33.6 51.5 33.6L51.5 33.6Q50.2 33.6 49.4 32.7L49.4 32.7L49.4 36.7L47.2 36.7L47.2 25.0L49.3 25.0L49.3 25.9Q50.1 24.9 51.5 24.9L51.5 24.9Q53.0 24.9 53.9 26.0Q54.8 27.2 54.8 29.2L54.8 29.2ZM52.5 29.2L52.5 29.2Q52.5 28.0 52.1 27.4Q51.7 26.7 50.9 26.7L50.9 26.7Q49.8 26.7 49.4 27.5L49.4 27.5L49.4 31.0Q49.8 31.8 50.9 31.8L50.9 31.8Q52.5 31.8 52.5 29.2ZM60.1 33.6L60.1 33.6Q58.2 33.6 57.0 32.5Q55.9 31.4 55.9 29.5L55.9 29.5L55.9 29.2Q55.9 28.0 56.4 27.0Q56.8 26.0 57.7 25.4Q58.6 24.9 59.8 24.9L59.8 24.9Q61.5 24.9 62.5 26.0Q63.5 27.1 63.5 29.1L63.5 29.1L63.5 30.0L58.1 30.0Q58.3 30.8 58.8 31.3Q59.4 31.8 60.2 31.8L60.2 31.8Q61.5 31.8 62.2 30.9L62.2 30.9L63.4 32.1Q62.8 32.8 62.0 33.2Q61.1 33.6 60.1 33.6ZM59.8 26.7L59.8 26.7Q59.1 26.7 58.7 27.2Q58.3 27.6 58.2 28.5L58.2 28.5L61.3 28.5L61.3 28.3Q61.3 27.5 60.9 27.1Q60.5 26.7 59.8 26.7ZM70.9 30.5L70.9 30.5Q70.9 29.8 70.4 29.5Q69.9 29.1 68.7 28.7Q67.5 28.3 66.8 28.0L66.8 28.0Q64.8 26.9 64.8 25.1L64.8 25.1Q64.8 24.2 65.4 23.5Q65.9 22.8 66.8 22.4Q67.8 22.0 69.0 22.0L69.0 22.0Q70.3 22.0 71.2 22.4Q72.2 22.8 72.7 23.6Q73.2 24.4 73.2 25.5L73.2 25.5L70.9 25.5Q70.9 24.7 70.4 24.3Q69.9 23.8 69.0 23.8L69.0 23.8Q68.1 23.8 67.7 24.2Q67.2 24.5 67.2 25.1L67.2 25.1Q67.2 25.7 67.7 26.1Q68.3 26.4 69.4 26.8L69.4 26.8Q71.4 27.4 72.3 28.3Q73.2 29.2 73.2 30.5L73.2 30.5Q73.2 32.0 72.1 32.8Q71.0 33.6 69.1 33.6L69.1 33.6Q67.8 33.6 66.7 33.2Q65.6 32.7 65.1 31.8Q64.5 31.0 64.5 29.9L64.5 29.9L66.8 29.9Q66.8 31.8 69.1 31.8L69.1 31.8Q69.9 31.8 70.4 31.4Q70.9 31.1 70.9 30.5ZM78.2 31.8L78.2 31.8Q78.8 31.8 79.2 31.5Q79.6 31.1 79.6 30.6L79.6 30.6L81.7 30.6Q81.7 31.4 81.2 32.1Q80.8 32.9 80.0 33.2Q79.2 33.6 78.2 33.6L78.2 33.6Q76.4 33.6 75.3 32.5Q74.3 31.3 74.3 29.3L74.3 29.3L74.3 29.2Q74.3 27.2 75.3 26.0Q76.4 24.9 78.2 24.9L78.2 24.9Q79.8 24.9 80.7 25.8Q81.7 26.7 81.7 28.2L81.7 28.2L79.6 28.2Q79.6 27.5 79.2 27.1Q78.8 26.7 78.1 26.7L78.1 26.7Q77.4 26.7 77.0 27.3Q76.6 27.9 76.6 29.1L76.6 29.1L76.6 29.4Q76.6 30.7 77.0 31.2Q77.4 31.8 78.2 31.8ZM87.8 25.0L87.7 27.1Q87.3 27.1 86.9 27.1L86.9 27.1Q85.6 27.1 85.3 28.0L85.3 28.0L85.3 33.5L83.0 33.5L83.0 25.0L85.1 25.0L85.2 26.0Q85.9 24.9 87.1 24.9L87.1 24.9Q87.4 24.9 87.8 25.0L87.8 25.0ZM91.2 25.0L91.2 33.5L88.9 33.5L88.9 25.0L91.2 25.0ZM88.8 22.8L88.8 22.8Q88.8 22.3 89.2 22.0Q89.5 21.7 90.1 21.7L90.1 21.7Q90.7 21.7 91 22.0Q91.3 22.3 91.3 22.8L91.3 22.8Q91.3 23.4 91.0 23.7Q90.6 24.0 90.1 24.0Q89.5 24.0 89.2 23.7Q88.8 23.4 88.8 22.8ZM100.7 29.2L100.7 29.3Q100.7 31.3 99.8 32.5Q98.9 33.6 97.4 33.6L97.4 33.6Q96.1 33.6 95.3 32.7L95.3 32.7L95.3 36.7L93.1 36.7L93.1 25.0L95.2 25.0L95.2 25.9Q96.1 24.9 97.4 24.9L97.4 24.9Q98.9 24.9 99.8 26.0Q100.7 27.2 100.7 29.2L100.7 29.2ZM98.4 29.2L98.4 29.2Q98.4 28.0 98.0 27.4Q97.6 26.7 96.8 26.7L96.8 26.7Q95.7 26.7 95.3 27.5L95.3 27.5L95.3 31.0Q95.7 31.8 96.8 31.8L96.8 31.8Q98.4 31.8 98.4 29.2ZM102.5 23.0L104.8 23.0L104.8 25.0L106.2 25.0L106.2 26.7L104.8 26.7L104.8 30.9Q104.8 31.4 105.0 31.6Q105.1 31.8 105.6 31.8L105.6 31.8Q106.0 31.8 106.3 31.7L106.3 31.7L106.3 33.4Q105.6 33.6 104.9 33.6L104.9 33.6Q102.6 33.6 102.5 31.2L102.5 31.2L102.5 26.7L101.3 26.7L101.3 25.0L102.5 25.0L102.5 23.0Z "/><mask id="satori_om-id-1-0-2"><rect x="117" y="18" width="43" height="19" fill="#fff"/></mask><path fill="#7d8590" d="M119.8 28.1L118.6 27.8L119.2 22.1L125.0 22.1L125.0 23.4L120.4 23.4L120.1 26.5Q120.9 26.1 122.0 26.1L122.0 26.1Q123.5 26.1 124.4 27.1Q125.4 28.1 125.4 29.9L125.4 29.9Q125.4 31.6 124.4 32.6Q123.5 33.6 121.8 33.6L121.8 33.6Q120.2 33.6 119.3 32.8Q118.3 32.0 118.2 30.5L118.2 30.5L119.6 30.5Q119.7 31.5 120.3 32.0Q120.8 32.5 121.8 32.5L121.8 32.5Q122.8 32.5 123.3 31.8Q123.9 31.1 123.9 29.9L123.9 29.9Q123.9 28.7 123.3 28.0Q122.7 27.4 121.6 27.4L121.6 27.4Q120.7 27.4 120.1 27.8L120.1 27.8L119.8 28.1ZM131.7 22.1L131.7 33.5L130.2 33.5L130.2 23.9L127.3 24.9L127.3 23.6L131.5 22.1L131.7 22.1ZM136.1 32.7L136.1 32.7Q136.1 32.4 136.3 32.1Q136.5 31.9 137.0 31.9Q137.4 31.9 137.7 32.1Q137.9 32.4 137.9 32.7L137.9 32.7Q137.9 33.1 137.7 33.3Q137.4 33.6 137.0 33.6Q136.5 33.6 136.3 33.3Q136.1 33.1 136.1 32.7ZM145.7 28.5L145.7 28.5Q145.2 29.0 144.6 29.4Q144.0 29.7 143.2 29.7L143.2 29.7Q142.2 29.7 141.5 29.2Q140.8 28.7 140.4 27.8Q140.0 27.0 140.0 25.9L140.0 25.9Q140.0 24.7 140.4 23.8Q140.8 22.9 141.6 22.4Q142.4 22.0 143.5 22.0L143.5 22.0Q145.2 22.0 146.1 23.2Q147.1 24.5 147.1 26.7L147.1 26.7L147.1 27.1Q147.1 30.4 145.8 31.9Q144.5 33.5 141.8 33.5L141.8 33.5L141.6 33.5L141.6 32.3L141.9 32.3Q143.7 32.2 144.6 31.3Q145.6 30.4 145.7 28.5ZM143.4 28.5L143.4 28.5Q144.2 28.5 144.8 28.0Q145.4 27.6 145.7 26.9L145.7 26.9L145.7 26.4Q145.7 24.9 145.1 24.0Q144.4 23.2 143.5 23.2L143.5 23.2Q142.5 23.2 142.0 23.9Q141.4 24.6 141.4 25.8L141.4 25.8Q141.4 27.0 141.9 27.7Q142.5 28.5 143.4 28.5ZM149.0 24.8L149.0 24.3Q149.0 23.3 149.6 22.6Q150.3 21.9 151.3 21.9L151.3 21.9Q152.4 21.9 153.0 22.6Q153.6 23.3 153.6 24.3L153.6 24.3L153.6 24.9Q153.6 25.9 153.0 26.6Q152.3 27.2 151.3 27.2L151.3 27.2Q150.3 27.2 149.6 26.6Q149.0 25.9 149.0 24.8L149.0 24.8ZM150.1 24.3L150.1 24.9Q150.1 25.5 150.4 25.9Q150.8 26.3 151.3 26.3L151.3 26.3Q151.9 26.3 152.2 25.9Q152.6 25.5 152.6 24.9L152.6 24.9L152.6 24.3Q152.6 23.7 152.2 23.3Q151.9 22.9 151.3 22.9Q150.7 22.9 150.4 23.3Q150.1 23.7 150.1 24.3L150.1 24.3ZM154.5 31.3L154.5 30.7Q154.5 29.7 155.2 29.0Q155.8 28.4 156.9 28.4Q157.9 28.4 158.5 29.0Q159.2 29.7 159.2 30.7L159.2 30.7L159.2 31.3Q159.2 32.3 158.5 33.0Q157.9 33.6 156.9 33.6Q155.9 33.6 155.2 33.0Q154.5 32.3 154.5 31.3L154.5 31.3ZM155.6 30.7L155.6 31.3Q155.6 31.9 155.9 32.3Q156.3 32.7 156.9 32.7L156.9 32.7Q157.4 32.7 157.8 32.3Q158.1 31.9 158.1 31.3L158.1 31.3L158.1 30.7Q158.1 30.1 157.8 29.7Q157.4 29.3 156.9 29.3L156.9 29.3Q156.3 29.3 155.9 29.7Q155.6 30.1 155.6 30.7L155.6 30.7ZM157.2 23.7L151.7 32.6L150.8 32.1L156.4 23.2L157.2 23.7Z "/><mask id="satori_om-id-1-1"><rect x="170" y="18" width="132" height="19" fill="#fff"/></mask><mask id="satori_om-id-1-1-0"><rect x="170" y="19" width="16" height="16" fill="#fff"/></mask><mask id="satori_om-id-1-1-0-0"><rect x="174" y="23" width="8" height="8" fill="#fff"/></mask><path x="174" y="23" width="8" height="8" fill="#3572A5" d="M178,23 h0 a4,4 0 0 1 4,4 v0 a4,4 0 0 1 -4,4 h0 a4,4 0 0 1 -4,-4 v0 a4,4 0 0 1 4,-4"/><mask id="satori_om-id-1-1-1"><rect x="199" y="18" width="51" height="19" fill="#fff"/></mask><path fill="#fff" d="M204.4 29.5L202.4 29.5L202.4 33.5L200.0 33.5L200.0 22.1L204.5 22.1Q205.7 22.1 206.7 22.6Q207.7 23.0 208.2 23.9Q208.7 24.8 208.7 25.9L208.7 25.9Q208.7 27.5 207.6 28.5Q206.4 29.5 204.4 29.5L204.4 29.5ZM202.4 24.0L202.4 27.6L204.5 27.6Q205.4 27.6 205.9 27.1Q206.4 26.7 206.4 25.9L206.4 25.9Q206.4 25.1 205.9 24.5Q205.4 24.0 204.5 24.0L204.5 24.0L202.4 24.0ZM211.9 25.0L213.5 30.3L215.0 25.0L217.4 25.0L214.0 34.8L213.9 35.2Q213.1 36.9 211.4 36.9L211.4 36.9Q210.9 36.9 210.4 36.7L210.4 36.7L210.4 35.0L210.7 35.0Q211.3 35.0 211.7 34.9Q212.0 34.7 212.2 34.2L212.2 34.2L212.4 33.5L209.5 25.0L211.9 25.0ZM218.8 23.0L221.0 23.0L221.0 25.0L222.5 25.0L222.5 26.7L221.0 26.7L221.0 30.9Q221.0 31.4 221.2 31.6Q221.4 31.8 221.9 31.8L221.9 31.8Q222.3 31.8 222.6 31.7L222.6 31.7L222.6 33.4Q221.9 33.6 221.2 33.6L221.2 33.6Q218.8 33.6 218.8 31.2L218.8 31.2L218.8 26.7L217.5 26.7L217.5 25.0L218.8 25.0L218.8 23.0ZM225.9 21.5L225.9 26.0Q226.8 24.9 228.2 24.9L228.2 24.9Q231.0 24.9 231.0 28.1L231.0 28.1L231.0 33.5L228.7 33.5L228.7 28.1Q228.7 27.4 228.4 27.1Q228.1 26.7 227.4 26.7L227.4 26.7Q226.4 26.7 225.9 27.5L225.9 27.5L225.9 33.5L223.7 33.5L223.7 21.5L225.9 21.5ZM232.3 29.3L232.3 29.2Q232.3 27.9 232.8 26.9Q233.3 26.0 234.2 25.4Q235.1 24.9 236.3 24.9L236.3 24.9Q238.0 24.9 239.1 25.9Q240.2 27.0 240.3 28.8L240.3 28.8L240.4 29.3Q240.4 31.3 239.3 32.5Q238.2 33.6 236.4 33.6Q234.5 33.6 233.4 32.5Q232.3 31.3 232.3 29.3L232.3 29.3ZM234.6 29.3L234.6 29.3Q234.6 30.5 235.1 31.2Q235.5 31.8 236.4 31.8L236.4 31.8Q237.2 31.8 237.6 31.2Q238.1 30.6 238.1 29.2L238.1 29.2Q238.1 28.0 237.6 27.4Q237.2 26.7 236.3 26.7L236.3 26.7Q235.5 26.7 235.1 27.3Q234.6 28.0 234.6 29.3ZM241.7 25.0L243.8 25.0L243.9 26.0Q244.8 24.9 246.3 24.9L246.3 24.9Q247.7 24.9 248.3 25.7Q249.0 26.5 249.0 28.0L249.0 28.0L249.0 33.5L246.7 33.5L246.7 28.1Q246.7 27.4 246.4 27.0Q246.1 26.7 245.4 26.7L245.4 26.7Q244.4 26.7 244.0 27.5L244.0 27.5L244.0 33.5L241.7 33.5L241.7 25.0Z "/><mask id="satori_om-id-1-1-2"><rect x="259" y="18" width="43" height="19" fill="#fff"/></mask><path fill="#7d8590" d="M264.7 22.1L264.7 33.5L263.2 33.5L263.2 23.9L260.3 24.9L260.3 23.6L264.5 22.1L264.7 22.1ZM270.8 28.1L269.6 27.8L270.2 22.1L276 22.1L276 23.4L271.4 23.4L271.1 26.5Q271.9 26.1 273.0 26.1L273.0 26.1Q274.5 26.1 275.4 27.1Q276.3 28.1 276.3 29.9L276.3 29.9Q276.3 31.6 275.4 32.6Q274.4 33.6 272.7 33.6L272.7 33.6Q271.2 33.6 270.3 32.8Q269.3 32.0 269.2 30.5L269.2 30.5L270.6 30.5Q270.7 31.5 271.3 32.0Q271.8 32.5 272.7 32.5L272.7 32.5Q273.7 32.5 274.3 31.8Q274.9 31.1 274.9 29.9L274.9 29.9Q274.9 28.7 274.3 28.0Q273.6 27.4 272.6 27.4L272.6 27.4Q271.7 27.4 271.1 27.8L271.1 27.8L270.8 28.1ZM278.1 32.7L278.1 32.7Q278.1 32.4 278.3 32.1Q278.5 31.9 279.0 31.9Q279.4 31.9 279.7 32.1Q279.9 32.4 279.9 32.7L279.9 32.7Q279.9 33.1 279.7 33.3Q279.4 33.6 279.0 33.6Q278.5 33.6 278.3 33.3Q278.1 33.1 278.1 32.7ZM287.7 28.5L287.7 28.5Q287.2 29.0 286.6 29.4Q286.0 29.7 285.2 29.7L285.2 29.7Q284.2 29.7 283.5 29.2Q282.8 28.7 282.4 27.8Q282.0 27.0 282.0 25.9L282.0 25.9Q282.0 24.7 282.4 23.8Q282.8 22.9 283.6 22.4Q284.4 22.0 285.5 22.0L285.5 22.0Q287.2 22.0 288.1 23.2Q289.1 24.5 289.1 26.7L289.1 26.7L289.1 27.1Q289.1 30.4 287.8 31.9Q286.5 33.5 283.8 33.5L283.8 33.5L283.6 33.5L283.6 32.3L283.9 32.3Q285.7 32.2 286.6 31.3Q287.6 30.4 287.7 28.5ZM285.4 28.5L285.4 28.5Q286.2 28.5 286.8 28.0Q287.4 27.6 287.7 26.9L287.7 26.9L287.7 26.4Q287.7 24.9 287.1 24.0Q286.4 23.2 285.5 23.2L285.5 23.2Q284.5 23.2 284.0 23.9Q283.4 24.6 283.4 25.8L283.4 25.8Q283.4 27.0 283.9 27.7Q284.5 28.5 285.4 28.5ZM291.0 24.8L291.0 24.3Q291.0 23.3 291.6 22.6Q292.3 21.9 293.3 21.9L293.3 21.9Q294.4 21.9 295.0 22.6Q295.6 23.3 295.6 24.3L295.6 24.3L295.6 24.9Q295.6 25.9 295.0 26.6Q294.3 27.2 293.3 27.2L293.3 27.2Q292.3 27.2 291.6 26.6Q291.0 25.9 291.0 24.8L291.0 24.8ZM292.1 24.3L292.1 24.9Q292.1 25.5 292.4 25.9Q292.8 26.3 293.3 26.3L293.3 26.3Q293.9 26.3 294.2 25.9Q294.6 25.5 294.6 24.9L294.6 24.9L294.6 24.3Q294.6 23.7 294.2 23.3Q293.9 22.9 293.3 22.9Q292.7 22.9 292.4 23.3Q292.1 23.7 292.1 24.3L292.1 24.3ZM296.5 31.3L296.5 30.7Q296.5 29.7 297.2 29.0Q297.8 28.4 298.9 28.4Q299.9 28.4 300.5 29.0Q301.2 29.7 301.2 30.7L301.2 30.7L301.2 31.3Q301.2 32.3 300.5 33.0Q299.9 33.6 298.9 33.6Q297.9 33.6 297.2 33.0Q296.5 32.3 296.5 31.3L296.5 31.3ZM297.6 30.7L297.6 31.3Q297.6 31.9 297.9 32.3Q298.3 32.7 298.9 32.7L298.9 32.7Q299.4 32.7 299.8 32.3Q300.1 31.9 300.1 31.3L300.1 31.3L300.1 30.7Q300.1 30.1 299.8 29.7Q299.4 29.3 298.9 29.3L298.9 29.3Q298.3 29.3 297.9 29.7Q297.6 30.1 297.6 30.7L297.6 30.7ZM299.2 23.7L293.7 32.6L292.8 32.1L298.4 23.2L299.2 23.7Z "/><mask id="satori_om-id-1-2"><rect x="0" y="47" width="103" height="19" fill="#fff"/></mask><mask id="satori_om-id-1-2-0"><rect x="0" y="48" width="16" height="16" fill="#fff"/></mask><mask id="satori_om-id-1-2-0-0"><rect x="4" y="52" width="8" height="8" fill="#fff"/></mask><path x="4" y="52" width="8" height="8" fill="#844FBA" d="M8,52 h0 a4,4 0 0 1 4,4 v0 a4,4 0 0 1 -4,4 h0 a4,4 0 0 1 -4,-4 v0 a4,4 0 0 1 4,-4"/><mask id="satori_om-id-1-2-1"><rect x="29" y="47" width="31" height="19" fill="#fff"/></mask><path fill="#fff" d="M39.3 51.1L39.3 62.5L36.9 62.5L36.9 57.6L32.4 57.6L32.4 62.5L30.0 62.5L30.0 51.1L32.4 51.1L32.4 55.7L36.9 55.7L36.9 51.1L39.3 51.1ZM47.9 58.7L50.3 58.7Q50.1 60.5 48.9 61.6Q47.7 62.6 45.7 62.6L45.7 62.6Q43.5 62.6 42.2 61.2Q41.0 59.7 41.0 57.1L41.0 57.1L41.0 56.4Q41.0 54.8 41.6 53.5Q42.1 52.3 43.2 51.6Q44.3 51.0 45.7 51.0L45.7 51.0Q47.7 51.0 48.9 52.0Q50.1 53.1 50.3 55.0L50.3 55.0L47.9 55.0Q47.8 53.9 47.3 53.4Q46.8 52.9 45.7 52.9L45.7 52.9Q44.5 52.9 43.9 53.7Q43.4 54.6 43.4 56.3L43.4 56.3L43.4 57.2Q43.4 59.0 43.9 59.9Q44.5 60.7 45.7 60.7L45.7 60.7Q46.8 60.7 47.3 60.2Q47.8 59.7 47.9 58.7L47.9 58.7ZM54.1 51.1L54.1 60.6L59.1 60.6L59.1 62.5L51.8 62.5L51.8 51.1L54.1 51.1Z "/><mask id="satori_om-id-1-2-2"><rect x="69" y="47" width="34" height="19" fill="#fff"/></mask><path fill="#7d8590" d="M76.8 54.1L76.8 54.1Q76.8 54.9 76.4 55.6Q75.9 56.3 75.2 56.6L75.2 56.6Q76.1 57.0 76.6 57.7Q77.1 58.5 77.1 59.4L77.1 59.4Q77.1 60.9 76.1 61.8Q75.1 62.6 73.5 62.6L73.5 62.6Q71.9 62.6 70.9 61.8Q69.9 60.9 69.9 59.4L69.9 59.4Q69.9 58.5 70.4 57.7Q70.9 57.0 71.8 56.6L71.8 56.6Q71.0 56.2 70.6 55.6Q70.1 54.9 70.1 54.1L70.1 54.1Q70.1 52.6 71.1 51.8Q72.0 51.0 73.5 51.0L73.5 51.0Q75.0 51.0 75.9 51.8Q76.8 52.6 76.8 54.1ZM75.7 59.4L75.7 59.4Q75.7 58.4 75.1 57.8Q74.5 57.2 73.5 57.2Q72.5 57.2 71.9 57.8Q71.3 58.4 71.3 59.4Q71.3 60.4 71.9 60.9Q72.5 61.5 73.5 61.5L73.5 61.5Q74.5 61.5 75.1 60.9Q75.7 60.3 75.7 59.4ZM73.5 52.1L73.5 52.1Q72.6 52.1 72.1 52.7Q71.6 53.2 71.6 54.1L71.6 54.1Q71.6 55.0 72.1 55.5Q72.6 56.0 73.5 56.0Q74.4 56.0 74.9 55.5Q75.4 55.0 75.4 54.1Q75.4 53.2 74.9 52.7Q74.3 52.1 73.5 52.1ZM79.1 61.7L79.1 61.7Q79.1 61.4 79.3 61.1Q79.6 60.9 80 60.9Q80.4 60.9 80.7 61.1Q80.9 61.4 80.9 61.7L80.9 61.7Q80.9 62.1 80.7 62.3Q80.4 62.6 80 62.6Q79.6 62.6 79.3 62.3Q79.1 62.1 79.1 61.7ZM88.6 51.1L88.8 51.1L88.8 52.3L88.5 52.3Q86.9 52.4 85.9 53.3Q84.9 54.3 84.7 56.1L84.7 56.1Q85.6 55.0 87.2 55.0L87.2 55.0Q88.6 55.0 89.5 56.1Q90.4 57.1 90.4 58.8L90.4 58.8Q90.4 60.5 89.5 61.6Q88.5 62.6 86.9 62.6L86.9 62.6Q85.3 62.6 84.2 61.4Q83.2 60.1 83.2 58.2L83.2 58.2L83.2 57.6Q83.2 54.5 84.6 52.8Q85.9 51.1 88.6 51.1L88.6 51.1ZM86.9 56.2L86.9 56.2Q86.2 56.2 85.5 56.7Q84.9 57.1 84.7 57.8L84.7 57.8L84.7 58.3Q84.7 59.7 85.3 60.6Q85.9 61.4 86.9 61.4L86.9 61.4Q87.9 61.4 88.4 60.7Q89.0 60.0 89.0 58.8L89.0 58.8Q89.0 57.7 88.4 56.9Q87.9 56.2 86.9 56.2ZM92 53.8L92 53.3Q92 52.3 92.7 51.6Q93.3 50.9 94.3 50.9L94.3 50.9Q95.4 50.9 96.0 51.6Q96.7 52.3 96.7 53.3L96.7 53.3L96.7 53.9Q96.7 54.9 96.0 55.6Q95.4 56.2 94.3 56.2L94.3 56.2Q93.3 56.2 92.7 55.6Q92 54.9 92 53.8L92 53.8ZM93.1 53.3L93.1 53.9Q93.1 54.5 93.4 54.9Q93.8 55.3 94.3 55.3L94.3 55.3Q94.9 55.3 95.2 54.9Q95.6 54.5 95.6 53.9L95.6 53.9L95.6 53.3Q95.6 52.7 95.2 52.3Q94.9 51.9 94.3 51.9Q93.8 51.9 93.4 52.3Q93.1 52.7 93.1 53.3L93.1 53.3ZM97.5 60.3L97.5 59.7Q97.5 58.7 98.2 58.0Q98.8 57.4 99.9 57.4Q100.9 57.4 101.5 58.0Q102.2 58.7 102.2 59.7L102.2 59.7L102.2 60.3Q102.2 61.3 101.6 62.0Q100.9 62.6 99.9 62.6Q98.9 62.6 98.2 62.0Q97.5 61.3 97.5 60.3L97.5 60.3ZM98.6 59.7L98.6 60.3Q98.6 60.9 99.0 61.3Q99.3 61.7 99.9 61.7L99.9 61.7Q100.4 61.7 100.8 61.3Q101.1 60.9 101.1 60.3L101.1 60.3L101.1 59.7Q101.1 59.1 100.8 58.7Q100.4 58.3 99.9 58.3L99.9 58.3Q99.3 58.3 99.0 58.7Q98.6 59.1 98.6 59.7L98.6 59.7ZM100.2 52.7L94.7 61.6L93.9 61.1L99.4 52.2L100.2 52.7Z "/><mask id="satori_om-id-1-3"><rect x="113" y="47" width="117" height="19" fill="#fff"/></mask><mask id="satori_om-id-1-3-0"><rect x="113" y="48" width="16" height="16" fill="#fff"/></mask><mask id="satori_om-id-1-3-0-0"><rect x="117" y="52" width="8" height="8" fill="#fff"/></mask><path x="117" y="52" width="8" height="8" fill="#ff3e00" d="M121,52 h0 a4,4 0 0 1 4,4 v0 a4,4 0 0 1 -4,4 h0 a4,4 0 0 1 -4,-4 v0 a4,4 0 0 1 4,-4"/><mask id="satori_om-id-1-3-1"><rect x="142" y="47" width="45" height="19" fill="#fff"/></mask><path fill="#fff" d="M148.9 59.5L148.9 59.5Q148.9 58.8 148.4 58.5Q148.0 58.1 146.8 57.7Q145.5 57.3 144.8 57.0L144.8 57.0Q142.9 55.9 142.9 54.1L142.9 54.1Q142.9 53.2 143.4 52.5Q143.9 51.8 144.9 51.4Q145.9 51.0 147.1 51.0L147.1 51.0Q148.3 51.0 149.3 51.4Q150.2 51.8 150.7 52.6Q151.3 53.4 151.3 54.5L151.3 54.5L148.9 54.5Q148.9 53.7 148.4 53.3Q147.9 52.8 147.0 52.8L147.0 52.8Q146.2 52.8 145.7 53.2Q145.2 53.5 145.2 54.1L145.2 54.1Q145.2 54.7 145.8 55.1Q146.4 55.4 147.4 55.8L147.4 55.8Q149.4 56.4 150.4 57.3Q151.3 58.2 151.3 59.5L151.3 59.5Q151.3 61.0 150.1 61.8Q149.0 62.6 147.1 62.6L147.1 62.6Q145.8 62.6 144.8 62.2Q143.7 61.7 143.1 60.8Q142.5 60.0 142.5 58.9L142.5 58.9L144.9 58.9Q144.9 60.8 147.1 60.8L147.1 60.8Q148.0 60.8 148.4 60.4Q148.9 60.1 148.9 59.5ZM154.3 54.0L155.9 59.7L157.4 54.0L159.8 54.0L156.9 62.5L154.8 62.5L151.9 54.0L154.3 54.0ZM164.6 62.6L164.6 62.6Q162.7 62.6 161.6 61.5Q160.4 60.4 160.4 58.5L160.4 58.5L160.4 58.2Q160.4 57.0 160.9 56.0Q161.4 55.0 162.3 54.4Q163.2 53.9 164.3 53.9L164.3 53.9Q166.1 53.9 167.1 55.0Q168.1 56.1 168.1 58.1L168.1 58.1L168.1 59.0L162.7 59.0Q162.8 59.8 163.3 60.3Q163.9 60.8 164.7 60.8L164.7 60.8Q166.0 60.8 166.8 59.9L166.8 59.9L167.9 61.1Q167.4 61.8 166.5 62.2Q165.6 62.6 164.6 62.6ZM164.3 55.7L164.3 55.7Q163.6 55.7 163.2 56.2Q162.8 56.6 162.7 57.5L162.7 57.5L165.8 57.5L165.8 57.3Q165.8 56.5 165.4 56.1Q165.0 55.7 164.3 55.7ZM171.7 50.5L171.7 62.5L169.5 62.5L169.5 50.5L171.7 50.5ZM174.0 52.0L176.3 52.0L176.3 54.0L177.7 54.0L177.7 55.7L176.3 55.7L176.3 59.9Q176.3 60.4 176.5 60.6Q176.6 60.8 177.1 60.8L177.1 60.8Q177.5 60.8 177.8 60.7L177.8 60.7L177.8 62.4Q177.1 62.6 176.4 62.6L176.4 62.6Q174.1 62.6 174.0 60.2L174.0 60.2L174.0 55.7L172.8 55.7L172.8 54.0L174.0 54.0L174.0 52.0ZM182.9 62.6L182.9 62.6Q181.0 62.6 179.8 61.5Q178.7 60.4 178.7 58.5L178.7 58.5L178.7 58.2Q178.7 57.0 179.2 56.0Q179.7 55.0 180.6 54.4Q181.5 53.9 182.6 53.9L182.6 53.9Q184.4 53.9 185.4 55.0Q186.4 56.1 186.4 58.1L186.4 58.1L186.4 59.0L181.0 59.0Q181.1 59.8 181.6 60.3Q182.2 60.8 183.0 60.8L183.0 60.8Q184.3 60.8 185.1 59.9L185.1 59.9L186.2 61.1Q185.7 61.8 184.8 62.2Q183.9 62.6 182.9 62.6ZM182.6 55.7L182.6 55.7Q181.9 55.7 181.5 56.2Q181.1 56.6 181.0 57.5L181.0 57.5L184.1 57.5L184.1 57.3Q184.1 56.5 183.7 56.1Q183.3 55.7 182.6 55.7Z "/><mask id="satori_om-id-1-3-2"><rect x="196" y="47" width="34" height="19" fill="#fff"/></mask><path fill="#7d8590" d="M202.4 51.1L202.6 51.1L202.6 52.3L202.4 52.3Q200.7 52.4 199.7 53.3Q198.7 54.3 198.5 56.1L198.5 56.1Q199.4 55.0 201.0 55.0L201.0 55.0Q202.4 55.0 203.3 56.1Q204.2 57.1 204.2 58.8L204.2 58.8Q204.2 60.5 203.3 61.6Q202.3 62.6 200.7 62.6L200.7 62.6Q199.1 62.6 198.0 61.4Q197.0 60.1 197.0 58.2L197.0 58.2L197.0 57.6Q197.0 54.5 198.4 52.8Q199.7 51.1 202.4 51.1L202.4 51.1ZM200.7 56.2L200.7 56.2Q200.0 56.2 199.4 56.7Q198.7 57.1 198.5 57.8L198.5 57.8L198.5 58.3Q198.5 59.7 199.1 60.6Q199.8 61.4 200.7 61.4L200.7 61.4Q201.7 61.4 202.2 60.7Q202.8 60.0 202.8 58.8L202.8 58.8Q202.8 57.7 202.2 56.9Q201.7 56.2 200.7 56.2ZM206.1 61.7L206.1 61.7Q206.1 61.4 206.3 61.1Q206.6 60.9 207 60.9Q207.4 60.9 207.7 61.1Q207.9 61.4 207.9 61.7L207.9 61.7Q207.9 62.1 207.7 62.3Q207.4 62.6 207 62.6Q206.6 62.6 206.3 62.3Q206.1 62.1 206.1 61.7ZM215.6 51.1L215.8 51.1L215.8 52.3L215.5 52.3Q213.9 52.4 212.9 53.3Q211.9 54.3 211.7 56.1L211.7 56.1Q212.6 55.0 214.2 55.0L214.2 55.0Q215.6 55.0 216.5 56.1Q217.4 57.1 217.4 58.8L217.4 58.8Q217.4 60.5 216.5 61.6Q215.5 62.6 213.9 62.6L213.9 62.6Q212.3 62.6 211.2 61.4Q210.2 60.1 210.2 58.2L210.2 58.2L210.2 57.6Q210.2 54.5 211.6 52.8Q212.9 51.1 215.6 51.1L215.6 51.1ZM213.9 56.2L213.9 56.2Q213.2 56.2 212.5 56.7Q211.9 57.1 211.7 57.8L211.7 57.8L211.7 58.3Q211.7 59.7 212.3 60.6Q212.9 61.4 213.9 61.4L213.9 61.4Q214.9 61.4 215.4 60.7Q216.0 60.0 216.0 58.8L216.0 58.8Q216.0 57.7 215.4 56.9Q214.9 56.2 213.9 56.2ZM219 53.8L219 53.3Q219 52.3 219.7 51.6Q220.3 50.9 221.3 50.9L221.3 50.9Q222.4 50.9 223.0 51.6Q223.7 52.3 223.7 53.3L223.7 53.3L223.7 53.9Q223.7 54.9 223.0 55.6Q222.4 56.2 221.3 56.2L221.3 56.2Q220.3 56.2 219.7 55.6Q219 54.9 219 53.8L219 53.8ZM220.1 53.3L220.1 53.9Q220.1 54.5 220.4 54.9Q220.8 55.3 221.3 55.3L221.3 55.3Q221.9 55.3 222.2 54.9Q222.6 54.5 222.6 53.9L222.6 53.9L222.6 53.3Q222.6 52.7 222.2 52.3Q221.9 51.9 221.3 51.9Q220.8 51.9 220.4 52.3Q220.1 52.7 220.1 53.3L220.1 53.3ZM224.5 60.3L224.5 59.7Q224.5 58.7 225.2 58.0Q225.8 57.4 226.9 57.4Q227.9 57.4 228.5 58.0Q229.2 58.7 229.2 59.7L229.2 59.7L229.2 60.3Q229.2 61.3 228.6 62.0Q227.9 62.6 226.9 62.6Q225.9 62.6 225.2 62.0Q224.5 61.3 224.5 60.3L224.5 60.3ZM225.6 59.7L225.6 60.3Q225.6 60.9 226.0 61.3Q226.3 61.7 226.9 61.7L226.9 61.7Q227.4 61.7 227.8 61.3Q228.1 60.9 228.1 60.3L228.1 60.3L228.1 59.7Q228.1 59.1 227.8 58.7Q227.4 58.3 226.9 58.3L226.9 58.3Q226.3 58.3 226.0 58.7Q225.6 59.1 225.6 59.7L225.6 59.7ZM227.2 52.7L221.7 61.6L220.9 61.1L226.4 52.2L227.2 52.7Z "/><mask id="satori_om-id-1-4"><rect x="240" y="47" width="92" height="19" fill="#fff"/></mask><mask id="satori_om-id-1-4-0"><rect x="240" y="48" width="16" height="16" fill="#fff"/></mask><mask id="satori_om-id-1-4-0-0"><rect x="244" y="52" width="8" height="8" fill="#fff"/></mask><path x="244" y="52" width="8" height="8" fill="#00ADD8" d="M248,52 h0 a4,4 0 0 1 4,4 v0 a4,4 0 0 1 -4,4 h0 a4,4 0 0 1 -4,-4 v0 a4,4 0 0 1 4,-4"/><mask id="satori_om-id-1-4-1"><rect x="269" y="47" width="20" height="19" fill="#fff"/></mask><path fill="#fff" d="M279.0 56.5L279.0 61.0Q278.4 61.8 277.2 62.2Q276.1 62.6 274.7 62.6L274.7 62.6Q273.2 62.6 272.1 62.0Q271.0 61.4 270.4 60.1Q269.8 58.9 269.7 57.2L269.7 57.2L269.7 56.5Q269.7 54.8 270.3 53.5Q270.9 52.3 272.0 51.6Q273.0 51.0 274.5 51.0L274.5 51.0Q276.5 51.0 277.7 51.9Q278.8 52.9 279.0 54.7L279.0 54.7L276.7 54.7Q276.6 53.7 276.0 53.3Q275.5 52.8 274.6 52.8L274.6 52.8Q273.4 52.8 272.8 53.7Q272.1 54.6 272.1 56.4L272.1 56.4L272.1 57.1Q272.1 58.9 272.8 59.8Q273.5 60.8 274.8 60.8L274.8 60.8Q276.1 60.8 276.7 60.2L276.7 60.2L276.7 58.2L274.5 58.2L274.5 56.5L279.0 56.5ZM280.4 58.3L280.4 58.2Q280.4 56.9 280.9 55.9Q281.4 55.0 282.3 54.4Q283.2 53.9 284.4 53.9L284.4 53.9Q286.1 53.9 287.2 54.9Q288.3 56.0 288.4 57.8L288.4 57.8L288.4 58.3Q288.4 60.3 287.3 61.5Q286.3 62.6 284.4 62.6Q282.6 62.6 281.5 61.5Q280.4 60.3 280.4 58.3L280.4 58.3ZM282.7 58.3L282.7 58.3Q282.7 59.5 283.1 60.2Q283.6 60.8 284.4 60.8L284.4 60.8Q285.2 60.8 285.7 60.2Q286.2 59.6 286.2 58.2L286.2 58.2Q286.2 57.0 285.7 56.4Q285.2 55.7 284.4 55.7L284.4 55.7Q283.6 55.7 283.1 56.3Q282.7 57.0 282.7 58.3Z "/><mask id="satori_om-id-1-4-2"><rect x="298" y="47" width="34" height="19" fill="#fff"/></mask><path fill="#7d8590" d="M305.0 51.1L305.0 58.7L306.6 58.7L306.6 59.8L305.0 59.8L305.0 62.5L303.6 62.5L303.6 59.8L298.4 59.8L298.4 59.0L303.5 51.1L305.0 51.1ZM303.4 53.4L300.1 58.7L303.6 58.7L303.6 53.1L303.4 53.4ZM308.1 61.7L308.1 61.7Q308.1 61.4 308.3 61.1Q308.6 60.9 309 60.9Q309.4 60.9 309.7 61.1Q309.9 61.4 309.9 61.7L309.9 61.7Q309.9 62.1 309.7 62.3Q309.4 62.6 309 62.6Q308.6 62.6 308.3 62.3Q308.1 62.1 308.1 61.7ZM314.2 57.3L314.2 56.1L315.3 56.1Q316.4 56.1 316.9 55.6Q317.5 55.0 317.5 54.1L317.5 54.1Q317.5 52.1 315.5 52.1L315.5 52.1Q314.6 52.1 314.0 52.7Q313.5 53.2 313.5 54.1L313.5 54.1L312.0 54.1Q312.0 52.7 313.0 51.8Q314.0 51.0 315.5 51.0L315.5 51.0Q317.1 51.0 318.1 51.8Q319.0 52.7 319.0 54.2L319.0 54.2Q319.0 54.9 318.5 55.6Q318.0 56.3 317.2 56.6L317.2 56.6Q318.1 56.9 318.6 57.6Q319.1 58.3 319.1 59.3L319.1 59.3Q319.1 60.8 318.1 61.7Q317.1 62.6 315.5 62.6Q313.9 62.6 312.9 61.8Q311.9 60.9 311.9 59.5L311.9 59.5L313.4 59.5Q313.4 60.4 314.0 60.9Q314.6 61.5 315.5 61.5L315.5 61.5Q316.6 61.5 317.1 60.9Q317.7 60.4 317.7 59.3L317.7 59.3Q317.7 58.4 317.1 57.8Q316.5 57.3 315.3 57.3L315.3 57.3L314.2 57.3ZM321 53.8L321 53.3Q321 52.3 321.7 51.6Q322.3 50.9 323.3 50.9L323.3 50.9Q324.4 50.9 325.0 51.6Q325.7 52.3 325.7 53.3L325.7 53.3L325.7 53.9Q325.7 54.9 325.0 55.6Q324.4 56.2 323.3 56.2L323.3 56.2Q322.3 56.2 321.7 55.6Q321 54.9 321 53.8L321 53.8ZM322.1 53.3L322.1 53.9Q322.1 54.5 322.4 54.9Q322.8 55.3 323.3 55.3L323.3 55.3Q323.9 55.3 324.2 54.9Q324.6 54.5 324.6 53.9L324.6 53.9L324.6 53.3Q324.6 52.7 324.2 52.3Q323.9 51.9 323.3 51.9Q322.8 51.9 322.4 52.3Q322.1 52.7 322.1 53.3L322.1 53.3ZM326.5 60.3L326.5 59.7Q326.5 58.7 327.2 58.0Q327.8 57.4 328.9 57.4Q329.9 57.4 330.5 58.0Q331.2 58.7 331.2 59.7L331.2 59.7L331.2 60.3Q331.2 61.3 330.6 62.0Q329.9 62.6 328.9 62.6Q327.9 62.6 327.2 62.0Q326.5 61.3 326.5 60.3L326.5 60.3ZM327.6 59.7L327.6 60.3Q327.6 60.9 328.0 61.3Q328.3 61.7 328.9 61.7L328.9 61.7Q329.4 61.7 329.8 61.3Q330.1 60.9 330.1 60.3L330.1 60.3L330.1 59.7Q330.1 59.1 329.8 58.7Q329.4 58.3 328.9 58.3L328.9 58.3Q328.3 58.3 328.0 58.7Q327.6 59.1 327.6 59.7L327.6 59.7ZM329.2 52.7L323.7 61.6L322.9 61.1L328.4 52.2L329.2 52.7Z "/><mask id="satori_om-id-1-5"><rect x="0" y="76" width="83" height="18" fill="#fff"/></mask><mask id="satori_om-id-1-5-0"><rect x="0" y="77" width="16" height="16" fill="#fff"/></mask><mask id="satori_om-id-1-5-0-0"><rect x="4" y="81" width="8" height="8" fill="#fff"/></mask><path x="4" y="81" width="8" height="8" fill="#555555" d="M8,81 h0 a4,4 0 0 1 4,4 v0 a4,4 0 0 1 -4,4 h0 a4,4 0 0 1 -4,-4 v0 a4,4 0 0 1 4,-4"/><mask id="satori_om-id-1-5-1"><rect x="29" y="76" width="11" height="18" fill="#fff"/></mask><path fill="#fff" d="M36.6 87.7L38.9 87.7Q38.8 89.5 37.6 90.6Q36.4 91.6 34.4 91.6L34.4 91.6Q32.2 91.6 30.9 90.2Q29.7 88.7 29.7 86.1L29.7 86.1L29.7 85.4Q29.7 83.8 30.3 82.5Q30.8 81.3 31.9 80.6Q33.0 80.0 34.4 80.0L34.4 80.0Q36.4 80.0 37.6 81.0Q38.8 82.1 39.0 84.0L39.0 84.0L36.6 84.0Q36.5 82.9 36.0 82.4Q35.5 81.9 34.4 81.9L34.4 81.9Q33.2 81.9 32.6 82.7Q32.1 83.6 32.0 85.3L32.0 85.3L32.0 86.2Q32.0 88.0 32.6 88.9Q33.2 89.7 34.4 89.7L34.4 89.7Q35.5 89.7 36.0 89.2Q36.5 88.7 36.6 87.7L36.6 87.7Z "/><mask id="satori_om-id-1-5-2"><rect x="49" y="76" width="34" height="18" fill="#fff"/></mask><path fill="#7d8590" d="M56.0 80.1L56.0 87.7L57.6 87.7L57.6 88.8L56.0 88.8L56.0 91.5L54.6 91.5L54.6 88.8L49.4 88.8L49.4 88.0L54.5 80.1L56.0 80.1ZM54.4 82.4L51.1 87.7L54.6 87.7L54.6 82.1L54.4 82.4ZM59.1 90.7L59.1 90.7Q59.1 90.4 59.3 90.1Q59.6 89.9 60 89.9Q60.4 89.9 60.7 90.1Q60.9 90.4 60.9 90.7L60.9 90.7Q60.9 91.1 60.7 91.3Q60.4 91.6 60 91.6Q59.6 91.6 59.3 91.3Q59.1 91.1 59.1 90.7ZM67.9 80.1L67.9 91.5L66.4 91.5L66.4 81.9L63.5 82.9L63.5 81.6L67.7 80.1L67.9 80.1ZM72 82.8L72 82.3Q72 81.3 72.7 80.6Q73.3 79.9 74.3 79.9L74.3 79.9Q75.4 79.9 76.0 80.6Q76.7 81.3 76.7 82.3L76.7 82.3L76.7 82.9Q76.7 83.9 76.0 84.6Q75.4 85.2 74.3 85.2L74.3 85.2Q73.3 85.2 72.7 84.6Q72 83.9 72 82.8L72 82.8ZM73.1 82.3L73.1 82.9Q73.1 83.5 73.4 83.9Q73.8 84.3 74.3 84.3L74.3 84.3Q74.9 84.3 75.2 83.9Q75.6 83.5 75.6 82.9L75.6 82.9L75.6 82.3Q75.6 81.7 75.2 81.3Q74.9 80.9 74.3 80.9Q73.8 80.9 73.4 81.3Q73.1 81.7 73.1 82.3L73.1 82.3ZM77.5 89.3L77.5 88.7Q77.5 87.7 78.2 87.0Q78.8 86.4 79.9 86.4Q80.9 86.4 81.5 87.0Q82.2 87.7 82.2 88.7L82.2 88.7L82.2 89.3Q82.2 90.3 81.6 91.0Q80.9 91.6 79.9 91.6Q78.9 91.6 78.2 91.0Q77.5 90.3 77.5 89.3L77.5 89.3ZM78.6 88.7L78.6 89.3Q78.6 89.9 79.0 90.3Q79.3 90.7 79.9 90.7L79.9 90.7Q80.4 90.7 80.8 90.3Q81.1 89.9 81.1 89.3L81.1 89.3L81.1 88.7Q81.1 88.1 80.8 87.7Q80.4 87.3 79.9 87.3L79.9 87.3Q79.3 87.3 79.0 87.7Q78.6 88.1 78.6 88.7L78.6 88.7ZM80.2 81.7L74.7 90.6L73.9 90.1L79.4 81.2L80.2 81.7Z "/><mask id="satori_om-id-1-6"><rect x="93" y="76" width="149" height="18" fill="#fff"/></mask><mask id="satori_om-id-1-6-0"><rect x="93" y="77" width="16" height="16" fill="#fff"/></mask><mask id="satori_om-id-1-6-0-0"><rect x="97" y="81" width="8" height="8" fill="#fff"/></mask><path x="97" y="81" width="8" height="8" fill="#f1e05a" d="M101,81 h0 a4,4 0 0 1 4,4 v0 a4,4 0 0 1 -4,4 h0 a4,4 0 0 1 -4,-4 v0 a4,4 0 0 1 4,-4"/><mask id="satori_om-id-1-6-1"><rect x="122" y="76" width="77" height="18" fill="#fff"/></mask><path fill="#fff" d="M127.6 88.0L127.6 80.1L129.9 80.1L129.9 88.0Q129.9 89.1 129.5 89.9Q129.0 90.7 128.1 91.2Q127.2 91.6 126.1 91.6L126.1 91.6Q124.3 91.6 123.3 90.7Q122.3 89.8 122.3 88.1L122.3 88.1L124.7 88.1Q124.7 89.0 125.0 89.4Q125.4 89.8 126.1 89.8L126.1 89.8Q126.8 89.8 127.2 89.3Q127.6 88.8 127.6 88.0L127.6 88.0ZM139.0 91.5L136.7 91.5Q136.5 91.2 136.5 90.7L136.5 90.7Q135.7 91.6 134.3 91.6L134.3 91.6Q133.1 91.6 132.3 90.9Q131.5 90.2 131.5 89.1L131.5 89.1Q131.5 87.8 132.5 87.0Q133.5 86.3 135.3 86.3L135.3 86.3L136.4 86.3L136.4 85.8Q136.4 85.2 136.1 84.9Q135.8 84.5 135.1 84.5L135.1 84.5Q134.6 84.5 134.2 84.8Q133.9 85.1 133.9 85.6L133.9 85.6L131.7 85.6Q131.7 84.8 132.1 84.2Q132.6 83.6 133.4 83.2Q134.2 82.9 135.3 82.9L135.3 82.9Q136.8 82.9 137.7 83.7Q138.6 84.4 138.6 85.9L138.6 85.9L138.6 89.5Q138.7 90.7 139.0 91.4L139.0 91.4L139.0 91.5ZM134.8 89.9L134.8 89.9Q135.3 89.9 135.8 89.7Q136.2 89.5 136.4 89.1L136.4 89.1L136.4 87.6L135.5 87.6Q133.8 87.6 133.7 88.8L133.7 88.8L133.7 88.9Q133.7 89.4 134.0 89.6Q134.3 89.9 134.8 89.9ZM141.9 83.0L143.4 88.7L145 83.0L147.4 83.0L144.5 91.5L142.4 91.5L139.5 83.0L141.9 83.0ZM155.4 91.5L153.1 91.5Q153.0 91.2 152.9 90.7L152.9 90.7Q152.1 91.6 150.8 91.6L150.8 91.6Q149.5 91.6 148.7 90.9Q147.9 90.2 147.9 89.1L147.9 89.1Q147.9 87.8 148.9 87.0Q149.9 86.3 151.8 86.3L151.8 86.3L152.8 86.3L152.8 85.8Q152.8 85.2 152.5 84.9Q152.2 84.5 151.6 84.5L151.6 84.5Q151.0 84.5 150.7 84.8Q150.3 85.1 150.3 85.6L150.3 85.6L148.1 85.6Q148.1 84.8 148.5 84.2Q149.0 83.6 149.8 83.2Q150.6 82.9 151.7 82.9L151.7 82.9Q153.2 82.9 154.2 83.7Q155.1 84.4 155.1 85.9L155.1 85.9L155.1 89.5Q155.1 90.7 155.4 91.4L155.4 91.4L155.4 91.5ZM151.3 89.9L151.3 89.9Q151.8 89.9 152.2 89.7Q152.6 89.5 152.8 89.1L152.8 89.1L152.8 87.6L152.0 87.6Q150.3 87.6 150.2 88.8L150.2 88.8L150.2 88.9Q150.2 89.4 150.5 89.6Q150.8 89.9 151.3 89.9ZM162.9 88.5L162.9 88.5Q162.9 87.8 162.4 87.5Q161.9 87.1 160.7 86.7Q159.5 86.3 158.8 86.0L158.8 86.0Q156.8 84.9 156.8 83.1L156.8 83.1Q156.8 82.2 157.4 81.5Q157.9 80.8 158.8 80.4Q159.8 80.0 161.0 80.0L161.0 80.0Q162.3 80.0 163.2 80.4Q164.2 80.8 164.7 81.6Q165.2 82.4 165.2 83.5L165.2 83.5L162.9 83.5Q162.9 82.7 162.4 82.3Q161.9 81.8 161.0 81.8L161.0 81.8Q160.1 81.8 159.7 82.2Q159.2 82.5 159.2 83.1L159.2 83.1Q159.2 83.7 159.7 84.1Q160.3 84.4 161.4 84.8L161.4 84.8Q163.4 85.4 164.3 86.3Q165.2 87.2 165.2 88.5L165.2 88.5Q165.2 90.0 164.1 90.8Q163.0 91.6 161.1 91.6L161.1 91.6Q159.8 91.6 158.7 91.2Q157.6 90.7 157.1 89.8Q156.5 89.0 156.5 87.9L156.5 87.9L158.8 87.9Q158.8 89.8 161.1 89.8L161.1 89.8Q161.9 89.8 162.4 89.4Q162.9 89.1 162.9 88.5ZM170.2 89.8L170.2 89.8Q170.8 89.8 171.2 89.5Q171.6 89.1 171.6 88.6L171.6 88.6L173.7 88.6Q173.7 89.4 173.2 90.1Q172.8 90.9 172.0 91.2Q171.2 91.6 170.2 91.6L170.2 91.6Q168.4 91.6 167.3 90.5Q166.3 89.3 166.3 87.3L166.3 87.3L166.3 87.2Q166.3 85.2 167.3 84.0Q168.4 82.9 170.2 82.9L170.2 82.9Q171.8 82.9 172.7 83.8Q173.7 84.7 173.7 86.2L173.7 86.2L171.6 86.2Q171.6 85.5 171.2 85.1Q170.8 84.7 170.1 84.7L170.1 84.7Q169.4 84.7 169.0 85.3Q168.6 85.9 168.6 87.1L168.6 87.1L168.6 87.4Q168.6 88.7 169.0 89.2Q169.4 89.8 170.2 89.8ZM179.8 83.0L179.7 85.1Q179.3 85.1 178.9 85.1L178.9 85.1Q177.6 85.1 177.3 86.0L177.3 86.0L177.3 91.5L175.0 91.5L175.0 83.0L177.1 83.0L177.2 84.0Q177.9 82.9 179.1 82.9L179.1 82.9Q179.4 82.9 179.8 83.0L179.8 83.0ZM183.2 83.0L183.2 91.5L180.9 91.5L180.9 83.0L183.2 83.0ZM180.8 80.8L180.8 80.8Q180.8 80.3 181.2 80.0Q181.5 79.7 182.1 79.7L182.1 79.7Q182.7 79.7 183 80.0Q183.3 80.3 183.3 80.8L183.3 80.8Q183.3 81.4 183.0 81.7Q182.6 82.0 182.1 82.0Q181.5 82.0 181.2 81.7Q180.8 81.4 180.8 80.8ZM192.7 87.2L192.7 87.3Q192.7 89.3 191.8 90.5Q190.9 91.6 189.4 91.6L189.4 91.6Q188.1 91.6 187.3 90.7L187.3 90.7L187.3 94.7L185.1 94.7L185.1 83.0L187.2 83.0L187.2 83.9Q188.1 82.9 189.4 82.9L189.4 82.9Q190.9 82.9 191.8 84.0Q192.7 85.2 192.7 87.2L192.7 87.2ZM190.4 87.2L190.4 87.2Q190.4 86.0 190.0 85.4Q189.6 84.7 188.8 84.7L188.8 84.7Q187.7 84.7 187.3 85.5L187.3 85.5L187.3 89.0Q187.7 89.8 188.8 89.8L188.8 89.8Q190.4 89.8 190.4 87.2ZM194.5 81.0L196.8 81.0L196.8 83.0L198.2 83.0L198.2 84.7L196.8 84.7L196.8 88.9Q196.8 89.4 197.0 89.6Q197.1 89.8 197.6 89.8L197.6 89.8Q198.0 89.8 198.3 89.7L198.3 89.7L198.3 91.4Q197.6 91.6 196.9 91.6L196.9 91.6Q194.6 91.6 194.5 89.2L194.5 89.2L194.5 84.7L193.3 84.7L193.3 83.0L194.5 83.0L194.5 81.0Z "/><mask id="satori_om-id-1-6-2"><rect x="208" y="76" width="34" height="18" fill="#fff"/></mask><path fill="#7d8590" d="M211.0 86.3L211.0 85.1L212.1 85.1Q213.2 85.1 213.7 84.6Q214.3 84.0 214.3 83.1L214.3 83.1Q214.3 81.1 212.3 81.1L212.3 81.1Q211.4 81.1 210.8 81.7Q210.3 82.2 210.3 83.1L210.3 83.1L208.8 83.1Q208.8 81.7 209.8 80.8Q210.8 80.0 212.3 80.0L212.3 80.0Q213.9 80.0 214.9 80.8Q215.8 81.7 215.8 83.2L215.8 83.2Q215.8 83.9 215.3 84.6Q214.8 85.3 214.0 85.6L214.0 85.6Q214.9 85.9 215.4 86.6Q215.9 87.3 215.9 88.3L215.9 88.3Q215.9 89.8 214.9 90.7Q213.9 91.6 212.3 91.6Q210.7 91.6 209.7 90.8Q208.7 89.9 208.7 88.5L208.7 88.5L210.2 88.5Q210.2 89.4 210.8 89.9Q211.4 90.5 212.3 90.5L212.3 90.5Q213.4 90.5 213.9 89.9Q214.5 89.4 214.5 88.3L214.5 88.3Q214.5 87.4 213.9 86.8Q213.3 86.3 212.1 86.3L212.1 86.3L211.0 86.3ZM218.1 90.7L218.1 90.7Q218.1 90.4 218.3 90.1Q218.6 89.9 219 89.9Q219.4 89.9 219.7 90.1Q219.9 90.4 219.9 90.7L219.9 90.7Q219.9 91.1 219.7 91.3Q219.4 91.6 219 91.6Q218.6 91.6 218.3 91.3Q218.1 91.1 218.1 90.7ZM226.9 80.1L226.9 91.5L225.4 91.5L225.4 81.9L222.5 82.9L222.5 81.6L226.7 80.1L226.9 80.1ZM231 82.8L231 82.3Q231 81.3 231.7 80.6Q232.3 79.9 233.3 79.9L233.3 79.9Q234.4 79.9 235.0 80.6Q235.7 81.3 235.7 82.3L235.7 82.3L235.7 82.9Q235.7 83.9 235.0 84.6Q234.4 85.2 233.3 85.2L233.3 85.2Q232.3 85.2 231.7 84.6Q231 83.9 231 82.8L231 82.8ZM232.1 82.3L232.1 82.9Q232.1 83.5 232.4 83.9Q232.8 84.3 233.3 84.3L233.3 84.3Q233.9 84.3 234.2 83.9Q234.6 83.5 234.6 82.9L234.6 82.9L234.6 82.3Q234.6 81.7 234.2 81.3Q233.9 80.9 233.3 80.9Q232.8 80.9 232.4 81.3Q232.1 81.7 232.1 82.3L232.1 82.3ZM236.5 89.3L236.5 88.7Q236.5 87.7 237.2 87.0Q237.8 86.4 238.9 86.4Q239.9 86.4 240.5 87.0Q241.2 87.7 241.2 88.7L241.2 88.7L241.2 89.3Q241.2 90.3 240.6 91.0Q239.9 91.6 238.9 91.6Q237.9 91.6 237.2 91.0Q236.5 90.3 236.5 89.3L236.5 89.3ZM237.6 88.7L237.6 89.3Q237.6 89.9 238.0 90.3Q238.3 90.7 238.9 90.7L238.9 90.7Q239.4 90.7 239.8 90.3Q240.1 89.9 240.1 89.3L240.1 89.3L240.1 88.7Q240.1 88.1 239.8 87.7Q239.4 87.3 238.9 87.3L238.9 87.3Q238.3 87.3 238.0 87.7Q237.6 88.1 237.6 88.7L237.6 88.7ZM239.2 81.7L233.7 90.6L232.9 90.1L238.4 81.2L239.2 81.7Z "/><mask id="satori_om-id-1-7"><rect x="252" y="76" width="112" height="18" fill="#fff"/></mask><mask id="satori_om-id-1-7-0"><rect x="252" y="77" width="16" height="16" fill="#fff"/></mask><mask id="satori_om-id-1-7-0-0"><rect x="256" y="81" width="8" height="8" fill="#fff"/></mask><path x="256" y="81" width="8" height="8" fill="#ff5a03" d="M260,81 h0 a4,4 0 0 1 4,4 v0 a4,4 0 0 1 -4,4 h0 a4,4 0 0 1 -4,-4 v0 a4,4 0 0 1 4,-4"/><mask id="satori_om-id-1-7-1"><rect x="281" y="76" width="40" height="18" fill="#fff"/></mask><path fill="#fff" d="M289.2 91.5L288.4 89.1L284.3 89.1L283.5 91.5L281.1 91.5L285.3 80.1L287.5 80.1L291.7 91.5L289.2 91.5ZM286.4 83.0L285.0 87.2L287.8 87.2L286.4 83.0ZM297.2 89.1L297.2 89.1Q297.2 88.7 296.8 88.5Q296.4 88.3 295.5 88.1L295.5 88.1Q292.5 87.4 292.5 85.5L292.5 85.5Q292.5 84.4 293.4 83.6Q294.3 82.9 295.8 82.9L295.8 82.9Q297.5 82.9 298.4 83.6Q299.4 84.4 299.4 85.6L299.4 85.6L297.1 85.6Q297.1 85.1 296.8 84.8Q296.5 84.5 295.8 84.5L295.8 84.5Q295.3 84.5 295.0 84.7Q294.6 85.0 294.6 85.4L294.6 85.4Q294.6 85.8 295.0 86.0Q295.4 86.2 296.2 86.4Q297.0 86.6 297.6 86.8L297.6 86.8Q299.4 87.4 299.4 89.1L299.4 89.1Q299.4 90.2 298.4 90.9Q297.4 91.6 295.9 91.6L295.9 91.6Q294.8 91.6 294.0 91.3Q293.1 90.9 292.7 90.2Q292.2 89.6 292.2 88.8L292.2 88.8L294.3 88.8Q294.4 89.4 294.8 89.7Q295.2 90.0 295.9 90.0L295.9 90.0Q296.5 90.0 296.9 89.8Q297.2 89.5 297.2 89.1ZM301.3 81.0L303.6 81.0L303.6 83.0L305.0 83.0L305.0 84.7L303.6 84.7L303.6 88.9Q303.6 89.4 303.7 89.6Q303.9 89.8 304.4 89.8L304.4 89.8Q304.8 89.8 305.1 89.7L305.1 89.7L305.1 91.4Q304.4 91.6 303.7 91.6L303.7 91.6Q301.4 91.6 301.3 89.2L301.3 89.2L301.3 84.7L300.1 84.7L300.1 83.0L301.3 83.0L301.3 81.0ZM311.0 83.0L311.0 85.1Q310.6 85.1 310.2 85.1L310.2 85.1Q308.9 85.1 308.5 86.0L308.5 86.0L308.5 91.5L306.3 91.5L306.3 83.0L308.4 83.0L308.5 84.0Q309.1 82.9 310.3 82.9L310.3 82.9Q310.7 82.9 311.0 83.0L311.0 83.0ZM311.5 87.3L311.5 87.2Q311.5 85.9 312.0 84.9Q312.4 84.0 313.3 83.4Q314.3 82.9 315.5 82.9L315.5 82.9Q317.2 82.9 318.3 83.9Q319.3 85.0 319.5 86.8L319.5 86.8L319.5 87.3Q319.5 89.3 318.4 90.5Q317.3 91.6 315.5 91.6Q313.6 91.6 312.6 90.5Q311.5 89.3 311.5 87.3L311.5 87.3ZM313.7 87.3L313.7 87.3Q313.7 88.5 314.2 89.2Q314.6 89.8 315.5 89.8L315.5 89.8Q316.3 89.8 316.8 89.2Q317.2 88.6 317.2 87.2L317.2 87.2Q317.2 86.0 316.8 85.4Q316.3 84.7 315.5 84.7L315.5 84.7Q314.6 84.7 314.2 85.3Q313.7 86.0 313.7 87.3Z "/><mask id="satori_om-id-1-7-2"><rect x="330" y="76" width="34" height="18" fill="#fff"/></mask><path fill="#7d8590" d="M338.4 90.3L338.4 91.5L330.9 91.5L330.9 90.4L334.9 86.1Q335.8 85.1 336.1 84.5Q336.4 83.8 336.4 83.2L336.4 83.2Q336.4 82.3 335.9 81.7Q335.3 81.1 334.4 81.1L334.4 81.1Q333.4 81.1 332.8 81.8Q332.2 82.4 332.2 83.5L332.2 83.5L330.7 83.5Q330.7 81.9 331.7 80.9Q332.8 80.0 334.4 80.0L334.4 80.0Q336.0 80.0 337.0 80.8Q337.9 81.6 337.9 83.0L337.9 83.0Q337.9 84.7 335.7 87.0L335.7 87.0L332.7 90.3L338.4 90.3ZM340.1 90.7L340.1 90.7Q340.1 90.4 340.3 90.1Q340.6 89.9 341 89.9Q341.4 89.9 341.7 90.1Q341.9 90.4 341.9 90.7L341.9 90.7Q341.9 91.1 341.7 91.3Q341.4 91.6 341 91.6Q340.6 91.6 340.3 91.3Q340.1 91.1 340.1 90.7ZM346.2 86.3L346.2 85.1L347.3 85.1Q348.4 85.1 348.9 84.6Q349.5 84.0 349.5 83.1L349.5 83.1Q349.5 81.1 347.5 81.1L347.5 81.1Q346.6 81.1 346.0 81.7Q345.5 82.2 345.5 83.1L345.5 83.1L344.0 83.1Q344.0 81.7 345.0 80.8Q346.0 80.0 347.5 80.0L347.5 80.0Q349.1 80.0 350.1 80.8Q351.0 81.7 351.0 83.2L351.0 83.2Q351.0 83.9 350.5 84.6Q350.0 85.3 349.2 85.6L349.2 85.6Q350.1 85.9 350.6 86.6Q351.1 87.3 351.1 88.3L351.1 88.3Q351.1 89.8 350.1 90.7Q349.1 91.6 347.5 91.6Q345.9 91.6 344.9 90.8Q343.9 89.9 343.9 88.5L343.9 88.5L345.4 88.5Q345.4 89.4 346.0 89.9Q346.6 90.5 347.5 90.5L347.5 90.5Q348.6 90.5 349.1 89.9Q349.7 89.4 349.7 88.3L349.7 88.3Q349.7 87.4 349.1 86.8Q348.5 86.3 347.3 86.3L347.3 86.3L346.2 86.3ZM353 82.8L353 82.3Q353 81.3 353.7 80.6Q354.3 79.9 355.3 79.9L355.3 79.9Q356.4 79.9 357.0 80.6Q357.7 81.3 357.7 82.3L357.7 82.3L357.7 82.9Q357.7 83.9 357.0 84.6Q356.4 85.2 355.3 85.2L355.3 85.2Q354.3 85.2 353.7 84.6Q353 83.9 353 82.8L353 82.8ZM354.1 82.3L354.1 82.9Q354.1 83.5 354.4 83.9Q354.8 84.3 355.3 84.3L355.3 84.3Q355.9 84.3 356.2 83.9Q356.6 83.5 356.6 82.9L356.6 82.9L356.6 82.3Q356.6 81.7 356.2 81.3Q355.9 80.9 355.3 80.9Q354.8 80.9 354.4 81.3Q354.1 81.7 354.1 82.3L354.1 82.3ZM358.5 89.3L358.5 88.7Q358.5 87.7 359.2 87.0Q359.8 86.4 360.9 86.4Q361.9 86.4 362.5 87.0Q363.2 87.7 363.2 88.7L363.2 88.7L363.2 89.3Q363.2 90.3 362.6 91.0Q361.9 91.6 360.9 91.6Q359.9 91.6 359.2 91.0Q358.5 90.3 358.5 89.3L358.5 89.3ZM359.6 88.7L359.6 89.3Q359.6 89.9 360.0 90.3Q360.3 90.7 360.9 90.7L360.9 90.7Q361.4 90.7 361.8 90.3Q362.1 89.9 362.1 89.3L362.1 89.3L362.1 88.7Q362.1 88.1 361.8 87.7Q361.4 87.3 360.9 87.3L360.9 87.3Q360.3 87.3 360.0 87.7Q359.6 88.1 359.6 88.7L359.6 88.7ZM361.2 81.7L355.7 90.6L354.9 90.1L360.4 81.2L361.2 81.7Z "/><mask id="satori_om-id-1-8"><rect x="0" y="104" width="103" height="19" fill="#fff"/></mask><mask id="satori_om-id-1-8-0"><rect x="0" y="105" width="16" height="16" fill="#fff"/></mask><mask id="satori_om-id-1-8-0-0"><rect x="4" y="109" width="8" height="8" fill="#fff"/></mask><path x="4" y="109" width="8" height="8" fill="#563d7c" d="M8,109 h0 a4,4 0 0 1 4,4 v0 a4,4 0 0 1 -4,4 h0 a4,4 0 0 1 -4,-4 v0 a4,4 0 0 1 4,-4"/><mask id="satori_om-id-1-8-1"><rect x="29" y="104" width="31" height="19" fill="#fff"/></mask><path fill="#fff" d="M36.6 115.7L38.9 115.7Q38.8 117.5 37.6 118.6Q36.4 119.6 34.4 119.6L34.4 119.6Q32.2 119.6 30.9 118.2Q29.7 116.7 29.7 114.1L29.7 114.1L29.7 113.4Q29.7 111.8 30.3 110.5Q30.8 109.3 31.9 108.6Q33.0 108.0 34.4 108.0L34.4 108.0Q36.4 108.0 37.6 109.0Q38.8 110.1 39.0 112.0L39.0 112.0L36.6 112.0Q36.5 110.9 36.0 110.4Q35.5 109.9 34.4 109.9L34.4 109.9Q33.2 109.9 32.6 110.7Q32.1 111.6 32.0 113.3L32.0 113.3L32.0 114.2Q32.0 116.0 32.6 116.9Q33.2 117.7 34.4 117.7L34.4 117.7Q35.5 117.7 36.0 117.2Q36.5 116.7 36.6 115.7L36.6 115.7ZM46.4 116.5L46.4 116.5Q46.4 115.8 45.9 115.5Q45.4 115.1 44.2 114.7Q43.0 114.3 42.3 114.0L42.3 114.0Q40.4 112.9 40.4 111.1L40.4 111.1Q40.4 110.2 40.9 109.5Q41.4 108.8 42.4 108.4Q43.3 108.0 44.6 108.0L44.6 108.0Q45.8 108.0 46.7 108.4Q47.7 108.8 48.2 109.6Q48.7 110.4 48.7 111.5L48.7 111.5L46.4 111.5Q46.4 110.7 45.9 110.3Q45.4 109.8 44.5 109.8L44.5 109.8Q43.7 109.8 43.2 110.2Q42.7 110.5 42.7 111.1L42.7 111.1Q42.7 111.7 43.3 112.1Q43.8 112.4 44.9 112.8L44.9 112.8Q46.9 113.4 47.8 114.3Q48.7 115.2 48.7 116.5L48.7 116.5Q48.7 118.0 47.6 118.8Q46.5 119.6 44.6 119.6L44.6 119.6Q43.3 119.6 42.2 119.2Q41.1 118.7 40.6 117.8Q40.0 117.0 40.0 115.9L40.0 115.9L42.4 115.9Q42.4 117.8 44.6 117.8L44.6 117.8Q45.4 117.8 45.9 117.4Q46.4 117.1 46.4 116.5ZM56.2 116.5L56.2 116.5Q56.2 115.8 55.8 115.5Q55.3 115.1 54.1 114.7Q52.8 114.3 52.1 114.0L52.1 114.0Q50.2 112.9 50.2 111.1L50.2 111.1Q50.2 110.2 50.7 109.5Q51.2 108.8 52.2 108.4Q53.2 108.0 54.4 108.0L54.4 108.0Q55.6 108.0 56.6 108.4Q57.5 108.8 58.0 109.6Q58.6 110.4 58.6 111.5L58.6 111.5L56.2 111.5Q56.2 110.7 55.7 110.3Q55.2 109.8 54.4 109.8L54.4 109.8Q53.5 109.8 53.0 110.2Q52.5 110.5 52.5 111.1L52.5 111.1Q52.5 111.7 53.1 112.1Q53.7 112.4 54.7 112.8L54.7 112.8Q56.7 113.4 57.7 114.3Q58.6 115.2 58.6 116.5L58.6 116.5Q58.6 118.0 57.5 118.8Q56.3 119.6 54.4 119.6L54.4 119.6Q53.1 119.6 52.1 119.2Q51.0 118.7 50.4 117.8Q49.8 117.0 49.8 115.9L49.8 115.9L52.2 115.9Q52.2 117.8 54.4 117.8L54.4 117.8Q55.3 117.8 55.8 117.4Q56.2 117.1 56.2 116.5Z "/><mask id="satori_om-id-1-8-2"><rect x="69" y="104" width="34" height="19" fill="#fff"/></mask><path fill="#7d8590" d="M74.7 108.1L74.7 119.5L73.2 119.5L73.2 109.9L70.3 110.9L70.3 109.6L74.5 108.1L74.7 108.1ZM79.1 118.7L79.1 118.7Q79.1 118.4 79.3 118.1Q79.6 117.9 80 117.9Q80.4 117.9 80.7 118.1Q80.9 118.4 80.9 118.7L80.9 118.7Q80.9 119.1 80.7 119.3Q80.4 119.6 80 119.6Q79.6 119.6 79.3 119.3Q79.1 119.1 79.1 118.7ZM87.9 108.1L87.9 119.5L86.4 119.5L86.4 109.9L83.5 110.9L83.5 109.6L87.7 108.1L87.9 108.1ZM92 110.8L92 110.3Q92 109.3 92.7 108.6Q93.3 107.9 94.3 107.9L94.3 107.9Q95.4 107.9 96.0 108.6Q96.7 109.3 96.7 110.3L96.7 110.3L96.7 110.9Q96.7 111.9 96.0 112.6Q95.4 113.2 94.3 113.2L94.3 113.2Q93.3 113.2 92.7 112.6Q92 111.9 92 110.8L92 110.8ZM93.1 110.3L93.1 110.9Q93.1 111.5 93.4 111.9Q93.8 112.3 94.3 112.3L94.3 112.3Q94.9 112.3 95.2 111.9Q95.6 111.5 95.6 110.9L95.6 110.9L95.6 110.3Q95.6 109.7 95.2 109.3Q94.9 108.9 94.3 108.9Q93.8 108.9 93.4 109.3Q93.1 109.7 93.1 110.3L93.1 110.3ZM97.5 117.3L97.5 116.7Q97.5 115.7 98.2 115.0Q98.8 114.4 99.9 114.4Q100.9 114.4 101.5 115.0Q102.2 115.7 102.2 116.7L102.2 116.7L102.2 117.3Q102.2 118.3 101.6 119.0Q100.9 119.6 99.9 119.6Q98.9 119.6 98.2 119.0Q97.5 118.3 97.5 117.3L97.5 117.3ZM98.6 116.7L98.6 117.3Q98.6 117.9 99.0 118.3Q99.3 118.7 99.9 118.7L99.9 118.7Q100.4 118.7 100.8 118.3Q101.1 117.9 101.1 117.3L101.1 117.3L101.1 116.7Q101.1 116.1 100.8 115.7Q100.4 115.3 99.9 115.3L99.9 115.3Q99.3 115.3 99.0 115.7Q98.6 116.1 98.6 116.7L98.6 116.7ZM100.2 109.7L94.7 118.6L93.9 118.1L99.4 109.2L100.2 109.7Z "/><mask id="satori_om-id-1-9"><rect x="113" y="104" width="109" height="19" fill="#fff"/></mask><mask id="satori_om-id-1-9-0"><rect x="113" y="105" width="16" height="16" fill="#fff"/></mask><mask id="satori_om-id-1-9-0-0"><rect x="117" y="109" width="8" height="8" fill="#fff"/></mask><path x="117" y="109" width="8" height="8" fill="#701516" d="M121,109 h0 a4,4 0 0 1 4,4 v0 a4,4 0 0 1 -4,4 h0 a4,4 0 0 1 -4,-4 v0 a4,4 0 0 1 4,-4"/><mask id="satori_om-id-1-9-1"><rect x="142" y="104" width="37" height="19" fill="#fff"/></mask><path fill="#fff" d="M149.4 119.5L147.2 115.3L145.4 115.3L145.4 119.5L143.0 119.5L143.0 108.1L147.2 108.1Q149.3 108.1 150.4 109.0Q151.4 109.9 151.4 111.5L151.4 111.5Q151.4 112.7 150.9 113.5Q150.4 114.3 149.4 114.7L149.4 114.7L151.9 119.4L151.9 119.5L149.4 119.5ZM145.4 110.0L145.4 113.4L147.3 113.4Q148.1 113.4 148.6 113.0Q149.1 112.5 149.1 111.7L149.1 111.7Q149.1 110.9 148.6 110.5Q148.2 110.0 147.2 110.0L147.2 110.0L145.4 110.0ZM158.2 119.5L158.1 118.6Q157.3 119.6 155.8 119.6L155.8 119.6Q154.5 119.6 153.8 118.9Q153.0 118.1 153.0 116.6L153.0 116.6L153.0 111.0L155.3 111.0L155.3 116.5Q155.3 117.8 156.5 117.8L156.5 117.8Q157.6 117.8 158.1 117.0L158.1 117.0L158.1 111.0L160.3 111.0L160.3 119.5L158.2 119.5ZM169.6 115.2L169.6 115.3Q169.6 117.4 168.8 118.5Q167.9 119.6 166.4 119.6L166.4 119.6Q165.0 119.6 164.2 118.6L164.2 118.6L164.1 119.5L162.0 119.5L162.0 107.5L164.3 107.5L164.3 111.8Q165.1 110.9 166.3 110.9L166.3 110.9Q167.9 110.9 168.8 112.0Q169.6 113.1 169.6 115.2L169.6 115.2ZM167.4 115.2L167.4 115.2Q167.4 113.9 167.0 113.3Q166.6 112.7 165.8 112.7L165.8 112.7Q164.7 112.7 164.3 113.6L164.3 113.6L164.3 116.9Q164.7 117.8 165.8 117.8L165.8 117.8Q166.9 117.8 167.2 116.7L167.2 116.7Q167.4 116.2 167.4 115.2ZM172.5 111.0L174.1 116.3L175.7 111.0L178.1 111.0L174.7 120.8L174.5 121.2Q173.8 122.9 172.0 122.9L172.0 122.9Q171.5 122.9 171.0 122.7L171.0 122.7L171.0 121.0L171.4 121.0Q172.0 121.0 172.3 120.9Q172.6 120.7 172.8 120.2L172.8 120.2L173.1 119.5L170.1 111.0L172.5 111.0Z "/><mask id="satori_om-id-1-9-2"><rect x="188" y="104" width="34" height="19" fill="#fff"/></mask><path fill="#7d8590" d="M196.1 112.8L196.1 114.6Q196.1 117.2 195.2 118.4Q194.3 119.6 192.5 119.6L192.5 119.6Q190.7 119.6 189.8 118.4Q188.9 117.2 188.9 114.8L188.9 114.8L188.9 112.9Q188.9 110.4 189.8 109.2Q190.6 108.0 192.5 108.0L192.5 108.0Q194.3 108.0 195.2 109.1Q196.1 110.3 196.1 112.8L196.1 112.8ZM194.6 115.0L194.6 112.7Q194.6 110.8 194.1 110.0Q193.6 109.1 192.5 109.1L192.5 109.1Q191.4 109.1 190.9 110.0Q190.4 110.8 190.3 112.5L190.3 112.5L190.3 114.9Q190.3 116.7 190.9 117.6Q191.4 118.5 192.5 118.5L192.5 118.5Q193.6 118.5 194.1 117.6Q194.6 116.8 194.6 115.0L194.6 115.0ZM198.1 118.7L198.1 118.7Q198.1 118.4 198.3 118.1Q198.6 117.9 199 117.9Q199.4 117.9 199.7 118.1Q199.9 118.4 199.9 118.7L199.9 118.7Q199.9 119.1 199.7 119.3Q199.4 119.6 199 119.6Q198.6 119.6 198.3 119.3Q198.1 119.1 198.1 118.7ZM207.7 114.5L207.7 114.5Q207.2 115.0 206.6 115.4Q206.0 115.7 205.2 115.7L205.2 115.7Q204.2 115.7 203.5 115.2Q202.8 114.7 202.4 113.8Q202.0 113.0 202.0 111.9L202.0 111.9Q202.0 110.7 202.4 109.8Q202.8 108.9 203.6 108.4Q204.4 108.0 205.5 108.0L205.5 108.0Q207.2 108.0 208.2 109.2Q209.1 110.5 209.1 112.7L209.1 112.7L209.1 113.1Q209.1 116.4 207.8 117.9Q206.5 119.5 203.9 119.5L203.9 119.5L203.6 119.5L203.6 118.3L203.9 118.3Q205.7 118.2 206.6 117.3Q207.6 116.4 207.7 114.5ZM205.5 114.5L205.5 114.5Q206.2 114.5 206.8 114.0Q207.4 113.6 207.7 112.9L207.7 112.9L207.7 112.4Q207.7 110.9 207.1 110.0Q206.5 109.2 205.5 109.2L205.5 109.2Q204.6 109.2 204.0 109.9Q203.4 110.6 203.4 111.8L203.4 111.8Q203.4 113.0 204.0 113.7Q204.5 114.5 205.5 114.5ZM211 110.8L211 110.3Q211 109.3 211.7 108.6Q212.3 107.9 213.3 107.9L213.3 107.9Q214.4 107.9 215.0 108.6Q215.7 109.3 215.7 110.3L215.7 110.3L215.7 110.9Q215.7 111.9 215.0 112.6Q214.4 113.2 213.3 113.2L213.3 113.2Q212.3 113.2 211.7 112.6Q211 111.9 211 110.8L211 110.8ZM212.1 110.3L212.1 110.9Q212.1 111.5 212.4 111.9Q212.8 112.3 213.3 112.3L213.3 112.3Q213.9 112.3 214.2 111.9Q214.6 111.5 214.6 110.9L214.6 110.9L214.6 110.3Q214.6 109.7 214.2 109.3Q213.9 108.9 213.3 108.9Q212.8 108.9 212.4 109.3Q212.1 109.7 212.1 110.3L212.1 110.3ZM216.5 117.3L216.5 116.7Q216.5 115.7 217.2 115.0Q217.8 114.4 218.9 114.4Q219.9 114.4 220.5 115.0Q221.2 115.7 221.2 116.7L221.2 116.7L221.2 117.3Q221.2 118.3 220.6 119.0Q219.9 119.6 218.9 119.6Q217.9 119.6 217.2 119.0Q216.5 118.3 216.5 117.3L216.5 117.3ZM217.6 116.7L217.6 117.3Q217.6 117.9 218.0 118.3Q218.3 118.7 218.9 118.7L218.9 118.7Q219.4 118.7 219.8 118.3Q220.1 117.9 220.1 117.3L220.1 117.3L220.1 116.7Q220.1 116.1 219.8 115.7Q219.4 115.3 218.9 115.3L218.9 115.3Q218.3 115.3 218.0 115.7Q217.6 116.1 217.6 116.7L217.6 116.7ZM219.2 109.7L213.7 118.6L212.9 118.1L218.4 109.2L219.2 109.7Z "/></svg>