<svg width="375" height="200" viewBox="0 0 375 200" xmlns="http://www.w3.org/2000/svg"><mask id="satori_om-id"><rect x="0" y="0" width="375" height="123" fill="#fff"/></mask><clipPath id="satori_cp-id-0"><path x="0" y="0" width="375" height="8" d="M4,0 h367 a4,4 0 0 1 4,4 v0 a4,4 0 0 1 -4,4 h-367 a4,4 0 0 1 -4,-4 v0 a4,4 0 0 1 4,-4"/></clipPath><mask id="satori_om-id-0"><rect x="0" y="0" width="375" height="8" fill="#fff"/></mask><mask id="satori_om-id-0-0"><rect x="0" y="0" width="183" height="8" fill="#fff" mask="url(#satori_om-id-0)"/></mask><rect x="0" y="0" width="183" height="8" fill="#3178c6" clip-path="url(#satori_cp-id-0)" mask="url(#satori_om-id-0)"/><mask id="satori_om-id-0-1"><rect x="183" y="0" width="55" height="8" fill="#fff" mask="url(#satori_om-id-0)"/></mask><rect x="183" y="0" width="55" height="8" fill="#3572A5" clip-path="url(#satori_cp-id-0)" mask="url(#satori_om-id-0)"/><mask id="satori_om-id-0-2"><rect x="238" y="0" width="31" height="8" fill="#fff" mask="url(#satori_om-id-0)"/></mask><rect x="238" y="0" width="31" height="8" fill="#844FBA" clip-path="url(#satori_cp-id-0)" mask="url(#satori_om-id-0)"/><mask id="satori_om-id-0-3"><rect x="269" y="0" width="23" height="8" fill="#fff" mask="url(#satori_om-id-0)"/></mask><rect x="269" y="0" width="23" height="8" fill="#A97BFF" clip-path="url(#satori_cp-id-0)" mask="url(#satori_om-id-0)"/><mask id="satori_om-id-0-4"><rect x="292" y="0" width="23" height="8" fill="#fff" mask="url(#satori_om-id-0)"/></mask><rect x="292" y="0" width="23" height="8" fill="#ff3e00" clip-path="url(#satori_cp-id-0)" mask="url(#satori_om-id-0)"/><mask id="satori_om-id-0-5"><rect x="315" y="0" width="16" height="8" fill="#fff" mask="url(#satori_om-id-0)"/></mask><rect x="315" y="0" width="16" height="8" fill="#00ADD8" clip-path="url(#satori_cp-id-0)" mask="url(#satori_om-id-0)"/><mask id="satori_om-id-0-6"><rect x="331" y="0" width="14" height="8" fill="#fff" mask="url(#satori_om-id-0)"/></mask><rect x="331" y="0" width="14" height="8" fill="#555555" clip-path="url(#satori_cp-id-0)" mask="url(#satori_om-id-0)"/><mask id="satori_om-id-0-7"><rect x="345" y="0" width="11" height="8" fill="#fff" mask="url(#satori_om-id-0)"/></mask><rect x="345" y="0" width="11" height="8" fill="#f1e05a" clip-path="url(#satori_cp-id-0)" mask="url(#satori_om-id-0)"/><mask id="satori_om-id-0-8"><rect x="356" y="0" width="8" height="8" fill="#fff" mask="url(#satori_om-id-0)"/></mask><rect x="356" y="0" width="8" height="8" fill="#ff5a03" clip-path="url(#satori_cp-id-0)" mask="url(#satori_om-id-0)"/><mask id="satori_om-id-0-9"><rect x="364" y="0" width="4" height="8" fill="#fff" mask="url(#satori_om-id-0)"/></mask><rect x="364" y="0" width="4" height="8" fill="#563d7c" clip-path="url(#satori_cp-id-0)" mask="url(#satori_om-id-0)"/><mask id="satori_om-id-1"><rect x="0" y="18" width="375" height="105" fill="#fff"/></mask><mask id="satori_om-id-1-0"><rect x="0" y="18" width="160" height="19" fill="#fff"/></mask><mask id="satori_om-id-1-0-0"><rect x="0" y="19" width="16" height="16" fill="#fff"/></mask><mask id="satori_om-id-1-0-0-0"><rect x="4" y="23" width="8" height="8" fill="#fff"/></mask><path x="4" y="23" width="8" height="8" fill="#3178c6" d="M8,23 h0 a4,4 0 0 1 4,4 v0 a4,4 0 0 1 -4,4 h0 a4,4 0 0 1 -4,-4 v0 a4,4 0 0 1 4,-4"/><mask id="satori_om-id-1-0-1"><rect x="29" y="18" width="79" height="19" fill="#fff"/></mask><path fill="#fff" d="M38.6 22.1L38.6 24.0L35.1 24.0L35.1 33.5L32.8 33.5L32.8 24.0L29.3 24.0L29.3 22.1L38.6 22.1ZM40.7 25.0L42.3 30.3L43.8 25.0L46.3 25.0L42.9 34.8L42.7 35.2Q41.9 36.9 40.2 36.9L40.2 36.9Q39.7 36.9 39.2 36.7L39.2 36.7L39.2 35.0L39.5 35.0Q40.2 35.0 40.5 34.9Q40.8 34.7 41.0 34.2L41.0 34.2L41.2 33.5L38.3 25.0L40.7 25.0ZM54.8 29.2L54.8 29.3Q54.8 31.3 53.9 32.5Q53.0 33.6 51.5 33.6L51.5 33.6Q50.2 33.6 49.4 32.7L49.4 32.7L49.4 36.7L47.2 36.7L47.2 25.0L49.3 25.0L49.3 25.9Q50.1 24.9 51.5 24.9L51.5 24.9Q53.0 24.9 53.9 26.0Q54.8 27.2 54.8 29.2L54.8 29.2ZM52.5 29.2L52.5 29.2Q52.5 28.0 52.1 27.4Q51.7 26.7 50.9 26.7L50.9 26.7Q49.8 26.7 49.4 27.5L49.4 27.5L49.4 31.0Q49.8 31.8 50.9 31.8L50.9 31.8Q52.5 31.8 52.5 29.2ZM60.1 33.6L60.1 33.6Q58.2 33.6 57.0 32.5Q55.9 31.4 55.9 29.5L55.9 29.5L55.9 29.2Q55.9 28.0 56.4 27.0Q56.8 26.0 57.7 25.4Q58.6 24.9 59.8 24.9L59.8 24.9Q61.5 24.9 62.5 26.0Q63.5 27.1 63.5 29.1L63.5 29.1L63.5 30.0L58.1 30.0Q58.3 30.8 58.8 31.3Q59.4 31.8 60.2 31.8L60.2 31.8Q61.5 31.8 62.2 30.9L62.2 30.9L63.4 32.1Q62.8 32.8 62.0 33.2Q61.1 33.6 60.1 33.6ZM59.8 26.7L59.8 26.7Q59.1 26.7 58.7 27.2Q58.3 27.6 58.2 28.5L58.2 28.5L61.3 28.5L61.3 28.3Q61.3 27.5 60.9 27.1Q60.5 26.7 59.8 26.7ZM70.9 30.5L70.9 30.5Q70.9 29.8 70.4 29.5Q69.9 29.1 68.7 28.7Q67.5 28.3 66.8 28.0L66.8 28.0Q64.8 26.9 64.8 25.1L64.8 25.1Q64.8 24.2 65.4 23.5Q65.9 22.8 66.8 22.4Q67.8 22.0 69.0 22.0L69.0 22.0Q70.3 22.0 71.2 22.4Q72.2 22.8 72.7 23.6Q73.2 24.4 73.2 25.5L73.2 25.5L70.9 25.5Q70.9 24.7 70.4 24.3Q69.9 23.8 69.0 23.8L69.0 23.8Q68.1 23.8 67.7 24.2Q67.2 24.5 67.2 25.1L67.2 25.1Q67.2 25.7 67.7 26.1Q68.3 26.4 69.4 26.8L69.4 26.8Q71.4 27.4 72.3 28.3Q73.2 29.2 73.2 30.5L73.2 30.5Q73.2 32.0 72.1 32.8Q71.0 33.6 69.1 33.6L69.1 33.6Q67.8 33.6 66.7 33.2Q65.6 32.7 65.1 31.8Q64.5 31.0 64.5 29.9L64.5 29.9L66.8 29.9Q66.8 31.8 69.1 31.8L69.1 31.8Q69.9 31.8 70.4 31.4Q70.9 31.1 70.9 30.5ZM78.2 31.8L78.2 31.8Q78.8 31.8 79.2 31.5Q79.6 31.1 79.6 30.6L79.6 30.6L81.7 30.6Q81.7 31.4 81.2 32.1Q80.8 32.9 80.0 33.2Q79.2 33.6 78.2 33.6L78.2 33.6Q76.4 33.6 75.3 32.5Q74.3 31.3 74.3 29.3L74.3 29.3L74.3 29.2Q74.3 27.2 75.3 26.0Q76.4 24.9 78.2 24.9L78.2 24.9Q79.8 24.9 80.7 25.8Q81.7 26.7 81.7 28.2L81.7 28.2L79.6 28.2Q79.6 27.5 79.2 27.1Q78.8 26.7 78.1 26.7L78.1 26.7Q77.4 26.7 77.0 27.3Q76.6 27.9 76.6 29.1L76.6 29.1L76.6 29.4Q76.6 30.7 77.0 31.2Q77.4 31.8 78.2 31.8ZM87.8 25.0L87.7 27.1Q87.3 27.1 86.9 27.1L86.9 27.1Q85.6 27.1 85.3 28.0L85.3 28.0L85.3 33.5L83.0 33.5L83.0 25.0L85.1 25.0L85.2 26.0Q85.9 24.9 87.1 24.9L87.1 24.9Q87.4 24.9 87.8 25.0L87.8 25.0ZM91.2 25.0L91.2 33.5L88.9 33.5L88.9 25.0L91.2 25.0ZM88.8 22.8L88.8 22.8Q88.8 22.3 89.2 22.0Q89.5 21.7 90.1 21.7L90.1 21.7Q90.7 21.7 91 22.0Q91.3 22.3 91.3 22.8L91.3 22.8Q91.3 23.4 91.0 23.7Q90.6 24.0 90.1 24.0Q89.5 24.0 89.2 23.7Q88.8 23.4 88.8 22.8ZM100.7 29.2L100.7 29.3Q100.7 31.3 99.8 32.5Q98.9 33.6 97.4 33.6L97.4 33.6Q96.1 33.6 95.3 32.7L95.3 32.7L95.3 36.7L93.1 36.7L93.1 25.0L95.2 25.0L95.2 25.9Q96.1 24.9 97.4 24.9L97.4 24.9Q98.9 24.9 99.8 26.0Q100.7 27.2 100.7 29.2L100.7 29.2ZM98.4 29.2L98.4 29.2Q98.4 28.0 98.0 27.4Q97.6 26.7 96.8 26.7L96.8 26.7Q95.7 26.7 95.3 27.5L95.3 27.5L95.3 31.0Q95.7 31.8 96.8 31.8L96.8 31.8Q98.4 31.8 98.4 29.2ZM102.5 23.0L104.8 23.0L104.8 25.0L106.2 25.0L106.2 26.7L104.8 26.7L104.8 30.9Q104.8 31.4 105.0 31.6Q105.1 31.8 105.6 31.8L105.6 31.8Q106.0 31.8 106.3 31.7L106.3 31.7L106.3 33.4Q105.6 33.6 104.9 33.6L104.9 33.6Q102.6 33.6 102.5 31.2L102.5 31.2L102.5 26.7L101.3 26.7L101.3 25.0L102.5 25.0L102.5 23.0Z "/><mask id="satori_om-id-1-0-2"><rect x="117" y="18" width="43" height="19" fill="#fff"/></mask><path fill="#7d8590" d="M124.0 22.1L124.0 29.7L125.6 29.7L125.6 30.8L124.0 30.8L124.0 33.5L122.6 33.5L122.6 30.8L117.4 30.8L117.4 30.0L122.5 22.1L124.0 22.1ZM122.4 24.4L119.1 29.7L122.6 29.7L122.6 24.1L122.4 24.4ZM133.8 25.1L133.8 25.1Q133.8 25.9 133.4 26.6Q132.9 27.3 132.2 27.6L132.2 27.6Q133.1 28.0 133.6 28.7Q134.1 29.5 134.1 30.4L134.1 30.4Q134.1 31.9 133.1 32.8Q132.1 33.6 130.5 33.6L130.5 33.6Q128.8 33.6 127.8 32.8Q126.9 31.9 126.9 30.4L126.9 30.4Q126.9 29.5 127.4 28.7Q127.9 28.0 128.8 27.6L128.8 27.6Q128 27.2 127.6 26.6Q127.1 25.9 127.1 25.1L127.1 25.1Q127.1 23.6 128.0 22.8Q129.0 22.0 130.5 22.0L130.5 22.0Q132.0 22.0 132.9 22.8Q133.8 23.6 133.8 25.1ZM132.6 30.4L132.6 30.4Q132.6 29.4 132.0 28.8Q131.4 28.2 130.5 28.2Q129.5 28.2 128.9 28.8Q128.3 29.4 128.3 30.4Q128.3 31.4 128.9 31.9Q129.5 32.5 130.5 32.5L130.5 32.5Q131.5 32.5 132.1 31.9Q132.6 31.3 132.6 30.4ZM130.5 23.1L130.5 23.1Q129.6 23.1 129.1 23.7Q128.6 24.2 128.6 25.1L128.6 25.1Q128.6 26.0 129.1 26.5Q129.6 27.0 130.5 27.0Q131.3 27.0 131.9 26.5Q132.4 26.0 132.4 25.1Q132.4 24.2 131.8 23.7Q131.3 23.1 130.5 23.1ZM136.1 32.7L136.1 32.7Q136.1 32.4 136.3 32.1Q136.5 31.9 137.0 31.9Q137.4 31.9 137.7 32.1Q137.9 32.4 137.9 32.7L137.9 32.7Q137.9 33.1 137.7 33.3Q137.4 33.6 137.0 33.6Q136.5 33.6 136.3 33.3Q136.1 33.1 136.1 32.7ZM147.5 22.1L147.5 22.9L142.8 33.5L141.2 33.5L145.9 23.3L139.8 23.3L139.8 22.1L147.5 22.1ZM149.0 24.8L149.0 24.3Q149.0 23.3 149.6 22.6Q150.3 21.9 151.3 21.9L151.3 21.9Q152.4 21.9 153.0 22.6Q153.6 23.3 153.6 24.3L153.6 24.3L153.6 24.9Q153.6 25.9 153.0 26.6Q152.3 27.2 151.3 27.2L151.3 27.2Q150.3 27.2 149.6 26.6Q149.0 25.9 149.0 24.8L149.0 24.8ZM150.1 24.3L150.1 24.9Q150.1 25.5 150.4 25.9Q150.8 26.3 151.3 26.3L151.3 26.3Q151.9 26.3 152.2 25.9Q152.6 25.5 152.6 24.9L152.6 24.9L152.6 24.3Q152.6 23.7 152.2 23.3Q151.9 22.9 151.3 22.9Q150.7 22.9 150.4 23.3Q150.1 23.7 150.1 24.3L150.1 24.3ZM154.5 31.3L154.5 30.7Q154.5 29.7 155.2 29.0Q155.8 28.4 156.9 28.4Q157.9 28.4 158.5 29.0Q159.2 29.7 159.2 30.7L159.2 30.7L159.2 31.3Q159.2 32.3 158.5 33.0Q157.9 33.6 156.9 33.6Q155.9 33.6 155.2 33.0Q154.5 32.3 154.5 31.3L154.5 31.3ZM155.6 30.7L155.6 31.3Q155.6 31.9 155.9 32.3Q156.3 32.7 156.9 32.7L156.9 32.7Q157.4 32.7 157.8 32.3Q158.1 31.9 158.1 31.3L158.1 31.3L158.1 30.7Q158.1 30.1 157.8 29.7Q157.4 29.3 156.9 29.3L156.9 29.3Q156.3 29.3 155.9 29.7Q155.6 30.1 155.6 30.7L155.6 30.7ZM157.2 23.7L151.7 32.6L150.8 32.1L156.4 23.2L157.2 23.7Z "/><mask id="satori_om-id-1-1"><rect x="170" y="18" width="132" height="19" fill="#fff"/></mask><mask id="satori_om-id-1-1-0"><rect x="170" y="19" width="16" height="16" fill="#fff"/></mask><mask id="satori_om-id-1-1-0-0"><rect x="174" y="23" width="8" height="8" fill="#fff"/></mask><path x="174" y="23" width="8" height="8" fill="#3572A5" d="M178,23 h0 a4,4 0 0 1 4,4 v0 a4,4 0 0 1 -4,4 h0 a4,4 0 0 1 -4,-4 v0 a4,4 0 0 1 4,-4"/><mask id="satori_om-id-1-1-1"><rect x="199" y="18" width="51" height="19" fill="#fff"/></mask><path fill="#fff" d="M204.4 29.5L202.4 29.5L202.4 33.5L200.0 33.5L200.0 22.1L204.5 22.1Q205.7 22.1 206.7 22.6Q207.7 23.0 208.2 23.9Q208.7 24.8 208.7 25.9L208.7 25.9Q208.7 27.5 207.6 28.5Q206.4 29.5 204.4 29.5L204.4 29.5ZM202.4 24.0L202.4 27.6L204.5 27.6Q205.4 27.6 205.9 27.1Q206.4 26.7 206.4 25.9L206.4 25.9Q206.4 25.1 205.9 24.5Q205.4 24.0 204.5 24.0L204.5 24.0L202.4 24.0ZM211.9 25.0L213.5 30.3L215.0 25.0L217.4 25.0L214.0 34.8L213.9 35.2Q213.1 36.9 211.4 36.9L211.4 36.9Q210.9 36.9 210.4 36.7L210.4 36.7L210.4 35.0L210.7 35.0Q211.3 35.0 211.7 34.9Q212.0 34.7 212.2 34.2L212.2 34.2L212.4 33.5L209.5 25.0L211.9 25.0ZM218.8 23.0L221.0 23.0L221.0 25.0L222.5 25.0L222.5 26.7L221.0 26.7L221.0 30.9Q221.0 31.4 221.2 31.6Q221.4 31.8 221.9 31.8L221.9 31.8Q222.3 31.8 222.6 31.7L222.6 31.7L222.6 33.4Q221.9 33.6 221.2 33.6L221.2 33.6Q218.8 33.6 218.8 31.2L218.8 31.2L218.8 26.7L217.5 26.7L217.5 25.0L218.8 25.0L218.8 23.0ZM225.9 21.5L225.9 26.0Q226.8 24.9 228.2 24.9L228.2 24.9Q231.0 24.9 231.0 28.1L231.0 28.1L231.0 33.5L228.7 33.5L228.7 28.1Q228.7 27.4 228.4 27.1Q228.1 26.7 227.4 26.7L227.4 26.7Q226.4 26.7 225.9 27.5L225.9 27.5L225.9 33.5L223.7 33.5L223.7 21.5L225.9 21.5ZM232.3 29.3L232.3 29.2Q232.3 27.9 232.8 26.9Q233.3 26.0 234.2 25.4Q235.1 24.9 236.3 24.9L236.3 24.9Q238.0 24.9 239.1 25.9Q240.2 27.0 240.3 28.8L240.3 28.8L240.4 29.3Q240.4 31.3 239.3 32.5Q238.2 33.6 236.4 33.6Q234.5 33.6 233.4 32.5Q232.3 31.3 232.3 29.3L232.3 29.3ZM234.6 29.3L234.6 29.3Q234.6 30.5 235.1 31.2Q235.5 31.8 236.4 31.8L236.4 31.8Q237.2 31.8 237.6 31.2Q238.1 30.6 238.1 29.2L238.1 29.2Q238.1 28.0 237.6 27.4Q237.2 26.7 236.3 26.7L236.3 26.7Q235.5 26.7 235.1 27.3Q234.6 28.0 234.6 29.3ZM241.7 25.0L243.8 25.0L243.9 26.0Q244.8 24.9 246.3 24.9L246.3 24.9Q247.7 24.9 248.3 25.7Q249.0 26.5 249.0 28.0L249.0 28.0L249.0 33.5L246.7 33.5L246.7 28.1Q246.7 27.4 246.4 27.0Q246.1 26.7 245.4 26.7L245.4 26.7Q244.4 26.7 244.0 27.5L244.0 27.5L244.0 33.5L241.7 33.5L241.7 25.0Z "/><mask id="satori_om-id-1-1-2"><rect x="259" y="18" width="43" height="19" fill="#fff"/></mask><path fill="#7d8590" d="M264.7 22.1L264.7 33.5L263.2 33.5L263.2 23.9L260.3 24.9L260.3 23.6L264.5 22.1L264.7 22.1ZM275.0 22.1L275.0 29.7L276.6 29.7L276.6 30.8L275.0 30.8L275.0 33.5L273.6 33.5L273.6 30.8L268.4 30.8L268.4 30.0L273.5 22.1L275.0 22.1ZM273.4 24.4L270.0 29.7L273.6 29.7L273.6 24.1L273.4 24.4ZM278.1 32.7L278.1 32.7Q278.1 32.4 278.3 32.1Q278.5 31.9 279.0 31.9Q279.4 31.9 279.7 32.1Q279.9 32.4 279.9 32.7L279.9 32.7Q279.9 33.1 279.7 33.3Q279.4 33.6 279.0 33.6Q278.5 33.6 278.3 33.3Q278.1 33.1 278.1 32.7ZM287.7 28.5L287.7 28.5Q287.2 29.0 286.6 29.4Q286.0 29.7 285.2 29.7L285.2 29.7Q284.2 29.7 283.5 29.2Q282.8 28.7 282.4 27.8Q282.0 27.0 282.0 25.9L282.0 25.9Q282.0 24.7 282.4 23.8Q282.8 22.9 283.6 22.4Q284.4 22.0 285.5 22.0L285.5 22.0Q287.2 22.0 288.1 23.2Q289.1 24.5 289.1 26.7L289.1 26.7L289.1 27.1Q289.1 30.4 287.8 31.9Q286.5 33.5 283.8 33.5L283.8 33.5L283.6 33.5L283.6 32.3L283.9 32.3Q285.7 32.2 286.6 31.3Q287.6 30.4 287.7 28.5ZM285.4 28.5L285.4 28.5Q286.2 28.5 286.8 28.0Q287.4 27.6 287.7 26.9L287.7 26.9L287.7 26.4Q287.7 24.9 287.1 24.0Q286.4 23.2 285.5 23.2L285.5 23.2Q284.5 23.2 284.0 23.9Q283.4 24.6 283.4 25.8L283.4 25.8Q283.4 27.0 283.9 27.7Q284.5 28.5 285.4 28.5ZM291.0 24.8L291.0 24.3Q291.0 23.3 291.6 22.6Q292.3 21.9 293.3 21.9L293.3 21.9Q294.4 21.9 295.0 22.6Q295.6 23.3 295.6 24.3L295.6 24.3L295.6 24.9Q295.6 25.9 295.0 26.6Q294.3 27.2 293.3 27.2L293.3 27.2Q292.3 27.2 291.6 26.6Q291.0 25.9 291.0 24.8L291.0 24.8ZM292.1 24.3L292.1 24.9Q292.1 25.5 292.4 25.9Q292.8 26.3 293.3 26.3L293.3 26.3Q293.9 26.3 294.2 25.9Q294.6 25.5 294.6 24.9L294.6 24.9L294.6 24.3Q294.6 23.7 294.2 23.3Q293.9 22.9 293.3 22.9Q292.7 22.9 292.4 23.3Q292.1 23.7 292.1 24.3L292.1 24.3ZM296.5 31.3L296.5 30.7Q296.5 29.7 297.2 29.0Q297.8 28.4 298.9 28.4Q299.9 28.4 300.5 29.0Q301.2 29.7 301.2 30.7L301.2 30.7L301.2 31.3Q301.2 32.3 300.5 33.0Q299.9 33.6 298.9 33.6Q297.9 33.6 297.2 33.0Q296.5 32.3 296.5 31.3L296.5 31.3ZM297.6 30.7L297.6 31.3Q297.6 31.9 297.9 32.3Q298.3 32.7 298.9 32.7L298.9 32.7Q299.4 32.7 299.8 32.3Q300.1 31.9 300.1 31.3L300.1 31.3L300.1 30.7Q300.1 30.1 299.8 29.7Q299.4 29.3 298.9 29.3L298.9 29.3Q298.3 29.3 297.9 29.7Q297.6 30.1 297.6 30.7L297.6 30.7ZM299.2 23.7L293.7 32.6L292.8 32.1L298.4 23.2L299.2 23.7Z "/><mask id="satori_om-id-1-2"><rect x="0" y="47" width="103" height="19" fill="#fff"/></mask><mask id="satori_om-id-1-2-0"><rect x="0" y="48" width="16" height="16" fill="#fff"/></mask><mask id="satori_om-id-1-2-0-0"><rect x="4" y="52" width="8" height="8" fill="#fff"/></mask><path x="4" y="52" width="8" height="8" fill="#844FBA" d="M8,52 h0 a4,4 0 0 1 4,4 v0 a4,4 0 0 1 -4,4 h0 a4,4 0 0 1 -4,-4 v0 a4,4 0 0 1 4,-4"/><mask id="satori_om-id-1-2-1"><rect x="29" y="47" width="31" height="19" fill="#fff"/></mask><path fill="#fff" d="M39.3 51.1L39.3 62.5L36.9 62.5L36.9 57.6L32.4 57.6L32.4 62.5L30.0 62.5L30.0 51.1L32.4 51.1L32.4 55.7L36.9 55.7L36.9 51.1L39.3 51.1ZM47.9 58.7L50.3 58.7Q50.1 60.5 48.9 61.6Q47.7 62.6 45.7 62.6L45.7 62.6Q43.5 62.6 42.2 61.2Q41.0 59.7 41.0 57.1L41.0 57.1L41.0 56.4Q41.0 54.8 41.6 53.5Q42.1 52.3 43.2 51.6Q44.3 51.0 45.7 51.0L45.7 51.0Q47.7 51.0 48.9 52.0Q50.1 53.1 50.3 55.0L50.3 55.0L47.9 55.0Q47.8 53.9 47.3 53.4Q46.8 52.9 45.7 52.9L45.7 52.9Q44.5 52.9 43.9 53.7Q43.4 54.6 43.4 56.3L43.4 56.3L43.4 57.2Q43.4 59.0 43.9 59.9Q44.5 60.7 45.7 60.7L45.7 60.7Q46.8 60.7 47.3 60.2Q47.8 59.7 47.9 58.7L47.9 58.7ZM54.1 51.1L54.1 60.6L59.1 60.6L59.1 62.5L51.8 62.5L51.8 51.1L54.1 51.1Z "/><mask id="satori_om-id-1-2-2"><rect x="69" y="47" width="34" height="19" fill="#fff"/></mask><path fill="#7d8590" d="M76.8 54.1L76.8 54.1Q76.8 54.9 76.4 55.6Q75.9 56.3 75.2 56.6L75.2 56.6Q76.1 57.0 76.6 57.7Q77.1 58.5 77.1 59.4L77.1 59.4Q77.1 60.9 76.1 61.8Q75.1 62.6 73.5 62.6L73.5 62.6Q71.9 62.6 70.9 61.8Q69.9 60.9 69.9 59.4L69.9 59.4Q69.9 58.5 70.4 57.7Q70.9 57.0 71.8 56.6L71.8 56.6Q71.0 56.2 70.6 55.6Q70.1 54.9 70.1 54.1L70.1 54.1Q70.1 52.6 71.1 51.8Q72.0 51.0 73.5 51.0L73.5 51.0Q75.0 51.0 75.9 51.8Q76.8 52.6 76.8 54.1ZM75.7 59.4L75.7 59.4Q75.7 58.4 75.1 57.8Q74.5 57.2 73.5 57.2Q72.5 57.2 71.9 57.8Q71.3 58.4 71.3 59.4Q71.3 60.4 71.9 60.9Q72.5 61.5 73.5 61.5L73.5 61.5Q74.5 61.5 75.1 60.9Q75.7 60.3 75.7 59.4ZM73.5 52.1L73.5 52.1Q72.6 52.1 72.1 52.7Q71.6 53.2 71.6 54.1L71.6 54.1Q71.6 55.0 72.1 55.5Q72.6 56.0 73.5 56.0Q74.4 56.0 74.9 55.5Q75.4 55.0 75.4 54.1Q75.4 53.2 74.9 52.7Q74.3 52.1 73.5 52.1ZM79.1 61.7L79.1 61.7Q79.1 61.4 79.3 61.1Q79.6 60.9 80 60.9Q80.4 60.9 80.7 61.1Q80.9 61.4 80.9 61.7L80.9 61.7Q80.9 62.1 80.7 62.3Q80.4 62.6 80 62.6Q79.6 62.6 79.3 62.3Q79.1 62.1 79.1 61.7ZM87.9 51.1L87.9 62.5L86.4 62.5L86.4 52.9L83.5 53.9L83.5 52.6L87.7 51.1L87.9 51.1ZM92 53.8L92 53.3Q92 52.3 92.7 51.6Q93.3 50.9 94.3 50.9L94.3 50.9Q95.4 50.9 96.0 51.6Q96.7 52.3 96.7 53.3L96.7 53.3L96.7 53.9Q96.7 54.9 96.0 55.6Q95.4 56.2 94.3 56.2L94.3 56.2Q93.3 56.2 92.7 55.6Q92 54.9 92 53.8L92 53.8ZM93.1 53.3L93.1 53.9Q93.1 54.5 93.4 54.9Q93.8 55.3 94.3 55.3L94.3 55.3Q94.9 55.3 95.2 54.9Q95.6 54.5 95.6 53.9L95.6 53.9L95.6 53.3Q95.6 52.7 95.2 52.3Q94.9 51.9 94.3 51.9Q93.8 51.9 93.4 52.3Q93.1 52.7 93.1 53.3L93.1 53.3ZM97.5 60.3L97.5 59.7Q97.5 58.7 98.2 58.0Q98.8 57.4 99.9 57.4Q100.9 57.4 101.5 58.0Q102.2 58.7 102.2 59.7L102.2 59.7L102.2 60.3Q102.2 61.3 101.6 62.0Q100.9 62.6 99.9 62.6Q98.9 62.6 98.2 62.0Q97.5 61.3 97.5 60.3L97.5 60.3ZM98.6 59.7L98.6 60.3Q98.6 60.9 99.0 61.3Q99.3 61.7 99.9 61.7L99.9 61.7Q100.4 61.7 100.8 61.3Q101.1 60.9 101.1 60.3L101.1 60.3L101.1 59.7Q101.1 59.1 100.8 58.7Q100.4 58.3 99.9 58.3L99.9 58.3Q99.3 58.3 99.0 58.7Q98.6 59.1 98.6 59.7L98.6 59.7ZM100.2 52.7L94.7 61.6L93.9 61.1L99.4 52.2L100.2 52.7Z "/><mask id="satori_om-id-1-3"><rect x="113" y="47" width="115" height="19" fill="#fff"/></mask><mask id="satori_om-id-1-3-0"><rect x="113" y="48" width="16" height="16" fill="#fff"/></mask><mask id="satori_om-id-1-3-0-0"><rect x="117" y="52" width="8" height="8" fill="#fff"/></mask><path x="117" y="52" width="8" height="8" fill="#A97BFF" d="M121,52 h0 a4,4 0 0 1 4,4 v0 a4,4 0 0 1 -4,4 h0 a4,4 0 0 1 -4,-4 v0 a4,4 0 0 1 4,-4"/><mask id="satori_om-id-1-3-1"><rect x="142" y="47" width="43" height="19" fill="#fff"/></mask><path fill="#fff" d="M149.5 62.5L146.6 57.9L145.4 59.2L145.4 62.5L143.0 62.5L143.0 51.1L145.4 51.1L145.4 56.3L146.4 54.9L149.3 51.1L152.2 51.1L148.1 56.2L152.3 62.5L149.5 62.5ZM152.5 58.3L152.5 58.2Q152.5 56.9 152.9 55.9Q153.4 55.0 154.3 54.4Q155.3 53.9 156.5 53.9L156.5 53.9Q158.2 53.9 159.2 54.9Q160.3 56.0 160.5 57.8L160.5 57.8L160.5 58.3Q160.5 60.3 159.4 61.5Q158.3 62.6 156.5 62.6Q154.6 62.6 153.6 61.5Q152.5 60.3 152.5 58.3L152.5 58.3ZM154.7 58.3L154.7 58.3Q154.7 59.5 155.2 60.2Q155.6 60.8 156.5 60.8L156.5 60.8Q157.3 60.8 157.8 60.2Q158.2 59.6 158.2 58.2L158.2 58.2Q158.2 57.0 157.8 56.4Q157.3 55.7 156.5 55.7L156.5 55.7Q155.6 55.7 155.2 56.3Q154.7 57.0 154.7 58.3ZM162.3 52.0L164.6 52.0L164.6 54.0L166.0 54.0L166.0 55.7L164.6 55.7L164.6 59.9Q164.6 60.4 164.7 60.6Q164.9 60.8 165.4 60.8L165.4 60.8Q165.8 60.8 166.1 60.7L166.1 60.7L166.1 62.4Q165.4 62.6 164.7 62.6L164.7 62.6Q162.4 62.6 162.3 60.2L162.3 60.2L162.3 55.7L161.1 55.7L161.1 54.0L162.3 54.0L162.3 52.0ZM169.6 50.5L169.6 62.5L167.4 62.5L167.4 50.5L169.6 50.5ZM173.9 54.0L173.9 62.5L171.6 62.5L171.6 54.0L173.9 54.0ZM171.5 51.8L171.5 51.8Q171.5 51.3 171.8 51.0Q172.2 50.7 172.8 50.7L172.8 50.7Q173.3 50.7 173.7 51.0Q174.0 51.3 174.0 51.8L174.0 51.8Q174.0 52.4 173.7 52.7Q173.3 53.0 172.8 53.0Q172.2 53.0 171.8 52.7Q171.5 52.4 171.5 51.8ZM175.7 54.0L177.8 54.0L177.9 55.0Q178.8 53.9 180.3 53.9L180.3 53.9Q181.7 53.9 182.3 54.7Q183.0 55.5 183 57.0L183 57.0L183 62.5L180.7 62.5L180.7 57.1Q180.7 56.4 180.4 56.0Q180.1 55.7 179.4 55.7L179.4 55.7Q178.4 55.7 178.0 56.5L178.0 56.5L178.0 62.5L175.7 62.5L175.7 54.0Z "/><mask id="satori_om-id-1-3-2"><rect x="194" y="47" width="34" height="19" fill="#fff"/></mask><path fill="#7d8590" d="M200.4 51.1L200.6 51.1L200.6 52.3L200.4 52.3Q198.7 52.4 197.7 53.3Q196.7 54.3 196.5 56.1L196.5 56.1Q197.4 55.0 199.0 55.0L199.0 55.0Q200.4 55.0 201.3 56.1Q202.2 57.1 202.2 58.8L202.2 58.8Q202.2 60.5 201.3 61.6Q200.3 62.6 198.7 62.6L198.7 62.6Q197.1 62.6 196.0 61.4Q195.0 60.1 195.0 58.2L195.0 58.2L195.0 57.6Q195.0 54.5 196.4 52.8Q197.7 51.1 200.4 51.1L200.4 51.1ZM198.7 56.2L198.7 56.2Q198.0 56.2 197.4 56.7Q196.7 57.1 196.5 57.8L196.5 57.8L196.5 58.3Q196.5 59.7 197.1 60.6Q197.8 61.4 198.7 61.4L198.7 61.4Q199.7 61.4 200.2 60.7Q200.8 60.0 200.8 58.8L200.8 58.8Q200.8 57.7 200.2 56.9Q199.7 56.2 198.7 56.2ZM204.1 61.7L204.1 61.7Q204.1 61.4 204.3 61.1Q204.6 60.9 205 60.9Q205.4 60.9 205.7 61.1Q205.9 61.4 205.9 61.7L205.9 61.7Q205.9 62.1 205.7 62.3Q205.4 62.6 205 62.6Q204.6 62.6 204.3 62.3Q204.1 62.1 204.1 61.7ZM215.6 61.3L215.6 62.5L208.1 62.5L208.1 61.4L212.1 57.1Q213.0 56.1 213.3 55.5Q213.6 54.8 213.6 54.2L213.6 54.2Q213.6 53.3 213.1 52.7Q212.5 52.1 211.6 52.1L211.6 52.1Q210.6 52.1 210.0 52.8Q209.4 53.4 209.4 54.5L209.4 54.5L207.9 54.5Q207.9 52.9 208.9 51.9Q209.9 51.0 211.6 51.0L211.6 51.0Q213.2 51.0 214.1 51.8Q215.1 52.6 215.1 54.0L215.1 54.0Q215.1 55.7 212.9 58.0L212.9 58.0L209.9 61.3L215.6 61.3ZM217 53.8L217 53.3Q217 52.3 217.7 51.6Q218.3 50.9 219.3 50.9L219.3 50.9Q220.4 50.9 221.0 51.6Q221.7 52.3 221.7 53.3L221.7 53.3L221.7 53.9Q221.7 54.9 221.0 55.6Q220.4 56.2 219.3 56.2L219.3 56.2Q218.3 56.2 217.7 55.6Q217 54.9 217 53.8L217 53.8ZM218.1 53.3L218.1 53.9Q218.1 54.5 218.4 54.9Q218.8 55.3 219.3 55.3L219.3 55.3Q219.9 55.3 220.2 54.9Q220.6 54.5 220.6 53.9L220.6 53.9L220.6 53.3Q220.6 52.7 220.2 52.3Q219.9 51.9 219.3 51.9Q218.8 51.9 218.4 52.3Q218.1 52.7 218.1 53.3L218.1 53.3ZM222.5 60.3L222.5 59.7Q222.5 58.7 223.2 58.0Q223.8 57.4 224.9 57.4Q225.9 57.4 226.5 58.0Q227.2 58.7 227.2 59.7L227.2 59.7L227.2 60.3Q227.2 61.3 226.6 62.0Q225.9 62.6 224.9 62.6Q223.9 62.6 223.2 62.0Q222.5 61.3 222.5 60.3L222.5 60.3ZM223.6 59.7L223.6 60.3Q223.6 60.9 224.0 61.3Q224.3 61.7 224.9 61.7L224.9 61.7Q225.4 61.7 225.8 61.3Q226.1 60.9 226.1 60.3L226.1 60.3L226.1 59.7Q226.1 59.1 225.8 58.7Q225.4 58.3 224.9 58.3L224.9 58.3Q224.3 58.3 224.0 58.7Q223.6 59.1 223.6 59.7L223.6 59.7ZM225.2 52.7L219.7 61.6L218.9 61.1L224.4 52.2L225.2 52.7Z "/><mask id="satori_om-id-1-4"><rect x="238" y="47" width="117" height="19" fill="#fff"/></mask><mask id="satori_om-id-1-4-0"><rect x="238" y="48" width="16" height="16" fill="#fff"/></mask><mask id="satori_om-id-1-4-0-0"><rect x="242" y="52" width="8" height="8" fill="#fff"/></mask><path x="242" y="52" width="8" height="8" fill="#ff3e00" d="M246,52 h0 a4,4 0 0 1 4,4 v0 a4,4 0 0 1 -4,4 h0 a4,4 0 0 1 -4,-4 v0 a4,4 0 0 1 4,-4"/><mask id="satori_om-id-1-4-1"><rect x="267" y="47" width="45" height="19" fill="#fff"/></mask><path fill="#fff" d="M273.9 59.5L273.9 59.5Q273.9 58.8 273.4 58.5Q273.0 58.1 271.8 57.7Q270.5 57.3 269.8 57.0L269.8 57.0Q267.9 55.9 267.9 54.1L267.9 54.1Q267.9 53.2 268.4 52.5Q268.9 51.8 269.9 51.4Q270.9 51.0 272.1 51.0L272.1 51.0Q273.3 51.0 274.3 51.4Q275.2 51.8 275.7 52.6Q276.3 53.4 276.3 54.5L276.3 54.5L273.9 54.5Q273.9 53.7 273.4 53.3Q272.9 52.8 272.0 52.8L272.0 52.8Q271.2 52.8 270.7 53.2Q270.2 53.5 270.2 54.1L270.2 54.1Q270.2 54.7 270.8 55.1Q271.4 55.4 272.4 55.8L272.4 55.8Q274.4 56.4 275.4 57.3Q276.3 58.2 276.3 59.5L276.3 59.5Q276.3 61.0 275.1 61.8Q274.0 62.6 272.1 62.6L272.1 62.6Q270.8 62.6 269.8 62.2Q268.7 61.7 268.1 60.8Q267.5 60.0 267.5 58.9L267.5 58.9L269.9 58.9Q269.9 60.8 272.1 60.8L272.1 60.8Q273.0 60.8 273.4 60.4Q273.9 60.1 273.9 59.5ZM279.3 54.0L280.9 59.7L282.4 54.0L284.8 54.0L281.9 62.5L279.8 62.5L276.9 54.0L279.3 54.0ZM289.6 62.6L289.6 62.6Q287.7 62.6 286.6 61.5Q285.4 60.4 285.4 58.5L285.4 58.5L285.4 58.2Q285.4 57.0 285.9 56.0Q286.4 55.0 287.3 54.4Q288.2 53.9 289.3 53.9L289.3 53.9Q291.1 53.9 292.1 55.0Q293.1 56.1 293.1 58.1L293.1 58.1L293.1 59.0L287.7 59.0Q287.8 59.8 288.3 60.3Q288.9 60.8 289.7 60.8L289.7 60.8Q291.0 60.8 291.8 59.9L291.8 59.9L292.9 61.1Q292.4 61.8 291.5 62.2Q290.6 62.6 289.6 62.6ZM289.3 55.7L289.3 55.7Q288.6 55.7 288.2 56.2Q287.8 56.6 287.7 57.5L287.7 57.5L290.8 57.5L290.8 57.3Q290.8 56.5 290.4 56.1Q290.0 55.7 289.3 55.7ZM296.7 50.5L296.7 62.5L294.5 62.5L294.5 50.5L296.7 50.5ZM299.0 52.0L301.3 52.0L301.3 54.0L302.7 54.0L302.7 55.7L301.3 55.7L301.3 59.9Q301.3 60.4 301.5 60.6Q301.6 60.8 302.1 60.8L302.1 60.8Q302.5 60.8 302.8 60.7L302.8 60.7L302.8 62.4Q302.1 62.6 301.4 62.6L301.4 62.6Q299.1 62.6 299.0 60.2L299.0 60.2L299.0 55.7L297.8 55.7L297.8 54.0L299.0 54.0L299.0 52.0ZM307.9 62.6L307.9 62.6Q306.0 62.6 304.8 61.5Q303.7 60.4 303.7 58.5L303.7 58.5L303.7 58.2Q303.7 57.0 304.2 56.0Q304.7 55.0 305.6 54.4Q306.5 53.9 307.6 53.9L307.6 53.9Q309.4 53.9 310.4 55.0Q311.4 56.1 311.4 58.1L311.4 58.1L311.4 59.0L306.0 59.0Q306.1 59.8 306.6 60.3Q307.2 60.8 308.0 60.8L308.0 60.8Q309.3 60.8 310.1 59.9L310.1 59.9L311.2 61.1Q310.7 61.8 309.8 62.2Q308.9 62.6 307.9 62.6ZM307.6 55.7L307.6 55.7Q306.9 55.7 306.5 56.2Q306.1 56.6 306.0 57.5L306.0 57.5L309.1 57.5L309.1 57.3Q309.1 56.5 308.7 56.1Q308.3 55.7 307.6 55.7Z "/><mask id="satori_om-id-1-4-2"><rect x="321" y="47" width="34" height="19" fill="#fff"/></mask><path fill="#7d8590" d="M327.4 51.1L327.6 51.1L327.6 52.3L327.4 52.3Q325.7 52.4 324.7 53.3Q323.7 54.3 323.5 56.1L323.5 56.1Q324.4 55.0 326.0 55.0L326.0 55.0Q327.4 55.0 328.3 56.1Q329.2 57.1 329.2 58.8L329.2 58.8Q329.2 60.5 328.3 61.6Q327.3 62.6 325.7 62.6L325.7 62.6Q324.1 62.6 323.0 61.4Q322.0 60.1 322.0 58.2L322.0 58.2L322.0 57.6Q322.0 54.5 323.4 52.8Q324.7 51.1 327.4 51.1L327.4 51.1ZM325.7 56.2L325.7 56.2Q325.0 56.2 324.4 56.7Q323.7 57.1 323.5 57.8L323.5 57.8L323.5 58.3Q323.5 59.7 324.1 60.6Q324.8 61.4 325.7 61.4L325.7 61.4Q326.7 61.4 327.2 60.7Q327.8 60.0 327.8 58.8L327.8 58.8Q327.8 57.7 327.2 56.9Q326.7 56.2 325.7 56.2ZM331.1 61.7L331.1 61.7Q331.1 61.4 331.3 61.1Q331.6 60.9 332 60.9Q332.4 60.9 332.7 61.1Q332.9 61.4 332.9 61.7L332.9 61.7Q332.9 62.1 332.7 62.3Q332.4 62.6 332 62.6Q331.6 62.6 331.3 62.3Q331.1 62.1 331.1 61.7ZM342.6 61.3L342.6 62.5L335.1 62.5L335.1 61.4L339.1 57.1Q340.0 56.1 340.3 55.5Q340.6 54.8 340.6 54.2L340.6 54.2Q340.6 53.3 340.1 52.7Q339.5 52.1 338.6 52.1L338.6 52.1Q337.6 52.1 337.0 52.8Q336.4 53.4 336.4 54.5L336.4 54.5L334.9 54.5Q334.9 52.9 335.9 51.9Q336.9 51.0 338.6 51.0L338.6 51.0Q340.2 51.0 341.1 51.8Q342.1 52.6 342.1 54.0L342.1 54.0Q342.1 55.7 339.9 58.0L339.9 58.0L336.9 61.3L342.6 61.3ZM344 53.8L344 53.3Q344 52.3 344.7 51.6Q345.3 50.9 346.3 50.9L346.3 50.9Q347.4 50.9 348.0 51.6Q348.7 52.3 348.7 53.3L348.7 53.3L348.7 53.9Q348.7 54.9 348.0 55.6Q347.4 56.2 346.3 56.2L346.3 56.2Q345.3 56.2 344.7 55.6Q344 54.9 344 53.8L344 53.8ZM345.1 53.3L345.1 53.9Q345.1 54.5 345.4 54.9Q345.8 55.3 346.3 55.3L346.3 55.3Q346.9 55.3 347.2 54.9Q347.6 54.5 347.6 53.9L347.6 53.9L347.6 53.3Q347.6 52.7 347.2 52.3Q346.9 51.9 346.3 51.9Q345.8 51.9 345.4 52.3Q345.1 52.7 345.1 53.3L345.1 53.3ZM349.5 60.3L349.5 59.7Q349.5 58.7 350.2 58.0Q350.8 57.4 351.9 57.4Q352.9 57.4 353.5 58.0Q354.2 58.7 354.2 59.7L354.2 59.7L354.2 60.3Q354.2 61.3 353.6 62.0Q352.9 62.6 351.9 62.6Q350.9 62.6 350.2 62.0Q349.5 61.3 349.5 60.3L349.5 60.3ZM350.6 59.7L350.6 60.3Q350.6 60.9 351.0 61.3Q351.3 61.7 351.9 61.7L351.9 61.7Q352.4 61.7 352.8 61.3Q353.1 60.9 353.1 60.3L353.1 60.3L353.1 59.7Q353.1 59.1 352.8 58.7Q352.4 58.3 351.9 58.3L351.9 58.3Q351.3 58.3 351.0 58.7Q350.6 59.1 350.6 59.7L350.6 59.7ZM352.2 52.7L346.7 61.6L345.9 61.1L351.4 52.2L352.2 52.7Z "/><mask id="satori_om-id-1-5"><rect x="0" y="76" width="92" height="18" fill="#fff"/></mask><mask id="satori_om-id-1-5-0"><rect x="0" y="77" width="16" height="16" fill="#fff"/></mask><mask id="satori_om-id-1-5-0-0"><rect x="4" y="81" width="8" height="8" fill="#fff"/></mask><path x="4" y="81" width="8" height="8" fill="#00ADD8" d="M8,81 h0 a4,4 0 0 1 4,4 v0 a4,4 0 0 1 -4,4 h0 a4,4 0 0 1 -4,-4 v0 a4,4 0 0 1 4,-4"/><mask id="satori_om-id-1-5-1"><rect x="29" y="76" width="20" height="18" fill="#fff"/></mask><path fill="#fff" d="M39.0 85.5L39.0 90.0Q38.4 90.8 37.2 91.2Q36.1 91.6 34.7 91.6L34.7 91.6Q33.2 91.6 32.1 91.0Q31.0 90.4 30.4 89.1Q29.8 87.9 29.7 86.2L29.7 86.2L29.7 85.5Q29.7 83.8 30.3 82.5Q30.9 81.3 32.0 80.6Q33.0 80.0 34.5 80.0L34.5 80.0Q36.5 80.0 37.7 80.9Q38.8 81.9 39.0 83.7L39.0 83.7L36.7 83.7Q36.6 82.7 36.0 82.3Q35.5 81.8 34.6 81.8L34.6 81.8Q33.4 81.8 32.8 82.7Q32.1 83.6 32.1 85.4L32.1 85.4L32.1 86.1Q32.1 87.9 32.8 88.8Q33.5 89.8 34.8 89.8L34.8 89.8Q36.1 89.8 36.7 89.2L36.7 89.2L36.7 87.2L34.5 87.2L34.5 85.5L39.0 85.5ZM40.4 87.3L40.4 87.2Q40.4 85.9 40.9 84.9Q41.4 84.0 42.3 83.4Q43.2 82.9 44.4 82.9L44.4 82.9Q46.1 82.9 47.2 83.9Q48.3 85.0 48.4 86.8L48.4 86.8L48.4 87.3Q48.4 89.3 47.3 90.5Q46.3 91.6 44.4 91.6Q42.6 91.6 41.5 90.5Q40.4 89.3 40.4 87.3L40.4 87.3ZM42.7 87.3L42.7 87.3Q42.7 88.5 43.1 89.2Q43.6 89.8 44.4 89.8L44.4 89.8Q45.2 89.8 45.7 89.2Q46.2 88.6 46.2 87.2L46.2 87.2Q46.2 86.0 45.7 85.4Q45.2 84.7 44.4 84.7L44.4 84.7Q43.6 84.7 43.1 85.3Q42.7 86.0 42.7 87.3Z "/><mask id="satori_om-id-1-5-2"><rect x="58" y="76" width="34" height="18" fill="#fff"/></mask><path fill="#7d8590" d="M65.0 80.1L65.0 87.7L66.6 87.7L66.6 88.8L65.0 88.8L65.0 91.5L63.6 91.5L63.6 88.8L58.4 88.8L58.4 88.0L63.5 80.1L65.0 80.1ZM63.4 82.4L60.1 87.7L63.6 87.7L63.6 82.1L63.4 82.4ZM68.1 90.7L68.1 90.7Q68.1 90.4 68.3 90.1Q68.6 89.9 69 89.9Q69.4 89.9 69.7 90.1Q69.9 90.4 69.9 90.7L69.9 90.7Q69.9 91.1 69.7 91.3Q69.4 91.6 69 91.6Q68.6 91.6 68.3 91.3Q68.1 91.1 68.1 90.7ZM76.9 80.1L76.9 91.5L75.4 91.5L75.4 81.9L72.5 82.9L72.5 81.6L76.7 80.1L76.9 80.1ZM81 82.8L81 82.3Q81 81.3 81.7 80.6Q82.3 79.9 83.3 79.9L83.3 79.9Q84.4 79.9 85.0 80.6Q85.7 81.3 85.7 82.3L85.7 82.3L85.7 82.9Q85.7 83.9 85.0 84.6Q84.4 85.2 83.3 85.2L83.3 85.2Q82.3 85.2 81.7 84.6Q81 83.9 81 82.8L81 82.8ZM82.1 82.3L82.1 82.9Q82.1 83.5 82.4 83.9Q82.8 84.3 83.3 84.3L83.3 84.3Q83.9 84.3 84.2 83.9Q84.6 83.5 84.6 82.9L84.6 82.9L84.6 82.3Q84.6 81.7 84.2 81.3Q83.9 80.9 83.3 80.9Q82.8 80.9 82.4 81.3Q82.1 81.7 82.1 82.3L82.1 82.3ZM86.5 89.3L86.5 88.7Q86.5 87.7 87.2 87.0Q87.8 86.4 88.9 86.4Q89.9 86.4 90.5 87.0Q91.2 87.7 91.2 88.7L91.2 88.7L91.2 89.3Q91.2 90.3 90.6 91.0Q89.9 91.6 88.9 91.6Q87.9 91.6 87.2 91.0Q86.5 90.3 86.5 89.3L86.5 89.3ZM87.6 88.7L87.6 89.3Q87.6 89.9 88.0 90.3Q88.3 90.7 88.9 90.7L88.9 90.7Q89.4 90.7 89.8 90.3Q90.1 89.9 90.1 89.3L90.1 89.3L90.1 88.7Q90.1 88.1 89.8 87.7Q89.4 87.3 88.9 87.3L88.9 87.3Q88.3 87.3 88.0 87.7Q87.6 88.1 87.6 88.7L87.6 88.7ZM89.2 81.7L83.7 90.6L82.9 90.1L88.4 81.2L89.2 81.7Z "/><mask id="satori_om-id-1-6"><rect x="102" y="76" width="83" height="18" fill="#fff"/></mask><mask id="satori_om-id-1-6-0"><rect x="102" y="77" width="16" height="16" fill="#fff"/></mask><mask id="satori_om-id-1-6-0-0"><rect x="106" y="81" width="8" height="8" fill="#fff"/></mask><path x="106" y="81" width="8" height="8" fill="#555555" d="M110,81 h0 a4,4 0 0 1 4,4 v0 a4,4 0 0 1 -4,4 h0 a4,4 0 0 1 -4,-4 v0 a4,4 0 0 1 4,-4"/><mask id="satori_om-id-1-6-1"><rect x="131" y="76" width="11" height="18" fill="#fff"/></mask><path fill="#fff" d="M138.6 87.7L140.9 87.7Q140.8 89.5 139.6 90.6Q138.4 91.6 136.4 91.6L136.4 91.6Q134.2 91.6 132.9 90.2Q131.7 88.7 131.7 86.1L131.7 86.1L131.7 85.4Q131.7 83.8 132.3 82.5Q132.8 81.3 133.9 80.6Q135.0 80.0 136.4 80.0L136.4 80.0Q138.4 80.0 139.6 81.0Q140.8 82.1 141.0 84.0L141.0 84.0L138.6 84.0Q138.5 82.9 138.0 82.4Q137.5 81.9 136.4 81.9L136.4 81.9Q135.2 81.9 134.6 82.7Q134.1 83.6 134.0 85.3L134.0 85.3L134.0 86.2Q134.0 88.0 134.6 88.9Q135.2 89.7 136.4 89.7L136.4 89.7Q137.5 89.7 138.0 89.2Q138.5 88.7 138.6 87.7L138.6 87.7Z "/><mask id="satori_om-id-1-6-2"><rect x="151" y="76" width="34" height="18" fill="#fff"/></mask><path fill="#7d8590" d="M154.0 86.3L154.0 85.1L155.1 85.1Q156.2 85.1 156.7 84.6Q157.3 84.0 157.3 83.1L157.3 83.1Q157.3 81.1 155.3 81.1L155.3 81.1Q154.4 81.1 153.8 81.7Q153.3 82.2 153.3 83.1L153.3 83.1L151.8 83.1Q151.8 81.7 152.8 80.8Q153.8 80.0 155.3 80.0L155.3 80.0Q156.9 80.0 157.9 80.8Q158.8 81.7 158.8 83.2L158.8 83.2Q158.8 83.9 158.3 84.6Q157.8 85.3 157.0 85.6L157.0 85.6Q157.9 85.9 158.4 86.6Q158.9 87.3 158.9 88.3L158.9 88.3Q158.9 89.8 157.9 90.7Q156.9 91.6 155.3 91.6Q153.7 91.6 152.7 90.8Q151.7 89.9 151.7 88.5L151.7 88.5L153.2 88.5Q153.2 89.4 153.8 89.9Q154.4 90.5 155.3 90.5L155.3 90.5Q156.4 90.5 156.9 89.9Q157.5 89.4 157.5 88.3L157.5 88.3Q157.5 87.4 156.9 86.8Q156.3 86.3 155.1 86.3L155.1 86.3L154.0 86.3ZM161.1 90.7L161.1 90.7Q161.1 90.4 161.3 90.1Q161.6 89.9 162 89.9Q162.4 89.9 162.7 90.1Q162.9 90.4 162.9 90.7L162.9 90.7Q162.9 91.1 162.7 91.3Q162.4 91.6 162 91.6Q161.6 91.6 161.3 91.3Q161.1 91.1 161.1 90.7ZM170.7 86.5L170.7 86.5Q170.2 87.0 169.6 87.4Q169.0 87.7 168.2 87.7L168.2 87.7Q167.2 87.7 166.5 87.2Q165.8 86.7 165.4 85.8Q165.0 85.0 165.0 83.9L165.0 83.9Q165.0 82.7 165.4 81.8Q165.8 80.9 166.6 80.4Q167.4 80.0 168.5 80.0L168.5 80.0Q170.2 80.0 171.2 81.2Q172.1 82.5 172.1 84.7L172.1 84.7L172.1 85.1Q172.1 88.4 170.8 89.9Q169.5 91.5 166.9 91.5L166.9 91.5L166.6 91.5L166.6 90.3L166.9 90.3Q168.7 90.2 169.6 89.3Q170.6 88.4 170.7 86.5ZM168.5 86.5L168.5 86.5Q169.2 86.5 169.8 86.0Q170.4 85.6 170.7 84.9L170.7 84.9L170.7 84.4Q170.7 82.9 170.1 82.0Q169.5 81.2 168.5 81.2L168.5 81.2Q167.6 81.2 167.0 81.9Q166.4 82.6 166.4 83.8L166.4 83.8Q166.4 85.0 167.0 85.7Q167.5 86.5 168.5 86.5ZM174 82.8L174 82.3Q174 81.3 174.7 80.6Q175.3 79.9 176.3 79.9L176.3 79.9Q177.4 79.9 178.0 80.6Q178.7 81.3 178.7 82.3L178.7 82.3L178.7 82.9Q178.7 83.9 178.0 84.6Q177.4 85.2 176.3 85.2L176.3 85.2Q175.3 85.2 174.7 84.6Q174 83.9 174 82.8L174 82.8ZM175.1 82.3L175.1 82.9Q175.1 83.5 175.4 83.9Q175.8 84.3 176.3 84.3L176.3 84.3Q176.9 84.3 177.2 83.9Q177.6 83.5 177.6 82.9L177.6 82.9L177.6 82.3Q177.6 81.7 177.2 81.3Q176.9 80.9 176.3 80.9Q175.8 80.9 175.4 81.3Q175.1 81.7 175.1 82.3L175.1 82.3ZM179.5 89.3L179.5 88.7Q179.5 87.7 180.2 87.0Q180.8 86.4 181.9 86.4Q182.9 86.4 183.5 87.0Q184.2 87.7 184.2 88.7L184.2 88.7L184.2 89.3Q184.2 90.3 183.6 91.0Q182.9 91.6 181.9 91.6Q180.9 91.6 180.2 91.0Q179.5 90.3 179.5 89.3L179.5 89.3ZM180.6 88.7L180.6 89.3Q180.6 89.9 181.0 90.3Q181.3 90.7 181.9 90.7L181.9 90.7Q182.4 90.7 182.8 90.3Q183.1 89.9 183.1 89.3L183.1 89.3L183.1 88.7Q183.1 88.1 182.8 87.7Q182.4 87.3 181.9 87.3L181.9 87.3Q181.3 87.3 181.0 87.7Q180.6 88.1 180.6 88.7L180.6 88.7ZM182.2 81.7L176.7 90.6L175.9 90.1L181.4 81.2L182.2 81.7Z "/><mask id="satori_om-id-1-7"><rect x="195" y="76" width="149" height="18" fill="#fff"/></mask><mask id="satori_om-id-1-7-0"><rect x="195" y="77" width="16" height="16" fill="#fff"/></mask><mask id="satori_om-id-1-7-0-0"><rect x="199" y="81" width="8" height="8" fill="#fff"/></mask><path x="199" y="81" width="8" height="8" fill="#f1e05a" d="M203,81 h0 a4,4 0 0 1 4,4 v0 a4,4 0 0 1 -4,4 h0 a4,4 0 0 1 -4,-4 v0 a4,4 0 0 1 4,-4"/><mask id="satori_om-id-1-7-1"><rect x="224" y="76" width="77" height="18" fill="#fff"/></mask><path fill="#fff" d="M229.6 88.0L229.6 80.1L231.9 80.1L231.9 88.0Q231.9 89.1 231.5 89.9Q231.0 90.7 230.1 91.2Q229.2 91.6 228.1 91.6L228.1 91.6Q226.3 91.6 225.3 90.7Q224.3 89.8 224.3 88.1L224.3 88.1L226.7 88.1Q226.7 89.0 227.0 89.4Q227.4 89.8 228.1 89.8L228.1 89.8Q228.8 89.8 229.2 89.3Q229.6 88.8 229.6 88.0L229.6 88.0ZM241.0 91.5L238.7 91.5Q238.5 91.2 238.5 90.7L238.5 90.7Q237.7 91.6 236.3 91.6L236.3 91.6Q235.1 91.6 234.3 90.9Q233.5 90.2 233.5 89.1L233.5 89.1Q233.5 87.8 234.5 87.0Q235.5 86.3 237.3 86.3L237.3 86.3L238.4 86.3L238.4 85.8Q238.4 85.2 238.1 84.9Q237.8 84.5 237.1 84.5L237.1 84.5Q236.6 84.5 236.2 84.8Q235.9 85.1 235.9 85.6L235.9 85.6L233.7 85.6Q233.7 84.8 234.1 84.2Q234.6 83.6 235.4 83.2Q236.2 82.9 237.3 82.9L237.3 82.9Q238.8 82.9 239.7 83.7Q240.6 84.4 240.6 85.9L240.6 85.9L240.6 89.5Q240.7 90.7 241.0 91.4L241.0 91.4L241.0 91.5ZM236.8 89.9L236.8 89.9Q237.3 89.9 237.8 89.7Q238.2 89.5 238.4 89.1L238.4 89.1L238.4 87.6L237.5 87.6Q235.8 87.6 235.7 88.8L235.7 88.8L235.7 88.9Q235.7 89.4 236.0 89.6Q236.3 89.9 236.8 89.9ZM243.9 83.0L245.4 88.7L247 83.0L249.4 83.0L246.5 91.5L244.4 91.5L241.5 83.0L243.9 83.0ZM257.4 91.5L255.1 91.5Q255.0 91.2 254.9 90.7L254.9 90.7Q254.1 91.6 252.8 91.6L252.8 91.6Q251.5 91.6 250.7 90.9Q249.9 90.2 249.9 89.1L249.9 89.1Q249.9 87.8 250.9 87.0Q251.9 86.3 253.8 86.3L253.8 86.3L254.8 86.3L254.8 85.8Q254.8 85.2 254.5 84.9Q254.2 84.5 253.6 84.5L253.6 84.5Q253.0 84.5 252.7 84.8Q252.3 85.1 252.3 85.6L252.3 85.6L250.1 85.6Q250.1 84.8 250.5 84.2Q251.0 83.6 251.8 83.2Q252.6 82.9 253.7 82.9L253.7 82.9Q255.2 82.9 256.2 83.7Q257.1 84.4 257.1 85.9L257.1 85.9L257.1 89.5Q257.1 90.7 257.4 91.4L257.4 91.4L257.4 91.5ZM253.3 89.9L253.3 89.9Q253.8 89.9 254.2 89.7Q254.6 89.5 254.8 89.1L254.8 89.1L254.8 87.6L254.0 87.6Q252.3 87.6 252.2 88.8L252.2 88.8L252.2 88.9Q252.2 89.4 252.5 89.6Q252.8 89.9 253.3 89.9ZM264.9 88.5L264.9 88.5Q264.9 87.8 264.4 87.5Q263.9 87.1 262.7 86.7Q261.5 86.3 260.8 86.0L260.8 86.0Q258.8 84.9 258.8 83.1L258.8 83.1Q258.8 82.2 259.4 81.5Q259.9 80.8 260.8 80.4Q261.8 80.0 263.0 80.0L263.0 80.0Q264.3 80.0 265.2 80.4Q266.2 80.8 266.7 81.6Q267.2 82.4 267.2 83.5L267.2 83.5L264.9 83.5Q264.9 82.7 264.4 82.3Q263.9 81.8 263.0 81.8L263.0 81.8Q262.1 81.8 261.7 82.2Q261.2 82.5 261.2 83.1L261.2 83.1Q261.2 83.7 261.7 84.1Q262.3 84.4 263.4 84.8L263.4 84.8Q265.4 85.4 266.3 86.3Q267.2 87.2 267.2 88.5L267.2 88.5Q267.2 90.0 266.1 90.8Q265.0 91.6 263.1 91.6L263.1 91.6Q261.8 91.6 260.7 91.2Q259.6 90.7 259.1 89.8Q258.5 89.0 258.5 87.9L258.5 87.9L260.8 87.9Q260.8 89.8 263.1 89.8L263.1 89.8Q263.9 89.8 264.4 89.4Q264.9 89.1 264.9 88.5ZM272.2 89.8L272.2 89.8Q272.8 89.8 273.2 89.5Q273.6 89.1 273.6 88.6L273.6 88.6L275.7 88.6Q275.7 89.4 275.2 90.1Q274.8 90.9 274.0 91.2Q273.2 91.6 272.2 91.6L272.2 91.6Q270.4 91.6 269.3 90.5Q268.3 89.3 268.3 87.3L268.3 87.3L268.3 87.2Q268.3 85.2 269.3 84.0Q270.4 82.9 272.2 82.9L272.2 82.9Q273.8 82.9 274.7 83.8Q275.7 84.7 275.7 86.2L275.7 86.2L273.6 86.2Q273.6 85.5 273.2 85.1Q272.8 84.7 272.1 84.7L272.1 84.7Q271.4 84.7 271.0 85.3Q270.6 85.9 270.6 87.1L270.6 87.1L270.6 87.4Q270.6 88.7 271.0 89.2Q271.4 89.8 272.2 89.8ZM281.8 83.0L281.7 85.1Q281.3 85.1 280.9 85.1L280.9 85.1Q279.6 85.1 279.3 86.0L279.3 86.0L279.3 91.5L277.0 91.5L277.0 83.0L279.1 83.0L279.2 84.0Q279.9 82.9 281.1 82.9L281.1 82.9Q281.4 82.9 281.8 83.0L281.8 83.0ZM285.2 83.0L285.2 91.5L282.9 91.5L282.9 83.0L285.2 83.0ZM282.8 80.8L282.8 80.8Q282.8 80.3 283.2 80.0Q283.5 79.7 284.1 79.7L284.1 79.7Q284.7 79.7 285 80.0Q285.3 80.3 285.3 80.8L285.3 80.8Q285.3 81.4 285.0 81.7Q284.6 82.0 284.1 82.0Q283.5 82.0 283.2 81.7Q282.8 81.4 282.8 80.8ZM294.7 87.2L294.7 87.3Q294.7 89.3 293.8 90.5Q292.9 91.6 291.4 91.6L291.4 91.6Q290.1 91.6 289.3 90.7L289.3 90.7L289.3 94.7L287.1 94.7L287.1 83.0L289.2 83.0L289.2 83.9Q290.1 82.9 291.4 82.9L291.4 82.9Q292.9 82.9 293.8 84.0Q294.7 85.2 294.7 87.2L294.7 87.2ZM292.4 87.2L292.4 87.2Q292.4 86.0 292.0 85.4Q291.6 84.7 290.8 84.7L290.8 84.7Q289.7 84.7 289.3 85.5L289.3 85.5L289.3 89.0Q289.7 89.8 290.8 89.8L290.8 89.8Q292.4 89.8 292.4 87.2ZM296.5 81.0L298.8 81.0L298.8 83.0L300.2 83.0L300.2 84.7L298.8 84.7L298.8 88.9Q298.8 89.4 299.0 89.6Q299.1 89.8 299.6 89.8L299.6 89.8Q300.0 89.8 300.3 89.7L300.3 89.7L300.3 91.4Q299.6 91.6 298.9 91.6L298.9 91.6Q296.6 91.6 296.5 89.2L296.5 89.2L296.5 84.7L295.3 84.7L295.3 83.0L296.5 83.0L296.5 81.0Z "/><mask id="satori_om-id-1-7-2"><rect x="310" y="76" width="34" height="18" fill="#fff"/></mask><path fill="#7d8590" d="M318.4 90.3L318.4 91.5L310.9 91.5L310.9 90.4L314.9 86.1Q315.8 85.1 316.1 84.5Q316.4 83.8 316.4 83.2L316.4 83.2Q316.4 82.3 315.9 81.7Q315.3 81.1 314.4 81.1L314.4 81.1Q313.4 81.1 312.8 81.8Q312.2 82.4 312.2 83.5L312.2 83.5L310.7 83.5Q310.7 81.9 311.7 80.9Q312.8 80.0 314.4 80.0L314.4 80.0Q316.0 80.0 317.0 80.8Q317.9 81.6 317.9 83.0L317.9 83.0Q317.9 84.7 315.7 87.0L315.7 87.0L312.7 90.3L318.4 90.3ZM320.1 90.7L320.1 90.7Q320.1 90.4 320.3 90.1Q320.6 89.9 321 89.9Q321.4 89.9 321.7 90.1Q321.9 90.4 321.9 90.7L321.9 90.7Q321.9 91.1 321.7 91.3Q321.4 91.6 321 91.6Q320.6 91.6 320.3 91.3Q320.1 91.1 320.1 90.7ZM329.7 86.5L329.7 86.5Q329.2 87.0 328.6 87.4Q328.0 87.7 327.2 87.7L327.2 87.7Q326.2 87.7 325.5 87.2Q324.8 86.7 324.4 85.8Q324.0 85.0 324.0 83.9L324.0 83.9Q324.0 82.7 324.4 81.8Q324.8 80.9 325.6 80.4Q326.4 80.0 327.5 80.0L327.5 80.0Q329.2 80.0 330.2 81.2Q331.1 82.5 331.1 84.7L331.1 84.7L331.1 85.1Q331.1 88.4 329.8 89.9Q328.5 91.5 325.9 91.5L325.9 91.5L325.6 91.5L325.6 90.3L325.9 90.3Q327.7 90.2 328.6 89.3Q329.6 88.4 329.7 86.5ZM327.5 86.5L327.5 86.5Q328.2 86.5 328.8 86.0Q329.4 85.6 329.7 84.9L329.7 84.9L329.7 84.4Q329.7 82.9 329.1 82.0Q328.5 81.2 327.5 81.2L327.5 81.2Q326.6 81.2 326.0 81.9Q325.4 82.6 325.4 83.8L325.4 83.8Q325.4 85.0 326.0 85.7Q326.5 86.5 327.5 86.5ZM333 82.8L333 82.3Q333 81.3 333.7 80.6Q334.3 79.9 335.3 79.9L335.3 79.9Q336.4 79.9 337.0 80.6Q337.7 81.3 337.7 82.3L337.7 82.3L337.7 82.9Q337.7 83.9 337.0 84.6Q336.4 85.2 335.3 85.2L335.3 85.2Q334.3 85.2 333.7 84.6Q333 83.9 333 82.8L333 82.8ZM334.1 82.3L334.1 82.9Q334.1 83.5 334.4 83.9Q334.8 84.3 335.3 84.3L335.3 84.3Q335.9 84.3 336.2 83.9Q336.6 83.5 336.6 82.9L336.6 82.9L336.6 82.3Q336.6 81.7 336.2 81.3Q335.9 80.9 335.3 80.9Q334.8 80.9 334.4 81.3Q334.1 81.7 334.1 82.3L334.1 82.3ZM338.5 89.3L338.5 88.7Q338.5 87.7 339.2 87.0Q339.8 86.4 340.9 86.4Q341.9 86.4 342.5 87.0Q343.2 87.7 343.2 88.7L343.2 88.7L343.2 89.3Q343.2 90.3 342.6 91.0Q341.9 91.6 340.9 91.6Q339.9 91.6 339.2 91.0Q338.5 90.3 338.5 89.3L338.5 89.3ZM339.6 88.7L339.6 89.3Q339.6 89.9 340.0 90.3Q340.3 90.7 340.9 90.7L340.9 90.7Q341.4 90.7 341.8 90.3Q342.1 89.9 342.1 89.3L342.1 89.3L342.1 88.7Q342.1 88.1 341.8 87.7Q341.4 87.3 340.9 87.3L340.9 87.3Q340.3 87.3 340.0 87.7Q339.6 88.1 339.6 88.7L339.6 88.7ZM341.2 81.7L335.7 90.6L334.9 90.1L340.4 81.2L341.2 81.7Z "/><mask id="satori_om-id-1-8"><rect x="0" y="104" width="112" height="19" fill="#fff"/></mask><mask id="satori_om-id-1-8-0"><rect x="0" y="105" width="16" height="16" fill="#fff"/></mask><mask id="satori_om-id-1-8-0-0"><rect x="4" y="109" width="8" height="8" fill="#fff"/></mask><path x="4" y="109" width="8" height="8" fill="#ff5a03" d="M8,109 h0 a4,4 0 0 1 4,4 v0 a4,4 0 0 1 -4,4 h0 a4,4 0 0 1 -4,-4 v0 a4,4 0 0 1 4,-4"/><mask id="satori_om-id-1-8-1"><rect x="29" y="104" width="40" height="19" fill="#fff"/></mask><path fill="#fff" d="M37.2 119.5L36.4 117.1L32.3 117.1L31.5 119.5L29.1 119.5L33.3 108.1L35.5 108.1L39.7 119.5L37.2 119.5ZM34.4 111.0L33.0 115.2L35.8 115.2L34.4 111.0ZM45.2 117.1L45.2 117.1Q45.2 116.7 44.8 116.5Q44.4 116.3 43.5 116.1L43.5 116.1Q40.5 115.4 40.5 113.5L40.5 113.5Q40.5 112.4 41.4 111.6Q42.3 110.9 43.8 110.9L43.8 110.9Q45.5 110.9 46.4 111.6Q47.4 112.4 47.4 113.6L47.4 113.6L45.1 113.6Q45.1 113.1 44.8 112.8Q44.5 112.5 43.8 112.5L43.8 112.5Q43.3 112.5 43.0 112.7Q42.6 113.0 42.6 113.4L42.6 113.4Q42.6 113.8 43.0 114.0Q43.4 114.2 44.2 114.4Q45.0 114.6 45.6 114.8L45.6 114.8Q47.4 115.4 47.4 117.1L47.4 117.1Q47.4 118.2 46.4 118.9Q45.4 119.6 43.9 119.6L43.9 119.6Q42.8 119.6 42.0 119.3Q41.1 118.9 40.7 118.2Q40.2 117.6 40.2 116.8L40.2 116.8L42.3 116.8Q42.4 117.4 42.8 117.7Q43.2 118.0 43.9 118.0L43.9 118.0Q44.5 118.0 44.9 117.8Q45.2 117.5 45.2 117.1ZM49.3 109.0L51.6 109.0L51.6 111.0L53.0 111.0L53.0 112.7L51.6 112.7L51.6 116.9Q51.6 117.4 51.7 117.6Q51.9 117.8 52.4 117.8L52.4 117.8Q52.8 117.8 53.1 117.7L53.1 117.7L53.1 119.4Q52.4 119.6 51.7 119.6L51.7 119.6Q49.4 119.6 49.3 117.2L49.3 117.2L49.3 112.7L48.1 112.7L48.1 111.0L49.3 111.0L49.3 109.0ZM59.0 111.0L59.0 113.1Q58.6 113.1 58.2 113.1L58.2 113.1Q56.9 113.1 56.5 114.0L56.5 114.0L56.5 119.5L54.3 119.5L54.3 111.0L56.4 111.0L56.5 112.0Q57.1 110.9 58.3 110.9L58.3 110.9Q58.7 110.9 59.0 111.0L59.0 111.0ZM59.5 115.3L59.5 115.2Q59.5 113.9 60.0 112.9Q60.4 112.0 61.3 111.4Q62.3 110.9 63.5 110.9L63.5 110.9Q65.2 110.9 66.3 111.9Q67.3 113.0 67.5 114.8L67.5 114.8L67.5 115.3Q67.5 117.3 66.4 118.5Q65.3 119.6 63.5 119.6Q61.6 119.6 60.6 118.5Q59.5 117.3 59.5 115.3L59.5 115.3ZM61.7 115.3L61.7 115.3Q61.7 116.5 62.2 117.2Q62.6 117.8 63.5 117.8L63.5 117.8Q64.3 117.8 64.8 117.2Q65.2 116.6 65.2 115.2L65.2 115.2Q65.2 114.0 64.8 113.4Q64.3 112.7 63.5 112.7L63.5 112.7Q62.6 112.7 62.2 113.3Q61.7 114.0 61.7 115.3Z "/><mask id="satori_om-id-1-8-2"><rect x="78" y="104" width="34" height="19" fill="#fff"/></mask><path fill="#7d8590" d="M86.4 118.3L86.4 119.5L78.9 119.5L78.9 118.4L82.9 114.1Q83.8 113.1 84.1 112.5Q84.4 111.8 84.4 111.2L84.4 111.2Q84.4 110.3 83.9 109.7Q83.3 109.1 82.4 109.1L82.4 109.1Q81.4 109.1 80.8 109.8Q80.2 110.4 80.2 111.5L80.2 111.5L78.7 111.5Q78.7 109.9 79.7 108.9Q80.8 108.0 82.4 108.0L82.4 108.0Q84.0 108.0 85.0 108.8Q85.9 109.6 85.9 111.0L85.9 111.0Q85.9 112.7 83.7 115.0L83.7 115.0L80.7 118.3L86.4 118.3ZM88.1 118.7L88.1 118.7Q88.1 118.4 88.3 118.1Q88.6 117.9 89 117.9Q89.4 117.9 89.7 118.1Q89.9 118.4 89.9 118.7L89.9 118.7Q89.9 119.1 89.7 119.3Q89.4 119.6 89 119.6Q88.6 119.6 88.3 119.3Q88.1 119.1 88.1 118.7ZM96.9 108.1L96.9 119.5L95.4 119.5L95.4 109.9L92.5 110.9L92.5 109.6L96.7 108.1L96.9 108.1ZM101 110.8L101 110.3Q101 109.3 101.7 108.6Q102.3 107.9 103.3 107.9L103.3 107.9Q104.4 107.9 105.0 108.6Q105.7 109.3 105.7 110.3L105.7 110.3L105.7 110.9Q105.7 111.9 105.0 112.6Q104.4 113.2 103.3 113.2L103.3 113.2Q102.3 113.2 101.7 112.6Q101 111.9 101 110.8L101 110.8ZM102.1 110.3L102.1 110.9Q102.1 111.5 102.4 111.9Q102.8 112.3 103.3 112.3L103.3 112.3Q103.9 112.3 104.2 111.9Q104.6 111.5 104.6 110.9L104.6 110.9L104.6 110.3Q104.6 109.7 104.2 109.3Q103.9 108.9 103.3 108.9Q102.8 108.9 102.4 109.3Q102.1 109.7 102.1 110.3L102.1 110.3ZM106.5 117.3L106.5 116.7Q106.5 115.7 107.2 115.0Q107.8 114.4 108.9 114.4Q109.9 114.4 110.5 115.0Q111.2 115.7 111.2 116.7L111.2 116.7L111.2 117.3Q111.2 118.3 110.6 119.0Q109.9 119.6 108.9 119.6Q107.9 119.6 107.2 119.0Q106.5 118.3 106.5 117.3L106.5 117.3ZM107.6 116.7L107.6 117.3Q107.6 117.9 108.0 118.3Q108.3 118.7 108.9 118.7L108.9 118.7Q109.4 118.7 109.8 118.3Q110.1 117.9 110.1 117.3L110.1 117.3L110.1 116.7Q110.1 116.1 109.8 115.7Q109.4 115.3 108.9 115.3L108.9 115.3Q108.3 115.3 108.0 115.7Q107.6 116.1 107.6 116.7L107.6 116.7ZM109.2 109.7L103.7 118.6L102.9 118.1L108.4 109.2L109.2 109.7Z "/><mask id="satori_om-id-1-9"><rect x="122" y="104" width="103" height="19" fill="#fff"/></mask><mask id="satori_om-id-1-9-0"><rect x="122" y="105" width="16" height="16" fill="#fff"/></mask><mask id="satori_om-id-1-9-0-0"><rect x="126" y="109" width="8" height="8" fill="#fff"/></mask><path x="126" y="109" width="8" height="8" fill="#563d7c" d="M130,109 h0 a4,4 0 0 1 4,4 v0 a4,4 0 0 1 -4,4 h0 a4,4 0 0 1 -4,-4 v0 a4,4 0 0 1 4,-4"/><mask id="satori_om-id-1-9-1"><rect x="151" y="104" width="31" height="19" fill="#fff"/></mask><path fill="#fff" d="M158.6 115.7L160.9 115.7Q160.8 117.5 159.6 118.6Q158.4 119.6 156.4 119.6L156.4 119.6Q154.2 119.6 152.9 118.2Q151.7 116.7 151.7 114.1L151.7 114.1L151.7 113.4Q151.7 111.8 152.3 110.5Q152.8 109.3 153.9 108.6Q155.0 108.0 156.4 108.0L156.4 108.0Q158.4 108.0 159.6 109.0Q160.8 110.1 161.0 112.0L161.0 112.0L158.6 112.0Q158.5 110.9 158.0 110.4Q157.5 109.9 156.4 109.9L156.4 109.9Q155.2 109.9 154.6 110.7Q154.1 111.6 154.0 113.3L154.0 113.3L154.0 114.2Q154.0 116.0 154.6 116.9Q155.2 117.7 156.4 117.7L156.4 117.7Q157.5 117.7 158.0 117.2Q158.5 116.7 158.6 115.7L158.6 115.7ZM168.4 116.5L168.4 116.5Q168.4 115.8 167.9 115.5Q167.4 115.1 166.2 114.7Q165.0 114.3 164.3 114.0L164.3 114.0Q162.4 112.9 162.4 111.1L162.4 111.1Q162.4 110.2 162.9 109.5Q163.4 108.8 164.4 108.4Q165.3 108.0 166.6 108.0L166.6 108.0Q167.8 108.0 168.7 108.4Q169.7 108.8 170.2 109.6Q170.7 110.4 170.7 111.5L170.7 111.5L168.4 111.5Q168.4 110.7 167.9 110.3Q167.4 109.8 166.5 109.8L166.5 109.8Q165.7 109.8 165.2 110.2Q164.7 110.5 164.7 111.1L164.7 111.1Q164.7 111.7 165.3 112.1Q165.8 112.4 166.9 112.8L166.9 112.8Q168.9 113.4 169.8 114.3Q170.7 115.2 170.7 116.5L170.7 116.5Q170.7 118.0 169.6 118.8Q168.5 119.6 166.6 119.6L166.6 119.6Q165.3 119.6 164.2 119.2Q163.1 118.7 162.6 117.8Q162.0 117.0 162.0 115.9L162.0 115.9L164.4 115.9Q164.4 117.8 166.6 117.8L166.6 117.8Q167.4 117.8 167.9 117.4Q168.4 117.1 168.4 116.5ZM178.2 116.5L178.2 116.5Q178.2 115.8 177.8 115.5Q177.3 115.1 176.1 114.7Q174.8 114.3 174.1 114.0L174.1 114.0Q172.2 112.9 172.2 111.1L172.2 111.1Q172.2 110.2 172.7 109.5Q173.2 108.8 174.2 108.4Q175.2 108.0 176.4 108.0L176.4 108.0Q177.6 108.0 178.6 108.4Q179.5 108.8 180.0 109.6Q180.6 110.4 180.6 111.5L180.6 111.5L178.2 111.5Q178.2 110.7 177.7 110.3Q177.2 109.8 176.4 109.8L176.4 109.8Q175.5 109.8 175.0 110.2Q174.5 110.5 174.5 111.1L174.5 111.1Q174.5 111.7 175.1 112.1Q175.7 112.4 176.7 112.8L176.7 112.8Q178.7 113.4 179.7 114.3Q180.6 115.2 180.6 116.5L180.6 116.5Q180.6 118.0 179.5 118.8Q178.3 119.6 176.4 119.6L176.4 119.6Q175.1 119.6 174.1 119.2Q173.0 118.7 172.4 117.8Q171.8 117.0 171.8 115.9L171.8 115.9L174.2 115.9Q174.2 117.8 176.4 117.8L176.4 117.8Q177.3 117.8 177.8 117.4Q178.2 117.1 178.2 116.5Z "/><mask id="satori_om-id-1-9-2"><rect x="191" y="104" width="34" height="19" fill="#fff"/></mask><path fill="#7d8590" d="M196.7 108.1L196.7 119.5L195.2 119.5L195.2 109.9L192.3 110.9L192.3 109.6L196.5 108.1L196.7 108.1ZM201.1 118.7L201.1 118.7Q201.1 118.4 201.3 118.1Q201.6 117.9 202 117.9Q202.4 117.9 202.7 118.1Q202.9 118.4 202.9 118.7L202.9 118.7Q202.9 119.1 202.7 119.3Q202.4 119.6 202 119.6Q201.6 119.6 201.3 119.3Q201.1 119.1 201.1 118.7ZM212.3 112.8L212.3 114.6Q212.3 117.2 211.4 118.4Q210.5 119.6 208.7 119.6L208.7 119.6Q206.9 119.6 206 118.4Q205.1 117.2 205.1 114.8L205.1 114.8L205.1 112.9Q205.1 110.4 206.0 109.2Q206.8 108.0 208.7 108.0L208.7 108.0Q210.5 108.0 211.4 109.1Q212.3 110.3 212.3 112.8L212.3 112.8ZM210.8 115.0L210.8 112.7Q210.8 110.8 210.3 110.0Q209.8 109.1 208.7 109.1L208.7 109.1Q207.6 109.1 207.1 110.0Q206.6 110.8 206.5 112.5L206.5 112.5L206.5 114.9Q206.5 116.7 207.1 117.6Q207.6 118.5 208.7 118.5L208.7 118.5Q209.8 118.5 210.3 117.6Q210.8 116.8 210.8 115.0L210.8 115.0ZM214 110.8L214 110.3Q214 109.3 214.7 108.6Q215.3 107.9 216.3 107.9L216.3 107.9Q217.4 107.9 218.0 108.6Q218.7 109.3 218.7 110.3L218.7 110.3L218.7 110.9Q218.7 111.9 218.0 112.6Q217.4 113.2 216.3 113.2L216.3 113.2Q215.3 113.2 214.7 112.6Q214 111.9 214 110.8L214 110.8ZM215.1 110.3L215.1 110.9Q215.1 111.5 215.4 111.9Q215.8 112.3 216.3 112.3L216.3 112.3Q216.9 112.3 217.2 111.9Q217.6 111.5 217.6 110.9L217.6 110.9L217.6 110.3Q217.6 109.7 217.2 109.3Q216.9 108.9 216.3 108.9Q215.8 108.9 215.4 109.3Q215.1 109.7 215.1 110.3L215.1 110.3ZM219.5 117.3L219.5 116.7Q219.5 115.7 220.2 115.0Q220.8 114.4 221.9 114.4Q222.9 114.4 223.5 115.0Q224.2 115.7 224.2 116.7L224.2 116.7L224.2 117.3Q224.2 118.3 223.6 119.0Q222.9 119.6 221.9 119.6Q220.9 119.6 220.2 119.0Q219.5 118.3 219.5 117.3L219.5 117.3ZM220.6 116.7L220.6 117.3Q220.6 117.9 221.0 118.3Q221.3 118.7 221.9 118.7L221.9 118.7Q222.4 118.7 222.8 118.3Q223.1 117.9 223.1 117.3L223.1 117.3L223.1 116.7Q223.1 116.1 222.8 115.7Q222.4 115.3 221.9 115.3L221.9 115.3Q221.3 115.3 221.0 115.7Q220.6 116.1 220.6 116.7L220.6 116.7ZM222.2 109.7L216.7 118.6L215.9 118.1L221.4 109.2L222.2 109.7Z "/></svg>