<svg width="375" height="200" viewBox="0 0 375 200" xmlns="http://www.w3.org/2000/svg"><mask id="satori_om-id"><rect x="0" y="0" width="375" height="123" fill="#fff"/></mask><clipPath id="satori_cp-id-0"><path x="0" y="0" width="375" height="8" d="M4,0 h367 a4,4 0 0 1 4,4 v0 a4,4 0 0 1 -4,4 h-367 a4,4 0 0 1 -4,-4 v0 a4,4 0 0 1 4,-4"/></clipPath><mask id="satori_om-id-0"><rect x="0" y="0" width="375" height="8" fill="#fff"/></mask><mask id="satori_om-id-0-0"><rect x="0" y="0" width="160" height="8" fill="#fff" mask="url(#satori_om-id-0)"/></mask><rect x="0" y="0" width="160" height="8" fill="#3178c6" clip-path="url(#satori_cp-id-0)" mask="url(#satori_om-id-0)"/><mask id="satori_om-id-0-1"><rect x="160" y="0" width="60" height="8" fill="#fff" mask="url(#satori_om-id-0)"/></mask><rect x="160" y="0" width="60" height="8" fill="#00ADD8" clip-path="url(#satori_cp-id-0)" mask="url(#satori_om-id-0)"/><mask id="satori_om-id-0-2"><rect x="220" y="0" width="45" height="8" fill="#fff" mask="url(#satori_om-id-0)"/></mask><rect x="220" y="0" width="45" height="8" fill="#3572A5" clip-path="url(#satori_cp-id-0)" mask="url(#satori_om-id-0)"/><mask id="satori_om-id-0-3"><rect x="265" y="0" width="31" height="8" fill="#fff" mask="url(#satori_om-id-0)"/></mask><rect x="265" y="0" width="31" height="8" fill="#844FBA" clip-path="url(#satori_cp-id-0)" mask="url(#satori_om-id-0)"/><mask id="satori_om-id-0-4"><rect x="296" y="0" width="19" height="8" fill="#fff" mask="url(#satori_om-id-0)"/></mask><rect x="296" y="0" width="19" height="8" fill="#A97BFF" clip-path="url(#satori_cp-id-0)" mask="url(#satori_om-id-0)"/><mask id="satori_om-id-0-5"><rect x="315" y="0" width="18" height="8" fill="#fff" mask="url(#satori_om-id-0)"/></mask><rect x="315" y="0" width="18" height="8" fill="#ff3e00" clip-path="url(#satori_cp-id-0)" mask="url(#satori_om-id-0)"/><mask id="satori_om-id-0-6"><rect x="333" y="0" width="12" height="8" fill="#fff" mask="url(#satori_om-id-0)"/></mask><rect x="333" y="0" width="12" height="8" fill="#555555" clip-path="url(#satori_cp-id-0)" mask="url(#satori_om-id-0)"/><mask id="satori_om-id-0-7"><rect x="345" y="0" width="10" height="8" fill="#fff" mask="url(#satori_om-id-0)"/></mask><rect x="345" y="0" width="10" height="8" fill="#f1e05a" clip-path="url(#satori_cp-id-0)" mask="url(#satori_om-id-0)"/><mask id="satori_om-id-0-8"><rect x="355" y="0" width="6" height="8" fill="#fff" mask="url(#satori_om-id-0)"/></mask><rect x="355" y="0" width="6" height="8" fill="#ff5a03" clip-path="url(#satori_cp-id-0)" mask="url(#satori_om-id-0)"/><mask id="satori_om-id-0-9"><rect x="361" y="0" width="4" height="8" fill="#fff" mask="url(#satori_om-id-0)"/></mask><rect x="361" y="0" width="4" height="8" fill="#563d7c" clip-path="url(#satori_cp-id-0)" mask="url(#satori_om-id-0)"/><mask id="satori_om-id-1"><rect x="0" y="18" width="375" height="105" fill="#fff"/></mask><mask id="satori_om-id-1-0"><rect x="0" y="18" width="160" height="19" fill="#fff"/></mask><mask id="satori_om-id-1-0-0"><rect x="0" y="19" width="16" height="16" fill="#fff"/></mask><mask id="satori_om-id-1-0-0-0"><rect x="4" y="23" width="8" height="8" fill="#fff"/></mask><path x="4" y="23" width="8" height="8" fill="#3178c6" d="M8,23 h0 a4,4 0 0 1 4,4 v0 a4,4 0 0 1 -4,4 h0 a4,4 0 0 1 -4,-4 v0 a4,4 0 0 1 4,-4"/><mask id="satori_om-id-1-0-1"><rect x="29" y="18" width="79" height="19" fill="#fff"/></mask><path fill="#24292f" d="M38.6 21.5L38.6 23.4L35.1 23.4L35.1 32.8L32.8 32.8L32.8 23.4L29.3 23.4L29.3 21.5L38.6 21.5ZM40.7 24.4L42.3 29.6L43.8 24.4L46.3 24.4L42.9 34.2L42.7 34.6Q41.9 36.3 40.2 36.3L40.2 36.3Q39.7 36.3 39.2 36.1L39.2 36.1L39.2 34.4L39.5 34.4Q40.2 34.4 40.5 34.2Q40.8 34.0 41.0 33.6L41.0 33.6L41.2 32.9L38.3 24.4L40.7 24.4ZM54.8 28.6L54.8 28.7Q54.8 30.6 53.9 31.8Q53.0 33 51.5 33L51.5 33Q50.2 33 49.4 32.1L49.4 32.1L49.4 36.1L47.2 36.1L47.2 24.4L49.3 24.4L49.3 25.2Q50.1 24.2 51.5 24.2L51.5 24.2Q53.0 24.2 53.9 25.4Q54.8 26.5 54.8 28.6L54.8 28.6ZM52.5 28.5L52.5 28.5Q52.5 27.4 52.1 26.7Q51.7 26.1 50.9 26.1L50.9 26.1Q49.8 26.1 49.4 26.9L49.4 26.9L49.4 30.3Q49.8 31.2 50.9 31.2L50.9 31.2Q52.5 31.2 52.5 28.5ZM60.1 33L60.1 33Q58.2 33 57.0 31.9Q55.9 30.7 55.9 28.8L55.9 28.8L55.9 28.6Q55.9 27.3 56.4 26.3Q56.8 25.3 57.7 24.8Q58.6 24.2 59.8 24.2L59.8 24.2Q61.5 24.2 62.5 25.3Q63.5 26.4 63.5 28.4L63.5 28.4L63.5 29.4L58.1 29.4Q58.3 30.2 58.8 30.7Q59.4 31.2 60.2 31.2L60.2 31.2Q61.5 31.2 62.2 30.2L62.2 30.2L63.4 31.5Q62.8 32.2 62.0 32.6Q61.1 33 60.1 33ZM59.8 26.1L59.8 26.1Q59.1 26.1 58.7 26.5Q58.3 27.0 58.2 27.8L58.2 27.8L61.3 27.8L61.3 27.6Q61.3 26.9 60.9 26.5Q60.5 26.1 59.8 26.1ZM70.9 29.9L70.9 29.9Q70.9 29.2 70.4 28.8Q69.9 28.5 68.7 28.1Q67.5 27.7 66.8 27.3L66.8 27.3Q64.8 26.3 64.8 24.5L64.8 24.5Q64.8 23.6 65.4 22.8Q65.9 22.1 66.8 21.7Q67.8 21.3 69.0 21.3L69.0 21.3Q70.3 21.3 71.2 21.8Q72.2 22.2 72.7 23Q73.2 23.8 73.2 24.8L73.2 24.8L70.9 24.8Q70.9 24.0 70.4 23.6Q69.9 23.2 69.0 23.2L69.0 23.2Q68.1 23.2 67.7 23.5Q67.2 23.9 67.2 24.5L67.2 24.5Q67.2 25.1 67.7 25.4Q68.3 25.8 69.4 26.1L69.4 26.1Q71.4 26.7 72.3 27.6Q73.2 28.5 73.2 29.8L73.2 29.8Q73.2 31.3 72.1 32.2Q71.0 33 69.1 33L69.1 33Q67.8 33 66.7 32.5Q65.6 32.0 65.1 31.2Q64.5 30.4 64.5 29.3L64.5 29.3L66.8 29.3Q66.8 31.1 69.1 31.1L69.1 31.1Q69.9 31.1 70.4 30.8Q70.9 30.5 70.9 29.9ZM78.2 31.2L78.2 31.2Q78.8 31.2 79.2 30.8Q79.6 30.5 79.6 29.9L79.6 29.9L81.7 29.9Q81.7 30.8 81.2 31.5Q80.8 32.2 80.0 32.6Q79.2 33 78.2 33L78.2 33Q76.4 33 75.3 31.8Q74.3 30.7 74.3 28.7L74.3 28.7L74.3 28.5Q74.3 26.6 75.3 25.4Q76.4 24.2 78.2 24.2L78.2 24.2Q79.8 24.2 80.7 25.1Q81.7 26.0 81.7 27.5L81.7 27.5L79.6 27.5Q79.6 26.9 79.2 26.5Q78.8 26.1 78.1 26.1L78.1 26.1Q77.4 26.1 77.0 26.6Q76.6 27.2 76.6 28.5L76.6 28.5L76.6 28.7Q76.6 30.0 77.0 30.6Q77.4 31.2 78.2 31.2ZM87.8 24.3L87.7 26.5Q87.3 26.4 86.9 26.4L86.9 26.4Q85.6 26.4 85.3 27.3L85.3 27.3L85.3 32.8L83.0 32.8L83.0 24.4L85.1 24.4L85.2 25.4Q85.9 24.2 87.1 24.2L87.1 24.2Q87.4 24.2 87.8 24.3L87.8 24.3ZM91.2 24.4L91.2 32.8L88.9 32.8L88.9 24.4L91.2 24.4ZM88.8 22.2L88.8 22.2Q88.8 21.7 89.2 21.4Q89.5 21.0 90.1 21.0L90.1 21.0Q90.7 21.0 91 21.4Q91.3 21.7 91.3 22.2L91.3 22.2Q91.3 22.7 91.0 23.0Q90.6 23.4 90.1 23.4Q89.5 23.4 89.2 23.0Q88.8 22.7 88.8 22.2ZM100.7 28.6L100.7 28.7Q100.7 30.6 99.8 31.8Q98.9 33 97.4 33L97.4 33Q96.1 33 95.3 32.1L95.3 32.1L95.3 36.1L93.1 36.1L93.1 24.4L95.2 24.4L95.2 25.2Q96.1 24.2 97.4 24.2L97.4 24.2Q98.9 24.2 99.8 25.4Q100.7 26.5 100.7 28.6L100.7 28.6ZM98.4 28.5L98.4 28.5Q98.4 27.4 98.0 26.7Q97.6 26.1 96.8 26.1L96.8 26.1Q95.7 26.1 95.3 26.9L95.3 26.9L95.3 30.3Q95.7 31.2 96.8 31.2L96.8 31.2Q98.4 31.2 98.4 28.5ZM102.5 22.3L104.8 22.3L104.8 24.4L106.2 24.4L106.2 26.0L104.8 26.0L104.8 30.3Q104.8 30.7 105.0 30.9Q105.1 31.1 105.6 31.1L105.6 31.1Q106.0 31.1 106.3 31.1L106.3 31.1L106.3 32.8Q105.6 33 104.9 33L104.9 33Q102.6 33 102.5 30.6L102.5 30.6L102.5 26.0L101.3 26.0L101.3 24.4L102.5 24.4L102.5 22.3Z "/><mask id="satori_om-id-1-0-2"><rect x="117" y="18" width="43" height="19" fill="#fff"/></mask><path fill="#57606a" d="M124.0 21.5L124.0 29.0L125.6 29.0L125.6 30.2L124.0 30.2L124.0 32.8L122.6 32.8L122.6 30.2L117.4 30.2L117.4 29.4L122.5 21.5L124.0 21.5ZM122.4 23.8L119.1 29.0L122.6 29.0L122.6 23.4L122.4 23.8ZM134.4 31.7L134.4 32.8L126.9 32.8L126.9 31.8L130.9 27.4Q131.7 26.4 132.1 25.8Q132.4 25.2 132.4 24.5L132.4 24.5Q132.4 23.6 131.9 23.1Q131.3 22.5 130.4 22.5L130.4 22.5Q129.4 22.5 128.8 23.1Q128.2 23.7 128.2 24.8L128.2 24.8L126.7 24.8Q126.7 23.3 127.7 22.3Q128.7 21.3 130.4 21.3L130.4 21.3Q132.0 21.3 132.9 22.1Q133.9 23.0 133.9 24.4L133.9 24.4Q133.9 26.0 131.7 28.4L131.7 28.4L128.7 31.7L134.4 31.7ZM136.1 32.1L136.1 32.1Q136.1 31.7 136.3 31.5Q136.5 31.2 137.0 31.2Q137.4 31.2 137.7 31.5Q137.9 31.7 137.9 32.1L137.9 32.1Q137.9 32.4 137.7 32.7Q137.4 32.9 137.0 32.9Q136.5 32.9 136.3 32.7Q136.1 32.4 136.1 32.1ZM141.9 27.4L140.8 27.1L141.4 21.5L147.2 21.5L147.2 22.8L142.6 22.8L142.3 25.9Q143.1 25.4 144.1 25.4L144.1 25.4Q145.7 25.4 146.6 26.4Q147.5 27.5 147.5 29.2L147.5 29.2Q147.5 31.0 146.6 32.0Q145.6 33 143.9 33L143.9 33Q142.4 33 141.5 32.2Q140.5 31.3 140.4 29.9L140.4 29.9L141.8 29.9Q141.9 30.8 142.4 31.3Q143.0 31.8 143.9 31.8L143.9 31.8Q144.9 31.8 145.5 31.1Q146.1 30.4 146.1 29.2L146.1 29.2Q146.1 28.1 145.5 27.4Q144.8 26.7 143.8 26.7L143.8 26.7Q142.9 26.7 142.3 27.1L142.3 27.1L141.9 27.4ZM149.0 24.2L149.0 23.7Q149.0 22.6 149.6 22.0Q150.3 21.3 151.3 21.3L151.3 21.3Q152.4 21.3 153.0 22.0Q153.6 22.6 153.6 23.7L153.6 23.7L153.6 24.3Q153.6 25.3 153.0 25.9Q152.3 26.6 151.3 26.6L151.3 26.6Q150.3 26.6 149.6 25.9Q149.0 25.3 149.0 24.2L149.0 24.2ZM150.1 23.7L150.1 24.3Q150.1 24.9 150.4 25.3Q150.8 25.7 151.3 25.7L151.3 25.7Q151.9 25.7 152.2 25.3Q152.6 24.9 152.6 24.2L152.6 24.2L152.6 23.7Q152.6 23.0 152.2 22.6Q151.9 22.3 151.3 22.3Q150.7 22.3 150.4 22.6Q150.1 23.0 150.1 23.7L150.1 23.7ZM154.5 30.6L154.5 30.1Q154.5 29.0 155.2 28.4Q155.8 27.7 156.9 27.7Q157.9 27.7 158.5 28.4Q159.2 29.0 159.2 30.1L159.2 30.1L159.2 30.7Q159.2 31.7 158.5 32.3Q157.9 33.0 156.9 33.0Q155.9 33.0 155.2 32.4Q154.5 31.7 154.5 30.6L154.5 30.6ZM155.6 30.1L155.6 30.7Q155.6 31.3 155.9 31.7Q156.3 32.1 156.9 32.1L156.9 32.1Q157.4 32.1 157.8 31.7Q158.1 31.3 158.1 30.6L158.1 30.6L158.1 30.1Q158.1 29.4 157.8 29.0Q157.4 28.7 156.9 28.7L156.9 28.7Q156.3 28.7 155.9 29.0Q155.6 29.4 155.6 30.1L155.6 30.1ZM157.2 23.1L151.7 32.0L150.8 31.5L156.4 22.6L157.2 23.1Z "/><mask id="satori_om-id-1-1"><rect x="170" y="18" width="101" height="19" fill="#fff"/></mask><mask id="satori_om-id-1-1-0"><rect x="170" y="19" width="16" height="16" fill="#fff"/></mask><mask id="satori_om-id-1-1-0-0"><rect x="174" y="23" width="8" height="8" fill="#fff"/></mask><path x="174" y="23" width="8" height="8" fill="#00ADD8" d="M178,23 h0 a4,4 0 0 1 4,4 v0 a4,4 0 0 1 -4,4 h0 a4,4 0 0 1 -4,-4 v0 a4,4 0 0 1 4,-4"/><mask id="satori_om-id-1-1-1"><rect x="199" y="18" width="20" height="19" fill="#fff"/></mask><path fill="#24292f" d="M209.0 26.9L209.0 31.4Q208.4 32.2 207.2 32.6Q206.1 33 204.7 33L204.7 33Q203.2 33 202.1 32.4Q201.0 31.7 200.4 30.5Q199.8 29.3 199.7 27.6L199.7 27.6L199.7 26.8Q199.7 25.1 200.3 23.9Q200.9 22.6 202.0 22.0Q203.0 21.3 204.5 21.3L204.5 21.3Q206.5 21.3 207.7 22.3Q208.8 23.2 209.0 25.1L209.0 25.1L206.7 25.1Q206.6 24.1 206.0 23.7Q205.5 23.2 204.6 23.2L204.6 23.2Q203.4 23.2 202.8 24.1Q202.1 25 202.1 26.8L202.1 26.8L202.1 27.5Q202.1 29.3 202.8 30.2Q203.5 31.1 204.8 31.1L204.8 31.1Q206.1 31.1 206.7 30.6L206.7 30.6L206.7 28.6L204.5 28.6L204.5 26.9L209.0 26.9ZM210.4 28.6L210.4 28.5Q210.4 27.3 210.9 26.3Q211.4 25.3 212.3 24.8Q213.2 24.2 214.4 24.2L214.4 24.2Q216.1 24.2 217.2 25.3Q218.3 26.3 218.4 28.1L218.4 28.1L218.4 28.7Q218.4 30.6 217.3 31.8Q216.3 33 214.4 33Q212.6 33 211.5 31.8Q210.4 30.7 210.4 28.6L210.4 28.6ZM212.7 28.7L212.7 28.7Q212.7 29.9 213.1 30.5Q213.6 31.2 214.4 31.2L214.4 31.2Q215.2 31.2 215.7 30.6Q216.2 29.9 216.2 28.5L216.2 28.5Q216.2 27.4 215.7 26.7Q215.2 26.1 214.4 26.1L214.4 26.1Q213.6 26.1 213.1 26.7Q212.7 27.4 212.7 28.7Z "/><mask id="satori_om-id-1-1-2"><rect x="228" y="18" width="43" height="19" fill="#fff"/></mask><path fill="#57606a" d="M233.7 21.4L233.7 32.8L232.2 32.8L232.2 23.2L229.3 24.3L229.3 23.0L233.5 21.4L233.7 21.4ZM243.3 21.5L243.6 21.5L243.6 22.7L243.3 22.7Q241.6 22.7 240.6 23.7Q239.6 24.7 239.5 26.4L239.5 26.4Q240.4 25.4 241.9 25.4L241.9 25.4Q243.4 25.4 244.3 26.4Q245.2 27.5 245.2 29.1L245.2 29.1Q245.2 30.9 244.2 31.9Q243.3 33 241.7 33L241.7 33Q240.0 33 239.0 31.7Q238.0 30.5 238.0 28.5L238.0 28.5L238.0 28.0Q238.0 24.8 239.4 23.2Q240.7 21.5 243.3 21.5L243.3 21.5ZM241.7 26.6L241.7 26.6Q241.0 26.6 240.3 27.0Q239.7 27.5 239.5 28.1L239.5 28.1L239.5 28.7Q239.5 30.1 240.1 30.9Q240.7 31.8 241.7 31.8L241.7 31.8Q242.7 31.8 243.2 31.1Q243.8 30.4 243.8 29.2L243.8 29.2Q243.8 28.0 243.2 27.3Q242.6 26.6 241.7 26.6ZM247.1 32.1L247.1 32.1Q247.1 31.7 247.3 31.5Q247.5 31.2 248.0 31.2Q248.4 31.2 248.7 31.5Q248.9 31.7 248.9 32.1L248.9 32.1Q248.9 32.4 248.7 32.7Q248.4 32.9 248.0 32.9Q247.5 32.9 247.3 32.7Q247.1 32.4 247.1 32.1ZM255.9 21.4L255.9 32.8L254.4 32.8L254.4 23.2L251.5 24.3L251.5 23.0L255.6 21.4L255.9 21.4ZM260.0 24.2L260.0 23.7Q260.0 22.6 260.6 22.0Q261.3 21.3 262.3 21.3L262.3 21.3Q263.4 21.3 264.0 22.0Q264.6 22.6 264.6 23.7L264.6 23.7L264.6 24.3Q264.6 25.3 264.0 25.9Q263.3 26.6 262.3 26.6L262.3 26.6Q261.3 26.6 260.6 25.9Q260.0 25.3 260.0 24.2L260.0 24.2ZM261.1 23.7L261.1 24.3Q261.1 24.9 261.4 25.3Q261.8 25.7 262.3 25.7L262.3 25.7Q262.9 25.7 263.2 25.3Q263.6 24.9 263.6 24.2L263.6 24.2L263.6 23.7Q263.6 23.0 263.2 22.6Q262.9 22.3 262.3 22.3Q261.7 22.3 261.4 22.6Q261.1 23.0 261.1 23.7L261.1 23.7ZM265.5 30.6L265.5 30.1Q265.5 29.0 266.2 28.4Q266.8 27.7 267.9 27.7Q268.9 27.7 269.5 28.4Q270.2 29.0 270.2 30.1L270.2 30.1L270.2 30.7Q270.2 31.7 269.5 32.3Q268.9 33.0 267.9 33.0Q266.9 33.0 266.2 32.4Q265.5 31.7 265.5 30.6L265.5 30.6ZM266.6 30.1L266.6 30.7Q266.6 31.3 266.9 31.7Q267.3 32.1 267.9 32.1L267.9 32.1Q268.4 32.1 268.8 31.7Q269.1 31.3 269.1 30.6L269.1 30.6L269.1 30.1Q269.1 29.4 268.8 29.0Q268.4 28.7 267.9 28.7L267.9 28.7Q267.3 28.7 266.9 29.0Q266.6 29.4 266.6 30.1L266.6 30.1ZM268.2 23.1L262.7 32.0L261.8 31.5L267.4 22.6L268.2 23.1Z "/><mask id="satori_om-id-1-2"><rect x="0" y="47" width="132" height="19" fill="#fff"/></mask><mask id="satori_om-id-1-2-0"><rect x="0" y="48" width="16" height="16" fill="#fff"/></mask><mask id="satori_om-id-1-2-0-0"><rect x="4" y="52" width="8" height="8" fill="#fff"/></mask><path x="4" y="52" width="8" height="8" fill="#3572A5" d="M8,52 h0 a4,4 0 0 1 4,4 v0 a4,4 0 0 1 -4,4 h0 a4,4 0 0 1 -4,-4 v0 a4,4 0 0 1 4,-4"/><mask id="satori_om-id-1-2-1"><rect x="29" y="47" width="51" height="19" fill="#fff"/></mask><path fill="#24292f" d="M34.4 57.8L32.4 57.8L32.4 61.8L30.0 61.8L30.0 50.5L34.5 50.5Q35.7 50.5 36.7 50.9Q37.7 51.4 38.2 52.3Q38.7 53.1 38.7 54.2L38.7 54.2Q38.7 55.9 37.6 56.9Q36.4 57.8 34.4 57.8L34.4 57.8ZM32.4 52.4L32.4 55.9L34.5 55.9Q35.4 55.9 35.9 55.5Q36.4 55.1 36.4 54.3L36.4 54.3Q36.4 53.4 35.9 52.9Q35.4 52.4 34.5 52.4L34.5 52.4L32.4 52.4ZM41.9 53.4L43.5 58.6L45.0 53.4L47.4 53.4L44.0 63.2L43.9 63.6Q43.1 65.3 41.4 65.3L41.4 65.3Q40.9 65.3 40.4 65.1L40.4 65.1L40.4 63.4L40.7 63.4Q41.3 63.4 41.7 63.2Q42.0 63.0 42.2 62.6L42.2 62.6L42.4 61.9L39.5 53.4L41.9 53.4ZM48.8 51.3L51.0 51.3L51.0 53.4L52.5 53.4L52.5 55.0L51.0 55.0L51.0 59.3Q51.0 59.7 51.2 59.9Q51.4 60.1 51.9 60.1L51.9 60.1Q52.3 60.1 52.6 60.1L52.6 60.1L52.6 61.8Q51.9 62 51.2 62L51.2 62Q48.8 62 48.8 59.6L48.8 59.6L48.8 55.0L47.5 55.0L47.5 53.4L48.8 53.4L48.8 51.3ZM55.9 49.8L55.9 54.3Q56.8 53.2 58.2 53.2L58.2 53.2Q61.0 53.2 61.0 56.4L61.0 56.4L61.0 61.8L58.7 61.8L58.7 56.5Q58.7 55.8 58.4 55.4Q58.1 55.1 57.4 55.1L57.4 55.1Q56.4 55.1 55.9 55.8L55.9 55.8L55.9 61.8L53.7 61.8L53.7 49.8L55.9 49.8ZM62.3 57.6L62.3 57.5Q62.3 56.3 62.8 55.3Q63.3 54.3 64.2 53.8Q65.1 53.2 66.3 53.2L66.3 53.2Q68.0 53.2 69.1 54.3Q70.2 55.3 70.3 57.1L70.3 57.1L70.4 57.7Q70.4 59.6 69.3 60.8Q68.2 62 66.4 62Q64.5 62 63.4 60.8Q62.3 59.7 62.3 57.6L62.3 57.6ZM64.6 57.7L64.6 57.7Q64.6 58.9 65.1 59.5Q65.5 60.2 66.4 60.2L66.4 60.2Q67.2 60.2 67.6 59.6Q68.1 58.9 68.1 57.5L68.1 57.5Q68.1 56.4 67.6 55.7Q67.2 55.1 66.3 55.1L66.3 55.1Q65.5 55.1 65.1 55.7Q64.6 56.4 64.6 57.7ZM71.7 53.4L73.8 53.4L73.9 54.4Q74.8 53.2 76.3 53.2L76.3 53.2Q77.7 53.2 78.3 54.0Q79.0 54.8 79.0 56.4L79.0 56.4L79.0 61.8L76.7 61.8L76.7 56.4Q76.7 55.7 76.4 55.4Q76.1 55.1 75.4 55.1L75.4 55.1Q74.4 55.1 74.0 55.9L74.0 55.9L74.0 61.8L71.7 61.8L71.7 53.4Z "/><mask id="satori_om-id-1-2-2"><rect x="89" y="47" width="43" height="19" fill="#fff"/></mask><path fill="#57606a" d="M94.7 50.4L94.7 61.8L93.2 61.8L93.2 52.2L90.3 53.3L90.3 52.0L94.5 50.4L94.7 50.4ZM106.4 60.7L106.4 61.8L98.9 61.8L98.9 60.8L102.9 56.4Q103.7 55.4 104.1 54.8Q104.4 54.2 104.4 53.5L104.4 53.5Q104.4 52.6 103.9 52.1Q103.3 51.5 102.4 51.5L102.4 51.5Q101.4 51.5 100.8 52.1Q100.2 52.7 100.2 53.8L100.2 53.8L98.7 53.8Q98.7 52.3 99.7 51.3Q100.7 50.3 102.4 50.3L102.4 50.3Q104.0 50.3 104.9 51.1Q105.9 52.0 105.9 53.4L105.9 53.4Q105.9 55.0 103.7 57.4L103.7 57.4L100.7 60.7L106.4 60.7ZM108.1 61.1L108.1 61.1Q108.1 60.7 108.3 60.5Q108.5 60.2 109.0 60.2Q109.4 60.2 109.7 60.5Q109.9 60.7 109.9 61.1L109.9 61.1Q109.9 61.4 109.7 61.7Q109.4 61.9 109.0 61.9Q108.5 61.9 108.3 61.7Q108.1 61.4 108.1 61.1ZM119.3 55.1L119.3 57.0Q119.3 59.5 118.4 60.8Q117.5 62 115.7 62L115.7 62Q113.9 62 113.0 60.8Q112.1 59.6 112.1 57.2L112.1 57.2L112.1 55.3Q112.1 52.8 112.9 51.5Q113.8 50.3 115.7 50.3L115.7 50.3Q117.5 50.3 118.4 51.5Q119.2 52.7 119.3 55.1L119.3 55.1ZM117.8 57.4L117.8 55.0Q117.8 53.2 117.3 52.3Q116.8 51.5 115.7 51.5L115.7 51.5Q114.6 51.5 114.0 52.3Q113.5 53.2 113.5 54.9L113.5 54.9L113.5 57.2Q113.5 59.1 114.1 59.9Q114.6 60.8 115.7 60.8L115.7 60.8Q116.8 60.8 117.3 60.0Q117.8 59.2 117.8 57.4L117.8 57.4ZM121.0 53.2L121.0 52.7Q121.0 51.6 121.6 51.0Q122.3 50.3 123.3 50.3L123.3 50.3Q124.4 50.3 125.0 51.0Q125.6 51.6 125.6 52.7L125.6 52.7L125.6 53.3Q125.6 54.3 125.0 54.9Q124.3 55.6 123.3 55.6L123.3 55.6Q122.3 55.6 121.6 54.9Q121.0 54.3 121.0 53.2L121.0 53.2ZM122.1 52.7L122.1 53.3Q122.1 53.9 122.4 54.3Q122.8 54.7 123.3 54.7L123.3 54.7Q123.9 54.7 124.2 54.3Q124.6 53.9 124.6 53.2L124.6 53.2L124.6 52.7Q124.6 52.0 124.2 51.6Q123.9 51.3 123.3 51.3Q122.7 51.3 122.4 51.6Q122.1 52.0 122.1 52.7L122.1 52.7ZM126.5 59.6L126.5 59.1Q126.5 58.0 127.2 57.4Q127.8 56.7 128.9 56.7Q129.9 56.7 130.5 57.4Q131.2 58.0 131.2 59.1L131.2 59.1L131.2 59.7Q131.2 60.7 130.5 61.3Q129.9 62.0 128.9 62.0Q127.9 62.0 127.2 61.4Q126.5 60.7 126.5 59.6L126.5 59.6ZM127.6 59.1L127.6 59.7Q127.6 60.3 127.9 60.7Q128.3 61.1 128.9 61.1L128.9 61.1Q129.4 61.1 129.8 60.7Q130.1 60.3 130.1 59.6L130.1 59.6L130.1 59.1Q130.1 58.4 129.8 58.0Q129.4 57.7 128.9 57.7L128.9 57.7Q128.3 57.7 127.9 58.0Q127.6 58.4 127.6 59.1L127.6 59.1ZM129.2 52.1L123.7 61.0L122.8 60.5L128.4 51.6L129.2 52.1Z "/><mask id="satori_om-id-1-3"><rect x="142" y="47" width="103" height="19" fill="#fff"/></mask><mask id="satori_om-id-1-3-0"><rect x="142" y="48" width="16" height="16" fill="#fff"/></mask><mask id="satori_om-id-1-3-0-0"><rect x="146" y="52" width="8" height="8" fill="#fff"/></mask><path x="146" y="52" width="8" height="8" fill="#844FBA" d="M150,52 h0 a4,4 0 0 1 4,4 v0 a4,4 0 0 1 -4,4 h0 a4,4 0 0 1 -4,-4 v0 a4,4 0 0 1 4,-4"/><mask id="satori_om-id-1-3-1"><rect x="171" y="47" width="31" height="19" fill="#fff"/></mask><path fill="#24292f" d="M181.3 50.5L181.3 61.8L178.9 61.8L178.9 57.0L174.4 57.0L174.4 61.8L172.0 61.8L172.0 50.5L174.4 50.5L174.4 55.1L178.9 55.1L178.9 50.5L181.3 50.5ZM189.9 58.1L192.3 58.1Q192.1 59.9 190.9 60.9Q189.7 62 187.7 62L187.7 62Q185.5 62 184.2 60.5Q183.0 59.1 183.0 56.5L183.0 56.5L183.0 55.8Q183.0 54.1 183.6 52.9Q184.1 51.6 185.2 51.0Q186.3 50.3 187.7 50.3L187.7 50.3Q189.7 50.3 190.9 51.4Q192.1 52.4 192.3 54.3L192.3 54.3L189.9 54.3Q189.8 53.2 189.3 52.7Q188.8 52.2 187.7 52.2L187.7 52.2Q186.5 52.2 185.9 53.1Q185.4 53.9 185.4 55.7L185.4 55.7L185.4 56.5Q185.4 58.4 185.9 59.2Q186.5 60.1 187.7 60.1L187.7 60.1Q188.8 60.1 189.3 59.6Q189.8 59.1 189.9 58.1L189.9 58.1ZM196.1 50.5L196.1 60.0L201.1 60.0L201.1 61.8L193.8 61.8L193.8 50.5L196.1 50.5Z "/><mask id="satori_om-id-1-3-2"><rect x="211" y="47" width="34" height="19" fill="#fff"/></mask><path fill="#57606a" d="M218.8 53.4L218.8 53.4Q218.8 54.3 218.4 55.0Q217.9 55.6 217.2 56.0L217.2 56.0Q218.1 56.4 218.6 57.1Q219.1 57.8 219.1 58.8L219.1 58.8Q219.1 60.3 218.1 61.1Q217.1 62 215.5 62L215.5 62Q213.9 62 212.9 61.1Q211.9 60.2 211.9 58.8L211.9 58.8Q211.9 57.9 212.4 57.1Q212.9 56.4 213.8 56.0L213.8 56.0Q213.0 55.6 212.6 54.9Q212.1 54.3 212.1 53.4L212.1 53.4Q212.1 52 213.1 51.2Q214.0 50.3 215.5 50.3L215.5 50.3Q217.0 50.3 217.9 51.2Q218.8 52 218.8 53.4ZM217.7 58.7L217.7 58.7Q217.7 57.8 217.1 57.2Q216.5 56.6 215.5 56.6Q214.5 56.6 213.9 57.2Q213.3 57.8 213.3 58.7Q213.3 59.7 213.9 60.3Q214.5 60.8 215.5 60.8L215.5 60.8Q216.5 60.8 217.1 60.3Q217.7 59.7 217.7 58.7ZM215.5 51.5L215.5 51.5Q214.6 51.5 214.1 52.0Q213.6 52.6 213.6 53.5L213.6 53.5Q213.6 54.3 214.1 54.9Q214.6 55.4 215.5 55.4Q216.4 55.4 216.9 54.9Q217.4 54.3 217.4 53.5Q217.4 52.6 216.9 52.0Q216.3 51.5 215.5 51.5ZM221.1 61.1L221.1 61.1Q221.1 60.7 221.3 60.5Q221.6 60.2 222 60.2Q222.4 60.2 222.7 60.5Q222.9 60.7 222.9 61.1L222.9 61.1Q222.9 61.4 222.7 61.7Q222.4 61.9 222 61.9Q221.6 61.9 221.3 61.7Q221.1 61.4 221.1 61.1ZM227.2 56.6L227.2 55.5L228.3 55.5Q229.4 55.4 229.9 54.9Q230.5 54.4 230.5 53.5L230.5 53.5Q230.5 51.5 228.5 51.5L228.5 51.5Q227.6 51.5 227.0 52.0Q226.5 52.6 226.5 53.5L226.5 53.5L225.0 53.5Q225.0 52.1 226.0 51.2Q227.0 50.3 228.5 50.3L228.5 50.3Q230.1 50.3 231.1 51.2Q232.0 52.0 232.0 53.5L232.0 53.5Q232.0 54.3 231.5 55.0Q231.0 55.7 230.2 56.0L230.2 56.0Q231.1 56.3 231.6 57.0Q232.1 57.7 232.1 58.7L232.1 58.7Q232.1 60.2 231.1 61.1Q230.1 62 228.5 62Q226.9 62 225.9 61.1Q224.9 60.3 224.9 58.8L224.9 58.8L226.4 58.8Q226.4 59.7 227.0 60.3Q227.6 60.8 228.5 60.8L228.5 60.8Q229.6 60.8 230.1 60.3Q230.7 59.7 230.7 58.7L230.7 58.7Q230.7 57.7 230.1 57.2Q229.5 56.6 228.3 56.6L228.3 56.6L227.2 56.6ZM234 53.2L234 52.7Q234 51.6 234.7 51.0Q235.3 50.3 236.3 50.3L236.3 50.3Q237.4 50.3 238.0 51.0Q238.7 51.6 238.7 52.7L238.7 52.7L238.7 53.3Q238.7 54.3 238.0 54.9Q237.4 55.6 236.3 55.6L236.3 55.6Q235.3 55.6 234.7 54.9Q234 54.3 234 53.2L234 53.2ZM235.1 52.7L235.1 53.3Q235.1 53.9 235.4 54.3Q235.8 54.7 236.3 54.7L236.3 54.7Q236.9 54.7 237.2 54.3Q237.6 53.9 237.6 53.2L237.6 53.2L237.6 52.7Q237.6 52.0 237.2 51.6Q236.9 51.3 236.3 51.3Q235.8 51.3 235.4 51.6Q235.1 52.0 235.1 52.7L235.1 52.7ZM239.5 59.6L239.5 59.1Q239.5 58.0 240.2 57.4Q240.8 56.7 241.9 56.7Q242.9 56.7 243.5 57.4Q244.2 58.0 244.2 59.1L244.2 59.1L244.2 59.7Q244.2 60.7 243.6 61.3Q242.9 62.0 241.9 62.0Q240.9 62.0 240.2 61.4Q239.5 60.7 239.5 59.6L239.5 59.6ZM240.6 59.1L240.6 59.7Q240.6 60.3 241.0 60.7Q241.3 61.1 241.9 61.1L241.9 61.1Q242.4 61.1 242.8 60.7Q243.1 60.3 243.1 59.6L243.1 59.6L243.1 59.1Q243.1 58.4 242.8 58.0Q242.4 57.7 241.9 57.7L241.9 57.7Q241.3 57.7 241.0 58.0Q240.6 58.4 240.6 59.1L240.6 59.1ZM242.2 52.1L236.7 61.0L235.9 60.5L241.4 51.6L242.2 52.1Z "/><mask id="satori_om-id-1-4"><rect x="255" y="47" width="115" height="19" fill="#fff"/></mask><mask id="satori_om-id-1-4-0"><rect x="255" y="48" width="16" height="16" fill="#fff"/></mask><mask id="satori_om-id-1-4-0-0"><rect x="259" y="52" width="8" height="8" fill="#fff"/></mask><path x="259" y="52" width="8" height="8" fill="#A97BFF" d="M263,52 h0 a4,4 0 0 1 4,4 v0 a4,4 0 0 1 -4,4 h0 a4,4 0 0 1 -4,-4 v0 a4,4 0 0 1 4,-4"/><mask id="satori_om-id-1-4-1"><rect x="284" y="47" width="43" height="19" fill="#fff"/></mask><path fill="#24292f" d="M291.5 61.8L288.6 57.3L287.4 58.6L287.4 61.8L285.0 61.8L285.0 50.5L287.4 50.5L287.4 55.6L288.4 54.2L291.3 50.5L294.2 50.5L290.1 55.5L294.3 61.8L291.5 61.8ZM294.5 57.6L294.5 57.5Q294.5 56.3 294.9 55.3Q295.4 54.3 296.3 53.8Q297.3 53.2 298.5 53.2L298.5 53.2Q300.2 53.2 301.2 54.3Q302.3 55.3 302.5 57.1L302.5 57.1L302.5 57.7Q302.5 59.6 301.4 60.8Q300.3 62 298.5 62Q296.6 62 295.6 60.8Q294.5 59.7 294.5 57.6L294.5 57.6ZM296.7 57.7L296.7 57.7Q296.7 58.9 297.2 59.5Q297.6 60.2 298.5 60.2L298.5 60.2Q299.3 60.2 299.8 59.6Q300.2 58.9 300.2 57.5L300.2 57.5Q300.2 56.4 299.8 55.7Q299.3 55.1 298.5 55.1L298.5 55.1Q297.6 55.1 297.2 55.7Q296.7 56.4 296.7 57.7ZM304.3 51.3L306.6 51.3L306.6 53.4L308.0 53.4L308.0 55.0L306.6 55.0L306.6 59.3Q306.6 59.7 306.7 59.9Q306.9 60.1 307.4 60.1L307.4 60.1Q307.8 60.1 308.1 60.1L308.1 60.1L308.1 61.8Q307.4 62 306.7 62L306.7 62Q304.4 62 304.3 59.6L304.3 59.6L304.3 55.0L303.1 55.0L303.1 53.4L304.3 53.4L304.3 51.3ZM311.6 49.8L311.6 61.8L309.4 61.8L309.4 49.8L311.6 49.8ZM315.9 53.4L315.9 61.8L313.6 61.8L313.6 53.4L315.9 53.4ZM313.5 51.2L313.5 51.2Q313.5 50.7 313.8 50.4Q314.2 50.0 314.8 50.0L314.8 50.0Q315.3 50.0 315.7 50.4Q316.0 50.7 316.0 51.2L316.0 51.2Q316.0 51.7 315.7 52.0Q315.3 52.4 314.8 52.4Q314.2 52.4 313.8 52.0Q313.5 51.7 313.5 51.2ZM317.7 53.4L319.8 53.4L319.9 54.4Q320.8 53.2 322.3 53.2L322.3 53.2Q323.7 53.2 324.3 54.0Q325.0 54.8 325 56.4L325 56.4L325 61.8L322.7 61.8L322.7 56.4Q322.7 55.7 322.4 55.4Q322.1 55.1 321.4 55.1L321.4 55.1Q320.4 55.1 320.0 55.9L320.0 55.9L320.0 61.8L317.7 61.8L317.7 53.4Z "/><mask id="satori_om-id-1-4-2"><rect x="336" y="47" width="34" height="19" fill="#fff"/></mask><path fill="#57606a" d="M338.8 56.4L337.6 56.1L338.2 50.5L344.0 50.5L344.0 51.8L339.4 51.8L339.1 54.9Q339.9 54.4 341.0 54.4L341.0 54.4Q342.5 54.4 343.4 55.4Q344.4 56.5 344.4 58.2L344.4 58.2Q344.4 60.0 343.4 61.0Q342.5 62 340.8 62L340.8 62Q339.2 62 338.3 61.2Q337.3 60.3 337.2 58.9L337.2 58.9L338.6 58.9Q338.7 59.8 339.3 60.3Q339.8 60.8 340.8 60.8L340.8 60.8Q341.8 60.8 342.3 60.1Q342.9 59.4 342.9 58.2L342.9 58.2Q342.9 57.1 342.3 56.4Q341.7 55.7 340.6 55.7L340.6 55.7Q339.7 55.7 339.1 56.1L339.1 56.1L338.8 56.4ZM346.1 61.1L346.1 61.1Q346.1 60.7 346.3 60.5Q346.6 60.2 347 60.2Q347.4 60.2 347.7 60.5Q347.9 60.7 347.9 61.1L347.9 61.1Q347.9 61.4 347.7 61.7Q347.4 61.9 347 61.9Q346.6 61.9 346.3 61.7Q346.1 61.4 346.1 61.1ZM357.3 55.1L357.3 57.0Q357.3 59.5 356.4 60.8Q355.5 62 353.7 62L353.7 62Q351.9 62 351 60.8Q350.1 59.6 350.1 57.2L350.1 57.2L350.1 55.3Q350.1 52.8 351.0 51.5Q351.8 50.3 353.7 50.3L353.7 50.3Q355.5 50.3 356.4 51.5Q357.3 52.7 357.3 55.1L357.3 55.1ZM355.8 57.4L355.8 55.0Q355.8 53.2 355.3 52.3Q354.8 51.5 353.7 51.5L353.7 51.5Q352.6 51.5 352.1 52.3Q351.6 53.2 351.5 54.9L351.5 54.9L351.5 57.2Q351.5 59.1 352.1 59.9Q352.6 60.8 353.7 60.8L353.7 60.8Q354.8 60.8 355.3 60.0Q355.8 59.2 355.8 57.4L355.8 57.4ZM359 53.2L359 52.7Q359 51.6 359.7 51.0Q360.3 50.3 361.3 50.3L361.3 50.3Q362.4 50.3 363.0 51.0Q363.7 51.6 363.7 52.7L363.7 52.7L363.7 53.3Q363.7 54.3 363.0 54.9Q362.4 55.6 361.3 55.6L361.3 55.6Q360.3 55.6 359.7 54.9Q359 54.3 359 53.2L359 53.2ZM360.1 52.7L360.1 53.3Q360.1 53.9 360.4 54.3Q360.8 54.7 361.3 54.7L361.3 54.7Q361.9 54.7 362.2 54.3Q362.6 53.9 362.6 53.2L362.6 53.2L362.6 52.7Q362.6 52.0 362.2 51.6Q361.9 51.3 361.3 51.3Q360.8 51.3 360.4 51.6Q360.1 52.0 360.1 52.7L360.1 52.7ZM364.5 59.6L364.5 59.1Q364.5 58.0 365.2 57.4Q365.8 56.7 366.9 56.7Q367.9 56.7 368.5 57.4Q369.2 58.0 369.2 59.1L369.2 59.1L369.2 59.7Q369.2 60.7 368.6 61.3Q367.9 62.0 366.9 62.0Q365.9 62.0 365.2 61.4Q364.5 60.7 364.5 59.6L364.5 59.6ZM365.6 59.1L365.6 59.7Q365.6 60.3 366.0 60.7Q366.3 61.1 366.9 61.1L366.9 61.1Q367.4 61.1 367.8 60.7Q368.1 60.3 368.1 59.6L368.1 59.6L368.1 59.1Q368.1 58.4 367.8 58.0Q367.4 57.7 366.9 57.7L366.9 57.7Q366.3 57.7 366.0 58.0Q365.6 58.4 365.6 59.1L365.6 59.1ZM367.2 52.1L361.7 61.0L360.9 60.5L366.4 51.6L367.2 52.1Z "/><mask id="satori_om-id-1-5"><rect x="0" y="76" width="117" height="18" fill="#fff"/></mask><mask id="satori_om-id-1-5-0"><rect x="0" y="77" width="16" height="16" fill="#fff"/></mask><mask id="satori_om-id-1-5-0-0"><rect x="4" y="81" width="8" height="8" fill="#fff"/></mask><path x="4" y="81" width="8" height="8" fill="#ff3e00" d="M8,81 h0 a4,4 0 0 1 4,4 v0 a4,4 0 0 1 -4,4 h0 a4,4 0 0 1 -4,-4 v0 a4,4 0 0 1 4,-4"/><mask id="satori_om-id-1-5-1"><rect x="29" y="76" width="45" height="18" fill="#fff"/></mask><path fill="#24292f" d="M35.9 87.9L35.9 87.9Q35.9 87.2 35.4 86.8Q35.0 86.5 33.8 86.1Q32.5 85.7 31.8 85.3L31.8 85.3Q29.9 84.3 29.9 82.5L29.9 82.5Q29.9 81.6 30.4 80.8Q30.9 80.1 31.9 79.7Q32.9 79.3 34.1 79.3L34.1 79.3Q35.3 79.3 36.3 79.8Q37.2 80.2 37.7 81Q38.3 81.8 38.3 82.8L38.3 82.8L35.9 82.8Q35.9 82.0 35.4 81.6Q34.9 81.2 34.0 81.2L34.0 81.2Q33.2 81.2 32.7 81.5Q32.2 81.9 32.2 82.5L32.2 82.5Q32.2 83.1 32.8 83.4Q33.4 83.8 34.4 84.1L34.4 84.1Q36.4 84.7 37.4 85.6Q38.3 86.5 38.3 87.8L38.3 87.8Q38.3 89.3 37.1 90.2Q36.0 91 34.1 91L34.1 91Q32.8 91 31.8 90.5Q30.7 90.0 30.1 89.2Q29.5 88.4 29.5 87.3L29.5 87.3L31.9 87.3Q31.9 89.1 34.1 89.1L34.1 89.1Q35.0 89.1 35.4 88.8Q35.9 88.5 35.9 87.9ZM41.3 82.4L42.9 88.1L44.4 82.4L46.8 82.4L43.9 90.8L41.8 90.8L38.9 82.4L41.3 82.4ZM51.6 91L51.6 91Q49.7 91 48.6 89.9Q47.4 88.7 47.4 86.8L47.4 86.8L47.4 86.6Q47.4 85.3 47.9 84.3Q48.4 83.3 49.3 82.8Q50.2 82.2 51.3 82.2L51.3 82.2Q53.1 82.2 54.1 83.3Q55.1 84.4 55.1 86.4L55.1 86.4L55.1 87.4L49.7 87.4Q49.8 88.2 50.3 88.7Q50.9 89.2 51.7 89.2L51.7 89.2Q53.0 89.2 53.8 88.2L53.8 88.2L54.9 89.5Q54.4 90.2 53.5 90.6Q52.6 91 51.6 91ZM51.3 84.1L51.3 84.1Q50.6 84.1 50.2 84.5Q49.8 85.0 49.7 85.8L49.7 85.8L52.8 85.8L52.8 85.6Q52.8 84.9 52.4 84.5Q52.0 84.1 51.3 84.1ZM58.7 78.8L58.7 90.8L56.5 90.8L56.5 78.8L58.7 78.8ZM61.0 80.3L63.3 80.3L63.3 82.4L64.7 82.4L64.7 84.0L63.3 84.0L63.3 88.3Q63.3 88.7 63.5 88.9Q63.6 89.1 64.1 89.1L64.1 89.1Q64.5 89.1 64.8 89.1L64.8 89.1L64.8 90.8Q64.1 91 63.4 91L63.4 91Q61.1 91 61.0 88.6L61.0 88.6L61.0 84.0L59.8 84.0L59.8 82.4L61.0 82.4L61.0 80.3ZM69.9 91L69.9 91Q68.0 91 66.8 89.9Q65.7 88.7 65.7 86.8L65.7 86.8L65.7 86.6Q65.7 85.3 66.2 84.3Q66.7 83.3 67.6 82.8Q68.5 82.2 69.6 82.2L69.6 82.2Q71.4 82.2 72.4 83.3Q73.4 84.4 73.4 86.4L73.4 86.4L73.4 87.4L68.0 87.4Q68.1 88.2 68.6 88.7Q69.2 89.2 70.0 89.2L70.0 89.2Q71.3 89.2 72.1 88.2L72.1 88.2L73.2 89.5Q72.7 90.2 71.8 90.6Q70.9 91 69.9 91ZM69.6 84.1L69.6 84.1Q68.9 84.1 68.5 84.5Q68.1 85.0 68.0 85.8L68.0 85.8L71.1 85.8L71.1 85.6Q71.1 84.9 70.7 84.5Q70.3 84.1 69.6 84.1Z "/><mask id="satori_om-id-1-5-2"><rect x="83" y="76" width="34" height="18" fill="#fff"/></mask><path fill="#57606a" d="M90.0 79.5L90.0 87.0L91.6 87.0L91.6 88.2L90.0 88.2L90.0 90.8L88.6 90.8L88.6 88.2L83.4 88.2L83.4 87.4L88.5 79.5L90.0 79.5ZM88.4 81.8L85.1 87.0L88.6 87.0L88.6 81.4L88.4 81.8ZM93.1 90.1L93.1 90.1Q93.1 89.7 93.3 89.5Q93.6 89.2 94 89.2Q94.4 89.2 94.7 89.5Q94.9 89.7 94.9 90.1L94.9 90.1Q94.9 90.4 94.7 90.7Q94.4 90.9 94 90.9Q93.6 90.9 93.3 90.7Q93.1 90.4 93.1 90.1ZM102.7 85.8L102.7 85.8Q102.2 86.4 101.6 86.7Q101.0 87.0 100.2 87.0L100.2 87.0Q99.2 87.0 98.5 86.6Q97.8 86.1 97.4 85.2Q97.0 84.3 97.0 83.3L97.0 83.3Q97.0 82.1 97.4 81.2Q97.8 80.3 98.6 79.8Q99.4 79.3 100.5 79.3L100.5 79.3Q102.2 79.3 103.2 80.6Q104.1 81.8 104.1 84.0L104.1 84.0L104.1 84.4Q104.1 87.8 102.8 89.3Q101.5 90.8 98.9 90.9L98.9 90.9L98.6 90.9L98.6 89.6L98.9 89.6Q100.7 89.6 101.6 88.7Q102.6 87.8 102.7 85.8ZM100.5 85.8L100.5 85.8Q101.2 85.8 101.8 85.4Q102.4 85.0 102.7 84.3L102.7 84.3L102.7 83.7Q102.7 82.3 102.1 81.4Q101.5 80.5 100.5 80.5L100.5 80.5Q99.6 80.5 99.0 81.2Q98.4 82.0 98.4 83.2L98.4 83.2Q98.4 84.3 99.0 85.1Q99.5 85.8 100.5 85.8ZM106 82.2L106 81.7Q106 80.6 106.7 80.0Q107.3 79.3 108.3 79.3L108.3 79.3Q109.4 79.3 110.0 80.0Q110.7 80.6 110.7 81.7L110.7 81.7L110.7 82.3Q110.7 83.3 110.0 83.9Q109.4 84.6 108.3 84.6L108.3 84.6Q107.3 84.6 106.7 83.9Q106 83.3 106 82.2L106 82.2ZM107.1 81.7L107.1 82.3Q107.1 82.9 107.4 83.3Q107.8 83.7 108.3 83.7L108.3 83.7Q108.9 83.7 109.2 83.3Q109.6 82.9 109.6 82.2L109.6 82.2L109.6 81.7Q109.6 81.0 109.2 80.6Q108.9 80.3 108.3 80.3Q107.8 80.3 107.4 80.6Q107.1 81.0 107.1 81.7L107.1 81.7ZM111.5 88.6L111.5 88.1Q111.5 87.0 112.2 86.4Q112.8 85.7 113.9 85.7Q114.9 85.7 115.5 86.4Q116.2 87.0 116.2 88.1L116.2 88.1L116.2 88.7Q116.2 89.7 115.6 90.3Q114.9 91.0 113.9 91.0Q112.9 91.0 112.2 90.4Q111.5 89.7 111.5 88.6L111.5 88.6ZM112.6 88.1L112.6 88.7Q112.6 89.3 113.0 89.7Q113.3 90.1 113.9 90.1L113.9 90.1Q114.4 90.1 114.8 89.7Q115.1 89.3 115.1 88.6L115.1 88.6L115.1 88.1Q115.1 87.4 114.8 87.0Q114.4 86.7 113.9 86.7L113.9 86.7Q113.3 86.7 113.0 87.0Q112.6 87.4 112.6 88.1L112.6 88.1ZM114.2 81.1L108.7 90.0L107.9 89.5L113.4 80.6L114.2 81.1Z "/><mask id="satori_om-id-1-6"><rect x="127" y="76" width="83" height="18" fill="#fff"/></mask><mask id="satori_om-id-1-6-0"><rect x="127" y="77" width="16" height="16" fill="#fff"/></mask><mask id="satori_om-id-1-6-0-0"><rect x="131" y="81" width="8" height="8" fill="#fff"/></mask><path x="131" y="81" width="8" height="8" fill="#555555" d="M135,81 h0 a4,4 0 0 1 4,4 v0 a4,4 0 0 1 -4,4 h0 a4,4 0 0 1 -4,-4 v0 a4,4 0 0 1 4,-4"/><mask id="satori_om-id-1-6-1"><rect x="156" y="76" width="11" height="18" fill="#fff"/></mask><path fill="#24292f" d="M163.6 87.1L165.9 87.1Q165.8 88.9 164.6 89.9Q163.4 91 161.4 91L161.4 91Q159.2 91 157.9 89.5Q156.7 88.1 156.7 85.5L156.7 85.5L156.7 84.8Q156.7 83.1 157.3 81.9Q157.8 80.6 158.9 80.0Q160.0 79.3 161.4 79.3L161.4 79.3Q163.4 79.3 164.6 80.4Q165.8 81.4 166.0 83.3L166.0 83.3L163.6 83.3Q163.5 82.2 163.0 81.7Q162.5 81.2 161.4 81.2L161.4 81.2Q160.2 81.2 159.6 82.1Q159.1 82.9 159.0 84.7L159.0 84.7L159.0 85.5Q159.0 87.4 159.6 88.2Q160.2 89.1 161.4 89.1L161.4 89.1Q162.5 89.1 163.0 88.6Q163.5 88.1 163.6 87.1L163.6 87.1Z "/><mask id="satori_om-id-1-6-2"><rect x="176" y="76" width="34" height="18" fill="#fff"/></mask><path fill="#57606a" d="M179.0 85.6L179.0 84.5L180.1 84.5Q181.2 84.4 181.7 83.9Q182.3 83.4 182.3 82.5L182.3 82.5Q182.3 80.5 180.3 80.5L180.3 80.5Q179.4 80.5 178.8 81.0Q178.3 81.6 178.3 82.5L178.3 82.5L176.8 82.5Q176.8 81.1 177.8 80.2Q178.8 79.3 180.3 79.3L180.3 79.3Q181.9 79.3 182.9 80.2Q183.8 81.0 183.8 82.5L183.8 82.5Q183.8 83.3 183.3 84.0Q182.8 84.7 182.0 85.0L182.0 85.0Q182.9 85.3 183.4 86.0Q183.9 86.7 183.9 87.7L183.9 87.7Q183.9 89.2 182.9 90.1Q181.9 91 180.3 91Q178.7 91 177.7 90.1Q176.7 89.3 176.7 87.8L176.7 87.8L178.2 87.8Q178.2 88.7 178.8 89.3Q179.4 89.8 180.3 89.8L180.3 89.8Q181.4 89.8 181.9 89.3Q182.5 88.7 182.5 87.7L182.5 87.7Q182.5 86.7 181.9 86.2Q181.3 85.6 180.1 85.6L180.1 85.6L179.0 85.6ZM186.1 90.1L186.1 90.1Q186.1 89.7 186.3 89.5Q186.6 89.2 187 89.2Q187.4 89.2 187.7 89.5Q187.9 89.7 187.9 90.1L187.9 90.1Q187.9 90.4 187.7 90.7Q187.4 90.9 187 90.9Q186.6 90.9 186.3 90.7Q186.1 90.4 186.1 90.1ZM194.9 79.4L194.9 90.8L193.4 90.8L193.4 81.2L190.5 82.3L190.5 81.0L194.7 79.4L194.9 79.4ZM199 82.2L199 81.7Q199 80.6 199.7 80.0Q200.3 79.3 201.3 79.3L201.3 79.3Q202.4 79.3 203.0 80.0Q203.7 80.6 203.7 81.7L203.7 81.7L203.7 82.3Q203.7 83.3 203.0 83.9Q202.4 84.6 201.3 84.6L201.3 84.6Q200.3 84.6 199.7 83.9Q199 83.3 199 82.2L199 82.2ZM200.1 81.7L200.1 82.3Q200.1 82.9 200.4 83.3Q200.8 83.7 201.3 83.7L201.3 83.7Q201.9 83.7 202.2 83.3Q202.6 82.9 202.6 82.2L202.6 82.2L202.6 81.7Q202.6 81.0 202.2 80.6Q201.9 80.3 201.3 80.3Q200.8 80.3 200.4 80.6Q200.1 81.0 200.1 81.7L200.1 81.7ZM204.5 88.6L204.5 88.1Q204.5 87.0 205.2 86.4Q205.8 85.7 206.9 85.7Q207.9 85.7 208.5 86.4Q209.2 87.0 209.2 88.1L209.2 88.1L209.2 88.7Q209.2 89.7 208.6 90.3Q207.9 91.0 206.9 91.0Q205.9 91.0 205.2 90.4Q204.5 89.7 204.5 88.6L204.5 88.6ZM205.6 88.1L205.6 88.7Q205.6 89.3 206.0 89.7Q206.3 90.1 206.9 90.1L206.9 90.1Q207.4 90.1 207.8 89.7Q208.1 89.3 208.1 88.6L208.1 88.6L208.1 88.1Q208.1 87.4 207.8 87.0Q207.4 86.7 206.9 86.7L206.9 86.7Q206.3 86.7 206.0 87.0Q205.6 87.4 205.6 88.1L205.6 88.1ZM207.2 81.1L201.7 90.0L200.9 89.5L206.4 80.6L207.2 81.1Z "/><mask id="satori_om-id-1-7"><rect x="220" y="76" width="149" height="18" fill="#fff"/></mask><mask id="satori_om-id-1-7-0"><rect x="220" y="77" width="16" height="16" fill="#fff"/></mask><mask id="satori_om-id-1-7-0-0"><rect x="224" y="81" width="8" height="8" fill="#fff"/></mask><path x="224" y="81" width="8" height="8" fill="#f1e05a" d="M228,81 h0 a4,4 0 0 1 4,4 v0 a4,4 0 0 1 -4,4 h0 a4,4 0 0 1 -4,-4 v0 a4,4 0 0 1 4,-4"/><mask id="satori_om-id-1-7-1"><rect x="249" y="76" width="77" height="18" fill="#fff"/></mask><path fill="#24292f" d="M254.6 87.3L254.6 79.5L256.9 79.5L256.9 87.3Q256.9 88.4 256.5 89.3Q256.0 90.1 255.1 90.5Q254.2 91 253.1 91L253.1 91Q251.3 91 250.3 90.1Q249.3 89.2 249.3 87.5L249.3 87.5L251.7 87.5Q251.7 88.3 252.0 88.7Q252.4 89.1 253.1 89.1L253.1 89.1Q253.8 89.1 254.2 88.7Q254.6 88.2 254.6 87.3L254.6 87.3ZM266.0 90.8L263.7 90.8Q263.5 90.5 263.5 90.1L263.5 90.1Q262.7 91 261.3 91L261.3 91Q260.1 91 259.3 90.3Q258.5 89.6 258.5 88.5L258.5 88.5Q258.5 87.1 259.5 86.4Q260.5 85.7 262.3 85.7L262.3 85.7L263.4 85.7L263.4 85.2Q263.4 84.6 263.1 84.3Q262.8 83.9 262.1 83.9L262.1 83.9Q261.6 83.9 261.2 84.2Q260.9 84.5 260.9 84.9L260.9 84.9L258.7 84.9Q258.7 84.2 259.1 83.6Q259.6 82.9 260.4 82.6Q261.2 82.2 262.3 82.2L262.3 82.2Q263.8 82.2 264.7 83.0Q265.6 83.8 265.6 85.2L265.6 85.2L265.6 88.9Q265.7 90.1 266.0 90.7L266.0 90.7L266.0 90.8ZM261.8 89.3L261.8 89.3Q262.3 89.3 262.8 89.1Q263.2 88.8 263.4 88.5L263.4 88.5L263.4 87L262.5 87Q260.8 87 260.7 88.2L260.7 88.2L260.7 88.3Q260.7 88.7 261.0 89Q261.3 89.3 261.8 89.3ZM268.9 82.4L270.4 88.1L272 82.4L274.4 82.4L271.5 90.8L269.4 90.8L266.5 82.4L268.9 82.4ZM282.4 90.8L280.1 90.8Q280.0 90.5 279.9 90.1L279.9 90.1Q279.1 91 277.8 91L277.8 91Q276.5 91 275.7 90.3Q274.9 89.6 274.9 88.5L274.9 88.5Q274.9 87.1 275.9 86.4Q276.9 85.7 278.8 85.7L278.8 85.7L279.8 85.7L279.8 85.2Q279.8 84.6 279.5 84.3Q279.2 83.9 278.6 83.9L278.6 83.9Q278.0 83.9 277.7 84.2Q277.3 84.5 277.3 84.9L277.3 84.9L275.1 84.9Q275.1 84.2 275.5 83.6Q276.0 82.9 276.8 82.6Q277.6 82.2 278.7 82.2L278.7 82.2Q280.2 82.2 281.2 83.0Q282.1 83.8 282.1 85.2L282.1 85.2L282.1 88.9Q282.1 90.1 282.4 90.7L282.4 90.7L282.4 90.8ZM278.3 89.3L278.3 89.3Q278.8 89.3 279.2 89.1Q279.6 88.8 279.8 88.5L279.8 88.5L279.8 87L279.0 87Q277.3 87 277.2 88.2L277.2 88.2L277.2 88.3Q277.2 88.7 277.5 89Q277.8 89.3 278.3 89.3ZM289.9 87.9L289.9 87.9Q289.9 87.2 289.4 86.8Q288.9 86.5 287.7 86.1Q286.5 85.7 285.8 85.3L285.8 85.3Q283.8 84.3 283.8 82.5L283.8 82.5Q283.8 81.6 284.4 80.8Q284.9 80.1 285.8 79.7Q286.8 79.3 288.0 79.3L288.0 79.3Q289.3 79.3 290.2 79.8Q291.2 80.2 291.7 81Q292.2 81.8 292.2 82.8L292.2 82.8L289.9 82.8Q289.9 82.0 289.4 81.6Q288.9 81.2 288.0 81.2L288.0 81.2Q287.1 81.2 286.7 81.5Q286.2 81.9 286.2 82.5L286.2 82.5Q286.2 83.1 286.7 83.4Q287.3 83.8 288.4 84.1L288.4 84.1Q290.4 84.7 291.3 85.6Q292.2 86.5 292.2 87.8L292.2 87.8Q292.2 89.3 291.1 90.2Q290.0 91 288.1 91L288.1 91Q286.8 91 285.7 90.5Q284.6 90.0 284.1 89.2Q283.5 88.4 283.5 87.3L283.5 87.3L285.8 87.3Q285.8 89.1 288.1 89.1L288.1 89.1Q288.9 89.1 289.4 88.8Q289.9 88.5 289.9 87.9ZM297.2 89.2L297.2 89.2Q297.8 89.2 298.2 88.8Q298.6 88.5 298.6 87.9L298.6 87.9L300.7 87.9Q300.7 88.8 300.2 89.5Q299.8 90.2 299.0 90.6Q298.2 91 297.2 91L297.2 91Q295.4 91 294.3 89.8Q293.3 88.7 293.3 86.7L293.3 86.7L293.3 86.5Q293.3 84.6 294.3 83.4Q295.4 82.2 297.2 82.2L297.2 82.2Q298.8 82.2 299.7 83.1Q300.7 84.0 300.7 85.5L300.7 85.5L298.6 85.5Q298.6 84.9 298.2 84.5Q297.8 84.1 297.1 84.1L297.1 84.1Q296.4 84.1 296.0 84.6Q295.6 85.2 295.6 86.5L295.6 86.5L295.6 86.7Q295.6 88.0 296.0 88.6Q296.4 89.2 297.2 89.2ZM306.8 82.3L306.7 84.5Q306.3 84.4 305.9 84.4L305.9 84.4Q304.6 84.4 304.3 85.3L304.3 85.3L304.3 90.8L302.0 90.8L302.0 82.4L304.1 82.4L304.2 83.4Q304.9 82.2 306.1 82.2L306.1 82.2Q306.4 82.2 306.8 82.3L306.8 82.3ZM310.2 82.4L310.2 90.8L307.9 90.8L307.9 82.4L310.2 82.4ZM307.8 80.2L307.8 80.2Q307.8 79.7 308.2 79.4Q308.5 79.0 309.1 79.0L309.1 79.0Q309.7 79.0 310 79.4Q310.3 79.7 310.3 80.2L310.3 80.2Q310.3 80.7 310.0 81.0Q309.6 81.4 309.1 81.4Q308.5 81.4 308.2 81.0Q307.8 80.7 307.8 80.2ZM319.7 86.6L319.7 86.7Q319.7 88.6 318.8 89.8Q317.9 91 316.4 91L316.4 91Q315.1 91 314.3 90.1L314.3 90.1L314.3 94.1L312.1 94.1L312.1 82.4L314.2 82.4L314.2 83.2Q315.1 82.2 316.4 82.2L316.4 82.2Q317.9 82.2 318.8 83.4Q319.7 84.5 319.7 86.6L319.7 86.6ZM317.4 86.5L317.4 86.5Q317.4 85.4 317.0 84.7Q316.6 84.1 315.8 84.1L315.8 84.1Q314.7 84.1 314.3 84.9L314.3 84.9L314.3 88.3Q314.7 89.2 315.8 89.2L315.8 89.2Q317.4 89.2 317.4 86.5ZM321.5 80.3L323.8 80.3L323.8 82.4L325.2 82.4L325.2 84.0L323.8 84.0L323.8 88.3Q323.8 88.7 324.0 88.9Q324.1 89.1 324.6 89.1L324.6 89.1Q325.0 89.1 325.3 89.1L325.3 89.1L325.3 90.8Q324.6 91 323.9 91L323.9 91Q321.6 91 321.5 88.6L321.5 88.6L321.5 84.0L320.3 84.0L320.3 82.4L321.5 82.4L321.5 80.3Z "/><mask id="satori_om-id-1-7-2"><rect x="335" y="76" width="34" height="18" fill="#fff"/></mask><path fill="#57606a" d="M343.4 89.7L343.4 90.8L335.9 90.8L335.9 89.8L339.9 85.4Q340.8 84.4 341.1 83.8Q341.4 83.2 341.4 82.5L341.4 82.5Q341.4 81.6 340.9 81.1Q340.3 80.5 339.4 80.5L339.4 80.5Q338.4 80.5 337.8 81.1Q337.2 81.7 337.2 82.8L337.2 82.8L335.7 82.8Q335.7 81.3 336.7 80.3Q337.8 79.3 339.4 79.3L339.4 79.3Q341.0 79.3 342.0 80.1Q342.9 81.0 342.9 82.4L342.9 82.4Q342.9 84.0 340.7 86.4L340.7 86.4L337.7 89.7L343.4 89.7ZM345.1 90.1L345.1 90.1Q345.1 89.7 345.3 89.5Q345.6 89.2 346 89.2Q346.4 89.2 346.7 89.5Q346.9 89.7 346.9 90.1L346.9 90.1Q346.9 90.4 346.7 90.7Q346.4 90.9 346 90.9Q345.6 90.9 345.3 90.7Q345.1 90.4 345.1 90.1ZM356.5 79.5L356.5 80.3L351.8 90.8L350.3 90.8L355.0 80.7L348.8 80.7L348.8 79.5L356.5 79.5ZM358 82.2L358 81.7Q358 80.6 358.7 80.0Q359.3 79.3 360.3 79.3L360.3 79.3Q361.4 79.3 362.0 80.0Q362.7 80.6 362.7 81.7L362.7 81.7L362.7 82.3Q362.7 83.3 362.0 83.9Q361.4 84.6 360.3 84.6L360.3 84.6Q359.3 84.6 358.7 83.9Q358 83.3 358 82.2L358 82.2ZM359.1 81.7L359.1 82.3Q359.1 82.9 359.4 83.3Q359.8 83.7 360.3 83.7L360.3 83.7Q360.9 83.7 361.2 83.3Q361.6 82.9 361.6 82.2L361.6 82.2L361.6 81.7Q361.6 81.0 361.2 80.6Q360.9 80.3 360.3 80.3Q359.8 80.3 359.4 80.6Q359.1 81.0 359.1 81.7L359.1 81.7ZM363.5 88.6L363.5 88.1Q363.5 87.0 364.2 86.4Q364.8 85.7 365.9 85.7Q366.9 85.7 367.5 86.4Q368.2 87.0 368.2 88.1L368.2 88.1L368.2 88.7Q368.2 89.7 367.6 90.3Q366.9 91.0 365.9 91.0Q364.9 91.0 364.2 90.4Q363.5 89.7 363.5 88.6L363.5 88.6ZM364.6 88.1L364.6 88.7Q364.6 89.3 365.0 89.7Q365.3 90.1 365.9 90.1L365.9 90.1Q366.4 90.1 366.8 89.7Q367.1 89.3 367.1 88.6L367.1 88.6L367.1 88.1Q367.1 87.4 366.8 87.0Q366.4 86.7 365.9 86.7L365.9 86.7Q365.3 86.7 365.0 87.0Q364.6 87.4 364.6 88.1L364.6 88.1ZM366.2 81.1L360.7 90.0L359.9 89.5L365.4 80.6L366.2 81.1Z "/><mask id="satori_om-id-1-8"><rect x="0" y="104" width="112" height="19" fill="#fff"/></mask><mask id="satori_om-id-1-8-0"><rect x="0" y="105" width="16" height="16" fill="#fff"/></mask><mask id="satori_om-id-1-8-0-0"><rect x="4" y="109" width="8" height="8" fill="#fff"/></mask><path x="4" y="109" width="8" height="8" fill="#ff5a03" d="M8,109 h0 a4,4 0 0 1 4,4 v0 a4,4 0 0 1 -4,4 h0 a4,4 0 0 1 -4,-4 v0 a4,4 0 0 1 4,-4"/><mask id="satori_om-id-1-8-1"><rect x="29" y="104" width="40" height="19" fill="#fff"/></mask><path fill="#24292f" d="M37.2 118.8L36.4 116.5L32.3 116.5L31.5 118.8L29.1 118.8L33.3 107.5L35.5 107.5L39.7 118.8L37.2 118.8ZM34.4 110.3L33.0 114.6L35.8 114.6L34.4 110.3ZM45.2 116.5L45.2 116.5Q45.2 116.1 44.8 115.9Q44.4 115.6 43.5 115.4L43.5 115.4Q40.5 114.8 40.5 112.9L40.5 112.9Q40.5 111.7 41.4 111.0Q42.3 110.2 43.8 110.2L43.8 110.2Q45.5 110.2 46.4 111.0Q47.4 111.8 47.4 113.0L47.4 113.0L45.1 113.0Q45.1 112.5 44.8 112.2Q44.5 111.8 43.8 111.8L43.8 111.8Q43.3 111.8 43.0 112.1Q42.6 112.4 42.6 112.8L42.6 112.8Q42.6 113.1 43.0 113.4Q43.4 113.6 44.2 113.8Q45.0 113.9 45.6 114.1L45.6 114.1Q47.4 114.8 47.4 116.4L47.4 116.4Q47.4 117.6 46.4 118.3Q45.4 119 43.9 119L43.9 119Q42.8 119 42.0 118.6Q41.1 118.2 40.7 117.6Q40.2 116.9 40.2 116.2L40.2 116.2L42.3 116.2Q42.4 116.8 42.8 117.1Q43.2 117.4 43.9 117.4L43.9 117.4Q44.5 117.4 44.9 117.2Q45.2 116.9 45.2 116.5ZM49.3 108.3L51.6 108.3L51.6 110.4L53.0 110.4L53.0 112.0L51.6 112.0L51.6 116.3Q51.6 116.7 51.7 116.9Q51.9 117.1 52.4 117.1L52.4 117.1Q52.8 117.1 53.1 117.1L53.1 117.1L53.1 118.8Q52.4 119 51.7 119L51.7 119Q49.4 119 49.3 116.6L49.3 116.6L49.3 112.0L48.1 112.0L48.1 110.4L49.3 110.4L49.3 108.3ZM59.0 110.3L59.0 112.5Q58.6 112.4 58.2 112.4L58.2 112.4Q56.9 112.4 56.5 113.3L56.5 113.3L56.5 118.8L54.3 118.8L54.3 110.4L56.4 110.4L56.5 111.4Q57.1 110.2 58.3 110.2L58.3 110.2Q58.7 110.2 59.0 110.3L59.0 110.3ZM59.5 114.6L59.5 114.5Q59.5 113.3 60.0 112.3Q60.4 111.3 61.3 110.8Q62.3 110.2 63.5 110.2L63.5 110.2Q65.2 110.2 66.3 111.3Q67.3 112.3 67.5 114.1L67.5 114.1L67.5 114.7Q67.5 116.6 66.4 117.8Q65.3 119 63.5 119Q61.6 119 60.6 117.8Q59.5 116.7 59.5 114.6L59.5 114.6ZM61.7 114.7L61.7 114.7Q61.7 115.9 62.2 116.5Q62.6 117.2 63.5 117.2L63.5 117.2Q64.3 117.2 64.8 116.6Q65.2 115.9 65.2 114.5L65.2 114.5Q65.2 113.4 64.8 112.7Q64.3 112.1 63.5 112.1L63.5 112.1Q62.6 112.1 62.2 112.7Q61.7 113.4 61.7 114.7Z "/><mask id="satori_om-id-1-8-2"><rect x="78" y="104" width="34" height="19" fill="#fff"/></mask><path fill="#57606a" d="M83.7 107.4L83.7 118.8L82.2 118.8L82.2 109.2L79.3 110.3L79.3 109.0L83.5 107.4L83.7 107.4ZM88.1 118.1L88.1 118.1Q88.1 117.7 88.3 117.5Q88.6 117.2 89 117.2Q89.4 117.2 89.7 117.5Q89.9 117.7 89.9 118.1L89.9 118.1Q89.9 118.4 89.7 118.7Q89.4 118.9 89 118.9Q88.6 118.9 88.3 118.7Q88.1 118.4 88.1 118.1ZM99.5 107.5L99.5 108.3L94.8 118.8L93.3 118.8L98.0 108.7L91.8 108.7L91.8 107.5L99.5 107.5ZM101 110.2L101 109.7Q101 108.6 101.7 108.0Q102.3 107.3 103.3 107.3L103.3 107.3Q104.4 107.3 105.0 108.0Q105.7 108.6 105.7 109.7L105.7 109.7L105.7 110.3Q105.7 111.3 105.0 111.9Q104.4 112.6 103.3 112.6L103.3 112.6Q102.3 112.6 101.7 111.9Q101 111.3 101 110.2L101 110.2ZM102.1 109.7L102.1 110.3Q102.1 110.9 102.4 111.3Q102.8 111.7 103.3 111.7L103.3 111.7Q103.9 111.7 104.2 111.3Q104.6 110.9 104.6 110.2L104.6 110.2L104.6 109.7Q104.6 109.0 104.2 108.6Q103.9 108.3 103.3 108.3Q102.8 108.3 102.4 108.6Q102.1 109.0 102.1 109.7L102.1 109.7ZM106.5 116.6L106.5 116.1Q106.5 115.0 107.2 114.4Q107.8 113.7 108.9 113.7Q109.9 113.7 110.5 114.4Q111.2 115.0 111.2 116.1L111.2 116.1L111.2 116.7Q111.2 117.7 110.6 118.3Q109.9 119.0 108.9 119.0Q107.9 119.0 107.2 118.4Q106.5 117.7 106.5 116.6L106.5 116.6ZM107.6 116.1L107.6 116.7Q107.6 117.3 108.0 117.7Q108.3 118.1 108.9 118.1L108.9 118.1Q109.4 118.1 109.8 117.7Q110.1 117.3 110.1 116.6L110.1 116.6L110.1 116.1Q110.1 115.4 109.8 115.0Q109.4 114.7 108.9 114.7L108.9 114.7Q108.3 114.7 108.0 115.0Q107.6 115.4 107.6 116.1L107.6 116.1ZM109.2 109.1L103.7 118.0L102.9 117.5L108.4 108.6L109.2 109.1Z "/><mask id="satori_om-id-1-9"><rect x="122" y="104" width="103" height="19" fill="#fff"/></mask><mask id="satori_om-id-1-9-0"><rect x="122" y="105" width="16" height="16" fill="#fff"/></mask><mask id="satori_om-id-1-9-0-0"><rect x="126" y="109" width="8" height="8" fill="#fff"/></mask><path x="126" y="109" width="8" height="8" fill="#563d7c" d="M130,109 h0 a4,4 0 0 1 4,4 v0 a4,4 0 0 1 -4,4 h0 a4,4 0 0 1 -4,-4 v0 a4,4 0 0 1 4,-4"/><mask id="satori_om-id-1-9-1"><rect x="151" y="104" width="31" height="19" fill="#fff"/></mask><path fill="#24292f" d="M158.6 115.1L160.9 115.1Q160.8 116.9 159.6 117.9Q158.4 119 156.4 119L156.4 119Q154.2 119 152.9 117.5Q151.7 116.1 151.7 113.5L151.7 113.5L151.7 112.8Q151.7 111.1 152.3 109.9Q152.8 108.6 153.9 108.0Q155.0 107.3 156.4 107.3L156.4 107.3Q158.4 107.3 159.6 108.4Q160.8 109.4 161.0 111.3L161.0 111.3L158.6 111.3Q158.5 110.2 158.0 109.7Q157.5 109.2 156.4 109.2L156.4 109.2Q155.2 109.2 154.6 110.1Q154.1 110.9 154.0 112.7L154.0 112.7L154.0 113.5Q154.0 115.4 154.6 116.2Q155.2 117.1 156.4 117.1L156.4 117.1Q157.5 117.1 158.0 116.6Q158.5 116.1 158.6 115.1L158.6 115.1ZM168.4 115.9L168.4 115.9Q168.4 115.2 167.9 114.8Q167.4 114.5 166.2 114.1Q165.0 113.7 164.3 113.3L164.3 113.3Q162.4 112.3 162.4 110.5L162.4 110.5Q162.4 109.6 162.9 108.8Q163.4 108.1 164.4 107.7Q165.3 107.3 166.6 107.3L166.6 107.3Q167.8 107.3 168.7 107.8Q169.7 108.2 170.2 109Q170.7 109.8 170.7 110.8L170.7 110.8L168.4 110.8Q168.4 110.0 167.9 109.6Q167.4 109.2 166.5 109.2L166.5 109.2Q165.7 109.2 165.2 109.5Q164.7 109.9 164.7 110.5L164.7 110.5Q164.7 111.1 165.3 111.4Q165.8 111.8 166.9 112.1L166.9 112.1Q168.9 112.7 169.8 113.6Q170.7 114.5 170.7 115.8L170.7 115.8Q170.7 117.3 169.6 118.2Q168.5 119 166.6 119L166.6 119Q165.3 119 164.2 118.5Q163.1 118.0 162.6 117.2Q162.0 116.4 162.0 115.3L162.0 115.3L164.4 115.3Q164.4 117.1 166.6 117.1L166.6 117.1Q167.4 117.1 167.9 116.8Q168.4 116.5 168.4 115.9ZM178.2 115.9L178.2 115.9Q178.2 115.2 177.8 114.8Q177.3 114.5 176.1 114.1Q174.8 113.7 174.1 113.3L174.1 113.3Q172.2 112.3 172.2 110.5L172.2 110.5Q172.2 109.6 172.7 108.8Q173.2 108.1 174.2 107.7Q175.2 107.3 176.4 107.3L176.4 107.3Q177.6 107.3 178.6 107.8Q179.5 108.2 180.0 109Q180.6 109.8 180.6 110.8L180.6 110.8L178.2 110.8Q178.2 110.0 177.7 109.6Q177.2 109.2 176.4 109.2L176.4 109.2Q175.5 109.2 175.0 109.5Q174.5 109.9 174.5 110.5L174.5 110.5Q174.5 111.1 175.1 111.4Q175.7 111.8 176.7 112.1L176.7 112.1Q178.7 112.7 179.7 113.6Q180.6 114.5 180.6 115.8L180.6 115.8Q180.6 117.3 179.5 118.2Q178.3 119 176.4 119L176.4 119Q175.1 119 174.1 118.5Q173.0 118.0 172.4 117.2Q171.8 116.4 171.8 115.3L171.8 115.3L174.2 115.3Q174.2 117.1 176.4 117.1L176.4 117.1Q177.3 117.1 177.8 116.8Q178.2 116.5 178.2 115.9Z "/><mask id="satori_om-id-1-9-2"><rect x="191" y="104" width="34" height="19" fill="#fff"/></mask><path fill="#57606a" d="M196.7 107.4L196.7 118.8L195.2 118.8L195.2 109.2L192.3 110.3L192.3 109.0L196.5 107.4L196.7 107.4ZM201.1 118.1L201.1 118.1Q201.1 117.7 201.3 117.5Q201.6 117.2 202 117.2Q202.4 117.2 202.7 117.5Q202.9 117.7 202.9 118.1L202.9 118.1Q202.9 118.4 202.7 118.7Q202.4 118.9 202 118.9Q201.6 118.9 201.3 118.7Q201.1 118.4 201.1 118.1ZM209.9 107.4L209.9 118.8L208.4 118.8L208.4 109.2L205.5 110.3L205.5 109.0L209.7 107.4L209.9 107.4ZM214 110.2L214 109.7Q214 108.6 214.7 108.0Q215.3 107.3 216.3 107.3L216.3 107.3Q217.4 107.3 218.0 108.0Q218.7 108.6 218.7 109.7L218.7 109.7L218.7 110.3Q218.7 111.3 218.0 111.9Q217.4 112.6 216.3 112.6L216.3 112.6Q215.3 112.6 214.7 111.9Q214 111.3 214 110.2L214 110.2ZM215.1 109.7L215.1 110.3Q215.1 110.9 215.4 111.3Q215.8 111.7 216.3 111.7L216.3 111.7Q216.9 111.7 217.2 111.3Q217.6 110.9 217.6 110.2L217.6 110.2L217.6 109.7Q217.6 109.0 217.2 108.6Q216.9 108.3 216.3 108.3Q215.8 108.3 215.4 108.6Q215.1 109.0 215.1 109.7L215.1 109.7ZM219.5 116.6L219.5 116.1Q219.5 115.0 220.2 114.4Q220.8 113.7 221.9 113.7Q222.9 113.7 223.5 114.4Q224.2 115.0 224.2 116.1L224.2 116.1L224.2 116.7Q224.2 117.7 223.6 118.3Q222.9 119.0 221.9 119.0Q220.9 119.0 220.2 118.4Q219.5 117.7 219.5 116.6L219.5 116.6ZM220.6 116.1L220.6 116.7Q220.6 117.3 221.0 117.7Q221.3 118.1 221.9 118.1L221.9 118.1Q222.4 118.1 222.8 117.7Q223.1 117.3 223.1 116.6L223.1 116.6L223.1 116.1Q223.1 115.4 222.8 115.0Q222.4 114.7 221.9 114.7L221.9 114.7Q221.3 114.7 221.0 115.0Q220.6 115.4 220.6 116.1L220.6 116.1ZM222.2 109.1L216.7 118.0L215.9 117.5L221.4 108.6L222.2 109.1Z "/></svg>