<svg width="375" height="200" viewBox="0 0 375 200" xmlns="http://www.w3.org/2000/svg"><mask id="satori_om-id"><rect x="0" y="0" width="375" height="181" fill="#fff"/></mask><clipPath id="satori_cp-id-0"><path x="0" y="0" width="375" height="8" d="M4,0 h367 a4,4 0 0 1 4,4 v0 a4,4 0 0 1 -4,4 h-367 a4,4 0 0 1 -4,-4 v0 a4,4 0 0 1 4,-4"/></clipPath><mask id="satori_om-id-0"><rect x="0" y="0" width="375" height="8" fill="#fff"/></mask><mask id="satori_om-id-0-0"><rect x="0" y="0" width="206" height="8" fill="#fff" mask="url(#satori_om-id-0)"/></mask><rect x="0" y="0" width="206" height="8" fill="#3178c6" clip-path="url(#satori_cp-id-0)" mask="url(#satori_om-id-0)"/><mask id="satori_om-id-0-1"><rect x="206" y="0" width="33" height="8" fill="#fff" mask="url(#satori_om-id-0)"/></mask><rect x="206" y="0" width="33" height="8" fill="#DA5B0B" clip-path="url(#satori_cp-id-0)" mask="url(#satori_om-id-0)"/><mask id="satori_om-id-0-2"><rect x="239" y="0" width="30" height="8" fill="#fff" mask="url(#satori_om-id-0)"/></mask><rect x="239" y="0" width="30" height="8" fill="#844FBA" clip-path="url(#satori_cp-id-0)" mask="url(#satori_om-id-0)"/><mask id="satori_om-id-0-3"><rect x="269" y="0" width="22" height="8" fill="#fff" mask="url(#satori_om-id-0)"/></mask><rect x="269" y="0" width="22" height="8" fill="#3572A5" clip-path="url(#satori_cp-id-0)" mask="url(#satori_om-id-0)"/><mask id="satori_om-id-0-4"><rect x="291" y="0" width="20" height="8" fill="#fff" mask="url(#satori_om-id-0)"/></mask><rect x="291" y="0" width="20" height="8" fill="#00ADD8" clip-path="url(#satori_cp-id-0)" mask="url(#satori_om-id-0)"/><mask id="satori_om-id-0-5"><rect x="311" y="0" width="17" height="8" fill="#fff" mask="url(#satori_om-id-0)"/></mask><rect x="311" y="0" width="17" height="8" fill="#ff3e00" clip-path="url(#satori_cp-id-0)" mask="url(#satori_om-id-0)"/><mask id="satori_om-id-0-6"><rect x="328" y="0" width="15" height="8" fill="#fff" mask="url(#satori_om-id-0)"/></mask><rect x="328" y="0" width="15" height="8" fill="#f1e05a" clip-path="url(#satori_cp-id-0)" mask="url(#satori_om-id-0)"/><mask id="satori_om-id-0-7"><rect x="343" y="0" width="11" height="8" fill="#fff" mask="url(#satori_om-id-0)"/></mask><rect x="343" y="0" width="11" height="8" fill="#e34c26" clip-path="url(#satori_cp-id-0)" mask="url(#satori_om-id-0)"/><mask id="satori_om-id-0-8"><rect x="354" y="0" width="11" height="8" fill="#fff" mask="url(#satori_om-id-0)"/></mask><rect x="354" y="0" width="11" height="8" fill="#555555" clip-path="url(#satori_cp-id-0)" mask="url(#satori_om-id-0)"/><mask id="satori_om-id-0-9"><rect x="365" y="0" width="7" height="8" fill="#fff" mask="url(#satori_om-id-0)"/></mask><rect x="365" y="0" width="7" height="8" fill="#ff5a03" clip-path="url(#satori_cp-id-0)" mask="url(#satori_om-id-0)"/><mask id="satori_om-id-0-10"><rect x="372" y="0" width="2" height="8" fill="#fff" mask="url(#satori_om-id-0)"/></mask><rect x="372" y="0" width="2" height="8" fill="#563d7c" clip-path="url(#satori_cp-id-0)" mask="url(#satori_om-id-0)"/><mask id="satori_om-id-0-11"><rect x="374" y="0" width="1" height="8" fill="#fff" mask="url(#satori_om-id-0)"/></mask><rect x="374" y="0" width="1" height="8" fill="#384d54" clip-path="url(#satori_cp-id-0)" mask="url(#satori_om-id-0)"/><mask id="satori_om-id-0-12"><rect x="375" y="0" width="0" height="8" fill="#fff" mask="url(#satori_om-id-0)"/></mask><rect x="375" y="0" width="0" height="8" fill="#89e051" clip-path="url(#satori_cp-id-0)" mask="url(#satori_om-id-0)"/><mask id="satori_om-id-1"><rect x="0" y="18" width="375" height="163" fill="#fff"/></mask><mask id="satori_om-id-1-0"><rect x="0" y="18" width="160" height="19" fill="#fff"/></mask><mask id="satori_om-id-1-0-0"><rect x="0" y="19" width="16" height="16" fill="#fff"/></mask><mask id="satori_om-id-1-0-0-0"><rect x="4" y="23" width="8" height="8" fill="#fff"/></mask><path x="4" y="23" width="8" height="8" fill="#3178c6" d="M8,23 h0 a4,4 0 0 1 4,4 v0 a4,4 0 0 1 -4,4 h0 a4,4 0 0 1 -4,-4 v0 a4,4 0 0 1 4,-4"/><mask id="satori_om-id-1-0-1"><rect x="29" y="18" width="79" height="19" fill="#fff"/></mask><path fill="#24292f" d="M38.6 22.1L38.6 24.0L35.1 24.0L35.1 33.5L32.8 33.5L32.8 24.0L29.3 24.0L29.3 22.1L38.6 22.1ZM40.7 25.0L42.3 30.3L43.8 25.0L46.3 25.0L42.9 34.8L42.7 35.2Q41.9 36.9 40.2 36.9L40.2 36.9Q39.7 36.9 39.2 36.7L39.2 36.7L39.2 35.0L39.5 35.0Q40.2 35.0 40.5 34.9Q40.8 34.7 41.0 34.2L41.0 34.2L41.2 33.5L38.3 25.0L40.7 25.0ZM54.8 29.2L54.8 29.3Q54.8 31.3 53.9 32.5Q53.0 33.6 51.5 33.6L51.5 33.6Q50.2 33.6 49.4 32.7L49.4 32.7L49.4 36.7L47.2 36.7L47.2 25.0L49.3 25.0L49.3 25.9Q50.1 24.9 51.5 24.9L51.5 24.9Q53.0 24.9 53.9 26.0Q54.8 27.2 54.8 29.2L54.8 29.2ZM52.5 29.2L52.5 29.2Q52.5 28.0 52.1 27.4Q51.7 26.7 50.9 26.7L50.9 26.7Q49.8 26.7 49.4 27.5L49.4 27.5L49.4 31.0Q49.8 31.8 50.9 31.8L50.9 31.8Q52.5 31.8 52.5 29.2ZM60.1 33.6L60.1 33.6Q58.2 33.6 57.0 32.5Q55.9 31.4 55.9 29.5L55.9 29.5L55.9 29.2Q55.9 28.0 56.4 27.0Q56.8 26.0 57.7 25.4Q58.6 24.9 59.8 24.9L59.8 24.9Q61.5 24.9 62.5 26.0Q63.5 27.1 63.5 29.1L63.5 29.1L63.5 30.0L58.1 30.0Q58.3 30.8 58.8 31.3Q59.4 31.8 60.2 31.8L60.2 31.8Q61.5 31.8 62.2 30.9L62.2 30.9L63.4 32.1Q62.8 32.8 62.0 33.2Q61.1 33.6 60.1 33.6ZM59.8 26.7L59.8 26.7Q59.1 26.7 58.7 27.2Q58.3 27.6 58.2 28.5L58.2 28.5L61.3 28.5L61.3 28.3Q61.3 27.5 60.9 27.1Q60.5 26.7 59.8 26.7ZM70.9 30.5L70.9 30.5Q70.9 29.8 70.4 29.5Q69.9 29.1 68.7 28.7Q67.5 28.3 66.8 28.0L66.8 28.0Q64.8 26.9 64.8 25.1L64.8 25.1Q64.8 24.2 65.4 23.5Q65.9 22.8 66.8 22.4Q67.8 22.0 69.0 22.0L69.0 22.0Q70.3 22.0 71.2 22.4Q72.2 22.8 72.7 23.6Q73.2 24.4 73.2 25.5L73.2 25.5L70.9 25.5Q70.9 24.7 70.4 24.3Q69.9 23.8 69.0 23.8L69.0 23.8Q68.1 23.8 67.7 24.2Q67.2 24.5 67.2 25.1L67.2 25.1Q67.2 25.7 67.7 26.1Q68.3 26.4 69.4 26.8L69.4 26.8Q71.4 27.4 72.3 28.3Q73.2 29.2 73.2 30.5L73.2 30.5Q73.2 32.0 72.1 32.8Q71.0 33.6 69.1 33.6L69.1 33.6Q67.8 33.6 66.7 33.2Q65.6 32.7 65.1 31.8Q64.5 31.0 64.5 29.9L64.5 29.9L66.8 29.9Q66.8 31.8 69.1 31.8L69.1 31.8Q69.9 31.8 70.4 31.4Q70.9 31.1 70.9 30.5ZM78.2 31.8L78.2 31.8Q78.8 31.8 79.2 31.5Q79.6 31.1 79.6 30.6L79.6 30.6L81.7 30.6Q81.7 31.4 81.2 32.1Q80.8 32.9 80.0 33.2Q79.2 33.6 78.2 33.6L78.2 33.6Q76.4 33.6 75.3 32.5Q74.3 31.3 74.3 29.3L74.3 29.3L74.3 29.2Q74.3 27.2 75.3 26.0Q76.4 24.9 78.2 24.9L78.2 24.9Q79.8 24.9 80.7 25.8Q81.7 26.7 81.7 28.2L81.7 28.2L79.6 28.2Q79.6 27.5 79.2 27.1Q78.8 26.7 78.1 26.7L78.1 26.7Q77.4 26.7 77.0 27.3Q76.6 27.9 76.6 29.1L76.6 29.1L76.6 29.4Q76.6 30.7 77.0 31.2Q77.4 31.8 78.2 31.8ZM87.8 25.0L87.7 27.1Q87.3 27.1 86.9 27.1L86.9 27.1Q85.6 27.1 85.3 28.0L85.3 28.0L85.3 33.5L83.0 33.5L83.0 25.0L85.1 25.0L85.2 26.0Q85.9 24.9 87.1 24.9L87.1 24.9Q87.4 24.9 87.8 25.0L87.8 25.0ZM91.2 25.0L91.2 33.5L88.9 33.5L88.9 25.0L91.2 25.0ZM88.8 22.8L88.8 22.8Q88.8 22.3 89.2 22.0Q89.5 21.7 90.1 21.7L90.1 21.7Q90.7 21.7 91 22.0Q91.3 22.3 91.3 22.8L91.3 22.8Q91.3 23.4 91.0 23.7Q90.6 24.0 90.1 24.0Q89.5 24.0 89.2 23.7Q88.8 23.4 88.8 22.8ZM100.7 29.2L100.7 29.3Q100.7 31.3 99.8 32.5Q98.9 33.6 97.4 33.6L97.4 33.6Q96.1 33.6 95.3 32.7L95.3 32.7L95.3 36.7L93.1 36.7L93.1 25.0L95.2 25.0L95.2 25.9Q96.1 24.9 97.4 24.9L97.4 24.9Q98.9 24.9 99.8 26.0Q100.7 27.2 100.7 29.2L100.7 29.2ZM98.4 29.2L98.4 29.2Q98.4 28.0 98.0 27.4Q97.6 26.7 96.8 26.7L96.8 26.7Q95.7 26.7 95.3 27.5L95.3 27.5L95.3 31.0Q95.7 31.8 96.8 31.8L96.8 31.8Q98.4 31.8 98.4 29.2ZM102.5 23.0L104.8 23.0L104.8 25.0L106.2 25.0L106.2 26.7L104.8 26.7L104.8 30.9Q104.8 31.4 105.0 31.6Q105.1 31.8 105.6 31.8L105.6 31.8Q106.0 31.8 106.3 31.7L106.3 31.7L106.3 33.4Q105.6 33.6 104.9 33.6L104.9 33.6Q102.6 33.6 102.5 31.2L102.5 31.2L102.5 26.7L101.3 26.7L101.3 25.0L102.5 25.0L102.5 23.0Z "/><mask id="satori_om-id-1-0-2"><rect x="117" y="18" width="43" height="19" fill="#fff"/></mask><path fill="#57606a" d="M119.8 28.1L118.6 27.8L119.2 22.1L125.0 22.1L125.0 23.4L120.4 23.4L120.1 26.5Q120.9 26.1 122.0 26.1L122.0 26.1Q123.5 26.1 124.4 27.1Q125.4 28.1 125.4 29.9L125.4 29.9Q125.4 31.6 124.4 32.6Q123.5 33.6 121.8 33.6L121.8 33.6Q120.2 33.6 119.3 32.8Q118.3 32.0 118.2 30.5L118.2 30.5L119.6 30.5Q119.7 31.5 120.3 32.0Q120.8 32.5 121.8 32.5L121.8 32.5Q122.8 32.5 123.3 31.8Q123.9 31.1 123.9 29.9L123.9 29.9Q123.9 28.7 123.3 28.0Q122.7 27.4 121.6 27.4L121.6 27.4Q120.7 27.4 120.1 27.8L120.1 27.8L119.8 28.1ZM128.8 28.1L127.6 27.8L128.2 22.1L134 22.1L134 23.4L129.4 23.4L129.1 26.5Q129.9 26.1 131.0 26.1L131.0 26.1Q132.5 26.1 133.4 27.1Q134.3 28.1 134.3 29.9L134.3 29.9Q134.3 31.6 133.4 32.6Q132.4 33.6 130.7 33.6L130.7 33.6Q129.2 33.6 128.3 32.8Q127.3 32.0 127.2 30.5L127.2 30.5L128.6 30.5Q128.7 31.5 129.3 32.0Q129.8 32.5 130.7 32.5L130.7 32.5Q131.7 32.5 132.3 31.8Q132.9 31.1 132.9 29.9L132.9 29.9Q132.9 28.7 132.3 28.0Q131.6 27.4 130.6 27.4L130.6 27.4Q129.7 27.4 129.1 27.8L129.1 27.8L128.8 28.1ZM136.1 32.7L136.1 32.7Q136.1 32.4 136.3 32.1Q136.5 31.9 137.0 31.9Q137.4 31.9 137.7 32.1Q137.9 32.4 137.9 32.7L137.9 32.7Q137.9 33.1 137.7 33.3Q137.4 33.6 137.0 33.6Q136.5 33.6 136.3 33.3Q136.1 33.1 136.1 32.7ZM147.3 26.8L147.3 28.6Q147.3 31.2 146.4 32.4Q145.5 33.6 143.7 33.6L143.7 33.6Q141.9 33.6 141.0 32.4Q140.1 31.2 140.1 28.8L140.1 28.8L140.1 26.9Q140.1 24.4 140.9 23.2Q141.8 22.0 143.7 22.0L143.7 22.0Q145.5 22.0 146.4 23.1Q147.2 24.3 147.3 26.8L147.3 26.8ZM145.8 29.0L145.8 26.7Q145.8 24.8 145.3 24.0Q144.8 23.1 143.7 23.1L143.7 23.1Q142.6 23.1 142.0 24.0Q141.5 24.8 141.5 26.5L141.5 26.5L141.5 28.9Q141.5 30.7 142.1 31.6Q142.6 32.5 143.7 32.5L143.7 32.5Q144.8 32.5 145.3 31.6Q145.8 30.8 145.8 29.0L145.8 29.0ZM149.0 24.8L149.0 24.3Q149.0 23.3 149.6 22.6Q150.3 21.9 151.3 21.9L151.3 21.9Q152.4 21.9 153.0 22.6Q153.6 23.3 153.6 24.3L153.6 24.3L153.6 24.9Q153.6 25.9 153.0 26.6Q152.3 27.2 151.3 27.2L151.3 27.2Q150.3 27.2 149.6 26.6Q149.0 25.9 149.0 24.8L149.0 24.8ZM150.1 24.3L150.1 24.9Q150.1 25.5 150.4 25.9Q150.8 26.3 151.3 26.3L151.3 26.3Q151.9 26.3 152.2 25.9Q152.6 25.5 152.6 24.9L152.6 24.9L152.6 24.3Q152.6 23.7 152.2 23.3Q151.9 22.9 151.3 22.9Q150.7 22.9 150.4 23.3Q150.1 23.7 150.1 24.3L150.1 24.3ZM154.5 31.3L154.5 30.7Q154.5 29.7 155.2 29.0Q155.8 28.4 156.9 28.4Q157.9 28.4 158.5 29.0Q159.2 29.7 159.2 30.7L159.2 30.7L159.2 31.3Q159.2 32.3 158.5 33.0Q157.9 33.6 156.9 33.6Q155.9 33.6 155.2 33.0Q154.5 32.3 154.5 31.3L154.5 31.3ZM155.6 30.7L155.6 31.3Q155.6 31.9 155.9 32.3Q156.3 32.7 156.9 32.7L156.9 32.7Q157.4 32.7 157.8 32.3Q158.1 31.9 158.1 31.3L158.1 31.3L158.1 30.7Q158.1 30.1 157.8 29.7Q157.4 29.3 156.9 29.3L156.9 29.3Q156.3 29.3 155.9 29.7Q155.6 30.1 155.6 30.7L155.6 30.7ZM157.2 23.7L151.7 32.6L150.8 32.1L156.4 23.2L157.2 23.7Z "/><mask id="satori_om-id-1-1"><rect x="170" y="18" width="201" height="19" fill="#fff"/></mask><mask id="satori_om-id-1-1-0"><rect x="170" y="19" width="16" height="16" fill="#fff"/></mask><mask id="satori_om-id-1-1-0-0"><rect x="174" y="23" width="8" height="8" fill="#fff"/></mask><path x="174" y="23" width="8" height="8" fill="#DA5B0B" d="M178,23 h0 a4,4 0 0 1 4,4 v0 a4,4 0 0 1 -4,4 h0 a4,4 0 0 1 -4,-4 v0 a4,4 0 0 1 4,-4"/><mask id="satori_om-id-1-1-1"><rect x="199" y="18" width="129" height="19" fill="#fff"/></mask><path fill="#24292f" d="M204.6 30.0L204.6 22.1L206.9 22.1L206.9 30.0Q206.9 31.1 206.5 31.9Q206.0 32.7 205.1 33.2Q204.2 33.6 203.1 33.6L203.1 33.6Q201.3 33.6 200.3 32.7Q199.3 31.8 199.3 30.1L199.3 30.1L201.7 30.1Q201.7 31.0 202.0 31.4Q202.4 31.8 203.1 31.8L203.1 31.8Q203.8 31.8 204.2 31.3Q204.6 30.8 204.6 30.0L204.6 30.0ZM213.9 33.5L213.9 32.6Q213.0 33.6 211.6 33.6L211.6 33.6Q210.2 33.6 209.5 32.9Q208.8 32.1 208.8 30.6L208.8 30.6L208.8 25.0L211.0 25.0L211.0 30.5Q211.0 31.8 212.2 31.8L212.2 31.8Q213.4 31.8 213.8 31.0L213.8 31.0L213.8 25.0L216.1 25.0L216.1 33.5L213.9 33.5ZM225.4 29.2L225.4 29.3Q225.4 31.3 224.5 32.5Q223.6 33.6 222.1 33.6L222.1 33.6Q220.8 33.6 220.0 32.7L220.0 32.7L220.0 36.7L217.8 36.7L217.8 25.0L219.9 25.0L219.9 25.9Q220.8 24.9 222.1 24.9L222.1 24.9Q223.6 24.9 224.5 26.0Q225.4 27.2 225.4 29.2L225.4 29.2ZM223.1 29.2L223.1 29.2Q223.1 28.0 222.7 27.4Q222.3 26.7 221.5 26.7L221.5 26.7Q220.4 26.7 220.0 27.5L220.0 27.5L220.0 31.0Q220.4 31.8 221.5 31.8L221.5 31.8Q223.1 31.8 223.1 29.2ZM228.3 25.0L229.8 30.3L231.4 25.0L233.8 25.0L230.4 34.8L230.2 35.2Q229.5 36.9 227.7 36.9L227.7 36.9Q227.2 36.9 226.7 36.7L226.7 36.7L226.7 35.0L227.1 35.0Q227.7 35.0 228.0 34.9Q228.4 34.7 228.5 34.2L228.5 34.2L228.8 33.5L225.8 25.0L228.3 25.0ZM235.2 23.0L237.4 23.0L237.4 25.0L238.9 25.0L238.9 26.7L237.4 26.7L237.4 30.9Q237.4 31.4 237.6 31.6Q237.8 31.8 238.3 31.8L238.3 31.8Q238.7 31.8 238.9 31.7L238.9 31.7L238.9 33.4Q238.3 33.6 237.6 33.6L237.6 33.6Q235.2 33.6 235.2 31.2L235.2 31.2L235.2 26.7L233.9 26.7L233.9 25.0L235.2 25.0L235.2 23.0ZM244.0 33.6L244.0 33.6Q242.1 33.6 241.0 32.5Q239.8 31.4 239.8 29.5L239.8 29.5L239.8 29.2Q239.8 28.0 240.3 27.0Q240.8 26.0 241.7 25.4Q242.6 24.9 243.8 24.9L243.8 24.9Q245.5 24.9 246.5 26.0Q247.5 27.1 247.5 29.1L247.5 29.1L247.5 30.0L242.1 30.0Q242.2 30.8 242.8 31.3Q243.3 31.8 244.2 31.8L244.2 31.8Q245.5 31.8 246.2 30.9L246.2 30.9L247.3 32.1Q246.8 32.8 245.9 33.2Q245.1 33.6 244.0 33.6ZM243.8 26.7L243.8 26.7Q243.1 26.7 242.7 27.2Q242.2 27.6 242.1 28.5L242.1 28.5L245.3 28.5L245.3 28.3Q245.3 27.5 244.9 27.1Q244.5 26.7 243.8 26.7ZM253.5 25.0L253.5 27.1Q253.1 27.1 252.7 27.1L252.7 27.1Q251.4 27.1 251.0 28.0L251.0 28.0L251.0 33.5L248.8 33.5L248.8 25.0L250.9 25.0L251.0 26.0Q251.6 24.9 252.8 24.9L252.8 24.9Q253.2 24.9 253.5 25.0L253.5 25.0Z M268.1 22.1L268.1 33.5L265.7 33.5L261.2 26.0L261.2 33.5L258.8 33.5L258.8 22.1L261.2 22.1L265.7 29.6L265.7 22.1L268.1 22.1ZM269.6 29.3L269.6 29.2Q269.6 27.9 270.1 26.9Q270.6 26.0 271.5 25.4Q272.4 24.9 273.6 24.9L273.6 24.9Q275.3 24.9 276.4 25.9Q277.5 27.0 277.6 28.8L277.6 28.8L277.6 29.3Q277.6 31.3 276.5 32.5Q275.5 33.6 273.6 33.6Q271.8 33.6 270.7 32.5Q269.6 31.3 269.6 29.3L269.6 29.3ZM271.9 29.3L271.9 29.3Q271.9 30.5 272.3 31.2Q272.8 31.8 273.6 31.8L273.6 31.8Q274.4 31.8 274.9 31.2Q275.4 30.6 275.4 29.2L275.4 29.2Q275.4 28.0 274.9 27.4Q274.4 26.7 273.6 26.7L273.6 26.7Q272.8 26.7 272.3 27.3Q271.9 28.0 271.9 29.3ZM279.5 23.0L281.7 23.0L281.7 25.0L283.2 25.0L283.2 26.7L281.7 26.7L281.7 30.9Q281.7 31.4 281.9 31.6Q282.1 31.8 282.6 31.8L282.6 31.8Q283.0 31.8 283.3 31.7L283.3 31.7L283.3 33.4Q282.6 33.6 281.9 33.6L281.9 33.6Q279.5 33.6 279.5 31.2L279.5 31.2L279.5 26.7L278.2 26.7L278.2 25.0L279.5 25.0L279.5 23.0ZM288.3 33.6L288.3 33.6Q286.5 33.6 285.3 32.5Q284.1 31.4 284.1 29.5L284.1 29.5L284.1 29.2Q284.1 28.0 284.6 27.0Q285.1 26.0 286.0 25.4Q286.9 24.9 288.1 24.9L288.1 24.9Q289.8 24.9 290.8 26.0Q291.8 27.1 291.8 29.1L291.8 29.1L291.8 30.0L286.4 30.0Q286.5 30.8 287.1 31.3Q287.6 31.8 288.5 31.8L288.5 31.8Q289.8 31.8 290.5 30.9L290.5 30.9L291.6 32.1Q291.1 32.8 290.2 33.2Q289.4 33.6 288.3 33.6ZM288.1 26.7L288.1 26.7Q287.4 26.7 287.0 27.2Q286.5 27.6 286.4 28.5L286.4 28.5L289.6 28.5L289.6 28.3Q289.6 27.5 289.2 27.1Q288.8 26.7 288.1 26.7ZM300.7 29.2L300.7 29.3Q300.7 31.4 299.8 32.5Q299.0 33.6 297.4 33.6L297.4 33.6Q296.0 33.6 295.2 32.6L295.2 32.6L295.1 33.5L293.1 33.5L293.1 21.5L295.3 21.5L295.3 25.8Q296.1 24.9 297.4 24.9L297.4 24.9Q298.9 24.9 299.8 26.0Q300.7 27.1 300.7 29.2L300.7 29.2ZM298.4 29.2L298.4 29.2Q298.4 27.9 298.0 27.3Q297.6 26.7 296.8 26.7L296.8 26.7Q295.7 26.7 295.3 27.6L295.3 27.6L295.3 30.9Q295.7 31.8 296.8 31.8L296.8 31.8Q297.9 31.8 298.3 30.7L298.3 30.7Q298.4 30.2 298.4 29.2ZM301.7 29.3L301.7 29.2Q301.7 27.9 302.2 26.9Q302.7 26.0 303.6 25.4Q304.5 24.9 305.7 24.9L305.7 24.9Q307.4 24.9 308.5 25.9Q309.6 27.0 309.7 28.8L309.7 28.8L309.7 29.3Q309.7 31.3 308.6 32.5Q307.6 33.6 305.7 33.6Q303.9 33.6 302.8 32.5Q301.7 31.3 301.7 29.3L301.7 29.3ZM304.0 29.3L304.0 29.3Q304.0 30.5 304.4 31.2Q304.9 31.8 305.7 31.8L305.7 31.8Q306.6 31.8 307.0 31.2Q307.5 30.6 307.5 29.2L307.5 29.2Q307.5 28.0 307.0 27.4Q306.6 26.7 305.7 26.7L305.7 26.7Q304.9 26.7 304.4 27.3Q304.0 28.0 304.0 29.3ZM310.8 29.3L310.8 29.2Q310.8 27.9 311.3 26.9Q311.7 26.0 312.7 25.4Q313.6 24.9 314.8 24.9L314.8 24.9Q316.5 24.9 317.6 25.9Q318.6 27.0 318.8 28.8L318.8 28.8L318.8 29.3Q318.8 31.3 317.7 32.5Q316.6 33.6 314.8 33.6Q313.0 33.6 311.9 32.5Q310.8 31.3 310.8 29.3L310.8 29.3ZM313.0 29.3L313.0 29.3Q313.0 30.5 313.5 31.2Q313.9 31.8 314.8 31.8L314.8 31.8Q315.6 31.8 316.1 31.2Q316.5 30.6 316.5 29.2L316.5 29.2Q316.5 28.0 316.1 27.4Q315.6 26.7 314.8 26.7L314.8 26.7Q313.9 26.7 313.5 27.3Q313.0 28.0 313.0 29.3ZM325.4 33.5L323.2 30.1L322.4 30.9L322.4 33.5L320.2 33.5L320.2 21.5L322.4 21.5L322.4 28.1L322.9 27.6L325.0 25.0L327.7 25.0L324.7 28.6L328.0 33.5L325.4 33.5Z "/><mask id="satori_om-id-1-1-2"><rect x="337" y="18" width="34" height="19" fill="#fff"/></mask><path fill="#57606a" d="M344.8 25.1L344.8 25.1Q344.8 25.9 344.4 26.6Q343.9 27.3 343.2 27.6L343.2 27.6Q344.1 28.0 344.6 28.7Q345.1 29.5 345.1 30.4L345.1 30.4Q345.1 31.9 344.1 32.8Q343.1 33.6 341.5 33.6L341.5 33.6Q339.9 33.6 338.9 32.8Q337.9 31.9 337.9 30.4L337.9 30.4Q337.9 29.5 338.4 28.7Q338.9 28.0 339.8 27.6L339.8 27.6Q339.0 27.2 338.6 26.6Q338.1 25.9 338.1 25.1L338.1 25.1Q338.1 23.6 339.1 22.8Q340.0 22.0 341.5 22.0L341.5 22.0Q343.0 22.0 343.9 22.8Q344.8 23.6 344.8 25.1ZM343.7 30.4L343.7 30.4Q343.7 29.4 343.1 28.8Q342.5 28.2 341.5 28.2Q340.5 28.2 339.9 28.8Q339.3 29.4 339.3 30.4Q339.3 31.4 339.9 31.9Q340.5 32.5 341.5 32.5L341.5 32.5Q342.5 32.5 343.1 31.9Q343.7 31.3 343.7 30.4ZM341.5 23.1L341.5 23.1Q340.6 23.1 340.1 23.7Q339.6 24.2 339.6 25.1L339.6 25.1Q339.6 26.0 340.1 26.5Q340.6 27.0 341.5 27.0Q342.4 27.0 342.9 26.5Q343.4 26.0 343.4 25.1Q343.4 24.2 342.9 23.7Q342.3 23.1 341.5 23.1ZM347.1 32.7L347.1 32.7Q347.1 32.4 347.3 32.1Q347.6 31.9 348 31.9Q348.4 31.9 348.7 32.1Q348.9 32.4 348.9 32.7L348.9 32.7Q348.9 33.1 348.7 33.3Q348.4 33.6 348 33.6Q347.6 33.6 347.3 33.3Q347.1 33.1 347.1 32.7ZM358.0 25.1L358.0 25.1Q358.0 25.9 357.6 26.6Q357.1 27.3 356.4 27.6L356.4 27.6Q357.3 28.0 357.8 28.7Q358.3 29.5 358.3 30.4L358.3 30.4Q358.3 31.9 357.3 32.8Q356.3 33.6 354.7 33.6L354.7 33.6Q353.0 33.6 352.1 32.8Q351.1 31.9 351.1 30.4L351.1 30.4Q351.1 29.5 351.6 28.7Q352.1 28.0 353.0 27.6L353.0 27.6Q352.2 27.2 351.8 26.6Q351.3 25.9 351.3 25.1L351.3 25.1Q351.3 23.6 352.3 22.8Q353.2 22.0 354.7 22.0L354.7 22.0Q356.2 22.0 357.1 22.8Q358.0 23.6 358.0 25.1ZM356.9 30.4L356.9 30.4Q356.9 29.4 356.3 28.8Q355.6 28.2 354.7 28.2Q353.7 28.2 353.1 28.8Q352.5 29.4 352.5 30.4Q352.5 31.4 353.1 31.9Q353.7 32.5 354.7 32.5L354.7 32.5Q355.7 32.5 356.3 31.9Q356.9 31.3 356.9 30.4ZM354.7 23.1L354.7 23.1Q353.8 23.1 353.3 23.7Q352.8 24.2 352.8 25.1L352.8 25.1Q352.8 26.0 353.3 26.5Q353.8 27.0 354.7 27.0Q355.6 27.0 356.1 26.5Q356.6 26.0 356.6 25.1Q356.6 24.2 356.1 23.7Q355.5 23.1 354.7 23.1ZM360 24.8L360 24.3Q360 23.3 360.7 22.6Q361.3 21.9 362.3 21.9L362.3 21.9Q363.4 21.9 364.0 22.6Q364.7 23.3 364.7 24.3L364.7 24.3L364.7 24.9Q364.7 25.9 364.0 26.6Q363.4 27.2 362.3 27.2L362.3 27.2Q361.3 27.2 360.7 26.6Q360 25.9 360 24.8L360 24.8ZM361.1 24.3L361.1 24.9Q361.1 25.5 361.4 25.9Q361.8 26.3 362.3 26.3L362.3 26.3Q362.9 26.3 363.2 25.9Q363.6 25.5 363.6 24.9L363.6 24.9L363.6 24.3Q363.6 23.7 363.2 23.3Q362.9 22.9 362.3 22.9Q361.8 22.9 361.4 23.3Q361.1 23.7 361.1 24.3L361.1 24.3ZM365.5 31.3L365.5 30.7Q365.5 29.7 366.2 29.0Q366.8 28.4 367.9 28.4Q368.9 28.4 369.5 29.0Q370.2 29.7 370.2 30.7L370.2 30.7L370.2 31.3Q370.2 32.3 369.6 33.0Q368.9 33.6 367.9 33.6Q366.9 33.6 366.2 33.0Q365.5 32.3 365.5 31.3L365.5 31.3ZM366.6 30.7L366.6 31.3Q366.6 31.9 367.0 32.3Q367.3 32.7 367.9 32.7L367.9 32.7Q368.4 32.7 368.8 32.3Q369.1 31.9 369.1 31.3L369.1 31.3L369.1 30.7Q369.1 30.1 368.8 29.7Q368.4 29.3 367.9 29.3L367.9 29.3Q367.3 29.3 367.0 29.7Q366.6 30.1 366.6 30.7L366.6 30.7ZM368.2 23.7L362.7 32.6L361.9 32.1L367.4 23.2L368.2 23.7Z "/><mask id="satori_om-id-1-2"><rect x="0" y="47" width="103" height="19" fill="#fff"/></mask><mask id="satori_om-id-1-2-0"><rect x="0" y="48" width="16" height="16" fill="#fff"/></mask><mask id="satori_om-id-1-2-0-0"><rect x="4" y="52" width="8" height="8" fill="#fff"/></mask><path x="4" y="52" width="8" height="8" fill="#844FBA" d="M8,52 h0 a4,4 0 0 1 4,4 v0 a4,4 0 0 1 -4,4 h0 a4,4 0 0 1 -4,-4 v0 a4,4 0 0 1 4,-4"/><mask id="satori_om-id-1-2-1"><rect x="29" y="47" width="31" height="19" fill="#fff"/></mask><path fill="#24292f" d="M39.3 51.1L39.3 62.5L36.9 62.5L36.9 57.6L32.4 57.6L32.4 62.5L30.0 62.5L30.0 51.1L32.4 51.1L32.4 55.7L36.9 55.7L36.9 51.1L39.3 51.1ZM47.9 58.7L50.3 58.7Q50.1 60.5 48.9 61.6Q47.7 62.6 45.7 62.6L45.7 62.6Q43.5 62.6 42.2 61.2Q41.0 59.7 41.0 57.1L41.0 57.1L41.0 56.4Q41.0 54.8 41.6 53.5Q42.1 52.3 43.2 51.6Q44.3 51.0 45.7 51.0L45.7 51.0Q47.7 51.0 48.9 52.0Q50.1 53.1 50.3 55.0L50.3 55.0L47.9 55.0Q47.8 53.9 47.3 53.4Q46.8 52.9 45.7 52.9L45.7 52.9Q44.5 52.9 43.9 53.7Q43.4 54.6 43.4 56.3L43.4 56.3L43.4 57.2Q43.4 59.0 43.9 59.9Q44.5 60.7 45.7 60.7L45.7 60.7Q46.8 60.7 47.3 60.2Q47.8 59.7 47.9 58.7L47.9 58.7ZM54.1 51.1L54.1 60.6L59.1 60.6L59.1 62.5L51.8 62.5L51.8 51.1L54.1 51.1Z "/><mask id="satori_om-id-1-2-2"><rect x="69" y="47" width="34" height="19" fill="#fff"/></mask><path fill="#57606a" d="M77.3 51.1L77.3 51.9L72.6 62.5L71.1 62.5L75.8 52.3L69.6 52.3L69.6 51.1L77.3 51.1ZM79.1 61.7L79.1 61.7Q79.1 61.4 79.3 61.1Q79.6 60.9 80 60.9Q80.4 60.9 80.7 61.1Q80.9 61.4 80.9 61.7L80.9 61.7Q80.9 62.1 80.7 62.3Q80.4 62.6 80 62.6Q79.6 62.6 79.3 62.3Q79.1 62.1 79.1 61.7ZM90.0 54.1L90.0 54.1Q90.0 54.9 89.6 55.6Q89.1 56.3 88.4 56.6L88.4 56.6Q89.3 57.0 89.8 57.7Q90.3 58.5 90.3 59.4L90.3 59.4Q90.3 60.9 89.3 61.8Q88.3 62.6 86.7 62.6L86.7 62.6Q85.0 62.6 84.1 61.8Q83.1 60.9 83.1 59.4L83.1 59.4Q83.1 58.5 83.6 57.7Q84.1 57.0 85.0 56.6L85.0 56.6Q84.2 56.2 83.8 55.6Q83.3 54.9 83.3 54.1L83.3 54.1Q83.3 52.6 84.3 51.8Q85.2 51.0 86.7 51.0L86.7 51.0Q88.2 51.0 89.1 51.8Q90.0 52.6 90.0 54.1ZM88.9 59.4L88.9 59.4Q88.9 58.4 88.3 57.8Q87.6 57.2 86.7 57.2Q85.7 57.2 85.1 57.8Q84.5 58.4 84.5 59.4Q84.5 60.4 85.1 60.9Q85.7 61.5 86.7 61.5L86.7 61.5Q87.7 61.5 88.3 60.9Q88.9 60.3 88.9 59.4ZM86.7 52.1L86.7 52.1Q85.8 52.1 85.3 52.7Q84.8 53.2 84.8 54.1L84.8 54.1Q84.8 55.0 85.3 55.5Q85.8 56.0 86.7 56.0Q87.6 56.0 88.1 55.5Q88.6 55.0 88.6 54.1Q88.6 53.2 88.1 52.7Q87.5 52.1 86.7 52.1ZM92 53.8L92 53.3Q92 52.3 92.7 51.6Q93.3 50.9 94.3 50.9L94.3 50.9Q95.4 50.9 96.0 51.6Q96.7 52.3 96.7 53.3L96.7 53.3L96.7 53.9Q96.7 54.9 96.0 55.6Q95.4 56.2 94.3 56.2L94.3 56.2Q93.3 56.2 92.7 55.6Q92 54.9 92 53.8L92 53.8ZM93.1 53.3L93.1 53.9Q93.1 54.5 93.4 54.9Q93.8 55.3 94.3 55.3L94.3 55.3Q94.9 55.3 95.2 54.9Q95.6 54.5 95.6 53.9L95.6 53.9L95.6 53.3Q95.6 52.7 95.2 52.3Q94.9 51.9 94.3 51.9Q93.8 51.9 93.4 52.3Q93.1 52.7 93.1 53.3L93.1 53.3ZM97.5 60.3L97.5 59.7Q97.5 58.7 98.2 58.0Q98.8 57.4 99.9 57.4Q100.9 57.4 101.5 58.0Q102.2 58.7 102.2 59.7L102.2 59.7L102.2 60.3Q102.2 61.3 101.6 62.0Q100.9 62.6 99.9 62.6Q98.9 62.6 98.2 62.0Q97.5 61.3 97.5 60.3L97.5 60.3ZM98.6 59.7L98.6 60.3Q98.6 60.9 99.0 61.3Q99.3 61.7 99.9 61.7L99.9 61.7Q100.4 61.7 100.8 61.3Q101.1 60.9 101.1 60.3L101.1 60.3L101.1 59.7Q101.1 59.1 100.8 58.7Q100.4 58.3 99.9 58.3L99.9 58.3Q99.3 58.3 99.0 58.7Q98.6 59.1 98.6 59.7L98.6 59.7ZM100.2 52.7L94.7 61.6L93.9 61.1L99.4 52.2L100.2 52.7Z "/><mask id="satori_om-id-1-3"><rect x="113" y="47" width="123" height="19" fill="#fff"/></mask><mask id="satori_om-id-1-3-0"><rect x="113" y="48" width="16" height="16" fill="#fff"/></mask><mask id="satori_om-id-1-3-0-0"><rect x="117" y="52" width="8" height="8" fill="#fff"/></mask><path x="117" y="52" width="8" height="8" fill="#3572A5" d="M121,52 h0 a4,4 0 0 1 4,4 v0 a4,4 0 0 1 -4,4 h0 a4,4 0 0 1 -4,-4 v0 a4,4 0 0 1 4,-4"/><mask id="satori_om-id-1-3-1"><rect x="142" y="47" width="51" height="19" fill="#fff"/></mask><path fill="#24292f" d="M147.4 58.5L145.4 58.5L145.4 62.5L143.0 62.5L143.0 51.1L147.5 51.1Q148.7 51.1 149.7 51.6Q150.7 52.0 151.2 52.9Q151.7 53.8 151.7 54.9L151.7 54.9Q151.7 56.5 150.6 57.5Q149.4 58.5 147.4 58.5L147.4 58.5ZM145.4 53.0L145.4 56.6L147.5 56.6Q148.4 56.6 148.9 56.1Q149.4 55.7 149.4 54.9L149.4 54.9Q149.4 54.1 148.9 53.5Q148.4 53.0 147.5 53.0L147.5 53.0L145.4 53.0ZM154.9 54.0L156.5 59.3L158.0 54.0L160.4 54.0L157.0 63.8L156.9 64.2Q156.1 65.9 154.4 65.9L154.4 65.9Q153.9 65.9 153.4 65.7L153.4 65.7L153.4 64.0L153.7 64.0Q154.3 64.0 154.7 63.9Q155.0 63.7 155.2 63.2L155.2 63.2L155.4 62.5L152.5 54.0L154.9 54.0ZM161.8 52.0L164.0 52.0L164.0 54.0L165.5 54.0L165.5 55.7L164.0 55.7L164.0 59.9Q164.0 60.4 164.2 60.6Q164.4 60.8 164.9 60.8L164.9 60.8Q165.3 60.8 165.6 60.7L165.6 60.7L165.6 62.4Q164.9 62.6 164.2 62.6L164.2 62.6Q161.8 62.6 161.8 60.2L161.8 60.2L161.8 55.7L160.5 55.7L160.5 54.0L161.8 54.0L161.8 52.0ZM168.9 50.5L168.9 55.0Q169.8 53.9 171.2 53.9L171.2 53.9Q174.0 53.9 174.0 57.1L174.0 57.1L174.0 62.5L171.7 62.5L171.7 57.1Q171.7 56.4 171.4 56.1Q171.1 55.7 170.4 55.7L170.4 55.7Q169.4 55.7 168.9 56.5L168.9 56.5L168.9 62.5L166.7 62.5L166.7 50.5L168.9 50.5ZM175.3 58.3L175.3 58.2Q175.3 56.9 175.8 55.9Q176.3 55.0 177.2 54.4Q178.1 53.9 179.3 53.9L179.3 53.9Q181.0 53.9 182.1 54.9Q183.2 56.0 183.3 57.8L183.3 57.8L183.4 58.3Q183.4 60.3 182.3 61.5Q181.2 62.6 179.4 62.6Q177.5 62.6 176.4 61.5Q175.3 60.3 175.3 58.3L175.3 58.3ZM177.6 58.3L177.6 58.3Q177.6 59.5 178.1 60.2Q178.5 60.8 179.4 60.8L179.4 60.8Q180.2 60.8 180.6 60.2Q181.1 59.6 181.1 58.2L181.1 58.2Q181.1 57.0 180.6 56.4Q180.2 55.7 179.3 55.7L179.3 55.7Q178.5 55.7 178.1 56.3Q177.6 57.0 177.6 58.3ZM184.7 54.0L186.8 54.0L186.9 55.0Q187.8 53.9 189.3 53.9L189.3 53.9Q190.7 53.9 191.3 54.7Q192.0 55.5 192.0 57.0L192.0 57.0L192.0 62.5L189.7 62.5L189.7 57.1Q189.7 56.4 189.4 56.0Q189.1 55.7 188.4 55.7L188.4 55.7Q187.4 55.7 187.0 56.5L187.0 56.5L187.0 62.5L184.7 62.5L184.7 54.0Z "/><mask id="satori_om-id-1-3-2"><rect x="202" y="47" width="34" height="19" fill="#fff"/></mask><path fill="#57606a" d="M204.8 57.1L203.6 56.8L204.2 51.1L210.0 51.1L210.0 52.4L205.4 52.4L205.1 55.5Q205.9 55.1 207.0 55.1L207.0 55.1Q208.5 55.1 209.4 56.1Q210.4 57.1 210.4 58.9L210.4 58.9Q210.4 60.6 209.4 61.6Q208.5 62.6 206.8 62.6L206.8 62.6Q205.2 62.6 204.3 61.8Q203.3 61.0 203.2 59.5L203.2 59.5L204.6 59.5Q204.7 60.5 205.3 61.0Q205.8 61.5 206.8 61.5L206.8 61.5Q207.8 61.5 208.3 60.8Q208.9 60.1 208.9 58.9L208.9 58.9Q208.9 57.7 208.3 57.0Q207.7 56.4 206.6 56.4L206.6 56.4Q205.7 56.4 205.1 56.8L205.1 56.8L204.8 57.1ZM212.1 61.7L212.1 61.7Q212.1 61.4 212.3 61.1Q212.6 60.9 213 60.9Q213.4 60.9 213.7 61.1Q213.9 61.4 213.9 61.7L213.9 61.7Q213.9 62.1 213.7 62.3Q213.4 62.6 213 62.6Q212.6 62.6 212.3 62.3Q212.1 62.1 212.1 61.7ZM221.7 57.5L221.7 57.5Q221.2 58.0 220.6 58.4Q220.0 58.7 219.2 58.7L219.2 58.7Q218.2 58.7 217.5 58.2Q216.8 57.7 216.4 56.8Q216.0 56.0 216.0 54.9L216.0 54.9Q216.0 53.7 216.4 52.8Q216.8 51.9 217.6 51.4Q218.4 51.0 219.5 51.0L219.5 51.0Q221.2 51.0 222.2 52.2Q223.1 53.5 223.1 55.7L223.1 55.7L223.1 56.1Q223.1 59.4 221.8 60.9Q220.5 62.5 217.9 62.5L217.9 62.5L217.6 62.5L217.6 61.3L217.9 61.3Q219.7 61.2 220.6 60.3Q221.6 59.4 221.7 57.5ZM219.5 57.5L219.5 57.5Q220.2 57.5 220.8 57.0Q221.4 56.6 221.7 55.9L221.7 55.9L221.7 55.4Q221.7 53.9 221.1 53.0Q220.5 52.2 219.5 52.2L219.5 52.2Q218.6 52.2 218.0 52.9Q217.4 53.6 217.4 54.8L217.4 54.8Q217.4 56.0 218.0 56.7Q218.5 57.5 219.5 57.5ZM225 53.8L225 53.3Q225 52.3 225.7 51.6Q226.3 50.9 227.3 50.9L227.3 50.9Q228.4 50.9 229.0 51.6Q229.7 52.3 229.7 53.3L229.7 53.3L229.7 53.9Q229.7 54.9 229.0 55.6Q228.4 56.2 227.3 56.2L227.3 56.2Q226.3 56.2 225.7 55.6Q225 54.9 225 53.8L225 53.8ZM226.1 53.3L226.1 53.9Q226.1 54.5 226.4 54.9Q226.8 55.3 227.3 55.3L227.3 55.3Q227.9 55.3 228.2 54.9Q228.6 54.5 228.6 53.9L228.6 53.9L228.6 53.3Q228.6 52.7 228.2 52.3Q227.9 51.9 227.3 51.9Q226.8 51.9 226.4 52.3Q226.1 52.7 226.1 53.3L226.1 53.3ZM230.5 60.3L230.5 59.7Q230.5 58.7 231.2 58.0Q231.8 57.4 232.9 57.4Q233.9 57.4 234.5 58.0Q235.2 58.7 235.2 59.7L235.2 59.7L235.2 60.3Q235.2 61.3 234.6 62.0Q233.9 62.6 232.9 62.6Q231.9 62.6 231.2 62.0Q230.5 61.3 230.5 60.3L230.5 60.3ZM231.6 59.7L231.6 60.3Q231.6 60.9 232.0 61.3Q232.3 61.7 232.9 61.7L232.9 61.7Q233.4 61.7 233.8 61.3Q234.1 60.9 234.1 60.3L234.1 60.3L234.1 59.7Q234.1 59.1 233.8 58.7Q233.4 58.3 232.9 58.3L232.9 58.3Q232.3 58.3 232.0 58.7Q231.6 59.1 231.6 59.7L231.6 59.7ZM233.2 52.7L227.7 61.6L226.9 61.1L232.4 52.2L233.2 52.7Z "/><mask id="satori_om-id-1-4"><rect x="246" y="47" width="92" height="19" fill="#fff"/></mask><mask id="satori_om-id-1-4-0"><rect x="246" y="48" width="16" height="16" fill="#fff"/></mask><mask id="satori_om-id-1-4-0-0"><rect x="250" y="52" width="8" height="8" fill="#fff"/></mask><path x="250" y="52" width="8" height="8" fill="#00ADD8" d="M254,52 h0 a4,4 0 0 1 4,4 v0 a4,4 0 0 1 -4,4 h0 a4,4 0 0 1 -4,-4 v0 a4,4 0 0 1 4,-4"/><mask id="satori_om-id-1-4-1"><rect x="275" y="47" width="20" height="19" fill="#fff"/></mask><path fill="#24292f" d="M285.0 56.5L285.0 61.0Q284.4 61.8 283.2 62.2Q282.1 62.6 280.7 62.6L280.7 62.6Q279.2 62.6 278.1 62.0Q277.0 61.4 276.4 60.1Q275.8 58.9 275.7 57.2L275.7 57.2L275.7 56.5Q275.7 54.8 276.3 53.5Q276.9 52.3 278.0 51.6Q279.0 51.0 280.5 51.0L280.5 51.0Q282.5 51.0 283.7 51.9Q284.8 52.9 285.0 54.7L285.0 54.7L282.7 54.7Q282.6 53.7 282.0 53.3Q281.5 52.8 280.6 52.8L280.6 52.8Q279.4 52.8 278.8 53.7Q278.1 54.6 278.1 56.4L278.1 56.4L278.1 57.1Q278.1 58.9 278.8 59.8Q279.5 60.8 280.8 60.8L280.8 60.8Q282.1 60.8 282.7 60.2L282.7 60.2L282.7 58.2L280.5 58.2L280.5 56.5L285.0 56.5ZM286.4 58.3L286.4 58.2Q286.4 56.9 286.9 55.9Q287.4 55.0 288.3 54.4Q289.2 53.9 290.4 53.9L290.4 53.9Q292.1 53.9 293.2 54.9Q294.3 56.0 294.4 57.8L294.4 57.8L294.4 58.3Q294.4 60.3 293.3 61.5Q292.3 62.6 290.4 62.6Q288.6 62.6 287.5 61.5Q286.4 60.3 286.4 58.3L286.4 58.3ZM288.7 58.3L288.7 58.3Q288.7 59.5 289.1 60.2Q289.6 60.8 290.4 60.8L290.4 60.8Q291.2 60.8 291.7 60.2Q292.2 59.6 292.2 58.2L292.2 58.2Q292.2 57.0 291.7 56.4Q291.2 55.7 290.4 55.7L290.4 55.7Q289.6 55.7 289.1 56.3Q288.7 57.0 288.7 58.3Z "/><mask id="satori_om-id-1-4-2"><rect x="304" y="47" width="34" height="19" fill="#fff"/></mask><path fill="#57606a" d="M306.8 57.1L305.6 56.8L306.2 51.1L312.0 51.1L312.0 52.4L307.4 52.4L307.1 55.5Q307.9 55.1 309.0 55.1L309.0 55.1Q310.5 55.1 311.4 56.1Q312.4 57.1 312.4 58.9L312.4 58.9Q312.4 60.6 311.4 61.6Q310.5 62.6 308.8 62.6L308.8 62.6Q307.2 62.6 306.3 61.8Q305.3 61.0 305.2 59.5L305.2 59.5L306.6 59.5Q306.7 60.5 307.3 61.0Q307.8 61.5 308.8 61.5L308.8 61.5Q309.8 61.5 310.3 60.8Q310.9 60.1 310.9 58.9L310.9 58.9Q310.9 57.7 310.3 57.0Q309.7 56.4 308.6 56.4L308.6 56.4Q307.7 56.4 307.1 56.8L307.1 56.8L306.8 57.1ZM314.1 61.7L314.1 61.7Q314.1 61.4 314.3 61.1Q314.6 60.9 315 60.9Q315.4 60.9 315.7 61.1Q315.9 61.4 315.9 61.7L315.9 61.7Q315.9 62.1 315.7 62.3Q315.4 62.6 315 62.6Q314.6 62.6 314.3 62.3Q314.1 62.1 314.1 61.7ZM324.2 51.1L324.2 58.7L325.8 58.7L325.8 59.8L324.2 59.8L324.2 62.5L322.8 62.5L322.8 59.8L317.6 59.8L317.6 59.0L322.7 51.1L324.2 51.1ZM322.6 53.4L319.3 58.7L322.8 58.7L322.8 53.1L322.6 53.4ZM327 53.8L327 53.3Q327 52.3 327.7 51.6Q328.3 50.9 329.3 50.9L329.3 50.9Q330.4 50.9 331.0 51.6Q331.7 52.3 331.7 53.3L331.7 53.3L331.7 53.9Q331.7 54.9 331.0 55.6Q330.4 56.2 329.3 56.2L329.3 56.2Q328.3 56.2 327.7 55.6Q327 54.9 327 53.8L327 53.8ZM328.1 53.3L328.1 53.9Q328.1 54.5 328.4 54.9Q328.8 55.3 329.3 55.3L329.3 55.3Q329.9 55.3 330.2 54.9Q330.6 54.5 330.6 53.9L330.6 53.9L330.6 53.3Q330.6 52.7 330.2 52.3Q329.9 51.9 329.3 51.9Q328.8 51.9 328.4 52.3Q328.1 52.7 328.1 53.3L328.1 53.3ZM332.5 60.3L332.5 59.7Q332.5 58.7 333.2 58.0Q333.8 57.4 334.9 57.4Q335.9 57.4 336.5 58.0Q337.2 58.7 337.2 59.7L337.2 59.7L337.2 60.3Q337.2 61.3 336.6 62.0Q335.9 62.6 334.9 62.6Q333.9 62.6 333.2 62.0Q332.5 61.3 332.5 60.3L332.5 60.3ZM333.6 59.7L333.6 60.3Q333.6 60.9 334.0 61.3Q334.3 61.7 334.9 61.7L334.9 61.7Q335.4 61.7 335.8 61.3Q336.1 60.9 336.1 60.3L336.1 60.3L336.1 59.7Q336.1 59.1 335.8 58.7Q335.4 58.3 334.9 58.3L334.9 58.3Q334.3 58.3 334.0 58.7Q333.6 59.1 333.6 59.7L333.6 59.7ZM335.2 52.7L329.7 61.6L328.9 61.1L334.4 52.2L335.2 52.7Z "/><mask id="satori_om-id-1-5"><rect x="0" y="76" width="117" height="18" fill="#fff"/></mask><mask id="satori_om-id-1-5-0"><rect x="0" y="77" width="16" height="16" fill="#fff"/></mask><mask id="satori_om-id-1-5-0-0"><rect x="4" y="81" width="8" height="8" fill="#fff"/></mask><path x="4" y="81" width="8" height="8" fill="#ff3e00" d="M8,81 h0 a4,4 0 0 1 4,4 v0 a4,4 0 0 1 -4,4 h0 a4,4 0 0 1 -4,-4 v0 a4,4 0 0 1 4,-4"/><mask id="satori_om-id-1-5-1"><rect x="29" y="76" width="45" height="18" fill="#fff"/></mask><path fill="#24292f" d="M35.9 88.5L35.9 88.5Q35.9 87.8 35.4 87.5Q35.0 87.1 33.8 86.7Q32.5 86.3 31.8 86.0L31.8 86.0Q29.9 84.9 29.9 83.1L29.9 83.1Q29.9 82.2 30.4 81.5Q30.9 80.8 31.9 80.4Q32.9 80.0 34.1 80.0L34.1 80.0Q35.3 80.0 36.3 80.4Q37.2 80.8 37.7 81.6Q38.3 82.4 38.3 83.5L38.3 83.5L35.9 83.5Q35.9 82.7 35.4 82.3Q34.9 81.8 34.0 81.8L34.0 81.8Q33.2 81.8 32.7 82.2Q32.2 82.5 32.2 83.1L32.2 83.1Q32.2 83.7 32.8 84.1Q33.4 84.4 34.4 84.8L34.4 84.8Q36.4 85.4 37.4 86.3Q38.3 87.2 38.3 88.5L38.3 88.5Q38.3 90.0 37.1 90.8Q36.0 91.6 34.1 91.6L34.1 91.6Q32.8 91.6 31.8 91.2Q30.7 90.7 30.1 89.8Q29.5 89.0 29.5 87.9L29.5 87.9L31.9 87.9Q31.9 89.8 34.1 89.8L34.1 89.8Q35.0 89.8 35.4 89.4Q35.9 89.1 35.9 88.5ZM41.3 83.0L42.9 88.7L44.4 83.0L46.8 83.0L43.9 91.5L41.8 91.5L38.9 83.0L41.3 83.0ZM51.6 91.6L51.6 91.6Q49.7 91.6 48.6 90.5Q47.4 89.4 47.4 87.5L47.4 87.5L47.4 87.2Q47.4 86.0 47.9 85.0Q48.4 84.0 49.3 83.4Q50.2 82.9 51.3 82.9L51.3 82.9Q53.1 82.9 54.1 84.0Q55.1 85.1 55.1 87.1L55.1 87.1L55.1 88.0L49.7 88.0Q49.8 88.8 50.3 89.3Q50.9 89.8 51.7 89.8L51.7 89.8Q53.0 89.8 53.8 88.9L53.8 88.9L54.9 90.1Q54.4 90.8 53.5 91.2Q52.6 91.6 51.6 91.6ZM51.3 84.7L51.3 84.7Q50.6 84.7 50.2 85.2Q49.8 85.6 49.7 86.5L49.7 86.5L52.8 86.5L52.8 86.3Q52.8 85.5 52.4 85.1Q52.0 84.7 51.3 84.7ZM58.7 79.5L58.7 91.5L56.5 91.5L56.5 79.5L58.7 79.5ZM61.0 81.0L63.3 81.0L63.3 83.0L64.7 83.0L64.7 84.7L63.3 84.7L63.3 88.9Q63.3 89.4 63.5 89.6Q63.6 89.8 64.1 89.8L64.1 89.8Q64.5 89.8 64.8 89.7L64.8 89.7L64.8 91.4Q64.1 91.6 63.4 91.6L63.4 91.6Q61.1 91.6 61.0 89.2L61.0 89.2L61.0 84.7L59.8 84.7L59.8 83.0L61.0 83.0L61.0 81.0ZM69.9 91.6L69.9 91.6Q68.0 91.6 66.8 90.5Q65.7 89.4 65.7 87.5L65.7 87.5L65.7 87.2Q65.7 86.0 66.2 85.0Q66.7 84.0 67.6 83.4Q68.5 82.9 69.6 82.9L69.6 82.9Q71.4 82.9 72.4 84.0Q73.4 85.1 73.4 87.1L73.4 87.1L73.4 88.0L68.0 88.0Q68.1 88.8 68.6 89.3Q69.2 89.8 70.0 89.8L70.0 89.8Q71.3 89.8 72.1 88.9L72.1 88.9L73.2 90.1Q72.7 90.8 71.8 91.2Q70.9 91.6 69.9 91.6ZM69.6 84.7L69.6 84.7Q68.9 84.7 68.5 85.2Q68.1 85.6 68.0 86.5L68.0 86.5L71.1 86.5L71.1 86.3Q71.1 85.5 70.7 85.1Q70.3 84.7 69.6 84.7Z "/><mask id="satori_om-id-1-5-2"><rect x="83" y="76" width="34" height="18" fill="#fff"/></mask><path fill="#57606a" d="M90.0 80.1L90.0 87.7L91.6 87.7L91.6 88.8L90.0 88.8L90.0 91.5L88.6 91.5L88.6 88.8L83.4 88.8L83.4 88.0L88.5 80.1L90.0 80.1ZM88.4 82.4L85.1 87.7L88.6 87.7L88.6 82.1L88.4 82.4ZM93.1 90.7L93.1 90.7Q93.1 90.4 93.3 90.1Q93.6 89.9 94 89.9Q94.4 89.9 94.7 90.1Q94.9 90.4 94.9 90.7L94.9 90.7Q94.9 91.1 94.7 91.3Q94.4 91.6 94 91.6Q93.6 91.6 93.3 91.3Q93.1 91.1 93.1 90.7ZM103.2 80.1L103.2 87.7L104.8 87.7L104.8 88.8L103.2 88.8L103.2 91.5L101.8 91.5L101.8 88.8L96.6 88.8L96.6 88.0L101.7 80.1L103.2 80.1ZM101.6 82.4L98.3 87.7L101.8 87.7L101.8 82.1L101.6 82.4ZM106 82.8L106 82.3Q106 81.3 106.7 80.6Q107.3 79.9 108.3 79.9L108.3 79.9Q109.4 79.9 110.0 80.6Q110.7 81.3 110.7 82.3L110.7 82.3L110.7 82.9Q110.7 83.9 110.0 84.6Q109.4 85.2 108.3 85.2L108.3 85.2Q107.3 85.2 106.7 84.6Q106 83.9 106 82.8L106 82.8ZM107.1 82.3L107.1 82.9Q107.1 83.5 107.4 83.9Q107.8 84.3 108.3 84.3L108.3 84.3Q108.9 84.3 109.2 83.9Q109.6 83.5 109.6 82.9L109.6 82.9L109.6 82.3Q109.6 81.7 109.2 81.3Q108.9 80.9 108.3 80.9Q107.8 80.9 107.4 81.3Q107.1 81.7 107.1 82.3L107.1 82.3ZM111.5 89.3L111.5 88.7Q111.5 87.7 112.2 87.0Q112.8 86.4 113.9 86.4Q114.9 86.4 115.5 87.0Q116.2 87.7 116.2 88.7L116.2 88.7L116.2 89.3Q116.2 90.3 115.6 91.0Q114.9 91.6 113.9 91.6Q112.9 91.6 112.2 91.0Q111.5 90.3 111.5 89.3L111.5 89.3ZM112.6 88.7L112.6 89.3Q112.6 89.9 113.0 90.3Q113.3 90.7 113.9 90.7L113.9 90.7Q114.4 90.7 114.8 90.3Q115.1 89.9 115.1 89.3L115.1 89.3L115.1 88.7Q115.1 88.1 114.8 87.7Q114.4 87.3 113.9 87.3L113.9 87.3Q113.3 87.3 113.0 87.7Q112.6 88.1 112.6 88.7L112.6 88.7ZM114.2 81.7L108.7 90.6L107.9 90.1L113.4 81.2L114.2 81.7Z "/><mask id="satori_om-id-1-6"><rect x="127" y="76" width="149" height="18" fill="#fff"/></mask><mask id="satori_om-id-1-6-0"><rect x="127" y="77" width="16" height="16" fill="#fff"/></mask><mask id="satori_om-id-1-6-0-0"><rect x="131" y="81" width="8" height="8" fill="#fff"/></mask><path x="131" y="81" width="8" height="8" fill="#f1e05a" d="M135,81 h0 a4,4 0 0 1 4,4 v0 a4,4 0 0 1 -4,4 h0 a4,4 0 0 1 -4,-4 v0 a4,4 0 0 1 4,-4"/><mask id="satori_om-id-1-6-1"><rect x="156" y="76" width="77" height="18" fill="#fff"/></mask><path fill="#24292f" d="M161.6 88.0L161.6 80.1L163.9 80.1L163.9 88.0Q163.9 89.1 163.5 89.9Q163.0 90.7 162.1 91.2Q161.2 91.6 160.1 91.6L160.1 91.6Q158.3 91.6 157.3 90.7Q156.3 89.8 156.3 88.1L156.3 88.1L158.7 88.1Q158.7 89.0 159.0 89.4Q159.4 89.8 160.1 89.8L160.1 89.8Q160.8 89.8 161.2 89.3Q161.6 88.8 161.6 88.0L161.6 88.0ZM173.0 91.5L170.7 91.5Q170.5 91.2 170.5 90.7L170.5 90.7Q169.7 91.6 168.3 91.6L168.3 91.6Q167.1 91.6 166.3 90.9Q165.5 90.2 165.5 89.1L165.5 89.1Q165.5 87.8 166.5 87.0Q167.5 86.3 169.3 86.3L169.3 86.3L170.4 86.3L170.4 85.8Q170.4 85.2 170.1 84.9Q169.8 84.5 169.1 84.5L169.1 84.5Q168.6 84.5 168.2 84.8Q167.9 85.1 167.9 85.6L167.9 85.6L165.7 85.6Q165.7 84.8 166.1 84.2Q166.6 83.6 167.4 83.2Q168.2 82.9 169.3 82.9L169.3 82.9Q170.8 82.9 171.7 83.7Q172.6 84.4 172.6 85.9L172.6 85.9L172.6 89.5Q172.7 90.7 173.0 91.4L173.0 91.4L173.0 91.5ZM168.8 89.9L168.8 89.9Q169.3 89.9 169.8 89.7Q170.2 89.5 170.4 89.1L170.4 89.1L170.4 87.6L169.5 87.6Q167.8 87.6 167.7 88.8L167.7 88.8L167.7 88.9Q167.7 89.4 168.0 89.6Q168.3 89.9 168.8 89.9ZM175.9 83.0L177.4 88.7L179 83.0L181.4 83.0L178.5 91.5L176.4 91.5L173.5 83.0L175.9 83.0ZM189.4 91.5L187.1 91.5Q187.0 91.2 186.9 90.7L186.9 90.7Q186.1 91.6 184.8 91.6L184.8 91.6Q183.5 91.6 182.7 90.9Q181.9 90.2 181.9 89.1L181.9 89.1Q181.9 87.8 182.9 87.0Q183.9 86.3 185.8 86.3L185.8 86.3L186.8 86.3L186.8 85.8Q186.8 85.2 186.5 84.9Q186.2 84.5 185.6 84.5L185.6 84.5Q185.0 84.5 184.7 84.8Q184.3 85.1 184.3 85.6L184.3 85.6L182.1 85.6Q182.1 84.8 182.5 84.2Q183.0 83.6 183.8 83.2Q184.6 82.9 185.7 82.9L185.7 82.9Q187.2 82.9 188.2 83.7Q189.1 84.4 189.1 85.9L189.1 85.9L189.1 89.5Q189.1 90.7 189.4 91.4L189.4 91.4L189.4 91.5ZM185.3 89.9L185.3 89.9Q185.8 89.9 186.2 89.7Q186.6 89.5 186.8 89.1L186.8 89.1L186.8 87.6L186.0 87.6Q184.3 87.6 184.2 88.8L184.2 88.8L184.2 88.9Q184.2 89.4 184.5 89.6Q184.8 89.9 185.3 89.9ZM196.9 88.5L196.9 88.5Q196.9 87.8 196.4 87.5Q195.9 87.1 194.7 86.7Q193.5 86.3 192.8 86.0L192.8 86.0Q190.8 84.9 190.8 83.1L190.8 83.1Q190.8 82.2 191.4 81.5Q191.9 80.8 192.8 80.4Q193.8 80.0 195.0 80.0L195.0 80.0Q196.3 80.0 197.2 80.4Q198.2 80.8 198.7 81.6Q199.2 82.4 199.2 83.5L199.2 83.5L196.9 83.5Q196.9 82.7 196.4 82.3Q195.9 81.8 195.0 81.8L195.0 81.8Q194.1 81.8 193.7 82.2Q193.2 82.5 193.2 83.1L193.2 83.1Q193.2 83.7 193.7 84.1Q194.3 84.4 195.4 84.8L195.4 84.8Q197.4 85.4 198.3 86.3Q199.2 87.2 199.2 88.5L199.2 88.5Q199.2 90.0 198.1 90.8Q197.0 91.6 195.1 91.6L195.1 91.6Q193.8 91.6 192.7 91.2Q191.6 90.7 191.1 89.8Q190.5 89.0 190.5 87.9L190.5 87.9L192.8 87.9Q192.8 89.8 195.1 89.8L195.1 89.8Q195.9 89.8 196.4 89.4Q196.9 89.1 196.9 88.5ZM204.2 89.8L204.2 89.8Q204.8 89.8 205.2 89.5Q205.6 89.1 205.6 88.6L205.6 88.6L207.7 88.6Q207.7 89.4 207.2 90.1Q206.8 90.9 206.0 91.2Q205.2 91.6 204.2 91.6L204.2 91.6Q202.4 91.6 201.3 90.5Q200.3 89.3 200.3 87.3L200.3 87.3L200.3 87.2Q200.3 85.2 201.3 84.0Q202.4 82.9 204.2 82.9L204.2 82.9Q205.8 82.9 206.7 83.8Q207.7 84.7 207.7 86.2L207.7 86.2L205.6 86.2Q205.6 85.5 205.2 85.1Q204.8 84.7 204.1 84.7L204.1 84.7Q203.4 84.7 203.0 85.3Q202.6 85.9 202.6 87.1L202.6 87.1L202.6 87.4Q202.6 88.7 203.0 89.2Q203.4 89.8 204.2 89.8ZM213.8 83.0L213.7 85.1Q213.3 85.1 212.9 85.1L212.9 85.1Q211.6 85.1 211.3 86.0L211.3 86.0L211.3 91.5L209.0 91.5L209.0 83.0L211.1 83.0L211.2 84.0Q211.9 82.9 213.1 82.9L213.1 82.9Q213.4 82.9 213.8 83.0L213.8 83.0ZM217.2 83.0L217.2 91.5L214.9 91.5L214.9 83.0L217.2 83.0ZM214.8 80.8L214.8 80.8Q214.8 80.3 215.2 80.0Q215.5 79.7 216.1 79.7L216.1 79.7Q216.7 79.7 217 80.0Q217.3 80.3 217.3 80.8L217.3 80.8Q217.3 81.4 217.0 81.7Q216.6 82.0 216.1 82.0Q215.5 82.0 215.2 81.7Q214.8 81.4 214.8 80.8ZM226.7 87.2L226.7 87.3Q226.7 89.3 225.8 90.5Q224.9 91.6 223.4 91.6L223.4 91.6Q222.1 91.6 221.3 90.7L221.3 90.7L221.3 94.7L219.1 94.7L219.1 83.0L221.2 83.0L221.2 83.9Q222.1 82.9 223.4 82.9L223.4 82.9Q224.9 82.9 225.8 84.0Q226.7 85.2 226.7 87.2L226.7 87.2ZM224.4 87.2L224.4 87.2Q224.4 86.0 224.0 85.4Q223.6 84.7 222.8 84.7L222.8 84.7Q221.7 84.7 221.3 85.5L221.3 85.5L221.3 89.0Q221.7 89.8 222.8 89.8L222.8 89.8Q224.4 89.8 224.4 87.2ZM228.5 81.0L230.8 81.0L230.8 83.0L232.2 83.0L232.2 84.7L230.8 84.7L230.8 88.9Q230.8 89.4 231.0 89.6Q231.1 89.8 231.6 89.8L231.6 89.8Q232.0 89.8 232.3 89.7L232.3 89.7L232.3 91.4Q231.6 91.6 230.9 91.6L230.9 91.6Q228.6 91.6 228.5 89.2L228.5 89.2L228.5 84.7L227.3 84.7L227.3 83.0L228.5 83.0L228.5 81.0Z "/><mask id="satori_om-id-1-6-2"><rect x="242" y="76" width="34" height="18" fill="#fff"/></mask><path fill="#57606a" d="M249.0 80.1L249.0 87.7L250.6 87.7L250.6 88.8L249.0 88.8L249.0 91.5L247.6 91.5L247.6 88.8L242.4 88.8L242.4 88.0L247.5 80.1L249.0 80.1ZM247.4 82.4L244.1 87.7L247.6 87.7L247.6 82.1L247.4 82.4ZM252.1 90.7L252.1 90.7Q252.1 90.4 252.3 90.1Q252.6 89.9 253 89.9Q253.4 89.9 253.7 90.1Q253.9 90.4 253.9 90.7L253.9 90.7Q253.9 91.1 253.7 91.3Q253.4 91.6 253 91.6Q252.6 91.6 252.3 91.3Q252.1 91.1 252.1 90.7ZM260.9 80.1L260.9 91.5L259.4 91.5L259.4 81.9L256.5 82.9L256.5 81.6L260.7 80.1L260.9 80.1ZM265 82.8L265 82.3Q265 81.3 265.7 80.6Q266.3 79.9 267.3 79.9L267.3 79.9Q268.4 79.9 269.0 80.6Q269.7 81.3 269.7 82.3L269.7 82.3L269.7 82.9Q269.7 83.9 269.0 84.6Q268.4 85.2 267.3 85.2L267.3 85.2Q266.3 85.2 265.7 84.6Q265 83.9 265 82.8L265 82.8ZM266.1 82.3L266.1 82.9Q266.1 83.5 266.4 83.9Q266.8 84.3 267.3 84.3L267.3 84.3Q267.9 84.3 268.2 83.9Q268.6 83.5 268.6 82.9L268.6 82.9L268.6 82.3Q268.6 81.7 268.2 81.3Q267.9 80.9 267.3 80.9Q266.8 80.9 266.4 81.3Q266.1 81.7 266.1 82.3L266.1 82.3ZM270.5 89.3L270.5 88.7Q270.5 87.7 271.2 87.0Q271.8 86.4 272.9 86.4Q273.9 86.4 274.5 87.0Q275.2 87.7 275.2 88.7L275.2 88.7L275.2 89.3Q275.2 90.3 274.6 91.0Q273.9 91.6 272.9 91.6Q271.9 91.6 271.2 91.0Q270.5 90.3 270.5 89.3L270.5 89.3ZM271.6 88.7L271.6 89.3Q271.6 89.9 272.0 90.3Q272.3 90.7 272.9 90.7L272.9 90.7Q273.4 90.7 273.8 90.3Q274.1 89.9 274.1 89.3L274.1 89.3L274.1 88.7Q274.1 88.1 273.8 87.7Q273.4 87.3 272.9 87.3L272.9 87.3Q272.3 87.3 272.0 87.7Q271.6 88.1 271.6 88.7L271.6 88.7ZM273.2 81.7L267.7 90.6L266.9 90.1L272.4 81.2L273.2 81.7Z "/><mask id="satori_om-id-1-7"><rect x="0" y="104" width="116" height="19" fill="#fff"/></mask><mask id="satori_om-id-1-7-0"><rect x="0" y="105" width="16" height="16" fill="#fff"/></mask><mask id="satori_om-id-1-7-0-0"><rect x="4" y="109" width="8" height="8" fill="#fff"/></mask><path x="4" y="109" width="8" height="8" fill="#e34c26" d="M8,109 h0 a4,4 0 0 1 4,4 v0 a4,4 0 0 1 -4,4 h0 a4,4 0 0 1 -4,-4 v0 a4,4 0 0 1 4,-4"/><mask id="satori_om-id-1-7-1"><rect x="29" y="104" width="44" height="19" fill="#fff"/></mask><path fill="#24292f" d="M39.3 108.1L39.3 119.5L36.9 119.5L36.9 114.6L32.4 114.6L32.4 119.5L30.0 119.5L30.0 108.1L32.4 108.1L32.4 112.7L36.9 112.7L36.9 108.1L39.3 108.1ZM49.7 108.1L49.7 110.0L46.2 110.0L46.2 119.5L43.8 119.5L43.8 110.0L40.4 110.0L40.4 108.1L49.7 108.1ZM51.0 108.1L54.1 108.1L57.0 116.4L59.9 108.1L63.0 108.1L63.0 119.5L60.6 119.5L60.6 116.4L60.8 111.0L57.8 119.5L56.2 119.5L53.1 111.0L53.3 116.4L53.3 119.5L51.0 119.5L51.0 108.1ZM67.4 108.1L67.4 117.6L72.3 117.6L72.3 119.5L65.0 119.5L65.0 108.1L67.4 108.1Z "/><mask id="satori_om-id-1-7-2"><rect x="82" y="104" width="34" height="19" fill="#fff"/></mask><path fill="#57606a" d="M85.0 114.3L85.0 113.1L86.1 113.1Q87.2 113.1 87.7 112.6Q88.3 112.0 88.3 111.1L88.3 111.1Q88.3 109.1 86.3 109.1L86.3 109.1Q85.4 109.1 84.8 109.7Q84.3 110.2 84.3 111.1L84.3 111.1L82.8 111.1Q82.8 109.7 83.8 108.8Q84.8 108.0 86.3 108.0L86.3 108.0Q87.9 108.0 88.9 108.8Q89.8 109.7 89.8 111.2L89.8 111.2Q89.8 111.9 89.3 112.6Q88.8 113.3 88.0 113.6L88.0 113.6Q88.9 113.9 89.4 114.6Q89.9 115.3 89.9 116.3L89.9 116.3Q89.9 117.8 88.9 118.7Q87.9 119.6 86.3 119.6Q84.7 119.6 83.7 118.8Q82.7 117.9 82.7 116.5L82.7 116.5L84.2 116.5Q84.2 117.4 84.8 117.9Q85.4 118.5 86.3 118.5L86.3 118.5Q87.4 118.5 87.9 117.9Q88.5 117.4 88.5 116.3L88.5 116.3Q88.5 115.4 87.9 114.8Q87.3 114.3 86.1 114.3L86.1 114.3L85.0 114.3ZM92.1 118.7L92.1 118.7Q92.1 118.4 92.3 118.1Q92.6 117.9 93 117.9Q93.4 117.9 93.7 118.1Q93.9 118.4 93.9 118.7L93.9 118.7Q93.9 119.1 93.7 119.3Q93.4 119.6 93 119.6Q92.6 119.6 92.3 119.3Q92.1 119.1 92.1 118.7ZM103.3 112.8L103.3 114.6Q103.3 117.2 102.4 118.4Q101.5 119.6 99.7 119.6L99.7 119.6Q97.9 119.6 97 118.4Q96.1 117.2 96.1 114.8L96.1 114.8L96.1 112.9Q96.1 110.4 97.0 109.2Q97.8 108.0 99.7 108.0L99.7 108.0Q101.5 108.0 102.4 109.1Q103.3 110.3 103.3 112.8L103.3 112.8ZM101.8 115.0L101.8 112.7Q101.8 110.8 101.3 110.0Q100.8 109.1 99.7 109.1L99.7 109.1Q98.6 109.1 98.1 110.0Q97.6 110.8 97.5 112.5L97.5 112.5L97.5 114.9Q97.5 116.7 98.1 117.6Q98.6 118.5 99.7 118.5L99.7 118.5Q100.8 118.5 101.3 117.6Q101.8 116.8 101.8 115.0L101.8 115.0ZM105 110.8L105 110.3Q105 109.3 105.7 108.6Q106.3 107.9 107.3 107.9L107.3 107.9Q108.4 107.9 109.0 108.6Q109.7 109.3 109.7 110.3L109.7 110.3L109.7 110.9Q109.7 111.9 109.0 112.6Q108.4 113.2 107.3 113.2L107.3 113.2Q106.3 113.2 105.7 112.6Q105 111.9 105 110.8L105 110.8ZM106.1 110.3L106.1 110.9Q106.1 111.5 106.4 111.9Q106.8 112.3 107.3 112.3L107.3 112.3Q107.9 112.3 108.2 111.9Q108.6 111.5 108.6 110.9L108.6 110.9L108.6 110.3Q108.6 109.7 108.2 109.3Q107.9 108.9 107.3 108.9Q106.8 108.9 106.4 109.3Q106.1 109.7 106.1 110.3L106.1 110.3ZM110.5 117.3L110.5 116.7Q110.5 115.7 111.2 115.0Q111.8 114.4 112.9 114.4Q113.9 114.4 114.5 115.0Q115.2 115.7 115.2 116.7L115.2 116.7L115.2 117.3Q115.2 118.3 114.6 119.0Q113.9 119.6 112.9 119.6Q111.9 119.6 111.2 119.0Q110.5 118.3 110.5 117.3L110.5 117.3ZM111.6 116.7L111.6 117.3Q111.6 117.9 112.0 118.3Q112.3 118.7 112.9 118.7L112.9 118.7Q113.4 118.7 113.8 118.3Q114.1 117.9 114.1 117.3L114.1 117.3L114.1 116.7Q114.1 116.1 113.8 115.7Q113.4 115.3 112.9 115.3L112.9 115.3Q112.3 115.3 112.0 115.7Q111.6 116.1 111.6 116.7L111.6 116.7ZM113.2 109.7L107.7 118.6L106.9 118.1L112.4 109.2L113.2 109.7Z "/><mask id="satori_om-id-1-8"><rect x="126" y="104" width="83" height="19" fill="#fff"/></mask><mask id="satori_om-id-1-8-0"><rect x="126" y="105" width="16" height="16" fill="#fff"/></mask><mask id="satori_om-id-1-8-0-0"><rect x="130" y="109" width="8" height="8" fill="#fff"/></mask><path x="130" y="109" width="8" height="8" fill="#555555" d="M134,109 h0 a4,4 0 0 1 4,4 v0 a4,4 0 0 1 -4,4 h0 a4,4 0 0 1 -4,-4 v0 a4,4 0 0 1 4,-4"/><mask id="satori_om-id-1-8-1"><rect x="155" y="104" width="11" height="19" fill="#fff"/></mask><path fill="#24292f" d="M162.6 115.7L164.9 115.7Q164.8 117.5 163.6 118.6Q162.4 119.6 160.4 119.6L160.4 119.6Q158.2 119.6 156.9 118.2Q155.7 116.7 155.7 114.1L155.7 114.1L155.7 113.4Q155.7 111.8 156.3 110.5Q156.8 109.3 157.9 108.6Q159.0 108.0 160.4 108.0L160.4 108.0Q162.4 108.0 163.6 109.0Q164.8 110.1 165.0 112.0L165.0 112.0L162.6 112.0Q162.5 110.9 162.0 110.4Q161.5 109.9 160.4 109.9L160.4 109.9Q159.2 109.9 158.6 110.7Q158.1 111.6 158.0 113.3L158.0 113.3L158.0 114.2Q158.0 116.0 158.6 116.9Q159.2 117.7 160.4 117.7L160.4 117.7Q161.5 117.7 162.0 117.2Q162.5 116.7 162.6 115.7L162.6 115.7Z "/><mask id="satori_om-id-1-8-2"><rect x="175" y="104" width="34" height="19" fill="#fff"/></mask><path fill="#57606a" d="M183.4 118.3L183.4 119.5L175.9 119.5L175.9 118.4L179.9 114.1Q180.8 113.1 181.1 112.5Q181.4 111.8 181.4 111.2L181.4 111.2Q181.4 110.3 180.9 109.7Q180.3 109.1 179.4 109.1L179.4 109.1Q178.4 109.1 177.8 109.8Q177.2 110.4 177.2 111.5L177.2 111.5L175.7 111.5Q175.7 109.9 176.7 108.9Q177.8 108.0 179.4 108.0L179.4 108.0Q181.0 108.0 182.0 108.8Q182.9 109.6 182.9 111.0L182.9 111.0Q182.9 112.7 180.7 115.0L180.7 115.0L177.7 118.3L183.4 118.3ZM185.1 118.7L185.1 118.7Q185.1 118.4 185.3 118.1Q185.6 117.9 186 117.9Q186.4 117.9 186.7 118.1Q186.9 118.4 186.9 118.7L186.9 118.7Q186.9 119.1 186.7 119.3Q186.4 119.6 186 119.6Q185.6 119.6 185.3 119.3Q185.1 119.1 185.1 118.7ZM196.0 111.1L196.0 111.1Q196.0 111.9 195.6 112.6Q195.1 113.3 194.4 113.6L194.4 113.6Q195.3 114.0 195.8 114.7Q196.3 115.5 196.3 116.4L196.3 116.4Q196.3 117.9 195.3 118.8Q194.3 119.6 192.7 119.6L192.7 119.6Q191.0 119.6 190.1 118.8Q189.1 117.9 189.1 116.4L189.1 116.4Q189.1 115.5 189.6 114.7Q190.1 114.0 191.0 113.6L191.0 113.6Q190.2 113.2 189.8 112.6Q189.3 111.9 189.3 111.1L189.3 111.1Q189.3 109.6 190.3 108.8Q191.2 108.0 192.7 108.0L192.7 108.0Q194.2 108.0 195.1 108.8Q196.0 109.6 196.0 111.1ZM194.9 116.4L194.9 116.4Q194.9 115.4 194.3 114.8Q193.6 114.2 192.7 114.2Q191.7 114.2 191.1 114.8Q190.5 115.4 190.5 116.4Q190.5 117.4 191.1 117.9Q191.7 118.5 192.7 118.5L192.7 118.5Q193.7 118.5 194.3 117.9Q194.9 117.3 194.9 116.4ZM192.7 109.1L192.7 109.1Q191.8 109.1 191.3 109.7Q190.8 110.2 190.8 111.1L190.8 111.1Q190.8 112.0 191.3 112.5Q191.8 113.0 192.7 113.0Q193.6 113.0 194.1 112.5Q194.6 112.0 194.6 111.1Q194.6 110.2 194.1 109.7Q193.5 109.1 192.7 109.1ZM198 110.8L198 110.3Q198 109.3 198.7 108.6Q199.3 107.9 200.3 107.9L200.3 107.9Q201.4 107.9 202.0 108.6Q202.7 109.3 202.7 110.3L202.7 110.3L202.7 110.9Q202.7 111.9 202.0 112.6Q201.4 113.2 200.3 113.2L200.3 113.2Q199.3 113.2 198.7 112.6Q198 111.9 198 110.8L198 110.8ZM199.1 110.3L199.1 110.9Q199.1 111.5 199.4 111.9Q199.8 112.3 200.3 112.3L200.3 112.3Q200.9 112.3 201.2 111.9Q201.6 111.5 201.6 110.9L201.6 110.9L201.6 110.3Q201.6 109.7 201.2 109.3Q200.9 108.9 200.3 108.9Q199.8 108.9 199.4 109.3Q199.1 109.7 199.1 110.3L199.1 110.3ZM203.5 117.3L203.5 116.7Q203.5 115.7 204.2 115.0Q204.8 114.4 205.9 114.4Q206.9 114.4 207.5 115.0Q208.2 115.7 208.2 116.7L208.2 116.7L208.2 117.3Q208.2 118.3 207.6 119.0Q206.9 119.6 205.9 119.6Q204.9 119.6 204.2 119.0Q203.5 118.3 203.5 117.3L203.5 117.3ZM204.6 116.7L204.6 117.3Q204.6 117.9 205.0 118.3Q205.3 118.7 205.9 118.7L205.9 118.7Q206.4 118.7 206.8 118.3Q207.1 117.9 207.1 117.3L207.1 117.3L207.1 116.7Q207.1 116.1 206.8 115.7Q206.4 115.3 205.9 115.3L205.9 115.3Q205.3 115.3 205.0 115.7Q204.6 116.1 204.6 116.7L204.6 116.7ZM206.2 109.7L200.7 118.6L199.9 118.1L205.4 109.2L206.2 109.7Z "/><mask id="satori_om-id-1-9"><rect x="219" y="104" width="112" height="19" fill="#fff"/></mask><mask id="satori_om-id-1-9-0"><rect x="219" y="105" width="16" height="16" fill="#fff"/></mask><mask id="satori_om-id-1-9-0-0"><rect x="223" y="109" width="8" height="8" fill="#fff"/></mask><path x="223" y="109" width="8" height="8" fill="#ff5a03" d="M227,109 h0 a4,4 0 0 1 4,4 v0 a4,4 0 0 1 -4,4 h0 a4,4 0 0 1 -4,-4 v0 a4,4 0 0 1 4,-4"/><mask id="satori_om-id-1-9-1"><rect x="248" y="104" width="40" height="19" fill="#fff"/></mask><path fill="#24292f" d="M256.2 119.5L255.4 117.1L251.3 117.1L250.5 119.5L248.1 119.5L252.3 108.1L254.5 108.1L258.7 119.5L256.2 119.5ZM253.4 111.0L252.0 115.2L254.8 115.2L253.4 111.0ZM264.2 117.1L264.2 117.1Q264.2 116.7 263.8 116.5Q263.4 116.3 262.5 116.1L262.5 116.1Q259.5 115.4 259.5 113.5L259.5 113.5Q259.5 112.4 260.4 111.6Q261.3 110.9 262.8 110.9L262.8 110.9Q264.5 110.9 265.4 111.6Q266.4 112.4 266.4 113.6L266.4 113.6L264.1 113.6Q264.1 113.1 263.8 112.8Q263.5 112.5 262.8 112.5L262.8 112.5Q262.3 112.5 262.0 112.7Q261.6 113.0 261.6 113.4L261.6 113.4Q261.6 113.8 262.0 114.0Q262.4 114.2 263.2 114.4Q264.0 114.6 264.6 114.8L264.6 114.8Q266.4 115.4 266.4 117.1L266.4 117.1Q266.4 118.2 265.4 118.9Q264.4 119.6 262.9 119.6L262.9 119.6Q261.8 119.6 261.0 119.3Q260.1 118.9 259.7 118.2Q259.2 117.6 259.2 116.8L259.2 116.8L261.3 116.8Q261.4 117.4 261.8 117.7Q262.2 118.0 262.9 118.0L262.9 118.0Q263.5 118.0 263.9 117.8Q264.2 117.5 264.2 117.1ZM268.3 109.0L270.6 109.0L270.6 111.0L272.0 111.0L272.0 112.7L270.6 112.7L270.6 116.9Q270.6 117.4 270.7 117.6Q270.9 117.8 271.4 117.8L271.4 117.8Q271.8 117.8 272.1 117.7L272.1 117.7L272.1 119.4Q271.4 119.6 270.7 119.6L270.7 119.6Q268.4 119.6 268.3 117.2L268.3 117.2L268.3 112.7L267.1 112.7L267.1 111.0L268.3 111.0L268.3 109.0ZM278.0 111.0L278.0 113.1Q277.6 113.1 277.2 113.1L277.2 113.1Q275.9 113.1 275.5 114.0L275.5 114.0L275.5 119.5L273.3 119.5L273.3 111.0L275.4 111.0L275.5 112.0Q276.1 110.9 277.3 110.9L277.3 110.9Q277.7 110.9 278.0 111.0L278.0 111.0ZM278.5 115.3L278.5 115.2Q278.5 113.9 279.0 112.9Q279.4 112.0 280.3 111.4Q281.3 110.9 282.5 110.9L282.5 110.9Q284.2 110.9 285.3 111.9Q286.3 113.0 286.5 114.8L286.5 114.8L286.5 115.3Q286.5 117.3 285.4 118.5Q284.3 119.6 282.5 119.6Q280.6 119.6 279.6 118.5Q278.5 117.3 278.5 115.3L278.5 115.3ZM280.7 115.3L280.7 115.3Q280.7 116.5 281.2 117.2Q281.6 117.8 282.5 117.8L282.5 117.8Q283.3 117.8 283.8 117.2Q284.2 116.6 284.2 115.2L284.2 115.2Q284.2 114.0 283.8 113.4Q283.3 112.7 282.5 112.7L282.5 112.7Q281.6 112.7 281.2 113.3Q280.7 114.0 280.7 115.3Z "/><mask id="satori_om-id-1-9-2"><rect x="297" y="104" width="34" height="19" fill="#fff"/></mask><path fill="#57606a" d="M302.7 108.1L302.7 119.5L301.2 119.5L301.2 109.9L298.3 110.9L298.3 109.6L302.5 108.1L302.7 108.1ZM307.1 118.7L307.1 118.7Q307.1 118.4 307.3 118.1Q307.6 117.9 308 117.9Q308.4 117.9 308.7 118.1Q308.9 118.4 308.9 118.7L308.9 118.7Q308.9 119.1 308.7 119.3Q308.4 119.6 308 119.6Q307.6 119.6 307.3 119.3Q307.1 119.1 307.1 118.7ZM316.7 114.5L316.7 114.5Q316.2 115.0 315.6 115.4Q315.0 115.7 314.2 115.7L314.2 115.7Q313.2 115.7 312.5 115.2Q311.8 114.7 311.4 113.8Q311.0 113.0 311.0 111.9L311.0 111.9Q311.0 110.7 311.4 109.8Q311.8 108.9 312.6 108.4Q313.4 108.0 314.5 108.0L314.5 108.0Q316.2 108.0 317.2 109.2Q318.1 110.5 318.1 112.7L318.1 112.7L318.1 113.1Q318.1 116.4 316.8 117.9Q315.5 119.5 312.9 119.5L312.9 119.5L312.6 119.5L312.6 118.3L312.9 118.3Q314.7 118.2 315.6 117.3Q316.6 116.4 316.7 114.5ZM314.5 114.5L314.5 114.5Q315.2 114.5 315.8 114.0Q316.4 113.6 316.7 112.9L316.7 112.9L316.7 112.4Q316.7 110.9 316.1 110.0Q315.5 109.2 314.5 109.2L314.5 109.2Q313.6 109.2 313.0 109.9Q312.4 110.6 312.4 111.8L312.4 111.8Q312.4 113.0 313.0 113.7Q313.5 114.5 314.5 114.5ZM320 110.8L320 110.3Q320 109.3 320.7 108.6Q321.3 107.9 322.3 107.9L322.3 107.9Q323.4 107.9 324.0 108.6Q324.7 109.3 324.7 110.3L324.7 110.3L324.7 110.9Q324.7 111.9 324.0 112.6Q323.4 113.2 322.3 113.2L322.3 113.2Q321.3 113.2 320.7 112.6Q320 111.9 320 110.8L320 110.8ZM321.1 110.3L321.1 110.9Q321.1 111.5 321.4 111.9Q321.8 112.3 322.3 112.3L322.3 112.3Q322.9 112.3 323.2 111.9Q323.6 111.5 323.6 110.9L323.6 110.9L323.6 110.3Q323.6 109.7 323.2 109.3Q322.9 108.9 322.3 108.9Q321.8 108.9 321.4 109.3Q321.1 109.7 321.1 110.3L321.1 110.3ZM325.5 117.3L325.5 116.7Q325.5 115.7 326.2 115.0Q326.8 114.4 327.9 114.4Q328.9 114.4 329.5 115.0Q330.2 115.7 330.2 116.7L330.2 116.7L330.2 117.3Q330.2 118.3 329.6 119.0Q328.9 119.6 327.9 119.6Q326.9 119.6 326.2 119.0Q325.5 118.3 325.5 117.3L325.5 117.3ZM326.6 116.7L326.6 117.3Q326.6 117.9 327.0 118.3Q327.3 118.7 327.9 118.7L327.9 118.7Q328.4 118.7 328.8 118.3Q329.1 117.9 329.1 117.3L329.1 117.3L329.1 116.7Q329.1 116.1 328.8 115.7Q328.4 115.3 327.9 115.3L327.9 115.3Q327.3 115.3 327.0 115.7Q326.6 116.1 326.6 116.7L326.6 116.7ZM328.2 109.7L322.7 118.6L321.9 118.1L327.4 109.2L328.2 109.7Z "/><mask id="satori_om-id-1-10"><rect x="0" y="133" width="103" height="19" fill="#fff"/></mask><mask id="satori_om-id-1-10-0"><rect x="0" y="134" width="16" height="16" fill="#fff"/></mask><mask id="satori_om-id-1-10-0-0"><rect x="4" y="138" width="8" height="8" fill="#fff"/></mask><path x="4" y="138" width="8" height="8" fill="#563d7c" d="M8,138 h0 a4,4 0 0 1 4,4 v0 a4,4 0 0 1 -4,4 h0 a4,4 0 0 1 -4,-4 v0 a4,4 0 0 1 4,-4"/><mask id="satori_om-id-1-10-1"><rect x="29" y="133" width="31" height="19" fill="#fff"/></mask><path fill="#24292f" d="M36.6 144.7L38.9 144.7Q38.8 146.5 37.6 147.6Q36.4 148.6 34.4 148.6L34.4 148.6Q32.2 148.6 30.9 147.2Q29.7 145.7 29.7 143.1L29.7 143.1L29.7 142.4Q29.7 140.8 30.3 139.5Q30.8 138.3 31.9 137.6Q33.0 137.0 34.4 137.0L34.4 137.0Q36.4 137.0 37.6 138.0Q38.8 139.1 39.0 141.0L39.0 141.0L36.6 141.0Q36.5 139.9 36.0 139.4Q35.5 138.9 34.4 138.9L34.4 138.9Q33.2 138.9 32.6 139.7Q32.1 140.6 32.0 142.3L32.0 142.3L32.0 143.2Q32.0 145.0 32.6 145.9Q33.2 146.7 34.4 146.7L34.4 146.7Q35.5 146.7 36.0 146.2Q36.5 145.7 36.6 144.7L36.6 144.7ZM46.4 145.5L46.4 145.5Q46.4 144.8 45.9 144.5Q45.4 144.1 44.2 143.7Q43.0 143.3 42.3 143.0L42.3 143.0Q40.4 141.9 40.4 140.1L40.4 140.1Q40.4 139.2 40.9 138.5Q41.4 137.8 42.4 137.4Q43.3 137.0 44.6 137.0L44.6 137.0Q45.8 137.0 46.7 137.4Q47.7 137.8 48.2 138.6Q48.7 139.4 48.7 140.5L48.7 140.5L46.4 140.5Q46.4 139.7 45.9 139.3Q45.4 138.8 44.5 138.8L44.5 138.8Q43.7 138.8 43.2 139.2Q42.7 139.5 42.7 140.1L42.7 140.1Q42.7 140.7 43.3 141.1Q43.8 141.4 44.9 141.8L44.9 141.8Q46.9 142.4 47.8 143.3Q48.7 144.2 48.7 145.5L48.7 145.5Q48.7 147.0 47.6 147.8Q46.5 148.6 44.6 148.6L44.6 148.6Q43.3 148.6 42.2 148.2Q41.1 147.7 40.6 146.8Q40.0 146.0 40.0 144.9L40.0 144.9L42.4 144.9Q42.4 146.8 44.6 146.8L44.6 146.8Q45.4 146.8 45.9 146.4Q46.4 146.1 46.4 145.5ZM56.2 145.5L56.2 145.5Q56.2 144.8 55.8 144.5Q55.3 144.1 54.1 143.7Q52.8 143.3 52.1 143.0L52.1 143.0Q50.2 141.9 50.2 140.1L50.2 140.1Q50.2 139.2 50.7 138.5Q51.2 137.8 52.2 137.4Q53.2 137.0 54.4 137.0L54.4 137.0Q55.6 137.0 56.6 137.4Q57.5 137.8 58.0 138.6Q58.6 139.4 58.6 140.5L58.6 140.5L56.2 140.5Q56.2 139.7 55.7 139.3Q55.2 138.8 54.4 138.8L54.4 138.8Q53.5 138.8 53.0 139.2Q52.5 139.5 52.5 140.1L52.5 140.1Q52.5 140.7 53.1 141.1Q53.7 141.4 54.7 141.8L54.7 141.8Q56.7 142.4 57.7 143.3Q58.6 144.2 58.6 145.5L58.6 145.5Q58.6 147.0 57.5 147.8Q56.3 148.6 54.4 148.6L54.4 148.6Q53.1 148.6 52.1 148.2Q51.0 147.7 50.4 146.8Q49.8 146.0 49.8 144.9L49.8 144.9L52.2 144.9Q52.2 146.8 54.4 146.8L54.4 146.8Q55.3 146.8 55.8 146.4Q56.2 146.1 56.2 145.5Z "/><mask id="satori_om-id-1-10-2"><rect x="69" y="133" width="34" height="19" fill="#fff"/></mask><path fill="#57606a" d="M77.1 141.8L77.1 143.6Q77.1 146.2 76.2 147.4Q75.3 148.6 73.5 148.6L73.5 148.6Q71.7 148.6 70.8 147.4Q69.9 146.2 69.9 143.8L69.9 143.8L69.9 141.9Q69.9 139.4 70.8 138.2Q71.6 137.0 73.5 137.0L73.5 137.0Q75.3 137.0 76.2 138.1Q77.1 139.3 77.1 141.8L77.1 141.8ZM75.6 144.0L75.6 141.7Q75.6 139.8 75.1 139.0Q74.6 138.1 73.5 138.1L73.5 138.1Q72.4 138.1 71.9 139.0Q71.4 139.8 71.3 141.5L71.3 141.5L71.3 143.9Q71.3 145.7 71.9 146.6Q72.4 147.5 73.5 147.5L73.5 147.5Q74.6 147.5 75.1 146.6Q75.6 145.8 75.6 144.0L75.6 144.0ZM79.1 147.7L79.1 147.7Q79.1 147.4 79.3 147.1Q79.6 146.9 80 146.9Q80.4 146.9 80.7 147.1Q80.9 147.4 80.9 147.7L80.9 147.7Q80.9 148.1 80.7 148.3Q80.4 148.6 80 148.6Q79.6 148.6 79.3 148.3Q79.1 148.1 79.1 147.7ZM85.0 143.1L83.8 142.8L84.4 137.1L90.2 137.1L90.2 138.4L85.6 138.4L85.3 141.5Q86.1 141.1 87.2 141.1L87.2 141.1Q88.7 141.1 89.6 142.1Q90.5 143.1 90.5 144.9L90.5 144.9Q90.5 146.6 89.6 147.6Q88.6 148.6 86.9 148.6L86.9 148.6Q85.4 148.6 84.5 147.8Q83.5 147.0 83.4 145.5L83.4 145.5L84.8 145.5Q84.9 146.5 85.5 147.0Q86.0 147.5 86.9 147.5L86.9 147.5Q88.0 147.5 88.5 146.8Q89.1 146.1 89.1 144.9L89.1 144.9Q89.1 143.7 88.5 143.0Q87.9 142.4 86.8 142.4L86.8 142.4Q85.9 142.4 85.3 142.8L85.3 142.8L85.0 143.1ZM92 139.8L92 139.3Q92 138.3 92.7 137.6Q93.3 136.9 94.3 136.9L94.3 136.9Q95.4 136.9 96.0 137.6Q96.7 138.3 96.7 139.3L96.7 139.3L96.7 139.9Q96.7 140.9 96.0 141.6Q95.4 142.2 94.3 142.2L94.3 142.2Q93.3 142.2 92.7 141.6Q92 140.9 92 139.8L92 139.8ZM93.1 139.3L93.1 139.9Q93.1 140.5 93.4 140.9Q93.8 141.3 94.3 141.3L94.3 141.3Q94.9 141.3 95.2 140.9Q95.6 140.5 95.6 139.9L95.6 139.9L95.6 139.3Q95.6 138.7 95.2 138.3Q94.9 137.9 94.3 137.9Q93.8 137.9 93.4 138.3Q93.1 138.7 93.1 139.3L93.1 139.3ZM97.5 146.3L97.5 145.7Q97.5 144.7 98.2 144.0Q98.8 143.4 99.9 143.4Q100.9 143.4 101.5 144.0Q102.2 144.7 102.2 145.7L102.2 145.7L102.2 146.3Q102.2 147.3 101.6 148.0Q100.9 148.6 99.9 148.6Q98.9 148.6 98.2 148.0Q97.5 147.3 97.5 146.3L97.5 146.3ZM98.6 145.7L98.6 146.3Q98.6 146.9 99.0 147.3Q99.3 147.7 99.9 147.7L99.9 147.7Q100.4 147.7 100.8 147.3Q101.1 146.9 101.1 146.3L101.1 146.3L101.1 145.7Q101.1 145.1 100.8 144.7Q100.4 144.3 99.9 144.3L99.9 144.3Q99.3 144.3 99.0 144.7Q98.6 145.1 98.6 145.7L98.6 145.7ZM100.2 138.7L94.7 147.6L93.9 147.1L99.4 138.2L100.2 138.7Z "/><mask id="satori_om-id-1-11"><rect x="113" y="133" width="146" height="19" fill="#fff"/></mask><mask id="satori_om-id-1-11-0"><rect x="113" y="134" width="16" height="16" fill="#fff"/></mask><mask id="satori_om-id-1-11-0-0"><rect x="117" y="138" width="8" height="8" fill="#fff"/></mask><path x="117" y="138" width="8" height="8" fill="#384d54" d="M121,138 h0 a4,4 0 0 1 4,4 v0 a4,4 0 0 1 -4,4 h0 a4,4 0 0 1 -4,-4 v0 a4,4 0 0 1 4,-4"/><mask id="satori_om-id-1-11-1"><rect x="142" y="133" width="74" height="19" fill="#fff"/></mask><path fill="#24292f" d="M146.5 148.5L143.0 148.5L143.0 137.1L146.5 137.1Q148.0 137.1 149.2 137.8Q150.4 138.5 151.0 139.7Q151.7 141.0 151.7 142.5L151.7 142.5L151.7 143.1Q151.7 144.6 151.1 145.9Q150.4 147.1 149.2 147.8Q148.0 148.5 146.5 148.5L146.5 148.5ZM146.5 139.0L145.4 139.0L145.4 146.6L146.5 146.6Q147.9 146.6 148.6 145.7Q149.3 144.8 149.3 143.1L149.3 143.1L149.3 142.5Q149.3 140.8 148.6 139.9Q147.9 139.0 146.5 139.0L146.5 139.0ZM152.9 144.3L152.9 144.2Q152.9 142.9 153.4 141.9Q153.9 141.0 154.8 140.4Q155.7 139.9 156.9 139.9L156.9 139.9Q158.6 139.9 159.7 140.9Q160.8 142.0 160.9 143.8L160.9 143.8L160.9 144.3Q160.9 146.3 159.8 147.5Q158.8 148.6 156.9 148.6Q155.1 148.6 154.0 147.5Q152.9 146.3 152.9 144.3L152.9 144.3ZM155.2 144.3L155.2 144.3Q155.2 145.5 155.6 146.2Q156.1 146.8 156.9 146.8L156.9 146.8Q157.7 146.8 158.2 146.2Q158.7 145.6 158.7 144.2L158.7 144.2Q158.7 143.0 158.2 142.4Q157.7 141.7 156.9 141.7L156.9 141.7Q156.1 141.7 155.6 142.3Q155.2 143.0 155.2 144.3ZM165.8 146.8L165.8 146.8Q166.5 146.8 166.8 146.5Q167.2 146.1 167.3 145.6L167.3 145.6L169.4 145.6Q169.4 146.4 168.9 147.1Q168.4 147.9 167.6 148.2Q166.8 148.6 165.9 148.6L165.9 148.6Q164.1 148.6 163.0 147.5Q162.0 146.3 162.0 144.3L162.0 144.3L162.0 144.2Q162.0 142.2 163 141.0Q164.0 139.9 165.9 139.9L165.9 139.9Q167.4 139.9 168.4 140.8Q169.4 141.7 169.4 143.2L169.4 143.2L167.3 143.2Q167.2 142.5 166.8 142.1Q166.5 141.7 165.8 141.7L165.8 141.7Q165.0 141.7 164.6 142.3Q164.2 142.9 164.2 144.1L164.2 144.1L164.2 144.4Q164.2 145.7 164.6 146.2Q165.0 146.8 165.8 146.8ZM175.9 148.5L173.7 145.1L172.9 145.9L172.9 148.5L170.7 148.5L170.7 136.5L172.9 136.5L172.9 143.1L173.4 142.6L175.5 140.0L178.2 140.0L175.2 143.6L178.5 148.5L175.9 148.5ZM182.9 148.6L182.9 148.6Q181.1 148.6 179.9 147.5Q178.7 146.4 178.7 144.5L178.7 144.5L178.7 144.2Q178.7 143.0 179.2 142.0Q179.7 141.0 180.6 140.4Q181.5 139.9 182.7 139.9L182.7 139.9Q184.4 139.9 185.4 141.0Q186.4 142.1 186.4 144.1L186.4 144.1L186.4 145.0L181.0 145.0Q181.1 145.8 181.7 146.3Q182.2 146.8 183.1 146.8L183.1 146.8Q184.4 146.8 185.1 145.9L185.1 145.9L186.2 147.1Q185.7 147.8 184.9 148.2Q184.0 148.6 182.9 148.6ZM182.7 141.7L182.7 141.7Q182.0 141.7 181.6 142.2Q181.2 142.6 181.1 143.5L181.1 143.5L184.2 143.5L184.2 143.3Q184.2 142.5 183.8 142.1Q183.4 141.7 182.7 141.7ZM192.5 140.0L192.4 142.1Q192.0 142.1 191.6 142.1L191.6 142.1Q190.4 142.1 190.0 143.0L190.0 143.0L190.0 148.5L187.7 148.5L187.7 140.0L189.8 140.0L189.9 141.0Q190.6 139.9 191.8 139.9L191.8 139.9Q192.1 139.9 192.5 140.0L192.5 140.0ZM196.6 148.5L194.3 148.5L194.3 141.7L193.0 141.7L193.0 140.0L194.3 140.0L194.3 139.3Q194.3 137.9 195.1 137.1Q195.9 136.3 197.4 136.3L197.4 136.3Q197.9 136.3 198.6 136.5L198.6 136.5L198.5 138.2Q198.3 138.2 197.8 138.2L197.8 138.2Q196.6 138.2 196.6 139.4L196.6 139.4L196.6 140.0L198.3 140.0L198.3 141.7L196.6 141.7L196.6 148.5ZM201.8 140.0L201.8 148.5L199.5 148.5L199.5 140.0L201.8 140.0ZM199.4 137.8L199.4 137.8Q199.4 137.3 199.7 137.0Q200.1 136.7 200.7 136.7L200.7 136.7Q201.3 136.7 201.6 137.0Q201.9 137.3 201.9 137.8L201.9 137.8Q201.9 138.4 201.6 138.7Q201.2 139.0 200.7 139.0Q200.1 139.0 199.8 138.7Q199.4 138.4 199.4 137.8ZM206.0 136.5L206.0 148.5L203.8 148.5L203.8 136.5L206.0 136.5ZM211.8 148.6L211.8 148.6Q209.9 148.6 208.8 147.5Q207.6 146.4 207.6 144.5L207.6 144.5L207.6 144.2Q207.6 143.0 208.1 142.0Q208.6 141.0 209.5 140.4Q210.4 139.9 211.5 139.9L211.5 139.9Q213.3 139.9 214.3 141.0Q215.3 142.1 215.3 144.1L215.3 144.1L215.3 145.0L209.9 145.0Q210 145.8 210.6 146.3Q211.1 146.8 211.9 146.8L211.9 146.8Q213.3 146.8 214.0 145.9L214.0 145.9L215.1 147.1Q214.6 147.8 213.7 148.2Q212.9 148.6 211.8 148.6ZM211.5 141.7L211.5 141.7Q210.9 141.7 210.4 142.2Q210.0 142.6 209.9 143.5L209.9 143.5L213.1 143.5L213.1 143.3Q213.0 142.5 212.6 142.1Q212.3 141.7 211.5 141.7Z "/><mask id="satori_om-id-1-11-2"><rect x="225" y="133" width="34" height="19" fill="#fff"/></mask><path fill="#57606a" d="M233.1 141.8L233.1 143.6Q233.1 146.2 232.2 147.4Q231.3 148.6 229.5 148.6L229.5 148.6Q227.7 148.6 226.8 147.4Q225.9 146.2 225.9 143.8L225.9 143.8L225.9 141.9Q225.9 139.4 226.8 138.2Q227.6 137.0 229.5 137.0L229.5 137.0Q231.3 137.0 232.2 138.1Q233.1 139.3 233.1 141.8L233.1 141.8ZM231.6 144.0L231.6 141.7Q231.6 139.8 231.1 139.0Q230.6 138.1 229.5 138.1L229.5 138.1Q228.4 138.1 227.9 139.0Q227.4 139.8 227.3 141.5L227.3 141.5L227.3 143.9Q227.3 145.7 227.9 146.6Q228.4 147.5 229.5 147.5L229.5 147.5Q230.6 147.5 231.1 146.6Q231.6 145.8 231.6 144.0L231.6 144.0ZM235.1 147.7L235.1 147.7Q235.1 147.4 235.3 147.1Q235.6 146.9 236 146.9Q236.4 146.9 236.7 147.1Q236.9 147.4 236.9 147.7L236.9 147.7Q236.9 148.1 236.7 148.3Q236.4 148.6 236 148.6Q235.6 148.6 235.3 148.3Q235.1 148.1 235.1 147.7ZM241.2 143.3L241.2 142.1L242.3 142.1Q243.4 142.1 243.9 141.6Q244.5 141.0 244.5 140.1L244.5 140.1Q244.5 138.1 242.5 138.1L242.5 138.1Q241.6 138.1 241.0 138.7Q240.5 139.2 240.5 140.1L240.5 140.1L239.0 140.1Q239.0 138.7 240.0 137.8Q241.0 137.0 242.5 137.0L242.5 137.0Q244.1 137.0 245.1 137.8Q246.0 138.7 246.0 140.2L246.0 140.2Q246.0 140.9 245.5 141.6Q245.0 142.3 244.2 142.6L244.2 142.6Q245.1 142.9 245.6 143.6Q246.1 144.3 246.1 145.3L246.1 145.3Q246.1 146.8 245.1 147.7Q244.1 148.6 242.5 148.6Q240.9 148.6 239.9 147.8Q238.9 146.9 238.9 145.5L238.9 145.5L240.4 145.5Q240.4 146.4 241.0 146.9Q241.6 147.5 242.5 147.5L242.5 147.5Q243.6 147.5 244.1 146.9Q244.7 146.4 244.7 145.3L244.7 145.3Q244.7 144.4 244.1 143.8Q243.5 143.3 242.3 143.3L242.3 143.3L241.2 143.3ZM248 139.8L248 139.3Q248 138.3 248.7 137.6Q249.3 136.9 250.3 136.9L250.3 136.9Q251.4 136.9 252.0 137.6Q252.7 138.3 252.7 139.3L252.7 139.3L252.7 139.9Q252.7 140.9 252.0 141.6Q251.4 142.2 250.3 142.2L250.3 142.2Q249.3 142.2 248.7 141.6Q248 140.9 248 139.8L248 139.8ZM249.1 139.3L249.1 139.9Q249.1 140.5 249.4 140.9Q249.8 141.3 250.3 141.3L250.3 141.3Q250.9 141.3 251.2 140.9Q251.6 140.5 251.6 139.9L251.6 139.9L251.6 139.3Q251.6 138.7 251.2 138.3Q250.9 137.9 250.3 137.9Q249.8 137.9 249.4 138.3Q249.1 138.7 249.1 139.3L249.1 139.3ZM253.5 146.3L253.5 145.7Q253.5 144.7 254.2 144.0Q254.8 143.4 255.9 143.4Q256.9 143.4 257.5 144.0Q258.2 144.7 258.2 145.7L258.2 145.7L258.2 146.3Q258.2 147.3 257.6 148.0Q256.9 148.6 255.9 148.6Q254.9 148.6 254.2 148.0Q253.5 147.3 253.5 146.3L253.5 146.3ZM254.6 145.7L254.6 146.3Q254.6 146.9 255.0 147.3Q255.3 147.7 255.9 147.7L255.9 147.7Q256.4 147.7 256.8 147.3Q257.1 146.9 257.1 146.3L257.1 146.3L257.1 145.7Q257.1 145.1 256.8 144.7Q256.4 144.3 255.9 144.3L255.9 144.3Q255.3 144.3 255.0 144.7Q254.6 145.1 254.6 145.7L254.6 145.7ZM256.2 138.7L250.7 147.6L249.9 147.1L255.4 138.2L256.2 138.7Z "/><mask id="satori_om-id-1-12"><rect x="0" y="162" width="108" height="19" fill="#fff"/></mask><mask id="satori_om-id-1-12-0"><rect x="0" y="163" width="16" height="16" fill="#fff"/></mask><mask id="satori_om-id-1-12-0-0"><rect x="4" y="167" width="8" height="8" fill="#fff"/></mask><path x="4" y="167" width="8" height="8" fill="#89e051" d="M8,167 h0 a4,4 0 0 1 4,4 v0 a4,4 0 0 1 -4,4 h0 a4,4 0 0 1 -4,-4 v0 a4,4 0 0 1 4,-4"/><mask id="satori_om-id-1-12-1"><rect x="29" y="162" width="36" height="19" fill="#fff"/></mask><path fill="#24292f" d="M35.9 174.5L35.9 174.5Q35.9 173.8 35.4 173.5Q35.0 173.1 33.8 172.7Q32.5 172.3 31.8 172.0L31.8 172.0Q29.9 170.9 29.9 169.1L29.9 169.1Q29.9 168.2 30.4 167.5Q30.9 166.8 31.9 166.4Q32.9 166.0 34.1 166.0L34.1 166.0Q35.3 166.0 36.3 166.4Q37.2 166.8 37.7 167.6Q38.3 168.4 38.3 169.5L38.3 169.5L35.9 169.5Q35.9 168.7 35.4 168.3Q34.9 167.8 34.0 167.8L34.0 167.8Q33.2 167.8 32.7 168.2Q32.2 168.5 32.2 169.1L32.2 169.1Q32.2 169.7 32.8 170.1Q33.4 170.4 34.4 170.8L34.4 170.8Q36.4 171.4 37.4 172.3Q38.3 173.2 38.3 174.5L38.3 174.5Q38.3 176.0 37.1 176.8Q36.0 177.6 34.1 177.6L34.1 177.6Q32.8 177.6 31.8 177.2Q30.7 176.7 30.1 175.8Q29.5 175.0 29.5 173.9L29.5 173.9L31.9 173.9Q31.9 175.8 34.1 175.8L34.1 175.8Q35.0 175.8 35.4 175.4Q35.9 175.1 35.9 174.5ZM41.9 165.5L41.9 170.0Q42.8 168.9 44.2 168.9L44.2 168.9Q46.9 168.9 47.0 172.1L47.0 172.1L47.0 177.5L44.7 177.5L44.7 172.1Q44.7 171.4 44.4 171.1Q44.1 170.7 43.3 170.7L43.3 170.7Q42.4 170.7 41.9 171.5L41.9 171.5L41.9 177.5L39.6 177.5L39.6 165.5L41.9 165.5ZM52.5 177.6L52.5 177.6Q50.7 177.6 49.5 176.5Q48.4 175.4 48.4 173.5L48.4 173.5L48.4 173.2Q48.4 172.0 48.8 171.0Q49.3 170.0 50.2 169.4Q51.1 168.9 52.3 168.9L52.3 168.9Q54.0 168.9 55.0 170.0Q56.0 171.1 56.0 173.1L56.0 173.1L56.0 174.0L50.6 174.0Q50.8 174.8 51.3 175.3Q51.9 175.8 52.7 175.8L52.7 175.8Q54 175.8 54.7 174.9L54.7 174.9L55.8 176.1Q55.3 176.8 54.5 177.2Q53.6 177.6 52.5 177.6ZM52.3 170.7L52.3 170.7Q51.6 170.7 51.2 171.2Q50.8 171.6 50.7 172.5L50.7 172.5L53.8 172.5L53.8 172.3Q53.8 171.5 53.4 171.1Q53.0 170.7 52.3 170.7ZM59.7 165.5L59.7 177.5L57.4 177.5L57.4 165.5L59.7 165.5ZM63.9 165.5L63.9 177.5L61.7 177.5L61.7 165.5L63.9 165.5Z "/><mask id="satori_om-id-1-12-2"><rect x="74" y="162" width="34" height="19" fill="#fff"/></mask><path fill="#57606a" d="M82.1 170.8L82.1 172.6Q82.1 175.2 81.2 176.4Q80.3 177.6 78.5 177.6L78.5 177.6Q76.7 177.6 75.8 176.4Q74.9 175.2 74.9 172.8L74.9 172.8L74.9 170.9Q74.9 168.4 75.8 167.2Q76.6 166.0 78.5 166.0L78.5 166.0Q80.3 166.0 81.2 167.1Q82.1 168.3 82.1 170.8L82.1 170.8ZM80.6 173.0L80.6 170.7Q80.6 168.8 80.1 168.0Q79.6 167.1 78.5 167.1L78.5 167.1Q77.4 167.1 76.9 168.0Q76.4 168.8 76.3 170.5L76.3 170.5L76.3 172.9Q76.3 174.7 76.9 175.6Q77.4 176.5 78.5 176.5L78.5 176.5Q79.6 176.5 80.1 175.6Q80.6 174.8 80.6 173.0L80.6 173.0ZM84.1 176.7L84.1 176.7Q84.1 176.4 84.3 176.1Q84.6 175.9 85 175.9Q85.4 175.9 85.7 176.1Q85.9 176.4 85.9 176.7L85.9 176.7Q85.9 177.1 85.7 177.3Q85.4 177.6 85 177.6Q84.6 177.6 84.3 177.3Q84.1 177.1 84.1 176.7ZM95.3 170.8L95.3 172.6Q95.3 175.2 94.4 176.4Q93.5 177.6 91.7 177.6L91.7 177.6Q89.9 177.6 89 176.4Q88.1 175.2 88.1 172.8L88.1 172.8L88.1 170.9Q88.1 168.4 89.0 167.2Q89.8 166.0 91.7 166.0L91.7 166.0Q93.5 166.0 94.4 167.1Q95.3 168.3 95.3 170.8L95.3 170.8ZM93.8 173.0L93.8 170.7Q93.8 168.8 93.3 168.0Q92.8 167.1 91.7 167.1L91.7 167.1Q90.6 167.1 90.1 168.0Q89.6 168.8 89.5 170.5L89.5 170.5L89.5 172.9Q89.5 174.7 90.1 175.6Q90.6 176.5 91.7 176.5L91.7 176.5Q92.8 176.5 93.3 175.6Q93.8 174.8 93.8 173.0L93.8 173.0ZM97 168.8L97 168.3Q97 167.3 97.7 166.6Q98.3 165.9 99.3 165.9L99.3 165.9Q100.4 165.9 101.0 166.6Q101.7 167.3 101.7 168.3L101.7 168.3L101.7 168.9Q101.7 169.9 101.0 170.6Q100.4 171.2 99.3 171.2L99.3 171.2Q98.3 171.2 97.7 170.6Q97 169.9 97 168.8L97 168.8ZM98.1 168.3L98.1 168.9Q98.1 169.5 98.4 169.9Q98.8 170.3 99.3 170.3L99.3 170.3Q99.9 170.3 100.2 169.9Q100.6 169.5 100.6 168.9L100.6 168.9L100.6 168.3Q100.6 167.7 100.2 167.3Q99.9 166.9 99.3 166.9Q98.8 166.9 98.4 167.3Q98.1 167.7 98.1 168.3L98.1 168.3ZM102.5 175.3L102.5 174.7Q102.5 173.7 103.2 173.0Q103.8 172.4 104.9 172.4Q105.9 172.4 106.5 173.0Q107.2 173.7 107.2 174.7L107.2 174.7L107.2 175.3Q107.2 176.3 106.6 177.0Q105.9 177.6 104.9 177.6Q103.9 177.6 103.2 177.0Q102.5 176.3 102.5 175.3L102.5 175.3ZM103.6 174.7L103.6 175.3Q103.6 175.9 104.0 176.3Q104.3 176.7 104.9 176.7L104.9 176.7Q105.4 176.7 105.8 176.3Q106.1 175.9 106.1 175.3L106.1 175.3L106.1 174.7Q106.1 174.1 105.8 173.7Q105.4 173.3 104.9 173.3L104.9 173.3Q104.3 173.3 104.0 173.7Q103.6 174.1 103.6 174.7L103.6 174.7ZM105.2 167.7L99.7 176.6L98.9 176.1L104.4 167.2L105.2 167.7Z "/></svg>