<svg width="375" height="200" viewBox="0 0 375 200" xmlns="http://www.w3.org/2000/svg"><mask id="satori_om-id"><rect x="0" y="0" width="375" height="152" fill="#fff"/></mask><clipPath id="satori_cp-id-0"><path x="0" y="0" width="375" height="8" d="M4,0 h367 a4,4 0 0 1 4,4 v0 a4,4 0 0 1 -4,4 h-367 a4,4 0 0 1 -4,-4 v0 a4,4 0 0 1 4,-4"/></clipPath><mask id="satori_om-id-0"><rect x="0" y="0" width="375" height="8" fill="#fff"/></mask><mask id="satori_om-id-0-0"><rect x="0" y="0" width="184" height="8" fill="#fff" mask="url(#satori_om-id-0)"/></mask><rect x="0" y="0" width="184" height="8" fill="#3178c6" clip-path="url(#satori_cp-id-0)" mask="url(#satori_om-id-0)"/><mask id="satori_om-id-0-1"><rect x="184" y="0" width="39" height="8" fill="#fff" mask="url(#satori_om-id-0)"/></mask><rect x="184" y="0" width="39" height="8" fill="#DA5B0B" clip-path="url(#satori_cp-id-0)" mask="url(#satori_om-id-0)"/><mask id="satori_om-id-0-2"><rect x="223" y="0" width="34" height="8" fill="#fff" mask="url(#satori_om-id-0)"/></mask><rect x="223" y="0" width="34" height="8" fill="#844FBA" clip-path="url(#satori_cp-id-0)" mask="url(#satori_om-id-0)"/><mask id="satori_om-id-0-3"><rect x="257" y="0" width="28" height="8" fill="#fff" mask="url(#satori_om-id-0)"/></mask><rect x="257" y="0" width="28" height="8" fill="#3572A5" clip-path="url(#satori_cp-id-0)" mask="url(#satori_om-id-0)"/><mask id="satori_om-id-0-4"><rect x="285" y="0" width="20" height="8" fill="#fff" mask="url(#satori_om-id-0)"/></mask><rect x="285" y="0" width="20" height="8" fill="#ff3e00" clip-path="url(#satori_cp-id-0)" mask="url(#satori_om-id-0)"/><mask id="satori_om-id-0-5"><rect x="305" y="0" width="15" height="8" fill="#fff" mask="url(#satori_om-id-0)"/></mask><rect x="305" y="0" width="15" height="8" fill="#e34c26" clip-path="url(#satori_cp-id-0)" mask="url(#satori_om-id-0)"/><mask id="satori_om-id-0-6"><rect x="320" y="0" width="14" height="8" fill="#fff" mask="url(#satori_om-id-0)"/></mask><rect x="320" y="0" width="14" height="8" fill="#f1e05a" clip-path="url(#satori_cp-id-0)" mask="url(#satori_om-id-0)"/><mask id="satori_om-id-0-7"><rect x="334" y="0" width="14" height="8" fill="#fff" mask="url(#satori_om-id-0)"/></mask><rect x="334" y="0" width="14" height="8" fill="#00ADD8" clip-path="url(#satori_cp-id-0)" mask="url(#satori_om-id-0)"/><mask id="satori_om-id-0-8"><rect x="348" y="0" width="12" height="8" fill="#fff" mask="url(#satori_om-id-0)"/></mask><rect x="348" y="0" width="12" height="8" fill="#555555" clip-path="url(#satori_cp-id-0)" mask="url(#satori_om-id-0)"/><mask id="satori_om-id-0-9"><rect x="360" y="0" width="9" height="8" fill="#fff" mask="url(#satori_om-id-0)"/></mask><rect x="360" y="0" width="9" height="8" fill="#ff5a03" clip-path="url(#satori_cp-id-0)" mask="url(#satori_om-id-0)"/><mask id="satori_om-id-1"><rect x="0" y="18" width="375" height="134" fill="#fff"/></mask><mask id="satori_om-id-1-0"><rect x="0" y="18" width="160" height="19" fill="#fff"/></mask><mask id="satori_om-id-1-0-0"><rect x="0" y="19" width="16" height="16" fill="#fff"/></mask><mask id="satori_om-id-1-0-0-0"><rect x="4" y="23" width="8" height="8" fill="#fff"/></mask><path x="4" y="23" width="8" height="8" fill="#3178c6" d="M8,23 h0 a4,4 0 0 1 4,4 v0 a4,4 0 0 1 -4,4 h0 a4,4 0 0 1 -4,-4 v0 a4,4 0 0 1 4,-4"/><mask id="satori_om-id-1-0-1"><rect x="29" y="18" width="79" height="19" fill="#fff"/></mask><path fill="#fff" d="M38.6 22.1L38.6 24.0L35.1 24.0L35.1 33.5L32.8 33.5L32.8 24.0L29.3 24.0L29.3 22.1L38.6 22.1ZM40.7 25.0L42.3 30.3L43.8 25.0L46.3 25.0L42.9 34.8L42.7 35.2Q41.9 36.9 40.2 36.9L40.2 36.9Q39.7 36.9 39.2 36.7L39.2 36.7L39.2 35.0L39.5 35.0Q40.2 35.0 40.5 34.9Q40.8 34.7 41.0 34.2L41.0 34.2L41.2 33.5L38.3 25.0L40.7 25.0ZM54.8 29.2L54.8 29.3Q54.8 31.3 53.9 32.5Q53.0 33.6 51.5 33.6L51.5 33.6Q50.2 33.6 49.4 32.7L49.4 32.7L49.4 36.7L47.2 36.7L47.2 25.0L49.3 25.0L49.3 25.9Q50.1 24.9 51.5 24.9L51.5 24.9Q53.0 24.9 53.9 26.0Q54.8 27.2 54.8 29.2L54.8 29.2ZM52.5 29.2L52.5 29.2Q52.5 28.0 52.1 27.4Q51.7 26.7 50.9 26.7L50.9 26.7Q49.8 26.7 49.4 27.5L49.4 27.5L49.4 31.0Q49.8 31.8 50.9 31.8L50.9 31.8Q52.5 31.8 52.5 29.2ZM60.1 33.6L60.1 33.6Q58.2 33.6 57.0 32.5Q55.9 31.4 55.9 29.5L55.9 29.5L55.9 29.2Q55.9 28.0 56.4 27.0Q56.8 26.0 57.7 25.4Q58.6 24.9 59.8 24.9L59.8 24.9Q61.5 24.9 62.5 26.0Q63.5 27.1 63.5 29.1L63.5 29.1L63.5 30.0L58.1 30.0Q58.3 30.8 58.8 31.3Q59.4 31.8 60.2 31.8L60.2 31.8Q61.5 31.8 62.2 30.9L62.2 30.9L63.4 32.1Q62.8 32.8 62.0 33.2Q61.1 33.6 60.1 33.6ZM59.8 26.7L59.8 26.7Q59.1 26.7 58.7 27.2Q58.3 27.6 58.2 28.5L58.2 28.5L61.3 28.5L61.3 28.3Q61.3 27.5 60.9 27.1Q60.5 26.7 59.8 26.7ZM70.9 30.5L70.9 30.5Q70.9 29.8 70.4 29.5Q69.9 29.1 68.7 28.7Q67.5 28.3 66.8 28.0L66.8 28.0Q64.8 26.9 64.8 25.1L64.8 25.1Q64.8 24.2 65.4 23.5Q65.9 22.8 66.8 22.4Q67.8 22.0 69.0 22.0L69.0 22.0Q70.3 22.0 71.2 22.4Q72.2 22.8 72.7 23.6Q73.2 24.4 73.2 25.5L73.2 25.5L70.9 25.5Q70.9 24.7 70.4 24.3Q69.9 23.8 69.0 23.8L69.0 23.8Q68.1 23.8 67.7 24.2Q67.2 24.5 67.2 25.1L67.2 25.1Q67.2 25.7 67.7 26.1Q68.3 26.4 69.4 26.8L69.4 26.8Q71.4 27.4 72.3 28.3Q73.2 29.2 73.2 30.5L73.2 30.5Q73.2 32.0 72.1 32.8Q71.0 33.6 69.1 33.6L69.1 33.6Q67.8 33.6 66.7 33.2Q65.6 32.7 65.1 31.8Q64.5 31.0 64.5 29.9L64.5 29.9L66.8 29.9Q66.8 31.8 69.1 31.8L69.1 31.8Q69.9 31.8 70.4 31.4Q70.9 31.1 70.9 30.5ZM78.2 31.8L78.2 31.8Q78.8 31.8 79.2 31.5Q79.6 31.1 79.6 30.6L79.6 30.6L81.7 30.6Q81.7 31.4 81.2 32.1Q80.8 32.9 80.0 33.2Q79.2 33.6 78.2 33.6L78.2 33.6Q76.4 33.6 75.3 32.5Q74.3 31.3 74.3 29.3L74.3 29.3L74.3 29.2Q74.3 27.2 75.3 26.0Q76.4 24.9 78.2 24.9L78.2 24.9Q79.8 24.9 80.7 25.8Q81.7 26.7 81.7 28.2L81.7 28.2L79.6 28.2Q79.6 27.5 79.2 27.1Q78.8 26.7 78.1 26.7L78.1 26.7Q77.4 26.7 77.0 27.3Q76.6 27.9 76.6 29.1L76.6 29.1L76.6 29.4Q76.6 30.7 77.0 31.2Q77.4 31.8 78.2 31.8ZM87.8 25.0L87.7 27.1Q87.3 27.1 86.9 27.1L86.9 27.1Q85.6 27.1 85.3 28.0L85.3 28.0L85.3 33.5L83.0 33.5L83.0 25.0L85.1 25.0L85.2 26.0Q85.9 24.9 87.1 24.9L87.1 24.9Q87.4 24.9 87.8 25.0L87.8 25.0ZM91.2 25.0L91.2 33.5L88.9 33.5L88.9 25.0L91.2 25.0ZM88.8 22.8L88.8 22.8Q88.8 22.3 89.2 22.0Q89.5 21.7 90.1 21.7L90.1 21.7Q90.7 21.7 91 22.0Q91.3 22.3 91.3 22.8L91.3 22.8Q91.3 23.4 91.0 23.7Q90.6 24.0 90.1 24.0Q89.5 24.0 89.2 23.7Q88.8 23.4 88.8 22.8ZM100.7 29.2L100.7 29.3Q100.7 31.3 99.8 32.5Q98.9 33.6 97.4 33.6L97.4 33.6Q96.1 33.6 95.3 32.7L95.3 32.7L95.3 36.7L93.1 36.7L93.1 25.0L95.2 25.0L95.2 25.9Q96.1 24.9 97.4 24.9L97.4 24.9Q98.9 24.9 99.8 26.0Q100.7 27.2 100.7 29.2L100.7 29.2ZM98.4 29.2L98.4 29.2Q98.4 28.0 98.0 27.4Q97.6 26.7 96.8 26.7L96.8 26.7Q95.7 26.7 95.3 27.5L95.3 27.5L95.3 31.0Q95.7 31.8 96.8 31.8L96.8 31.8Q98.4 31.8 98.4 29.2ZM102.5 23.0L104.8 23.0L104.8 25.0L106.2 25.0L106.2 26.7L104.8 26.7L104.8 30.9Q104.8 31.4 105.0 31.6Q105.1 31.8 105.6 31.8L105.6 31.8Q106.0 31.8 106.3 31.7L106.3 31.7L106.3 33.4Q105.6 33.6 104.9 33.6L104.9 33.6Q102.6 33.6 102.5 31.2L102.5 31.2L102.5 26.7L101.3 26.7L101.3 25.0L102.5 25.0L102.5 23.0Z "/><mask id="satori_om-id-1-0-2"><rect x="117" y="18" width="43" height="19" fill="#fff"/></mask><path fill="#7d8590" d="M124.0 22.1L124.0 29.7L125.6 29.7L125.6 30.8L124.0 30.8L124.0 33.5L122.6 33.5L122.6 30.8L117.4 30.8L117.4 30.0L122.5 22.1L124.0 22.1ZM122.4 24.4L119.1 29.7L122.6 29.7L122.6 24.1L122.4 24.4ZM133.8 25.1L133.8 25.1Q133.8 25.9 133.4 26.6Q132.9 27.3 132.2 27.6L132.2 27.6Q133.1 28.0 133.6 28.7Q134.1 29.5 134.1 30.4L134.1 30.4Q134.1 31.9 133.1 32.8Q132.1 33.6 130.5 33.6L130.5 33.6Q128.8 33.6 127.8 32.8Q126.9 31.9 126.9 30.4L126.9 30.4Q126.9 29.5 127.4 28.7Q127.9 28.0 128.8 27.6L128.8 27.6Q128 27.2 127.6 26.6Q127.1 25.9 127.1 25.1L127.1 25.1Q127.1 23.6 128.0 22.8Q129.0 22.0 130.5 22.0L130.5 22.0Q132.0 22.0 132.9 22.8Q133.8 23.6 133.8 25.1ZM132.6 30.4L132.6 30.4Q132.6 29.4 132.0 28.8Q131.4 28.2 130.5 28.2Q129.5 28.2 128.9 28.8Q128.3 29.4 128.3 30.4Q128.3 31.4 128.9 31.9Q129.5 32.5 130.5 32.5L130.5 32.5Q131.5 32.5 132.1 31.9Q132.6 31.3 132.6 30.4ZM130.5 23.1L130.5 23.1Q129.6 23.1 129.1 23.7Q128.6 24.2 128.6 25.1L128.6 25.1Q128.6 26.0 129.1 26.5Q129.6 27.0 130.5 27.0Q131.3 27.0 131.9 26.5Q132.4 26.0 132.4 25.1Q132.4 24.2 131.8 23.7Q131.3 23.1 130.5 23.1ZM136.1 32.7L136.1 32.7Q136.1 32.4 136.3 32.1Q136.5 31.9 137.0 31.9Q137.4 31.9 137.7 32.1Q137.9 32.4 137.9 32.7L137.9 32.7Q137.9 33.1 137.7 33.3Q137.4 33.6 137.0 33.6Q136.5 33.6 136.3 33.3Q136.1 33.1 136.1 32.7ZM145.7 28.5L145.7 28.5Q145.2 29.0 144.6 29.4Q144.0 29.7 143.2 29.7L143.2 29.7Q142.2 29.7 141.5 29.2Q140.8 28.7 140.4 27.8Q140.0 27.0 140.0 25.9L140.0 25.9Q140.0 24.7 140.4 23.8Q140.8 22.9 141.6 22.4Q142.4 22.0 143.5 22.0L143.5 22.0Q145.2 22.0 146.1 23.2Q147.1 24.5 147.1 26.7L147.1 26.7L147.1 27.1Q147.1 30.4 145.8 31.9Q144.5 33.5 141.8 33.5L141.8 33.5L141.6 33.5L141.6 32.3L141.9 32.3Q143.7 32.2 144.6 31.3Q145.6 30.4 145.7 28.5ZM143.4 28.5L143.4 28.5Q144.2 28.5 144.8 28.0Q145.4 27.6 145.7 26.9L145.7 26.9L145.7 26.4Q145.7 24.9 145.1 24.0Q144.4 23.2 143.5 23.2L143.5 23.2Q142.5 23.2 142.0 23.9Q141.4 24.6 141.4 25.8L141.4 25.8Q141.4 27.0 141.9 27.7Q142.5 28.5 143.4 28.5ZM149.0 24.8L149.0 24.3Q149.0 23.3 149.6 22.6Q150.3 21.9 151.3 21.9L151.3 21.9Q152.4 21.9 153.0 22.6Q153.6 23.3 153.6 24.3L153.6 24.3L153.6 24.9Q153.6 25.9 153.0 26.6Q152.3 27.2 151.3 27.2L151.3 27.2Q150.3 27.2 149.6 26.6Q149.0 25.9 149.0 24.8L149.0 24.8ZM150.1 24.3L150.1 24.9Q150.1 25.5 150.4 25.9Q150.8 26.3 151.3 26.3L151.3 26.3Q151.9 26.3 152.2 25.9Q152.6 25.5 152.6 24.9L152.6 24.9L152.6 24.3Q152.6 23.7 152.2 23.3Q151.9 22.9 151.3 22.9Q150.7 22.9 150.4 23.3Q150.1 23.7 150.1 24.3L150.1 24.3ZM154.5 31.3L154.5 30.7Q154.5 29.7 155.2 29.0Q155.8 28.4 156.9 28.4Q157.9 28.4 158.5 29.0Q159.2 29.7 159.2 30.7L159.2 30.7L159.2 31.3Q159.2 32.3 158.5 33.0Q157.9 33.6 156.9 33.6Q155.9 33.6 155.2 33.0Q154.5 32.3 154.5 31.3L154.5 31.3ZM155.6 30.7L155.6 31.3Q155.6 31.9 155.9 32.3Q156.3 32.7 156.9 32.7L156.9 32.7Q157.4 32.7 157.8 32.3Q158.1 31.9 158.1 31.3L158.1 31.3L158.1 30.7Q158.1 30.1 157.8 29.7Q157.4 29.3 156.9 29.3L156.9 29.3Q156.3 29.3 155.9 29.7Q155.6 30.1 155.6 30.7L155.6 30.7ZM157.2 23.7L151.7 32.6L150.8 32.1L156.4 23.2L157.2 23.7Z "/><mask id="satori_om-id-1-1"><rect x="0" y="47" width="210" height="19" fill="#fff"/></mask><mask id="satori_om-id-1-1-0"><rect x="0" y="48" width="16" height="16" fill="#fff"/></mask><mask id="satori_om-id-1-1-0-0"><rect x="4" y="52" width="8" height="8" fill="#fff"/></mask><path x="4" y="52" width="8" height="8" fill="#DA5B0B" d="M8,52 h0 a4,4 0 0 1 4,4 v0 a4,4 0 0 1 -4,4 h0 a4,4 0 0 1 -4,-4 v0 a4,4 0 0 1 4,-4"/><mask id="satori_om-id-1-1-1"><rect x="29" y="47" width="129" height="19" fill="#fff"/></mask><path fill="#fff" d="M34.6 59.0L34.6 51.1L36.9 51.1L36.9 59.0Q36.9 60.1 36.5 60.9Q36.0 61.7 35.1 62.2Q34.2 62.6 33.1 62.6L33.1 62.6Q31.3 62.6 30.3 61.7Q29.3 60.8 29.3 59.1L29.3 59.1L31.7 59.1Q31.7 60.0 32.0 60.4Q32.4 60.8 33.1 60.8L33.1 60.8Q33.8 60.8 34.2 60.3Q34.6 59.8 34.6 59.0L34.6 59.0ZM43.9 62.5L43.9 61.6Q43.0 62.6 41.6 62.6L41.6 62.6Q40.2 62.6 39.5 61.9Q38.8 61.1 38.8 59.6L38.8 59.6L38.8 54.0L41.0 54.0L41.0 59.5Q41.0 60.8 42.2 60.8L42.2 60.8Q43.4 60.8 43.8 60.0L43.8 60.0L43.8 54.0L46.1 54.0L46.1 62.5L43.9 62.5ZM55.4 58.2L55.4 58.3Q55.4 60.3 54.5 61.5Q53.6 62.6 52.1 62.6L52.1 62.6Q50.8 62.6 50.0 61.7L50.0 61.7L50.0 65.7L47.8 65.7L47.8 54.0L49.9 54.0L49.9 54.9Q50.8 53.9 52.1 53.9L52.1 53.9Q53.6 53.9 54.5 55.0Q55.4 56.2 55.4 58.2L55.4 58.2ZM53.1 58.2L53.1 58.2Q53.1 57.0 52.7 56.4Q52.3 55.7 51.5 55.7L51.5 55.7Q50.4 55.7 50.0 56.5L50.0 56.5L50.0 60.0Q50.4 60.8 51.5 60.8L51.5 60.8Q53.1 60.8 53.1 58.2ZM58.3 54.0L59.8 59.3L61.4 54.0L63.8 54.0L60.4 63.8L60.2 64.2Q59.5 65.9 57.7 65.9L57.7 65.9Q57.2 65.9 56.7 65.7L56.7 65.7L56.7 64.0L57.1 64.0Q57.7 64.0 58.0 63.9Q58.4 63.7 58.5 63.2L58.5 63.2L58.8 62.5L55.8 54.0L58.3 54.0ZM65.2 52.0L67.4 52.0L67.4 54.0L68.9 54.0L68.9 55.7L67.4 55.7L67.4 59.9Q67.4 60.4 67.6 60.6Q67.8 60.8 68.3 60.8L68.3 60.8Q68.7 60.8 68.9 60.7L68.9 60.7L68.9 62.4Q68.3 62.6 67.6 62.6L67.6 62.6Q65.2 62.6 65.2 60.2L65.2 60.2L65.2 55.7L63.9 55.7L63.9 54.0L65.2 54.0L65.2 52.0ZM74.0 62.6L74.0 62.6Q72.1 62.6 71.0 61.5Q69.8 60.4 69.8 58.5L69.8 58.5L69.8 58.2Q69.8 57.0 70.3 56.0Q70.8 55.0 71.7 54.4Q72.6 53.9 73.8 53.9L73.8 53.9Q75.5 53.9 76.5 55.0Q77.5 56.1 77.5 58.1L77.5 58.1L77.5 59.0L72.1 59.0Q72.2 59.8 72.8 60.3Q73.3 60.8 74.2 60.8L74.2 60.8Q75.5 60.8 76.2 59.9L76.2 59.9L77.3 61.1Q76.8 61.8 75.9 62.2Q75.1 62.6 74.0 62.6ZM73.8 55.7L73.8 55.7Q73.1 55.7 72.7 56.2Q72.2 56.6 72.1 57.5L72.1 57.5L75.3 57.5L75.3 57.3Q75.3 56.5 74.9 56.1Q74.5 55.7 73.8 55.7ZM83.5 54.0L83.5 56.1Q83.1 56.1 82.7 56.1L82.7 56.1Q81.4 56.1 81.0 57.0L81.0 57.0L81.0 62.5L78.8 62.5L78.8 54.0L80.9 54.0L81.0 55.0Q81.6 53.9 82.8 53.9L82.8 53.9Q83.2 53.9 83.5 54.0L83.5 54.0Z M98.1 51.1L98.1 62.5L95.7 62.5L91.2 55.0L91.2 62.5L88.8 62.5L88.8 51.1L91.2 51.1L95.7 58.6L95.7 51.1L98.1 51.1ZM99.6 58.3L99.6 58.2Q99.6 56.9 100.1 55.9Q100.6 55.0 101.5 54.4Q102.4 53.9 103.6 53.9L103.6 53.9Q105.3 53.9 106.4 54.9Q107.5 56.0 107.6 57.8L107.6 57.8L107.6 58.3Q107.6 60.3 106.5 61.5Q105.5 62.6 103.6 62.6Q101.8 62.6 100.7 61.5Q99.6 60.3 99.6 58.3L99.6 58.3ZM101.9 58.3L101.9 58.3Q101.9 59.5 102.3 60.2Q102.8 60.8 103.6 60.8L103.6 60.8Q104.4 60.8 104.9 60.2Q105.4 59.6 105.4 58.2L105.4 58.2Q105.4 57.0 104.9 56.4Q104.4 55.7 103.6 55.7L103.6 55.7Q102.8 55.7 102.3 56.3Q101.9 57.0 101.9 58.3ZM109.5 52.0L111.7 52.0L111.7 54.0L113.2 54.0L113.2 55.7L111.7 55.7L111.7 59.9Q111.7 60.4 111.9 60.6Q112.1 60.8 112.6 60.8L112.6 60.8Q113.0 60.8 113.3 60.7L113.3 60.7L113.3 62.4Q112.6 62.6 111.9 62.6L111.9 62.6Q109.5 62.6 109.5 60.2L109.5 60.2L109.5 55.7L108.2 55.7L108.2 54.0L109.5 54.0L109.5 52.0ZM118.3 62.6L118.3 62.6Q116.5 62.6 115.3 61.5Q114.1 60.4 114.1 58.5L114.1 58.5L114.1 58.2Q114.1 57.0 114.6 56.0Q115.1 55.0 116.0 54.4Q116.9 53.9 118.1 53.9L118.1 53.9Q119.8 53.9 120.8 55.0Q121.8 56.1 121.8 58.1L121.8 58.1L121.8 59.0L116.4 59.0Q116.5 59.8 117.1 60.3Q117.6 60.8 118.5 60.8L118.5 60.8Q119.8 60.8 120.5 59.9L120.5 59.9L121.6 61.1Q121.1 61.8 120.2 62.2Q119.4 62.6 118.3 62.6ZM118.1 55.7L118.1 55.7Q117.4 55.7 117.0 56.2Q116.5 56.6 116.4 57.5L116.4 57.5L119.6 57.5L119.6 57.3Q119.6 56.5 119.2 56.1Q118.8 55.7 118.1 55.7ZM130.7 58.2L130.7 58.3Q130.7 60.4 129.8 61.5Q129.0 62.6 127.4 62.6L127.4 62.6Q126.0 62.6 125.2 61.6L125.2 61.6L125.1 62.5L123.1 62.5L123.1 50.5L125.3 50.5L125.3 54.8Q126.1 53.9 127.4 53.9L127.4 53.9Q128.9 53.9 129.8 55.0Q130.7 56.1 130.7 58.2L130.7 58.2ZM128.4 58.2L128.4 58.2Q128.4 56.9 128.0 56.3Q127.6 55.7 126.8 55.7L126.8 55.7Q125.7 55.7 125.3 56.6L125.3 56.6L125.3 59.9Q125.7 60.8 126.8 60.8L126.8 60.8Q127.9 60.8 128.3 59.7L128.3 59.7Q128.4 59.2 128.4 58.2ZM131.7 58.3L131.7 58.2Q131.7 56.9 132.2 55.9Q132.7 55.0 133.6 54.4Q134.5 53.9 135.7 53.9L135.7 53.9Q137.4 53.9 138.5 54.9Q139.6 56.0 139.7 57.8L139.7 57.8L139.7 58.3Q139.7 60.3 138.6 61.5Q137.6 62.6 135.7 62.6Q133.9 62.6 132.8 61.5Q131.7 60.3 131.7 58.3L131.7 58.3ZM134.0 58.3L134.0 58.3Q134.0 59.5 134.4 60.2Q134.9 60.8 135.7 60.8L135.7 60.8Q136.6 60.8 137.0 60.2Q137.5 59.6 137.5 58.2L137.5 58.2Q137.5 57.0 137.0 56.4Q136.6 55.7 135.7 55.7L135.7 55.7Q134.9 55.7 134.4 56.3Q134.0 57.0 134.0 58.3ZM140.8 58.3L140.8 58.2Q140.8 56.9 141.3 55.9Q141.7 55.0 142.7 54.4Q143.6 53.9 144.8 53.9L144.8 53.9Q146.5 53.9 147.6 54.9Q148.6 56.0 148.8 57.8L148.8 57.8L148.8 58.3Q148.8 60.3 147.7 61.5Q146.6 62.6 144.8 62.6Q143.0 62.6 141.9 61.5Q140.8 60.3 140.8 58.3L140.8 58.3ZM143.0 58.3L143.0 58.3Q143.0 59.5 143.5 60.2Q143.9 60.8 144.8 60.8L144.8 60.8Q145.6 60.8 146.1 60.2Q146.5 59.6 146.5 58.2L146.5 58.2Q146.5 57.0 146.1 56.4Q145.6 55.7 144.8 55.7L144.8 55.7Q143.9 55.7 143.5 56.3Q143.0 57.0 143.0 58.3ZM155.4 62.5L153.2 59.1L152.4 59.9L152.4 62.5L150.2 62.5L150.2 50.5L152.4 50.5L152.4 57.1L152.9 56.6L155.0 54.0L157.7 54.0L154.7 57.6L158.0 62.5L155.4 62.5Z "/><mask id="satori_om-id-1-1-2"><rect x="167" y="47" width="43" height="19" fill="#fff"/></mask><path fill="#7d8590" d="M172.7 51.1L172.7 62.5L171.2 62.5L171.2 52.9L168.3 53.9L168.3 52.6L172.5 51.1L172.7 51.1ZM184.1 55.8L184.1 57.6Q184.1 60.2 183.2 61.4Q182.3 62.6 180.5 62.6L180.5 62.6Q178.7 62.6 177.8 61.4Q176.9 60.2 176.9 57.8L176.9 57.8L176.9 55.9Q176.9 53.4 177.8 52.2Q178.6 51.0 180.5 51.0L180.5 51.0Q182.3 51.0 183.2 52.1Q184.0 53.3 184.1 55.8L184.1 55.8ZM182.6 58.0L182.6 55.7Q182.6 53.8 182.1 53.0Q181.6 52.1 180.5 52.1L180.5 52.1Q179.4 52.1 178.9 53.0Q178.3 53.8 178.3 55.5L178.3 55.5L178.3 57.9Q178.3 59.7 178.9 60.6Q179.4 61.5 180.5 61.5L180.5 61.5Q181.6 61.5 182.1 60.6Q182.6 59.8 182.6 58.0L182.6 58.0ZM186.1 61.7L186.1 61.7Q186.1 61.4 186.3 61.1Q186.5 60.9 187.0 60.9Q187.4 60.9 187.7 61.1Q187.9 61.4 187.9 61.7L187.9 61.7Q187.9 62.1 187.7 62.3Q187.4 62.6 187.0 62.6Q186.5 62.6 186.3 62.3Q186.1 62.1 186.1 61.7ZM195.5 51.1L195.8 51.1L195.8 52.3L195.5 52.3Q193.8 52.4 192.8 53.3Q191.8 54.3 191.7 56.1L191.7 56.1Q192.6 55.0 194.1 55.0L194.1 55.0Q195.6 55.0 196.5 56.1Q197.4 57.1 197.4 58.8L197.4 58.8Q197.4 60.5 196.4 61.6Q195.5 62.6 193.9 62.6L193.9 62.6Q192.2 62.6 191.2 61.4Q190.2 60.1 190.2 58.2L190.2 58.2L190.2 57.6Q190.2 54.5 191.6 52.8Q192.9 51.1 195.5 51.1L195.5 51.1ZM193.9 56.2L193.9 56.2Q193.2 56.2 192.5 56.7Q191.9 57.1 191.7 57.8L191.7 57.8L191.7 58.3Q191.7 59.7 192.3 60.6Q192.9 61.4 193.9 61.4L193.9 61.4Q194.9 61.4 195.4 60.7Q196.0 60.0 196.0 58.8L196.0 58.8Q196.0 57.7 195.4 56.9Q194.8 56.2 193.9 56.2ZM199.0 53.8L199.0 53.3Q199.0 52.3 199.6 51.6Q200.3 50.9 201.3 50.9L201.3 50.9Q202.4 50.9 203.0 51.6Q203.6 52.3 203.6 53.3L203.6 53.3L203.6 53.9Q203.6 54.9 203.0 55.6Q202.3 56.2 201.3 56.2L201.3 56.2Q200.3 56.2 199.6 55.6Q199.0 54.9 199.0 53.8L199.0 53.8ZM200.1 53.3L200.1 53.9Q200.1 54.5 200.4 54.9Q200.8 55.3 201.3 55.3L201.3 55.3Q201.9 55.3 202.2 54.9Q202.6 54.5 202.6 53.9L202.6 53.9L202.6 53.3Q202.6 52.7 202.2 52.3Q201.9 51.9 201.3 51.9Q200.7 51.9 200.4 52.3Q200.1 52.7 200.1 53.3L200.1 53.3ZM204.5 60.3L204.5 59.7Q204.5 58.7 205.2 58.0Q205.8 57.4 206.9 57.4Q207.9 57.4 208.5 58.0Q209.2 58.7 209.2 59.7L209.2 59.7L209.2 60.3Q209.2 61.3 208.5 62.0Q207.9 62.6 206.9 62.6Q205.9 62.6 205.2 62.0Q204.5 61.3 204.5 60.3L204.5 60.3ZM205.6 59.7L205.6 60.3Q205.6 60.9 205.9 61.3Q206.3 61.7 206.9 61.7L206.9 61.7Q207.4 61.7 207.8 61.3Q208.1 60.9 208.1 60.3L208.1 60.3L208.1 59.7Q208.1 59.1 207.8 58.7Q207.4 58.3 206.9 58.3L206.9 58.3Q206.3 58.3 205.9 58.7Q205.6 59.1 205.6 59.7L205.6 59.7ZM207.2 52.7L201.7 61.6L200.8 61.1L206.4 52.2L207.2 52.7Z "/><mask id="satori_om-id-1-2"><rect x="220" y="47" width="103" height="19" fill="#fff"/></mask><mask id="satori_om-id-1-2-0"><rect x="220" y="48" width="16" height="16" fill="#fff"/></mask><mask id="satori_om-id-1-2-0-0"><rect x="224" y="52" width="8" height="8" fill="#fff"/></mask><path x="224" y="52" width="8" height="8" fill="#844FBA" d="M228,52 h0 a4,4 0 0 1 4,4 v0 a4,4 0 0 1 -4,4 h0 a4,4 0 0 1 -4,-4 v0 a4,4 0 0 1 4,-4"/><mask id="satori_om-id-1-2-1"><rect x="249" y="47" width="31" height="19" fill="#fff"/></mask><path fill="#fff" d="M259.3 51.1L259.3 62.5L256.9 62.5L256.9 57.6L252.4 57.6L252.4 62.5L250.0 62.5L250.0 51.1L252.4 51.1L252.4 55.7L256.9 55.7L256.9 51.1L259.3 51.1ZM267.9 58.7L270.3 58.7Q270.1 60.5 268.9 61.6Q267.7 62.6 265.7 62.6L265.7 62.6Q263.5 62.6 262.2 61.2Q261.0 59.7 261.0 57.1L261.0 57.1L261.0 56.4Q261.0 54.8 261.6 53.5Q262.1 52.3 263.2 51.6Q264.3 51.0 265.7 51.0L265.7 51.0Q267.7 51.0 268.9 52.0Q270.1 53.1 270.3 55.0L270.3 55.0L267.9 55.0Q267.8 53.9 267.3 53.4Q266.8 52.9 265.7 52.9L265.7 52.9Q264.5 52.9 263.9 53.7Q263.4 54.6 263.4 56.3L263.4 56.3L263.4 57.2Q263.4 59.0 263.9 59.9Q264.5 60.7 265.7 60.7L265.7 60.7Q266.8 60.7 267.3 60.2Q267.8 59.7 267.9 58.7L267.9 58.7ZM274.1 51.1L274.1 60.6L279.1 60.6L279.1 62.5L271.8 62.5L271.8 51.1L274.1 51.1Z "/><mask id="satori_om-id-1-2-2"><rect x="289" y="47" width="34" height="19" fill="#fff"/></mask><path fill="#7d8590" d="M295.5 57.5L295.5 57.5Q295.0 58.0 294.4 58.4Q293.8 58.7 293.0 58.7L293.0 58.7Q292.0 58.7 291.3 58.2Q290.6 57.7 290.2 56.8Q289.8 56.0 289.8 54.9L289.8 54.9Q289.8 53.7 290.2 52.8Q290.6 51.9 291.4 51.4Q292.2 51.0 293.3 51.0L293.3 51.0Q295.0 51.0 296.0 52.2Q296.9 53.5 296.9 55.7L296.9 55.7L296.9 56.1Q296.9 59.4 295.6 60.9Q294.3 62.5 291.7 62.5L291.7 62.5L291.4 62.5L291.4 61.3L291.7 61.3Q293.5 61.2 294.4 60.3Q295.4 59.4 295.5 57.5ZM293.3 57.5L293.3 57.5Q294.0 57.5 294.6 57.0Q295.2 56.6 295.5 55.9L295.5 55.9L295.5 55.4Q295.5 53.9 294.9 53.0Q294.3 52.2 293.3 52.2L293.3 52.2Q292.4 52.2 291.8 52.9Q291.2 53.6 291.2 54.8L291.2 54.8Q291.2 56.0 291.8 56.7Q292.3 57.5 293.3 57.5ZM299.1 61.7L299.1 61.7Q299.1 61.4 299.3 61.1Q299.6 60.9 300 60.9Q300.4 60.9 300.7 61.1Q300.9 61.4 300.9 61.7L300.9 61.7Q300.9 62.1 300.7 62.3Q300.4 62.6 300 62.6Q299.6 62.6 299.3 62.3Q299.1 62.1 299.1 61.7ZM307.9 51.1L307.9 62.5L306.4 62.5L306.4 52.9L303.5 53.9L303.5 52.6L307.7 51.1L307.9 51.1ZM312 53.8L312 53.3Q312 52.3 312.7 51.6Q313.3 50.9 314.3 50.9L314.3 50.9Q315.4 50.9 316.0 51.6Q316.7 52.3 316.7 53.3L316.7 53.3L316.7 53.9Q316.7 54.9 316.0 55.6Q315.4 56.2 314.3 56.2L314.3 56.2Q313.3 56.2 312.7 55.6Q312 54.9 312 53.8L312 53.8ZM313.1 53.3L313.1 53.9Q313.1 54.5 313.4 54.9Q313.8 55.3 314.3 55.3L314.3 55.3Q314.9 55.3 315.2 54.9Q315.6 54.5 315.6 53.9L315.6 53.9L315.6 53.3Q315.6 52.7 315.2 52.3Q314.9 51.9 314.3 51.9Q313.8 51.9 313.4 52.3Q313.1 52.7 313.1 53.3L313.1 53.3ZM317.5 60.3L317.5 59.7Q317.5 58.7 318.2 58.0Q318.8 57.4 319.9 57.4Q320.9 57.4 321.5 58.0Q322.2 58.7 322.2 59.7L322.2 59.7L322.2 60.3Q322.2 61.3 321.6 62.0Q320.9 62.6 319.9 62.6Q318.9 62.6 318.2 62.0Q317.5 61.3 317.5 60.3L317.5 60.3ZM318.6 59.7L318.6 60.3Q318.6 60.9 319.0 61.3Q319.3 61.7 319.9 61.7L319.9 61.7Q320.4 61.7 320.8 61.3Q321.1 60.9 321.1 60.3L321.1 60.3L321.1 59.7Q321.1 59.1 320.8 58.7Q320.4 58.3 319.9 58.3L319.9 58.3Q319.3 58.3 319.0 58.7Q318.6 59.1 318.6 59.7L318.6 59.7ZM320.2 52.7L314.7 61.6L313.9 61.1L319.4 52.2L320.2 52.7Z "/><mask id="satori_om-id-1-3"><rect x="0" y="76" width="123" height="18" fill="#fff"/></mask><mask id="satori_om-id-1-3-0"><rect x="0" y="77" width="16" height="16" fill="#fff"/></mask><mask id="satori_om-id-1-3-0-0"><rect x="4" y="81" width="8" height="8" fill="#fff"/></mask><path x="4" y="81" width="8" height="8" fill="#3572A5" d="M8,81 h0 a4,4 0 0 1 4,4 v0 a4,4 0 0 1 -4,4 h0 a4,4 0 0 1 -4,-4 v0 a4,4 0 0 1 4,-4"/><mask id="satori_om-id-1-3-1"><rect x="29" y="76" width="51" height="18" fill="#fff"/></mask><path fill="#fff" d="M34.4 87.5L32.4 87.5L32.4 91.5L30.0 91.5L30.0 80.1L34.5 80.1Q35.7 80.1 36.7 80.6Q37.7 81.0 38.2 81.9Q38.7 82.8 38.7 83.9L38.7 83.9Q38.7 85.5 37.6 86.5Q36.4 87.5 34.4 87.5L34.4 87.5ZM32.4 82.0L32.4 85.6L34.5 85.6Q35.4 85.6 35.9 85.1Q36.4 84.7 36.4 83.9L36.4 83.9Q36.4 83.1 35.9 82.5Q35.4 82.0 34.5 82.0L34.5 82.0L32.4 82.0ZM41.9 83.0L43.5 88.3L45.0 83.0L47.4 83.0L44.0 92.8L43.9 93.2Q43.1 94.9 41.4 94.9L41.4 94.9Q40.9 94.9 40.4 94.7L40.4 94.7L40.4 93.0L40.7 93.0Q41.3 93.0 41.7 92.9Q42.0 92.7 42.2 92.2L42.2 92.2L42.4 91.5L39.5 83.0L41.9 83.0ZM48.8 81.0L51.0 81.0L51.0 83.0L52.5 83.0L52.5 84.7L51.0 84.7L51.0 88.9Q51.0 89.4 51.2 89.6Q51.4 89.8 51.9 89.8L51.9 89.8Q52.3 89.8 52.6 89.7L52.6 89.7L52.6 91.4Q51.9 91.6 51.2 91.6L51.2 91.6Q48.8 91.6 48.8 89.2L48.8 89.2L48.8 84.7L47.5 84.7L47.5 83.0L48.8 83.0L48.8 81.0ZM55.9 79.5L55.9 84.0Q56.8 82.9 58.2 82.9L58.2 82.9Q61.0 82.9 61.0 86.1L61.0 86.1L61.0 91.5L58.7 91.5L58.7 86.1Q58.7 85.4 58.4 85.1Q58.1 84.7 57.4 84.7L57.4 84.7Q56.4 84.7 55.9 85.5L55.9 85.5L55.9 91.5L53.7 91.5L53.7 79.5L55.9 79.5ZM62.3 87.3L62.3 87.2Q62.3 85.9 62.8 84.9Q63.3 84.0 64.2 83.4Q65.1 82.9 66.3 82.9L66.3 82.9Q68.0 82.9 69.1 83.9Q70.2 85.0 70.3 86.8L70.3 86.8L70.4 87.3Q70.4 89.3 69.3 90.5Q68.2 91.6 66.4 91.6Q64.5 91.6 63.4 90.5Q62.3 89.3 62.3 87.3L62.3 87.3ZM64.6 87.3L64.6 87.3Q64.6 88.5 65.1 89.2Q65.5 89.8 66.4 89.8L66.4 89.8Q67.2 89.8 67.6 89.2Q68.1 88.6 68.1 87.2L68.1 87.2Q68.1 86.0 67.6 85.4Q67.2 84.7 66.3 84.7L66.3 84.7Q65.5 84.7 65.1 85.3Q64.6 86.0 64.6 87.3ZM71.7 83.0L73.8 83.0L73.9 84.0Q74.8 82.9 76.3 82.9L76.3 82.9Q77.7 82.9 78.3 83.7Q79.0 84.5 79.0 86.0L79.0 86.0L79.0 91.5L76.7 91.5L76.7 86.1Q76.7 85.4 76.4 85.0Q76.1 84.7 75.4 84.7L75.4 84.7Q74.4 84.7 74.0 85.5L74.0 85.5L74.0 91.5L71.7 91.5L71.7 83.0Z "/><mask id="satori_om-id-1-3-2"><rect x="89" y="76" width="34" height="18" fill="#fff"/></mask><path fill="#7d8590" d="M97.3 80.1L97.3 80.9L92.6 91.5L91.1 91.5L95.8 81.3L89.6 81.3L89.6 80.1L97.3 80.1ZM99.1 90.7L99.1 90.7Q99.1 90.4 99.3 90.1Q99.6 89.9 100 89.9Q100.4 89.9 100.7 90.1Q100.9 90.4 100.9 90.7L100.9 90.7Q100.9 91.1 100.7 91.3Q100.4 91.6 100 91.6Q99.6 91.6 99.3 91.3Q99.1 91.1 99.1 90.7ZM109.2 80.1L109.2 87.7L110.8 87.7L110.8 88.8L109.2 88.8L109.2 91.5L107.8 91.5L107.8 88.8L102.6 88.8L102.6 88.0L107.7 80.1L109.2 80.1ZM107.6 82.4L104.3 87.7L107.8 87.7L107.8 82.1L107.6 82.4ZM112 82.8L112 82.3Q112 81.3 112.7 80.6Q113.3 79.9 114.3 79.9L114.3 79.9Q115.4 79.9 116.0 80.6Q116.7 81.3 116.7 82.3L116.7 82.3L116.7 82.9Q116.7 83.9 116.0 84.6Q115.4 85.2 114.3 85.2L114.3 85.2Q113.3 85.2 112.7 84.6Q112 83.9 112 82.8L112 82.8ZM113.1 82.3L113.1 82.9Q113.1 83.5 113.4 83.9Q113.8 84.3 114.3 84.3L114.3 84.3Q114.9 84.3 115.2 83.9Q115.6 83.5 115.6 82.9L115.6 82.9L115.6 82.3Q115.6 81.7 115.2 81.3Q114.9 80.9 114.3 80.9Q113.8 80.9 113.4 81.3Q113.1 81.7 113.1 82.3L113.1 82.3ZM117.5 89.3L117.5 88.7Q117.5 87.7 118.2 87.0Q118.8 86.4 119.9 86.4Q120.9 86.4 121.5 87.0Q122.2 87.7 122.2 88.7L122.2 88.7L122.2 89.3Q122.2 90.3 121.6 91.0Q120.9 91.6 119.9 91.6Q118.9 91.6 118.2 91.0Q117.5 90.3 117.5 89.3L117.5 89.3ZM118.6 88.7L118.6 89.3Q118.6 89.9 119.0 90.3Q119.3 90.7 119.9 90.7L119.9 90.7Q120.4 90.7 120.8 90.3Q121.1 89.9 121.1 89.3L121.1 89.3L121.1 88.7Q121.1 88.1 120.8 87.7Q120.4 87.3 119.9 87.3L119.9 87.3Q119.3 87.3 119.0 87.7Q118.6 88.1 118.6 88.7L118.6 88.7ZM120.2 81.7L114.7 90.6L113.9 90.1L119.4 81.2L120.2 81.7Z "/><mask id="satori_om-id-1-4"><rect x="133" y="76" width="117" height="18" fill="#fff"/></mask><mask id="satori_om-id-1-4-0"><rect x="133" y="77" width="16" height="16" fill="#fff"/></mask><mask id="satori_om-id-1-4-0-0"><rect x="137" y="81" width="8" height="8" fill="#fff"/></mask><path x="137" y="81" width="8" height="8" fill="#ff3e00" d="M141,81 h0 a4,4 0 0 1 4,4 v0 a4,4 0 0 1 -4,4 h0 a4,4 0 0 1 -4,-4 v0 a4,4 0 0 1 4,-4"/><mask id="satori_om-id-1-4-1"><rect x="162" y="76" width="45" height="18" fill="#fff"/></mask><path fill="#fff" d="M168.9 88.5L168.9 88.5Q168.9 87.8 168.4 87.5Q168.0 87.1 166.8 86.7Q165.5 86.3 164.8 86.0L164.8 86.0Q162.9 84.9 162.9 83.1L162.9 83.1Q162.9 82.2 163.4 81.5Q163.9 80.8 164.9 80.4Q165.9 80.0 167.1 80.0L167.1 80.0Q168.3 80.0 169.3 80.4Q170.2 80.8 170.7 81.6Q171.3 82.4 171.3 83.5L171.3 83.5L168.9 83.5Q168.9 82.7 168.4 82.3Q167.9 81.8 167.0 81.8L167.0 81.8Q166.2 81.8 165.7 82.2Q165.2 82.5 165.2 83.1L165.2 83.1Q165.2 83.7 165.8 84.1Q166.4 84.4 167.4 84.8L167.4 84.8Q169.4 85.4 170.4 86.3Q171.3 87.2 171.3 88.5L171.3 88.5Q171.3 90.0 170.1 90.8Q169.0 91.6 167.1 91.6L167.1 91.6Q165.8 91.6 164.8 91.2Q163.7 90.7 163.1 89.8Q162.5 89.0 162.5 87.9L162.5 87.9L164.9 87.9Q164.9 89.8 167.1 89.8L167.1 89.8Q168.0 89.8 168.4 89.4Q168.9 89.1 168.9 88.5ZM174.3 83.0L175.9 88.7L177.4 83.0L179.8 83.0L176.9 91.5L174.8 91.5L171.9 83.0L174.3 83.0ZM184.6 91.6L184.6 91.6Q182.7 91.6 181.6 90.5Q180.4 89.4 180.4 87.5L180.4 87.5L180.4 87.2Q180.4 86.0 180.9 85.0Q181.4 84.0 182.3 83.4Q183.2 82.9 184.3 82.9L184.3 82.9Q186.1 82.9 187.1 84.0Q188.1 85.1 188.1 87.1L188.1 87.1L188.1 88.0L182.7 88.0Q182.8 88.8 183.3 89.3Q183.9 89.8 184.7 89.8L184.7 89.8Q186.0 89.8 186.8 88.9L186.8 88.9L187.9 90.1Q187.4 90.8 186.5 91.2Q185.6 91.6 184.6 91.6ZM184.3 84.7L184.3 84.7Q183.6 84.7 183.2 85.2Q182.8 85.6 182.7 86.5L182.7 86.5L185.8 86.5L185.8 86.3Q185.8 85.5 185.4 85.1Q185.0 84.7 184.3 84.7ZM191.7 79.5L191.7 91.5L189.5 91.5L189.5 79.5L191.7 79.5ZM194.0 81.0L196.3 81.0L196.3 83.0L197.7 83.0L197.7 84.7L196.3 84.7L196.3 88.9Q196.3 89.4 196.5 89.6Q196.6 89.8 197.1 89.8L197.1 89.8Q197.5 89.8 197.8 89.7L197.8 89.7L197.8 91.4Q197.1 91.6 196.4 91.6L196.4 91.6Q194.1 91.6 194.0 89.2L194.0 89.2L194.0 84.7L192.8 84.7L192.8 83.0L194.0 83.0L194.0 81.0ZM202.9 91.6L202.9 91.6Q201.0 91.6 199.8 90.5Q198.7 89.4 198.7 87.5L198.7 87.5L198.7 87.2Q198.7 86.0 199.2 85.0Q199.7 84.0 200.6 83.4Q201.5 82.9 202.6 82.9L202.6 82.9Q204.4 82.9 205.4 84.0Q206.4 85.1 206.4 87.1L206.4 87.1L206.4 88.0L201.0 88.0Q201.1 88.8 201.6 89.3Q202.2 89.8 203.0 89.8L203.0 89.8Q204.3 89.8 205.1 88.9L205.1 88.9L206.2 90.1Q205.7 90.8 204.8 91.2Q203.9 91.6 202.9 91.6ZM202.6 84.7L202.6 84.7Q201.9 84.7 201.5 85.2Q201.1 85.6 201.0 86.5L201.0 86.5L204.1 86.5L204.1 86.3Q204.1 85.5 203.7 85.1Q203.3 84.7 202.6 84.7Z "/><mask id="satori_om-id-1-4-2"><rect x="216" y="76" width="34" height="18" fill="#fff"/></mask><path fill="#7d8590" d="M218.8 86.1L217.6 85.8L218.2 80.1L224.0 80.1L224.0 81.4L219.4 81.4L219.1 84.5Q219.9 84.1 221.0 84.1L221.0 84.1Q222.5 84.1 223.4 85.1Q224.4 86.1 224.4 87.9L224.4 87.9Q224.4 89.6 223.4 90.6Q222.5 91.6 220.8 91.6L220.8 91.6Q219.2 91.6 218.3 90.8Q217.3 90.0 217.2 88.5L217.2 88.5L218.6 88.5Q218.7 89.5 219.3 90.0Q219.8 90.5 220.8 90.5L220.8 90.5Q221.8 90.5 222.3 89.8Q222.9 89.1 222.9 87.9L222.9 87.9Q222.9 86.7 222.3 86.0Q221.7 85.4 220.6 85.4L220.6 85.4Q219.7 85.4 219.1 85.8L219.1 85.8L218.8 86.1ZM226.1 90.7L226.1 90.7Q226.1 90.4 226.3 90.1Q226.6 89.9 227 89.9Q227.4 89.9 227.7 90.1Q227.9 90.4 227.9 90.7L227.9 90.7Q227.9 91.1 227.7 91.3Q227.4 91.6 227 91.6Q226.6 91.6 226.3 91.3Q226.1 91.1 226.1 90.7ZM232.2 86.3L232.2 85.1L233.3 85.1Q234.4 85.1 234.9 84.6Q235.5 84.0 235.5 83.1L235.5 83.1Q235.5 81.1 233.5 81.1L233.5 81.1Q232.6 81.1 232.0 81.7Q231.5 82.2 231.5 83.1L231.5 83.1L230.0 83.1Q230.0 81.7 231.0 80.8Q232.0 80.0 233.5 80.0L233.5 80.0Q235.1 80.0 236.1 80.8Q237.0 81.7 237.0 83.2L237.0 83.2Q237.0 83.9 236.5 84.6Q236.0 85.3 235.2 85.6L235.2 85.6Q236.1 85.9 236.6 86.6Q237.1 87.3 237.1 88.3L237.1 88.3Q237.1 89.8 236.1 90.7Q235.1 91.6 233.5 91.6Q231.9 91.6 230.9 90.8Q229.9 89.9 229.9 88.5L229.9 88.5L231.4 88.5Q231.4 89.4 232.0 89.9Q232.6 90.5 233.5 90.5L233.5 90.5Q234.6 90.5 235.1 89.9Q235.7 89.4 235.7 88.3L235.7 88.3Q235.7 87.4 235.1 86.8Q234.5 86.3 233.3 86.3L233.3 86.3L232.2 86.3ZM239 82.8L239 82.3Q239 81.3 239.7 80.6Q240.3 79.9 241.3 79.9L241.3 79.9Q242.4 79.9 243.0 80.6Q243.7 81.3 243.7 82.3L243.7 82.3L243.7 82.9Q243.7 83.9 243.0 84.6Q242.4 85.2 241.3 85.2L241.3 85.2Q240.3 85.2 239.7 84.6Q239 83.9 239 82.8L239 82.8ZM240.1 82.3L240.1 82.9Q240.1 83.5 240.4 83.9Q240.8 84.3 241.3 84.3L241.3 84.3Q241.9 84.3 242.2 83.9Q242.6 83.5 242.6 82.9L242.6 82.9L242.6 82.3Q242.6 81.7 242.2 81.3Q241.9 80.9 241.3 80.9Q240.8 80.9 240.4 81.3Q240.1 81.7 240.1 82.3L240.1 82.3ZM244.5 89.3L244.5 88.7Q244.5 87.7 245.2 87.0Q245.8 86.4 246.9 86.4Q247.9 86.4 248.5 87.0Q249.2 87.7 249.2 88.7L249.2 88.7L249.2 89.3Q249.2 90.3 248.6 91.0Q247.9 91.6 246.9 91.6Q245.9 91.6 245.2 91.0Q244.5 90.3 244.5 89.3L244.5 89.3ZM245.6 88.7L245.6 89.3Q245.6 89.9 246.0 90.3Q246.3 90.7 246.9 90.7L246.9 90.7Q247.4 90.7 247.8 90.3Q248.1 89.9 248.1 89.3L248.1 89.3L248.1 88.7Q248.1 88.1 247.8 87.7Q247.4 87.3 246.9 87.3L246.9 87.3Q246.3 87.3 246.0 87.7Q245.6 88.1 245.6 88.7L245.6 88.7ZM247.2 81.7L241.7 90.6L240.9 90.1L246.4 81.2L247.2 81.7Z "/><mask id="satori_om-id-1-5"><rect x="0" y="104" width="116" height="19" fill="#fff"/></mask><mask id="satori_om-id-1-5-0"><rect x="0" y="105" width="16" height="16" fill="#fff"/></mask><mask id="satori_om-id-1-5-0-0"><rect x="4" y="109" width="8" height="8" fill="#fff"/></mask><path x="4" y="109" width="8" height="8" fill="#e34c26" d="M8,109 h0 a4,4 0 0 1 4,4 v0 a4,4 0 0 1 -4,4 h0 a4,4 0 0 1 -4,-4 v0 a4,4 0 0 1 4,-4"/><mask id="satori_om-id-1-5-1"><rect x="29" y="104" width="44" height="19" fill="#fff"/></mask><path fill="#fff" d="M39.3 108.1L39.3 119.5L36.9 119.5L36.9 114.6L32.4 114.6L32.4 119.5L30.0 119.5L30.0 108.1L32.4 108.1L32.4 112.7L36.9 112.7L36.9 108.1L39.3 108.1ZM49.7 108.1L49.7 110.0L46.2 110.0L46.2 119.5L43.8 119.5L43.8 110.0L40.4 110.0L40.4 108.1L49.7 108.1ZM51.0 108.1L54.1 108.1L57.0 116.4L59.9 108.1L63.0 108.1L63.0 119.5L60.6 119.5L60.6 116.4L60.8 111.0L57.8 119.5L56.2 119.5L53.1 111.0L53.3 116.4L53.3 119.5L51.0 119.5L51.0 108.1ZM67.4 108.1L67.4 117.6L72.3 117.6L72.3 119.5L65.0 119.5L65.0 108.1L67.4 108.1Z "/><mask id="satori_om-id-1-5-2"><rect x="82" y="104" width="34" height="19" fill="#fff"/></mask><path fill="#7d8590" d="M89.0 108.1L89.0 115.7L90.6 115.7L90.6 116.8L89.0 116.8L89.0 119.5L87.6 119.5L87.6 116.8L82.4 116.8L82.4 116.0L87.5 108.1L89.0 108.1ZM87.4 110.4L84.1 115.7L87.6 115.7L87.6 110.1L87.4 110.4ZM92.1 118.7L92.1 118.7Q92.1 118.4 92.3 118.1Q92.6 117.9 93 117.9Q93.4 117.9 93.7 118.1Q93.9 118.4 93.9 118.7L93.9 118.7Q93.9 119.1 93.7 119.3Q93.4 119.6 93 119.6Q92.6 119.6 92.3 119.3Q92.1 119.1 92.1 118.7ZM103.3 112.8L103.3 114.6Q103.3 117.2 102.4 118.4Q101.5 119.6 99.7 119.6L99.7 119.6Q97.9 119.6 97 118.4Q96.1 117.2 96.1 114.8L96.1 114.8L96.1 112.9Q96.1 110.4 97.0 109.2Q97.8 108.0 99.7 108.0L99.7 108.0Q101.5 108.0 102.4 109.1Q103.3 110.3 103.3 112.8L103.3 112.8ZM101.8 115.0L101.8 112.7Q101.8 110.8 101.3 110.0Q100.8 109.1 99.7 109.1L99.7 109.1Q98.6 109.1 98.1 110.0Q97.6 110.8 97.5 112.5L97.5 112.5L97.5 114.9Q97.5 116.7 98.1 117.6Q98.6 118.5 99.7 118.5L99.7 118.5Q100.8 118.5 101.3 117.6Q101.8 116.8 101.8 115.0L101.8 115.0ZM105 110.8L105 110.3Q105 109.3 105.7 108.6Q106.3 107.9 107.3 107.9L107.3 107.9Q108.4 107.9 109.0 108.6Q109.7 109.3 109.7 110.3L109.7 110.3L109.7 110.9Q109.7 111.9 109.0 112.6Q108.4 113.2 107.3 113.2L107.3 113.2Q106.3 113.2 105.7 112.6Q105 111.9 105 110.8L105 110.8ZM106.1 110.3L106.1 110.9Q106.1 111.5 106.4 111.9Q106.8 112.3 107.3 112.3L107.3 112.3Q107.9 112.3 108.2 111.9Q108.6 111.5 108.6 110.9L108.6 110.9L108.6 110.3Q108.6 109.7 108.2 109.3Q107.9 108.9 107.3 108.9Q106.8 108.9 106.4 109.3Q106.1 109.7 106.1 110.3L106.1 110.3ZM110.5 117.3L110.5 116.7Q110.5 115.7 111.2 115.0Q111.8 114.4 112.9 114.4Q113.9 114.4 114.5 115.0Q115.2 115.7 115.2 116.7L115.2 116.7L115.2 117.3Q115.2 118.3 114.6 119.0Q113.9 119.6 112.9 119.6Q111.9 119.6 111.2 119.0Q110.5 118.3 110.5 117.3L110.5 117.3ZM111.6 116.7L111.6 117.3Q111.6 117.9 112.0 118.3Q112.3 118.7 112.9 118.7L112.9 118.7Q113.4 118.7 113.8 118.3Q114.1 117.9 114.1 117.3L114.1 117.3L114.1 116.7Q114.1 116.1 113.8 115.7Q113.4 115.3 112.9 115.3L112.9 115.3Q112.3 115.3 112.0 115.7Q111.6 116.1 111.6 116.7L111.6 116.7ZM113.2 109.7L107.7 118.6L106.9 118.1L112.4 109.2L113.2 109.7Z "/><mask id="satori_om-id-1-6"><rect x="126" y="104" width="149" height="19" fill="#fff"/></mask><mask id="satori_om-id-1-6-0"><rect x="126" y="105" width="16" height="16" fill="#fff"/></mask><mask id="satori_om-id-1-6-0-0"><rect x="130" y="109" width="8" height="8" fill="#fff"/></mask><path x="130" y="109" width="8" height="8" fill="#f1e05a" d="M134,109 h0 a4,4 0 0 1 4,4 v0 a4,4 0 0 1 -4,4 h0 a4,4 0 0 1 -4,-4 v0 a4,4 0 0 1 4,-4"/><mask id="satori_om-id-1-6-1"><rect x="155" y="104" width="77" height="19" fill="#fff"/></mask><path fill="#fff" d="M160.6 116.0L160.6 108.1L162.9 108.1L162.9 116.0Q162.9 117.1 162.5 117.9Q162.0 118.7 161.1 119.2Q160.2 119.6 159.1 119.6L159.1 119.6Q157.3 119.6 156.3 118.7Q155.3 117.8 155.3 116.1L155.3 116.1L157.7 116.1Q157.7 117.0 158.0 117.4Q158.4 117.8 159.1 117.8L159.1 117.8Q159.8 117.8 160.2 117.3Q160.6 116.8 160.6 116.0L160.6 116.0ZM172.0 119.5L169.7 119.5Q169.5 119.2 169.5 118.7L169.5 118.7Q168.7 119.6 167.3 119.6L167.3 119.6Q166.1 119.6 165.3 118.9Q164.5 118.2 164.5 117.1L164.5 117.1Q164.5 115.8 165.5 115.0Q166.5 114.3 168.3 114.3L168.3 114.3L169.4 114.3L169.4 113.8Q169.4 113.2 169.1 112.9Q168.8 112.5 168.1 112.5L168.1 112.5Q167.6 112.5 167.2 112.8Q166.9 113.1 166.9 113.6L166.9 113.6L164.7 113.6Q164.7 112.8 165.1 112.2Q165.6 111.6 166.4 111.2Q167.2 110.9 168.3 110.9L168.3 110.9Q169.8 110.9 170.7 111.7Q171.6 112.4 171.6 113.9L171.6 113.9L171.6 117.5Q171.7 118.7 172.0 119.4L172.0 119.4L172.0 119.5ZM167.8 117.9L167.8 117.9Q168.3 117.9 168.8 117.7Q169.2 117.5 169.4 117.1L169.4 117.1L169.4 115.6L168.5 115.6Q166.8 115.6 166.7 116.8L166.7 116.8L166.7 116.9Q166.7 117.4 167.0 117.6Q167.3 117.9 167.8 117.9ZM174.9 111.0L176.4 116.7L178 111.0L180.4 111.0L177.5 119.5L175.4 119.5L172.5 111.0L174.9 111.0ZM188.4 119.5L186.1 119.5Q186.0 119.2 185.9 118.7L185.9 118.7Q185.1 119.6 183.8 119.6L183.8 119.6Q182.5 119.6 181.7 118.9Q180.9 118.2 180.9 117.1L180.9 117.1Q180.9 115.8 181.9 115.0Q182.9 114.3 184.8 114.3L184.8 114.3L185.8 114.3L185.8 113.8Q185.8 113.2 185.5 112.9Q185.2 112.5 184.6 112.5L184.6 112.5Q184.0 112.5 183.7 112.8Q183.3 113.1 183.3 113.6L183.3 113.6L181.1 113.6Q181.1 112.8 181.5 112.2Q182.0 111.6 182.8 111.2Q183.6 110.9 184.7 110.9L184.7 110.9Q186.2 110.9 187.2 111.7Q188.1 112.4 188.1 113.9L188.1 113.9L188.1 117.5Q188.1 118.7 188.4 119.4L188.4 119.4L188.4 119.5ZM184.3 117.9L184.3 117.9Q184.8 117.9 185.2 117.7Q185.6 117.5 185.8 117.1L185.8 117.1L185.8 115.6L185.0 115.6Q183.3 115.6 183.2 116.8L183.2 116.8L183.2 116.9Q183.2 117.4 183.5 117.6Q183.8 117.9 184.3 117.9ZM195.9 116.5L195.9 116.5Q195.9 115.8 195.4 115.5Q194.9 115.1 193.7 114.7Q192.5 114.3 191.8 114.0L191.8 114.0Q189.8 112.9 189.8 111.1L189.8 111.1Q189.8 110.2 190.4 109.5Q190.9 108.8 191.8 108.4Q192.8 108.0 194.0 108.0L194.0 108.0Q195.3 108.0 196.2 108.4Q197.2 108.8 197.7 109.6Q198.2 110.4 198.2 111.5L198.2 111.5L195.9 111.5Q195.9 110.7 195.4 110.3Q194.9 109.8 194.0 109.8L194.0 109.8Q193.1 109.8 192.7 110.2Q192.2 110.5 192.2 111.1L192.2 111.1Q192.2 111.7 192.7 112.1Q193.3 112.4 194.4 112.8L194.4 112.8Q196.4 113.4 197.3 114.3Q198.2 115.2 198.2 116.5L198.2 116.5Q198.2 118.0 197.1 118.8Q196.0 119.6 194.1 119.6L194.1 119.6Q192.8 119.6 191.7 119.2Q190.6 118.7 190.1 117.8Q189.5 117.0 189.5 115.9L189.5 115.9L191.8 115.9Q191.8 117.8 194.1 117.8L194.1 117.8Q194.9 117.8 195.4 117.4Q195.9 117.1 195.9 116.5ZM203.2 117.8L203.2 117.8Q203.8 117.8 204.2 117.5Q204.6 117.1 204.6 116.6L204.6 116.6L206.7 116.6Q206.7 117.4 206.2 118.1Q205.8 118.9 205.0 119.2Q204.2 119.6 203.2 119.6L203.2 119.6Q201.4 119.6 200.3 118.5Q199.3 117.3 199.3 115.3L199.3 115.3L199.3 115.2Q199.3 113.2 200.3 112.0Q201.4 110.9 203.2 110.9L203.2 110.9Q204.8 110.9 205.7 111.8Q206.7 112.7 206.7 114.2L206.7 114.2L204.6 114.2Q204.6 113.5 204.2 113.1Q203.8 112.7 203.1 112.7L203.1 112.7Q202.4 112.7 202.0 113.3Q201.6 113.9 201.6 115.1L201.6 115.1L201.6 115.4Q201.6 116.7 202.0 117.2Q202.4 117.8 203.2 117.8ZM212.8 111.0L212.7 113.1Q212.3 113.1 211.9 113.1L211.9 113.1Q210.6 113.1 210.3 114.0L210.3 114.0L210.3 119.5L208.0 119.5L208.0 111.0L210.1 111.0L210.2 112.0Q210.9 110.9 212.1 110.9L212.1 110.9Q212.4 110.9 212.8 111.0L212.8 111.0ZM216.2 111.0L216.2 119.5L213.9 119.5L213.9 111.0L216.2 111.0ZM213.8 108.8L213.8 108.8Q213.8 108.3 214.2 108.0Q214.5 107.7 215.1 107.7L215.1 107.7Q215.7 107.7 216 108.0Q216.3 108.3 216.3 108.8L216.3 108.8Q216.3 109.4 216.0 109.7Q215.6 110.0 215.1 110.0Q214.5 110.0 214.2 109.7Q213.8 109.4 213.8 108.8ZM225.7 115.2L225.7 115.3Q225.7 117.3 224.8 118.5Q223.9 119.6 222.4 119.6L222.4 119.6Q221.1 119.6 220.3 118.7L220.3 118.7L220.3 122.7L218.1 122.7L218.1 111.0L220.2 111.0L220.2 111.9Q221.1 110.9 222.4 110.9L222.4 110.9Q223.9 110.9 224.8 112.0Q225.7 113.2 225.7 115.2L225.7 115.2ZM223.4 115.2L223.4 115.2Q223.4 114.0 223.0 113.4Q222.6 112.7 221.8 112.7L221.8 112.7Q220.7 112.7 220.3 113.5L220.3 113.5L220.3 117.0Q220.7 117.8 221.8 117.8L221.8 117.8Q223.4 117.8 223.4 115.2ZM227.5 109.0L229.8 109.0L229.8 111.0L231.2 111.0L231.2 112.7L229.8 112.7L229.8 116.9Q229.8 117.4 230.0 117.6Q230.1 117.8 230.6 117.8L230.6 117.8Q231.0 117.8 231.3 117.7L231.3 117.7L231.3 119.4Q230.6 119.6 229.9 119.6L229.9 119.6Q227.6 119.6 227.5 117.2L227.5 117.2L227.5 112.7L226.3 112.7L226.3 111.0L227.5 111.0L227.5 109.0Z "/><mask id="satori_om-id-1-6-2"><rect x="241" y="104" width="34" height="19" fill="#fff"/></mask><path fill="#7d8590" d="M244.0 114.3L244.0 113.1L245.1 113.1Q246.2 113.1 246.7 112.6Q247.3 112.0 247.3 111.1L247.3 111.1Q247.3 109.1 245.3 109.1L245.3 109.1Q244.4 109.1 243.8 109.7Q243.3 110.2 243.3 111.1L243.3 111.1L241.8 111.1Q241.8 109.7 242.8 108.8Q243.8 108.0 245.3 108.0L245.3 108.0Q246.9 108.0 247.9 108.8Q248.8 109.7 248.8 111.2L248.8 111.2Q248.8 111.9 248.3 112.6Q247.8 113.3 247.0 113.6L247.0 113.6Q247.9 113.9 248.4 114.6Q248.9 115.3 248.9 116.3L248.9 116.3Q248.9 117.8 247.9 118.7Q246.9 119.6 245.3 119.6Q243.7 119.6 242.7 118.8Q241.7 117.9 241.7 116.5L241.7 116.5L243.2 116.5Q243.2 117.4 243.8 117.9Q244.4 118.5 245.3 118.5L245.3 118.5Q246.4 118.5 246.9 117.9Q247.5 117.4 247.5 116.3L247.5 116.3Q247.5 115.4 246.9 114.8Q246.3 114.3 245.1 114.3L245.1 114.3L244.0 114.3ZM251.1 118.7L251.1 118.7Q251.1 118.4 251.3 118.1Q251.6 117.9 252 117.9Q252.4 117.9 252.7 118.1Q252.9 118.4 252.9 118.7L252.9 118.7Q252.9 119.1 252.7 119.3Q252.4 119.6 252 119.6Q251.6 119.6 251.3 119.3Q251.1 119.1 251.1 118.7ZM262.0 111.1L262.0 111.1Q262.0 111.9 261.6 112.6Q261.1 113.3 260.4 113.6L260.4 113.6Q261.3 114.0 261.8 114.7Q262.3 115.5 262.3 116.4L262.3 116.4Q262.3 117.9 261.3 118.8Q260.3 119.6 258.7 119.6L258.7 119.6Q257.0 119.6 256.1 118.8Q255.1 117.9 255.1 116.4L255.1 116.4Q255.1 115.5 255.6 114.7Q256.1 114.0 257.0 113.6L257.0 113.6Q256.2 113.2 255.8 112.6Q255.3 111.9 255.3 111.1L255.3 111.1Q255.3 109.6 256.3 108.8Q257.2 108.0 258.7 108.0L258.7 108.0Q260.2 108.0 261.1 108.8Q262.0 109.6 262.0 111.1ZM260.9 116.4L260.9 116.4Q260.9 115.4 260.3 114.8Q259.6 114.2 258.7 114.2Q257.7 114.2 257.1 114.8Q256.5 115.4 256.5 116.4Q256.5 117.4 257.1 117.9Q257.7 118.5 258.7 118.5L258.7 118.5Q259.7 118.5 260.3 117.9Q260.9 117.3 260.9 116.4ZM258.7 109.1L258.7 109.1Q257.8 109.1 257.3 109.7Q256.8 110.2 256.8 111.1L256.8 111.1Q256.8 112.0 257.3 112.5Q257.8 113.0 258.7 113.0Q259.6 113.0 260.1 112.5Q260.6 112.0 260.6 111.1Q260.6 110.2 260.1 109.7Q259.5 109.1 258.7 109.1ZM264 110.8L264 110.3Q264 109.3 264.7 108.6Q265.3 107.9 266.3 107.9L266.3 107.9Q267.4 107.9 268.0 108.6Q268.7 109.3 268.7 110.3L268.7 110.3L268.7 110.9Q268.7 111.9 268.0 112.6Q267.4 113.2 266.3 113.2L266.3 113.2Q265.3 113.2 264.7 112.6Q264 111.9 264 110.8L264 110.8ZM265.1 110.3L265.1 110.9Q265.1 111.5 265.4 111.9Q265.8 112.3 266.3 112.3L266.3 112.3Q266.9 112.3 267.2 111.9Q267.6 111.5 267.6 110.9L267.6 110.9L267.6 110.3Q267.6 109.7 267.2 109.3Q266.9 108.9 266.3 108.9Q265.8 108.9 265.4 109.3Q265.1 109.7 265.1 110.3L265.1 110.3ZM269.5 117.3L269.5 116.7Q269.5 115.7 270.2 115.0Q270.8 114.4 271.9 114.4Q272.9 114.4 273.5 115.0Q274.2 115.7 274.2 116.7L274.2 116.7L274.2 117.3Q274.2 118.3 273.6 119.0Q272.9 119.6 271.9 119.6Q270.9 119.6 270.2 119.0Q269.5 118.3 269.5 117.3L269.5 117.3ZM270.6 116.7L270.6 117.3Q270.6 117.9 271.0 118.3Q271.3 118.7 271.9 118.7L271.9 118.7Q272.4 118.7 272.8 118.3Q273.1 117.9 273.1 117.3L273.1 117.3L273.1 116.7Q273.1 116.1 272.8 115.7Q272.4 115.3 271.9 115.3L271.9 115.3Q271.3 115.3 271.0 115.7Q270.6 116.1 270.6 116.7L270.6 116.7ZM272.2 109.7L266.7 118.6L265.9 118.1L271.4 109.2L272.2 109.7Z "/><mask id="satori_om-id-1-7"><rect x="0" y="133" width="92" height="19" fill="#fff"/></mask><mask id="satori_om-id-1-7-0"><rect x="0" y="134" width="16" height="16" fill="#fff"/></mask><mask id="satori_om-id-1-7-0-0"><rect x="4" y="138" width="8" height="8" fill="#fff"/></mask><path x="4" y="138" width="8" height="8" fill="#00ADD8" d="M8,138 h0 a4,4 0 0 1 4,4 v0 a4,4 0 0 1 -4,4 h0 a4,4 0 0 1 -4,-4 v0 a4,4 0 0 1 4,-4"/><mask id="satori_om-id-1-7-1"><rect x="29" y="133" width="20" height="19" fill="#fff"/></mask><path fill="#fff" d="M39.0 142.5L39.0 147.0Q38.4 147.8 37.2 148.2Q36.1 148.6 34.7 148.6L34.7 148.6Q33.2 148.6 32.1 148.0Q31.0 147.4 30.4 146.1Q29.8 144.9 29.7 143.2L29.7 143.2L29.7 142.5Q29.7 140.8 30.3 139.5Q30.9 138.3 32.0 137.6Q33.0 137.0 34.5 137.0L34.5 137.0Q36.5 137.0 37.7 137.9Q38.8 138.9 39.0 140.7L39.0 140.7L36.7 140.7Q36.6 139.7 36.0 139.3Q35.5 138.8 34.6 138.8L34.6 138.8Q33.4 138.8 32.8 139.7Q32.1 140.6 32.1 142.4L32.1 142.4L32.1 143.1Q32.1 144.9 32.8 145.8Q33.5 146.8 34.8 146.8L34.8 146.8Q36.1 146.8 36.7 146.2L36.7 146.2L36.7 144.2L34.5 144.2L34.5 142.5L39.0 142.5ZM40.4 144.3L40.4 144.2Q40.4 142.9 40.9 141.9Q41.4 141.0 42.3 140.4Q43.2 139.9 44.4 139.9L44.4 139.9Q46.1 139.9 47.2 140.9Q48.3 142.0 48.4 143.8L48.4 143.8L48.4 144.3Q48.4 146.3 47.3 147.5Q46.3 148.6 44.4 148.6Q42.6 148.6 41.5 147.5Q40.4 146.3 40.4 144.3L40.4 144.3ZM42.7 144.3L42.7 144.3Q42.7 145.5 43.1 146.2Q43.6 146.8 44.4 146.8L44.4 146.8Q45.2 146.8 45.7 146.2Q46.2 145.6 46.2 144.2L46.2 144.2Q46.2 143.0 45.7 142.4Q45.2 141.7 44.4 141.7L44.4 141.7Q43.6 141.7 43.1 142.3Q42.7 143.0 42.7 144.3Z "/><mask id="satori_om-id-1-7-2"><rect x="58" y="133" width="34" height="19" fill="#fff"/></mask><path fill="#7d8590" d="M61.0 143.3L61.0 142.1L62.1 142.1Q63.2 142.1 63.7 141.6Q64.3 141.0 64.3 140.1L64.3 140.1Q64.3 138.1 62.3 138.1L62.3 138.1Q61.4 138.1 60.8 138.7Q60.3 139.2 60.3 140.1L60.3 140.1L58.8 140.1Q58.8 138.7 59.8 137.8Q60.8 137.0 62.3 137.0L62.3 137.0Q63.9 137.0 64.9 137.8Q65.8 138.7 65.8 140.2L65.8 140.2Q65.8 140.9 65.3 141.6Q64.8 142.3 64.0 142.6L64.0 142.6Q64.9 142.9 65.4 143.6Q65.9 144.3 65.9 145.3L65.9 145.3Q65.9 146.8 64.9 147.7Q63.9 148.6 62.3 148.6Q60.7 148.6 59.7 147.8Q58.7 146.9 58.7 145.5L58.7 145.5L60.2 145.5Q60.2 146.4 60.8 146.9Q61.4 147.5 62.3 147.5L62.3 147.5Q63.4 147.5 63.9 146.9Q64.5 146.4 64.5 145.3L64.5 145.3Q64.5 144.4 63.9 143.8Q63.3 143.3 62.1 143.3L62.1 143.3L61.0 143.3ZM68.1 147.7L68.1 147.7Q68.1 147.4 68.3 147.1Q68.6 146.9 69 146.9Q69.4 146.9 69.7 147.1Q69.9 147.4 69.9 147.7L69.9 147.7Q69.9 148.1 69.7 148.3Q69.4 148.6 69 148.6Q68.6 148.6 68.3 148.3Q68.1 148.1 68.1 147.7ZM77.6 137.1L77.8 137.1L77.8 138.3L77.5 138.3Q75.9 138.4 74.9 139.3Q73.9 140.3 73.7 142.1L73.7 142.1Q74.6 141.0 76.2 141.0L76.2 141.0Q77.6 141.0 78.5 142.1Q79.4 143.1 79.4 144.8L79.4 144.8Q79.4 146.5 78.5 147.6Q77.5 148.6 75.9 148.6L75.9 148.6Q74.3 148.6 73.2 147.4Q72.2 146.1 72.2 144.2L72.2 144.2L72.2 143.6Q72.2 140.5 73.6 138.8Q74.9 137.1 77.6 137.1L77.6 137.1ZM75.9 142.2L75.9 142.2Q75.2 142.2 74.5 142.7Q73.9 143.1 73.7 143.8L73.7 143.8L73.7 144.3Q73.7 145.7 74.3 146.6Q74.9 147.4 75.9 147.4L75.9 147.4Q76.9 147.4 77.4 146.7Q78.0 146.0 78.0 144.8L78.0 144.8Q78.0 143.7 77.4 142.9Q76.9 142.2 75.9 142.2ZM81 139.8L81 139.3Q81 138.3 81.7 137.6Q82.3 136.9 83.3 136.9L83.3 136.9Q84.4 136.9 85.0 137.6Q85.7 138.3 85.7 139.3L85.7 139.3L85.7 139.9Q85.7 140.9 85.0 141.6Q84.4 142.2 83.3 142.2L83.3 142.2Q82.3 142.2 81.7 141.6Q81 140.9 81 139.8L81 139.8ZM82.1 139.3L82.1 139.9Q82.1 140.5 82.4 140.9Q82.8 141.3 83.3 141.3L83.3 141.3Q83.9 141.3 84.2 140.9Q84.6 140.5 84.6 139.9L84.6 139.9L84.6 139.3Q84.6 138.7 84.2 138.3Q83.9 137.9 83.3 137.9Q82.8 137.9 82.4 138.3Q82.1 138.7 82.1 139.3L82.1 139.3ZM86.5 146.3L86.5 145.7Q86.5 144.7 87.2 144.0Q87.8 143.4 88.9 143.4Q89.9 143.4 90.5 144.0Q91.2 144.7 91.2 145.7L91.2 145.7L91.2 146.3Q91.2 147.3 90.6 148.0Q89.9 148.6 88.9 148.6Q87.9 148.6 87.2 148.0Q86.5 147.3 86.5 146.3L86.5 146.3ZM87.6 145.7L87.6 146.3Q87.6 146.9 88.0 147.3Q88.3 147.7 88.9 147.7L88.9 147.7Q89.4 147.7 89.8 147.3Q90.1 146.9 90.1 146.3L90.1 146.3L90.1 145.7Q90.1 145.1 89.8 144.7Q89.4 144.3 88.9 144.3L88.9 144.3Q88.3 144.3 88.0 144.7Q87.6 145.1 87.6 145.7L87.6 145.7ZM89.2 138.7L83.7 147.6L82.9 147.1L88.4 138.2L89.2 138.7Z "/><mask id="satori_om-id-1-8"><rect x="102" y="133" width="83" height="19" fill="#fff"/></mask><mask id="satori_om-id-1-8-0"><rect x="102" y="134" width="16" height="16" fill="#fff"/></mask><mask id="satori_om-id-1-8-0-0"><rect x="106" y="138" width="8" height="8" fill="#fff"/></mask><path x="106" y="138" width="8" height="8" fill="#555555" d="M110,138 h0 a4,4 0 0 1 4,4 v0 a4,4 0 0 1 -4,4 h0 a4,4 0 0 1 -4,-4 v0 a4,4 0 0 1 4,-4"/><mask id="satori_om-id-1-8-1"><rect x="131" y="133" width="11" height="19" fill="#fff"/></mask><path fill="#fff" d="M138.6 144.7L140.9 144.7Q140.8 146.5 139.6 147.6Q138.4 148.6 136.4 148.6L136.4 148.6Q134.2 148.6 132.9 147.2Q131.7 145.7 131.7 143.1L131.7 143.1L131.7 142.4Q131.7 140.8 132.3 139.5Q132.8 138.3 133.9 137.6Q135.0 137.0 136.4 137.0L136.4 137.0Q138.4 137.0 139.6 138.0Q140.8 139.1 141.0 141.0L141.0 141.0L138.6 141.0Q138.5 139.9 138.0 139.4Q137.5 138.9 136.4 138.9L136.4 138.9Q135.2 138.9 134.6 139.7Q134.1 140.6 134.0 142.3L134.0 142.3L134.0 143.2Q134.0 145.0 134.6 145.9Q135.2 146.7 136.4 146.7L136.4 146.7Q137.5 146.7 138.0 146.2Q138.5 145.7 138.6 144.7L138.6 144.7Z "/><mask id="satori_om-id-1-8-2"><rect x="151" y="133" width="34" height="19" fill="#fff"/></mask><path fill="#7d8590" d="M154.0 143.3L154.0 142.1L155.1 142.1Q156.2 142.1 156.7 141.6Q157.3 141.0 157.3 140.1L157.3 140.1Q157.3 138.1 155.3 138.1L155.3 138.1Q154.4 138.1 153.8 138.7Q153.3 139.2 153.3 140.1L153.3 140.1L151.8 140.1Q151.8 138.7 152.8 137.8Q153.8 137.0 155.3 137.0L155.3 137.0Q156.9 137.0 157.9 137.8Q158.8 138.7 158.8 140.2L158.8 140.2Q158.8 140.9 158.3 141.6Q157.8 142.3 157.0 142.6L157.0 142.6Q157.9 142.9 158.4 143.6Q158.9 144.3 158.9 145.3L158.9 145.3Q158.9 146.8 157.9 147.7Q156.9 148.6 155.3 148.6Q153.7 148.6 152.7 147.8Q151.7 146.9 151.7 145.5L151.7 145.5L153.2 145.5Q153.2 146.4 153.8 146.9Q154.4 147.5 155.3 147.5L155.3 147.5Q156.4 147.5 156.9 146.9Q157.5 146.4 157.5 145.3L157.5 145.3Q157.5 144.4 156.9 143.8Q156.3 143.3 155.1 143.3L155.1 143.3L154.0 143.3ZM161.1 147.7L161.1 147.7Q161.1 147.4 161.3 147.1Q161.6 146.9 162 146.9Q162.4 146.9 162.7 147.1Q162.9 147.4 162.9 147.7L162.9 147.7Q162.9 148.1 162.7 148.3Q162.4 148.6 162 148.6Q161.6 148.6 161.3 148.3Q161.1 148.1 161.1 147.7ZM167.2 143.3L167.2 142.1L168.3 142.1Q169.4 142.1 169.9 141.6Q170.5 141.0 170.5 140.1L170.5 140.1Q170.5 138.1 168.5 138.1L168.5 138.1Q167.6 138.1 167.0 138.7Q166.5 139.2 166.5 140.1L166.5 140.1L165.0 140.1Q165.0 138.7 166.0 137.8Q167.0 137.0 168.5 137.0L168.5 137.0Q170.1 137.0 171.1 137.8Q172.0 138.7 172.0 140.2L172.0 140.2Q172.0 140.9 171.5 141.6Q171.0 142.3 170.2 142.6L170.2 142.6Q171.1 142.9 171.6 143.6Q172.1 144.3 172.1 145.3L172.1 145.3Q172.1 146.8 171.1 147.7Q170.1 148.6 168.5 148.6Q166.9 148.6 165.9 147.8Q164.9 146.9 164.9 145.5L164.9 145.5L166.4 145.5Q166.4 146.4 167.0 146.9Q167.6 147.5 168.5 147.5L168.5 147.5Q169.6 147.5 170.1 146.9Q170.7 146.4 170.7 145.3L170.7 145.3Q170.7 144.4 170.1 143.8Q169.5 143.3 168.3 143.3L168.3 143.3L167.2 143.3ZM174 139.8L174 139.3Q174 138.3 174.7 137.6Q175.3 136.9 176.3 136.9L176.3 136.9Q177.4 136.9 178.0 137.6Q178.7 138.3 178.7 139.3L178.7 139.3L178.7 139.9Q178.7 140.9 178.0 141.6Q177.4 142.2 176.3 142.2L176.3 142.2Q175.3 142.2 174.7 141.6Q174 140.9 174 139.8L174 139.8ZM175.1 139.3L175.1 139.9Q175.1 140.5 175.4 140.9Q175.8 141.3 176.3 141.3L176.3 141.3Q176.9 141.3 177.2 140.9Q177.6 140.5 177.6 139.9L177.6 139.9L177.6 139.3Q177.6 138.7 177.2 138.3Q176.9 137.9 176.3 137.9Q175.8 137.9 175.4 138.3Q175.1 138.7 175.1 139.3L175.1 139.3ZM179.5 146.3L179.5 145.7Q179.5 144.7 180.2 144.0Q180.8 143.4 181.9 143.4Q182.9 143.4 183.5 144.0Q184.2 144.7 184.2 145.7L184.2 145.7L184.2 146.3Q184.2 147.3 183.6 148.0Q182.9 148.6 181.9 148.6Q180.9 148.6 180.2 148.0Q179.5 147.3 179.5 146.3L179.5 146.3ZM180.6 145.7L180.6 146.3Q180.6 146.9 181.0 147.3Q181.3 147.7 181.9 147.7L181.9 147.7Q182.4 147.7 182.8 147.3Q183.1 146.9 183.1 146.3L183.1 146.3L183.1 145.7Q183.1 145.1 182.8 144.7Q182.4 144.3 181.9 144.3L181.9 144.3Q181.3 144.3 181.0 144.7Q180.6 145.1 180.6 145.7L180.6 145.7ZM182.2 138.7L176.7 147.6L175.9 147.1L181.4 138.2L182.2 138.7Z "/><mask id="satori_om-id-1-9"><rect x="195" y="133" width="112" height="19" fill="#fff"/></mask><mask id="satori_om-id-1-9-0"><rect x="195" y="134" width="16" height="16" fill="#fff"/></mask><mask id="satori_om-id-1-9-0-0"><rect x="199" y="138" width="8" height="8" fill="#fff"/></mask><path x="199" y="138" width="8" height="8" fill="#ff5a03" d="M203,138 h0 a4,4 0 0 1 4,4 v0 a4,4 0 0 1 -4,4 h0 a4,4 0 0 1 -4,-4 v0 a4,4 0 0 1 4,-4"/><mask id="satori_om-id-1-9-1"><rect x="224" y="133" width="40" height="19" fill="#fff"/></mask><path fill="#fff" d="M232.2 148.5L231.4 146.1L227.3 146.1L226.5 148.5L224.1 148.5L228.3 137.1L230.5 137.1L234.7 148.5L232.2 148.5ZM229.4 140.0L228.0 144.2L230.8 144.2L229.4 140.0ZM240.2 146.1L240.2 146.1Q240.2 145.7 239.8 145.5Q239.4 145.3 238.5 145.1L238.5 145.1Q235.5 144.4 235.5 142.5L235.5 142.5Q235.5 141.4 236.4 140.6Q237.3 139.9 238.8 139.9L238.8 139.9Q240.5 139.9 241.4 140.6Q242.4 141.4 242.4 142.6L242.4 142.6L240.1 142.6Q240.1 142.1 239.8 141.8Q239.5 141.5 238.8 141.5L238.8 141.5Q238.3 141.5 238.0 141.7Q237.6 142.0 237.6 142.4L237.6 142.4Q237.6 142.8 238.0 143.0Q238.4 143.2 239.2 143.4Q240.0 143.6 240.6 143.8L240.6 143.8Q242.4 144.4 242.4 146.1L242.4 146.1Q242.4 147.2 241.4 147.9Q240.4 148.6 238.9 148.6L238.9 148.6Q237.8 148.6 237.0 148.3Q236.1 147.9 235.7 147.2Q235.2 146.6 235.2 145.8L235.2 145.8L237.3 145.8Q237.4 146.4 237.8 146.7Q238.2 147.0 238.9 147.0L238.9 147.0Q239.5 147.0 239.9 146.8Q240.2 146.5 240.2 146.1ZM244.3 138.0L246.6 138.0L246.6 140.0L248.0 140.0L248.0 141.7L246.6 141.7L246.6 145.9Q246.6 146.4 246.7 146.6Q246.9 146.8 247.4 146.8L247.4 146.8Q247.8 146.8 248.1 146.7L248.1 146.7L248.1 148.4Q247.4 148.6 246.7 148.6L246.7 148.6Q244.4 148.6 244.3 146.2L244.3 146.2L244.3 141.7L243.1 141.7L243.1 140.0L244.3 140.0L244.3 138.0ZM254.0 140.0L254.0 142.1Q253.6 142.1 253.2 142.1L253.2 142.1Q251.9 142.1 251.5 143.0L251.5 143.0L251.5 148.5L249.3 148.5L249.3 140.0L251.4 140.0L251.5 141.0Q252.1 139.9 253.3 139.9L253.3 139.9Q253.7 139.9 254.0 140.0L254.0 140.0ZM254.5 144.3L254.5 144.2Q254.5 142.9 255.0 141.9Q255.4 141.0 256.3 140.4Q257.3 139.9 258.5 139.9L258.5 139.9Q260.2 139.9 261.3 140.9Q262.3 142.0 262.5 143.8L262.5 143.8L262.5 144.3Q262.5 146.3 261.4 147.5Q260.3 148.6 258.5 148.6Q256.6 148.6 255.6 147.5Q254.5 146.3 254.5 144.3L254.5 144.3ZM256.7 144.3L256.7 144.3Q256.7 145.5 257.2 146.2Q257.6 146.8 258.5 146.8L258.5 146.8Q259.3 146.8 259.8 146.2Q260.2 145.6 260.2 144.2L260.2 144.2Q260.2 143.0 259.8 142.4Q259.3 141.7 258.5 141.7L258.5 141.7Q257.6 141.7 257.2 142.3Q256.7 143.0 256.7 144.3Z "/><mask id="satori_om-id-1-9-2"><rect x="273" y="133" width="34" height="19" fill="#fff"/></mask><path fill="#7d8590" d="M281.4 147.3L281.4 148.5L273.9 148.5L273.9 147.4L277.9 143.1Q278.8 142.1 279.1 141.5Q279.4 140.8 279.4 140.2L279.4 140.2Q279.4 139.3 278.9 138.7Q278.3 138.1 277.4 138.1L277.4 138.1Q276.4 138.1 275.8 138.8Q275.2 139.4 275.2 140.5L275.2 140.5L273.7 140.5Q273.7 138.9 274.7 137.9Q275.8 137.0 277.4 137.0L277.4 137.0Q279.0 137.0 280.0 137.8Q280.9 138.6 280.9 140.0L280.9 140.0Q280.9 141.7 278.7 144.0L278.7 144.0L275.7 147.3L281.4 147.3ZM283.1 147.7L283.1 147.7Q283.1 147.4 283.3 147.1Q283.6 146.9 284 146.9Q284.4 146.9 284.7 147.1Q284.9 147.4 284.9 147.7L284.9 147.7Q284.9 148.1 284.7 148.3Q284.4 148.6 284 148.6Q283.6 148.6 283.3 148.3Q283.1 148.1 283.1 147.7ZM289.2 143.3L289.2 142.1L290.3 142.1Q291.4 142.1 291.9 141.6Q292.5 141.0 292.5 140.1L292.5 140.1Q292.5 138.1 290.5 138.1L290.5 138.1Q289.6 138.1 289.0 138.7Q288.5 139.2 288.5 140.1L288.5 140.1L287.0 140.1Q287.0 138.7 288.0 137.8Q289.0 137.0 290.5 137.0L290.5 137.0Q292.1 137.0 293.1 137.8Q294.0 138.7 294.0 140.2L294.0 140.2Q294.0 140.9 293.5 141.6Q293.0 142.3 292.2 142.6L292.2 142.6Q293.1 142.9 293.6 143.6Q294.1 144.3 294.1 145.3L294.1 145.3Q294.1 146.8 293.1 147.7Q292.1 148.6 290.5 148.6Q288.9 148.6 287.9 147.8Q286.9 146.9 286.9 145.5L286.9 145.5L288.4 145.5Q288.4 146.4 289.0 146.9Q289.6 147.5 290.5 147.5L290.5 147.5Q291.6 147.5 292.1 146.9Q292.7 146.4 292.7 145.3L292.7 145.3Q292.7 144.4 292.1 143.8Q291.5 143.3 290.3 143.3L290.3 143.3L289.2 143.3ZM296 139.8L296 139.3Q296 138.3 296.7 137.6Q297.3 136.9 298.3 136.9L298.3 136.9Q299.4 136.9 300.0 137.6Q300.7 138.3 300.7 139.3L300.7 139.3L300.7 139.9Q300.7 140.9 300.0 141.6Q299.4 142.2 298.3 142.2L298.3 142.2Q297.3 142.2 296.7 141.6Q296 140.9 296 139.8L296 139.8ZM297.1 139.3L297.1 139.9Q297.1 140.5 297.4 140.9Q297.8 141.3 298.3 141.3L298.3 141.3Q298.9 141.3 299.2 140.9Q299.6 140.5 299.6 139.9L299.6 139.9L299.6 139.3Q299.6 138.7 299.2 138.3Q298.9 137.9 298.3 137.9Q297.8 137.9 297.4 138.3Q297.1 138.7 297.1 139.3L297.1 139.3ZM301.5 146.3L301.5 145.7Q301.5 144.7 302.2 144.0Q302.8 143.4 303.9 143.4Q304.9 143.4 305.5 144.0Q306.2 144.7 306.2 145.7L306.2 145.7L306.2 146.3Q306.2 147.3 305.6 148.0Q304.9 148.6 303.9 148.6Q302.9 148.6 302.2 148.0Q301.5 147.3 301.5 146.3L301.5 146.3ZM302.6 145.7L302.6 146.3Q302.6 146.9 303.0 147.3Q303.3 147.7 303.9 147.7L303.9 147.7Q304.4 147.7 304.8 147.3Q305.1 146.9 305.1 146.3L305.1 146.3L305.1 145.7Q305.1 145.1 304.8 144.7Q304.4 144.3 303.9 144.3L303.9 144.3Q303.3 144.3 303.0 144.7Q302.6 145.1 302.6 145.7L302.6 145.7ZM304.2 138.7L298.7 147.6L297.9 147.1L303.4 138.2L304.2 138.7Z "/></svg>