<svg width="375" height="200" viewBox="0 0 375 200" xmlns="http://www.w3.org/2000/svg"><mask id="satori_om-id"><rect x="0" y="0" width="375" height="124" fill="#fff"/></mask><clipPath id="satori_cp-id-0"><path x="0" y="0" width="375" height="8" d="M4,0 h367 a4,4 0 0 1 4,4 v0 a4,4 0 0 1 -4,4 h-367 a4,4 0 0 1 -4,-4 v0 a4,4 0 0 1 4,-4"/></clipPath><mask id="satori_om-id-0"><rect x="0" y="0" width="375" height="8" fill="#fff"/></mask><mask id="satori_om-id-0-0"><rect x="0" y="0" width="142" height="8" fill="#fff" mask="url(#satori_om-id-0)"/></mask><rect x="0" y="0" width="142" height="8" fill="#3178c6" clip-path="url(#satori_cp-id-0)" mask="url(#satori_om-id-0)"/><mask id="satori_om-id-0-1"><rect x="142" y="0" width="55" height="8" fill="#fff" mask="url(#satori_om-id-0)"/></mask><rect x="142" y="0" width="55" height="8" fill="#3572A5" clip-path="url(#satori_cp-id-0)" mask="url(#satori_om-id-0)"/><mask id="satori_om-id-0-2"><rect x="197" y="0" width="51" height="8" fill="#fff" mask="url(#satori_om-id-0)"/></mask><rect x="197" y="0" width="51" height="8" fill="#00ADD8" clip-path="url(#satori_cp-id-0)" mask="url(#satori_om-id-0)"/><mask id="satori_om-id-0-3"><rect x="248" y="0" width="26" height="8" fill="#fff" mask="url(#satori_om-id-0)"/></mask><rect x="248" y="0" width="26" height="8" fill="#844FBA" clip-path="url(#satori_cp-id-0)" mask="url(#satori_om-id-0)"/><mask id="satori_om-id-0-4"><rect x="274" y="0" width="14" height="8" fill="#fff" mask="url(#satori_om-id-0)"/></mask><rect x="274" y="0" width="14" height="8" fill="#dea584" clip-path="url(#satori_cp-id-0)" mask="url(#satori_om-id-0)"/><mask id="satori_om-id-0-5"><rect x="288" y="0" width="14" height="8" fill="#fff" mask="url(#satori_om-id-0)"/></mask><rect x="288" y="0" width="14" height="8" fill="#A97BFF" clip-path="url(#satori_cp-id-0)" mask="url(#satori_om-id-0)"/><mask id="satori_om-id-0-6"><rect x="302" y="0" width="13" height="8" fill="#fff" mask="url(#satori_om-id-0)"/></mask><rect x="302" y="0" width="13" height="8" fill="#ff3e00" clip-path="url(#satori_cp-id-0)" mask="url(#satori_om-id-0)"/><mask id="satori_om-id-0-7"><rect x="315" y="0" width="14" height="8" fill="#fff" mask="url(#satori_om-id-0)"/></mask><rect x="315" y="0" width="14" height="8" fill="#701516" clip-path="url(#satori_cp-id-0)" mask="url(#satori_om-id-0)"/><mask id="satori_om-id-0-8"><rect x="329" y="0" width="12" height="8" fill="#fff" mask="url(#satori_om-id-0)"/></mask><rect x="329" y="0" width="12" height="8" fill="#f1e05a" clip-path="url(#satori_cp-id-0)" mask="url(#satori_om-id-0)"/><mask id="satori_om-id-0-9"><rect x="341" y="0" width="11" height="8" fill="#fff" mask="url(#satori_om-id-0)"/></mask><rect x="341" y="0" width="11" height="8" fill="#e16737" clip-path="url(#satori_cp-id-0)" mask="url(#satori_om-id-0)"/><mask id="satori_om-id-1"><rect x="0" y="18" width="375" height="106" fill="#fff"/></mask><mask id="satori_om-id-1-0"><rect x="0" y="18" width="160" height="19" fill="#fff"/></mask><mask id="satori_om-id-1-0-0"><rect x="0" y="20" width="16" height="16" fill="#fff"/></mask><mask id="satori_om-id-1-0-0-0"><rect x="4" y="24" width="8" height="8" fill="#fff"/></mask><path x="4" y="24" width="8" height="8" fill="#3178c6" d="M8,24 h0 a4,4 0 0 1 4,4 v0 a4,4 0 0 1 -4,4 h0 a4,4 0 0 1 -4,-4 v0 a4,4 0 0 1 4,-4"/><mask id="satori_om-id-1-0-1"><rect x="29" y="18" width="79" height="19" fill="#fff"/></mask><g  ><path fill="#24292f" d="M38.6 21.6L38.6 23.5L35.1 23.5L35.1 33L32.8 33L32.8 23.5L29.3 23.5L29.3 21.6L38.6 21.6ZM40.7 24.5L42.3 29.8L43.8 24.5L46.3 24.5L42.9 34.3L42.7 34.8Q41.9 36.4 40.2 36.4L40.2 36.4Q39.7 36.4 39.2 36.3L39.2 36.3L39.2 34.6L39.5 34.6Q40.2 34.6 40.5 34.4Q40.8 34.2 41.0 33.7L41.0 33.7L41.2 33.0L38.3 24.5L40.7 24.5ZM54.8 28.7L54.8 28.9Q54.8 30.8 53.9 32.0Q53.0 33.2 51.5 33.2L51.5 33.2Q50.2 33.2 49.4 32.3L49.4 32.3L49.4 36.3L47.2 36.3L47.2 24.5L49.3 24.5L49.3 25.4Q50.1 24.4 51.5 24.4L51.5 24.4Q53.0 24.4 53.9 25.5Q54.8 26.7 54.8 28.7L54.8 28.7ZM52.5 28.7L52.5 28.7Q52.5 27.5 52.1 26.9Q51.7 26.2 50.9 26.2L50.9 26.2Q49.8 26.2 49.4 27.0L49.4 27.0L49.4 30.5Q49.8 31.3 50.9 31.3L50.9 31.3Q52.5 31.3 52.5 28.7ZM60.1 33.2L60.1 33.2Q58.2 33.2 57.0 32.0Q55.9 30.9 55.9 29.0L55.9 29.0L55.9 28.8Q55.9 27.5 56.4 26.5Q56.8 25.5 57.7 24.9Q58.6 24.4 59.8 24.4L59.8 24.4Q61.5 24.4 62.5 25.5Q63.5 26.6 63.5 28.6L63.5 28.6L63.5 29.5L58.1 29.5Q58.3 30.3 58.8 30.8Q59.4 31.3 60.2 31.3L60.2 31.3Q61.5 31.3 62.2 30.4L62.2 30.4L63.4 31.6Q62.8 32.4 62.0 32.8Q61.1 33.2 60.1 33.2ZM59.8 26.2L59.8 26.2Q59.1 26.2 58.7 26.7Q58.3 27.1 58.2 28.0L58.2 28.0L61.3 28.0L61.3 27.8Q61.3 27.0 60.9 26.6Q60.5 26.2 59.8 26.2ZM70.9 30.0L70.9 30.0Q70.9 29.4 70.4 29.0Q69.9 28.6 68.7 28.2Q67.5 27.9 66.8 27.5L66.8 27.5Q64.8 26.4 64.8 24.6L64.8 24.6Q64.8 23.7 65.4 23.0Q65.9 22.3 66.8 21.9Q67.8 21.5 69.0 21.5L69.0 21.5Q70.3 21.5 71.2 21.9Q72.2 22.4 72.7 23.2Q73.2 24.0 73.2 25.0L73.2 25.0L70.9 25.0Q70.9 24.2 70.4 23.8Q69.9 23.3 69.0 23.3L69.0 23.3Q68.1 23.3 67.7 23.7Q67.2 24.1 67.2 24.7L67.2 24.7Q67.2 25.2 67.7 25.6Q68.3 26.0 69.4 26.3L69.4 26.3Q71.4 26.9 72.3 27.8Q73.2 28.7 73.2 30L73.2 30Q73.2 31.5 72.1 32.3Q71.0 33.2 69.1 33.2L69.1 33.2Q67.8 33.2 66.7 32.7Q65.6 32.2 65.1 31.4Q64.5 30.5 64.5 29.4L64.5 29.4L66.8 29.4Q66.8 31.3 69.1 31.3L69.1 31.3Q69.9 31.3 70.4 31.0Q70.9 30.6 70.9 30.0ZM78.2 31.3L78.2 31.3Q78.8 31.3 79.2 31.0Q79.6 30.6 79.6 30.1L79.6 30.1L81.7 30.1Q81.7 30.9 81.2 31.7Q80.8 32.4 80.0 32.8Q79.2 33.2 78.2 33.2L78.2 33.2Q76.4 33.2 75.3 32.0Q74.3 30.9 74.3 28.8L74.3 28.8L74.3 28.7Q74.3 26.7 75.3 25.6Q76.4 24.4 78.2 24.4L78.2 24.4Q79.8 24.4 80.7 25.3Q81.7 26.2 81.7 27.7L81.7 27.7L79.6 27.7Q79.6 27.0 79.2 26.6Q78.8 26.2 78.1 26.2L78.1 26.2Q77.4 26.2 77.0 26.8Q76.6 27.4 76.6 28.7L76.6 28.7L76.6 28.9Q76.6 30.2 77.0 30.8Q77.4 31.3 78.2 31.3ZM87.8 24.5L87.7 26.7Q87.3 26.6 86.9 26.6L86.9 26.6Q85.6 26.6 85.3 27.5L85.3 27.5L85.3 33L83.0 33L83.0 24.5L85.1 24.5L85.2 25.6Q85.9 24.4 87.1 24.4L87.1 24.4Q87.4 24.4 87.8 24.5L87.8 24.5ZM91.2 24.5L91.2 33L88.9 33L88.9 24.5L91.2 24.5ZM88.8 22.4L88.8 22.4Q88.8 21.9 89.2 21.5Q89.5 21.2 90.1 21.2L90.1 21.2Q90.7 21.2 91 21.5Q91.3 21.9 91.3 22.4L91.3 22.4Q91.3 22.9 91.0 23.2Q90.6 23.5 90.1 23.5Q89.5 23.5 89.2 23.2Q88.8 22.9 88.8 22.4ZM100.7 28.7L100.7 28.9Q100.7 30.8 99.8 32.0Q98.9 33.2 97.4 33.2L97.4 33.2Q96.1 33.2 95.3 32.3L95.3 32.3L95.3 36.3L93.1 36.3L93.1 24.5L95.2 24.5L95.2 25.4Q96.1 24.4 97.4 24.4L97.4 24.4Q98.9 24.4 99.8 25.5Q100.7 26.7 100.7 28.7L100.7 28.7ZM98.4 28.7L98.4 28.7Q98.4 27.5 98.0 26.9Q97.6 26.2 96.8 26.2L96.8 26.2Q95.7 26.2 95.3 27.0L95.3 27.0L95.3 30.5Q95.7 31.3 96.8 31.3L96.8 31.3Q98.4 31.3 98.4 28.7ZM102.5 22.5L104.8 22.5L104.8 24.5L106.2 24.5L106.2 26.2L104.8 26.2L104.8 30.4Q104.8 30.9 105.0 31.1Q105.1 31.3 105.6 31.3L105.6 31.3Q106.0 31.3 106.3 31.2L106.3 31.2L106.3 33.0Q105.6 33.2 104.9 33.2L104.9 33.2Q102.6 33.2 102.5 30.8L102.5 30.8L102.5 26.2L101.3 26.2L101.3 24.5L102.5 24.5L102.5 22.5Z "/></g><mask id="satori_om-id-1-0-2"><rect x="117" y="18" width="43" height="19" fill="#fff"/></mask><g  ><path fill="#57606a" d="M120.0 27.8L120.0 26.6L121.1 26.6Q122.2 26.6 122.7 26.1Q123.3 25.5 123.3 24.7L123.3 24.7Q123.3 22.7 121.3 22.7L121.3 22.7Q120.4 22.7 119.8 23.2Q119.3 23.7 119.3 24.6L119.3 24.6L117.8 24.6Q117.8 23.3 118.8 22.4Q119.8 21.5 121.3 21.5L121.3 21.5Q122.9 21.5 123.9 22.3Q124.8 23.2 124.8 24.7L124.8 24.7Q124.8 25.4 124.3 26.1Q123.8 26.8 123.0 27.2L123.0 27.2Q123.9 27.5 124.4 28.1Q124.9 28.8 124.9 29.8L124.9 29.8Q124.9 31.4 123.9 32.3Q122.9 33.2 121.3 33.2Q119.7 33.2 118.7 32.3Q117.7 31.4 117.7 30L117.7 30L119.2 30Q119.2 30.9 119.8 31.4Q120.4 32.0 121.3 32.0L121.3 32.0Q122.4 32.0 122.9 31.4Q123.5 30.9 123.5 29.9L123.5 29.9Q123.5 28.9 122.9 28.3Q122.3 27.8 121.1 27.8L121.1 27.8L120.0 27.8ZM134.3 21.6L134.3 22.4L129.6 33L128.0 33L132.7 22.8L126.6 22.8L126.6 21.6L134.3 21.6ZM136.1 32.2L136.1 32.2Q136.1 31.9 136.3 31.6Q136.5 31.4 137.0 31.4Q137.4 31.4 137.7 31.6Q137.9 31.9 137.9 32.2L137.9 32.2Q137.9 32.6 137.7 32.8Q137.4 33.1 137.0 33.1Q136.5 33.1 136.3 32.8Q136.1 32.6 136.1 32.2ZM145.7 28L145.7 28Q145.2 28.5 144.6 28.9Q144.0 29.2 143.2 29.2L143.2 29.2Q142.2 29.2 141.5 28.7Q140.8 28.2 140.4 27.3Q140.0 26.5 140.0 25.4L140.0 25.4Q140.0 24.3 140.4 23.4Q140.8 22.4 141.6 22.0Q142.4 21.5 143.5 21.5L143.5 21.5Q145.2 21.5 146.1 22.7Q147.1 24.0 147.1 26.2L147.1 26.2L147.1 26.6Q147.1 29.9 145.8 31.4Q144.5 33.0 141.8 33.0L141.8 33.0L141.6 33.0L141.6 31.8L141.9 31.8Q143.7 31.8 144.6 30.9Q145.6 30.0 145.7 28ZM143.4 28L143.4 28Q144.2 28 144.8 27.6Q145.4 27.1 145.7 26.5L145.7 26.5L145.7 25.9Q145.7 24.5 145.1 23.6Q144.4 22.7 143.5 22.7L143.5 22.7Q142.5 22.7 142.0 23.4Q141.4 24.1 141.4 25.3L141.4 25.3Q141.4 26.5 141.9 27.2Q142.5 28 143.4 28ZM149.0 24.4L149.0 23.8Q149.0 22.8 149.6 22.1Q150.3 21.5 151.3 21.5L151.3 21.5Q152.4 21.5 153.0 22.1Q153.6 22.8 153.6 23.9L153.6 23.9L153.6 24.4Q153.6 25.4 153.0 26.1Q152.3 26.8 151.3 26.8L151.3 26.8Q150.3 26.8 149.6 26.1Q149.0 25.4 149.0 24.4L149.0 24.4ZM150.1 23.8L150.1 24.4Q150.1 25.0 150.4 25.4Q150.8 25.8 151.3 25.8L151.3 25.8Q151.9 25.8 152.2 25.4Q152.6 25.0 152.6 24.4L152.6 24.4L152.6 23.8Q152.6 23.2 152.2 22.8Q151.9 22.4 151.3 22.4Q150.7 22.4 150.4 22.8Q150.1 23.2 150.1 23.8L150.1 23.8ZM154.5 30.8L154.5 30.2Q154.5 29.2 155.2 28.5Q155.8 27.9 156.9 27.9Q157.9 27.9 158.5 28.5Q159.2 29.2 159.2 30.3L159.2 30.3L159.2 30.8Q159.2 31.8 158.5 32.5Q157.9 33.2 156.9 33.2Q155.9 33.2 155.2 32.5Q154.5 31.9 154.5 30.8L154.5 30.8ZM155.6 30.2L155.6 30.8Q155.6 31.4 155.9 31.8Q156.3 32.2 156.9 32.2L156.9 32.2Q157.4 32.2 157.8 31.8Q158.1 31.5 158.1 30.8L158.1 30.8L158.1 30.2Q158.1 29.6 157.8 29.2Q157.4 28.8 156.9 28.8L156.9 28.8Q156.3 28.8 155.9 29.2Q155.6 29.6 155.6 30.2L155.6 30.2ZM157.2 23.3L151.7 32.1L150.8 31.6L156.4 22.7L157.2 23.3Z "/></g><mask id="satori_om-id-1-1"><rect x="170" y="18" width="132" height="19" fill="#fff"/></mask><mask id="satori_om-id-1-1-0"><rect x="170" y="20" width="16" height="16" fill="#fff"/></mask><mask id="satori_om-id-1-1-0-0"><rect x="174" y="24" width="8" height="8" fill="#fff"/></mask><path x="174" y="24" width="8" height="8" fill="#3572A5" d="M178,24 h0 a4,4 0 0 1 4,4 v0 a4,4 0 0 1 -4,4 h0 a4,4 0 0 1 -4,-4 v0 a4,4 0 0 1 4,-4"/><mask id="satori_om-id-1-1-1"><rect x="199" y="18" width="51" height="19" fill="#fff"/></mask><g  ><path fill="#24292f" d="M204.4 29.0L202.4 29.0L202.4 33L200.0 33L200.0 21.6L204.5 21.6Q205.7 21.6 206.7 22.1Q207.7 22.6 208.2 23.4Q208.7 24.3 208.7 25.4L208.7 25.4Q208.7 27.1 207.6 28.0Q206.4 29.0 204.4 29.0L204.4 29.0ZM202.4 23.5L202.4 27.1L204.5 27.1Q205.4 27.1 205.9 26.7Q206.4 26.2 206.4 25.4L206.4 25.4Q206.4 24.6 205.9 24.1Q205.4 23.5 204.5 23.5L204.5 23.5L202.4 23.5ZM211.9 24.5L213.5 29.8L215.0 24.5L217.4 24.5L214.0 34.3L213.9 34.8Q213.1 36.4 211.4 36.4L211.4 36.4Q210.9 36.4 210.4 36.3L210.4 36.3L210.4 34.6L210.7 34.6Q211.3 34.6 211.7 34.4Q212.0 34.2 212.2 33.7L212.2 33.7L212.4 33.0L209.5 24.5L211.9 24.5ZM218.8 22.5L221.0 22.5L221.0 24.5L222.5 24.5L222.5 26.2L221.0 26.2L221.0 30.4Q221.0 30.9 221.2 31.1Q221.4 31.3 221.9 31.3L221.9 31.3Q222.3 31.3 222.6 31.2L222.6 31.2L222.6 33.0Q221.9 33.2 221.2 33.2L221.2 33.2Q218.8 33.2 218.8 30.8L218.8 30.8L218.8 26.2L217.5 26.2L217.5 24.5L218.8 24.5L218.8 22.5ZM225.9 21L225.9 25.5Q226.8 24.4 228.2 24.4L228.2 24.4Q231.0 24.4 231.0 27.6L231.0 27.6L231.0 33L228.7 33L228.7 27.6Q228.7 26.9 228.4 26.6Q228.1 26.2 227.4 26.2L227.4 26.2Q226.4 26.2 225.9 27.0L225.9 27.0L225.9 33L223.7 33L223.7 21L225.9 21ZM232.3 28.8L232.3 28.7Q232.3 27.4 232.8 26.5Q233.3 25.5 234.2 24.9Q235.1 24.4 236.3 24.4L236.3 24.4Q238.0 24.4 239.1 25.4Q240.2 26.5 240.3 28.3L240.3 28.3L240.4 28.9Q240.4 30.8 239.3 32.0Q238.2 33.2 236.4 33.2Q234.5 33.2 233.4 32.0Q232.3 30.8 232.3 28.8L232.3 28.8ZM234.6 28.9L234.6 28.9Q234.6 30.1 235.1 30.7Q235.5 31.3 236.4 31.3L236.4 31.3Q237.2 31.3 237.6 30.7Q238.1 30.1 238.1 28.7L238.1 28.7Q238.1 27.5 237.6 26.9Q237.2 26.2 236.3 26.2L236.3 26.2Q235.5 26.2 235.1 26.9Q234.6 27.5 234.6 28.9ZM241.7 24.5L243.8 24.5L243.9 25.5Q244.8 24.4 246.3 24.4L246.3 24.4Q247.7 24.4 248.3 25.2Q249.0 26.0 249.0 27.5L249.0 27.5L249.0 33L246.7 33L246.7 27.6Q246.7 26.9 246.4 26.6Q246.1 26.2 245.4 26.2L245.4 26.2Q244.4 26.2 244.0 27.0L244.0 27.0L244.0 33L241.7 33L241.7 24.5Z "/></g><mask id="satori_om-id-1-1-2"><rect x="259" y="18" width="43" height="19" fill="#fff"/></mask><g  ><path fill="#57606a" d="M264.7 21.6L264.7 33L263.2 33L263.2 23.4L260.3 24.4L260.3 23.1L264.5 21.6L264.7 21.6ZM275.0 21.6L275.0 29.2L276.6 29.2L276.6 30.4L275.0 30.4L275.0 33L273.6 33L273.6 30.4L268.4 30.4L268.4 29.5L273.5 21.6L275.0 21.6ZM273.4 23.9L270.0 29.2L273.6 29.2L273.6 23.6L273.4 23.9ZM278.1 32.2L278.1 32.2Q278.1 31.9 278.3 31.6Q278.5 31.4 279.0 31.4Q279.4 31.4 279.7 31.6Q279.9 31.9 279.9 32.2L279.9 32.2Q279.9 32.6 279.7 32.8Q279.4 33.1 279.0 33.1Q278.5 33.1 278.3 32.8Q278.1 32.6 278.1 32.2ZM287.5 21.6L287.8 21.6L287.8 22.8L287.5 22.8Q285.8 22.9 284.8 23.8Q283.8 24.8 283.7 26.6L283.7 26.6Q284.6 25.5 286.1 25.5L286.1 25.5Q287.6 25.5 288.5 26.6Q289.4 27.6 289.4 29.3L289.4 29.3Q289.4 31.0 288.4 32.1Q287.5 33.2 285.9 33.2L285.9 33.2Q284.2 33.2 283.2 31.9Q282.2 30.6 282.2 28.7L282.2 28.7L282.2 28.1Q282.2 25.0 283.6 23.3Q284.9 21.7 287.5 21.6L287.5 21.6ZM285.9 26.7L285.9 26.7Q285.2 26.7 284.5 27.2Q283.9 27.6 283.7 28.3L283.7 28.3L283.7 28.8Q283.7 30.2 284.3 31.1Q284.9 32.0 285.9 32.0L285.9 32.0Q286.9 32.0 287.4 31.2Q288.0 30.5 288.0 29.4L288.0 29.4Q288.0 28.2 287.4 27.5Q286.8 26.7 285.9 26.7ZM291.0 24.4L291.0 23.8Q291.0 22.8 291.6 22.1Q292.3 21.5 293.3 21.5L293.3 21.5Q294.4 21.5 295.0 22.1Q295.6 22.8 295.6 23.9L295.6 23.9L295.6 24.4Q295.6 25.4 295.0 26.1Q294.3 26.8 293.3 26.8L293.3 26.8Q292.3 26.8 291.6 26.1Q291.0 25.4 291.0 24.4L291.0 24.4ZM292.1 23.8L292.1 24.4Q292.1 25.0 292.4 25.4Q292.8 25.8 293.3 25.8L293.3 25.8Q293.9 25.8 294.2 25.4Q294.6 25.0 294.6 24.4L294.6 24.4L294.6 23.8Q294.6 23.2 294.2 22.8Q293.9 22.4 293.3 22.4Q292.7 22.4 292.4 22.8Q292.1 23.2 292.1 23.8L292.1 23.8ZM296.5 30.8L296.5 30.2Q296.5 29.2 297.2 28.5Q297.8 27.9 298.9 27.9Q299.9 27.9 300.5 28.5Q301.2 29.2 301.2 30.3L301.2 30.3L301.2 30.8Q301.2 31.8 300.5 32.5Q299.9 33.2 298.9 33.2Q297.9 33.2 297.2 32.5Q296.5 31.9 296.5 30.8L296.5 30.8ZM297.6 30.2L297.6 30.8Q297.6 31.4 297.9 31.8Q298.3 32.2 298.9 32.2L298.9 32.2Q299.4 32.2 299.8 31.8Q300.1 31.5 300.1 30.8L300.1 30.8L300.1 30.2Q300.1 29.6 299.8 29.2Q299.4 28.8 298.9 28.8L298.9 28.8Q298.3 28.8 297.9 29.2Q297.6 29.6 297.6 30.2L297.6 30.2ZM299.2 23.3L293.7 32.1L292.8 31.6L298.4 22.7L299.2 23.3Z "/></g><mask id="satori_om-id-1-2"><rect x="0" y="47" width="101" height="19" fill="#fff"/></mask><mask id="satori_om-id-1-2-0"><rect x="0" y="49" width="16" height="16" fill="#fff"/></mask><mask id="satori_om-id-1-2-0-0"><rect x="4" y="53" width="8" height="8" fill="#fff"/></mask><path x="4" y="53" width="8" height="8" fill="#00ADD8" d="M8,53 h0 a4,4 0 0 1 4,4 v0 a4,4 0 0 1 -4,4 h0 a4,4 0 0 1 -4,-4 v0 a4,4 0 0 1 4,-4"/><mask id="satori_om-id-1-2-1"><rect x="29" y="47" width="20" height="19" fill="#fff"/></mask><g  ><path fill="#24292f" d="M39.0 56.0L39.0 60.6Q38.4 61.3 37.2 61.7Q36.1 62.2 34.7 62.2L34.7 62.2Q33.2 62.2 32.1 61.5Q31.0 60.9 30.4 59.6Q29.8 58.4 29.7 56.8L29.7 56.8L29.7 56.0Q29.7 54.3 30.3 53.0Q30.9 51.8 32.0 51.1Q33.0 50.5 34.5 50.5L34.5 50.5Q36.5 50.5 37.7 51.4Q38.8 52.4 39.0 54.2L39.0 54.2L36.7 54.2Q36.6 53.3 36.0 52.8Q35.5 52.4 34.6 52.4L34.6 52.4Q33.4 52.4 32.8 53.3Q32.1 54.2 32.1 55.9L32.1 55.9L32.1 56.7Q32.1 58.4 32.8 59.4Q33.5 60.3 34.8 60.3L34.8 60.3Q36.1 60.3 36.7 59.7L36.7 59.7L36.7 57.8L34.5 57.8L34.5 56.0L39.0 56.0ZM40.4 57.8L40.4 57.7Q40.4 56.4 40.9 55.5Q41.4 54.5 42.3 53.9Q43.2 53.4 44.4 53.4L44.4 53.4Q46.1 53.4 47.2 54.4Q48.3 55.5 48.4 57.3L48.4 57.3L48.4 57.9Q48.4 59.8 47.3 61.0Q46.3 62.2 44.4 62.2Q42.6 62.2 41.5 61.0Q40.4 59.8 40.4 57.8L40.4 57.8ZM42.7 57.9L42.7 57.9Q42.7 59.1 43.1 59.7Q43.6 60.3 44.4 60.3L44.4 60.3Q45.2 60.3 45.7 59.7Q46.2 59.1 46.2 57.7L46.2 57.7Q46.2 56.5 45.7 55.9Q45.2 55.2 44.4 55.2L44.4 55.2Q43.6 55.2 43.1 55.9Q42.7 56.5 42.7 57.9Z "/></g><mask id="satori_om-id-1-2-2"><rect x="58" y="47" width="43" height="19" fill="#fff"/></mask><g  ><path fill="#57606a" d="M63.7 50.6L63.7 62L62.2 62L62.2 52.4L59.3 53.4L59.3 52.1L63.5 50.6L63.7 50.6ZM70.0 56.8L70.0 55.6L71.1 55.6Q72.1 55.6 72.7 55.1Q73.3 54.5 73.3 53.7L73.3 53.7Q73.3 51.7 71.3 51.7L71.3 51.7Q70.4 51.7 69.8 52.2Q69.3 52.7 69.3 53.6L69.3 53.6L67.8 53.6Q67.8 52.3 68.8 51.4Q69.8 50.5 71.3 50.5L71.3 50.5Q72.9 50.5 73.8 51.3Q74.8 52.2 74.8 53.7L74.8 53.7Q74.8 54.4 74.3 55.1Q73.8 55.8 73.0 56.2L73.0 56.2Q73.9 56.5 74.4 57.1Q74.9 57.8 74.9 58.8L74.9 58.8Q74.9 60.4 73.9 61.3Q72.9 62.2 71.3 62.2Q69.7 62.2 68.7 61.3Q67.7 60.4 67.7 59L67.7 59L69.2 59Q69.2 59.9 69.8 60.4Q70.3 61.0 71.3 61.0L71.3 61.0Q72.4 61.0 72.9 60.4Q73.5 59.9 73.5 58.9L73.5 58.9Q73.5 57.9 72.9 57.3Q72.3 56.8 71.1 56.8L71.1 56.8L70.0 56.8ZM77.1 61.2L77.1 61.2Q77.1 60.9 77.3 60.6Q77.5 60.4 78.0 60.4Q78.4 60.4 78.7 60.6Q78.9 60.9 78.9 61.2L78.9 61.2Q78.9 61.6 78.7 61.8Q78.4 62.1 78.0 62.1Q77.5 62.1 77.3 61.8Q77.1 61.6 77.1 61.2ZM88.5 50.6L88.5 51.4L83.8 62L82.2 62L86.9 51.8L80.8 51.8L80.8 50.6L88.5 50.6ZM90.0 53.4L90.0 52.8Q90.0 51.8 90.6 51.1Q91.3 50.5 92.3 50.5L92.3 50.5Q93.4 50.5 94.0 51.1Q94.6 51.8 94.6 52.9L94.6 52.9L94.6 53.4Q94.6 54.4 94.0 55.1Q93.3 55.8 92.3 55.8L92.3 55.8Q91.3 55.8 90.6 55.1Q90.0 54.4 90.0 53.4L90.0 53.4ZM91.1 52.8L91.1 53.4Q91.1 54.0 91.4 54.4Q91.8 54.8 92.3 54.8L92.3 54.8Q92.9 54.8 93.2 54.4Q93.6 54.0 93.6 53.4L93.6 53.4L93.6 52.8Q93.6 52.2 93.2 51.8Q92.9 51.4 92.3 51.4Q91.7 51.4 91.4 51.8Q91.1 52.2 91.1 52.8L91.1 52.8ZM95.5 59.8L95.5 59.2Q95.5 58.2 96.2 57.5Q96.8 56.9 97.9 56.9Q98.9 56.9 99.5 57.5Q100.2 58.2 100.2 59.3L100.2 59.3L100.2 59.8Q100.2 60.8 99.5 61.5Q98.9 62.2 97.9 62.2Q96.9 62.2 96.2 61.5Q95.5 60.9 95.5 59.8L95.5 59.8ZM96.6 59.2L96.6 59.8Q96.6 60.4 96.9 60.8Q97.3 61.2 97.9 61.2L97.9 61.2Q98.4 61.2 98.8 60.8Q99.1 60.5 99.1 59.8L99.1 59.8L99.1 59.2Q99.1 58.6 98.8 58.2Q98.4 57.8 97.9 57.8L97.9 57.8Q97.3 57.8 96.9 58.2Q96.6 58.6 96.6 59.2L96.6 59.2ZM98.2 52.3L92.7 61.1L91.8 60.6L97.4 51.7L98.2 52.3Z "/></g><mask id="satori_om-id-1-3"><rect x="111" y="47" width="103" height="19" fill="#fff"/></mask><mask id="satori_om-id-1-3-0"><rect x="111" y="49" width="16" height="16" fill="#fff"/></mask><mask id="satori_om-id-1-3-0-0"><rect x="115" y="53" width="8" height="8" fill="#fff"/></mask><path x="115" y="53" width="8" height="8" fill="#844FBA" d="M119,53 h0 a4,4 0 0 1 4,4 v0 a4,4 0 0 1 -4,4 h0 a4,4 0 0 1 -4,-4 v0 a4,4 0 0 1 4,-4"/><mask id="satori_om-id-1-3-1"><rect x="140" y="47" width="31" height="19" fill="#fff"/></mask><g  ><path fill="#24292f" d="M150.3 50.6L150.3 62L147.9 62L147.9 57.1L143.4 57.1L143.4 62L141.0 62L141.0 50.6L143.4 50.6L143.4 55.2L147.9 55.2L147.9 50.6L150.3 50.6ZM158.9 58.2L161.3 58.2Q161.1 60.0 159.9 61.1Q158.7 62.2 156.7 62.2L156.7 62.2Q154.5 62.2 153.2 60.7Q152.0 59.2 152.0 56.6L152.0 56.6L152.0 55.9Q152.0 54.3 152.6 53.1Q153.1 51.8 154.2 51.1Q155.3 50.5 156.7 50.5L156.7 50.5Q158.7 50.5 159.9 51.5Q161.1 52.6 161.3 54.5L161.3 54.5L158.9 54.5Q158.8 53.4 158.3 52.9Q157.8 52.4 156.7 52.4L156.7 52.4Q155.5 52.4 154.9 53.2Q154.4 54.1 154.4 55.8L154.4 55.8L154.4 56.7Q154.4 58.5 154.9 59.4Q155.5 60.2 156.7 60.2L156.7 60.2Q157.8 60.2 158.3 59.7Q158.8 59.3 158.9 58.2L158.9 58.2ZM165.1 50.6L165.1 60.1L170.1 60.1L170.1 62L162.8 62L162.8 50.6L165.1 50.6Z "/></g><mask id="satori_om-id-1-3-2"><rect x="180" y="47" width="34" height="19" fill="#fff"/></mask><g  ><path fill="#57606a" d="M186.4 50.6L186.6 50.6L186.6 51.8L186.4 51.8Q184.7 51.9 183.7 52.8Q182.7 53.8 182.5 55.6L182.5 55.6Q183.4 54.5 185.0 54.5L185.0 54.5Q186.4 54.5 187.3 55.6Q188.2 56.6 188.2 58.3L188.2 58.3Q188.2 60.0 187.3 61.1Q186.3 62.2 184.7 62.2L184.7 62.2Q183.1 62.2 182.0 60.9Q181.0 59.6 181.0 57.7L181.0 57.7L181.0 57.1Q181.0 54.0 182.4 52.3Q183.7 50.7 186.4 50.6L186.4 50.6ZM184.7 55.7L184.7 55.7Q184.0 55.7 183.4 56.2Q182.7 56.6 182.5 57.3L182.5 57.3L182.5 57.8Q182.5 59.2 183.1 60.1Q183.8 61.0 184.7 61.0L184.7 61.0Q185.7 61.0 186.2 60.2Q186.8 59.5 186.8 58.4L186.8 58.4Q186.8 57.2 186.2 56.5Q185.7 55.7 184.7 55.7ZM190.1 61.2L190.1 61.2Q190.1 60.9 190.3 60.6Q190.6 60.4 191 60.4Q191.4 60.4 191.7 60.6Q191.9 60.9 191.9 61.2L191.9 61.2Q191.9 61.6 191.7 61.8Q191.4 62.1 191 62.1Q190.6 62.1 190.3 61.8Q190.1 61.6 190.1 61.2ZM201.0 53.6L201.0 53.6Q201.0 54.4 200.6 55.1Q200.1 55.8 199.4 56.1L199.4 56.1Q200.3 56.5 200.8 57.3Q201.3 58 201.3 58.9L201.3 58.9Q201.3 60.4 200.3 61.3Q199.3 62.2 197.7 62.2L197.7 62.2Q196.0 62.2 195.1 61.3Q194.1 60.4 194.1 58.9L194.1 58.9Q194.1 58.0 194.6 57.3Q195.1 56.5 196.0 56.1L196.0 56.1Q195.2 55.8 194.8 55.1Q194.3 54.4 194.3 53.6L194.3 53.6Q194.3 52.2 195.3 51.3Q196.2 50.5 197.7 50.5L197.7 50.5Q199.2 50.5 200.1 51.3Q201.0 52.2 201.0 53.6ZM199.9 58.9L199.9 58.9Q199.9 57.9 199.3 57.3Q198.6 56.7 197.7 56.7Q196.7 56.7 196.1 57.3Q195.5 57.9 195.5 58.9Q195.5 59.9 196.1 60.4Q196.7 61.0 197.7 61.0L197.7 61.0Q198.7 61.0 199.3 60.4Q199.9 59.9 199.9 58.9ZM197.7 51.7L197.7 51.7Q196.8 51.7 196.3 52.2Q195.8 52.7 195.8 53.6L195.8 53.6Q195.8 54.5 196.3 55.0Q196.8 55.6 197.7 55.6Q198.6 55.6 199.1 55.0Q199.6 54.5 199.6 53.6Q199.6 52.8 199.1 52.2Q198.5 51.7 197.7 51.7ZM203 53.4L203 52.8Q203 51.8 203.7 51.1Q204.3 50.5 205.3 50.5L205.3 50.5Q206.4 50.5 207.0 51.1Q207.7 51.8 207.7 52.9L207.7 52.9L207.7 53.4Q207.7 54.4 207.0 55.1Q206.4 55.8 205.3 55.8L205.3 55.8Q204.3 55.8 203.7 55.1Q203 54.4 203 53.4L203 53.4ZM204.1 52.8L204.1 53.4Q204.1 54.0 204.4 54.4Q204.8 54.8 205.3 54.8L205.3 54.8Q205.9 54.8 206.2 54.4Q206.6 54.0 206.6 53.4L206.6 53.4L206.6 52.8Q206.6 52.2 206.2 51.8Q205.9 51.4 205.3 51.4Q204.8 51.4 204.4 51.8Q204.1 52.2 204.1 52.8L204.1 52.8ZM208.5 59.8L208.5 59.2Q208.5 58.2 209.2 57.5Q209.8 56.9 210.9 56.9Q211.9 56.9 212.5 57.5Q213.2 58.2 213.2 59.3L213.2 59.3L213.2 59.8Q213.2 60.8 212.6 61.5Q211.9 62.2 210.9 62.2Q209.9 62.2 209.2 61.5Q208.5 60.9 208.5 59.8L208.5 59.8ZM209.6 59.2L209.6 59.8Q209.6 60.4 210.0 60.8Q210.3 61.2 210.9 61.2L210.9 61.2Q211.4 61.2 211.8 60.8Q212.1 60.5 212.1 59.8L212.1 59.8L212.1 59.2Q212.1 58.6 211.8 58.2Q211.4 57.8 210.9 57.8L210.9 57.8Q210.3 57.8 210.0 58.2Q209.6 58.6 209.6 59.2L209.6 59.2ZM211.2 52.3L205.7 61.1L204.9 60.6L210.4 51.7L211.2 52.3Z "/></g><mask id="satori_om-id-1-4"><rect x="224" y="47" width="105" height="19" fill="#fff"/></mask><mask id="satori_om-id-1-4-0"><rect x="224" y="49" width="16" height="16" fill="#fff"/></mask><mask id="satori_om-id-1-4-0-0"><rect x="228" y="53" width="8" height="8" fill="#fff"/></mask><path x="228" y="53" width="8" height="8" fill="#dea584" d="M232,53 h0 a4,4 0 0 1 4,4 v0 a4,4 0 0 1 -4,4 h0 a4,4 0 0 1 -4,-4 v0 a4,4 0 0 1 4,-4"/><mask id="satori_om-id-1-4-1"><rect x="253" y="47" width="33" height="19" fill="#fff"/></mask><g  ><path fill="#24292f" d="M260.4 62L258.2 57.8L256.4 57.8L256.4 62L254.0 62L254.0 50.6L258.2 50.6Q260.3 50.6 261.4 51.5Q262.4 52.4 262.4 54.1L262.4 54.1Q262.4 55.2 261.9 56.0Q261.4 56.8 260.4 57.2L260.4 57.2L262.9 61.9L262.9 62L260.4 62ZM256.4 52.5L256.4 55.9L258.3 55.9Q259.1 55.9 259.6 55.5Q260.1 55.0 260.1 54.3L260.1 54.3Q260.1 53.4 259.6 53.0Q259.2 52.5 258.2 52.5L258.2 52.5L256.4 52.5ZM269.2 62L269.1 61.1Q268.3 62.2 266.8 62.2L266.8 62.2Q265.5 62.2 264.8 61.4Q264.0 60.6 264.0 59.1L264.0 59.1L264.0 53.5L266.3 53.5L266.3 59.0Q266.3 60.3 267.5 60.3L267.5 60.3Q268.6 60.3 269.1 59.5L269.1 59.5L269.1 53.5L271.3 53.5L271.3 62L269.2 62ZM277.6 59.7L277.6 59.7Q277.6 59.3 277.2 59.0Q276.8 58.8 275.9 58.6L275.9 58.6Q272.9 58.0 272.9 56.0L272.9 56.0Q272.9 54.9 273.8 54.1Q274.7 53.4 276.2 53.4L276.2 53.4Q277.9 53.4 278.8 54.1Q279.8 54.9 279.8 56.1L279.8 56.1L277.5 56.1Q277.5 55.6 277.2 55.3Q276.9 55 276.2 55L276.2 55Q275.7 55 275.4 55.3Q275.0 55.5 275.0 55.9L275.0 55.9Q275.0 56.3 275.4 56.5Q275.8 56.8 276.6 56.9Q277.4 57.1 278.0 57.3L278.0 57.3Q279.8 58.0 279.8 59.6L279.8 59.6Q279.8 60.7 278.8 61.4Q277.8 62.2 276.3 62.2L276.3 62.2Q275.2 62.2 274.4 61.8Q273.5 61.4 273.1 60.7Q272.6 60.1 272.6 59.3L272.6 59.3L274.7 59.3Q274.8 59.9 275.2 60.2Q275.6 60.6 276.3 60.6L276.3 60.6Q276.9 60.6 277.3 60.3Q277.6 60.1 277.6 59.7ZM281.7 51.5L284.0 51.5L284.0 53.5L285.4 53.5L285.4 55.2L284.0 55.2L284.0 59.4Q284.0 59.9 284.1 60.1Q284.3 60.3 284.8 60.3L284.8 60.3Q285.2 60.3 285.5 60.2L285.5 60.2L285.5 62.0Q284.8 62.2 284.1 62.2L284.1 62.2Q281.8 62.2 281.7 59.8L281.7 59.8L281.7 55.2L280.5 55.2L280.5 53.5L281.7 53.5L281.7 51.5Z "/></g><mask id="satori_om-id-1-4-2"><rect x="295" y="47" width="34" height="19" fill="#fff"/></mask><g  ><path fill="#57606a" d="M302.0 50.6L302.0 58.2L303.6 58.2L303.6 59.4L302.0 59.4L302.0 62L300.6 62L300.6 59.4L295.4 59.4L295.4 58.5L300.5 50.6L302.0 50.6ZM300.4 52.9L297.1 58.2L300.6 58.2L300.6 52.6L300.4 52.9ZM305.1 61.2L305.1 61.2Q305.1 60.9 305.3 60.6Q305.6 60.4 306 60.4Q306.4 60.4 306.7 60.6Q306.9 60.9 306.9 61.2L306.9 61.2Q306.9 61.6 306.7 61.8Q306.4 62.1 306 62.1Q305.6 62.1 305.3 61.8Q305.1 61.6 305.1 61.2ZM316.3 55.3L316.3 57.1Q316.3 59.7 315.4 60.9Q314.5 62.2 312.7 62.2L312.7 62.2Q310.9 62.2 310 60.9Q309.1 59.7 309.1 57.3L309.1 57.3L309.1 55.4Q309.1 52.9 310.0 51.7Q310.8 50.5 312.7 50.5L312.7 50.5Q314.5 50.5 315.4 51.6Q316.3 52.8 316.3 55.3L316.3 55.3ZM314.8 57.5L314.8 55.2Q314.8 53.3 314.3 52.5Q313.8 51.7 312.7 51.7L312.7 51.7Q311.6 51.7 311.1 52.5Q310.6 53.3 310.5 55.1L310.5 55.1L310.5 57.4Q310.5 59.2 311.1 60.1Q311.6 61.0 312.7 61.0L312.7 61.0Q313.8 61.0 314.3 60.1Q314.8 59.3 314.8 57.5L314.8 57.5ZM318 53.4L318 52.8Q318 51.8 318.7 51.1Q319.3 50.5 320.3 50.5L320.3 50.5Q321.4 50.5 322.0 51.1Q322.7 51.8 322.7 52.9L322.7 52.9L322.7 53.4Q322.7 54.4 322.0 55.1Q321.4 55.8 320.3 55.8L320.3 55.8Q319.3 55.8 318.7 55.1Q318 54.4 318 53.4L318 53.4ZM319.1 52.8L319.1 53.4Q319.1 54.0 319.4 54.4Q319.8 54.8 320.3 54.8L320.3 54.8Q320.9 54.8 321.2 54.4Q321.6 54.0 321.6 53.4L321.6 53.4L321.6 52.8Q321.6 52.2 321.2 51.8Q320.9 51.4 320.3 51.4Q319.8 51.4 319.4 51.8Q319.1 52.2 319.1 52.8L319.1 52.8ZM323.5 59.8L323.5 59.2Q323.5 58.2 324.2 57.5Q324.8 56.9 325.9 56.9Q326.9 56.9 327.5 57.5Q328.2 58.2 328.2 59.3L328.2 59.3L328.2 59.8Q328.2 60.8 327.6 61.5Q326.9 62.2 325.9 62.2Q324.9 62.2 324.2 61.5Q323.5 60.9 323.5 59.8L323.5 59.8ZM324.6 59.2L324.6 59.8Q324.6 60.4 325.0 60.8Q325.3 61.2 325.9 61.2L325.9 61.2Q326.4 61.2 326.8 60.8Q327.1 60.5 327.1 59.8L327.1 59.8L327.1 59.2Q327.1 58.6 326.8 58.2Q326.4 57.8 325.9 57.8L325.9 57.8Q325.3 57.8 325.0 58.2Q324.6 58.6 324.6 59.2L324.6 59.2ZM326.2 52.3L320.7 61.1L319.9 60.6L325.4 51.7L326.2 52.3Z "/></g><mask id="satori_om-id-1-5"><rect x="0" y="76" width="115" height="19" fill="#fff"/></mask><mask id="satori_om-id-1-5-0"><rect x="0" y="78" width="16" height="16" fill="#fff"/></mask><mask id="satori_om-id-1-5-0-0"><rect x="4" y="82" width="8" height="8" fill="#fff"/></mask><path x="4" y="82" width="8" height="8" fill="#A97BFF" d="M8,82 h0 a4,4 0 0 1 4,4 v0 a4,4 0 0 1 -4,4 h0 a4,4 0 0 1 -4,-4 v0 a4,4 0 0 1 4,-4"/><mask id="satori_om-id-1-5-1"><rect x="29" y="76" width="43" height="19" fill="#fff"/></mask><g  ><path fill="#24292f" d="M36.5 91L33.6 86.4L32.4 87.8L32.4 91L30.0 91L30.0 79.6L32.4 79.6L32.4 84.8L33.4 83.4L36.3 79.6L39.2 79.6L35.1 84.7L39.3 91L36.5 91ZM39.5 86.8L39.5 86.7Q39.5 85.4 39.9 84.5Q40.4 83.5 41.3 82.9Q42.3 82.4 43.5 82.4L43.5 82.4Q45.2 82.4 46.2 83.4Q47.3 84.5 47.5 86.3L47.5 86.3L47.5 86.9Q47.5 88.8 46.4 90.0Q45.3 91.2 43.5 91.2Q41.6 91.2 40.6 90.0Q39.5 88.8 39.5 86.8L39.5 86.8ZM41.7 86.9L41.7 86.9Q41.7 88.1 42.2 88.7Q42.6 89.3 43.5 89.3L43.5 89.3Q44.3 89.3 44.8 88.7Q45.2 88.1 45.2 86.7L45.2 86.7Q45.2 85.5 44.8 84.9Q44.3 84.2 43.5 84.2L43.5 84.2Q42.6 84.2 42.2 84.9Q41.7 85.5 41.7 86.9ZM49.3 80.5L51.6 80.5L51.6 82.5L53.0 82.5L53.0 84.2L51.6 84.2L51.6 88.4Q51.6 88.9 51.7 89.1Q51.9 89.3 52.4 89.3L52.4 89.3Q52.8 89.3 53.1 89.2L53.1 89.2L53.1 91.0Q52.4 91.2 51.7 91.2L51.7 91.2Q49.4 91.2 49.3 88.8L49.3 88.8L49.3 84.2L48.1 84.2L48.1 82.5L49.3 82.5L49.3 80.5ZM56.6 79L56.6 91L54.4 91L54.4 79L56.6 79ZM60.9 82.5L60.9 91L58.6 91L58.6 82.5L60.9 82.5ZM58.5 80.4L58.5 80.4Q58.5 79.9 58.8 79.5Q59.2 79.2 59.8 79.2L59.8 79.2Q60.3 79.2 60.7 79.5Q61.0 79.9 61.0 80.4L61.0 80.4Q61.0 80.9 60.7 81.2Q60.3 81.5 59.8 81.5Q59.2 81.5 58.8 81.2Q58.5 80.9 58.5 80.4ZM62.7 82.5L64.8 82.5L64.9 83.5Q65.8 82.4 67.3 82.4L67.3 82.4Q68.7 82.4 69.3 83.2Q70.0 84.0 70 85.5L70 85.5L70 91L67.7 91L67.7 85.6Q67.7 84.9 67.4 84.6Q67.1 84.2 66.4 84.2L66.4 84.2Q65.4 84.2 65.0 85.0L65.0 85.0L65.0 91L62.7 91L62.7 82.5Z "/></g><mask id="satori_om-id-1-5-2"><rect x="81" y="76" width="34" height="19" fill="#fff"/></mask><g  ><path fill="#57606a" d="M84.0 85.8L84.0 84.6L85.1 84.6Q86.2 84.6 86.7 84.1Q87.3 83.5 87.3 82.7L87.3 82.7Q87.3 80.7 85.3 80.7L85.3 80.7Q84.4 80.7 83.8 81.2Q83.3 81.7 83.3 82.6L83.3 82.6L81.8 82.6Q81.8 81.3 82.8 80.4Q83.8 79.5 85.3 79.5L85.3 79.5Q86.9 79.5 87.9 80.3Q88.8 81.2 88.8 82.7L88.8 82.7Q88.8 83.4 88.3 84.1Q87.8 84.8 87.0 85.2L87.0 85.2Q87.9 85.5 88.4 86.1Q88.9 86.8 88.9 87.8L88.9 87.8Q88.9 89.4 87.9 90.3Q86.9 91.2 85.3 91.2Q83.7 91.2 82.7 90.3Q81.7 89.4 81.7 88L81.7 88L83.2 88Q83.2 88.9 83.8 89.4Q84.4 90.0 85.3 90.0L85.3 90.0Q86.4 90.0 86.9 89.4Q87.5 88.9 87.5 87.9L87.5 87.9Q87.5 86.9 86.9 86.3Q86.3 85.8 85.1 85.8L85.1 85.8L84.0 85.8ZM91.1 90.2L91.1 90.2Q91.1 89.9 91.3 89.6Q91.6 89.4 92 89.4Q92.4 89.4 92.7 89.6Q92.9 89.9 92.9 90.2L92.9 90.2Q92.9 90.6 92.7 90.8Q92.4 91.1 92 91.1Q91.6 91.1 91.3 90.8Q91.1 90.6 91.1 90.2ZM100.6 79.6L100.8 79.6L100.8 80.8L100.5 80.8Q98.9 80.9 97.9 81.8Q96.9 82.8 96.7 84.6L96.7 84.6Q97.6 83.5 99.2 83.5L99.2 83.5Q100.6 83.5 101.5 84.6Q102.4 85.6 102.4 87.3L102.4 87.3Q102.4 89.0 101.5 90.1Q100.5 91.2 98.9 91.2L98.9 91.2Q97.3 91.2 96.2 89.9Q95.2 88.6 95.2 86.7L95.2 86.7L95.2 86.1Q95.2 83.0 96.6 81.3Q97.9 79.7 100.6 79.6L100.6 79.6ZM98.9 84.7L98.9 84.7Q98.2 84.7 97.5 85.2Q96.9 85.6 96.7 86.3L96.7 86.3L96.7 86.8Q96.7 88.2 97.3 89.1Q97.9 90.0 98.9 90.0L98.9 90.0Q99.9 90.0 100.4 89.2Q101.0 88.5 101.0 87.4L101.0 87.4Q101.0 86.2 100.4 85.5Q99.9 84.7 98.9 84.7ZM104 82.4L104 81.8Q104 80.8 104.7 80.1Q105.3 79.5 106.3 79.5L106.3 79.5Q107.4 79.5 108.0 80.1Q108.7 80.8 108.7 81.9L108.7 81.9L108.7 82.4Q108.7 83.4 108.0 84.1Q107.4 84.8 106.3 84.8L106.3 84.8Q105.3 84.8 104.7 84.1Q104 83.4 104 82.4L104 82.4ZM105.1 81.8L105.1 82.4Q105.1 83.0 105.4 83.4Q105.8 83.8 106.3 83.8L106.3 83.8Q106.9 83.8 107.2 83.4Q107.6 83.0 107.6 82.4L107.6 82.4L107.6 81.8Q107.6 81.2 107.2 80.8Q106.9 80.4 106.3 80.4Q105.8 80.4 105.4 80.8Q105.1 81.2 105.1 81.8L105.1 81.8ZM109.5 88.8L109.5 88.2Q109.5 87.2 110.2 86.5Q110.8 85.9 111.9 85.9Q112.9 85.9 113.5 86.5Q114.2 87.2 114.2 88.3L114.2 88.3L114.2 88.8Q114.2 89.8 113.6 90.5Q112.9 91.2 111.9 91.2Q110.9 91.2 110.2 90.5Q109.5 89.9 109.5 88.8L109.5 88.8ZM110.6 88.2L110.6 88.8Q110.6 89.4 111.0 89.8Q111.3 90.2 111.9 90.2L111.9 90.2Q112.4 90.2 112.8 89.8Q113.1 89.5 113.1 88.8L113.1 88.8L113.1 88.2Q113.1 87.6 112.8 87.2Q112.4 86.8 111.9 86.8L111.9 86.8Q111.3 86.8 111.0 87.2Q110.6 87.6 110.6 88.2L110.6 88.2ZM112.2 81.3L106.7 90.1L105.9 89.6L111.4 80.7L112.2 81.3Z "/></g><mask id="satori_om-id-1-6"><rect x="125" y="76" width="117" height="19" fill="#fff"/></mask><mask id="satori_om-id-1-6-0"><rect x="125" y="78" width="16" height="16" fill="#fff"/></mask><mask id="satori_om-id-1-6-0-0"><rect x="129" y="82" width="8" height="8" fill="#fff"/></mask><path x="129" y="82" width="8" height="8" fill="#ff3e00" d="M133,82 h0 a4,4 0 0 1 4,4 v0 a4,4 0 0 1 -4,4 h0 a4,4 0 0 1 -4,-4 v0 a4,4 0 0 1 4,-4"/><mask id="satori_om-id-1-6-1"><rect x="154" y="76" width="45" height="19" fill="#fff"/></mask><g  ><path fill="#24292f" d="M160.9 88.0L160.9 88.0Q160.9 87.4 160.4 87.0Q160.0 86.6 158.8 86.2Q157.5 85.9 156.8 85.5L156.8 85.5Q154.9 84.4 154.9 82.6L154.9 82.6Q154.9 81.7 155.4 81.0Q155.9 80.3 156.9 79.9Q157.9 79.5 159.1 79.5L159.1 79.5Q160.3 79.5 161.3 79.9Q162.2 80.4 162.7 81.2Q163.3 82.0 163.3 83.0L163.3 83.0L160.9 83.0Q160.9 82.2 160.4 81.8Q159.9 81.3 159.0 81.3L159.0 81.3Q158.2 81.3 157.7 81.7Q157.2 82.1 157.2 82.7L157.2 82.7Q157.2 83.2 157.8 83.6Q158.4 84.0 159.4 84.3L159.4 84.3Q161.4 84.9 162.4 85.8Q163.3 86.7 163.3 88L163.3 88Q163.3 89.5 162.1 90.3Q161.0 91.2 159.1 91.2L159.1 91.2Q157.8 91.2 156.8 90.7Q155.7 90.2 155.1 89.4Q154.5 88.5 154.5 87.4L154.5 87.4L156.9 87.4Q156.9 89.3 159.1 89.3L159.1 89.3Q160.0 89.3 160.4 89.0Q160.9 88.6 160.9 88.0ZM166.3 82.5L167.9 88.2L169.4 82.5L171.8 82.5L168.9 91L166.8 91L163.9 82.5L166.3 82.5ZM176.6 91.2L176.6 91.2Q174.7 91.2 173.6 90.0Q172.4 88.9 172.4 87.0L172.4 87.0L172.4 86.8Q172.4 85.5 172.9 84.5Q173.4 83.5 174.3 82.9Q175.2 82.4 176.3 82.4L176.3 82.4Q178.1 82.4 179.1 83.5Q180.1 84.6 180.1 86.6L180.1 86.6L180.1 87.5L174.7 87.5Q174.8 88.3 175.3 88.8Q175.9 89.3 176.7 89.3L176.7 89.3Q178.0 89.3 178.8 88.4L178.8 88.4L179.9 89.6Q179.4 90.4 178.5 90.8Q177.6 91.2 176.6 91.2ZM176.3 84.2L176.3 84.2Q175.6 84.2 175.2 84.7Q174.8 85.1 174.7 86.0L174.7 86.0L177.8 86.0L177.8 85.8Q177.8 85.0 177.4 84.6Q177.0 84.2 176.3 84.2ZM183.7 79L183.7 91L181.5 91L181.5 79L183.7 79ZM186.0 80.5L188.3 80.5L188.3 82.5L189.7 82.5L189.7 84.2L188.3 84.2L188.3 88.4Q188.3 88.9 188.5 89.1Q188.6 89.3 189.1 89.3L189.1 89.3Q189.5 89.3 189.8 89.2L189.8 89.2L189.8 91.0Q189.1 91.2 188.4 91.2L188.4 91.2Q186.1 91.2 186.0 88.8L186.0 88.8L186.0 84.2L184.8 84.2L184.8 82.5L186.0 82.5L186.0 80.5ZM194.9 91.2L194.9 91.2Q193.0 91.2 191.8 90.0Q190.7 88.9 190.7 87.0L190.7 87.0L190.7 86.8Q190.7 85.5 191.2 84.5Q191.7 83.5 192.6 82.9Q193.5 82.4 194.6 82.4L194.6 82.4Q196.4 82.4 197.4 83.5Q198.4 84.6 198.4 86.6L198.4 86.6L198.4 87.5L193.0 87.5Q193.1 88.3 193.6 88.8Q194.2 89.3 195.0 89.3L195.0 89.3Q196.3 89.3 197.1 88.4L197.1 88.4L198.2 89.6Q197.7 90.4 196.8 90.8Q195.9 91.2 194.9 91.2ZM194.6 84.2L194.6 84.2Q193.9 84.2 193.5 84.7Q193.1 85.1 193.0 86.0L193.0 86.0L196.1 86.0L196.1 85.8Q196.1 85.0 195.7 84.6Q195.3 84.2 194.6 84.2Z "/></g><mask id="satori_om-id-1-6-2"><rect x="208" y="76" width="34" height="19" fill="#fff"/></mask><g  ><path fill="#57606a" d="M211.0 85.8L211.0 84.6L212.1 84.6Q213.2 84.6 213.7 84.1Q214.3 83.5 214.3 82.7L214.3 82.7Q214.3 80.7 212.3 80.7L212.3 80.7Q211.4 80.7 210.8 81.2Q210.3 81.7 210.3 82.6L210.3 82.6L208.8 82.6Q208.8 81.3 209.8 80.4Q210.8 79.5 212.3 79.5L212.3 79.5Q213.9 79.5 214.9 80.3Q215.8 81.2 215.8 82.7L215.8 82.7Q215.8 83.4 215.3 84.1Q214.8 84.8 214.0 85.2L214.0 85.2Q214.9 85.5 215.4 86.1Q215.9 86.8 215.9 87.8L215.9 87.8Q215.9 89.4 214.9 90.3Q213.9 91.2 212.3 91.2Q210.7 91.2 209.7 90.3Q208.7 89.4 208.7 88L208.7 88L210.2 88Q210.2 88.9 210.8 89.4Q211.4 90.0 212.3 90.0L212.3 90.0Q213.4 90.0 213.9 89.4Q214.5 88.9 214.5 87.9L214.5 87.9Q214.5 86.9 213.9 86.3Q213.3 85.8 212.1 85.8L212.1 85.8L211.0 85.8ZM218.1 90.2L218.1 90.2Q218.1 89.9 218.3 89.6Q218.6 89.4 219 89.4Q219.4 89.4 219.7 89.6Q219.9 89.9 219.9 90.2L219.9 90.2Q219.9 90.6 219.7 90.8Q219.4 91.1 219 91.1Q218.6 91.1 218.3 90.8Q218.1 90.6 218.1 90.2ZM227.6 79.6L227.8 79.6L227.8 80.8L227.5 80.8Q225.9 80.9 224.9 81.8Q223.9 82.8 223.7 84.6L223.7 84.6Q224.6 83.5 226.2 83.5L226.2 83.5Q227.6 83.5 228.5 84.6Q229.4 85.6 229.4 87.3L229.4 87.3Q229.4 89.0 228.5 90.1Q227.5 91.2 225.9 91.2L225.9 91.2Q224.3 91.2 223.2 89.9Q222.2 88.6 222.2 86.7L222.2 86.7L222.2 86.1Q222.2 83.0 223.6 81.3Q224.9 79.7 227.6 79.6L227.6 79.6ZM225.9 84.7L225.9 84.7Q225.2 84.7 224.5 85.2Q223.9 85.6 223.7 86.3L223.7 86.3L223.7 86.8Q223.7 88.2 224.3 89.1Q224.9 90.0 225.9 90.0L225.9 90.0Q226.9 90.0 227.4 89.2Q228.0 88.5 228.0 87.4L228.0 87.4Q228.0 86.2 227.4 85.5Q226.9 84.7 225.9 84.7ZM231 82.4L231 81.8Q231 80.8 231.7 80.1Q232.3 79.5 233.3 79.5L233.3 79.5Q234.4 79.5 235.0 80.1Q235.7 80.8 235.7 81.9L235.7 81.9L235.7 82.4Q235.7 83.4 235.0 84.1Q234.4 84.8 233.3 84.8L233.3 84.8Q232.3 84.8 231.7 84.1Q231 83.4 231 82.4L231 82.4ZM232.1 81.8L232.1 82.4Q232.1 83.0 232.4 83.4Q232.8 83.8 233.3 83.8L233.3 83.8Q233.9 83.8 234.2 83.4Q234.6 83.0 234.6 82.4L234.6 82.4L234.6 81.8Q234.6 81.2 234.2 80.8Q233.9 80.4 233.3 80.4Q232.8 80.4 232.4 80.8Q232.1 81.2 232.1 81.8L232.1 81.8ZM236.5 88.8L236.5 88.2Q236.5 87.2 237.2 86.5Q237.8 85.9 238.9 85.9Q239.9 85.9 240.5 86.5Q241.2 87.2 241.2 88.3L241.2 88.3L241.2 88.8Q241.2 89.8 240.6 90.5Q239.9 91.2 238.9 91.2Q237.9 91.2 237.2 90.5Q236.5 89.9 236.5 88.8L236.5 88.8ZM237.6 88.2L237.6 88.8Q237.6 89.4 238.0 89.8Q238.3 90.2 238.9 90.2L238.9 90.2Q239.4 90.2 239.8 89.8Q240.1 89.5 240.1 88.8L240.1 88.8L240.1 88.2Q240.1 87.6 239.8 87.2Q239.4 86.8 238.9 86.8L238.9 86.8Q238.3 86.8 238.0 87.2Q237.6 87.6 237.6 88.2L237.6 88.2ZM239.2 81.3L233.7 90.1L232.9 89.6L238.4 80.7L239.2 81.3Z "/></g><mask id="satori_om-id-1-7"><rect x="252" y="76" width="109" height="19" fill="#fff"/></mask><mask id="satori_om-id-1-7-0"><rect x="252" y="78" width="16" height="16" fill="#fff"/></mask><mask id="satori_om-id-1-7-0-0"><rect x="256" y="82" width="8" height="8" fill="#fff"/></mask><path x="256" y="82" width="8" height="8" fill="#701516" d="M260,82 h0 a4,4 0 0 1 4,4 v0 a4,4 0 0 1 -4,4 h0 a4,4 0 0 1 -4,-4 v0 a4,4 0 0 1 4,-4"/><mask id="satori_om-id-1-7-1"><rect x="281" y="76" width="37" height="19" fill="#fff"/></mask><g  ><path fill="#24292f" d="M288.4 91L286.2 86.8L284.4 86.8L284.4 91L282.0 91L282.0 79.6L286.2 79.6Q288.3 79.6 289.4 80.5Q290.4 81.4 290.4 83.1L290.4 83.1Q290.4 84.2 289.9 85.0Q289.4 85.8 288.4 86.2L288.4 86.2L290.9 90.9L290.9 91L288.4 91ZM284.4 81.5L284.4 84.9L286.3 84.9Q287.1 84.9 287.6 84.5Q288.1 84.0 288.1 83.3L288.1 83.3Q288.1 82.4 287.6 82.0Q287.2 81.5 286.2 81.5L286.2 81.5L284.4 81.5ZM297.2 91L297.1 90.1Q296.3 91.2 294.8 91.2L294.8 91.2Q293.5 91.2 292.8 90.4Q292.0 89.6 292.0 88.1L292.0 88.1L292.0 82.5L294.3 82.5L294.3 88.0Q294.3 89.3 295.5 89.3L295.5 89.3Q296.6 89.3 297.1 88.5L297.1 88.5L297.1 82.5L299.3 82.5L299.3 91L297.2 91ZM308.6 86.7L308.6 86.9Q308.6 88.9 307.8 90.0Q306.9 91.2 305.4 91.2L305.4 91.2Q304.0 91.2 303.2 90.1L303.2 90.1L303.1 91L301.0 91L301.0 79L303.3 79L303.3 83.3Q304.1 82.4 305.3 82.4L305.3 82.4Q306.9 82.4 307.8 83.5Q308.6 84.7 308.6 86.7L308.6 86.7ZM306.4 86.7L306.4 86.7Q306.4 85.4 306.0 84.8Q305.6 84.2 304.8 84.2L304.8 84.2Q303.7 84.2 303.3 85.1L303.3 85.1L303.3 88.4Q303.7 89.3 304.8 89.3L304.8 89.3Q305.9 89.3 306.2 88.3L306.2 88.3Q306.4 87.7 306.4 86.7ZM311.5 82.5L313.1 87.8L314.7 82.5L317.1 82.5L313.7 92.3L313.5 92.8Q312.8 94.4 311.0 94.4L311.0 94.4Q310.5 94.4 310.0 94.3L310.0 94.3L310.0 92.6L310.4 92.6Q311.0 92.6 311.3 92.4Q311.6 92.2 311.8 91.7L311.8 91.7L312.1 91.0L309.1 82.5L311.5 82.5Z "/></g><mask id="satori_om-id-1-7-2"><rect x="327" y="76" width="34" height="19" fill="#fff"/></mask><g  ><path fill="#57606a" d="M330.0 85.8L330.0 84.6L331.1 84.6Q332.2 84.6 332.7 84.1Q333.3 83.5 333.3 82.7L333.3 82.7Q333.3 80.7 331.3 80.7L331.3 80.7Q330.4 80.7 329.8 81.2Q329.3 81.7 329.3 82.6L329.3 82.6L327.8 82.6Q327.8 81.3 328.8 80.4Q329.8 79.5 331.3 79.5L331.3 79.5Q332.9 79.5 333.9 80.3Q334.8 81.2 334.8 82.7L334.8 82.7Q334.8 83.4 334.3 84.1Q333.8 84.8 333.0 85.2L333.0 85.2Q333.9 85.5 334.4 86.1Q334.9 86.8 334.9 87.8L334.9 87.8Q334.9 89.4 333.9 90.3Q332.9 91.2 331.3 91.2Q329.7 91.2 328.7 90.3Q327.7 89.4 327.7 88L327.7 88L329.2 88Q329.2 88.9 329.8 89.4Q330.4 90.0 331.3 90.0L331.3 90.0Q332.4 90.0 332.9 89.4Q333.5 88.9 333.5 87.9L333.5 87.9Q333.5 86.9 332.9 86.3Q332.3 85.8 331.1 85.8L331.1 85.8L330.0 85.8ZM337.1 90.2L337.1 90.2Q337.1 89.9 337.3 89.6Q337.6 89.4 338 89.4Q338.4 89.4 338.7 89.6Q338.9 89.9 338.9 90.2L338.9 90.2Q338.9 90.6 338.7 90.8Q338.4 91.1 338 91.1Q337.6 91.1 337.3 90.8Q337.1 90.6 337.1 90.2ZM343.0 85.6L341.8 85.3L342.4 79.6L348.2 79.6L348.2 81.0L343.6 81.0L343.3 84.1Q344.1 83.6 345.2 83.6L345.2 83.6Q346.7 83.6 347.6 84.6Q348.5 85.6 348.5 87.4L348.5 87.4Q348.5 89.1 347.6 90.1Q346.6 91.2 344.9 91.2L344.9 91.2Q343.4 91.2 342.5 90.3Q341.5 89.5 341.4 88.0L341.4 88.0L342.8 88.0Q342.9 89.0 343.5 89.5Q344.0 90.0 344.9 90.0L344.9 90.0Q346.0 90.0 346.5 89.3Q347.1 88.6 347.1 87.4L347.1 87.4Q347.1 86.3 346.5 85.6Q345.9 84.9 344.8 84.9L344.8 84.9Q343.9 84.9 343.3 85.3L343.3 85.3L343.0 85.6ZM350 82.4L350 81.8Q350 80.8 350.7 80.1Q351.3 79.5 352.3 79.5L352.3 79.5Q353.4 79.5 354.0 80.1Q354.7 80.8 354.7 81.9L354.7 81.9L354.7 82.4Q354.7 83.4 354.0 84.1Q353.4 84.8 352.3 84.8L352.3 84.8Q351.3 84.8 350.7 84.1Q350 83.4 350 82.4L350 82.4ZM351.1 81.8L351.1 82.4Q351.1 83.0 351.4 83.4Q351.8 83.8 352.3 83.8L352.3 83.8Q352.9 83.8 353.2 83.4Q353.6 83.0 353.6 82.4L353.6 82.4L353.6 81.8Q353.6 81.2 353.2 80.8Q352.9 80.4 352.3 80.4Q351.8 80.4 351.4 80.8Q351.1 81.2 351.1 81.8L351.1 81.8ZM355.5 88.8L355.5 88.2Q355.5 87.2 356.2 86.5Q356.8 85.9 357.9 85.9Q358.9 85.9 359.5 86.5Q360.2 87.2 360.2 88.3L360.2 88.3L360.2 88.8Q360.2 89.8 359.6 90.5Q358.9 91.2 357.9 91.2Q356.9 91.2 356.2 90.5Q355.5 89.9 355.5 88.8L355.5 88.8ZM356.6 88.2L356.6 88.8Q356.6 89.4 357.0 89.8Q357.3 90.2 357.9 90.2L357.9 90.2Q358.4 90.2 358.8 89.8Q359.1 89.5 359.1 88.8L359.1 88.8L359.1 88.2Q359.1 87.6 358.8 87.2Q358.4 86.8 357.9 86.8L357.9 86.8Q357.3 86.8 357.0 87.2Q356.6 87.6 356.6 88.2L356.6 88.2ZM358.2 81.3L352.7 90.1L351.9 89.6L357.4 80.7L358.2 81.3Z "/></g><mask id="satori_om-id-1-8"><rect x="0" y="105" width="149" height="19" fill="#fff"/></mask><mask id="satori_om-id-1-8-0"><rect x="0" y="107" width="16" height="16" fill="#fff"/></mask><mask id="satori_om-id-1-8-0-0"><rect x="4" y="111" width="8" height="8" fill="#fff"/></mask><path x="4" y="111" width="8" height="8" fill="#f1e05a" d="M8,111 h0 a4,4 0 0 1 4,4 v0 a4,4 0 0 1 -4,4 h0 a4,4 0 0 1 -4,-4 v0 a4,4 0 0 1 4,-4"/><mask id="satori_om-id-1-8-1"><rect x="29" y="105" width="77" height="19" fill="#fff"/></mask><g  ><path fill="#24292f" d="M34.6 116.5L34.6 108.6L36.9 108.6L36.9 116.5Q36.9 117.6 36.5 118.4Q36.0 119.3 35.1 119.7Q34.2 120.2 33.1 120.2L33.1 120.2Q31.3 120.2 30.3 119.2Q29.3 118.3 29.3 116.6L29.3 116.6L31.7 116.6Q31.7 117.5 32.0 117.9Q32.4 118.3 33.1 118.3L33.1 118.3Q33.8 118.3 34.2 117.8Q34.6 117.4 34.6 116.5L34.6 116.5ZM46.0 120L43.7 120Q43.5 119.7 43.5 119.2L43.5 119.2Q42.7 120.2 41.3 120.2L41.3 120.2Q40.1 120.2 39.3 119.4Q38.5 118.7 38.5 117.6L38.5 117.6Q38.5 116.3 39.5 115.6Q40.5 114.8 42.3 114.8L42.3 114.8L43.4 114.8L43.4 114.4Q43.4 113.8 43.1 113.4Q42.8 113.1 42.1 113.1L42.1 113.1Q41.6 113.1 41.2 113.3Q40.9 113.6 40.9 114.1L40.9 114.1L38.7 114.1Q38.7 113.4 39.1 112.7Q39.6 112.1 40.4 111.7Q41.2 111.4 42.3 111.4L42.3 111.4Q43.8 111.4 44.7 112.2Q45.6 113.0 45.6 114.4L45.6 114.4L45.6 118.0Q45.7 119.3 46.0 119.9L46.0 119.9L46.0 120ZM41.8 118.4L41.8 118.4Q42.3 118.4 42.8 118.2Q43.2 118.0 43.4 117.6L43.4 117.6L43.4 116.2L42.5 116.2Q40.8 116.2 40.7 117.3L40.7 117.3L40.7 117.5Q40.7 117.9 41.0 118.2Q41.3 118.4 41.8 118.4ZM48.9 111.5L50.4 117.2L52 111.5L54.4 111.5L51.5 120L49.4 120L46.5 111.5L48.9 111.5ZM62.4 120L60.1 120Q60.0 119.7 59.9 119.2L59.9 119.2Q59.1 120.2 57.8 120.2L57.8 120.2Q56.5 120.2 55.7 119.4Q54.9 118.7 54.9 117.6L54.9 117.6Q54.9 116.3 55.9 115.6Q56.9 114.8 58.8 114.8L58.8 114.8L59.8 114.8L59.8 114.4Q59.8 113.8 59.5 113.4Q59.2 113.1 58.6 113.1L58.6 113.1Q58.0 113.1 57.7 113.3Q57.3 113.6 57.3 114.1L57.3 114.1L55.1 114.1Q55.1 113.4 55.5 112.7Q56.0 112.1 56.8 111.7Q57.6 111.4 58.7 111.4L58.7 111.4Q60.2 111.4 61.2 112.2Q62.1 113.0 62.1 114.4L62.1 114.4L62.1 118.0Q62.1 119.3 62.4 119.9L62.4 119.9L62.4 120ZM58.3 118.4L58.3 118.4Q58.8 118.4 59.2 118.2Q59.6 118.0 59.8 117.6L59.8 117.6L59.8 116.2L59.0 116.2Q57.3 116.2 57.2 117.3L57.2 117.3L57.2 117.5Q57.2 117.9 57.5 118.2Q57.8 118.4 58.3 118.4ZM69.9 117.0L69.9 117.0Q69.9 116.4 69.4 116.0Q68.9 115.6 67.7 115.2Q66.5 114.9 65.8 114.5L65.8 114.5Q63.8 113.4 63.8 111.6L63.8 111.6Q63.8 110.7 64.4 110.0Q64.9 109.3 65.8 108.9Q66.8 108.5 68.0 108.5L68.0 108.5Q69.3 108.5 70.2 108.9Q71.2 109.4 71.7 110.2Q72.2 111.0 72.2 112.0L72.2 112.0L69.9 112.0Q69.9 111.2 69.4 110.8Q68.9 110.3 68.0 110.3L68.0 110.3Q67.1 110.3 66.7 110.7Q66.2 111.1 66.2 111.7L66.2 111.7Q66.2 112.2 66.7 112.6Q67.3 113.0 68.4 113.3L68.4 113.3Q70.4 113.9 71.3 114.8Q72.2 115.7 72.2 117L72.2 117Q72.2 118.5 71.1 119.3Q70.0 120.2 68.1 120.2L68.1 120.2Q66.8 120.2 65.7 119.7Q64.6 119.2 64.1 118.4Q63.5 117.5 63.5 116.4L63.5 116.4L65.8 116.4Q65.8 118.3 68.1 118.3L68.1 118.3Q68.9 118.3 69.4 118.0Q69.9 117.6 69.9 117.0ZM77.2 118.3L77.2 118.3Q77.8 118.3 78.2 118.0Q78.6 117.6 78.6 117.1L78.6 117.1L80.7 117.1Q80.7 117.9 80.2 118.7Q79.8 119.4 79.0 119.8Q78.2 120.2 77.2 120.2L77.2 120.2Q75.4 120.2 74.3 119.0Q73.3 117.9 73.3 115.8L73.3 115.8L73.3 115.7Q73.3 113.7 74.3 112.6Q75.4 111.4 77.2 111.4L77.2 111.4Q78.8 111.4 79.7 112.3Q80.7 113.2 80.7 114.7L80.7 114.7L78.6 114.7Q78.6 114.0 78.2 113.6Q77.8 113.2 77.1 113.2L77.1 113.2Q76.4 113.2 76.0 113.8Q75.6 114.4 75.6 115.7L75.6 115.7L75.6 115.9Q75.6 117.2 76.0 117.8Q76.4 118.3 77.2 118.3ZM86.8 111.5L86.7 113.7Q86.3 113.6 85.9 113.6L85.9 113.6Q84.6 113.6 84.3 114.5L84.3 114.5L84.3 120L82.0 120L82.0 111.5L84.1 111.5L84.2 112.6Q84.9 111.4 86.1 111.4L86.1 111.4Q86.4 111.4 86.8 111.5L86.8 111.5ZM90.2 111.5L90.2 120L87.9 120L87.9 111.5L90.2 111.5ZM87.8 109.4L87.8 109.4Q87.8 108.9 88.2 108.5Q88.5 108.2 89.1 108.2L89.1 108.2Q89.7 108.2 90 108.5Q90.3 108.9 90.3 109.4L90.3 109.4Q90.3 109.9 90.0 110.2Q89.6 110.5 89.1 110.5Q88.5 110.5 88.2 110.2Q87.8 109.9 87.8 109.4ZM99.7 115.7L99.7 115.9Q99.7 117.8 98.8 119.0Q97.9 120.2 96.4 120.2L96.4 120.2Q95.1 120.2 94.3 119.3L94.3 119.3L94.3 123.3L92.1 123.3L92.1 111.5L94.2 111.5L94.2 112.4Q95.1 111.4 96.4 111.4L96.4 111.4Q97.9 111.4 98.8 112.5Q99.7 113.7 99.7 115.7L99.7 115.7ZM97.4 115.7L97.4 115.7Q97.4 114.5 97.0 113.9Q96.6 113.2 95.8 113.2L95.8 113.2Q94.7 113.2 94.3 114.0L94.3 114.0L94.3 117.5Q94.7 118.3 95.8 118.3L95.8 118.3Q97.4 118.3 97.4 115.7ZM101.5 109.5L103.8 109.5L103.8 111.5L105.2 111.5L105.2 113.2L103.8 113.2L103.8 117.4Q103.8 117.9 104.0 118.1Q104.1 118.3 104.6 118.3L104.6 118.3Q105.0 118.3 105.3 118.2L105.3 118.2L105.3 120.0Q104.6 120.2 103.9 120.2L103.9 120.2Q101.6 120.2 101.5 117.8L101.5 117.8L101.5 113.2L100.3 113.2L100.3 111.5L101.5 111.5L101.5 109.5Z "/></g><mask id="satori_om-id-1-8-2"><rect x="115" y="105" width="34" height="19" fill="#fff"/></mask><g  ><path fill="#57606a" d="M118.0 114.8L118.0 113.6L119.1 113.6Q120.2 113.6 120.7 113.1Q121.3 112.5 121.3 111.7L121.3 111.7Q121.3 109.7 119.3 109.7L119.3 109.7Q118.4 109.7 117.8 110.2Q117.3 110.7 117.3 111.6L117.3 111.6L115.8 111.6Q115.8 110.3 116.8 109.4Q117.8 108.5 119.3 108.5L119.3 108.5Q120.9 108.5 121.9 109.3Q122.8 110.2 122.8 111.7L122.8 111.7Q122.8 112.4 122.3 113.1Q121.8 113.8 121.0 114.2L121.0 114.2Q121.9 114.5 122.4 115.1Q122.9 115.8 122.9 116.8L122.9 116.8Q122.9 118.4 121.9 119.3Q120.9 120.2 119.3 120.2Q117.7 120.2 116.7 119.3Q115.7 118.4 115.7 117L115.7 117L117.2 117Q117.2 117.9 117.8 118.4Q118.4 119.0 119.3 119.0L119.3 119.0Q120.4 119.0 120.9 118.4Q121.5 117.9 121.5 116.9L121.5 116.9Q121.5 115.9 120.9 115.3Q120.3 114.8 119.1 114.8L119.1 114.8L118.0 114.8ZM125.1 119.2L125.1 119.2Q125.1 118.9 125.3 118.6Q125.6 118.4 126 118.4Q126.4 118.4 126.7 118.6Q126.9 118.9 126.9 119.2L126.9 119.2Q126.9 119.6 126.7 119.8Q126.4 120.1 126 120.1Q125.6 120.1 125.3 119.8Q125.1 119.6 125.1 119.2ZM136.6 118.8L136.6 120L129.1 120L129.1 119.0L133.1 114.6Q134.0 113.6 134.3 113.0Q134.6 112.4 134.6 111.7L134.6 111.7Q134.6 110.8 134.1 110.2Q133.5 109.7 132.6 109.7L132.6 109.7Q131.6 109.7 131.0 110.3Q130.4 110.9 130.4 112.0L130.4 112.0L128.9 112.0Q128.9 110.4 129.9 109.4Q130.9 108.5 132.6 108.5L132.6 108.5Q134.2 108.5 135.1 109.3Q136.1 110.1 136.1 111.5L136.1 111.5Q136.1 113.2 133.9 115.5L133.9 115.5L130.9 118.8L136.6 118.8ZM138 111.4L138 110.8Q138 109.8 138.7 109.1Q139.3 108.5 140.3 108.5L140.3 108.5Q141.4 108.5 142.0 109.1Q142.7 109.8 142.7 110.9L142.7 110.9L142.7 111.4Q142.7 112.4 142.0 113.1Q141.4 113.8 140.3 113.8L140.3 113.8Q139.3 113.8 138.7 113.1Q138 112.4 138 111.4L138 111.4ZM139.1 110.8L139.1 111.4Q139.1 112.0 139.4 112.4Q139.8 112.8 140.3 112.8L140.3 112.8Q140.9 112.8 141.2 112.4Q141.6 112.0 141.6 111.4L141.6 111.4L141.6 110.8Q141.6 110.2 141.2 109.8Q140.9 109.4 140.3 109.4Q139.8 109.4 139.4 109.8Q139.1 110.2 139.1 110.8L139.1 110.8ZM143.5 117.8L143.5 117.2Q143.5 116.2 144.2 115.5Q144.8 114.9 145.9 114.9Q146.9 114.9 147.5 115.5Q148.2 116.2 148.2 117.3L148.2 117.3L148.2 117.8Q148.2 118.8 147.6 119.5Q146.9 120.2 145.9 120.2Q144.9 120.2 144.2 119.5Q143.5 118.9 143.5 117.8L143.5 117.8ZM144.6 117.2L144.6 117.8Q144.6 118.4 145.0 118.8Q145.3 119.2 145.9 119.2L145.9 119.2Q146.4 119.2 146.8 118.8Q147.1 118.5 147.1 117.8L147.1 117.8L147.1 117.2Q147.1 116.6 146.8 116.2Q146.4 115.8 145.9 115.8L145.9 115.8Q145.3 115.8 145.0 116.2Q144.6 116.6 144.6 117.2L144.6 117.2ZM146.2 110.3L140.7 119.1L139.9 118.6L145.4 109.7L146.2 110.3Z "/></g><mask id="satori_om-id-1-9"><rect x="159" y="105" width="137" height="19" fill="#fff"/></mask><mask id="satori_om-id-1-9-0"><rect x="159" y="107" width="16" height="16" fill="#fff"/></mask><mask id="satori_om-id-1-9-0-0"><rect x="163" y="111" width="8" height="8" fill="#fff"/></mask><path x="163" y="111" width="8" height="8" fill="#e16737" d="M167,111 h0 a4,4 0 0 1 4,4 v0 a4,4 0 0 1 -4,4 h0 a4,4 0 0 1 -4,-4 v0 a4,4 0 0 1 4,-4"/><mask id="satori_om-id-1-9-1"><rect x="188" y="105" width="65" height="19" fill="#fff"/></mask><g  ><path fill="#24292f" d="M189.0 108.6L192.1 108.6L195 116.9L197.9 108.6L201.0 108.6L201.0 120L198.6 120L198.6 116.9L198.9 111.5L195.8 120L194.2 120L191.1 111.5L191.4 116.9L191.4 120L189.0 120L189.0 108.6ZM210.4 120L209.6 117.7L205.5 117.7L204.7 120L202.2 120L206.4 108.6L208.6 108.6L212.9 120L210.4 120ZM207.5 111.5L206.1 115.8L209.0 115.8L207.5 111.5ZM221.6 108.6L221.6 110.5L218.1 110.5L218.1 120L215.7 120L215.7 110.5L212.3 110.5L212.3 108.6L221.6 108.6ZM225.2 108.6L225.2 118.1L230.2 118.1L230.2 120L222.9 120L222.9 108.6L225.2 108.6ZM238.9 120L238.1 117.7L234.0 117.7L233.2 120L230.8 120L235.0 108.6L237.2 108.6L241.4 120L238.9 120ZM236.1 111.5L234.7 115.8L237.5 115.8L236.1 111.5ZM246.9 120L242.5 120L242.5 108.6L246.5 108.6Q248.5 108.6 249.6 109.4Q250.7 110.2 250.7 111.7L250.7 111.7Q250.7 112.6 250.2 113.2Q249.8 113.9 249.0 114.1L249.0 114.1Q249.9 114.4 250.4 115.0Q250.9 115.7 250.9 116.7L250.9 116.7Q250.9 118.3 249.9 119.1Q248.8 120.0 246.9 120L246.9 120ZM247.0 115.0L244.8 115.0L244.8 118.1L246.8 118.1Q247.7 118.1 248.1 117.7Q248.6 117.3 248.6 116.6L248.6 116.6Q248.6 115.1 247.0 115.0L247.0 115.0ZM244.8 110.5L244.8 113.4L246.6 113.4Q248.3 113.4 248.3 112.0L248.3 112.0Q248.3 111.2 247.9 110.9Q247.4 110.5 246.5 110.5L246.5 110.5L244.8 110.5Z "/></g><mask id="satori_om-id-1-9-2"><rect x="262" y="105" width="34" height="19" fill="#fff"/></mask><g  ><path fill="#57606a" d="M265.0 114.8L265.0 113.6L266.1 113.6Q267.2 113.6 267.7 113.1Q268.3 112.5 268.3 111.7L268.3 111.7Q268.3 109.7 266.3 109.7L266.3 109.7Q265.4 109.7 264.8 110.2Q264.3 110.7 264.3 111.6L264.3 111.6L262.8 111.6Q262.8 110.3 263.8 109.4Q264.8 108.5 266.3 108.5L266.3 108.5Q267.9 108.5 268.9 109.3Q269.8 110.2 269.8 111.7L269.8 111.7Q269.8 112.4 269.3 113.1Q268.8 113.8 268.0 114.2L268.0 114.2Q268.9 114.5 269.4 115.1Q269.9 115.8 269.9 116.8L269.9 116.8Q269.9 118.4 268.9 119.3Q267.9 120.2 266.3 120.2Q264.7 120.2 263.7 119.3Q262.7 118.4 262.7 117L262.7 117L264.2 117Q264.2 117.9 264.8 118.4Q265.4 119.0 266.3 119.0L266.3 119.0Q267.4 119.0 267.9 118.4Q268.5 117.9 268.5 116.9L268.5 116.9Q268.5 115.9 267.9 115.3Q267.3 114.8 266.1 114.8L266.1 114.8L265.0 114.8ZM272.1 119.2L272.1 119.2Q272.1 118.9 272.3 118.6Q272.6 118.4 273 118.4Q273.4 118.4 273.7 118.6Q273.9 118.9 273.9 119.2L273.9 119.2Q273.9 119.6 273.7 119.8Q273.4 120.1 273 120.1Q272.6 120.1 272.3 119.8Q272.1 119.6 272.1 119.2ZM283.3 113.3L283.3 115.1Q283.3 117.7 282.4 118.9Q281.5 120.2 279.7 120.2L279.7 120.2Q277.9 120.2 277 118.9Q276.1 117.7 276.1 115.3L276.1 115.3L276.1 113.4Q276.1 110.9 277.0 109.7Q277.8 108.5 279.7 108.5L279.7 108.5Q281.5 108.5 282.4 109.6Q283.3 110.8 283.3 113.3L283.3 113.3ZM281.8 115.5L281.8 113.2Q281.8 111.3 281.3 110.5Q280.8 109.7 279.7 109.7L279.7 109.7Q278.6 109.7 278.1 110.5Q277.6 111.3 277.5 113.1L277.5 113.1L277.5 115.4Q277.5 117.2 278.1 118.1Q278.6 119.0 279.7 119.0L279.7 119.0Q280.8 119.0 281.3 118.1Q281.8 117.3 281.8 115.5L281.8 115.5ZM285 111.4L285 110.8Q285 109.8 285.7 109.1Q286.3 108.5 287.3 108.5L287.3 108.5Q288.4 108.5 289.0 109.1Q289.7 109.8 289.7 110.9L289.7 110.9L289.7 111.4Q289.7 112.4 289.0 113.1Q288.4 113.8 287.3 113.8L287.3 113.8Q286.3 113.8 285.7 113.1Q285 112.4 285 111.4L285 111.4ZM286.1 110.8L286.1 111.4Q286.1 112.0 286.4 112.4Q286.8 112.8 287.3 112.8L287.3 112.8Q287.9 112.8 288.2 112.4Q288.6 112.0 288.6 111.4L288.6 111.4L288.6 110.8Q288.6 110.2 288.2 109.8Q287.9 109.4 287.3 109.4Q286.8 109.4 286.4 109.8Q286.1 110.2 286.1 110.8L286.1 110.8ZM290.5 117.8L290.5 117.2Q290.5 116.2 291.2 115.5Q291.8 114.9 292.9 114.9Q293.9 114.9 294.5 115.5Q295.2 116.2 295.2 117.3L295.2 117.3L295.2 117.8Q295.2 118.8 294.6 119.5Q293.9 120.2 292.9 120.2Q291.9 120.2 291.2 119.5Q290.5 118.9 290.5 117.8L290.5 117.8ZM291.6 117.2L291.6 117.8Q291.6 118.4 292.0 118.8Q292.3 119.2 292.9 119.2L292.9 119.2Q293.4 119.2 293.8 118.8Q294.1 118.5 294.1 117.8L294.1 117.8L294.1 117.2Q294.1 116.6 293.8 116.2Q293.4 115.8 292.9 115.8L292.9 115.8Q292.3 115.8 292.0 116.2Q291.6 116.6 291.6 117.2L291.6 117.2ZM293.2 110.3L287.7 119.1L286.9 118.6L292.4 109.7L293.2 110.3Z "/></g></svg>