<svg width="375" height="200" viewBox="0 0 375 200" xmlns="http://www.w3.org/2000/svg"><mask id="satori_om-id"><rect x="0" y="0" width="375" height="152" fill="#fff"/></mask><clipPath id="satori_cp-id-0"><path x="0" y="0" width="375" height="8" d="M4,0 h367 a4,4 0 0 1 4,4 v0 a4,4 0 0 1 -4,4 h-367 a4,4 0 0 1 -4,-4 v0 a4,4 0 0 1 4,-4"/></clipPath><mask id="satori_om-id-0"><rect x="0" y="0" width="375" height="8" fill="#fff"/></mask><mask id="satori_om-id-0-0"><rect x="0" y="0" width="181" height="8" fill="#fff" mask="url(#satori_om-id-0)"/></mask><rect x="0" y="0" width="181" height="8" fill="#3178c6" clip-path="url(#satori_cp-id-0)" mask="url(#satori_om-id-0)"/><mask id="satori_om-id-0-1"><rect x="181" y="0" width="39" height="8" fill="#fff" mask="url(#satori_om-id-0)"/></mask><rect x="181" y="0" width="39" height="8" fill="#DA5B0B" clip-path="url(#satori_cp-id-0)" mask="url(#satori_om-id-0)"/><mask id="satori_om-id-0-2"><rect x="220" y="0" width="34" height="8" fill="#fff" mask="url(#satori_om-id-0)"/></mask><rect x="220" y="0" width="34" height="8" fill="#844FBA" clip-path="url(#satori_cp-id-0)" mask="url(#satori_om-id-0)"/><mask id="satori_om-id-0-3"><rect x="254" y="0" width="27" height="8" fill="#fff" mask="url(#satori_om-id-0)"/></mask><rect x="254" y="0" width="27" height="8" fill="#3572A5" clip-path="url(#satori_cp-id-0)" mask="url(#satori_om-id-0)"/><mask id="satori_om-id-0-4"><rect x="281" y="0" width="20" height="8" fill="#fff" mask="url(#satori_om-id-0)"/></mask><rect x="281" y="0" width="20" height="8" fill="#ff3e00" clip-path="url(#satori_cp-id-0)" mask="url(#satori_om-id-0)"/><mask id="satori_om-id-0-5"><rect x="301" y="0" width="18" height="8" fill="#fff" mask="url(#satori_om-id-0)"/></mask><rect x="301" y="0" width="18" height="8" fill="#00ADD8" clip-path="url(#satori_cp-id-0)" mask="url(#satori_om-id-0)"/><mask id="satori_om-id-0-6"><rect x="319" y="0" width="15" height="8" fill="#fff" mask="url(#satori_om-id-0)"/></mask><rect x="319" y="0" width="15" height="8" fill="#e34c26" clip-path="url(#satori_cp-id-0)" mask="url(#satori_om-id-0)"/><mask id="satori_om-id-0-7"><rect x="334" y="0" width="14" height="8" fill="#fff" mask="url(#satori_om-id-0)"/></mask><rect x="334" y="0" width="14" height="8" fill="#f1e05a" clip-path="url(#satori_cp-id-0)" mask="url(#satori_om-id-0)"/><mask id="satori_om-id-0-8"><rect x="348" y="0" width="12" height="8" fill="#fff" mask="url(#satori_om-id-0)"/></mask><rect x="348" y="0" width="12" height="8" fill="#555555" clip-path="url(#satori_cp-id-0)" mask="url(#satori_om-id-0)"/><mask id="satori_om-id-0-9"><rect x="360" y="0" width="9" height="8" fill="#fff" mask="url(#satori_om-id-0)"/></mask><rect x="360" y="0" width="9" height="8" fill="#ff5a03" clip-path="url(#satori_cp-id-0)" mask="url(#satori_om-id-0)"/><mask id="satori_om-id-1"><rect x="0" y="18" width="375" height="134" fill="#fff"/></mask><mask id="satori_om-id-1-0"><rect x="0" y="18" width="160" height="19" fill="#fff"/></mask><mask id="satori_om-id-1-0-0"><rect x="0" y="19" width="16" height="16" fill="#fff"/></mask><mask id="satori_om-id-1-0-0-0"><rect x="4" y="23" width="8" height="8" fill="#fff"/></mask><path x="4" y="23" width="8" height="8" fill="#3178c6" d="M8,23 h0 a4,4 0 0 1 4,4 v0 a4,4 0 0 1 -4,4 h0 a4,4 0 0 1 -4,-4 v0 a4,4 0 0 1 4,-4"/><mask id="satori_om-id-1-0-1"><rect x="29" y="18" width="79" height="19" fill="#fff"/></mask><path fill="#fff" d="M38.6 22.1L38.6 24.0L35.1 24.0L35.1 33.5L32.8 33.5L32.8 24.0L29.3 24.0L29.3 22.1L38.6 22.1ZM40.7 25.0L42.3 30.3L43.8 25.0L46.3 25.0L42.9 34.8L42.7 35.2Q41.9 36.9 40.2 36.9L40.2 36.9Q39.7 36.9 39.2 36.7L39.2 36.7L39.2 35.0L39.5 35.0Q40.2 35.0 40.5 34.9Q40.8 34.7 41.0 34.2L41.0 34.2L41.2 33.5L38.3 25.0L40.7 25.0ZM54.8 29.2L54.8 29.3Q54.8 31.3 53.9 32.5Q53.0 33.6 51.5 33.6L51.5 33.6Q50.2 33.6 49.4 32.7L49.4 32.7L49.4 36.7L47.2 36.7L47.2 25.0L49.3 25.0L49.3 25.9Q50.1 24.9 51.5 24.9L51.5 24.9Q53.0 24.9 53.9 26.0Q54.8 27.2 54.8 29.2L54.8 29.2ZM52.5 29.2L52.5 29.2Q52.5 28.0 52.1 27.4Q51.7 26.7 50.9 26.7L50.9 26.7Q49.8 26.7 49.4 27.5L49.4 27.5L49.4 31.0Q49.8 31.8 50.9 31.8L50.9 31.8Q52.5 31.8 52.5 29.2ZM60.1 33.6L60.1 33.6Q58.2 33.6 57.0 32.5Q55.9 31.4 55.9 29.5L55.9 29.5L55.9 29.2Q55.9 28.0 56.4 27.0Q56.8 26.0 57.7 25.4Q58.6 24.9 59.8 24.9L59.8 24.9Q61.5 24.9 62.5 26.0Q63.5 27.1 63.5 29.1L63.5 29.1L63.5 30.0L58.1 30.0Q58.3 30.8 58.8 31.3Q59.4 31.8 60.2 31.8L60.2 31.8Q61.5 31.8 62.2 30.9L62.2 30.9L63.4 32.1Q62.8 32.8 62.0 33.2Q61.1 33.6 60.1 33.6ZM59.8 26.7L59.8 26.7Q59.1 26.7 58.7 27.2Q58.3 27.6 58.2 28.5L58.2 28.5L61.3 28.5L61.3 28.3Q61.3 27.5 60.9 27.1Q60.5 26.7 59.8 26.7ZM70.9 30.5L70.9 30.5Q70.9 29.8 70.4 29.5Q69.9 29.1 68.7 28.7Q67.5 28.3 66.8 28.0L66.8 28.0Q64.8 26.9 64.8 25.1L64.8 25.1Q64.8 24.2 65.4 23.5Q65.9 22.8 66.8 22.4Q67.8 22.0 69.0 22.0L69.0 22.0Q70.3 22.0 71.2 22.4Q72.2 22.8 72.7 23.6Q73.2 24.4 73.2 25.5L73.2 25.5L70.9 25.5Q70.9 24.7 70.4 24.3Q69.9 23.8 69.0 23.8L69.0 23.8Q68.1 23.8 67.7 24.2Q67.2 24.5 67.2 25.1L67.2 25.1Q67.2 25.7 67.7 26.1Q68.3 26.4 69.4 26.8L69.4 26.8Q71.4 27.4 72.3 28.3Q73.2 29.2 73.2 30.5L73.2 30.5Q73.2 32.0 72.1 32.8Q71.0 33.6 69.1 33.6L69.1 33.6Q67.8 33.6 66.7 33.2Q65.6 32.7 65.1 31.8Q64.5 31.0 64.5 29.9L64.5 29.9L66.8 29.9Q66.8 31.8 69.1 31.8L69.1 31.8Q69.9 31.8 70.4 31.4Q70.9 31.1 70.9 30.5ZM78.2 31.8L78.2 31.8Q78.8 31.8 79.2 31.5Q79.6 31.1 79.6 30.6L79.6 30.6L81.7 30.6Q81.7 31.4 81.2 32.1Q80.8 32.9 80.0 33.2Q79.2 33.6 78.2 33.6L78.2 33.6Q76.4 33.6 75.3 32.5Q74.3 31.3 74.3 29.3L74.3 29.3L74.3 29.2Q74.3 27.2 75.3 26.0Q76.4 24.9 78.2 24.9L78.2 24.9Q79.8 24.9 80.7 25.8Q81.7 26.7 81.7 28.2L81.7 28.2L79.6 28.2Q79.6 27.5 79.2 27.1Q78.8 26.7 78.1 26.7L78.1 26.7Q77.4 26.7 77.0 27.3Q76.6 27.9 76.6 29.1L76.6 29.1L76.6 29.4Q76.6 30.7 77.0 31.2Q77.4 31.8 78.2 31.8ZM87.8 25.0L87.7 27.1Q87.3 27.1 86.9 27.1L86.9 27.1Q85.6 27.1 85.3 28.0L85.3 28.0L85.3 33.5L83.0 33.5L83.0 25.0L85.1 25.0L85.2 26.0Q85.9 24.9 87.1 24.9L87.1 24.9Q87.4 24.9 87.8 25.0L87.8 25.0ZM91.2 25.0L91.2 33.5L88.9 33.5L88.9 25.0L91.2 25.0ZM88.8 22.8L88.8 22.8Q88.8 22.3 89.2 22.0Q89.5 21.7 90.1 21.7L90.1 21.7Q90.7 21.7 91 22.0Q91.3 22.3 91.3 22.8L91.3 22.8Q91.3 23.4 91.0 23.7Q90.6 24.0 90.1 24.0Q89.5 24.0 89.2 23.7Q88.8 23.4 88.8 22.8ZM100.7 29.2L100.7 29.3Q100.7 31.3 99.8 32.5Q98.9 33.6 97.4 33.6L97.4 33.6Q96.1 33.6 95.3 32.7L95.3 32.7L95.3 36.7L93.1 36.7L93.1 25.0L95.2 25.0L95.2 25.9Q96.1 24.9 97.4 24.9L97.4 24.9Q98.9 24.9 99.8 26.0Q100.7 27.2 100.7 29.2L100.7 29.2ZM98.4 29.2L98.4 29.2Q98.4 28.0 98.0 27.4Q97.6 26.7 96.8 26.7L96.8 26.7Q95.7 26.7 95.3 27.5L95.3 27.5L95.3 31.0Q95.7 31.8 96.8 31.8L96.8 31.8Q98.4 31.8 98.4 29.2ZM102.5 23.0L104.8 23.0L104.8 25.0L106.2 25.0L106.2 26.7L104.8 26.7L104.8 30.9Q104.8 31.4 105.0 31.6Q105.1 31.8 105.6 31.8L105.6 31.8Q106.0 31.8 106.3 31.7L106.3 31.7L106.3 33.4Q105.6 33.6 104.9 33.6L104.9 33.6Q102.6 33.6 102.5 31.2L102.5 31.2L102.5 26.7L101.3 26.7L101.3 25.0L102.5 25.0L102.5 23.0Z "/><mask id="satori_om-id-1-0-2"><rect x="117" y="18" width="43" height="19" fill="#fff"/></mask><path fill="#7d8590" d="M124.0 22.1L124.0 29.7L125.6 29.7L125.6 30.8L124.0 30.8L124.0 33.5L122.6 33.5L122.6 30.8L117.4 30.8L117.4 30.0L122.5 22.1L124.0 22.1ZM122.4 24.4L119.1 29.7L122.6 29.7L122.6 24.1L122.4 24.4ZM133.8 25.1L133.8 25.1Q133.8 25.9 133.4 26.6Q132.9 27.3 132.2 27.6L132.2 27.6Q133.1 28.0 133.6 28.7Q134.1 29.5 134.1 30.4L134.1 30.4Q134.1 31.9 133.1 32.8Q132.1 33.6 130.5 33.6L130.5 33.6Q128.8 33.6 127.8 32.8Q126.9 31.9 126.9 30.4L126.9 30.4Q126.9 29.5 127.4 28.7Q127.9 28.0 128.8 27.6L128.8 27.6Q128 27.2 127.6 26.6Q127.1 25.9 127.1 25.1L127.1 25.1Q127.1 23.6 128.0 22.8Q129.0 22.0 130.5 22.0L130.5 22.0Q132.0 22.0 132.9 22.8Q133.8 23.6 133.8 25.1ZM132.6 30.4L132.6 30.4Q132.6 29.4 132.0 28.8Q131.4 28.2 130.5 28.2Q129.5 28.2 128.9 28.8Q128.3 29.4 128.3 30.4Q128.3 31.4 128.9 31.9Q129.5 32.5 130.5 32.5L130.5 32.5Q131.5 32.5 132.1 31.9Q132.6 31.3 132.6 30.4ZM130.5 23.1L130.5 23.1Q129.6 23.1 129.1 23.7Q128.6 24.2 128.6 25.1L128.6 25.1Q128.6 26.0 129.1 26.5Q129.6 27.0 130.5 27.0Q131.3 27.0 131.9 26.5Q132.4 26.0 132.4 25.1Q132.4 24.2 131.8 23.7Q131.3 23.1 130.5 23.1ZM136.1 32.7L136.1 32.7Q136.1 32.4 136.3 32.1Q136.5 31.9 137.0 31.9Q137.4 31.9 137.7 32.1Q137.9 32.4 137.9 32.7L137.9 32.7Q137.9 33.1 137.7 33.3Q137.4 33.6 137.0 33.6Q136.5 33.6 136.3 33.3Q136.1 33.1 136.1 32.7ZM146.2 22.1L146.2 29.7L147.8 29.7L147.8 30.8L146.2 30.8L146.2 33.5L144.8 33.5L144.8 30.8L139.6 30.8L139.6 30.0L144.7 22.1L146.2 22.1ZM144.6 24.4L141.2 29.7L144.8 29.7L144.8 24.1L144.6 24.4ZM149.0 24.8L149.0 24.3Q149.0 23.3 149.6 22.6Q150.3 21.9 151.3 21.9L151.3 21.9Q152.4 21.9 153.0 22.6Q153.6 23.3 153.6 24.3L153.6 24.3L153.6 24.9Q153.6 25.9 153.0 26.6Q152.3 27.2 151.3 27.2L151.3 27.2Q150.3 27.2 149.6 26.6Q149.0 25.9 149.0 24.8L149.0 24.8ZM150.1 24.3L150.1 24.9Q150.1 25.5 150.4 25.9Q150.8 26.3 151.3 26.3L151.3 26.3Q151.9 26.3 152.2 25.9Q152.6 25.5 152.6 24.9L152.6 24.9L152.6 24.3Q152.6 23.7 152.2 23.3Q151.9 22.9 151.3 22.9Q150.7 22.9 150.4 23.3Q150.1 23.7 150.1 24.3L150.1 24.3ZM154.5 31.3L154.5 30.7Q154.5 29.7 155.2 29.0Q155.8 28.4 156.9 28.4Q157.9 28.4 158.5 29.0Q159.2 29.7 159.2 30.7L159.2 30.7L159.2 31.3Q159.2 32.3 158.5 33.0Q157.9 33.6 156.9 33.6Q155.9 33.6 155.2 33.0Q154.5 32.3 154.5 31.3L154.5 31.3ZM155.6 30.7L155.6 31.3Q155.6 31.9 155.9 32.3Q156.3 32.7 156.9 32.7L156.9 32.7Q157.4 32.7 157.8 32.3Q158.1 31.9 158.1 31.3L158.1 31.3L158.1 30.7Q158.1 30.1 157.8 29.7Q157.4 29.3 156.9 29.3L156.9 29.3Q156.3 29.3 155.9 29.7Q155.6 30.1 155.6 30.7L155.6 30.7ZM157.2 23.7L151.7 32.6L150.8 32.1L156.4 23.2L157.2 23.7Z "/><mask id="satori_om-id-1-1"><rect x="0" y="47" width="210" height="19" fill="#fff"/></mask><mask id="satori_om-id-1-1-0"><rect x="0" y="48" width="16" height="16" fill="#fff"/></mask><mask id="satori_om-id-1-1-0-0"><rect x="4" y="52" width="8" height="8" fill="#fff"/></mask><path x="4" y="52" width="8" height="8" fill="#DA5B0B" d="M8,52 h0 a4,4 0 0 1 4,4 v0 a4,4 0 0 1 -4,4 h0 a4,4 0 0 1 -4,-4 v0 a4,4 0 0 1 4,-4"/><mask id="satori_om-id-1-1-1"><rect x="29" y="47" width="129" height="19" fill="#fff"/></mask><path fill="#fff" d="M34.6 59.0L34.6 51.1L36.9 51.1L36.9 59.0Q36.9 60.1 36.5 60.9Q36.0 61.7 35.1 62.2Q34.2 62.6 33.1 62.6L33.1 62.6Q31.3 62.6 30.3 61.7Q29.3 60.8 29.3 59.1L29.3 59.1L31.7 59.1Q31.7 60.0 32.0 60.4Q32.4 60.8 33.1 60.8L33.1 60.8Q33.8 60.8 34.2 60.3Q34.6 59.8 34.6 59.0L34.6 59.0ZM43.9 62.5L43.9 61.6Q43.0 62.6 41.6 62.6L41.6 62.6Q40.2 62.6 39.5 61.9Q38.8 61.1 38.8 59.6L38.8 59.6L38.8 54.0L41.0 54.0L41.0 59.5Q41.0 60.8 42.2 60.8L42.2 60.8Q43.4 60.8 43.8 60.0L43.8 60.0L43.8 54.0L46.1 54.0L46.1 62.5L43.9 62.5ZM55.4 58.2L55.4 58.3Q55.4 60.3 54.5 61.5Q53.6 62.6 52.1 62.6L52.1 62.6Q50.8 62.6 50.0 61.7L50.0 61.7L50.0 65.7L47.8 65.7L47.8 54.0L49.9 54.0L49.9 54.9Q50.8 53.9 52.1 53.9L52.1 53.9Q53.6 53.9 54.5 55.0Q55.4 56.2 55.4 58.2L55.4 58.2ZM53.1 58.2L53.1 58.2Q53.1 57.0 52.7 56.4Q52.3 55.7 51.5 55.7L51.5 55.7Q50.4 55.7 50.0 56.5L50.0 56.5L50.0 60.0Q50.4 60.8 51.5 60.8L51.5 60.8Q53.1 60.8 53.1 58.2ZM58.3 54.0L59.8 59.3L61.4 54.0L63.8 54.0L60.4 63.8L60.2 64.2Q59.5 65.9 57.7 65.9L57.7 65.9Q57.2 65.9 56.7 65.7L56.7 65.7L56.7 64.0L57.1 64.0Q57.7 64.0 58.0 63.9Q58.4 63.7 58.5 63.2L58.5 63.2L58.8 62.5L55.8 54.0L58.3 54.0ZM65.2 52.0L67.4 52.0L67.4 54.0L68.9 54.0L68.9 55.7L67.4 55.7L67.4 59.9Q67.4 60.4 67.6 60.6Q67.8 60.8 68.3 60.8L68.3 60.8Q68.7 60.8 68.9 60.7L68.9 60.7L68.9 62.4Q68.3 62.6 67.6 62.6L67.6 62.6Q65.2 62.6 65.2 60.2L65.2 60.2L65.2 55.7L63.9 55.7L63.9 54.0L65.2 54.0L65.2 52.0ZM74.0 62.6L74.0 62.6Q72.1 62.6 71.0 61.5Q69.8 60.4 69.8 58.5L69.8 58.5L69.8 58.2Q69.8 57.0 70.3 56.0Q70.8 55.0 71.7 54.4Q72.6 53.9 73.8 53.9L73.8 53.9Q75.5 53.9 76.5 55.0Q77.5 56.1 77.5 58.1L77.5 58.1L77.5 59.0L72.1 59.0Q72.2 59.8 72.8 60.3Q73.3 60.8 74.2 60.8L74.2 60.8Q75.5 60.8 76.2 59.9L76.2 59.9L77.3 61.1Q76.8 61.8 75.9 62.2Q75.1 62.6 74.0 62.6ZM73.8 55.7L73.8 55.7Q73.1 55.7 72.7 56.2Q72.2 56.6 72.1 57.5L72.1 57.5L75.3 57.5L75.3 57.3Q75.3 56.5 74.9 56.1Q74.5 55.7 73.8 55.7ZM83.5 54.0L83.5 56.1Q83.1 56.1 82.7 56.1L82.7 56.1Q81.4 56.1 81.0 57.0L81.0 57.0L81.0 62.5L78.8 62.5L78.8 54.0L80.9 54.0L81.0 55.0Q81.6 53.9 82.8 53.9L82.8 53.9Q83.2 53.9 83.5 54.0L83.5 54.0Z M98.1 51.1L98.1 62.5L95.7 62.5L91.2 55.0L91.2 62.5L88.8 62.5L88.8 51.1L91.2 51.1L95.7 58.6L95.7 51.1L98.1 51.1ZM99.6 58.3L99.6 58.2Q99.6 56.9 100.1 55.9Q100.6 55.0 101.5 54.4Q102.4 53.9 103.6 53.9L103.6 53.9Q105.3 53.9 106.4 54.9Q107.5 56.0 107.6 57.8L107.6 57.8L107.6 58.3Q107.6 60.3 106.5 61.5Q105.5 62.6 103.6 62.6Q101.8 62.6 100.7 61.5Q99.6 60.3 99.6 58.3L99.6 58.3ZM101.9 58.3L101.9 58.3Q101.9 59.5 102.3 60.2Q102.8 60.8 103.6 60.8L103.6 60.8Q104.4 60.8 104.9 60.2Q105.4 59.6 105.4 58.2L105.4 58.2Q105.4 57.0 104.9 56.4Q104.4 55.7 103.6 55.7L103.6 55.7Q102.8 55.7 102.3 56.3Q101.9 57.0 101.9 58.3ZM109.5 52.0L111.7 52.0L111.7 54.0L113.2 54.0L113.2 55.7L111.7 55.7L111.7 59.9Q111.7 60.4 111.9 60.6Q112.1 60.8 112.6 60.8L112.6 60.8Q113.0 60.8 113.3 60.7L113.3 60.7L113.3 62.4Q112.6 62.6 111.9 62.6L111.9 62.6Q109.5 62.6 109.5 60.2L109.5 60.2L109.5 55.7L108.2 55.7L108.2 54.0L109.5 54.0L109.5 52.0ZM118.3 62.6L118.3 62.6Q116.5 62.6 115.3 61.5Q114.1 60.4 114.1 58.5L114.1 58.5L114.1 58.2Q114.1 57.0 114.6 56.0Q115.1 55.0 116.0 54.4Q116.9 53.9 118.1 53.9L118.1 53.9Q119.8 53.9 120.8 55.0Q121.8 56.1 121.8 58.1L121.8 58.1L121.8 59.0L116.4 59.0Q116.5 59.8 117.1 60.3Q117.6 60.8 118.5 60.8L118.5 60.8Q119.8 60.8 120.5 59.9L120.5 59.9L121.6 61.1Q121.1 61.8 120.2 62.2Q119.4 62.6 118.3 62.6ZM118.1 55.7L118.1 55.7Q117.4 55.7 117.0 56.2Q116.5 56.6 116.4 57.5L116.4 57.5L119.6 57.5L119.6 57.3Q119.6 56.5 119.2 56.1Q118.8 55.7 118.1 55.7ZM130.7 58.2L130.7 58.3Q130.7 60.4 129.8 61.5Q129.0 62.6 127.4 62.6L127.4 62.6Q126.0 62.6 125.2 61.6L125.2 61.6L125.1 62.5L123.1 62.5L123.1 50.5L125.3 50.5L125.3 54.8Q126.1 53.9 127.4 53.9L127.4 53.9Q128.9 53.9 129.8 55.0Q130.7 56.1 130.7 58.2L130.7 58.2ZM128.4 58.2L128.4 58.2Q128.4 56.9 128.0 56.3Q127.6 55.7 126.8 55.7L126.8 55.7Q125.7 55.7 125.3 56.6L125.3 56.6L125.3 59.9Q125.7 60.8 126.8 60.8L126.8 60.8Q127.9 60.8 128.3 59.7L128.3 59.7Q128.4 59.2 128.4 58.2ZM131.7 58.3L131.7 58.2Q131.7 56.9 132.2 55.9Q132.7 55.0 133.6 54.4Q134.5 53.9 135.7 53.9L135.7 53.9Q137.4 53.9 138.5 54.9Q139.6 56.0 139.7 57.8L139.7 57.8L139.7 58.3Q139.7 60.3 138.6 61.5Q137.6 62.6 135.7 62.6Q133.9 62.6 132.8 61.5Q131.7 60.3 131.7 58.3L131.7 58.3ZM134.0 58.3L134.0 58.3Q134.0 59.5 134.4 60.2Q134.9 60.8 135.7 60.8L135.7 60.8Q136.6 60.8 137.0 60.2Q137.5 59.6 137.5 58.2L137.5 58.2Q137.5 57.0 137.0 56.4Q136.6 55.7 135.7 55.7L135.7 55.7Q134.9 55.7 134.4 56.3Q134.0 57.0 134.0 58.3ZM140.8 58.3L140.8 58.2Q140.8 56.9 141.3 55.9Q141.7 55.0 142.7 54.4Q143.6 53.9 144.8 53.9L144.8 53.9Q146.5 53.9 147.6 54.9Q148.6 56.0 148.8 57.8L148.8 57.8L148.8 58.3Q148.8 60.3 147.7 61.5Q146.6 62.6 144.8 62.6Q143.0 62.6 141.9 61.5Q140.8 60.3 140.8 58.3L140.8 58.3ZM143.0 58.3L143.0 58.3Q143.0 59.5 143.5 60.2Q143.9 60.8 144.8 60.8L144.8 60.8Q145.6 60.8 146.1 60.2Q146.5 59.6 146.5 58.2L146.5 58.2Q146.5 57.0 146.1 56.4Q145.6 55.7 144.8 55.7L144.8 55.7Q143.9 55.7 143.5 56.3Q143.0 57.0 143.0 58.3ZM155.4 62.5L153.2 59.1L152.4 59.9L152.4 62.5L150.2 62.5L150.2 50.5L152.4 50.5L152.4 57.1L152.9 56.6L155.0 54.0L157.7 54.0L154.7 57.6L158.0 62.5L155.4 62.5Z "/><mask id="satori_om-id-1-1-2"><rect x="167" y="47" width="43" height="19" fill="#fff"/></mask><path fill="#7d8590" d="M172.7 51.1L172.7 62.5L171.2 62.5L171.2 52.9L168.3 53.9L168.3 52.6L172.5 51.1L172.7 51.1ZM184.1 55.8L184.1 57.6Q184.1 60.2 183.2 61.4Q182.3 62.6 180.5 62.6L180.5 62.6Q178.7 62.6 177.8 61.4Q176.9 60.2 176.9 57.8L176.9 57.8L176.9 55.9Q176.9 53.4 177.8 52.2Q178.6 51.0 180.5 51.0L180.5 51.0Q182.3 51.0 183.2 52.1Q184.0 53.3 184.1 55.8L184.1 55.8ZM182.6 58.0L182.6 55.7Q182.6 53.8 182.1 53.0Q181.6 52.1 180.5 52.1L180.5 52.1Q179.4 52.1 178.9 53.0Q178.3 53.8 178.3 55.5L178.3 55.5L178.3 57.9Q178.3 59.7 178.9 60.6Q179.4 61.5 180.5 61.5L180.5 61.5Q181.6 61.5 182.1 60.6Q182.6 59.8 182.6 58.0L182.6 58.0ZM186.1 61.7L186.1 61.7Q186.1 61.4 186.3 61.1Q186.5 60.9 187.0 60.9Q187.4 60.9 187.7 61.1Q187.9 61.4 187.9 61.7L187.9 61.7Q187.9 62.1 187.7 62.3Q187.4 62.6 187.0 62.6Q186.5 62.6 186.3 62.3Q186.1 62.1 186.1 61.7ZM196.2 51.1L196.2 58.7L197.8 58.7L197.8 59.8L196.2 59.8L196.2 62.5L194.8 62.5L194.8 59.8L189.6 59.8L189.6 59.0L194.7 51.1L196.2 51.1ZM194.6 53.4L191.2 58.7L194.8 58.7L194.8 53.1L194.6 53.4ZM199.0 53.8L199.0 53.3Q199.0 52.3 199.6 51.6Q200.3 50.9 201.3 50.9L201.3 50.9Q202.4 50.9 203.0 51.6Q203.6 52.3 203.6 53.3L203.6 53.3L203.6 53.9Q203.6 54.9 203.0 55.6Q202.3 56.2 201.3 56.2L201.3 56.2Q200.3 56.2 199.6 55.6Q199.0 54.9 199.0 53.8L199.0 53.8ZM200.1 53.3L200.1 53.9Q200.1 54.5 200.4 54.9Q200.8 55.3 201.3 55.3L201.3 55.3Q201.9 55.3 202.2 54.9Q202.6 54.5 202.6 53.9L202.6 53.9L202.6 53.3Q202.6 52.7 202.2 52.3Q201.9 51.9 201.3 51.9Q200.7 51.9 200.4 52.3Q200.1 52.7 200.1 53.3L200.1 53.3ZM204.5 60.3L204.5 59.7Q204.5 58.7 205.2 58.0Q205.8 57.4 206.9 57.4Q207.9 57.4 208.5 58.0Q209.2 58.7 209.2 59.7L209.2 59.7L209.2 60.3Q209.2 61.3 208.5 62.0Q207.9 62.6 206.9 62.6Q205.9 62.6 205.2 62.0Q204.5 61.3 204.5 60.3L204.5 60.3ZM205.6 59.7L205.6 60.3Q205.6 60.9 205.9 61.3Q206.3 61.7 206.9 61.7L206.9 61.7Q207.4 61.7 207.8 61.3Q208.1 60.9 208.1 60.3L208.1 60.3L208.1 59.7Q208.1 59.1 207.8 58.7Q207.4 58.3 206.9 58.3L206.9 58.3Q206.3 58.3 205.9 58.7Q205.6 59.1 205.6 59.7L205.6 59.7ZM207.2 52.7L201.7 61.6L200.8 61.1L206.4 52.2L207.2 52.7Z "/><mask id="satori_om-id-1-2"><rect x="220" y="47" width="103" height="19" fill="#fff"/></mask><mask id="satori_om-id-1-2-0"><rect x="220" y="48" width="16" height="16" fill="#fff"/></mask><mask id="satori_om-id-1-2-0-0"><rect x="224" y="52" width="8" height="8" fill="#fff"/></mask><path x="224" y="52" width="8" height="8" fill="#844FBA" d="M228,52 h0 a4,4 0 0 1 4,4 v0 a4,4 0 0 1 -4,4 h0 a4,4 0 0 1 -4,-4 v0 a4,4 0 0 1 4,-4"/><mask id="satori_om-id-1-2-1"><rect x="249" y="47" width="31" height="19" fill="#fff"/></mask><path fill="#fff" d="M259.3 51.1L259.3 62.5L256.9 62.5L256.9 57.6L252.4 57.6L252.4 62.5L250.0 62.5L250.0 51.1L252.4 51.1L252.4 55.7L256.9 55.7L256.9 51.1L259.3 51.1ZM267.9 58.7L270.3 58.7Q270.1 60.5 268.9 61.6Q267.7 62.6 265.7 62.6L265.7 62.6Q263.5 62.6 262.2 61.2Q261.0 59.7 261.0 57.1L261.0 57.1L261.0 56.4Q261.0 54.8 261.6 53.5Q262.1 52.3 263.2 51.6Q264.3 51.0 265.7 51.0L265.7 51.0Q267.7 51.0 268.9 52.0Q270.1 53.1 270.3 55.0L270.3 55.0L267.9 55.0Q267.8 53.9 267.3 53.4Q266.8 52.9 265.7 52.9L265.7 52.9Q264.5 52.9 263.9 53.7Q263.4 54.6 263.4 56.3L263.4 56.3L263.4 57.2Q263.4 59.0 263.9 59.9Q264.5 60.7 265.7 60.7L265.7 60.7Q266.8 60.7 267.3 60.2Q267.8 59.7 267.9 58.7L267.9 58.7ZM274.1 51.1L274.1 60.6L279.1 60.6L279.1 62.5L271.8 62.5L271.8 51.1L274.1 51.1Z "/><mask id="satori_om-id-1-2-2"><rect x="289" y="47" width="34" height="19" fill="#fff"/></mask><path fill="#7d8590" d="M295.5 57.5L295.5 57.5Q295.0 58.0 294.4 58.4Q293.8 58.7 293.0 58.7L293.0 58.7Q292.0 58.7 291.3 58.2Q290.6 57.7 290.2 56.8Q289.8 56.0 289.8 54.9L289.8 54.9Q289.8 53.7 290.2 52.8Q290.6 51.9 291.4 51.4Q292.2 51.0 293.3 51.0L293.3 51.0Q295.0 51.0 296.0 52.2Q296.9 53.5 296.9 55.7L296.9 55.7L296.9 56.1Q296.9 59.4 295.6 60.9Q294.3 62.5 291.7 62.5L291.7 62.5L291.4 62.5L291.4 61.3L291.7 61.3Q293.5 61.2 294.4 60.3Q295.4 59.4 295.5 57.5ZM293.3 57.5L293.3 57.5Q294.0 57.5 294.6 57.0Q295.2 56.6 295.5 55.9L295.5 55.9L295.5 55.4Q295.5 53.9 294.9 53.0Q294.3 52.2 293.3 52.2L293.3 52.2Q292.4 52.2 291.8 52.9Q291.2 53.6 291.2 54.8L291.2 54.8Q291.2 56.0 291.8 56.7Q292.3 57.5 293.3 57.5ZM299.1 61.7L299.1 61.7Q299.1 61.4 299.3 61.1Q299.6 60.9 300 60.9Q300.4 60.9 300.7 61.1Q300.9 61.4 300.9 61.7L300.9 61.7Q300.9 62.1 300.7 62.3Q300.4 62.6 300 62.6Q299.6 62.6 299.3 62.3Q299.1 62.1 299.1 61.7ZM310.3 55.8L310.3 57.6Q310.3 60.2 309.4 61.4Q308.5 62.6 306.7 62.6L306.7 62.6Q304.9 62.6 304 61.4Q303.1 60.2 303.1 57.8L303.1 57.8L303.1 55.9Q303.1 53.4 304.0 52.2Q304.8 51.0 306.7 51.0L306.7 51.0Q308.5 51.0 309.4 52.1Q310.3 53.3 310.3 55.8L310.3 55.8ZM308.8 58.0L308.8 55.7Q308.8 53.8 308.3 53.0Q307.8 52.1 306.7 52.1L306.7 52.1Q305.6 52.1 305.1 53.0Q304.6 53.8 304.5 55.5L304.5 55.5L304.5 57.9Q304.5 59.7 305.1 60.6Q305.6 61.5 306.7 61.5L306.7 61.5Q307.8 61.5 308.3 60.6Q308.8 59.8 308.8 58.0L308.8 58.0ZM312 53.8L312 53.3Q312 52.3 312.7 51.6Q313.3 50.9 314.3 50.9L314.3 50.9Q315.4 50.9 316.0 51.6Q316.7 52.3 316.7 53.3L316.7 53.3L316.7 53.9Q316.7 54.9 316.0 55.6Q315.4 56.2 314.3 56.2L314.3 56.2Q313.3 56.2 312.7 55.6Q312 54.9 312 53.8L312 53.8ZM313.1 53.3L313.1 53.9Q313.1 54.5 313.4 54.9Q313.8 55.3 314.3 55.3L314.3 55.3Q314.9 55.3 315.2 54.9Q315.6 54.5 315.6 53.9L315.6 53.9L315.6 53.3Q315.6 52.7 315.2 52.3Q314.9 51.9 314.3 51.9Q313.8 51.9 313.4 52.3Q313.1 52.7 313.1 53.3L313.1 53.3ZM317.5 60.3L317.5 59.7Q317.5 58.7 318.2 58.0Q318.8 57.4 319.9 57.4Q320.9 57.4 321.5 58.0Q322.2 58.7 322.2 59.7L322.2 59.7L322.2 60.3Q322.2 61.3 321.6 62.0Q320.9 62.6 319.9 62.6Q318.9 62.6 318.2 62.0Q317.5 61.3 317.5 60.3L317.5 60.3ZM318.6 59.7L318.6 60.3Q318.6 60.9 319.0 61.3Q319.3 61.7 319.9 61.7L319.9 61.7Q320.4 61.7 320.8 61.3Q321.1 60.9 321.1 60.3L321.1 60.3L321.1 59.7Q321.1 59.1 320.8 58.7Q320.4 58.3 319.9 58.3L319.9 58.3Q319.3 58.3 319.0 58.7Q318.6 59.1 318.6 59.7L318.6 59.7ZM320.2 52.7L314.7 61.6L313.9 61.1L319.4 52.2L320.2 52.7Z "/><mask id="satori_om-id-1-3"><rect x="0" y="76" width="123" height="18" fill="#fff"/></mask><mask id="satori_om-id-1-3-0"><rect x="0" y="77" width="16" height="16" fill="#fff"/></mask><mask id="satori_om-id-1-3-0-0"><rect x="4" y="81" width="8" height="8" fill="#fff"/></mask><path x="4" y="81" width="8" height="8" fill="#3572A5" d="M8,81 h0 a4,4 0 0 1 4,4 v0 a4,4 0 0 1 -4,4 h0 a4,4 0 0 1 -4,-4 v0 a4,4 0 0 1 4,-4"/><mask id="satori_om-id-1-3-1"><rect x="29" y="76" width="51" height="18" fill="#fff"/></mask><path fill="#fff" d="M34.4 87.5L32.4 87.5L32.4 91.5L30.0 91.5L30.0 80.1L34.5 80.1Q35.7 80.1 36.7 80.6Q37.7 81.0 38.2 81.9Q38.7 82.8 38.7 83.9L38.7 83.9Q38.7 85.5 37.6 86.5Q36.4 87.5 34.4 87.5L34.4 87.5ZM32.4 82.0L32.4 85.6L34.5 85.6Q35.4 85.6 35.9 85.1Q36.4 84.7 36.4 83.9L36.4 83.9Q36.4 83.1 35.9 82.5Q35.4 82.0 34.5 82.0L34.5 82.0L32.4 82.0ZM41.9 83.0L43.5 88.3L45.0 83.0L47.4 83.0L44.0 92.8L43.9 93.2Q43.1 94.9 41.4 94.9L41.4 94.9Q40.9 94.9 40.4 94.7L40.4 94.7L40.4 93.0L40.7 93.0Q41.3 93.0 41.7 92.9Q42.0 92.7 42.2 92.2L42.2 92.2L42.4 91.5L39.5 83.0L41.9 83.0ZM48.8 81.0L51.0 81.0L51.0 83.0L52.5 83.0L52.5 84.7L51.0 84.7L51.0 88.9Q51.0 89.4 51.2 89.6Q51.4 89.8 51.9 89.8L51.9 89.8Q52.3 89.8 52.6 89.7L52.6 89.7L52.6 91.4Q51.9 91.6 51.2 91.6L51.2 91.6Q48.8 91.6 48.8 89.2L48.8 89.2L48.8 84.7L47.5 84.7L47.5 83.0L48.8 83.0L48.8 81.0ZM55.9 79.5L55.9 84.0Q56.8 82.9 58.2 82.9L58.2 82.9Q61.0 82.9 61.0 86.1L61.0 86.1L61.0 91.5L58.7 91.5L58.7 86.1Q58.7 85.4 58.4 85.1Q58.1 84.7 57.4 84.7L57.4 84.7Q56.4 84.7 55.9 85.5L55.9 85.5L55.9 91.5L53.7 91.5L53.7 79.5L55.9 79.5ZM62.3 87.3L62.3 87.2Q62.3 85.9 62.8 84.9Q63.3 84.0 64.2 83.4Q65.1 82.9 66.3 82.9L66.3 82.9Q68.0 82.9 69.1 83.9Q70.2 85.0 70.3 86.8L70.3 86.8L70.4 87.3Q70.4 89.3 69.3 90.5Q68.2 91.6 66.4 91.6Q64.5 91.6 63.4 90.5Q62.3 89.3 62.3 87.3L62.3 87.3ZM64.6 87.3L64.6 87.3Q64.6 88.5 65.1 89.2Q65.5 89.8 66.4 89.8L66.4 89.8Q67.2 89.8 67.6 89.2Q68.1 88.6 68.1 87.2L68.1 87.2Q68.1 86.0 67.6 85.4Q67.2 84.7 66.3 84.7L66.3 84.7Q65.5 84.7 65.1 85.3Q64.6 86.0 64.6 87.3ZM71.7 83.0L73.8 83.0L73.9 84.0Q74.8 82.9 76.3 82.9L76.3 82.9Q77.7 82.9 78.3 83.7Q79.0 84.5 79.0 86.0L79.0 86.0L79.0 91.5L76.7 91.5L76.7 86.1Q76.7 85.4 76.4 85.0Q76.1 84.7 75.4 84.7L75.4 84.7Q74.4 84.7 74.0 85.5L74.0 85.5L74.0 91.5L71.7 91.5L71.7 83.0Z "/><mask id="satori_om-id-1-3-2"><rect x="89" y="76" width="34" height="18" fill="#fff"/></mask><path fill="#7d8590" d="M97.3 80.1L97.3 80.9L92.6 91.5L91.1 91.5L95.8 81.3L89.6 81.3L89.6 80.1L97.3 80.1ZM99.1 90.7L99.1 90.7Q99.1 90.4 99.3 90.1Q99.6 89.9 100 89.9Q100.4 89.9 100.7 90.1Q100.9 90.4 100.9 90.7L100.9 90.7Q100.9 91.1 100.7 91.3Q100.4 91.6 100 91.6Q99.6 91.6 99.3 91.3Q99.1 91.1 99.1 90.7ZM105.2 86.3L105.2 85.1L106.3 85.1Q107.4 85.1 107.9 84.6Q108.5 84.0 108.5 83.1L108.5 83.1Q108.5 81.1 106.5 81.1L106.5 81.1Q105.6 81.1 105.0 81.7Q104.5 82.2 104.5 83.1L104.5 83.1L103.0 83.1Q103.0 81.7 104.0 80.8Q105.0 80.0 106.5 80.0L106.5 80.0Q108.1 80.0 109.1 80.8Q110.0 81.7 110.0 83.2L110.0 83.2Q110.0 83.9 109.5 84.6Q109.0 85.3 108.2 85.6L108.2 85.6Q109.1 85.9 109.6 86.6Q110.1 87.3 110.1 88.3L110.1 88.3Q110.1 89.8 109.1 90.7Q108.1 91.6 106.5 91.6Q104.9 91.6 103.9 90.8Q102.9 89.9 102.9 88.5L102.9 88.5L104.4 88.5Q104.4 89.4 105.0 89.9Q105.6 90.5 106.5 90.5L106.5 90.5Q107.6 90.5 108.1 89.9Q108.7 89.4 108.7 88.3L108.7 88.3Q108.7 87.4 108.1 86.8Q107.5 86.3 106.3 86.3L106.3 86.3L105.2 86.3ZM112 82.8L112 82.3Q112 81.3 112.7 80.6Q113.3 79.9 114.3 79.9L114.3 79.9Q115.4 79.9 116.0 80.6Q116.7 81.3 116.7 82.3L116.7 82.3L116.7 82.9Q116.7 83.9 116.0 84.6Q115.4 85.2 114.3 85.2L114.3 85.2Q113.3 85.2 112.7 84.6Q112 83.9 112 82.8L112 82.8ZM113.1 82.3L113.1 82.9Q113.1 83.5 113.4 83.9Q113.8 84.3 114.3 84.3L114.3 84.3Q114.9 84.3 115.2 83.9Q115.6 83.5 115.6 82.9L115.6 82.9L115.6 82.3Q115.6 81.7 115.2 81.3Q114.9 80.9 114.3 80.9Q113.8 80.9 113.4 81.3Q113.1 81.7 113.1 82.3L113.1 82.3ZM117.5 89.3L117.5 88.7Q117.5 87.7 118.2 87.0Q118.8 86.4 119.9 86.4Q120.9 86.4 121.5 87.0Q122.2 87.7 122.2 88.7L122.2 88.7L122.2 89.3Q122.2 90.3 121.6 91.0Q120.9 91.6 119.9 91.6Q118.9 91.6 118.2 91.0Q117.5 90.3 117.5 89.3L117.5 89.3ZM118.6 88.7L118.6 89.3Q118.6 89.9 119.0 90.3Q119.3 90.7 119.9 90.7L119.9 90.7Q120.4 90.7 120.8 90.3Q121.1 89.9 121.1 89.3L121.1 89.3L121.1 88.7Q121.1 88.1 120.8 87.7Q120.4 87.3 119.9 87.3L119.9 87.3Q119.3 87.3 119.0 87.7Q118.6 88.1 118.6 88.7L118.6 88.7ZM120.2 81.7L114.7 90.6L113.9 90.1L119.4 81.2L120.2 81.7Z "/><mask id="satori_om-id-1-4"><rect x="133" y="76" width="117" height="18" fill="#fff"/></mask><mask id="satori_om-id-1-4-0"><rect x="133" y="77" width="16" height="16" fill="#fff"/></mask><mask id="satori_om-id-1-4-0-0"><rect x="137" y="81" width="8" height="8" fill="#fff"/></mask><path x="137" y="81" width="8" height="8" fill="#ff3e00" d="M141,81 h0 a4,4 0 0 1 4,4 v0 a4,4 0 0 1 -4,4 h0 a4,4 0 0 1 -4,-4 v0 a4,4 0 0 1 4,-4"/><mask id="satori_om-id-1-4-1"><rect x="162" y="76" width="45" height="18" fill="#fff"/></mask><path fill="#fff" d="M168.9 88.5L168.9 88.5Q168.9 87.8 168.4 87.5Q168.0 87.1 166.8 86.7Q165.5 86.3 164.8 86.0L164.8 86.0Q162.9 84.9 162.9 83.1L162.9 83.1Q162.9 82.2 163.4 81.5Q163.9 80.8 164.9 80.4Q165.9 80.0 167.1 80.0L167.1 80.0Q168.3 80.0 169.3 80.4Q170.2 80.8 170.7 81.6Q171.3 82.4 171.3 83.5L171.3 83.5L168.9 83.5Q168.9 82.7 168.4 82.3Q167.9 81.8 167.0 81.8L167.0 81.8Q166.2 81.8 165.7 82.2Q165.2 82.5 165.2 83.1L165.2 83.1Q165.2 83.7 165.8 84.1Q166.4 84.4 167.4 84.8L167.4 84.8Q169.4 85.4 170.4 86.3Q171.3 87.2 171.3 88.5L171.3 88.5Q171.3 90.0 170.1 90.8Q169.0 91.6 167.1 91.6L167.1 91.6Q165.8 91.6 164.8 91.2Q163.7 90.7 163.1 89.8Q162.5 89.0 162.5 87.9L162.5 87.9L164.9 87.9Q164.9 89.8 167.1 89.8L167.1 89.8Q168.0 89.8 168.4 89.4Q168.9 89.1 168.9 88.5ZM174.3 83.0L175.9 88.7L177.4 83.0L179.8 83.0L176.9 91.5L174.8 91.5L171.9 83.0L174.3 83.0ZM184.6 91.6L184.6 91.6Q182.7 91.6 181.6 90.5Q180.4 89.4 180.4 87.5L180.4 87.5L180.4 87.2Q180.4 86.0 180.9 85.0Q181.4 84.0 182.3 83.4Q183.2 82.9 184.3 82.9L184.3 82.9Q186.1 82.9 187.1 84.0Q188.1 85.1 188.1 87.1L188.1 87.1L188.1 88.0L182.7 88.0Q182.8 88.8 183.3 89.3Q183.9 89.8 184.7 89.8L184.7 89.8Q186.0 89.8 186.8 88.9L186.8 88.9L187.9 90.1Q187.4 90.8 186.5 91.2Q185.6 91.6 184.6 91.6ZM184.3 84.7L184.3 84.7Q183.6 84.7 183.2 85.2Q182.8 85.6 182.7 86.5L182.7 86.5L185.8 86.5L185.8 86.3Q185.8 85.5 185.4 85.1Q185.0 84.7 184.3 84.7ZM191.7 79.5L191.7 91.5L189.5 91.5L189.5 79.5L191.7 79.5ZM194.0 81.0L196.3 81.0L196.3 83.0L197.7 83.0L197.7 84.7L196.3 84.7L196.3 88.9Q196.3 89.4 196.5 89.6Q196.6 89.8 197.1 89.8L197.1 89.8Q197.5 89.8 197.8 89.7L197.8 89.7L197.8 91.4Q197.1 91.6 196.4 91.6L196.4 91.6Q194.1 91.6 194.0 89.2L194.0 89.2L194.0 84.7L192.8 84.7L192.8 83.0L194.0 83.0L194.0 81.0ZM202.9 91.6L202.9 91.6Q201.0 91.6 199.8 90.5Q198.7 89.4 198.7 87.5L198.7 87.5L198.7 87.2Q198.7 86.0 199.2 85.0Q199.7 84.0 200.6 83.4Q201.5 82.9 202.6 82.9L202.6 82.9Q204.4 82.9 205.4 84.0Q206.4 85.1 206.4 87.1L206.4 87.1L206.4 88.0L201.0 88.0Q201.1 88.8 201.6 89.3Q202.2 89.8 203.0 89.8L203.0 89.8Q204.3 89.8 205.1 88.9L205.1 88.9L206.2 90.1Q205.7 90.8 204.8 91.2Q203.9 91.6 202.9 91.6ZM202.6 84.7L202.6 84.7Q201.9 84.7 201.5 85.2Q201.1 85.6 201.0 86.5L201.0 86.5L204.1 86.5L204.1 86.3Q204.1 85.5 203.7 85.1Q203.3 84.7 202.6 84.7Z "/><mask id="satori_om-id-1-4-2"><rect x="216" y="76" width="34" height="18" fill="#fff"/></mask><path fill="#7d8590" d="M218.8 86.1L217.6 85.8L218.2 80.1L224.0 80.1L224.0 81.4L219.4 81.4L219.1 84.5Q219.9 84.1 221.0 84.1L221.0 84.1Q222.5 84.1 223.4 85.1Q224.4 86.1 224.4 87.9L224.4 87.9Q224.4 89.6 223.4 90.6Q222.5 91.6 220.8 91.6L220.8 91.6Q219.2 91.6 218.3 90.8Q217.3 90.0 217.2 88.5L217.2 88.5L218.6 88.5Q218.7 89.5 219.3 90.0Q219.8 90.5 220.8 90.5L220.8 90.5Q221.8 90.5 222.3 89.8Q222.9 89.1 222.9 87.9L222.9 87.9Q222.9 86.7 222.3 86.0Q221.7 85.4 220.6 85.4L220.6 85.4Q219.7 85.4 219.1 85.8L219.1 85.8L218.8 86.1ZM226.1 90.7L226.1 90.7Q226.1 90.4 226.3 90.1Q226.6 89.9 227 89.9Q227.4 89.9 227.7 90.1Q227.9 90.4 227.9 90.7L227.9 90.7Q227.9 91.1 227.7 91.3Q227.4 91.6 227 91.6Q226.6 91.6 226.3 91.3Q226.1 91.1 226.1 90.7ZM237.6 90.3L237.6 91.5L230.1 91.5L230.1 90.4L234.1 86.1Q235.0 85.1 235.3 84.5Q235.6 83.8 235.6 83.2L235.6 83.2Q235.6 82.3 235.1 81.7Q234.5 81.1 233.6 81.1L233.6 81.1Q232.6 81.1 232.0 81.8Q231.4 82.4 231.4 83.5L231.4 83.5L229.9 83.5Q229.9 81.9 230.9 80.9Q231.9 80.0 233.6 80.0L233.6 80.0Q235.2 80.0 236.1 80.8Q237.1 81.6 237.1 83.0L237.1 83.0Q237.1 84.7 234.9 87.0L234.9 87.0L231.9 90.3L237.6 90.3ZM239 82.8L239 82.3Q239 81.3 239.7 80.6Q240.3 79.9 241.3 79.9L241.3 79.9Q242.4 79.9 243.0 80.6Q243.7 81.3 243.7 82.3L243.7 82.3L243.7 82.9Q243.7 83.9 243.0 84.6Q242.4 85.2 241.3 85.2L241.3 85.2Q240.3 85.2 239.7 84.6Q239 83.9 239 82.8L239 82.8ZM240.1 82.3L240.1 82.9Q240.1 83.5 240.4 83.9Q240.8 84.3 241.3 84.3L241.3 84.3Q241.9 84.3 242.2 83.9Q242.6 83.5 242.6 82.9L242.6 82.9L242.6 82.3Q242.6 81.7 242.2 81.3Q241.9 80.9 241.3 80.9Q240.8 80.9 240.4 81.3Q240.1 81.7 240.1 82.3L240.1 82.3ZM244.5 89.3L244.5 88.7Q244.5 87.7 245.2 87.0Q245.8 86.4 246.9 86.4Q247.9 86.4 248.5 87.0Q249.2 87.7 249.2 88.7L249.2 88.7L249.2 89.3Q249.2 90.3 248.6 91.0Q247.9 91.6 246.9 91.6Q245.9 91.6 245.2 91.0Q244.5 90.3 244.5 89.3L244.5 89.3ZM245.6 88.7L245.6 89.3Q245.6 89.9 246.0 90.3Q246.3 90.7 246.9 90.7L246.9 90.7Q247.4 90.7 247.8 90.3Q248.1 89.9 248.1 89.3L248.1 89.3L248.1 88.7Q248.1 88.1 247.8 87.7Q247.4 87.3 246.9 87.3L246.9 87.3Q246.3 87.3 246.0 87.7Q245.6 88.1 245.6 88.7L245.6 88.7ZM247.2 81.7L241.7 90.6L240.9 90.1L246.4 81.2L247.2 81.7Z "/><mask id="satori_om-id-1-5"><rect x="260" y="76" width="92" height="18" fill="#fff"/></mask><mask id="satori_om-id-1-5-0"><rect x="260" y="77" width="16" height="16" fill="#fff"/></mask><mask id="satori_om-id-1-5-0-0"><rect x="264" y="81" width="8" height="8" fill="#fff"/></mask><path x="264" y="81" width="8" height="8" fill="#00ADD8" d="M268,81 h0 a4,4 0 0 1 4,4 v0 a4,4 0 0 1 -4,4 h0 a4,4 0 0 1 -4,-4 v0 a4,4 0 0 1 4,-4"/><mask id="satori_om-id-1-5-1"><rect x="289" y="76" width="20" height="18" fill="#fff"/></mask><path fill="#fff" d="M299.0 85.5L299.0 90.0Q298.4 90.8 297.2 91.2Q296.1 91.6 294.7 91.6L294.7 91.6Q293.2 91.6 292.1 91.0Q291.0 90.4 290.4 89.1Q289.8 87.9 289.7 86.2L289.7 86.2L289.7 85.5Q289.7 83.8 290.3 82.5Q290.9 81.3 292.0 80.6Q293.0 80.0 294.5 80.0L294.5 80.0Q296.5 80.0 297.7 80.9Q298.8 81.9 299.0 83.7L299.0 83.7L296.7 83.7Q296.6 82.7 296.0 82.3Q295.5 81.8 294.6 81.8L294.6 81.8Q293.4 81.8 292.8 82.7Q292.1 83.6 292.1 85.4L292.1 85.4L292.1 86.1Q292.1 87.9 292.8 88.8Q293.5 89.8 294.8 89.8L294.8 89.8Q296.1 89.8 296.7 89.2L296.7 89.2L296.7 87.2L294.5 87.2L294.5 85.5L299.0 85.5ZM300.4 87.3L300.4 87.2Q300.4 85.9 300.9 84.9Q301.4 84.0 302.3 83.4Q303.2 82.9 304.4 82.9L304.4 82.9Q306.1 82.9 307.2 83.9Q308.3 85.0 308.4 86.8L308.4 86.8L308.4 87.3Q308.4 89.3 307.3 90.5Q306.3 91.6 304.4 91.6Q302.6 91.6 301.5 90.5Q300.4 89.3 300.4 87.3L300.4 87.3ZM302.7 87.3L302.7 87.3Q302.7 88.5 303.1 89.2Q303.6 89.8 304.4 89.8L304.4 89.8Q305.2 89.8 305.7 89.2Q306.2 88.6 306.2 87.2L306.2 87.2Q306.2 86.0 305.7 85.4Q305.2 84.7 304.4 84.7L304.4 84.7Q303.6 84.7 303.1 85.3Q302.7 86.0 302.7 87.3Z "/><mask id="satori_om-id-1-5-2"><rect x="318" y="76" width="34" height="18" fill="#fff"/></mask><path fill="#7d8590" d="M325.0 80.1L325.0 87.7L326.6 87.7L326.6 88.8L325.0 88.8L325.0 91.5L323.6 91.5L323.6 88.8L318.4 88.8L318.4 88.0L323.5 80.1L325.0 80.1ZM323.4 82.4L320.1 87.7L323.6 87.7L323.6 82.1L323.4 82.4ZM328.1 90.7L328.1 90.7Q328.1 90.4 328.3 90.1Q328.6 89.9 329 89.9Q329.4 89.9 329.7 90.1Q329.9 90.4 329.9 90.7L329.9 90.7Q329.9 91.1 329.7 91.3Q329.4 91.6 329 91.6Q328.6 91.6 328.3 91.3Q328.1 91.1 328.1 90.7ZM337.7 86.5L337.7 86.5Q337.2 87.0 336.6 87.4Q336.0 87.7 335.2 87.7L335.2 87.7Q334.2 87.7 333.5 87.2Q332.8 86.7 332.4 85.8Q332.0 85.0 332.0 83.9L332.0 83.9Q332.0 82.7 332.4 81.8Q332.8 80.9 333.6 80.4Q334.4 80.0 335.5 80.0L335.5 80.0Q337.2 80.0 338.2 81.2Q339.1 82.5 339.1 84.7L339.1 84.7L339.1 85.1Q339.1 88.4 337.8 89.9Q336.5 91.5 333.9 91.5L333.9 91.5L333.6 91.5L333.6 90.3L333.9 90.3Q335.7 90.2 336.6 89.3Q337.6 88.4 337.7 86.5ZM335.5 86.5L335.5 86.5Q336.2 86.5 336.8 86.0Q337.4 85.6 337.7 84.9L337.7 84.9L337.7 84.4Q337.7 82.9 337.1 82.0Q336.5 81.2 335.5 81.2L335.5 81.2Q334.6 81.2 334.0 81.9Q333.4 82.6 333.4 83.8L333.4 83.8Q333.4 85.0 334.0 85.7Q334.5 86.5 335.5 86.5ZM341 82.8L341 82.3Q341 81.3 341.7 80.6Q342.3 79.9 343.3 79.9L343.3 79.9Q344.4 79.9 345.0 80.6Q345.7 81.3 345.7 82.3L345.7 82.3L345.7 82.9Q345.7 83.9 345.0 84.6Q344.4 85.2 343.3 85.2L343.3 85.2Q342.3 85.2 341.7 84.6Q341 83.9 341 82.8L341 82.8ZM342.1 82.3L342.1 82.9Q342.1 83.5 342.4 83.9Q342.8 84.3 343.3 84.3L343.3 84.3Q343.9 84.3 344.2 83.9Q344.6 83.5 344.6 82.9L344.6 82.9L344.6 82.3Q344.6 81.7 344.2 81.3Q343.9 80.9 343.3 80.9Q342.8 80.9 342.4 81.3Q342.1 81.7 342.1 82.3L342.1 82.3ZM346.5 89.3L346.5 88.7Q346.5 87.7 347.2 87.0Q347.8 86.4 348.9 86.4Q349.9 86.4 350.5 87.0Q351.2 87.7 351.2 88.7L351.2 88.7L351.2 89.3Q351.2 90.3 350.6 91.0Q349.9 91.6 348.9 91.6Q347.9 91.6 347.2 91.0Q346.5 90.3 346.5 89.3L346.5 89.3ZM347.6 88.7L347.6 89.3Q347.6 89.9 348.0 90.3Q348.3 90.7 348.9 90.7L348.9 90.7Q349.4 90.7 349.8 90.3Q350.1 89.9 350.1 89.3L350.1 89.3L350.1 88.7Q350.1 88.1 349.8 87.7Q349.4 87.3 348.9 87.3L348.9 87.3Q348.3 87.3 348.0 87.7Q347.6 88.1 347.6 88.7L347.6 88.7ZM349.2 81.7L343.7 90.6L342.9 90.1L348.4 81.2L349.2 81.7Z "/><mask id="satori_om-id-1-6"><rect x="0" y="104" width="116" height="19" fill="#fff"/></mask><mask id="satori_om-id-1-6-0"><rect x="0" y="105" width="16" height="16" fill="#fff"/></mask><mask id="satori_om-id-1-6-0-0"><rect x="4" y="109" width="8" height="8" fill="#fff"/></mask><path x="4" y="109" width="8" height="8" fill="#e34c26" d="M8,109 h0 a4,4 0 0 1 4,4 v0 a4,4 0 0 1 -4,4 h0 a4,4 0 0 1 -4,-4 v0 a4,4 0 0 1 4,-4"/><mask id="satori_om-id-1-6-1"><rect x="29" y="104" width="44" height="19" fill="#fff"/></mask><path fill="#fff" d="M39.3 108.1L39.3 119.5L36.9 119.5L36.9 114.6L32.4 114.6L32.4 119.5L30.0 119.5L30.0 108.1L32.4 108.1L32.4 112.7L36.9 112.7L36.9 108.1L39.3 108.1ZM49.7 108.1L49.7 110.0L46.2 110.0L46.2 119.5L43.8 119.5L43.8 110.0L40.4 110.0L40.4 108.1L49.7 108.1ZM51.0 108.1L54.1 108.1L57.0 116.4L59.9 108.1L63.0 108.1L63.0 119.5L60.6 119.5L60.6 116.4L60.8 111.0L57.8 119.5L56.2 119.5L53.1 111.0L53.3 116.4L53.3 119.5L51.0 119.5L51.0 108.1ZM67.4 108.1L67.4 117.6L72.3 117.6L72.3 119.5L65.0 119.5L65.0 108.1L67.4 108.1Z "/><mask id="satori_om-id-1-6-2"><rect x="82" y="104" width="34" height="19" fill="#fff"/></mask><path fill="#7d8590" d="M89.0 108.1L89.0 115.7L90.6 115.7L90.6 116.8L89.0 116.8L89.0 119.5L87.6 119.5L87.6 116.8L82.4 116.8L82.4 116.0L87.5 108.1L89.0 108.1ZM87.4 110.4L84.1 115.7L87.6 115.7L87.6 110.1L87.4 110.4ZM92.1 118.7L92.1 118.7Q92.1 118.4 92.3 118.1Q92.6 117.9 93 117.9Q93.4 117.9 93.7 118.1Q93.9 118.4 93.9 118.7L93.9 118.7Q93.9 119.1 93.7 119.3Q93.4 119.6 93 119.6Q92.6 119.6 92.3 119.3Q92.1 119.1 92.1 118.7ZM103.3 112.8L103.3 114.6Q103.3 117.2 102.4 118.4Q101.5 119.6 99.7 119.6L99.7 119.6Q97.9 119.6 97 118.4Q96.1 117.2 96.1 114.8L96.1 114.8L96.1 112.9Q96.1 110.4 97.0 109.2Q97.8 108.0 99.7 108.0L99.7 108.0Q101.5 108.0 102.4 109.1Q103.3 110.3 103.3 112.8L103.3 112.8ZM101.8 115.0L101.8 112.7Q101.8 110.8 101.3 110.0Q100.8 109.1 99.7 109.1L99.7 109.1Q98.6 109.1 98.1 110.0Q97.6 110.8 97.5 112.5L97.5 112.5L97.5 114.9Q97.5 116.7 98.1 117.6Q98.6 118.5 99.7 118.5L99.7 118.5Q100.8 118.5 101.3 117.6Q101.8 116.8 101.8 115.0L101.8 115.0ZM105 110.8L105 110.3Q105 109.3 105.7 108.6Q106.3 107.9 107.3 107.9L107.3 107.9Q108.4 107.9 109.0 108.6Q109.7 109.3 109.7 110.3L109.7 110.3L109.7 110.9Q109.7 111.9 109.0 112.6Q108.4 113.2 107.3 113.2L107.3 113.2Q106.3 113.2 105.7 112.6Q105 111.9 105 110.8L105 110.8ZM106.1 110.3L106.1 110.9Q106.1 111.5 106.4 111.9Q106.8 112.3 107.3 112.3L107.3 112.3Q107.9 112.3 108.2 111.9Q108.6 111.5 108.6 110.9L108.6 110.9L108.6 110.3Q108.6 109.7 108.2 109.3Q107.9 108.9 107.3 108.9Q106.8 108.9 106.4 109.3Q106.1 109.7 106.1 110.3L106.1 110.3ZM110.5 117.3L110.5 116.7Q110.5 115.7 111.2 115.0Q111.8 114.4 112.9 114.4Q113.9 114.4 114.5 115.0Q115.2 115.7 115.2 116.7L115.2 116.7L115.2 117.3Q115.2 118.3 114.6 119.0Q113.9 119.6 112.9 119.6Q111.9 119.6 111.2 119.0Q110.5 118.3 110.5 117.3L110.5 117.3ZM111.6 116.7L111.6 117.3Q111.6 117.9 112.0 118.3Q112.3 118.7 112.9 118.7L112.9 118.7Q113.4 118.7 113.8 118.3Q114.1 117.9 114.1 117.3L114.1 117.3L114.1 116.7Q114.1 116.1 113.8 115.7Q113.4 115.3 112.9 115.3L112.9 115.3Q112.3 115.3 112.0 115.7Q111.6 116.1 111.6 116.7L111.6 116.7ZM113.2 109.7L107.7 118.6L106.9 118.1L112.4 109.2L113.2 109.7Z "/><mask id="satori_om-id-1-7"><rect x="126" y="104" width="149" height="19" fill="#fff"/></mask><mask id="satori_om-id-1-7-0"><rect x="126" y="105" width="16" height="16" fill="#fff"/></mask><mask id="satori_om-id-1-7-0-0"><rect x="130" y="109" width="8" height="8" fill="#fff"/></mask><path x="130" y="109" width="8" height="8" fill="#f1e05a" d="M134,109 h0 a4,4 0 0 1 4,4 v0 a4,4 0 0 1 -4,4 h0 a4,4 0 0 1 -4,-4 v0 a4,4 0 0 1 4,-4"/><mask id="satori_om-id-1-7-1"><rect x="155" y="104" width="77" height="19" fill="#fff"/></mask><path fill="#fff" d="M160.6 116.0L160.6 108.1L162.9 108.1L162.9 116.0Q162.9 117.1 162.5 117.9Q162.0 118.7 161.1 119.2Q160.2 119.6 159.1 119.6L159.1 119.6Q157.3 119.6 156.3 118.7Q155.3 117.8 155.3 116.1L155.3 116.1L157.7 116.1Q157.7 117.0 158.0 117.4Q158.4 117.8 159.1 117.8L159.1 117.8Q159.8 117.8 160.2 117.3Q160.6 116.8 160.6 116.0L160.6 116.0ZM172.0 119.5L169.7 119.5Q169.5 119.2 169.5 118.7L169.5 118.7Q168.7 119.6 167.3 119.6L167.3 119.6Q166.1 119.6 165.3 118.9Q164.5 118.2 164.5 117.1L164.5 117.1Q164.5 115.8 165.5 115.0Q166.5 114.3 168.3 114.3L168.3 114.3L169.4 114.3L169.4 113.8Q169.4 113.2 169.1 112.9Q168.8 112.5 168.1 112.5L168.1 112.5Q167.6 112.5 167.2 112.8Q166.9 113.1 166.9 113.6L166.9 113.6L164.7 113.6Q164.7 112.8 165.1 112.2Q165.6 111.6 166.4 111.2Q167.2 110.9 168.3 110.9L168.3 110.9Q169.8 110.9 170.7 111.7Q171.6 112.4 171.6 113.9L171.6 113.9L171.6 117.5Q171.7 118.7 172.0 119.4L172.0 119.4L172.0 119.5ZM167.8 117.9L167.8 117.9Q168.3 117.9 168.8 117.7Q169.2 117.5 169.4 117.1L169.4 117.1L169.4 115.6L168.5 115.6Q166.8 115.6 166.7 116.8L166.7 116.8L166.7 116.9Q166.7 117.4 167.0 117.6Q167.3 117.9 167.8 117.9ZM174.9 111.0L176.4 116.7L178 111.0L180.4 111.0L177.5 119.5L175.4 119.5L172.5 111.0L174.9 111.0ZM188.4 119.5L186.1 119.5Q186.0 119.2 185.9 118.7L185.9 118.7Q185.1 119.6 183.8 119.6L183.8 119.6Q182.5 119.6 181.7 118.9Q180.9 118.2 180.9 117.1L180.9 117.1Q180.9 115.8 181.9 115.0Q182.9 114.3 184.8 114.3L184.8 114.3L185.8 114.3L185.8 113.8Q185.8 113.2 185.5 112.9Q185.2 112.5 184.6 112.5L184.6 112.5Q184.0 112.5 183.7 112.8Q183.3 113.1 183.3 113.6L183.3 113.6L181.1 113.6Q181.1 112.8 181.5 112.2Q182.0 111.6 182.8 111.2Q183.6 110.9 184.7 110.9L184.7 110.9Q186.2 110.9 187.2 111.7Q188.1 112.4 188.1 113.9L188.1 113.9L188.1 117.5Q188.1 118.7 188.4 119.4L188.4 119.4L188.4 119.5ZM184.3 117.9L184.3 117.9Q184.8 117.9 185.2 117.7Q185.6 117.5 185.8 117.1L185.8 117.1L185.8 115.6L185.0 115.6Q183.3 115.6 183.2 116.8L183.2 116.8L183.2 116.9Q183.2 117.4 183.5 117.6Q183.8 117.9 184.3 117.9ZM195.9 116.5L195.9 116.5Q195.9 115.8 195.4 115.5Q194.9 115.1 193.7 114.7Q192.5 114.3 191.8 114.0L191.8 114.0Q189.8 112.9 189.8 111.1L189.8 111.1Q189.8 110.2 190.4 109.5Q190.9 108.8 191.8 108.4Q192.8 108.0 194.0 108.0L194.0 108.0Q195.3 108.0 196.2 108.4Q197.2 108.8 197.7 109.6Q198.2 110.4 198.2 111.5L198.2 111.5L195.9 111.5Q195.9 110.7 195.4 110.3Q194.9 109.8 194.0 109.8L194.0 109.8Q193.1 109.8 192.7 110.2Q192.2 110.5 192.2 111.1L192.2 111.1Q192.2 111.7 192.7 112.1Q193.3 112.4 194.4 112.8L194.4 112.8Q196.4 113.4 197.3 114.3Q198.2 115.2 198.2 116.5L198.2 116.5Q198.2 118.0 197.1 118.8Q196.0 119.6 194.1 119.6L194.1 119.6Q192.8 119.6 191.7 119.2Q190.6 118.7 190.1 117.8Q189.5 117.0 189.5 115.9L189.5 115.9L191.8 115.9Q191.8 117.8 194.1 117.8L194.1 117.8Q194.9 117.8 195.4 117.4Q195.9 117.1 195.9 116.5ZM203.2 117.8L203.2 117.8Q203.8 117.8 204.2 117.5Q204.6 117.1 204.6 116.6L204.6 116.6L206.7 116.6Q206.7 117.4 206.2 118.1Q205.8 118.9 205.0 119.2Q204.2 119.6 203.2 119.6L203.2 119.6Q201.4 119.6 200.3 118.5Q199.3 117.3 199.3 115.3L199.3 115.3L199.3 115.2Q199.3 113.2 200.3 112.0Q201.4 110.9 203.2 110.9L203.2 110.9Q204.8 110.9 205.7 111.8Q206.7 112.7 206.7 114.2L206.7 114.2L204.6 114.2Q204.6 113.5 204.2 113.1Q203.8 112.7 203.1 112.7L203.1 112.7Q202.4 112.7 202.0 113.3Q201.6 113.9 201.6 115.1L201.6 115.1L201.6 115.4Q201.6 116.7 202.0 117.2Q202.4 117.8 203.2 117.8ZM212.8 111.0L212.7 113.1Q212.3 113.1 211.9 113.1L211.9 113.1Q210.6 113.1 210.3 114.0L210.3 114.0L210.3 119.5L208.0 119.5L208.0 111.0L210.1 111.0L210.2 112.0Q210.9 110.9 212.1 110.9L212.1 110.9Q212.4 110.9 212.8 111.0L212.8 111.0ZM216.2 111.0L216.2 119.5L213.9 119.5L213.9 111.0L216.2 111.0ZM213.8 108.8L213.8 108.8Q213.8 108.3 214.2 108.0Q214.5 107.7 215.1 107.7L215.1 107.7Q215.7 107.7 216 108.0Q216.3 108.3 216.3 108.8L216.3 108.8Q216.3 109.4 216.0 109.7Q215.6 110.0 215.1 110.0Q214.5 110.0 214.2 109.7Q213.8 109.4 213.8 108.8ZM225.7 115.2L225.7 115.3Q225.7 117.3 224.8 118.5Q223.9 119.6 222.4 119.6L222.4 119.6Q221.1 119.6 220.3 118.7L220.3 118.7L220.3 122.7L218.1 122.7L218.1 111.0L220.2 111.0L220.2 111.9Q221.1 110.9 222.4 110.9L222.4 110.9Q223.9 110.9 224.8 112.0Q225.7 113.2 225.7 115.2L225.7 115.2ZM223.4 115.2L223.4 115.2Q223.4 114.0 223.0 113.4Q222.6 112.7 221.8 112.7L221.8 112.7Q220.7 112.7 220.3 113.5L220.3 113.5L220.3 117.0Q220.7 117.8 221.8 117.8L221.8 117.8Q223.4 117.8 223.4 115.2ZM227.5 109.0L229.8 109.0L229.8 111.0L231.2 111.0L231.2 112.7L229.8 112.7L229.8 116.9Q229.8 117.4 230.0 117.6Q230.1 117.8 230.6 117.8L230.6 117.8Q231.0 117.8 231.3 117.7L231.3 117.7L231.3 119.4Q230.6 119.6 229.9 119.6L229.9 119.6Q227.6 119.6 227.5 117.2L227.5 117.2L227.5 112.7L226.3 112.7L226.3 111.0L227.5 111.0L227.5 109.0Z "/><mask id="satori_om-id-1-7-2"><rect x="241" y="104" width="34" height="19" fill="#fff"/></mask><path fill="#7d8590" d="M244.0 114.3L244.0 113.1L245.1 113.1Q246.2 113.1 246.7 112.6Q247.3 112.0 247.3 111.1L247.3 111.1Q247.3 109.1 245.3 109.1L245.3 109.1Q244.4 109.1 243.8 109.7Q243.3 110.2 243.3 111.1L243.3 111.1L241.8 111.1Q241.8 109.7 242.8 108.8Q243.8 108.0 245.3 108.0L245.3 108.0Q246.9 108.0 247.9 108.8Q248.8 109.7 248.8 111.2L248.8 111.2Q248.8 111.9 248.3 112.6Q247.8 113.3 247.0 113.6L247.0 113.6Q247.9 113.9 248.4 114.6Q248.9 115.3 248.9 116.3L248.9 116.3Q248.9 117.8 247.9 118.7Q246.9 119.6 245.3 119.6Q243.7 119.6 242.7 118.8Q241.7 117.9 241.7 116.5L241.7 116.5L243.2 116.5Q243.2 117.4 243.8 117.9Q244.4 118.5 245.3 118.5L245.3 118.5Q246.4 118.5 246.9 117.9Q247.5 117.4 247.5 116.3L247.5 116.3Q247.5 115.4 246.9 114.8Q246.3 114.3 245.1 114.3L245.1 114.3L244.0 114.3ZM251.1 118.7L251.1 118.7Q251.1 118.4 251.3 118.1Q251.6 117.9 252 117.9Q252.4 117.9 252.7 118.1Q252.9 118.4 252.9 118.7L252.9 118.7Q252.9 119.1 252.7 119.3Q252.4 119.6 252 119.6Q251.6 119.6 251.3 119.3Q251.1 119.1 251.1 118.7ZM262.0 111.1L262.0 111.1Q262.0 111.9 261.6 112.6Q261.1 113.3 260.4 113.6L260.4 113.6Q261.3 114.0 261.8 114.7Q262.3 115.5 262.3 116.4L262.3 116.4Q262.3 117.9 261.3 118.8Q260.3 119.6 258.7 119.6L258.7 119.6Q257.0 119.6 256.1 118.8Q255.1 117.9 255.1 116.4L255.1 116.4Q255.1 115.5 255.6 114.7Q256.1 114.0 257.0 113.6L257.0 113.6Q256.2 113.2 255.8 112.6Q255.3 111.9 255.3 111.1L255.3 111.1Q255.3 109.6 256.3 108.8Q257.2 108.0 258.7 108.0L258.7 108.0Q260.2 108.0 261.1 108.8Q262.0 109.6 262.0 111.1ZM260.9 116.4L260.9 116.4Q260.9 115.4 260.3 114.8Q259.6 114.2 258.7 114.2Q257.7 114.2 257.1 114.8Q256.5 115.4 256.5 116.4Q256.5 117.4 257.1 117.9Q257.7 118.5 258.7 118.5L258.7 118.5Q259.7 118.5 260.3 117.9Q260.9 117.3 260.9 116.4ZM258.7 109.1L258.7 109.1Q257.8 109.1 257.3 109.7Q256.8 110.2 256.8 111.1L256.8 111.1Q256.8 112.0 257.3 112.5Q257.8 113.0 258.7 113.0Q259.6 113.0 260.1 112.5Q260.6 112.0 260.6 111.1Q260.6 110.2 260.1 109.7Q259.5 109.1 258.7 109.1ZM264 110.8L264 110.3Q264 109.3 264.7 108.6Q265.3 107.9 266.3 107.9L266.3 107.9Q267.4 107.9 268.0 108.6Q268.7 109.3 268.7 110.3L268.7 110.3L268.7 110.9Q268.7 111.9 268.0 112.6Q267.4 113.2 266.3 113.2L266.3 113.2Q265.3 113.2 264.7 112.6Q264 111.9 264 110.8L264 110.8ZM265.1 110.3L265.1 110.9Q265.1 111.5 265.4 111.9Q265.8 112.3 266.3 112.3L266.3 112.3Q266.9 112.3 267.2 111.9Q267.6 111.5 267.6 110.9L267.6 110.9L267.6 110.3Q267.6 109.7 267.2 109.3Q266.9 108.9 266.3 108.9Q265.8 108.9 265.4 109.3Q265.1 109.7 265.1 110.3L265.1 110.3ZM269.5 117.3L269.5 116.7Q269.5 115.7 270.2 115.0Q270.8 114.4 271.9 114.4Q272.9 114.4 273.5 115.0Q274.2 115.7 274.2 116.7L274.2 116.7L274.2 117.3Q274.2 118.3 273.6 119.0Q272.9 119.6 271.9 119.6Q270.9 119.6 270.2 119.0Q269.5 118.3 269.5 117.3L269.5 117.3ZM270.6 116.7L270.6 117.3Q270.6 117.9 271.0 118.3Q271.3 118.7 271.9 118.7L271.9 118.7Q272.4 118.7 272.8 118.3Q273.1 117.9 273.1 117.3L273.1 117.3L273.1 116.7Q273.1 116.1 272.8 115.7Q272.4 115.3 271.9 115.3L271.9 115.3Q271.3 115.3 271.0 115.7Q270.6 116.1 270.6 116.7L270.6 116.7ZM272.2 109.7L266.7 118.6L265.9 118.1L271.4 109.2L272.2 109.7Z "/><mask id="satori_om-id-1-8"><rect x="285" y="104" width="83" height="19" fill="#fff"/></mask><mask id="satori_om-id-1-8-0"><rect x="285" y="105" width="16" height="16" fill="#fff"/></mask><mask id="satori_om-id-1-8-0-0"><rect x="289" y="109" width="8" height="8" fill="#fff"/></mask><path x="289" y="109" width="8" height="8" fill="#555555" d="M293,109 h0 a4,4 0 0 1 4,4 v0 a4,4 0 0 1 -4,4 h0 a4,4 0 0 1 -4,-4 v0 a4,4 0 0 1 4,-4"/><mask id="satori_om-id-1-8-1"><rect x="314" y="104" width="11" height="19" fill="#fff"/></mask><path fill="#fff" d="M321.6 115.7L323.9 115.7Q323.8 117.5 322.6 118.6Q321.4 119.6 319.4 119.6L319.4 119.6Q317.2 119.6 315.9 118.2Q314.7 116.7 314.7 114.1L314.7 114.1L314.7 113.4Q314.7 111.8 315.3 110.5Q315.8 109.3 316.9 108.6Q318.0 108.0 319.4 108.0L319.4 108.0Q321.4 108.0 322.6 109.0Q323.8 110.1 324.0 112.0L324.0 112.0L321.6 112.0Q321.5 110.9 321.0 110.4Q320.5 109.9 319.4 109.9L319.4 109.9Q318.2 109.9 317.6 110.7Q317.1 111.6 317.0 113.3L317.0 113.3L317.0 114.2Q317.0 116.0 317.6 116.9Q318.2 117.7 319.4 117.7L319.4 117.7Q320.5 117.7 321.0 117.2Q321.5 116.7 321.6 115.7L321.6 115.7Z "/><mask id="satori_om-id-1-8-2"><rect x="334" y="104" width="34" height="19" fill="#fff"/></mask><path fill="#7d8590" d="M337.0 114.3L337.0 113.1L338.1 113.1Q339.2 113.1 339.7 112.6Q340.3 112.0 340.3 111.1L340.3 111.1Q340.3 109.1 338.3 109.1L338.3 109.1Q337.4 109.1 336.8 109.7Q336.3 110.2 336.3 111.1L336.3 111.1L334.8 111.1Q334.8 109.7 335.8 108.8Q336.8 108.0 338.3 108.0L338.3 108.0Q339.9 108.0 340.9 108.8Q341.8 109.7 341.8 111.2L341.8 111.2Q341.8 111.9 341.3 112.6Q340.8 113.3 340.0 113.6L340.0 113.6Q340.9 113.9 341.4 114.6Q341.9 115.3 341.9 116.3L341.9 116.3Q341.9 117.8 340.9 118.7Q339.9 119.6 338.3 119.6Q336.7 119.6 335.7 118.8Q334.7 117.9 334.7 116.5L334.7 116.5L336.2 116.5Q336.2 117.4 336.8 117.9Q337.4 118.5 338.3 118.5L338.3 118.5Q339.4 118.5 339.9 117.9Q340.5 117.4 340.5 116.3L340.5 116.3Q340.5 115.4 339.9 114.8Q339.3 114.3 338.1 114.3L338.1 114.3L337.0 114.3ZM344.1 118.7L344.1 118.7Q344.1 118.4 344.3 118.1Q344.6 117.9 345 117.9Q345.4 117.9 345.7 118.1Q345.9 118.4 345.9 118.7L345.9 118.7Q345.9 119.1 345.7 119.3Q345.4 119.6 345 119.6Q344.6 119.6 344.3 119.3Q344.1 119.1 344.1 118.7ZM350.2 114.3L350.2 113.1L351.3 113.1Q352.4 113.1 352.9 112.6Q353.5 112.0 353.5 111.1L353.5 111.1Q353.5 109.1 351.5 109.1L351.5 109.1Q350.6 109.1 350.0 109.7Q349.5 110.2 349.5 111.1L349.5 111.1L348.0 111.1Q348.0 109.7 349.0 108.8Q350.0 108.0 351.5 108.0L351.5 108.0Q353.1 108.0 354.1 108.8Q355.0 109.7 355.0 111.2L355.0 111.2Q355.0 111.9 354.5 112.6Q354.0 113.3 353.2 113.6L353.2 113.6Q354.1 113.9 354.6 114.6Q355.1 115.3 355.1 116.3L355.1 116.3Q355.1 117.8 354.1 118.7Q353.1 119.6 351.5 119.6Q349.9 119.6 348.9 118.8Q347.9 117.9 347.9 116.5L347.9 116.5L349.4 116.5Q349.4 117.4 350.0 117.9Q350.6 118.5 351.5 118.5L351.5 118.5Q352.6 118.5 353.1 117.9Q353.7 117.4 353.7 116.3L353.7 116.3Q353.7 115.4 353.1 114.8Q352.5 114.3 351.3 114.3L351.3 114.3L350.2 114.3ZM357 110.8L357 110.3Q357 109.3 357.7 108.6Q358.3 107.9 359.3 107.9L359.3 107.9Q360.4 107.9 361.0 108.6Q361.7 109.3 361.7 110.3L361.7 110.3L361.7 110.9Q361.7 111.9 361.0 112.6Q360.4 113.2 359.3 113.2L359.3 113.2Q358.3 113.2 357.7 112.6Q357 111.9 357 110.8L357 110.8ZM358.1 110.3L358.1 110.9Q358.1 111.5 358.4 111.9Q358.8 112.3 359.3 112.3L359.3 112.3Q359.9 112.3 360.2 111.9Q360.6 111.5 360.6 110.9L360.6 110.9L360.6 110.3Q360.6 109.7 360.2 109.3Q359.9 108.9 359.3 108.9Q358.8 108.9 358.4 109.3Q358.1 109.7 358.1 110.3L358.1 110.3ZM362.5 117.3L362.5 116.7Q362.5 115.7 363.2 115.0Q363.8 114.4 364.9 114.4Q365.9 114.4 366.5 115.0Q367.2 115.7 367.2 116.7L367.2 116.7L367.2 117.3Q367.2 118.3 366.6 119.0Q365.9 119.6 364.9 119.6Q363.9 119.6 363.2 119.0Q362.5 118.3 362.5 117.3L362.5 117.3ZM363.6 116.7L363.6 117.3Q363.6 117.9 364.0 118.3Q364.3 118.7 364.9 118.7L364.9 118.7Q365.4 118.7 365.8 118.3Q366.1 117.9 366.1 117.3L366.1 117.3L366.1 116.7Q366.1 116.1 365.8 115.7Q365.4 115.3 364.9 115.3L364.9 115.3Q364.3 115.3 364.0 115.7Q363.6 116.1 363.6 116.7L363.6 116.7ZM365.2 109.7L359.7 118.6L358.9 118.1L364.4 109.2L365.2 109.7Z "/><mask id="satori_om-id-1-9"><rect x="0" y="133" width="112" height="19" fill="#fff"/></mask><mask id="satori_om-id-1-9-0"><rect x="0" y="134" width="16" height="16" fill="#fff"/></mask><mask id="satori_om-id-1-9-0-0"><rect x="4" y="138" width="8" height="8" fill="#fff"/></mask><path x="4" y="138" width="8" height="8" fill="#ff5a03" d="M8,138 h0 a4,4 0 0 1 4,4 v0 a4,4 0 0 1 -4,4 h0 a4,4 0 0 1 -4,-4 v0 a4,4 0 0 1 4,-4"/><mask id="satori_om-id-1-9-1"><rect x="29" y="133" width="40" height="19" fill="#fff"/></mask><path fill="#fff" d="M37.2 148.5L36.4 146.1L32.3 146.1L31.5 148.5L29.1 148.5L33.3 137.1L35.5 137.1L39.7 148.5L37.2 148.5ZM34.4 140.0L33.0 144.2L35.8 144.2L34.4 140.0ZM45.2 146.1L45.2 146.1Q45.2 145.7 44.8 145.5Q44.4 145.3 43.5 145.1L43.5 145.1Q40.5 144.4 40.5 142.5L40.5 142.5Q40.5 141.4 41.4 140.6Q42.3 139.9 43.8 139.9L43.8 139.9Q45.5 139.9 46.4 140.6Q47.4 141.4 47.4 142.6L47.4 142.6L45.1 142.6Q45.1 142.1 44.8 141.8Q44.5 141.5 43.8 141.5L43.8 141.5Q43.3 141.5 43.0 141.7Q42.6 142.0 42.6 142.4L42.6 142.4Q42.6 142.8 43.0 143.0Q43.4 143.2 44.2 143.4Q45.0 143.6 45.6 143.8L45.6 143.8Q47.4 144.4 47.4 146.1L47.4 146.1Q47.4 147.2 46.4 147.9Q45.4 148.6 43.9 148.6L43.9 148.6Q42.8 148.6 42.0 148.3Q41.1 147.9 40.7 147.2Q40.2 146.6 40.2 145.8L40.2 145.8L42.3 145.8Q42.4 146.4 42.8 146.7Q43.2 147.0 43.9 147.0L43.9 147.0Q44.5 147.0 44.9 146.8Q45.2 146.5 45.2 146.1ZM49.3 138.0L51.6 138.0L51.6 140.0L53.0 140.0L53.0 141.7L51.6 141.7L51.6 145.9Q51.6 146.4 51.7 146.6Q51.9 146.8 52.4 146.8L52.4 146.8Q52.8 146.8 53.1 146.7L53.1 146.7L53.1 148.4Q52.4 148.6 51.7 148.6L51.7 148.6Q49.4 148.6 49.3 146.2L49.3 146.2L49.3 141.7L48.1 141.7L48.1 140.0L49.3 140.0L49.3 138.0ZM59.0 140.0L59.0 142.1Q58.6 142.1 58.2 142.1L58.2 142.1Q56.9 142.1 56.5 143.0L56.5 143.0L56.5 148.5L54.3 148.5L54.3 140.0L56.4 140.0L56.5 141.0Q57.1 139.9 58.3 139.9L58.3 139.9Q58.7 139.9 59.0 140.0L59.0 140.0ZM59.5 144.3L59.5 144.2Q59.5 142.9 60.0 141.9Q60.4 141.0 61.3 140.4Q62.3 139.9 63.5 139.9L63.5 139.9Q65.2 139.9 66.3 140.9Q67.3 142.0 67.5 143.8L67.5 143.8L67.5 144.3Q67.5 146.3 66.4 147.5Q65.3 148.6 63.5 148.6Q61.6 148.6 60.6 147.5Q59.5 146.3 59.5 144.3L59.5 144.3ZM61.7 144.3L61.7 144.3Q61.7 145.5 62.2 146.2Q62.6 146.8 63.5 146.8L63.5 146.8Q64.3 146.8 64.8 146.2Q65.2 145.6 65.2 144.2L65.2 144.2Q65.2 143.0 64.8 142.4Q64.3 141.7 63.5 141.7L63.5 141.7Q62.6 141.7 62.2 142.3Q61.7 143.0 61.7 144.3Z "/><mask id="satori_om-id-1-9-2"><rect x="78" y="133" width="34" height="19" fill="#fff"/></mask><path fill="#7d8590" d="M86.4 147.3L86.4 148.5L78.9 148.5L78.9 147.4L82.9 143.1Q83.8 142.1 84.1 141.5Q84.4 140.8 84.4 140.2L84.4 140.2Q84.4 139.3 83.9 138.7Q83.3 138.1 82.4 138.1L82.4 138.1Q81.4 138.1 80.8 138.8Q80.2 139.4 80.2 140.5L80.2 140.5L78.7 140.5Q78.7 138.9 79.7 137.9Q80.8 137.0 82.4 137.0L82.4 137.0Q84.0 137.0 85.0 137.8Q85.9 138.6 85.9 140.0L85.9 140.0Q85.9 141.7 83.7 144.0L83.7 144.0L80.7 147.3L86.4 147.3ZM88.1 147.7L88.1 147.7Q88.1 147.4 88.3 147.1Q88.6 146.9 89 146.9Q89.4 146.9 89.7 147.1Q89.9 147.4 89.9 147.7L89.9 147.7Q89.9 148.1 89.7 148.3Q89.4 148.6 89 148.6Q88.6 148.6 88.3 148.3Q88.1 148.1 88.1 147.7ZM99.6 147.3L99.6 148.5L92.1 148.5L92.1 147.4L96.1 143.1Q97.0 142.1 97.3 141.5Q97.6 140.8 97.6 140.2L97.6 140.2Q97.6 139.3 97.1 138.7Q96.5 138.1 95.6 138.1L95.6 138.1Q94.6 138.1 94.0 138.8Q93.4 139.4 93.4 140.5L93.4 140.5L91.9 140.5Q91.9 138.9 92.9 137.9Q93.9 137.0 95.6 137.0L95.6 137.0Q97.2 137.0 98.1 137.8Q99.1 138.6 99.1 140.0L99.1 140.0Q99.1 141.7 96.9 144.0L96.9 144.0L93.9 147.3L99.6 147.3ZM101 139.8L101 139.3Q101 138.3 101.7 137.6Q102.3 136.9 103.3 136.9L103.3 136.9Q104.4 136.9 105.0 137.6Q105.7 138.3 105.7 139.3L105.7 139.3L105.7 139.9Q105.7 140.9 105.0 141.6Q104.4 142.2 103.3 142.2L103.3 142.2Q102.3 142.2 101.7 141.6Q101 140.9 101 139.8L101 139.8ZM102.1 139.3L102.1 139.9Q102.1 140.5 102.4 140.9Q102.8 141.3 103.3 141.3L103.3 141.3Q103.9 141.3 104.2 140.9Q104.6 140.5 104.6 139.9L104.6 139.9L104.6 139.3Q104.6 138.7 104.2 138.3Q103.9 137.9 103.3 137.9Q102.8 137.9 102.4 138.3Q102.1 138.7 102.1 139.3L102.1 139.3ZM106.5 146.3L106.5 145.7Q106.5 144.7 107.2 144.0Q107.8 143.4 108.9 143.4Q109.9 143.4 110.5 144.0Q111.2 144.7 111.2 145.7L111.2 145.7L111.2 146.3Q111.2 147.3 110.6 148.0Q109.9 148.6 108.9 148.6Q107.9 148.6 107.2 148.0Q106.5 147.3 106.5 146.3L106.5 146.3ZM107.6 145.7L107.6 146.3Q107.6 146.9 108.0 147.3Q108.3 147.7 108.9 147.7L108.9 147.7Q109.4 147.7 109.8 147.3Q110.1 146.9 110.1 146.3L110.1 146.3L110.1 145.7Q110.1 145.1 109.8 144.7Q109.4 144.3 108.9 144.3L108.9 144.3Q108.3 144.3 108.0 144.7Q107.6 145.1 107.6 145.7L107.6 145.7ZM109.2 138.7L103.7 147.6L102.9 147.1L108.4 138.2L109.2 138.7Z "/></svg>