<svg width="375" height="200" viewBox="0 0 375 200" xmlns="http://www.w3.org/2000/svg"><mask id="satori_om-id"><rect x="0" y="0" width="375" height="152" fill="#fff"/></mask><clipPath id="satori_cp-id-0"><path x="0" y="0" width="375" height="8" d="M4,0 h367 a4,4 0 0 1 4,4 v0 a4,4 0 0 1 -4,4 h-367 a4,4 0 0 1 -4,-4 v0 a4,4 0 0 1 4,-4"/></clipPath><mask id="satori_om-id-0"><rect x="0" y="0" width="375" height="8" fill="#fff"/></mask><mask id="satori_om-id-0-0"><rect x="0" y="0" width="180" height="8" fill="#fff" mask="url(#satori_om-id-0)"/></mask><rect x="0" y="0" width="180" height="8" fill="#3178c6" clip-path="url(#satori_cp-id-0)" mask="url(#satori_om-id-0)"/><mask id="satori_om-id-0-1"><rect x="180" y="0" width="45" height="8" fill="#fff" mask="url(#satori_om-id-0)"/></mask><rect x="180" y="0" width="45" height="8" fill="#DA5B0B" clip-path="url(#satori_cp-id-0)" mask="url(#satori_om-id-0)"/><mask id="satori_om-id-0-2"><rect x="225" y="0" width="39" height="8" fill="#fff" mask="url(#satori_om-id-0)"/></mask><rect x="225" y="0" width="39" height="8" fill="#3572A5" clip-path="url(#satori_cp-id-0)" mask="url(#satori_om-id-0)"/><mask id="satori_om-id-0-3"><rect x="264" y="0" width="29" height="8" fill="#fff" mask="url(#satori_om-id-0)"/></mask><rect x="264" y="0" width="29" height="8" fill="#844FBA" clip-path="url(#satori_cp-id-0)" mask="url(#satori_om-id-0)"/><mask id="satori_om-id-0-4"><rect x="293" y="0" width="23" height="8" fill="#fff" mask="url(#satori_om-id-0)"/></mask><rect x="293" y="0" width="23" height="8" fill="#ff3e00" clip-path="url(#satori_cp-id-0)" mask="url(#satori_om-id-0)"/><mask id="satori_om-id-0-5"><rect x="316" y="0" width="15" height="8" fill="#fff" mask="url(#satori_om-id-0)"/></mask><rect x="316" y="0" width="15" height="8" fill="#00ADD8" clip-path="url(#satori_cp-id-0)" mask="url(#satori_om-id-0)"/><mask id="satori_om-id-0-6"><rect x="331" y="0" width="15" height="8" fill="#fff" mask="url(#satori_om-id-0)"/></mask><rect x="331" y="0" width="15" height="8" fill="#555555" clip-path="url(#satori_cp-id-0)" mask="url(#satori_om-id-0)"/><mask id="satori_om-id-0-7"><rect x="346" y="0" width="10" height="8" fill="#fff" mask="url(#satori_om-id-0)"/></mask><rect x="346" y="0" width="10" height="8" fill="#f1e05a" clip-path="url(#satori_cp-id-0)" mask="url(#satori_om-id-0)"/><mask id="satori_om-id-0-8"><rect x="356" y="0" width="8" height="8" fill="#fff" mask="url(#satori_om-id-0)"/></mask><rect x="356" y="0" width="8" height="8" fill="#ff5a03" clip-path="url(#satori_cp-id-0)" mask="url(#satori_om-id-0)"/><mask id="satori_om-id-0-9"><rect x="364" y="0" width="4" height="8" fill="#fff" mask="url(#satori_om-id-0)"/></mask><rect x="364" y="0" width="4" height="8" fill="#563d7c" clip-path="url(#satori_cp-id-0)" mask="url(#satori_om-id-0)"/><mask id="satori_om-id-1"><rect x="0" y="18" width="375" height="134" fill="#fff"/></mask><mask id="satori_om-id-1-0"><rect x="0" y="18" width="160" height="19" fill="#fff"/></mask><mask id="satori_om-id-1-0-0"><rect x="0" y="19" width="16" height="16" fill="#fff"/></mask><mask id="satori_om-id-1-0-0-0"><rect x="4" y="23" width="8" height="8" fill="#fff"/></mask><path x="4" y="23" width="8" height="8" fill="#3178c6" d="M8,23 h0 a4,4 0 0 1 4,4 v0 a4,4 0 0 1 -4,4 h0 a4,4 0 0 1 -4,-4 v0 a4,4 0 0 1 4,-4"/><mask id="satori_om-id-1-0-1"><rect x="29" y="18" width="79" height="19" fill="#fff"/></mask><path fill="#fff" d="M38.6 22.1L38.6 24.0L35.1 24.0L35.1 33.5L32.8 33.5L32.8 24.0L29.3 24.0L29.3 22.1L38.6 22.1ZM40.7 25.0L42.3 30.3L43.8 25.0L46.3 25.0L42.9 34.8L42.7 35.2Q41.9 36.9 40.2 36.9L40.2 36.9Q39.7 36.9 39.2 36.7L39.2 36.7L39.2 35.0L39.5 35.0Q40.2 35.0 40.5 34.9Q40.8 34.7 41.0 34.2L41.0 34.2L41.2 33.5L38.3 25.0L40.7 25.0ZM54.8 29.2L54.8 29.3Q54.8 31.3 53.9 32.5Q53.0 33.6 51.5 33.6L51.5 33.6Q50.2 33.6 49.4 32.7L49.4 32.7L49.4 36.7L47.2 36.7L47.2 25.0L49.3 25.0L49.3 25.9Q50.1 24.9 51.5 24.9L51.5 24.9Q53.0 24.9 53.9 26.0Q54.8 27.2 54.8 29.2L54.8 29.2ZM52.5 29.2L52.5 29.2Q52.5 28.0 52.1 27.4Q51.7 26.7 50.9 26.7L50.9 26.7Q49.8 26.7 49.4 27.5L49.4 27.5L49.4 31.0Q49.8 31.8 50.9 31.8L50.9 31.8Q52.5 31.8 52.5 29.2ZM60.1 33.6L60.1 33.6Q58.2 33.6 57.0 32.5Q55.9 31.4 55.9 29.5L55.9 29.5L55.9 29.2Q55.9 28.0 56.4 27.0Q56.8 26.0 57.7 25.4Q58.6 24.9 59.8 24.9L59.8 24.9Q61.5 24.9 62.5 26.0Q63.5 27.1 63.5 29.1L63.5 29.1L63.5 30.0L58.1 30.0Q58.3 30.8 58.8 31.3Q59.4 31.8 60.2 31.8L60.2 31.8Q61.5 31.8 62.2 30.9L62.2 30.9L63.4 32.1Q62.8 32.8 62.0 33.2Q61.1 33.6 60.1 33.6ZM59.8 26.7L59.8 26.7Q59.1 26.7 58.7 27.2Q58.3 27.6 58.2 28.5L58.2 28.5L61.3 28.5L61.3 28.3Q61.3 27.5 60.9 27.1Q60.5 26.7 59.8 26.7ZM70.9 30.5L70.9 30.5Q70.9 29.8 70.4 29.5Q69.9 29.1 68.7 28.7Q67.5 28.3 66.8 28.0L66.8 28.0Q64.8 26.9 64.8 25.1L64.8 25.1Q64.8 24.2 65.4 23.5Q65.9 22.8 66.8 22.4Q67.8 22.0 69.0 22.0L69.0 22.0Q70.3 22.0 71.2 22.4Q72.2 22.8 72.7 23.6Q73.2 24.4 73.2 25.5L73.2 25.5L70.9 25.5Q70.9 24.7 70.4 24.3Q69.9 23.8 69.0 23.8L69.0 23.8Q68.1 23.8 67.7 24.2Q67.2 24.5 67.2 25.1L67.2 25.1Q67.2 25.7 67.7 26.1Q68.3 26.4 69.4 26.8L69.4 26.8Q71.4 27.4 72.3 28.3Q73.2 29.2 73.2 30.5L73.2 30.5Q73.2 32.0 72.1 32.8Q71.0 33.6 69.1 33.6L69.1 33.6Q67.8 33.6 66.7 33.2Q65.6 32.7 65.1 31.8Q64.5 31.0 64.5 29.9L64.5 29.9L66.8 29.9Q66.8 31.8 69.1 31.8L69.1 31.8Q69.9 31.8 70.4 31.4Q70.9 31.1 70.9 30.5ZM78.2 31.8L78.2 31.8Q78.8 31.8 79.2 31.5Q79.6 31.1 79.6 30.6L79.6 30.6L81.7 30.6Q81.7 31.4 81.2 32.1Q80.8 32.9 80.0 33.2Q79.2 33.6 78.2 33.6L78.2 33.6Q76.4 33.6 75.3 32.5Q74.3 31.3 74.3 29.3L74.3 29.3L74.3 29.2Q74.3 27.2 75.3 26.0Q76.4 24.9 78.2 24.9L78.2 24.9Q79.8 24.9 80.7 25.8Q81.7 26.7 81.7 28.2L81.7 28.2L79.6 28.2Q79.6 27.5 79.2 27.1Q78.8 26.7 78.1 26.7L78.1 26.7Q77.4 26.7 77.0 27.3Q76.6 27.9 76.6 29.1L76.6 29.1L76.6 29.4Q76.6 30.7 77.0 31.2Q77.4 31.8 78.2 31.8ZM87.8 25.0L87.7 27.1Q87.3 27.1 86.9 27.1L86.9 27.1Q85.6 27.1 85.3 28.0L85.3 28.0L85.3 33.5L83.0 33.5L83.0 25.0L85.1 25.0L85.2 26.0Q85.9 24.9 87.1 24.9L87.1 24.9Q87.4 24.9 87.8 25.0L87.8 25.0ZM91.2 25.0L91.2 33.5L88.9 33.5L88.9 25.0L91.2 25.0ZM88.8 22.8L88.8 22.8Q88.8 22.3 89.2 22.0Q89.5 21.7 90.1 21.7L90.1 21.7Q90.7 21.7 91 22.0Q91.3 22.3 91.3 22.8L91.3 22.8Q91.3 23.4 91.0 23.7Q90.6 24.0 90.1 24.0Q89.5 24.0 89.2 23.7Q88.8 23.4 88.8 22.8ZM100.7 29.2L100.7 29.3Q100.7 31.3 99.8 32.5Q98.9 33.6 97.4 33.6L97.4 33.6Q96.1 33.6 95.3 32.7L95.3 32.7L95.3 36.7L93.1 36.7L93.1 25.0L95.2 25.0L95.2 25.9Q96.1 24.9 97.4 24.9L97.4 24.9Q98.9 24.9 99.8 26.0Q100.7 27.2 100.7 29.2L100.7 29.2ZM98.4 29.2L98.4 29.2Q98.4 28.0 98.0 27.4Q97.6 26.7 96.8 26.7L96.8 26.7Q95.7 26.7 95.3 27.5L95.3 27.5L95.3 31.0Q95.7 31.8 96.8 31.8L96.8 31.8Q98.4 31.8 98.4 29.2ZM102.5 23.0L104.8 23.0L104.8 25.0L106.2 25.0L106.2 26.7L104.8 26.7L104.8 30.9Q104.8 31.4 105.0 31.6Q105.1 31.8 105.6 31.8L105.6 31.8Q106.0 31.8 106.3 31.7L106.3 31.7L106.3 33.4Q105.6 33.6 104.9 33.6L104.9 33.6Q102.6 33.6 102.5 31.2L102.5 31.2L102.5 26.7L101.3 26.7L101.3 25.0L102.5 25.0L102.5 23.0Z "/><mask id="satori_om-id-1-0-2"><rect x="117" y="18" width="43" height="19" fill="#fff"/></mask><path fill="#7d8590" d="M124.0 22.1L124.0 29.7L125.6 29.7L125.6 30.8L124.0 30.8L124.0 33.5L122.6 33.5L122.6 30.8L117.4 30.8L117.4 30.0L122.5 22.1L124.0 22.1ZM122.4 24.4L119.1 29.7L122.6 29.7L122.6 24.1L122.4 24.4ZM134.3 22.1L134.3 22.9L129.6 33.5L128.0 33.5L132.7 23.3L126.6 23.3L126.6 22.1L134.3 22.1ZM136.1 32.7L136.1 32.7Q136.1 32.4 136.3 32.1Q136.5 31.9 137.0 31.9Q137.4 31.9 137.7 32.1Q137.9 32.4 137.9 32.7L137.9 32.7Q137.9 33.1 137.7 33.3Q137.4 33.6 137.0 33.6Q136.5 33.6 136.3 33.3Q136.1 33.1 136.1 32.7ZM145.7 28.5L145.7 28.5Q145.2 29.0 144.6 29.4Q144.0 29.7 143.2 29.7L143.2 29.7Q142.2 29.7 141.5 29.2Q140.8 28.7 140.4 27.8Q140.0 27.0 140.0 25.9L140.0 25.9Q140.0 24.7 140.4 23.8Q140.8 22.9 141.6 22.4Q142.4 22.0 143.5 22.0L143.5 22.0Q145.2 22.0 146.1 23.2Q147.1 24.5 147.1 26.7L147.1 26.7L147.1 27.1Q147.1 30.4 145.8 31.9Q144.5 33.5 141.8 33.5L141.8 33.5L141.6 33.5L141.6 32.3L141.9 32.3Q143.7 32.2 144.6 31.3Q145.6 30.4 145.7 28.5ZM143.4 28.5L143.4 28.5Q144.2 28.5 144.8 28.0Q145.4 27.6 145.7 26.9L145.7 26.9L145.7 26.4Q145.7 24.9 145.1 24.0Q144.4 23.2 143.5 23.2L143.5 23.2Q142.5 23.2 142.0 23.9Q141.4 24.6 141.4 25.8L141.4 25.8Q141.4 27.0 141.9 27.7Q142.5 28.5 143.4 28.5ZM149.0 24.8L149.0 24.3Q149.0 23.3 149.6 22.6Q150.3 21.9 151.3 21.9L151.3 21.9Q152.4 21.9 153.0 22.6Q153.6 23.3 153.6 24.3L153.6 24.3L153.6 24.9Q153.6 25.9 153.0 26.6Q152.3 27.2 151.3 27.2L151.3 27.2Q150.3 27.2 149.6 26.6Q149.0 25.9 149.0 24.8L149.0 24.8ZM150.1 24.3L150.1 24.9Q150.1 25.5 150.4 25.9Q150.8 26.3 151.3 26.3L151.3 26.3Q151.9 26.3 152.2 25.9Q152.6 25.5 152.6 24.9L152.6 24.9L152.6 24.3Q152.6 23.7 152.2 23.3Q151.9 22.9 151.3 22.9Q150.7 22.9 150.4 23.3Q150.1 23.7 150.1 24.3L150.1 24.3ZM154.5 31.3L154.5 30.7Q154.5 29.7 155.2 29.0Q155.8 28.4 156.9 28.4Q157.9 28.4 158.5 29.0Q159.2 29.7 159.2 30.7L159.2 30.7L159.2 31.3Q159.2 32.3 158.5 33.0Q157.9 33.6 156.9 33.6Q155.9 33.6 155.2 33.0Q154.5 32.3 154.5 31.3L154.5 31.3ZM155.6 30.7L155.6 31.3Q155.6 31.9 155.9 32.3Q156.3 32.7 156.9 32.7L156.9 32.7Q157.4 32.7 157.8 32.3Q158.1 31.9 158.1 31.3L158.1 31.3L158.1 30.7Q158.1 30.1 157.8 29.7Q157.4 29.3 156.9 29.3L156.9 29.3Q156.3 29.3 155.9 29.7Q155.6 30.1 155.6 30.7L155.6 30.7ZM157.2 23.7L151.7 32.6L150.8 32.1L156.4 23.2L157.2 23.7Z "/><mask id="satori_om-id-1-1"><rect x="0" y="47" width="210" height="19" fill="#fff"/></mask><mask id="satori_om-id-1-1-0"><rect x="0" y="48" width="16" height="16" fill="#fff"/></mask><mask id="satori_om-id-1-1-0-0"><rect x="4" y="52" width="8" height="8" fill="#fff"/></mask><path x="4" y="52" width="8" height="8" fill="#DA5B0B" d="M8,52 h0 a4,4 0 0 1 4,4 v0 a4,4 0 0 1 -4,4 h0 a4,4 0 0 1 -4,-4 v0 a4,4 0 0 1 4,-4"/><mask id="satori_om-id-1-1-1"><rect x="29" y="47" width="129" height="19" fill="#fff"/></mask><path fill="#fff" d="M34.6 59.0L34.6 51.1L36.9 51.1L36.9 59.0Q36.9 60.1 36.5 60.9Q36.0 61.7 35.1 62.2Q34.2 62.6 33.1 62.6L33.1 62.6Q31.3 62.6 30.3 61.7Q29.3 60.8 29.3 59.1L29.3 59.1L31.7 59.1Q31.7 60.0 32.0 60.4Q32.4 60.8 33.1 60.8L33.1 60.8Q33.8 60.8 34.2 60.3Q34.6 59.8 34.6 59.0L34.6 59.0ZM43.9 62.5L43.9 61.6Q43.0 62.6 41.6 62.6L41.6 62.6Q40.2 62.6 39.5 61.9Q38.8 61.1 38.8 59.6L38.8 59.6L38.8 54.0L41.0 54.0L41.0 59.5Q41.0 60.8 42.2 60.8L42.2 60.8Q43.4 60.8 43.8 60.0L43.8 60.0L43.8 54.0L46.1 54.0L46.1 62.5L43.9 62.5ZM55.4 58.2L55.4 58.3Q55.4 60.3 54.5 61.5Q53.6 62.6 52.1 62.6L52.1 62.6Q50.8 62.6 50.0 61.7L50.0 61.7L50.0 65.7L47.8 65.7L47.8 54.0L49.9 54.0L49.9 54.9Q50.8 53.9 52.1 53.9L52.1 53.9Q53.6 53.9 54.5 55.0Q55.4 56.2 55.4 58.2L55.4 58.2ZM53.1 58.2L53.1 58.2Q53.1 57.0 52.7 56.4Q52.3 55.7 51.5 55.7L51.5 55.7Q50.4 55.7 50.0 56.5L50.0 56.5L50.0 60.0Q50.4 60.8 51.5 60.8L51.5 60.8Q53.1 60.8 53.1 58.2ZM58.3 54.0L59.8 59.3L61.4 54.0L63.8 54.0L60.4 63.8L60.2 64.2Q59.5 65.9 57.7 65.9L57.7 65.9Q57.2 65.9 56.7 65.7L56.7 65.7L56.7 64.0L57.1 64.0Q57.7 64.0 58.0 63.9Q58.4 63.7 58.5 63.2L58.5 63.2L58.8 62.5L55.8 54.0L58.3 54.0ZM65.2 52.0L67.4 52.0L67.4 54.0L68.9 54.0L68.9 55.7L67.4 55.7L67.4 59.9Q67.4 60.4 67.6 60.6Q67.8 60.8 68.3 60.8L68.3 60.8Q68.7 60.8 68.9 60.7L68.9 60.7L68.9 62.4Q68.3 62.6 67.6 62.6L67.6 62.6Q65.2 62.6 65.2 60.2L65.2 60.2L65.2 55.7L63.9 55.7L63.9 54.0L65.2 54.0L65.2 52.0ZM74.0 62.6L74.0 62.6Q72.1 62.6 71.0 61.5Q69.8 60.4 69.8 58.5L69.8 58.5L69.8 58.2Q69.8 57.0 70.3 56.0Q70.8 55.0 71.7 54.4Q72.6 53.9 73.8 53.9L73.8 53.9Q75.5 53.9 76.5 55.0Q77.5 56.1 77.5 58.1L77.5 58.1L77.5 59.0L72.1 59.0Q72.2 59.8 72.8 60.3Q73.3 60.8 74.2 60.8L74.2 60.8Q75.5 60.8 76.2 59.9L76.2 59.9L77.3 61.1Q76.8 61.8 75.9 62.2Q75.1 62.6 74.0 62.6ZM73.8 55.7L73.8 55.7Q73.1 55.7 72.7 56.2Q72.2 56.6 72.1 57.5L72.1 57.5L75.3 57.5L75.3 57.3Q75.3 56.5 74.9 56.1Q74.5 55.7 73.8 55.7ZM83.5 54.0L83.5 56.1Q83.1 56.1 82.7 56.1L82.7 56.1Q81.4 56.1 81.0 57.0L81.0 57.0L81.0 62.5L78.8 62.5L78.8 54.0L80.9 54.0L81.0 55.0Q81.6 53.9 82.8 53.9L82.8 53.9Q83.2 53.9 83.5 54.0L83.5 54.0Z M98.1 51.1L98.1 62.5L95.7 62.5L91.2 55.0L91.2 62.5L88.8 62.5L88.8 51.1L91.2 51.1L95.7 58.6L95.7 51.1L98.1 51.1ZM99.6 58.3L99.6 58.2Q99.6 56.9 100.1 55.9Q100.6 55.0 101.5 54.4Q102.4 53.9 103.6 53.9L103.6 53.9Q105.3 53.9 106.4 54.9Q107.5 56.0 107.6 57.8L107.6 57.8L107.6 58.3Q107.6 60.3 106.5 61.5Q105.5 62.6 103.6 62.6Q101.8 62.6 100.7 61.5Q99.6 60.3 99.6 58.3L99.6 58.3ZM101.9 58.3L101.9 58.3Q101.9 59.5 102.3 60.2Q102.8 60.8 103.6 60.8L103.6 60.8Q104.4 60.8 104.9 60.2Q105.4 59.6 105.4 58.2L105.4 58.2Q105.4 57.0 104.9 56.4Q104.4 55.7 103.6 55.7L103.6 55.7Q102.8 55.7 102.3 56.3Q101.9 57.0 101.9 58.3ZM109.5 52.0L111.7 52.0L111.7 54.0L113.2 54.0L113.2 55.7L111.7 55.7L111.7 59.9Q111.7 60.4 111.9 60.6Q112.1 60.8 112.6 60.8L112.6 60.8Q113.0 60.8 113.3 60.7L113.3 60.7L113.3 62.4Q112.6 62.6 111.9 62.6L111.9 62.6Q109.5 62.6 109.5 60.2L109.5 60.2L109.5 55.7L108.2 55.7L108.2 54.0L109.5 54.0L109.5 52.0ZM118.3 62.6L118.3 62.6Q116.5 62.6 115.3 61.5Q114.1 60.4 114.1 58.5L114.1 58.5L114.1 58.2Q114.1 57.0 114.6 56.0Q115.1 55.0 116.0 54.4Q116.9 53.9 118.1 53.9L118.1 53.9Q119.8 53.9 120.8 55.0Q121.8 56.1 121.8 58.1L121.8 58.1L121.8 59.0L116.4 59.0Q116.5 59.8 117.1 60.3Q117.6 60.8 118.5 60.8L118.5 60.8Q119.8 60.8 120.5 59.9L120.5 59.9L121.6 61.1Q121.1 61.8 120.2 62.2Q119.4 62.6 118.3 62.6ZM118.1 55.7L118.1 55.7Q117.4 55.7 117.0 56.2Q116.5 56.6 116.4 57.5L116.4 57.5L119.6 57.5L119.6 57.3Q119.6 56.5 119.2 56.1Q118.8 55.7 118.1 55.7ZM130.7 58.2L130.7 58.3Q130.7 60.4 129.8 61.5Q129.0 62.6 127.4 62.6L127.4 62.6Q126.0 62.6 125.2 61.6L125.2 61.6L125.1 62.5L123.1 62.5L123.1 50.5L125.3 50.5L125.3 54.8Q126.1 53.9 127.4 53.9L127.4 53.9Q128.9 53.9 129.8 55.0Q130.7 56.1 130.7 58.2L130.7 58.2ZM128.4 58.2L128.4 58.2Q128.4 56.9 128.0 56.3Q127.6 55.7 126.8 55.7L126.8 55.7Q125.7 55.7 125.3 56.6L125.3 56.6L125.3 59.9Q125.7 60.8 126.8 60.8L126.8 60.8Q127.9 60.8 128.3 59.7L128.3 59.7Q128.4 59.2 128.4 58.2ZM131.7 58.3L131.7 58.2Q131.7 56.9 132.2 55.9Q132.7 55.0 133.6 54.4Q134.5 53.9 135.7 53.9L135.7 53.9Q137.4 53.9 138.5 54.9Q139.6 56.0 139.7 57.8L139.7 57.8L139.7 58.3Q139.7 60.3 138.6 61.5Q137.6 62.6 135.7 62.6Q133.9 62.6 132.8 61.5Q131.7 60.3 131.7 58.3L131.7 58.3ZM134.0 58.3L134.0 58.3Q134.0 59.5 134.4 60.2Q134.9 60.8 135.7 60.8L135.7 60.8Q136.6 60.8 137.0 60.2Q137.5 59.6 137.5 58.2L137.5 58.2Q137.5 57.0 137.0 56.4Q136.6 55.7 135.7 55.7L135.7 55.7Q134.9 55.7 134.4 56.3Q134.0 57.0 134.0 58.3ZM140.8 58.3L140.8 58.2Q140.8 56.9 141.3 55.9Q141.7 55.0 142.7 54.4Q143.6 53.9 144.8 53.9L144.8 53.9Q146.5 53.9 147.6 54.9Q148.6 56.0 148.8 57.8L148.8 57.8L148.8 58.3Q148.8 60.3 147.7 61.5Q146.6 62.6 144.8 62.6Q143.0 62.6 141.9 61.5Q140.8 60.3 140.8 58.3L140.8 58.3ZM143.0 58.3L143.0 58.3Q143.0 59.5 143.5 60.2Q143.9 60.8 144.8 60.8L144.8 60.8Q145.6 60.8 146.1 60.2Q146.5 59.6 146.5 58.2L146.5 58.2Q146.5 57.0 146.1 56.4Q145.6 55.7 144.8 55.7L144.8 55.7Q143.9 55.7 143.5 56.3Q143.0 57.0 143.0 58.3ZM155.4 62.5L153.2 59.1L152.4 59.9L152.4 62.5L150.2 62.5L150.2 50.5L152.4 50.5L152.4 57.1L152.9 56.6L155.0 54.0L157.7 54.0L154.7 57.6L158.0 62.5L155.4 62.5Z "/><mask id="satori_om-id-1-1-2"><rect x="167" y="47" width="43" height="19" fill="#fff"/></mask><path fill="#7d8590" d="M172.7 51.1L172.7 62.5L171.2 62.5L171.2 52.9L168.3 53.9L168.3 52.6L172.5 51.1L172.7 51.1ZM184.4 61.3L184.4 62.5L176.9 62.5L176.9 61.4L180.9 57.1Q181.7 56.1 182.1 55.5Q182.4 54.8 182.4 54.2L182.4 54.2Q182.4 53.3 181.9 52.7Q181.3 52.1 180.4 52.1L180.4 52.1Q179.4 52.1 178.8 52.8Q178.2 53.4 178.2 54.5L178.2 54.5L176.7 54.5Q176.7 52.9 177.7 51.9Q178.7 51.0 180.4 51.0L180.4 51.0Q182.0 51.0 182.9 51.8Q183.9 52.6 183.9 54.0L183.9 54.0Q183.9 55.7 181.7 58.0L181.7 58.0L178.7 61.3L184.4 61.3ZM186.1 61.7L186.1 61.7Q186.1 61.4 186.3 61.1Q186.5 60.9 187.0 60.9Q187.4 60.9 187.7 61.1Q187.9 61.4 187.9 61.7L187.9 61.7Q187.9 62.1 187.7 62.3Q187.4 62.6 187.0 62.6Q186.5 62.6 186.3 62.3Q186.1 62.1 186.1 61.7ZM194.9 51.1L194.9 62.5L193.4 62.5L193.4 52.9L190.5 53.9L190.5 52.6L194.6 51.1L194.9 51.1ZM199.0 53.8L199.0 53.3Q199.0 52.3 199.6 51.6Q200.3 50.9 201.3 50.9L201.3 50.9Q202.4 50.9 203.0 51.6Q203.6 52.3 203.6 53.3L203.6 53.3L203.6 53.9Q203.6 54.9 203.0 55.6Q202.3 56.2 201.3 56.2L201.3 56.2Q200.3 56.2 199.6 55.6Q199.0 54.9 199.0 53.8L199.0 53.8ZM200.1 53.3L200.1 53.9Q200.1 54.5 200.4 54.9Q200.8 55.3 201.3 55.3L201.3 55.3Q201.9 55.3 202.2 54.9Q202.6 54.5 202.6 53.9L202.6 53.9L202.6 53.3Q202.6 52.7 202.2 52.3Q201.9 51.9 201.3 51.9Q200.7 51.9 200.4 52.3Q200.1 52.7 200.1 53.3L200.1 53.3ZM204.5 60.3L204.5 59.7Q204.5 58.7 205.2 58.0Q205.8 57.4 206.9 57.4Q207.9 57.4 208.5 58.0Q209.2 58.7 209.2 59.7L209.2 59.7L209.2 60.3Q209.2 61.3 208.5 62.0Q207.9 62.6 206.9 62.6Q205.9 62.6 205.2 62.0Q204.5 61.3 204.5 60.3L204.5 60.3ZM205.6 59.7L205.6 60.3Q205.6 60.9 205.9 61.3Q206.3 61.7 206.9 61.7L206.9 61.7Q207.4 61.7 207.8 61.3Q208.1 60.9 208.1 60.3L208.1 60.3L208.1 59.7Q208.1 59.1 207.8 58.7Q207.4 58.3 206.9 58.3L206.9 58.3Q206.3 58.3 205.9 58.7Q205.6 59.1 205.6 59.7L205.6 59.7ZM207.2 52.7L201.7 61.6L200.8 61.1L206.4 52.2L207.2 52.7Z "/><mask id="satori_om-id-1-2"><rect x="220" y="47" width="132" height="19" fill="#fff"/></mask><mask id="satori_om-id-1-2-0"><rect x="220" y="48" width="16" height="16" fill="#fff"/></mask><mask id="satori_om-id-1-2-0-0"><rect x="224" y="52" width="8" height="8" fill="#fff"/></mask><path x="224" y="52" width="8" height="8" fill="#3572A5" d="M228,52 h0 a4,4 0 0 1 4,4 v0 a4,4 0 0 1 -4,4 h0 a4,4 0 0 1 -4,-4 v0 a4,4 0 0 1 4,-4"/><mask id="satori_om-id-1-2-1"><rect x="249" y="47" width="51" height="19" fill="#fff"/></mask><path fill="#fff" d="M254.4 58.5L252.4 58.5L252.4 62.5L250.0 62.5L250.0 51.1L254.5 51.1Q255.7 51.1 256.7 51.6Q257.7 52.0 258.2 52.9Q258.7 53.8 258.7 54.9L258.7 54.9Q258.7 56.5 257.6 57.5Q256.4 58.5 254.4 58.5L254.4 58.5ZM252.4 53.0L252.4 56.6L254.5 56.6Q255.4 56.6 255.9 56.1Q256.4 55.7 256.4 54.9L256.4 54.9Q256.4 54.1 255.9 53.5Q255.4 53.0 254.5 53.0L254.5 53.0L252.4 53.0ZM261.9 54.0L263.5 59.3L265.0 54.0L267.4 54.0L264.0 63.8L263.9 64.2Q263.1 65.9 261.4 65.9L261.4 65.9Q260.9 65.9 260.4 65.7L260.4 65.7L260.4 64.0L260.7 64.0Q261.3 64.0 261.7 63.9Q262.0 63.7 262.2 63.2L262.2 63.2L262.4 62.5L259.5 54.0L261.9 54.0ZM268.8 52.0L271.0 52.0L271.0 54.0L272.5 54.0L272.5 55.7L271.0 55.7L271.0 59.9Q271.0 60.4 271.2 60.6Q271.4 60.8 271.9 60.8L271.9 60.8Q272.3 60.8 272.6 60.7L272.6 60.7L272.6 62.4Q271.9 62.6 271.2 62.6L271.2 62.6Q268.8 62.6 268.8 60.2L268.8 60.2L268.8 55.7L267.5 55.7L267.5 54.0L268.8 54.0L268.8 52.0ZM275.9 50.5L275.9 55.0Q276.8 53.9 278.2 53.9L278.2 53.9Q281.0 53.9 281.0 57.1L281.0 57.1L281.0 62.5L278.7 62.5L278.7 57.1Q278.7 56.4 278.4 56.1Q278.1 55.7 277.4 55.7L277.4 55.7Q276.4 55.7 275.9 56.5L275.9 56.5L275.9 62.5L273.7 62.5L273.7 50.5L275.9 50.5ZM282.3 58.3L282.3 58.2Q282.3 56.9 282.8 55.9Q283.3 55.0 284.2 54.4Q285.1 53.9 286.3 53.9L286.3 53.9Q288.0 53.9 289.1 54.9Q290.2 56.0 290.3 57.8L290.3 57.8L290.4 58.3Q290.4 60.3 289.3 61.5Q288.2 62.6 286.4 62.6Q284.5 62.6 283.4 61.5Q282.3 60.3 282.3 58.3L282.3 58.3ZM284.6 58.3L284.6 58.3Q284.6 59.5 285.1 60.2Q285.5 60.8 286.4 60.8L286.4 60.8Q287.2 60.8 287.6 60.2Q288.1 59.6 288.1 58.2L288.1 58.2Q288.1 57.0 287.6 56.4Q287.2 55.7 286.3 55.7L286.3 55.7Q285.5 55.7 285.1 56.3Q284.6 57.0 284.6 58.3ZM291.7 54.0L293.8 54.0L293.9 55.0Q294.8 53.9 296.3 53.9L296.3 53.9Q297.7 53.9 298.3 54.7Q299.0 55.5 299.0 57.0L299.0 57.0L299.0 62.5L296.7 62.5L296.7 57.1Q296.7 56.4 296.4 56.0Q296.1 55.7 295.4 55.7L295.4 55.7Q294.4 55.7 294.0 56.5L294.0 56.5L294.0 62.5L291.7 62.5L291.7 54.0Z "/><mask id="satori_om-id-1-2-2"><rect x="309" y="47" width="43" height="19" fill="#fff"/></mask><path fill="#7d8590" d="M314.7 51.1L314.7 62.5L313.2 62.5L313.2 52.9L310.3 53.9L310.3 52.6L314.5 51.1L314.7 51.1ZM326.1 55.8L326.1 57.6Q326.1 60.2 325.2 61.4Q324.3 62.6 322.5 62.6L322.5 62.6Q320.7 62.6 319.8 61.4Q318.9 60.2 318.9 57.8L318.9 57.8L318.9 55.9Q318.9 53.4 319.8 52.2Q320.6 51.0 322.5 51.0L322.5 51.0Q324.3 51.0 325.2 52.1Q326.0 53.3 326.1 55.8L326.1 55.8ZM324.6 58.0L324.6 55.7Q324.6 53.8 324.1 53.0Q323.6 52.1 322.5 52.1L322.5 52.1Q321.4 52.1 320.9 53.0Q320.3 53.8 320.3 55.5L320.3 55.5L320.3 57.9Q320.3 59.7 320.9 60.6Q321.4 61.5 322.5 61.5L322.5 61.5Q323.6 61.5 324.1 60.6Q324.6 59.8 324.6 58.0L324.6 58.0ZM328.1 61.7L328.1 61.7Q328.1 61.4 328.3 61.1Q328.5 60.9 329.0 60.9Q329.4 60.9 329.7 61.1Q329.9 61.4 329.9 61.7L329.9 61.7Q329.9 62.1 329.7 62.3Q329.4 62.6 329.0 62.6Q328.5 62.6 328.3 62.3Q328.1 62.1 328.1 61.7ZM334.2 57.3L334.2 56.1L335.3 56.1Q336.3 56.1 336.9 55.6Q337.5 55.0 337.5 54.1L337.5 54.1Q337.5 52.1 335.5 52.1L335.5 52.1Q334.6 52.1 334.0 52.7Q333.5 53.2 333.5 54.1L333.5 54.1L332.0 54.1Q332.0 52.7 333.0 51.8Q334.0 51.0 335.5 51.0L335.5 51.0Q337.1 51.0 338.0 51.8Q339.0 52.7 339.0 54.2L339.0 54.2Q339.0 54.9 338.5 55.6Q338.0 56.3 337.2 56.6L337.2 56.6Q338.1 56.9 338.6 57.6Q339.1 58.3 339.1 59.3L339.1 59.3Q339.1 60.8 338.1 61.7Q337.1 62.6 335.5 62.6Q333.9 62.6 332.9 61.8Q331.9 60.9 331.9 59.5L331.9 59.5L333.4 59.5Q333.4 60.4 334.0 60.9Q334.5 61.5 335.5 61.5L335.5 61.5Q336.6 61.5 337.1 60.9Q337.7 60.4 337.7 59.3L337.7 59.3Q337.7 58.4 337.1 57.8Q336.5 57.3 335.3 57.3L335.3 57.3L334.2 57.3ZM341.0 53.8L341.0 53.3Q341.0 52.3 341.6 51.6Q342.3 50.9 343.3 50.9L343.3 50.9Q344.4 50.9 345.0 51.6Q345.6 52.3 345.6 53.3L345.6 53.3L345.6 53.9Q345.6 54.9 345.0 55.6Q344.3 56.2 343.3 56.2L343.3 56.2Q342.3 56.2 341.6 55.6Q341.0 54.9 341.0 53.8L341.0 53.8ZM342.1 53.3L342.1 53.9Q342.1 54.5 342.4 54.9Q342.8 55.3 343.3 55.3L343.3 55.3Q343.9 55.3 344.2 54.9Q344.6 54.5 344.6 53.9L344.6 53.9L344.6 53.3Q344.6 52.7 344.2 52.3Q343.9 51.9 343.3 51.9Q342.7 51.9 342.4 52.3Q342.1 52.7 342.1 53.3L342.1 53.3ZM346.5 60.3L346.5 59.7Q346.5 58.7 347.2 58.0Q347.8 57.4 348.9 57.4Q349.9 57.4 350.5 58.0Q351.2 58.7 351.2 59.7L351.2 59.7L351.2 60.3Q351.2 61.3 350.5 62.0Q349.9 62.6 348.9 62.6Q347.9 62.6 347.2 62.0Q346.5 61.3 346.5 60.3L346.5 60.3ZM347.6 59.7L347.6 60.3Q347.6 60.9 347.9 61.3Q348.3 61.7 348.9 61.7L348.9 61.7Q349.4 61.7 349.8 61.3Q350.1 60.9 350.1 60.3L350.1 60.3L350.1 59.7Q350.1 59.1 349.8 58.7Q349.4 58.3 348.9 58.3L348.9 58.3Q348.3 58.3 347.9 58.7Q347.6 59.1 347.6 59.7L347.6 59.7ZM349.2 52.7L343.7 61.6L342.8 61.1L348.4 52.2L349.2 52.7Z "/><mask id="satori_om-id-1-3"><rect x="0" y="76" width="103" height="18" fill="#fff"/></mask><mask id="satori_om-id-1-3-0"><rect x="0" y="77" width="16" height="16" fill="#fff"/></mask><mask id="satori_om-id-1-3-0-0"><rect x="4" y="81" width="8" height="8" fill="#fff"/></mask><path x="4" y="81" width="8" height="8" fill="#844FBA" d="M8,81 h0 a4,4 0 0 1 4,4 v0 a4,4 0 0 1 -4,4 h0 a4,4 0 0 1 -4,-4 v0 a4,4 0 0 1 4,-4"/><mask id="satori_om-id-1-3-1"><rect x="29" y="76" width="31" height="18" fill="#fff"/></mask><path fill="#fff" d="M39.3 80.1L39.3 91.5L36.9 91.5L36.9 86.6L32.4 86.6L32.4 91.5L30.0 91.5L30.0 80.1L32.4 80.1L32.4 84.7L36.9 84.7L36.9 80.1L39.3 80.1ZM47.9 87.7L50.3 87.7Q50.1 89.5 48.9 90.6Q47.7 91.6 45.7 91.6L45.7 91.6Q43.5 91.6 42.2 90.2Q41.0 88.7 41.0 86.1L41.0 86.1L41.0 85.4Q41.0 83.8 41.6 82.5Q42.1 81.3 43.2 80.6Q44.3 80.0 45.7 80.0L45.7 80.0Q47.7 80.0 48.9 81.0Q50.1 82.1 50.3 84.0L50.3 84.0L47.9 84.0Q47.8 82.9 47.3 82.4Q46.8 81.9 45.7 81.9L45.7 81.9Q44.5 81.9 43.9 82.7Q43.4 83.6 43.4 85.3L43.4 85.3L43.4 86.2Q43.4 88.0 43.9 88.9Q44.5 89.7 45.7 89.7L45.7 89.7Q46.8 89.7 47.3 89.2Q47.8 88.7 47.9 87.7L47.9 87.7ZM54.1 80.1L54.1 89.6L59.1 89.6L59.1 91.5L51.8 91.5L51.8 80.1L54.1 80.1Z "/><mask id="satori_om-id-1-3-2"><rect x="69" y="76" width="34" height="18" fill="#fff"/></mask><path fill="#7d8590" d="M77.3 80.1L77.3 80.9L72.6 91.5L71.1 91.5L75.8 81.3L69.6 81.3L69.6 80.1L77.3 80.1ZM79.1 90.7L79.1 90.7Q79.1 90.4 79.3 90.1Q79.6 89.9 80 89.9Q80.4 89.9 80.7 90.1Q80.9 90.4 80.9 90.7L80.9 90.7Q80.9 91.1 80.7 91.3Q80.4 91.6 80 91.6Q79.6 91.6 79.3 91.3Q79.1 91.1 79.1 90.7ZM88.7 86.5L88.7 86.5Q88.2 87.0 87.6 87.4Q87.0 87.7 86.2 87.7L86.2 87.7Q85.2 87.7 84.5 87.2Q83.8 86.7 83.4 85.8Q83.0 85.0 83.0 83.9L83.0 83.9Q83.0 82.7 83.4 81.8Q83.8 80.9 84.6 80.4Q85.4 80.0 86.5 80.0L86.5 80.0Q88.2 80.0 89.2 81.2Q90.1 82.5 90.1 84.7L90.1 84.7L90.1 85.1Q90.1 88.4 88.8 89.9Q87.5 91.5 84.9 91.5L84.9 91.5L84.6 91.5L84.6 90.3L84.9 90.3Q86.7 90.2 87.6 89.3Q88.6 88.4 88.7 86.5ZM86.5 86.5L86.5 86.5Q87.2 86.5 87.8 86.0Q88.4 85.6 88.7 84.9L88.7 84.9L88.7 84.4Q88.7 82.9 88.1 82.0Q87.5 81.2 86.5 81.2L86.5 81.2Q85.6 81.2 85.0 81.9Q84.4 82.6 84.4 83.8L84.4 83.8Q84.4 85.0 85.0 85.7Q85.5 86.5 86.5 86.5ZM92 82.8L92 82.3Q92 81.3 92.7 80.6Q93.3 79.9 94.3 79.9L94.3 79.9Q95.4 79.9 96.0 80.6Q96.7 81.3 96.7 82.3L96.7 82.3L96.7 82.9Q96.7 83.9 96.0 84.6Q95.4 85.2 94.3 85.2L94.3 85.2Q93.3 85.2 92.7 84.6Q92 83.9 92 82.8L92 82.8ZM93.1 82.3L93.1 82.9Q93.1 83.5 93.4 83.9Q93.8 84.3 94.3 84.3L94.3 84.3Q94.9 84.3 95.2 83.9Q95.6 83.5 95.6 82.9L95.6 82.9L95.6 82.3Q95.6 81.7 95.2 81.3Q94.9 80.9 94.3 80.9Q93.8 80.9 93.4 81.3Q93.1 81.7 93.1 82.3L93.1 82.3ZM97.5 89.3L97.5 88.7Q97.5 87.7 98.2 87.0Q98.8 86.4 99.9 86.4Q100.9 86.4 101.5 87.0Q102.2 87.7 102.2 88.7L102.2 88.7L102.2 89.3Q102.2 90.3 101.6 91.0Q100.9 91.6 99.9 91.6Q98.9 91.6 98.2 91.0Q97.5 90.3 97.5 89.3L97.5 89.3ZM98.6 88.7L98.6 89.3Q98.6 89.9 99.0 90.3Q99.3 90.7 99.9 90.7L99.9 90.7Q100.4 90.7 100.8 90.3Q101.1 89.9 101.1 89.3L101.1 89.3L101.1 88.7Q101.1 88.1 100.8 87.7Q100.4 87.3 99.9 87.3L99.9 87.3Q99.3 87.3 99.0 87.7Q98.6 88.1 98.6 88.7L98.6 88.7ZM100.2 81.7L94.7 90.6L93.9 90.1L99.4 81.2L100.2 81.7Z "/><mask id="satori_om-id-1-4"><rect x="113" y="76" width="117" height="18" fill="#fff"/></mask><mask id="satori_om-id-1-4-0"><rect x="113" y="77" width="16" height="16" fill="#fff"/></mask><mask id="satori_om-id-1-4-0-0"><rect x="117" y="81" width="8" height="8" fill="#fff"/></mask><path x="117" y="81" width="8" height="8" fill="#ff3e00" d="M121,81 h0 a4,4 0 0 1 4,4 v0 a4,4 0 0 1 -4,4 h0 a4,4 0 0 1 -4,-4 v0 a4,4 0 0 1 4,-4"/><mask id="satori_om-id-1-4-1"><rect x="142" y="76" width="45" height="18" fill="#fff"/></mask><path fill="#fff" d="M148.9 88.5L148.9 88.5Q148.9 87.8 148.4 87.5Q148.0 87.1 146.8 86.7Q145.5 86.3 144.8 86.0L144.8 86.0Q142.9 84.9 142.9 83.1L142.9 83.1Q142.9 82.2 143.4 81.5Q143.9 80.8 144.9 80.4Q145.9 80.0 147.1 80.0L147.1 80.0Q148.3 80.0 149.3 80.4Q150.2 80.8 150.7 81.6Q151.3 82.4 151.3 83.5L151.3 83.5L148.9 83.5Q148.9 82.7 148.4 82.3Q147.9 81.8 147.0 81.8L147.0 81.8Q146.2 81.8 145.7 82.2Q145.2 82.5 145.2 83.1L145.2 83.1Q145.2 83.7 145.8 84.1Q146.4 84.4 147.4 84.8L147.4 84.8Q149.4 85.4 150.4 86.3Q151.3 87.2 151.3 88.5L151.3 88.5Q151.3 90.0 150.1 90.8Q149.0 91.6 147.1 91.6L147.1 91.6Q145.8 91.6 144.8 91.2Q143.7 90.7 143.1 89.8Q142.5 89.0 142.5 87.9L142.5 87.9L144.9 87.9Q144.9 89.8 147.1 89.8L147.1 89.8Q148.0 89.8 148.4 89.4Q148.9 89.1 148.9 88.5ZM154.3 83.0L155.9 88.7L157.4 83.0L159.8 83.0L156.9 91.5L154.8 91.5L151.9 83.0L154.3 83.0ZM164.6 91.6L164.6 91.6Q162.7 91.6 161.6 90.5Q160.4 89.4 160.4 87.5L160.4 87.5L160.4 87.2Q160.4 86.0 160.9 85.0Q161.4 84.0 162.3 83.4Q163.2 82.9 164.3 82.9L164.3 82.9Q166.1 82.9 167.1 84.0Q168.1 85.1 168.1 87.1L168.1 87.1L168.1 88.0L162.7 88.0Q162.8 88.8 163.3 89.3Q163.9 89.8 164.7 89.8L164.7 89.8Q166.0 89.8 166.8 88.9L166.8 88.9L167.9 90.1Q167.4 90.8 166.5 91.2Q165.6 91.6 164.6 91.6ZM164.3 84.7L164.3 84.7Q163.6 84.7 163.2 85.2Q162.8 85.6 162.7 86.5L162.7 86.5L165.8 86.5L165.8 86.3Q165.8 85.5 165.4 85.1Q165.0 84.7 164.3 84.7ZM171.7 79.5L171.7 91.5L169.5 91.5L169.5 79.5L171.7 79.5ZM174.0 81.0L176.3 81.0L176.3 83.0L177.7 83.0L177.7 84.7L176.3 84.7L176.3 88.9Q176.3 89.4 176.5 89.6Q176.6 89.8 177.1 89.8L177.1 89.8Q177.5 89.8 177.8 89.7L177.8 89.7L177.8 91.4Q177.1 91.6 176.4 91.6L176.4 91.6Q174.1 91.6 174.0 89.2L174.0 89.2L174.0 84.7L172.8 84.7L172.8 83.0L174.0 83.0L174.0 81.0ZM182.9 91.6L182.9 91.6Q181.0 91.6 179.8 90.5Q178.7 89.4 178.7 87.5L178.7 87.5L178.7 87.2Q178.7 86.0 179.2 85.0Q179.7 84.0 180.6 83.4Q181.5 82.9 182.6 82.9L182.6 82.9Q184.4 82.9 185.4 84.0Q186.4 85.1 186.4 87.1L186.4 87.1L186.4 88.0L181.0 88.0Q181.1 88.8 181.6 89.3Q182.2 89.8 183.0 89.8L183.0 89.8Q184.3 89.8 185.1 88.9L185.1 88.9L186.2 90.1Q185.7 90.8 184.8 91.2Q183.9 91.6 182.9 91.6ZM182.6 84.7L182.6 84.7Q181.9 84.7 181.5 85.2Q181.1 85.6 181.0 86.5L181.0 86.5L184.1 86.5L184.1 86.3Q184.1 85.5 183.7 85.1Q183.3 84.7 182.6 84.7Z "/><mask id="satori_om-id-1-4-2"><rect x="196" y="76" width="34" height="18" fill="#fff"/></mask><path fill="#7d8590" d="M202.4 80.1L202.6 80.1L202.6 81.3L202.4 81.3Q200.7 81.4 199.7 82.3Q198.7 83.3 198.5 85.1L198.5 85.1Q199.4 84.0 201.0 84.0L201.0 84.0Q202.4 84.0 203.3 85.1Q204.2 86.1 204.2 87.8L204.2 87.8Q204.2 89.5 203.3 90.6Q202.3 91.6 200.7 91.6L200.7 91.6Q199.1 91.6 198.0 90.4Q197.0 89.1 197.0 87.2L197.0 87.2L197.0 86.6Q197.0 83.5 198.4 81.8Q199.7 80.1 202.4 80.1L202.4 80.1ZM200.7 85.2L200.7 85.2Q200.0 85.2 199.4 85.7Q198.7 86.1 198.5 86.8L198.5 86.8L198.5 87.3Q198.5 88.7 199.1 89.6Q199.8 90.4 200.7 90.4L200.7 90.4Q201.7 90.4 202.2 89.7Q202.8 89.0 202.8 87.8L202.8 87.8Q202.8 86.7 202.2 85.9Q201.7 85.2 200.7 85.2ZM206.1 90.7L206.1 90.7Q206.1 90.4 206.3 90.1Q206.6 89.9 207 89.9Q207.4 89.9 207.7 90.1Q207.9 90.4 207.9 90.7L207.9 90.7Q207.9 91.1 207.7 91.3Q207.4 91.6 207 91.6Q206.6 91.6 206.3 91.3Q206.1 91.1 206.1 90.7ZM214.9 80.1L214.9 91.5L213.4 91.5L213.4 81.9L210.5 82.9L210.5 81.6L214.7 80.1L214.9 80.1ZM219 82.8L219 82.3Q219 81.3 219.7 80.6Q220.3 79.9 221.3 79.9L221.3 79.9Q222.4 79.9 223.0 80.6Q223.7 81.3 223.7 82.3L223.7 82.3L223.7 82.9Q223.7 83.9 223.0 84.6Q222.4 85.2 221.3 85.2L221.3 85.2Q220.3 85.2 219.7 84.6Q219 83.9 219 82.8L219 82.8ZM220.1 82.3L220.1 82.9Q220.1 83.5 220.4 83.9Q220.8 84.3 221.3 84.3L221.3 84.3Q221.9 84.3 222.2 83.9Q222.6 83.5 222.6 82.9L222.6 82.9L222.6 82.3Q222.6 81.7 222.2 81.3Q221.9 80.9 221.3 80.9Q220.8 80.9 220.4 81.3Q220.1 81.7 220.1 82.3L220.1 82.3ZM224.5 89.3L224.5 88.7Q224.5 87.7 225.2 87.0Q225.8 86.4 226.9 86.4Q227.9 86.4 228.5 87.0Q229.2 87.7 229.2 88.7L229.2 88.7L229.2 89.3Q229.2 90.3 228.6 91.0Q227.9 91.6 226.9 91.6Q225.9 91.6 225.2 91.0Q224.5 90.3 224.5 89.3L224.5 89.3ZM225.6 88.7L225.6 89.3Q225.6 89.9 226.0 90.3Q226.3 90.7 226.9 90.7L226.9 90.7Q227.4 90.7 227.8 90.3Q228.1 89.9 228.1 89.3L228.1 89.3L228.1 88.7Q228.1 88.1 227.8 87.7Q227.4 87.3 226.9 87.3L226.9 87.3Q226.3 87.3 226.0 87.7Q225.6 88.1 225.6 88.7L225.6 88.7ZM227.2 81.7L221.7 90.6L220.9 90.1L226.4 81.2L227.2 81.7Z "/><mask id="satori_om-id-1-5"><rect x="240" y="76" width="92" height="18" fill="#fff"/></mask><mask id="satori_om-id-1-5-0"><rect x="240" y="77" width="16" height="16" fill="#fff"/></mask><mask id="satori_om-id-1-5-0-0"><rect x="244" y="81" width="8" height="8" fill="#fff"/></mask><path x="244" y="81" width="8" height="8" fill="#00ADD8" d="M248,81 h0 a4,4 0 0 1 4,4 v0 a4,4 0 0 1 -4,4 h0 a4,4 0 0 1 -4,-4 v0 a4,4 0 0 1 4,-4"/><mask id="satori_om-id-1-5-1"><rect x="269" y="76" width="20" height="18" fill="#fff"/></mask><path fill="#fff" d="M279.0 85.5L279.0 90.0Q278.4 90.8 277.2 91.2Q276.1 91.6 274.7 91.6L274.7 91.6Q273.2 91.6 272.1 91.0Q271.0 90.4 270.4 89.1Q269.8 87.9 269.7 86.2L269.7 86.2L269.7 85.5Q269.7 83.8 270.3 82.5Q270.9 81.3 272.0 80.6Q273.0 80.0 274.5 80.0L274.5 80.0Q276.5 80.0 277.7 80.9Q278.8 81.9 279.0 83.7L279.0 83.7L276.7 83.7Q276.6 82.7 276.0 82.3Q275.5 81.8 274.6 81.8L274.6 81.8Q273.4 81.8 272.8 82.7Q272.1 83.6 272.1 85.4L272.1 85.4L272.1 86.1Q272.1 87.9 272.8 88.8Q273.5 89.8 274.8 89.8L274.8 89.8Q276.1 89.8 276.7 89.2L276.7 89.2L276.7 87.2L274.5 87.2L274.5 85.5L279.0 85.5ZM280.4 87.3L280.4 87.2Q280.4 85.9 280.9 84.9Q281.4 84.0 282.3 83.4Q283.2 82.9 284.4 82.9L284.4 82.9Q286.1 82.9 287.2 83.9Q288.3 85.0 288.4 86.8L288.4 86.8L288.4 87.3Q288.4 89.3 287.3 90.5Q286.3 91.6 284.4 91.6Q282.6 91.6 281.5 90.5Q280.4 89.3 280.4 87.3L280.4 87.3ZM282.7 87.3L282.7 87.3Q282.7 88.5 283.1 89.2Q283.6 89.8 284.4 89.8L284.4 89.8Q285.2 89.8 285.7 89.2Q286.2 88.6 286.2 87.2L286.2 87.2Q286.2 86.0 285.7 85.4Q285.2 84.7 284.4 84.7L284.4 84.7Q283.6 84.7 283.1 85.3Q282.7 86.0 282.7 87.3Z "/><mask id="satori_om-id-1-5-2"><rect x="298" y="76" width="34" height="18" fill="#fff"/></mask><path fill="#7d8590" d="M305.0 80.1L305.0 87.7L306.6 87.7L306.6 88.8L305.0 88.8L305.0 91.5L303.6 91.5L303.6 88.8L298.4 88.8L298.4 88.0L303.5 80.1L305.0 80.1ZM303.4 82.4L300.1 87.7L303.6 87.7L303.6 82.1L303.4 82.4ZM308.1 90.7L308.1 90.7Q308.1 90.4 308.3 90.1Q308.6 89.9 309 89.9Q309.4 89.9 309.7 90.1Q309.9 90.4 309.9 90.7L309.9 90.7Q309.9 91.1 309.7 91.3Q309.4 91.6 309 91.6Q308.6 91.6 308.3 91.3Q308.1 91.1 308.1 90.7ZM319.3 84.8L319.3 86.6Q319.3 89.2 318.4 90.4Q317.5 91.6 315.7 91.6L315.7 91.6Q313.9 91.6 313 90.4Q312.1 89.2 312.1 86.8L312.1 86.8L312.1 84.9Q312.1 82.4 313.0 81.2Q313.8 80.0 315.7 80.0L315.7 80.0Q317.5 80.0 318.4 81.1Q319.3 82.3 319.3 84.8L319.3 84.8ZM317.8 87.0L317.8 84.7Q317.8 82.8 317.3 82.0Q316.8 81.1 315.7 81.1L315.7 81.1Q314.6 81.1 314.1 82.0Q313.6 82.8 313.5 84.5L313.5 84.5L313.5 86.9Q313.5 88.7 314.1 89.6Q314.6 90.5 315.7 90.5L315.7 90.5Q316.8 90.5 317.3 89.6Q317.8 88.8 317.8 87.0L317.8 87.0ZM321 82.8L321 82.3Q321 81.3 321.7 80.6Q322.3 79.9 323.3 79.9L323.3 79.9Q324.4 79.9 325.0 80.6Q325.7 81.3 325.7 82.3L325.7 82.3L325.7 82.9Q325.7 83.9 325.0 84.6Q324.4 85.2 323.3 85.2L323.3 85.2Q322.3 85.2 321.7 84.6Q321 83.9 321 82.8L321 82.8ZM322.1 82.3L322.1 82.9Q322.1 83.5 322.4 83.9Q322.8 84.3 323.3 84.3L323.3 84.3Q323.9 84.3 324.2 83.9Q324.6 83.5 324.6 82.9L324.6 82.9L324.6 82.3Q324.6 81.7 324.2 81.3Q323.9 80.9 323.3 80.9Q322.8 80.9 322.4 81.3Q322.1 81.7 322.1 82.3L322.1 82.3ZM326.5 89.3L326.5 88.7Q326.5 87.7 327.2 87.0Q327.8 86.4 328.9 86.4Q329.9 86.4 330.5 87.0Q331.2 87.7 331.2 88.7L331.2 88.7L331.2 89.3Q331.2 90.3 330.6 91.0Q329.9 91.6 328.9 91.6Q327.9 91.6 327.2 91.0Q326.5 90.3 326.5 89.3L326.5 89.3ZM327.6 88.7L327.6 89.3Q327.6 89.9 328.0 90.3Q328.3 90.7 328.9 90.7L328.9 90.7Q329.4 90.7 329.8 90.3Q330.1 89.9 330.1 89.3L330.1 89.3L330.1 88.7Q330.1 88.1 329.8 87.7Q329.4 87.3 328.9 87.3L328.9 87.3Q328.3 87.3 328.0 87.7Q327.6 88.1 327.6 88.7L327.6 88.7ZM329.2 81.7L323.7 90.6L322.9 90.1L328.4 81.2L329.2 81.7Z "/><mask id="satori_om-id-1-6"><rect x="0" y="104" width="83" height="19" fill="#fff"/></mask><mask id="satori_om-id-1-6-0"><rect x="0" y="105" width="16" height="16" fill="#fff"/></mask><mask id="satori_om-id-1-6-0-0"><rect x="4" y="109" width="8" height="8" fill="#fff"/></mask><path x="4" y="109" width="8" height="8" fill="#555555" d="M8,109 h0 a4,4 0 0 1 4,4 v0 a4,4 0 0 1 -4,4 h0 a4,4 0 0 1 -4,-4 v0 a4,4 0 0 1 4,-4"/><mask id="satori_om-id-1-6-1"><rect x="29" y="104" width="11" height="19" fill="#fff"/></mask><path fill="#fff" d="M36.6 115.7L38.9 115.7Q38.8 117.5 37.6 118.6Q36.4 119.6 34.4 119.6L34.4 119.6Q32.2 119.6 30.9 118.2Q29.7 116.7 29.7 114.1L29.7 114.1L29.7 113.4Q29.7 111.8 30.3 110.5Q30.8 109.3 31.9 108.6Q33.0 108.0 34.4 108.0L34.4 108.0Q36.4 108.0 37.6 109.0Q38.8 110.1 39.0 112.0L39.0 112.0L36.6 112.0Q36.5 110.9 36.0 110.4Q35.5 109.9 34.4 109.9L34.4 109.9Q33.2 109.9 32.6 110.7Q32.1 111.6 32.0 113.3L32.0 113.3L32.0 114.2Q32.0 116.0 32.6 116.9Q33.2 117.7 34.4 117.7L34.4 117.7Q35.5 117.7 36.0 117.2Q36.5 116.7 36.6 115.7L36.6 115.7Z "/><mask id="satori_om-id-1-6-2"><rect x="49" y="104" width="34" height="19" fill="#fff"/></mask><path fill="#7d8590" d="M52.0 114.3L52.0 113.1L53.1 113.1Q54.2 113.1 54.7 112.6Q55.3 112.0 55.3 111.1L55.3 111.1Q55.3 109.1 53.3 109.1L53.3 109.1Q52.4 109.1 51.8 109.7Q51.3 110.2 51.3 111.1L51.3 111.1L49.8 111.1Q49.8 109.7 50.8 108.8Q51.8 108.0 53.3 108.0L53.3 108.0Q54.9 108.0 55.9 108.8Q56.8 109.7 56.8 111.2L56.8 111.2Q56.8 111.9 56.3 112.6Q55.8 113.3 55.0 113.6L55.0 113.6Q55.9 113.9 56.4 114.6Q56.9 115.3 56.9 116.3L56.9 116.3Q56.9 117.8 55.9 118.7Q54.9 119.6 53.3 119.6Q51.7 119.6 50.7 118.8Q49.7 117.9 49.7 116.5L49.7 116.5L51.2 116.5Q51.2 117.4 51.8 117.9Q52.4 118.5 53.3 118.5L53.3 118.5Q54.4 118.5 54.9 117.9Q55.5 117.4 55.5 116.3L55.5 116.3Q55.5 115.4 54.9 114.8Q54.3 114.3 53.1 114.3L53.1 114.3L52.0 114.3ZM59.1 118.7L59.1 118.7Q59.1 118.4 59.3 118.1Q59.6 117.9 60 117.9Q60.4 117.9 60.7 118.1Q60.9 118.4 60.9 118.7L60.9 118.7Q60.9 119.1 60.7 119.3Q60.4 119.6 60 119.6Q59.6 119.6 59.3 119.3Q59.1 119.1 59.1 118.7ZM70.0 111.1L70.0 111.1Q70.0 111.9 69.6 112.6Q69.1 113.3 68.4 113.6L68.4 113.6Q69.3 114.0 69.8 114.7Q70.3 115.5 70.3 116.4L70.3 116.4Q70.3 117.9 69.3 118.8Q68.3 119.6 66.7 119.6L66.7 119.6Q65.0 119.6 64.1 118.8Q63.1 117.9 63.1 116.4L63.1 116.4Q63.1 115.5 63.6 114.7Q64.1 114.0 65.0 113.6L65.0 113.6Q64.2 113.2 63.8 112.6Q63.3 111.9 63.3 111.1L63.3 111.1Q63.3 109.6 64.3 108.8Q65.2 108.0 66.7 108.0L66.7 108.0Q68.2 108.0 69.1 108.8Q70.0 109.6 70.0 111.1ZM68.9 116.4L68.9 116.4Q68.9 115.4 68.3 114.8Q67.6 114.2 66.7 114.2Q65.7 114.2 65.1 114.8Q64.5 115.4 64.5 116.4Q64.5 117.4 65.1 117.9Q65.7 118.5 66.7 118.5L66.7 118.5Q67.7 118.5 68.3 117.9Q68.9 117.3 68.9 116.4ZM66.7 109.1L66.7 109.1Q65.8 109.1 65.3 109.7Q64.8 110.2 64.8 111.1L64.8 111.1Q64.8 112.0 65.3 112.5Q65.8 113.0 66.7 113.0Q67.6 113.0 68.1 112.5Q68.6 112.0 68.6 111.1Q68.6 110.2 68.1 109.7Q67.5 109.1 66.7 109.1ZM72 110.8L72 110.3Q72 109.3 72.7 108.6Q73.3 107.9 74.3 107.9L74.3 107.9Q75.4 107.9 76.0 108.6Q76.7 109.3 76.7 110.3L76.7 110.3L76.7 110.9Q76.7 111.9 76.0 112.6Q75.4 113.2 74.3 113.2L74.3 113.2Q73.3 113.2 72.7 112.6Q72 111.9 72 110.8L72 110.8ZM73.1 110.3L73.1 110.9Q73.1 111.5 73.4 111.9Q73.8 112.3 74.3 112.3L74.3 112.3Q74.9 112.3 75.2 111.9Q75.6 111.5 75.6 110.9L75.6 110.9L75.6 110.3Q75.6 109.7 75.2 109.3Q74.9 108.9 74.3 108.9Q73.8 108.9 73.4 109.3Q73.1 109.7 73.1 110.3L73.1 110.3ZM77.5 117.3L77.5 116.7Q77.5 115.7 78.2 115.0Q78.8 114.4 79.9 114.4Q80.9 114.4 81.5 115.0Q82.2 115.7 82.2 116.7L82.2 116.7L82.2 117.3Q82.2 118.3 81.6 119.0Q80.9 119.6 79.9 119.6Q78.9 119.6 78.2 119.0Q77.5 118.3 77.5 117.3L77.5 117.3ZM78.6 116.7L78.6 117.3Q78.6 117.9 79.0 118.3Q79.3 118.7 79.9 118.7L79.9 118.7Q80.4 118.7 80.8 118.3Q81.1 117.9 81.1 117.3L81.1 117.3L81.1 116.7Q81.1 116.1 80.8 115.7Q80.4 115.3 79.9 115.3L79.9 115.3Q79.3 115.3 79.0 115.7Q78.6 116.1 78.6 116.7L78.6 116.7ZM80.2 109.7L74.7 118.6L73.9 118.1L79.4 109.2L80.2 109.7Z "/><mask id="satori_om-id-1-7"><rect x="93" y="104" width="149" height="19" fill="#fff"/></mask><mask id="satori_om-id-1-7-0"><rect x="93" y="105" width="16" height="16" fill="#fff"/></mask><mask id="satori_om-id-1-7-0-0"><rect x="97" y="109" width="8" height="8" fill="#fff"/></mask><path x="97" y="109" width="8" height="8" fill="#f1e05a" d="M101,109 h0 a4,4 0 0 1 4,4 v0 a4,4 0 0 1 -4,4 h0 a4,4 0 0 1 -4,-4 v0 a4,4 0 0 1 4,-4"/><mask id="satori_om-id-1-7-1"><rect x="122" y="104" width="77" height="19" fill="#fff"/></mask><path fill="#fff" d="M127.6 116.0L127.6 108.1L129.9 108.1L129.9 116.0Q129.9 117.1 129.5 117.9Q129.0 118.7 128.1 119.2Q127.2 119.6 126.1 119.6L126.1 119.6Q124.3 119.6 123.3 118.7Q122.3 117.8 122.3 116.1L122.3 116.1L124.7 116.1Q124.7 117.0 125.0 117.4Q125.4 117.8 126.1 117.8L126.1 117.8Q126.8 117.8 127.2 117.3Q127.6 116.8 127.6 116.0L127.6 116.0ZM139.0 119.5L136.7 119.5Q136.5 119.2 136.5 118.7L136.5 118.7Q135.7 119.6 134.3 119.6L134.3 119.6Q133.1 119.6 132.3 118.9Q131.5 118.2 131.5 117.1L131.5 117.1Q131.5 115.8 132.5 115.0Q133.5 114.3 135.3 114.3L135.3 114.3L136.4 114.3L136.4 113.8Q136.4 113.2 136.1 112.9Q135.8 112.5 135.1 112.5L135.1 112.5Q134.6 112.5 134.2 112.8Q133.9 113.1 133.9 113.6L133.9 113.6L131.7 113.6Q131.7 112.8 132.1 112.2Q132.6 111.6 133.4 111.2Q134.2 110.9 135.3 110.9L135.3 110.9Q136.8 110.9 137.7 111.7Q138.6 112.4 138.6 113.9L138.6 113.9L138.6 117.5Q138.7 118.7 139.0 119.4L139.0 119.4L139.0 119.5ZM134.8 117.9L134.8 117.9Q135.3 117.9 135.8 117.7Q136.2 117.5 136.4 117.1L136.4 117.1L136.4 115.6L135.5 115.6Q133.8 115.6 133.7 116.8L133.7 116.8L133.7 116.9Q133.7 117.4 134.0 117.6Q134.3 117.9 134.8 117.9ZM141.9 111.0L143.4 116.7L145 111.0L147.4 111.0L144.5 119.5L142.4 119.5L139.5 111.0L141.9 111.0ZM155.4 119.5L153.1 119.5Q153.0 119.2 152.9 118.7L152.9 118.7Q152.1 119.6 150.8 119.6L150.8 119.6Q149.5 119.6 148.7 118.9Q147.9 118.2 147.9 117.1L147.9 117.1Q147.9 115.8 148.9 115.0Q149.9 114.3 151.8 114.3L151.8 114.3L152.8 114.3L152.8 113.8Q152.8 113.2 152.5 112.9Q152.2 112.5 151.6 112.5L151.6 112.5Q151.0 112.5 150.7 112.8Q150.3 113.1 150.3 113.6L150.3 113.6L148.1 113.6Q148.1 112.8 148.5 112.2Q149.0 111.6 149.8 111.2Q150.6 110.9 151.7 110.9L151.7 110.9Q153.2 110.9 154.2 111.7Q155.1 112.4 155.1 113.9L155.1 113.9L155.1 117.5Q155.1 118.7 155.4 119.4L155.4 119.4L155.4 119.5ZM151.3 117.9L151.3 117.9Q151.8 117.9 152.2 117.7Q152.6 117.5 152.8 117.1L152.8 117.1L152.8 115.6L152.0 115.6Q150.3 115.6 150.2 116.8L150.2 116.8L150.2 116.9Q150.2 117.4 150.5 117.6Q150.8 117.9 151.3 117.9ZM162.9 116.5L162.9 116.5Q162.9 115.8 162.4 115.5Q161.9 115.1 160.7 114.7Q159.5 114.3 158.8 114.0L158.8 114.0Q156.8 112.9 156.8 111.1L156.8 111.1Q156.8 110.2 157.4 109.5Q157.9 108.8 158.8 108.4Q159.8 108.0 161.0 108.0L161.0 108.0Q162.3 108.0 163.2 108.4Q164.2 108.8 164.7 109.6Q165.2 110.4 165.2 111.5L165.2 111.5L162.9 111.5Q162.9 110.7 162.4 110.3Q161.9 109.8 161.0 109.8L161.0 109.8Q160.1 109.8 159.7 110.2Q159.2 110.5 159.2 111.1L159.2 111.1Q159.2 111.7 159.7 112.1Q160.3 112.4 161.4 112.8L161.4 112.8Q163.4 113.4 164.3 114.3Q165.2 115.2 165.2 116.5L165.2 116.5Q165.2 118.0 164.1 118.8Q163.0 119.6 161.1 119.6L161.1 119.6Q159.8 119.6 158.7 119.2Q157.6 118.7 157.1 117.8Q156.5 117.0 156.5 115.9L156.5 115.9L158.8 115.9Q158.8 117.8 161.1 117.8L161.1 117.8Q161.9 117.8 162.4 117.4Q162.9 117.1 162.9 116.5ZM170.2 117.8L170.2 117.8Q170.8 117.8 171.2 117.5Q171.6 117.1 171.6 116.6L171.6 116.6L173.7 116.6Q173.7 117.4 173.2 118.1Q172.8 118.9 172.0 119.2Q171.2 119.6 170.2 119.6L170.2 119.6Q168.4 119.6 167.3 118.5Q166.3 117.3 166.3 115.3L166.3 115.3L166.3 115.2Q166.3 113.2 167.3 112.0Q168.4 110.9 170.2 110.9L170.2 110.9Q171.8 110.9 172.7 111.8Q173.7 112.7 173.7 114.2L173.7 114.2L171.6 114.2Q171.6 113.5 171.2 113.1Q170.8 112.7 170.1 112.7L170.1 112.7Q169.4 112.7 169.0 113.3Q168.6 113.9 168.6 115.1L168.6 115.1L168.6 115.4Q168.6 116.7 169.0 117.2Q169.4 117.8 170.2 117.8ZM179.8 111.0L179.7 113.1Q179.3 113.1 178.9 113.1L178.9 113.1Q177.6 113.1 177.3 114.0L177.3 114.0L177.3 119.5L175.0 119.5L175.0 111.0L177.1 111.0L177.2 112.0Q177.9 110.9 179.1 110.9L179.1 110.9Q179.4 110.9 179.8 111.0L179.8 111.0ZM183.2 111.0L183.2 119.5L180.9 119.5L180.9 111.0L183.2 111.0ZM180.8 108.8L180.8 108.8Q180.8 108.3 181.2 108.0Q181.5 107.7 182.1 107.7L182.1 107.7Q182.7 107.7 183 108.0Q183.3 108.3 183.3 108.8L183.3 108.8Q183.3 109.4 183.0 109.7Q182.6 110.0 182.1 110.0Q181.5 110.0 181.2 109.7Q180.8 109.4 180.8 108.8ZM192.7 115.2L192.7 115.3Q192.7 117.3 191.8 118.5Q190.9 119.6 189.4 119.6L189.4 119.6Q188.1 119.6 187.3 118.7L187.3 118.7L187.3 122.7L185.1 122.7L185.1 111.0L187.2 111.0L187.2 111.9Q188.1 110.9 189.4 110.9L189.4 110.9Q190.9 110.9 191.8 112.0Q192.7 113.2 192.7 115.2L192.7 115.2ZM190.4 115.2L190.4 115.2Q190.4 114.0 190.0 113.4Q189.6 112.7 188.8 112.7L188.8 112.7Q187.7 112.7 187.3 113.5L187.3 113.5L187.3 117.0Q187.7 117.8 188.8 117.8L188.8 117.8Q190.4 117.8 190.4 115.2ZM194.5 109.0L196.8 109.0L196.8 111.0L198.2 111.0L198.2 112.7L196.8 112.7L196.8 116.9Q196.8 117.4 197.0 117.6Q197.1 117.8 197.6 117.8L197.6 117.8Q198.0 117.8 198.3 117.7L198.3 117.7L198.3 119.4Q197.6 119.6 196.9 119.6L196.9 119.6Q194.6 119.6 194.5 117.2L194.5 117.2L194.5 112.7L193.3 112.7L193.3 111.0L194.5 111.0L194.5 109.0Z "/><mask id="satori_om-id-1-7-2"><rect x="208" y="104" width="34" height="19" fill="#fff"/></mask><path fill="#7d8590" d="M216.4 118.3L216.4 119.5L208.9 119.5L208.9 118.4L212.9 114.1Q213.8 113.1 214.1 112.5Q214.4 111.8 214.4 111.2L214.4 111.2Q214.4 110.3 213.9 109.7Q213.3 109.1 212.4 109.1L212.4 109.1Q211.4 109.1 210.8 109.8Q210.2 110.4 210.2 111.5L210.2 111.5L208.7 111.5Q208.7 109.9 209.7 108.9Q210.8 108.0 212.4 108.0L212.4 108.0Q214.0 108.0 215.0 108.8Q215.9 109.6 215.9 111.0L215.9 111.0Q215.9 112.7 213.7 115.0L213.7 115.0L210.7 118.3L216.4 118.3ZM218.1 118.7L218.1 118.7Q218.1 118.4 218.3 118.1Q218.6 117.9 219 117.9Q219.4 117.9 219.7 118.1Q219.9 118.4 219.9 118.7L219.9 118.7Q219.9 119.1 219.7 119.3Q219.4 119.6 219 119.6Q218.6 119.6 218.3 119.3Q218.1 119.1 218.1 118.7ZM227.7 114.5L227.7 114.5Q227.2 115.0 226.6 115.4Q226.0 115.7 225.2 115.7L225.2 115.7Q224.2 115.7 223.5 115.2Q222.8 114.7 222.4 113.8Q222.0 113.0 222.0 111.9L222.0 111.9Q222.0 110.7 222.4 109.8Q222.8 108.9 223.6 108.4Q224.4 108.0 225.5 108.0L225.5 108.0Q227.2 108.0 228.2 109.2Q229.1 110.5 229.1 112.7L229.1 112.7L229.1 113.1Q229.1 116.4 227.8 117.9Q226.5 119.5 223.9 119.5L223.9 119.5L223.6 119.5L223.6 118.3L223.9 118.3Q225.7 118.2 226.6 117.3Q227.6 116.4 227.7 114.5ZM225.5 114.5L225.5 114.5Q226.2 114.5 226.8 114.0Q227.4 113.6 227.7 112.9L227.7 112.9L227.7 112.4Q227.7 110.9 227.1 110.0Q226.5 109.2 225.5 109.2L225.5 109.2Q224.6 109.2 224.0 109.9Q223.4 110.6 223.4 111.8L223.4 111.8Q223.4 113.0 224.0 113.7Q224.5 114.5 225.5 114.5ZM231 110.8L231 110.3Q231 109.3 231.7 108.6Q232.3 107.9 233.3 107.9L233.3 107.9Q234.4 107.9 235.0 108.6Q235.7 109.3 235.7 110.3L235.7 110.3L235.7 110.9Q235.7 111.9 235.0 112.6Q234.4 113.2 233.3 113.2L233.3 113.2Q232.3 113.2 231.7 112.6Q231 111.9 231 110.8L231 110.8ZM232.1 110.3L232.1 110.9Q232.1 111.5 232.4 111.9Q232.8 112.3 233.3 112.3L233.3 112.3Q233.9 112.3 234.2 111.9Q234.6 111.5 234.6 110.9L234.6 110.9L234.6 110.3Q234.6 109.7 234.2 109.3Q233.9 108.9 233.3 108.9Q232.8 108.9 232.4 109.3Q232.1 109.7 232.1 110.3L232.1 110.3ZM236.5 117.3L236.5 116.7Q236.5 115.7 237.2 115.0Q237.8 114.4 238.9 114.4Q239.9 114.4 240.5 115.0Q241.2 115.7 241.2 116.7L241.2 116.7L241.2 117.3Q241.2 118.3 240.6 119.0Q239.9 119.6 238.9 119.6Q237.9 119.6 237.2 119.0Q236.5 118.3 236.5 117.3L236.5 117.3ZM237.6 116.7L237.6 117.3Q237.6 117.9 238.0 118.3Q238.3 118.7 238.9 118.7L238.9 118.7Q239.4 118.7 239.8 118.3Q240.1 117.9 240.1 117.3L240.1 117.3L240.1 116.7Q240.1 116.1 239.8 115.7Q239.4 115.3 238.9 115.3L238.9 115.3Q238.3 115.3 238.0 115.7Q237.6 116.1 237.6 116.7L237.6 116.7ZM239.2 109.7L233.7 118.6L232.9 118.1L238.4 109.2L239.2 109.7Z "/><mask id="satori_om-id-1-8"><rect x="252" y="104" width="112" height="19" fill="#fff"/></mask><mask id="satori_om-id-1-8-0"><rect x="252" y="105" width="16" height="16" fill="#fff"/></mask><mask id="satori_om-id-1-8-0-0"><rect x="256" y="109" width="8" height="8" fill="#fff"/></mask><path x="256" y="109" width="8" height="8" fill="#ff5a03" d="M260,109 h0 a4,4 0 0 1 4,4 v0 a4,4 0 0 1 -4,4 h0 a4,4 0 0 1 -4,-4 v0 a4,4 0 0 1 4,-4"/><mask id="satori_om-id-1-8-1"><rect x="281" y="104" width="40" height="19" fill="#fff"/></mask><path fill="#fff" d="M289.2 119.5L288.4 117.1L284.3 117.1L283.5 119.5L281.1 119.5L285.3 108.1L287.5 108.1L291.7 119.5L289.2 119.5ZM286.4 111.0L285.0 115.2L287.8 115.2L286.4 111.0ZM297.2 117.1L297.2 117.1Q297.2 116.7 296.8 116.5Q296.4 116.3 295.5 116.1L295.5 116.1Q292.5 115.4 292.5 113.5L292.5 113.5Q292.5 112.4 293.4 111.6Q294.3 110.9 295.8 110.9L295.8 110.9Q297.5 110.9 298.4 111.6Q299.4 112.4 299.4 113.6L299.4 113.6L297.1 113.6Q297.1 113.1 296.8 112.8Q296.5 112.5 295.8 112.5L295.8 112.5Q295.3 112.5 295.0 112.7Q294.6 113.0 294.6 113.4L294.6 113.4Q294.6 113.8 295.0 114.0Q295.4 114.2 296.2 114.4Q297.0 114.6 297.6 114.8L297.6 114.8Q299.4 115.4 299.4 117.1L299.4 117.1Q299.4 118.2 298.4 118.9Q297.4 119.6 295.9 119.6L295.9 119.6Q294.8 119.6 294.0 119.3Q293.1 118.9 292.7 118.2Q292.2 117.6 292.2 116.8L292.2 116.8L294.3 116.8Q294.4 117.4 294.8 117.7Q295.2 118.0 295.9 118.0L295.9 118.0Q296.5 118.0 296.9 117.8Q297.2 117.5 297.2 117.1ZM301.3 109.0L303.6 109.0L303.6 111.0L305.0 111.0L305.0 112.7L303.6 112.7L303.6 116.9Q303.6 117.4 303.7 117.6Q303.9 117.8 304.4 117.8L304.4 117.8Q304.8 117.8 305.1 117.7L305.1 117.7L305.1 119.4Q304.4 119.6 303.7 119.6L303.7 119.6Q301.4 119.6 301.3 117.2L301.3 117.2L301.3 112.7L300.1 112.7L300.1 111.0L301.3 111.0L301.3 109.0ZM311.0 111.0L311.0 113.1Q310.6 113.1 310.2 113.1L310.2 113.1Q308.9 113.1 308.5 114.0L308.5 114.0L308.5 119.5L306.3 119.5L306.3 111.0L308.4 111.0L308.5 112.0Q309.1 110.9 310.3 110.9L310.3 110.9Q310.7 110.9 311.0 111.0L311.0 111.0ZM311.5 115.3L311.5 115.2Q311.5 113.9 312.0 112.9Q312.4 112.0 313.3 111.4Q314.3 110.9 315.5 110.9L315.5 110.9Q317.2 110.9 318.3 111.9Q319.3 113.0 319.5 114.8L319.5 114.8L319.5 115.3Q319.5 117.3 318.4 118.5Q317.3 119.6 315.5 119.6Q313.6 119.6 312.6 118.5Q311.5 117.3 311.5 115.3L311.5 115.3ZM313.7 115.3L313.7 115.3Q313.7 116.5 314.2 117.2Q314.6 117.8 315.5 117.8L315.5 117.8Q316.3 117.8 316.8 117.2Q317.2 116.6 317.2 115.2L317.2 115.2Q317.2 114.0 316.8 113.4Q316.3 112.7 315.5 112.7L315.5 112.7Q314.6 112.7 314.2 113.3Q313.7 114.0 313.7 115.3Z "/><mask id="satori_om-id-1-8-2"><rect x="330" y="104" width="34" height="19" fill="#fff"/></mask><path fill="#7d8590" d="M338.4 118.3L338.4 119.5L330.9 119.5L330.9 118.4L334.9 114.1Q335.8 113.1 336.1 112.5Q336.4 111.8 336.4 111.2L336.4 111.2Q336.4 110.3 335.9 109.7Q335.3 109.1 334.4 109.1L334.4 109.1Q333.4 109.1 332.8 109.8Q332.2 110.4 332.2 111.5L332.2 111.5L330.7 111.5Q330.7 109.9 331.7 108.9Q332.8 108.0 334.4 108.0L334.4 108.0Q336.0 108.0 337.0 108.8Q337.9 109.6 337.9 111.0L337.9 111.0Q337.9 112.7 335.7 115.0L335.7 115.0L332.7 118.3L338.4 118.3ZM340.1 118.7L340.1 118.7Q340.1 118.4 340.3 118.1Q340.6 117.9 341 117.9Q341.4 117.9 341.7 118.1Q341.9 118.4 341.9 118.7L341.9 118.7Q341.9 119.1 341.7 119.3Q341.4 119.6 341 119.6Q340.6 119.6 340.3 119.3Q340.1 119.1 340.1 118.7ZM348.9 108.1L348.9 119.5L347.4 119.5L347.4 109.9L344.5 110.9L344.5 109.6L348.7 108.1L348.9 108.1ZM353 110.8L353 110.3Q353 109.3 353.7 108.6Q354.3 107.9 355.3 107.9L355.3 107.9Q356.4 107.9 357.0 108.6Q357.7 109.3 357.7 110.3L357.7 110.3L357.7 110.9Q357.7 111.9 357.0 112.6Q356.4 113.2 355.3 113.2L355.3 113.2Q354.3 113.2 353.7 112.6Q353 111.9 353 110.8L353 110.8ZM354.1 110.3L354.1 110.9Q354.1 111.5 354.4 111.9Q354.8 112.3 355.3 112.3L355.3 112.3Q355.9 112.3 356.2 111.9Q356.6 111.5 356.6 110.9L356.6 110.9L356.6 110.3Q356.6 109.7 356.2 109.3Q355.9 108.9 355.3 108.9Q354.8 108.9 354.4 109.3Q354.1 109.7 354.1 110.3L354.1 110.3ZM358.5 117.3L358.5 116.7Q358.5 115.7 359.2 115.0Q359.8 114.4 360.9 114.4Q361.9 114.4 362.5 115.0Q363.2 115.7 363.2 116.7L363.2 116.7L363.2 117.3Q363.2 118.3 362.6 119.0Q361.9 119.6 360.9 119.6Q359.9 119.6 359.2 119.0Q358.5 118.3 358.5 117.3L358.5 117.3ZM359.6 116.7L359.6 117.3Q359.6 117.9 360.0 118.3Q360.3 118.7 360.9 118.7L360.9 118.7Q361.4 118.7 361.8 118.3Q362.1 117.9 362.1 117.3L362.1 117.3L362.1 116.7Q362.1 116.1 361.8 115.7Q361.4 115.3 360.9 115.3L360.9 115.3Q360.3 115.3 360.0 115.7Q359.6 116.1 359.6 116.7L359.6 116.7ZM361.2 109.7L355.7 118.6L354.9 118.1L360.4 109.2L361.2 109.7Z "/><mask id="satori_om-id-1-9"><rect x="0" y="133" width="103" height="19" fill="#fff"/></mask><mask id="satori_om-id-1-9-0"><rect x="0" y="134" width="16" height="16" fill="#fff"/></mask><mask id="satori_om-id-1-9-0-0"><rect x="4" y="138" width="8" height="8" fill="#fff"/></mask><path x="4" y="138" width="8" height="8" fill="#563d7c" d="M8,138 h0 a4,4 0 0 1 4,4 v0 a4,4 0 0 1 -4,4 h0 a4,4 0 0 1 -4,-4 v0 a4,4 0 0 1 4,-4"/><mask id="satori_om-id-1-9-1"><rect x="29" y="133" width="31" height="19" fill="#fff"/></mask><path fill="#fff" d="M36.6 144.7L38.9 144.7Q38.8 146.5 37.6 147.6Q36.4 148.6 34.4 148.6L34.4 148.6Q32.2 148.6 30.9 147.2Q29.7 145.7 29.7 143.1L29.7 143.1L29.7 142.4Q29.7 140.8 30.3 139.5Q30.8 138.3 31.9 137.6Q33.0 137.0 34.4 137.0L34.4 137.0Q36.4 137.0 37.6 138.0Q38.8 139.1 39.0 141.0L39.0 141.0L36.6 141.0Q36.5 139.9 36.0 139.4Q35.5 138.9 34.4 138.9L34.4 138.9Q33.2 138.9 32.6 139.7Q32.1 140.6 32.0 142.3L32.0 142.3L32.0 143.2Q32.0 145.0 32.6 145.9Q33.2 146.7 34.4 146.7L34.4 146.7Q35.5 146.7 36.0 146.2Q36.5 145.7 36.6 144.7L36.6 144.7ZM46.4 145.5L46.4 145.5Q46.4 144.8 45.9 144.5Q45.4 144.1 44.2 143.7Q43.0 143.3 42.3 143.0L42.3 143.0Q40.4 141.9 40.4 140.1L40.4 140.1Q40.4 139.2 40.9 138.5Q41.4 137.8 42.4 137.4Q43.3 137.0 44.6 137.0L44.6 137.0Q45.8 137.0 46.7 137.4Q47.7 137.8 48.2 138.6Q48.7 139.4 48.7 140.5L48.7 140.5L46.4 140.5Q46.4 139.7 45.9 139.3Q45.4 138.8 44.5 138.8L44.5 138.8Q43.7 138.8 43.2 139.2Q42.7 139.5 42.7 140.1L42.7 140.1Q42.7 140.7 43.3 141.1Q43.8 141.4 44.9 141.8L44.9 141.8Q46.9 142.4 47.8 143.3Q48.7 144.2 48.7 145.5L48.7 145.5Q48.7 147.0 47.6 147.8Q46.5 148.6 44.6 148.6L44.6 148.6Q43.3 148.6 42.2 148.2Q41.1 147.7 40.6 146.8Q40.0 146.0 40.0 144.9L40.0 144.9L42.4 144.9Q42.4 146.8 44.6 146.8L44.6 146.8Q45.4 146.8 45.9 146.4Q46.4 146.1 46.4 145.5ZM56.2 145.5L56.2 145.5Q56.2 144.8 55.8 144.5Q55.3 144.1 54.1 143.7Q52.8 143.3 52.1 143.0L52.1 143.0Q50.2 141.9 50.2 140.1L50.2 140.1Q50.2 139.2 50.7 138.5Q51.2 137.8 52.2 137.4Q53.2 137.0 54.4 137.0L54.4 137.0Q55.6 137.0 56.6 137.4Q57.5 137.8 58.0 138.6Q58.6 139.4 58.6 140.5L58.6 140.5L56.2 140.5Q56.2 139.7 55.7 139.3Q55.2 138.8 54.4 138.8L54.4 138.8Q53.5 138.8 53.0 139.2Q52.5 139.5 52.5 140.1L52.5 140.1Q52.5 140.7 53.1 141.1Q53.7 141.4 54.7 141.8L54.7 141.8Q56.7 142.4 57.7 143.3Q58.6 144.2 58.6 145.5L58.6 145.5Q58.6 147.0 57.5 147.8Q56.3 148.6 54.4 148.6L54.4 148.6Q53.1 148.6 52.1 148.2Q51.0 147.7 50.4 146.8Q49.8 146.0 49.8 144.9L49.8 144.9L52.2 144.9Q52.2 146.8 54.4 146.8L54.4 146.8Q55.3 146.8 55.8 146.4Q56.2 146.1 56.2 145.5Z "/><mask id="satori_om-id-1-9-2"><rect x="69" y="133" width="34" height="19" fill="#fff"/></mask><path fill="#7d8590" d="M74.7 137.1L74.7 148.5L73.2 148.5L73.2 138.9L70.3 139.9L70.3 138.6L74.5 137.1L74.7 137.1ZM79.1 147.7L79.1 147.7Q79.1 147.4 79.3 147.1Q79.6 146.9 80 146.9Q80.4 146.9 80.7 147.1Q80.9 147.4 80.9 147.7L80.9 147.7Q80.9 148.1 80.7 148.3Q80.4 148.6 80 148.6Q79.6 148.6 79.3 148.3Q79.1 148.1 79.1 147.7ZM90.3 141.8L90.3 143.6Q90.3 146.2 89.4 147.4Q88.5 148.6 86.7 148.6L86.7 148.6Q84.9 148.6 84 147.4Q83.1 146.2 83.1 143.8L83.1 143.8L83.1 141.9Q83.1 139.4 84.0 138.2Q84.8 137.0 86.7 137.0L86.7 137.0Q88.5 137.0 89.4 138.1Q90.3 139.3 90.3 141.8L90.3 141.8ZM88.8 144.0L88.8 141.7Q88.8 139.8 88.3 139.0Q87.8 138.1 86.7 138.1L86.7 138.1Q85.6 138.1 85.1 139.0Q84.6 139.8 84.5 141.5L84.5 141.5L84.5 143.9Q84.5 145.7 85.1 146.6Q85.6 147.5 86.7 147.5L86.7 147.5Q87.8 147.5 88.3 146.6Q88.8 145.8 88.8 144.0L88.8 144.0ZM92 139.8L92 139.3Q92 138.3 92.7 137.6Q93.3 136.9 94.3 136.9L94.3 136.9Q95.4 136.9 96.0 137.6Q96.7 138.3 96.7 139.3L96.7 139.3L96.7 139.9Q96.7 140.9 96.0 141.6Q95.4 142.2 94.3 142.2L94.3 142.2Q93.3 142.2 92.7 141.6Q92 140.9 92 139.8L92 139.8ZM93.1 139.3L93.1 139.9Q93.1 140.5 93.4 140.9Q93.8 141.3 94.3 141.3L94.3 141.3Q94.9 141.3 95.2 140.9Q95.6 140.5 95.6 139.9L95.6 139.9L95.6 139.3Q95.6 138.7 95.2 138.3Q94.9 137.9 94.3 137.9Q93.8 137.9 93.4 138.3Q93.1 138.7 93.1 139.3L93.1 139.3ZM97.5 146.3L97.5 145.7Q97.5 144.7 98.2 144.0Q98.8 143.4 99.9 143.4Q100.9 143.4 101.5 144.0Q102.2 144.7 102.2 145.7L102.2 145.7L102.2 146.3Q102.2 147.3 101.6 148.0Q100.9 148.6 99.9 148.6Q98.9 148.6 98.2 148.0Q97.5 147.3 97.5 146.3L97.5 146.3ZM98.6 145.7L98.6 146.3Q98.6 146.9 99.0 147.3Q99.3 147.7 99.9 147.7L99.9 147.7Q100.4 147.7 100.8 147.3Q101.1 146.9 101.1 146.3L101.1 146.3L101.1 145.7Q101.1 145.1 100.8 144.7Q100.4 144.3 99.9 144.3L99.9 144.3Q99.3 144.3 99.0 144.7Q98.6 145.1 98.6 145.7L98.6 145.7ZM100.2 138.7L94.7 147.6L93.9 147.1L99.4 138.2L100.2 138.7Z "/></svg>