<svg width="375" height="200" viewBox="0 0 375 200" xmlns="http://www.w3.org/2000/svg"><mask id="satori_om-id"><rect x="0" y="0" width="375" height="123" fill="#fff"/></mask><clipPath id="satori_cp-id-0"><path x="0" y="0" width="375" height="8" d="M4,0 h367 a4,4 0 0 1 4,4 v0 a4,4 0 0 1 -4,4 h-367 a4,4 0 0 1 -4,-4 v0 a4,4 0 0 1 4,-4"/></clipPath><mask id="satori_om-id-0"><rect x="0" y="0" width="375" height="8" fill="#fff"/></mask><mask id="satori_om-id-0-0"><rect x="0" y="0" width="160" height="8" fill="#fff" mask="url(#satori_om-id-0)"/></mask><rect x="0" y="0" width="160" height="8" fill="#3178c6" clip-path="url(#satori_cp-id-0)" mask="url(#satori_om-id-0)"/><mask id="satori_om-id-0-1"><rect x="160" y="0" width="60" height="8" fill="#fff" mask="url(#satori_om-id-0)"/></mask><rect x="160" y="0" width="60" height="8" fill="#00ADD8" clip-path="url(#satori_cp-id-0)" mask="url(#satori_om-id-0)"/><mask id="satori_om-id-0-2"><rect x="220" y="0" width="49" height="8" fill="#fff" mask="url(#satori_om-id-0)"/></mask><rect x="220" y="0" width="49" height="8" fill="#3572A5" clip-path="url(#satori_cp-id-0)" mask="url(#satori_om-id-0)"/><mask id="satori_om-id-0-3"><rect x="269" y="0" width="26" height="8" fill="#fff" mask="url(#satori_om-id-0)"/></mask><rect x="269" y="0" width="26" height="8" fill="#844FBA" clip-path="url(#satori_cp-id-0)" mask="url(#satori_om-id-0)"/><mask id="satori_om-id-0-4"><rect x="295" y="0" width="21" height="8" fill="#fff" mask="url(#satori_om-id-0)"/></mask><rect x="295" y="0" width="21" height="8" fill="#A97BFF" clip-path="url(#satori_cp-id-0)" mask="url(#satori_om-id-0)"/><mask id="satori_om-id-0-5"><rect x="316" y="0" width="20" height="8" fill="#fff" mask="url(#satori_om-id-0)"/></mask><rect x="316" y="0" width="20" height="8" fill="#ff3e00" clip-path="url(#satori_cp-id-0)" mask="url(#satori_om-id-0)"/><mask id="satori_om-id-0-6"><rect x="336" y="0" width="13" height="8" fill="#fff" mask="url(#satori_om-id-0)"/></mask><rect x="336" y="0" width="13" height="8" fill="#555555" clip-path="url(#satori_cp-id-0)" mask="url(#satori_om-id-0)"/><mask id="satori_om-id-0-7"><rect x="349" y="0" width="9" height="8" fill="#fff" mask="url(#satori_om-id-0)"/></mask><rect x="349" y="0" width="9" height="8" fill="#f1e05a" clip-path="url(#satori_cp-id-0)" mask="url(#satori_om-id-0)"/><mask id="satori_om-id-0-8"><rect x="358" y="0" width="7" height="8" fill="#fff" mask="url(#satori_om-id-0)"/></mask><rect x="358" y="0" width="7" height="8" fill="#ff5a03" clip-path="url(#satori_cp-id-0)" mask="url(#satori_om-id-0)"/><mask id="satori_om-id-0-9"><rect x="365" y="0" width="3" height="8" fill="#fff" mask="url(#satori_om-id-0)"/></mask><rect x="365" y="0" width="3" height="8" fill="#563d7c" clip-path="url(#satori_cp-id-0)" mask="url(#satori_om-id-0)"/><mask id="satori_om-id-1"><rect x="0" y="18" width="375" height="105" fill="#fff"/></mask><mask id="satori_om-id-1-0"><rect x="0" y="18" width="160" height="19" fill="#fff"/></mask><mask id="satori_om-id-1-0-0"><rect x="0" y="19" width="16" height="16" fill="#fff"/></mask><mask id="satori_om-id-1-0-0-0"><rect x="4" y="23" width="8" height="8" fill="#fff"/></mask><path x="4" y="23" width="8" height="8" fill="#3178c6" d="M8,23 h0 a4,4 0 0 1 4,4 v0 a4,4 0 0 1 -4,4 h0 a4,4 0 0 1 -4,-4 v0 a4,4 0 0 1 4,-4"/><mask id="satori_om-id-1-0-1"><rect x="29" y="18" width="79" height="19" fill="#fff"/></mask><path fill="#fff" d="M38.6 22.1L38.6 24.0L35.1 24.0L35.1 33.5L32.8 33.5L32.8 24.0L29.3 24.0L29.3 22.1L38.6 22.1ZM40.7 25.0L42.3 30.3L43.8 25.0L46.3 25.0L42.9 34.8L42.7 35.2Q41.9 36.9 40.2 36.9L40.2 36.9Q39.7 36.9 39.2 36.7L39.2 36.7L39.2 35.0L39.5 35.0Q40.2 35.0 40.5 34.9Q40.8 34.7 41.0 34.2L41.0 34.2L41.2 33.5L38.3 25.0L40.7 25.0ZM54.8 29.2L54.8 29.3Q54.8 31.3 53.9 32.5Q53.0 33.6 51.5 33.6L51.5 33.6Q50.2 33.6 49.4 32.7L49.4 32.7L49.4 36.7L47.2 36.7L47.2 25.0L49.3 25.0L49.3 25.9Q50.1 24.9 51.5 24.9L51.5 24.9Q53.0 24.9 53.9 26.0Q54.8 27.2 54.8 29.2L54.8 29.2ZM52.5 29.2L52.5 29.2Q52.5 28.0 52.1 27.4Q51.7 26.7 50.9 26.7L50.9 26.7Q49.8 26.7 49.4 27.5L49.4 27.5L49.4 31.0Q49.8 31.8 50.9 31.8L50.9 31.8Q52.5 31.8 52.5 29.2ZM60.1 33.6L60.1 33.6Q58.2 33.6 57.0 32.5Q55.9 31.4 55.9 29.5L55.9 29.5L55.9 29.2Q55.9 28.0 56.4 27.0Q56.8 26.0 57.7 25.4Q58.6 24.9 59.8 24.9L59.8 24.9Q61.5 24.9 62.5 26.0Q63.5 27.1 63.5 29.1L63.5 29.1L63.5 30.0L58.1 30.0Q58.3 30.8 58.8 31.3Q59.4 31.8 60.2 31.8L60.2 31.8Q61.5 31.8 62.2 30.9L62.2 30.9L63.4 32.1Q62.8 32.8 62.0 33.2Q61.1 33.6 60.1 33.6ZM59.8 26.7L59.8 26.7Q59.1 26.7 58.7 27.2Q58.3 27.6 58.2 28.5L58.2 28.5L61.3 28.5L61.3 28.3Q61.3 27.5 60.9 27.1Q60.5 26.7 59.8 26.7ZM70.9 30.5L70.9 30.5Q70.9 29.8 70.4 29.5Q69.9 29.1 68.7 28.7Q67.5 28.3 66.8 28.0L66.8 28.0Q64.8 26.9 64.8 25.1L64.8 25.1Q64.8 24.2 65.4 23.5Q65.9 22.8 66.8 22.4Q67.8 22.0 69.0 22.0L69.0 22.0Q70.3 22.0 71.2 22.4Q72.2 22.8 72.7 23.6Q73.2 24.4 73.2 25.5L73.2 25.5L70.9 25.5Q70.9 24.7 70.4 24.3Q69.9 23.8 69.0 23.8L69.0 23.8Q68.1 23.8 67.7 24.2Q67.2 24.5 67.2 25.1L67.2 25.1Q67.2 25.7 67.7 26.1Q68.3 26.4 69.4 26.8L69.4 26.8Q71.4 27.4 72.3 28.3Q73.2 29.2 73.2 30.5L73.2 30.5Q73.2 32.0 72.1 32.8Q71.0 33.6 69.1 33.6L69.1 33.6Q67.8 33.6 66.7 33.2Q65.6 32.7 65.1 31.8Q64.5 31.0 64.5 29.9L64.5 29.9L66.8 29.9Q66.8 31.8 69.1 31.8L69.1 31.8Q69.9 31.8 70.4 31.4Q70.9 31.1 70.9 30.5ZM78.2 31.8L78.2 31.8Q78.8 31.8 79.2 31.5Q79.6 31.1 79.6 30.6L79.6 30.6L81.7 30.6Q81.7 31.4 81.2 32.1Q80.8 32.9 80.0 33.2Q79.2 33.6 78.2 33.6L78.2 33.6Q76.4 33.6 75.3 32.5Q74.3 31.3 74.3 29.3L74.3 29.3L74.3 29.2Q74.3 27.2 75.3 26.0Q76.4 24.9 78.2 24.9L78.2 24.9Q79.8 24.9 80.7 25.8Q81.7 26.7 81.7 28.2L81.7 28.2L79.6 28.2Q79.6 27.5 79.2 27.1Q78.8 26.7 78.1 26.7L78.1 26.7Q77.4 26.7 77.0 27.3Q76.6 27.9 76.6 29.1L76.6 29.1L76.6 29.4Q76.6 30.7 77.0 31.2Q77.4 31.8 78.2 31.8ZM87.8 25.0L87.7 27.1Q87.3 27.1 86.9 27.1L86.9 27.1Q85.6 27.1 85.3 28.0L85.3 28.0L85.3 33.5L83.0 33.5L83.0 25.0L85.1 25.0L85.2 26.0Q85.9 24.9 87.1 24.9L87.1 24.9Q87.4 24.9 87.8 25.0L87.8 25.0ZM91.2 25.0L91.2 33.5L88.9 33.5L88.9 25.0L91.2 25.0ZM88.8 22.8L88.8 22.8Q88.8 22.3 89.2 22.0Q89.5 21.7 90.1 21.7L90.1 21.7Q90.7 21.7 91 22.0Q91.3 22.3 91.3 22.8L91.3 22.8Q91.3 23.4 91.0 23.7Q90.6 24.0 90.1 24.0Q89.5 24.0 89.2 23.7Q88.8 23.4 88.8 22.8ZM100.7 29.2L100.7 29.3Q100.7 31.3 99.8 32.5Q98.9 33.6 97.4 33.6L97.4 33.6Q96.1 33.6 95.3 32.7L95.3 32.7L95.3 36.7L93.1 36.7L93.1 25.0L95.2 25.0L95.2 25.9Q96.1 24.9 97.4 24.9L97.4 24.9Q98.9 24.9 99.8 26.0Q100.7 27.2 100.7 29.2L100.7 29.2ZM98.4 29.2L98.4 29.2Q98.4 28.0 98.0 27.4Q97.6 26.7 96.8 26.7L96.8 26.7Q95.7 26.7 95.3 27.5L95.3 27.5L95.3 31.0Q95.7 31.8 96.8 31.8L96.8 31.8Q98.4 31.8 98.4 29.2ZM102.5 23.0L104.8 23.0L104.8 25.0L106.2 25.0L106.2 26.7L104.8 26.7L104.8 30.9Q104.8 31.4 105.0 31.6Q105.1 31.8 105.6 31.8L105.6 31.8Q106.0 31.8 106.3 31.7L106.3 31.7L106.3 33.4Q105.6 33.6 104.9 33.6L104.9 33.6Q102.6 33.6 102.5 31.2L102.5 31.2L102.5 26.7L101.3 26.7L101.3 25.0L102.5 25.0L102.5 23.0Z "/><mask id="satori_om-id-1-0-2"><rect x="117" y="18" width="43" height="19" fill="#fff"/></mask><path fill="#7d8590" d="M124.0 22.1L124.0 29.7L125.6 29.7L125.6 30.8L124.0 30.8L124.0 33.5L122.6 33.5L122.6 30.8L117.4 30.8L117.4 30.0L122.5 22.1L124.0 22.1ZM122.4 24.4L119.1 29.7L122.6 29.7L122.6 24.1L122.4 24.4ZM134.4 32.3L134.4 33.5L126.9 33.5L126.9 32.4L130.9 28.1Q131.7 27.1 132.1 26.5Q132.4 25.8 132.4 25.2L132.4 25.2Q132.4 24.3 131.9 23.7Q131.3 23.1 130.4 23.1L130.4 23.1Q129.4 23.1 128.8 23.8Q128.2 24.4 128.2 25.5L128.2 25.5L126.7 25.5Q126.7 23.9 127.7 22.9Q128.7 22.0 130.4 22.0L130.4 22.0Q132.0 22.0 132.9 22.8Q133.9 23.6 133.9 25.0L133.9 25.0Q133.9 26.7 131.7 29.0L131.7 29.0L128.7 32.3L134.4 32.3ZM136.1 32.7L136.1 32.7Q136.1 32.4 136.3 32.1Q136.5 31.9 137.0 31.9Q137.4 31.9 137.7 32.1Q137.9 32.4 137.9 32.7L137.9 32.7Q137.9 33.1 137.7 33.3Q137.4 33.6 137.0 33.6Q136.5 33.6 136.3 33.3Q136.1 33.1 136.1 32.7ZM145.5 22.1L145.8 22.1L145.8 23.3L145.5 23.3Q143.8 23.4 142.8 24.3Q141.8 25.3 141.7 27.1L141.7 27.1Q142.6 26.0 144.1 26.0L144.1 26.0Q145.6 26.0 146.5 27.1Q147.4 28.1 147.4 29.8L147.4 29.8Q147.4 31.5 146.4 32.6Q145.5 33.6 143.9 33.6L143.9 33.6Q142.2 33.6 141.2 32.4Q140.2 31.1 140.2 29.2L140.2 29.2L140.2 28.6Q140.2 25.5 141.6 23.8Q142.9 22.1 145.5 22.1L145.5 22.1ZM143.9 27.2L143.9 27.2Q143.2 27.2 142.5 27.7Q141.9 28.1 141.7 28.8L141.7 28.8L141.7 29.3Q141.7 30.7 142.3 31.6Q142.9 32.4 143.9 32.4L143.9 32.4Q144.9 32.4 145.4 31.7Q146.0 31.0 146.0 29.8L146.0 29.8Q146.0 28.7 145.4 27.9Q144.8 27.2 143.9 27.2ZM149.0 24.8L149.0 24.3Q149.0 23.3 149.6 22.6Q150.3 21.9 151.3 21.9L151.3 21.9Q152.4 21.9 153.0 22.6Q153.6 23.3 153.6 24.3L153.6 24.3L153.6 24.9Q153.6 25.9 153.0 26.6Q152.3 27.2 151.3 27.2L151.3 27.2Q150.3 27.2 149.6 26.6Q149.0 25.9 149.0 24.8L149.0 24.8ZM150.1 24.3L150.1 24.9Q150.1 25.5 150.4 25.9Q150.8 26.3 151.3 26.3L151.3 26.3Q151.9 26.3 152.2 25.9Q152.6 25.5 152.6 24.9L152.6 24.9L152.6 24.3Q152.6 23.7 152.2 23.3Q151.9 22.9 151.3 22.9Q150.7 22.9 150.4 23.3Q150.1 23.7 150.1 24.3L150.1 24.3ZM154.5 31.3L154.5 30.7Q154.5 29.7 155.2 29.0Q155.8 28.4 156.9 28.4Q157.9 28.4 158.5 29.0Q159.2 29.7 159.2 30.7L159.2 30.7L159.2 31.3Q159.2 32.3 158.5 33.0Q157.9 33.6 156.9 33.6Q155.9 33.6 155.2 33.0Q154.5 32.3 154.5 31.3L154.5 31.3ZM155.6 30.7L155.6 31.3Q155.6 31.9 155.9 32.3Q156.3 32.7 156.9 32.7L156.9 32.7Q157.4 32.7 157.8 32.3Q158.1 31.9 158.1 31.3L158.1 31.3L158.1 30.7Q158.1 30.1 157.8 29.7Q157.4 29.3 156.9 29.3L156.9 29.3Q156.3 29.3 155.9 29.7Q155.6 30.1 155.6 30.7L155.6 30.7ZM157.2 23.7L151.7 32.6L150.8 32.1L156.4 23.2L157.2 23.7Z "/><mask id="satori_om-id-1-1"><rect x="170" y="18" width="101" height="19" fill="#fff"/></mask><mask id="satori_om-id-1-1-0"><rect x="170" y="19" width="16" height="16" fill="#fff"/></mask><mask id="satori_om-id-1-1-0-0"><rect x="174" y="23" width="8" height="8" fill="#fff"/></mask><path x="174" y="23" width="8" height="8" fill="#00ADD8" d="M178,23 h0 a4,4 0 0 1 4,4 v0 a4,4 0 0 1 -4,4 h0 a4,4 0 0 1 -4,-4 v0 a4,4 0 0 1 4,-4"/><mask id="satori_om-id-1-1-1"><rect x="199" y="18" width="20" height="19" fill="#fff"/></mask><path fill="#fff" d="M209.0 27.5L209.0 32.0Q208.4 32.8 207.2 33.2Q206.1 33.6 204.7 33.6L204.7 33.6Q203.2 33.6 202.1 33.0Q201.0 32.4 200.4 31.1Q199.8 29.9 199.7 28.2L199.7 28.2L199.7 27.5Q199.7 25.8 200.3 24.5Q200.9 23.3 202.0 22.6Q203.0 22.0 204.5 22.0L204.5 22.0Q206.5 22.0 207.7 22.9Q208.8 23.9 209.0 25.7L209.0 25.7L206.7 25.7Q206.6 24.7 206.0 24.3Q205.5 23.8 204.6 23.8L204.6 23.8Q203.4 23.8 202.8 24.7Q202.1 25.6 202.1 27.4L202.1 27.4L202.1 28.1Q202.1 29.9 202.8 30.8Q203.5 31.8 204.8 31.8L204.8 31.8Q206.1 31.8 206.7 31.2L206.7 31.2L206.7 29.2L204.5 29.2L204.5 27.5L209.0 27.5ZM210.4 29.3L210.4 29.2Q210.4 27.9 210.9 26.9Q211.4 26.0 212.3 25.4Q213.2 24.9 214.4 24.9L214.4 24.9Q216.1 24.9 217.2 25.9Q218.3 27.0 218.4 28.8L218.4 28.8L218.4 29.3Q218.4 31.3 217.3 32.5Q216.3 33.6 214.4 33.6Q212.6 33.6 211.5 32.5Q210.4 31.3 210.4 29.3L210.4 29.3ZM212.7 29.3L212.7 29.3Q212.7 30.5 213.1 31.2Q213.6 31.8 214.4 31.8L214.4 31.8Q215.2 31.8 215.7 31.2Q216.2 30.6 216.2 29.2L216.2 29.2Q216.2 28.0 215.7 27.4Q215.2 26.7 214.4 26.7L214.4 26.7Q213.6 26.7 213.1 27.3Q212.7 28.0 212.7 29.3Z "/><mask id="satori_om-id-1-1-2"><rect x="228" y="18" width="43" height="19" fill="#fff"/></mask><path fill="#7d8590" d="M233.7 22.1L233.7 33.5L232.2 33.5L232.2 23.9L229.3 24.9L229.3 23.6L233.5 22.1L233.7 22.1ZM243.3 22.1L243.6 22.1L243.6 23.3L243.3 23.3Q241.6 23.4 240.6 24.3Q239.6 25.3 239.5 27.1L239.5 27.1Q240.4 26.0 241.9 26.0L241.9 26.0Q243.4 26.0 244.3 27.1Q245.2 28.1 245.2 29.8L245.2 29.8Q245.2 31.5 244.2 32.6Q243.3 33.6 241.7 33.6L241.7 33.6Q240.0 33.6 239.0 32.4Q238.0 31.1 238.0 29.2L238.0 29.2L238.0 28.6Q238.0 25.5 239.4 23.8Q240.7 22.1 243.3 22.1L243.3 22.1ZM241.7 27.2L241.7 27.2Q241.0 27.2 240.3 27.7Q239.7 28.1 239.5 28.8L239.5 28.8L239.5 29.3Q239.5 30.7 240.1 31.6Q240.7 32.4 241.7 32.4L241.7 32.4Q242.7 32.4 243.2 31.7Q243.8 31.0 243.8 29.8L243.8 29.8Q243.8 28.7 243.2 27.9Q242.6 27.2 241.7 27.2ZM247.1 32.7L247.1 32.7Q247.1 32.4 247.3 32.1Q247.5 31.9 248.0 31.9Q248.4 31.9 248.7 32.1Q248.9 32.4 248.9 32.7L248.9 32.7Q248.9 33.1 248.7 33.3Q248.4 33.6 248.0 33.6Q247.5 33.6 247.3 33.3Q247.1 33.1 247.1 32.7ZM255.9 22.1L255.9 33.5L254.4 33.5L254.4 23.9L251.5 24.9L251.5 23.6L255.6 22.1L255.9 22.1ZM260.0 24.8L260.0 24.3Q260.0 23.3 260.6 22.6Q261.3 21.9 262.3 21.9L262.3 21.9Q263.4 21.9 264.0 22.6Q264.6 23.3 264.6 24.3L264.6 24.3L264.6 24.9Q264.6 25.9 264.0 26.6Q263.3 27.2 262.3 27.2L262.3 27.2Q261.3 27.2 260.6 26.6Q260.0 25.9 260.0 24.8L260.0 24.8ZM261.1 24.3L261.1 24.9Q261.1 25.5 261.4 25.9Q261.8 26.3 262.3 26.3L262.3 26.3Q262.9 26.3 263.2 25.9Q263.6 25.5 263.6 24.9L263.6 24.9L263.6 24.3Q263.6 23.7 263.2 23.3Q262.9 22.9 262.3 22.9Q261.7 22.9 261.4 23.3Q261.1 23.7 261.1 24.3L261.1 24.3ZM265.5 31.3L265.5 30.7Q265.5 29.7 266.2 29.0Q266.8 28.4 267.9 28.4Q268.9 28.4 269.5 29.0Q270.2 29.7 270.2 30.7L270.2 30.7L270.2 31.3Q270.2 32.3 269.5 33.0Q268.9 33.6 267.9 33.6Q266.9 33.6 266.2 33.0Q265.5 32.3 265.5 31.3L265.5 31.3ZM266.6 30.7L266.6 31.3Q266.6 31.9 266.9 32.3Q267.3 32.7 267.9 32.7L267.9 32.7Q268.4 32.7 268.8 32.3Q269.1 31.9 269.1 31.3L269.1 31.3L269.1 30.7Q269.1 30.1 268.8 29.7Q268.4 29.3 267.9 29.3L267.9 29.3Q267.3 29.3 266.9 29.7Q266.6 30.1 266.6 30.7L266.6 30.7ZM268.2 23.7L262.7 32.6L261.8 32.1L267.4 23.2L268.2 23.7Z "/><mask id="satori_om-id-1-2"><rect x="0" y="47" width="132" height="19" fill="#fff"/></mask><mask id="satori_om-id-1-2-0"><rect x="0" y="48" width="16" height="16" fill="#fff"/></mask><mask id="satori_om-id-1-2-0-0"><rect x="4" y="52" width="8" height="8" fill="#fff"/></mask><path x="4" y="52" width="8" height="8" fill="#3572A5" d="M8,52 h0 a4,4 0 0 1 4,4 v0 a4,4 0 0 1 -4,4 h0 a4,4 0 0 1 -4,-4 v0 a4,4 0 0 1 4,-4"/><mask id="satori_om-id-1-2-1"><rect x="29" y="47" width="51" height="19" fill="#fff"/></mask><path fill="#fff" d="M34.4 58.5L32.4 58.5L32.4 62.5L30.0 62.5L30.0 51.1L34.5 51.1Q35.7 51.1 36.7 51.6Q37.7 52.0 38.2 52.9Q38.7 53.8 38.7 54.9L38.7 54.9Q38.7 56.5 37.6 57.5Q36.4 58.5 34.4 58.5L34.4 58.5ZM32.4 53.0L32.4 56.6L34.5 56.6Q35.4 56.6 35.9 56.1Q36.4 55.7 36.4 54.9L36.4 54.9Q36.4 54.1 35.9 53.5Q35.4 53.0 34.5 53.0L34.5 53.0L32.4 53.0ZM41.9 54.0L43.5 59.3L45.0 54.0L47.4 54.0L44.0 63.8L43.9 64.2Q43.1 65.9 41.4 65.9L41.4 65.9Q40.9 65.9 40.4 65.7L40.4 65.7L40.4 64.0L40.7 64.0Q41.3 64.0 41.7 63.9Q42.0 63.7 42.2 63.2L42.2 63.2L42.4 62.5L39.5 54.0L41.9 54.0ZM48.8 52.0L51.0 52.0L51.0 54.0L52.5 54.0L52.5 55.7L51.0 55.7L51.0 59.9Q51.0 60.4 51.2 60.6Q51.4 60.8 51.9 60.8L51.9 60.8Q52.3 60.8 52.6 60.7L52.6 60.7L52.6 62.4Q51.9 62.6 51.2 62.6L51.2 62.6Q48.8 62.6 48.8 60.2L48.8 60.2L48.8 55.7L47.5 55.7L47.5 54.0L48.8 54.0L48.8 52.0ZM55.9 50.5L55.9 55.0Q56.8 53.9 58.2 53.9L58.2 53.9Q61.0 53.9 61.0 57.1L61.0 57.1L61.0 62.5L58.7 62.5L58.7 57.1Q58.7 56.4 58.4 56.1Q58.1 55.7 57.4 55.7L57.4 55.7Q56.4 55.7 55.9 56.5L55.9 56.5L55.9 62.5L53.7 62.5L53.7 50.5L55.9 50.5ZM62.3 58.3L62.3 58.2Q62.3 56.9 62.8 55.9Q63.3 55.0 64.2 54.4Q65.1 53.9 66.3 53.9L66.3 53.9Q68.0 53.9 69.1 54.9Q70.2 56.0 70.3 57.8L70.3 57.8L70.4 58.3Q70.4 60.3 69.3 61.5Q68.2 62.6 66.4 62.6Q64.5 62.6 63.4 61.5Q62.3 60.3 62.3 58.3L62.3 58.3ZM64.6 58.3L64.6 58.3Q64.6 59.5 65.1 60.2Q65.5 60.8 66.4 60.8L66.4 60.8Q67.2 60.8 67.6 60.2Q68.1 59.6 68.1 58.2L68.1 58.2Q68.1 57.0 67.6 56.4Q67.2 55.7 66.3 55.7L66.3 55.7Q65.5 55.7 65.1 56.3Q64.6 57.0 64.6 58.3ZM71.7 54.0L73.8 54.0L73.9 55.0Q74.8 53.9 76.3 53.9L76.3 53.9Q77.7 53.9 78.3 54.7Q79.0 55.5 79.0 57.0L79.0 57.0L79.0 62.5L76.7 62.5L76.7 57.1Q76.7 56.4 76.4 56.0Q76.1 55.7 75.4 55.7L75.4 55.7Q74.4 55.7 74.0 56.5L74.0 56.5L74.0 62.5L71.7 62.5L71.7 54.0Z "/><mask id="satori_om-id-1-2-2"><rect x="89" y="47" width="43" height="19" fill="#fff"/></mask><path fill="#7d8590" d="M94.7 51.1L94.7 62.5L93.2 62.5L93.2 52.9L90.3 53.9L90.3 52.6L94.5 51.1L94.7 51.1ZM101.0 57.3L101.0 56.1L102.1 56.1Q103.1 56.1 103.7 55.6Q104.3 55.0 104.3 54.1L104.3 54.1Q104.3 52.1 102.3 52.1L102.3 52.1Q101.4 52.1 100.8 52.7Q100.3 53.2 100.3 54.1L100.3 54.1L98.8 54.1Q98.8 52.7 99.8 51.8Q100.8 51.0 102.3 51.0L102.3 51.0Q103.9 51.0 104.8 51.8Q105.8 52.7 105.8 54.2L105.8 54.2Q105.8 54.9 105.3 55.6Q104.8 56.3 104.0 56.6L104.0 56.6Q104.9 56.9 105.4 57.6Q105.9 58.3 105.9 59.3L105.9 59.3Q105.9 60.8 104.9 61.7Q103.9 62.6 102.3 62.6Q100.7 62.6 99.7 61.8Q98.7 60.9 98.7 59.5L98.7 59.5L100.2 59.5Q100.2 60.4 100.8 60.9Q101.3 61.5 102.3 61.5L102.3 61.5Q103.4 61.5 103.9 60.9Q104.5 60.4 104.5 59.3L104.5 59.3Q104.5 58.4 103.9 57.8Q103.3 57.3 102.1 57.3L102.1 57.3L101.0 57.3ZM108.1 61.7L108.1 61.7Q108.1 61.4 108.3 61.1Q108.5 60.9 109.0 60.9Q109.4 60.9 109.7 61.1Q109.9 61.4 109.9 61.7L109.9 61.7Q109.9 62.1 109.7 62.3Q109.4 62.6 109.0 62.6Q108.5 62.6 108.3 62.3Q108.1 62.1 108.1 61.7ZM119.3 55.8L119.3 57.6Q119.3 60.2 118.4 61.4Q117.5 62.6 115.7 62.6L115.7 62.6Q113.9 62.6 113.0 61.4Q112.1 60.2 112.1 57.8L112.1 57.8L112.1 55.9Q112.1 53.4 112.9 52.2Q113.8 51.0 115.7 51.0L115.7 51.0Q117.5 51.0 118.4 52.1Q119.2 53.3 119.3 55.8L119.3 55.8ZM117.8 58.0L117.8 55.7Q117.8 53.8 117.3 53.0Q116.8 52.1 115.7 52.1L115.7 52.1Q114.6 52.1 114.0 53.0Q113.5 53.8 113.5 55.5L113.5 55.5L113.5 57.9Q113.5 59.7 114.1 60.6Q114.6 61.5 115.7 61.5L115.7 61.5Q116.8 61.5 117.3 60.6Q117.8 59.8 117.8 58.0L117.8 58.0ZM121.0 53.8L121.0 53.3Q121.0 52.3 121.6 51.6Q122.3 50.9 123.3 50.9L123.3 50.9Q124.4 50.9 125.0 51.6Q125.6 52.3 125.6 53.3L125.6 53.3L125.6 53.9Q125.6 54.9 125.0 55.6Q124.3 56.2 123.3 56.2L123.3 56.2Q122.3 56.2 121.6 55.6Q121.0 54.9 121.0 53.8L121.0 53.8ZM122.1 53.3L122.1 53.9Q122.1 54.5 122.4 54.9Q122.8 55.3 123.3 55.3L123.3 55.3Q123.9 55.3 124.2 54.9Q124.6 54.5 124.6 53.9L124.6 53.9L124.6 53.3Q124.6 52.7 124.2 52.3Q123.9 51.9 123.3 51.9Q122.7 51.9 122.4 52.3Q122.1 52.7 122.1 53.3L122.1 53.3ZM126.5 60.3L126.5 59.7Q126.5 58.7 127.2 58.0Q127.8 57.4 128.9 57.4Q129.9 57.4 130.5 58.0Q131.2 58.7 131.2 59.7L131.2 59.7L131.2 60.3Q131.2 61.3 130.5 62.0Q129.9 62.6 128.9 62.6Q127.9 62.6 127.2 62.0Q126.5 61.3 126.5 60.3L126.5 60.3ZM127.6 59.7L127.6 60.3Q127.6 60.9 127.9 61.3Q128.3 61.7 128.9 61.7L128.9 61.7Q129.4 61.7 129.8 61.3Q130.1 60.9 130.1 60.3L130.1 60.3L130.1 59.7Q130.1 59.1 129.8 58.7Q129.4 58.3 128.9 58.3L128.9 58.3Q128.3 58.3 127.9 58.7Q127.6 59.1 127.6 59.7L127.6 59.7ZM129.2 52.7L123.7 61.6L122.8 61.1L128.4 52.2L129.2 52.7Z "/><mask id="satori_om-id-1-3"><rect x="142" y="47" width="103" height="19" fill="#fff"/></mask><mask id="satori_om-id-1-3-0"><rect x="142" y="48" width="16" height="16" fill="#fff"/></mask><mask id="satori_om-id-1-3-0-0"><rect x="146" y="52" width="8" height="8" fill="#fff"/></mask><path x="146" y="52" width="8" height="8" fill="#844FBA" d="M150,52 h0 a4,4 0 0 1 4,4 v0 a4,4 0 0 1 -4,4 h0 a4,4 0 0 1 -4,-4 v0 a4,4 0 0 1 4,-4"/><mask id="satori_om-id-1-3-1"><rect x="171" y="47" width="31" height="19" fill="#fff"/></mask><path fill="#fff" d="M181.3 51.1L181.3 62.5L178.9 62.5L178.9 57.6L174.4 57.6L174.4 62.5L172.0 62.5L172.0 51.1L174.4 51.1L174.4 55.7L178.9 55.7L178.9 51.1L181.3 51.1ZM189.9 58.7L192.3 58.7Q192.1 60.5 190.9 61.6Q189.7 62.6 187.7 62.6L187.7 62.6Q185.5 62.6 184.2 61.2Q183.0 59.7 183.0 57.1L183.0 57.1L183.0 56.4Q183.0 54.8 183.6 53.5Q184.1 52.3 185.2 51.6Q186.3 51.0 187.7 51.0L187.7 51.0Q189.7 51.0 190.9 52.0Q192.1 53.1 192.3 55.0L192.3 55.0L189.9 55.0Q189.8 53.9 189.3 53.4Q188.8 52.9 187.7 52.9L187.7 52.9Q186.5 52.9 185.9 53.7Q185.4 54.6 185.4 56.3L185.4 56.3L185.4 57.2Q185.4 59.0 185.9 59.9Q186.5 60.7 187.7 60.7L187.7 60.7Q188.8 60.7 189.3 60.2Q189.8 59.7 189.9 58.7L189.9 58.7ZM196.1 51.1L196.1 60.6L201.1 60.6L201.1 62.5L193.8 62.5L193.8 51.1L196.1 51.1Z "/><mask id="satori_om-id-1-3-2"><rect x="211" y="47" width="34" height="19" fill="#fff"/></mask><path fill="#7d8590" d="M219.3 51.1L219.3 51.9L214.6 62.5L213.1 62.5L217.8 52.3L211.6 52.3L211.6 51.1L219.3 51.1ZM221.1 61.7L221.1 61.7Q221.1 61.4 221.3 61.1Q221.6 60.9 222 60.9Q222.4 60.9 222.7 61.1Q222.9 61.4 222.9 61.7L222.9 61.7Q222.9 62.1 222.7 62.3Q222.4 62.6 222 62.6Q221.6 62.6 221.3 62.3Q221.1 62.1 221.1 61.7ZM229.9 51.1L229.9 62.5L228.4 62.5L228.4 52.9L225.5 53.9L225.5 52.6L229.7 51.1L229.9 51.1ZM234 53.8L234 53.3Q234 52.3 234.7 51.6Q235.3 50.9 236.3 50.9L236.3 50.9Q237.4 50.9 238.0 51.6Q238.7 52.3 238.7 53.3L238.7 53.3L238.7 53.9Q238.7 54.9 238.0 55.6Q237.4 56.2 236.3 56.2L236.3 56.2Q235.3 56.2 234.7 55.6Q234 54.9 234 53.8L234 53.8ZM235.1 53.3L235.1 53.9Q235.1 54.5 235.4 54.9Q235.8 55.3 236.3 55.3L236.3 55.3Q236.9 55.3 237.2 54.9Q237.6 54.5 237.6 53.9L237.6 53.9L237.6 53.3Q237.6 52.7 237.2 52.3Q236.9 51.9 236.3 51.9Q235.8 51.9 235.4 52.3Q235.1 52.7 235.1 53.3L235.1 53.3ZM239.5 60.3L239.5 59.7Q239.5 58.7 240.2 58.0Q240.8 57.4 241.9 57.4Q242.9 57.4 243.5 58.0Q244.2 58.7 244.2 59.7L244.2 59.7L244.2 60.3Q244.2 61.3 243.6 62.0Q242.9 62.6 241.9 62.6Q240.9 62.6 240.2 62.0Q239.5 61.3 239.5 60.3L239.5 60.3ZM240.6 59.7L240.6 60.3Q240.6 60.9 241.0 61.3Q241.3 61.7 241.9 61.7L241.9 61.7Q242.4 61.7 242.8 61.3Q243.1 60.9 243.1 60.3L243.1 60.3L243.1 59.7Q243.1 59.1 242.8 58.7Q242.4 58.3 241.9 58.3L241.9 58.3Q241.3 58.3 241.0 58.7Q240.6 59.1 240.6 59.7L240.6 59.7ZM242.2 52.7L236.7 61.6L235.9 61.1L241.4 52.2L242.2 52.7Z "/><mask id="satori_om-id-1-4"><rect x="255" y="47" width="115" height="19" fill="#fff"/></mask><mask id="satori_om-id-1-4-0"><rect x="255" y="48" width="16" height="16" fill="#fff"/></mask><mask id="satori_om-id-1-4-0-0"><rect x="259" y="52" width="8" height="8" fill="#fff"/></mask><path x="259" y="52" width="8" height="8" fill="#A97BFF" d="M263,52 h0 a4,4 0 0 1 4,4 v0 a4,4 0 0 1 -4,4 h0 a4,4 0 0 1 -4,-4 v0 a4,4 0 0 1 4,-4"/><mask id="satori_om-id-1-4-1"><rect x="284" y="47" width="43" height="19" fill="#fff"/></mask><path fill="#fff" d="M291.5 62.5L288.6 57.9L287.4 59.2L287.4 62.5L285.0 62.5L285.0 51.1L287.4 51.1L287.4 56.3L288.4 54.9L291.3 51.1L294.2 51.1L290.1 56.2L294.3 62.5L291.5 62.5ZM294.5 58.3L294.5 58.2Q294.5 56.9 294.9 55.9Q295.4 55.0 296.3 54.4Q297.3 53.9 298.5 53.9L298.5 53.9Q300.2 53.9 301.2 54.9Q302.3 56.0 302.5 57.8L302.5 57.8L302.5 58.3Q302.5 60.3 301.4 61.5Q300.3 62.6 298.5 62.6Q296.6 62.6 295.6 61.5Q294.5 60.3 294.5 58.3L294.5 58.3ZM296.7 58.3L296.7 58.3Q296.7 59.5 297.2 60.2Q297.6 60.8 298.5 60.8L298.5 60.8Q299.3 60.8 299.8 60.2Q300.2 59.6 300.2 58.2L300.2 58.2Q300.2 57.0 299.8 56.4Q299.3 55.7 298.5 55.7L298.5 55.7Q297.6 55.7 297.2 56.3Q296.7 57.0 296.7 58.3ZM304.3 52.0L306.6 52.0L306.6 54.0L308.0 54.0L308.0 55.7L306.6 55.7L306.6 59.9Q306.6 60.4 306.7 60.6Q306.9 60.8 307.4 60.8L307.4 60.8Q307.8 60.8 308.1 60.7L308.1 60.7L308.1 62.4Q307.4 62.6 306.7 62.6L306.7 62.6Q304.4 62.6 304.3 60.2L304.3 60.2L304.3 55.7L303.1 55.7L303.1 54.0L304.3 54.0L304.3 52.0ZM311.6 50.5L311.6 62.5L309.4 62.5L309.4 50.5L311.6 50.5ZM315.9 54.0L315.9 62.5L313.6 62.5L313.6 54.0L315.9 54.0ZM313.5 51.8L313.5 51.8Q313.5 51.3 313.8 51.0Q314.2 50.7 314.8 50.7L314.8 50.7Q315.3 50.7 315.7 51.0Q316.0 51.3 316.0 51.8L316.0 51.8Q316.0 52.4 315.7 52.7Q315.3 53.0 314.8 53.0Q314.2 53.0 313.8 52.7Q313.5 52.4 313.5 51.8ZM317.7 54.0L319.8 54.0L319.9 55.0Q320.8 53.9 322.3 53.9L322.3 53.9Q323.7 53.9 324.3 54.7Q325.0 55.5 325 57.0L325 57.0L325 62.5L322.7 62.5L322.7 57.1Q322.7 56.4 322.4 56.0Q322.1 55.7 321.4 55.7L321.4 55.7Q320.4 55.7 320.0 56.5L320.0 56.5L320.0 62.5L317.7 62.5L317.7 54.0Z "/><mask id="satori_om-id-1-4-2"><rect x="336" y="47" width="34" height="19" fill="#fff"/></mask><path fill="#7d8590" d="M338.8 57.1L337.6 56.8L338.2 51.1L344.0 51.1L344.0 52.4L339.4 52.4L339.1 55.5Q339.9 55.1 341.0 55.1L341.0 55.1Q342.5 55.1 343.4 56.1Q344.4 57.1 344.4 58.9L344.4 58.9Q344.4 60.6 343.4 61.6Q342.5 62.6 340.8 62.6L340.8 62.6Q339.2 62.6 338.3 61.8Q337.3 61.0 337.2 59.5L337.2 59.5L338.6 59.5Q338.7 60.5 339.3 61.0Q339.8 61.5 340.8 61.5L340.8 61.5Q341.8 61.5 342.3 60.8Q342.9 60.1 342.9 58.9L342.9 58.9Q342.9 57.7 342.3 57.0Q341.7 56.4 340.6 56.4L340.6 56.4Q339.7 56.4 339.1 56.8L339.1 56.8L338.8 57.1ZM346.1 61.7L346.1 61.7Q346.1 61.4 346.3 61.1Q346.6 60.9 347 60.9Q347.4 60.9 347.7 61.1Q347.9 61.4 347.9 61.7L347.9 61.7Q347.9 62.1 347.7 62.3Q347.4 62.6 347 62.6Q346.6 62.6 346.3 62.3Q346.1 62.1 346.1 61.7ZM356.2 51.1L356.2 58.7L357.8 58.7L357.8 59.8L356.2 59.8L356.2 62.5L354.8 62.5L354.8 59.8L349.6 59.8L349.6 59.0L354.7 51.1L356.2 51.1ZM354.6 53.4L351.3 58.7L354.8 58.7L354.8 53.1L354.6 53.4ZM359 53.8L359 53.3Q359 52.3 359.7 51.6Q360.3 50.9 361.3 50.9L361.3 50.9Q362.4 50.9 363.0 51.6Q363.7 52.3 363.7 53.3L363.7 53.3L363.7 53.9Q363.7 54.9 363.0 55.6Q362.4 56.2 361.3 56.2L361.3 56.2Q360.3 56.2 359.7 55.6Q359 54.9 359 53.8L359 53.8ZM360.1 53.3L360.1 53.9Q360.1 54.5 360.4 54.9Q360.8 55.3 361.3 55.3L361.3 55.3Q361.9 55.3 362.2 54.9Q362.6 54.5 362.6 53.9L362.6 53.9L362.6 53.3Q362.6 52.7 362.2 52.3Q361.9 51.9 361.3 51.9Q360.8 51.9 360.4 52.3Q360.1 52.7 360.1 53.3L360.1 53.3ZM364.5 60.3L364.5 59.7Q364.5 58.7 365.2 58.0Q365.8 57.4 366.9 57.4Q367.9 57.4 368.5 58.0Q369.2 58.7 369.2 59.7L369.2 59.7L369.2 60.3Q369.2 61.3 368.6 62.0Q367.9 62.6 366.9 62.6Q365.9 62.6 365.2 62.0Q364.5 61.3 364.5 60.3L364.5 60.3ZM365.6 59.7L365.6 60.3Q365.6 60.9 366.0 61.3Q366.3 61.7 366.9 61.7L366.9 61.7Q367.4 61.7 367.8 61.3Q368.1 60.9 368.1 60.3L368.1 60.3L368.1 59.7Q368.1 59.1 367.8 58.7Q367.4 58.3 366.9 58.3L366.9 58.3Q366.3 58.3 366.0 58.7Q365.6 59.1 365.6 59.7L365.6 59.7ZM367.2 52.7L361.7 61.6L360.9 61.1L366.4 52.2L367.2 52.7Z "/><mask id="satori_om-id-1-5"><rect x="0" y="76" width="117" height="18" fill="#fff"/></mask><mask id="satori_om-id-1-5-0"><rect x="0" y="77" width="16" height="16" fill="#fff"/></mask><mask id="satori_om-id-1-5-0-0"><rect x="4" y="81" width="8" height="8" fill="#fff"/></mask><path x="4" y="81" width="8" height="8" fill="#ff3e00" d="M8,81 h0 a4,4 0 0 1 4,4 v0 a4,4 0 0 1 -4,4 h0 a4,4 0 0 1 -4,-4 v0 a4,4 0 0 1 4,-4"/><mask id="satori_om-id-1-5-1"><rect x="29" y="76" width="45" height="18" fill="#fff"/></mask><path fill="#fff" d="M35.9 88.5L35.9 88.5Q35.9 87.8 35.4 87.5Q35.0 87.1 33.8 86.7Q32.5 86.3 31.8 86.0L31.8 86.0Q29.9 84.9 29.9 83.1L29.9 83.1Q29.9 82.2 30.4 81.5Q30.9 80.8 31.9 80.4Q32.9 80.0 34.1 80.0L34.1 80.0Q35.3 80.0 36.3 80.4Q37.2 80.8 37.7 81.6Q38.3 82.4 38.3 83.5L38.3 83.5L35.9 83.5Q35.9 82.7 35.4 82.3Q34.9 81.8 34.0 81.8L34.0 81.8Q33.2 81.8 32.7 82.2Q32.2 82.5 32.2 83.1L32.2 83.1Q32.2 83.7 32.8 84.1Q33.4 84.4 34.4 84.8L34.4 84.8Q36.4 85.4 37.4 86.3Q38.3 87.2 38.3 88.5L38.3 88.5Q38.3 90.0 37.1 90.8Q36.0 91.6 34.1 91.6L34.1 91.6Q32.8 91.6 31.8 91.2Q30.7 90.7 30.1 89.8Q29.5 89.0 29.5 87.9L29.5 87.9L31.9 87.9Q31.9 89.8 34.1 89.8L34.1 89.8Q35.0 89.8 35.4 89.4Q35.9 89.1 35.9 88.5ZM41.3 83.0L42.9 88.7L44.4 83.0L46.8 83.0L43.9 91.5L41.8 91.5L38.9 83.0L41.3 83.0ZM51.6 91.6L51.6 91.6Q49.7 91.6 48.6 90.5Q47.4 89.4 47.4 87.5L47.4 87.5L47.4 87.2Q47.4 86.0 47.9 85.0Q48.4 84.0 49.3 83.4Q50.2 82.9 51.3 82.9L51.3 82.9Q53.1 82.9 54.1 84.0Q55.1 85.1 55.1 87.1L55.1 87.1L55.1 88.0L49.7 88.0Q49.8 88.8 50.3 89.3Q50.9 89.8 51.7 89.8L51.7 89.8Q53.0 89.8 53.8 88.9L53.8 88.9L54.9 90.1Q54.4 90.8 53.5 91.2Q52.6 91.6 51.6 91.6ZM51.3 84.7L51.3 84.7Q50.6 84.7 50.2 85.2Q49.8 85.6 49.7 86.5L49.7 86.5L52.8 86.5L52.8 86.3Q52.8 85.5 52.4 85.1Q52.0 84.7 51.3 84.7ZM58.7 79.5L58.7 91.5L56.5 91.5L56.5 79.5L58.7 79.5ZM61.0 81.0L63.3 81.0L63.3 83.0L64.7 83.0L64.7 84.7L63.3 84.7L63.3 88.9Q63.3 89.4 63.5 89.6Q63.6 89.8 64.1 89.8L64.1 89.8Q64.5 89.8 64.8 89.7L64.8 89.7L64.8 91.4Q64.1 91.6 63.4 91.6L63.4 91.6Q61.1 91.6 61.0 89.2L61.0 89.2L61.0 84.7L59.8 84.7L59.8 83.0L61.0 83.0L61.0 81.0ZM69.9 91.6L69.9 91.6Q68.0 91.6 66.8 90.5Q65.7 89.4 65.7 87.5L65.7 87.5L65.7 87.2Q65.7 86.0 66.2 85.0Q66.7 84.0 67.6 83.4Q68.5 82.9 69.6 82.9L69.6 82.9Q71.4 82.9 72.4 84.0Q73.4 85.1 73.4 87.1L73.4 87.1L73.4 88.0L68.0 88.0Q68.1 88.8 68.6 89.3Q69.2 89.8 70.0 89.8L70.0 89.8Q71.3 89.8 72.1 88.9L72.1 88.9L73.2 90.1Q72.7 90.8 71.8 91.2Q70.9 91.6 69.9 91.6ZM69.6 84.7L69.6 84.7Q68.9 84.7 68.5 85.2Q68.1 85.6 68.0 86.5L68.0 86.5L71.1 86.5L71.1 86.3Q71.1 85.5 70.7 85.1Q70.3 84.7 69.6 84.7Z "/><mask id="satori_om-id-1-5-2"><rect x="83" y="76" width="34" height="18" fill="#fff"/></mask><path fill="#7d8590" d="M85.8 86.1L84.6 85.8L85.2 80.1L91.0 80.1L91.0 81.4L86.4 81.4L86.1 84.5Q86.9 84.1 88.0 84.1L88.0 84.1Q89.5 84.1 90.4 85.1Q91.4 86.1 91.4 87.9L91.4 87.9Q91.4 89.6 90.4 90.6Q89.5 91.6 87.8 91.6L87.8 91.6Q86.2 91.6 85.3 90.8Q84.3 90.0 84.2 88.5L84.2 88.5L85.6 88.5Q85.7 89.5 86.3 90.0Q86.8 90.5 87.8 90.5L87.8 90.5Q88.8 90.5 89.3 89.8Q89.9 89.1 89.9 87.9L89.9 87.9Q89.9 86.7 89.3 86.0Q88.7 85.4 87.6 85.4L87.6 85.4Q86.7 85.4 86.1 85.8L86.1 85.8L85.8 86.1ZM93.1 90.7L93.1 90.7Q93.1 90.4 93.3 90.1Q93.6 89.9 94 89.9Q94.4 89.9 94.7 90.1Q94.9 90.4 94.9 90.7L94.9 90.7Q94.9 91.1 94.7 91.3Q94.4 91.6 94 91.6Q93.6 91.6 93.3 91.3Q93.1 91.1 93.1 90.7ZM103.2 80.1L103.2 87.7L104.8 87.7L104.8 88.8L103.2 88.8L103.2 91.5L101.8 91.5L101.8 88.8L96.6 88.8L96.6 88.0L101.7 80.1L103.2 80.1ZM101.6 82.4L98.3 87.7L101.8 87.7L101.8 82.1L101.6 82.4ZM106 82.8L106 82.3Q106 81.3 106.7 80.6Q107.3 79.9 108.3 79.9L108.3 79.9Q109.4 79.9 110.0 80.6Q110.7 81.3 110.7 82.3L110.7 82.3L110.7 82.9Q110.7 83.9 110.0 84.6Q109.4 85.2 108.3 85.2L108.3 85.2Q107.3 85.2 106.7 84.6Q106 83.9 106 82.8L106 82.8ZM107.1 82.3L107.1 82.9Q107.1 83.5 107.4 83.9Q107.8 84.3 108.3 84.3L108.3 84.3Q108.9 84.3 109.2 83.9Q109.6 83.5 109.6 82.9L109.6 82.9L109.6 82.3Q109.6 81.7 109.2 81.3Q108.9 80.9 108.3 80.9Q107.8 80.9 107.4 81.3Q107.1 81.7 107.1 82.3L107.1 82.3ZM111.5 89.3L111.5 88.7Q111.5 87.7 112.2 87.0Q112.8 86.4 113.9 86.4Q114.9 86.4 115.5 87.0Q116.2 87.7 116.2 88.7L116.2 88.7L116.2 89.3Q116.2 90.3 115.6 91.0Q114.9 91.6 113.9 91.6Q112.9 91.6 112.2 91.0Q111.5 90.3 111.5 89.3L111.5 89.3ZM112.6 88.7L112.6 89.3Q112.6 89.9 113.0 90.3Q113.3 90.7 113.9 90.7L113.9 90.7Q114.4 90.7 114.8 90.3Q115.1 89.9 115.1 89.3L115.1 89.3L115.1 88.7Q115.1 88.1 114.8 87.7Q114.4 87.3 113.9 87.3L113.9 87.3Q113.3 87.3 113.0 87.7Q112.6 88.1 112.6 88.7L112.6 88.7ZM114.2 81.7L108.7 90.6L107.9 90.1L113.4 81.2L114.2 81.7Z "/><mask id="satori_om-id-1-6"><rect x="127" y="76" width="83" height="18" fill="#fff"/></mask><mask id="satori_om-id-1-6-0"><rect x="127" y="77" width="16" height="16" fill="#fff"/></mask><mask id="satori_om-id-1-6-0-0"><rect x="131" y="81" width="8" height="8" fill="#fff"/></mask><path x="131" y="81" width="8" height="8" fill="#555555" d="M135,81 h0 a4,4 0 0 1 4,4 v0 a4,4 0 0 1 -4,4 h0 a4,4 0 0 1 -4,-4 v0 a4,4 0 0 1 4,-4"/><mask id="satori_om-id-1-6-1"><rect x="156" y="76" width="11" height="18" fill="#fff"/></mask><path fill="#fff" d="M163.6 87.7L165.9 87.7Q165.8 89.5 164.6 90.6Q163.4 91.6 161.4 91.6L161.4 91.6Q159.2 91.6 157.9 90.2Q156.7 88.7 156.7 86.1L156.7 86.1L156.7 85.4Q156.7 83.8 157.3 82.5Q157.8 81.3 158.9 80.6Q160.0 80.0 161.4 80.0L161.4 80.0Q163.4 80.0 164.6 81.0Q165.8 82.1 166.0 84.0L166.0 84.0L163.6 84.0Q163.5 82.9 163.0 82.4Q162.5 81.9 161.4 81.9L161.4 81.9Q160.2 81.9 159.6 82.7Q159.1 83.6 159.0 85.3L159.0 85.3L159.0 86.2Q159.0 88.0 159.6 88.9Q160.2 89.7 161.4 89.7L161.4 89.7Q162.5 89.7 163.0 89.2Q163.5 88.7 163.6 87.7L163.6 87.7Z "/><mask id="satori_om-id-1-6-2"><rect x="176" y="76" width="34" height="18" fill="#fff"/></mask><path fill="#7d8590" d="M179.0 86.3L179.0 85.1L180.1 85.1Q181.2 85.1 181.7 84.6Q182.3 84.0 182.3 83.1L182.3 83.1Q182.3 81.1 180.3 81.1L180.3 81.1Q179.4 81.1 178.8 81.7Q178.3 82.2 178.3 83.1L178.3 83.1L176.8 83.1Q176.8 81.7 177.8 80.8Q178.8 80.0 180.3 80.0L180.3 80.0Q181.9 80.0 182.9 80.8Q183.8 81.7 183.8 83.2L183.8 83.2Q183.8 83.9 183.3 84.6Q182.8 85.3 182.0 85.6L182.0 85.6Q182.9 85.9 183.4 86.6Q183.9 87.3 183.9 88.3L183.9 88.3Q183.9 89.8 182.9 90.7Q181.9 91.6 180.3 91.6Q178.7 91.6 177.7 90.8Q176.7 89.9 176.7 88.5L176.7 88.5L178.2 88.5Q178.2 89.4 178.8 89.9Q179.4 90.5 180.3 90.5L180.3 90.5Q181.4 90.5 181.9 89.9Q182.5 89.4 182.5 88.3L182.5 88.3Q182.5 87.4 181.9 86.8Q181.3 86.3 180.1 86.3L180.1 86.3L179.0 86.3ZM186.1 90.7L186.1 90.7Q186.1 90.4 186.3 90.1Q186.6 89.9 187 89.9Q187.4 89.9 187.7 90.1Q187.9 90.4 187.9 90.7L187.9 90.7Q187.9 91.1 187.7 91.3Q187.4 91.6 187 91.6Q186.6 91.6 186.3 91.3Q186.1 91.1 186.1 90.7ZM196.2 80.1L196.2 87.7L197.8 87.7L197.8 88.8L196.2 88.8L196.2 91.5L194.8 91.5L194.8 88.8L189.6 88.8L189.6 88.0L194.7 80.1L196.2 80.1ZM194.6 82.4L191.3 87.7L194.8 87.7L194.8 82.1L194.6 82.4ZM199 82.8L199 82.3Q199 81.3 199.7 80.6Q200.3 79.9 201.3 79.9L201.3 79.9Q202.4 79.9 203.0 80.6Q203.7 81.3 203.7 82.3L203.7 82.3L203.7 82.9Q203.7 83.9 203.0 84.6Q202.4 85.2 201.3 85.2L201.3 85.2Q200.3 85.2 199.7 84.6Q199 83.9 199 82.8L199 82.8ZM200.1 82.3L200.1 82.9Q200.1 83.5 200.4 83.9Q200.8 84.3 201.3 84.3L201.3 84.3Q201.9 84.3 202.2 83.9Q202.6 83.5 202.6 82.9L202.6 82.9L202.6 82.3Q202.6 81.7 202.2 81.3Q201.9 80.9 201.3 80.9Q200.8 80.9 200.4 81.3Q200.1 81.7 200.1 82.3L200.1 82.3ZM204.5 89.3L204.5 88.7Q204.5 87.7 205.2 87.0Q205.8 86.4 206.9 86.4Q207.9 86.4 208.5 87.0Q209.2 87.7 209.2 88.7L209.2 88.7L209.2 89.3Q209.2 90.3 208.6 91.0Q207.9 91.6 206.9 91.6Q205.9 91.6 205.2 91.0Q204.5 90.3 204.5 89.3L204.5 89.3ZM205.6 88.7L205.6 89.3Q205.6 89.9 206.0 90.3Q206.3 90.7 206.9 90.7L206.9 90.7Q207.4 90.7 207.8 90.3Q208.1 89.9 208.1 89.3L208.1 89.3L208.1 88.7Q208.1 88.1 207.8 87.7Q207.4 87.3 206.9 87.3L206.9 87.3Q206.3 87.3 206.0 87.7Q205.6 88.1 205.6 88.7L205.6 88.7ZM207.2 81.7L201.7 90.6L200.9 90.1L206.4 81.2L207.2 81.7Z "/><mask id="satori_om-id-1-7"><rect x="220" y="76" width="149" height="18" fill="#fff"/></mask><mask id="satori_om-id-1-7-0"><rect x="220" y="77" width="16" height="16" fill="#fff"/></mask><mask id="satori_om-id-1-7-0-0"><rect x="224" y="81" width="8" height="8" fill="#fff"/></mask><path x="224" y="81" width="8" height="8" fill="#f1e05a" d="M228,81 h0 a4,4 0 0 1 4,4 v0 a4,4 0 0 1 -4,4 h0 a4,4 0 0 1 -4,-4 v0 a4,4 0 0 1 4,-4"/><mask id="satori_om-id-1-7-1"><rect x="249" y="76" width="77" height="18" fill="#fff"/></mask><path fill="#fff" d="M254.6 88.0L254.6 80.1L256.9 80.1L256.9 88.0Q256.9 89.1 256.5 89.9Q256.0 90.7 255.1 91.2Q254.2 91.6 253.1 91.6L253.1 91.6Q251.3 91.6 250.3 90.7Q249.3 89.8 249.3 88.1L249.3 88.1L251.7 88.1Q251.7 89.0 252.0 89.4Q252.4 89.8 253.1 89.8L253.1 89.8Q253.8 89.8 254.2 89.3Q254.6 88.8 254.6 88.0L254.6 88.0ZM266.0 91.5L263.7 91.5Q263.5 91.2 263.5 90.7L263.5 90.7Q262.7 91.6 261.3 91.6L261.3 91.6Q260.1 91.6 259.3 90.9Q258.5 90.2 258.5 89.1L258.5 89.1Q258.5 87.8 259.5 87.0Q260.5 86.3 262.3 86.3L262.3 86.3L263.4 86.3L263.4 85.8Q263.4 85.2 263.1 84.9Q262.8 84.5 262.1 84.5L262.1 84.5Q261.6 84.5 261.2 84.8Q260.9 85.1 260.9 85.6L260.9 85.6L258.7 85.6Q258.7 84.8 259.1 84.2Q259.6 83.6 260.4 83.2Q261.2 82.9 262.3 82.9L262.3 82.9Q263.8 82.9 264.7 83.7Q265.6 84.4 265.6 85.9L265.6 85.9L265.6 89.5Q265.7 90.7 266.0 91.4L266.0 91.4L266.0 91.5ZM261.8 89.9L261.8 89.9Q262.3 89.9 262.8 89.7Q263.2 89.5 263.4 89.1L263.4 89.1L263.4 87.6L262.5 87.6Q260.8 87.6 260.7 88.8L260.7 88.8L260.7 88.9Q260.7 89.4 261.0 89.6Q261.3 89.9 261.8 89.9ZM268.9 83.0L270.4 88.7L272 83.0L274.4 83.0L271.5 91.5L269.4 91.5L266.5 83.0L268.9 83.0ZM282.4 91.5L280.1 91.5Q280.0 91.2 279.9 90.7L279.9 90.7Q279.1 91.6 277.8 91.6L277.8 91.6Q276.5 91.6 275.7 90.9Q274.9 90.2 274.9 89.1L274.9 89.1Q274.9 87.8 275.9 87.0Q276.9 86.3 278.8 86.3L278.8 86.3L279.8 86.3L279.8 85.8Q279.8 85.2 279.5 84.9Q279.2 84.5 278.6 84.5L278.6 84.5Q278.0 84.5 277.7 84.8Q277.3 85.1 277.3 85.6L277.3 85.6L275.1 85.6Q275.1 84.8 275.5 84.2Q276.0 83.6 276.8 83.2Q277.6 82.9 278.7 82.9L278.7 82.9Q280.2 82.9 281.2 83.7Q282.1 84.4 282.1 85.9L282.1 85.9L282.1 89.5Q282.1 90.7 282.4 91.4L282.4 91.4L282.4 91.5ZM278.3 89.9L278.3 89.9Q278.8 89.9 279.2 89.7Q279.6 89.5 279.8 89.1L279.8 89.1L279.8 87.6L279.0 87.6Q277.3 87.6 277.2 88.8L277.2 88.8L277.2 88.9Q277.2 89.4 277.5 89.6Q277.8 89.9 278.3 89.9ZM289.9 88.5L289.9 88.5Q289.9 87.8 289.4 87.5Q288.9 87.1 287.7 86.7Q286.5 86.3 285.8 86.0L285.8 86.0Q283.8 84.9 283.8 83.1L283.8 83.1Q283.8 82.2 284.4 81.5Q284.9 80.8 285.8 80.4Q286.8 80.0 288.0 80.0L288.0 80.0Q289.3 80.0 290.2 80.4Q291.2 80.8 291.7 81.6Q292.2 82.4 292.2 83.5L292.2 83.5L289.9 83.5Q289.9 82.7 289.4 82.3Q288.9 81.8 288.0 81.8L288.0 81.8Q287.1 81.8 286.7 82.2Q286.2 82.5 286.2 83.1L286.2 83.1Q286.2 83.7 286.7 84.1Q287.3 84.4 288.4 84.8L288.4 84.8Q290.4 85.4 291.3 86.3Q292.2 87.2 292.2 88.5L292.2 88.5Q292.2 90.0 291.1 90.8Q290.0 91.6 288.1 91.6L288.1 91.6Q286.8 91.6 285.7 91.2Q284.6 90.7 284.1 89.8Q283.5 89.0 283.5 87.9L283.5 87.9L285.8 87.9Q285.8 89.8 288.1 89.8L288.1 89.8Q288.9 89.8 289.4 89.4Q289.9 89.1 289.9 88.5ZM297.2 89.8L297.2 89.8Q297.8 89.8 298.2 89.5Q298.6 89.1 298.6 88.6L298.6 88.6L300.7 88.6Q300.7 89.4 300.2 90.1Q299.8 90.9 299.0 91.2Q298.2 91.6 297.2 91.6L297.2 91.6Q295.4 91.6 294.3 90.5Q293.3 89.3 293.3 87.3L293.3 87.3L293.3 87.2Q293.3 85.2 294.3 84.0Q295.4 82.9 297.2 82.9L297.2 82.9Q298.8 82.9 299.7 83.8Q300.7 84.7 300.7 86.2L300.7 86.2L298.6 86.2Q298.6 85.5 298.2 85.1Q297.8 84.7 297.1 84.7L297.1 84.7Q296.4 84.7 296.0 85.3Q295.6 85.9 295.6 87.1L295.6 87.1L295.6 87.4Q295.6 88.7 296.0 89.2Q296.4 89.8 297.2 89.8ZM306.8 83.0L306.7 85.1Q306.3 85.1 305.9 85.1L305.9 85.1Q304.6 85.1 304.3 86.0L304.3 86.0L304.3 91.5L302.0 91.5L302.0 83.0L304.1 83.0L304.2 84.0Q304.9 82.9 306.1 82.9L306.1 82.9Q306.4 82.9 306.8 83.0L306.8 83.0ZM310.2 83.0L310.2 91.5L307.9 91.5L307.9 83.0L310.2 83.0ZM307.8 80.8L307.8 80.8Q307.8 80.3 308.2 80.0Q308.5 79.7 309.1 79.7L309.1 79.7Q309.7 79.7 310 80.0Q310.3 80.3 310.3 80.8L310.3 80.8Q310.3 81.4 310.0 81.7Q309.6 82.0 309.1 82.0Q308.5 82.0 308.2 81.7Q307.8 81.4 307.8 80.8ZM319.7 87.2L319.7 87.3Q319.7 89.3 318.8 90.5Q317.9 91.6 316.4 91.6L316.4 91.6Q315.1 91.6 314.3 90.7L314.3 90.7L314.3 94.7L312.1 94.7L312.1 83.0L314.2 83.0L314.2 83.9Q315.1 82.9 316.4 82.9L316.4 82.9Q317.9 82.9 318.8 84.0Q319.7 85.2 319.7 87.2L319.7 87.2ZM317.4 87.2L317.4 87.2Q317.4 86.0 317.0 85.4Q316.6 84.7 315.8 84.7L315.8 84.7Q314.7 84.7 314.3 85.5L314.3 85.5L314.3 89.0Q314.7 89.8 315.8 89.8L315.8 89.8Q317.4 89.8 317.4 87.2ZM321.5 81.0L323.8 81.0L323.8 83.0L325.2 83.0L325.2 84.7L323.8 84.7L323.8 88.9Q323.8 89.4 324.0 89.6Q324.1 89.8 324.6 89.8L324.6 89.8Q325.0 89.8 325.3 89.7L325.3 89.7L325.3 91.4Q324.6 91.6 323.9 91.6L323.9 91.6Q321.6 91.6 321.5 89.2L321.5 89.2L321.5 84.7L320.3 84.7L320.3 83.0L321.5 83.0L321.5 81.0Z "/><mask id="satori_om-id-1-7-2"><rect x="335" y="76" width="34" height="18" fill="#fff"/></mask><path fill="#7d8590" d="M343.4 90.3L343.4 91.5L335.9 91.5L335.9 90.4L339.9 86.1Q340.8 85.1 341.1 84.5Q341.4 83.8 341.4 83.2L341.4 83.2Q341.4 82.3 340.9 81.7Q340.3 81.1 339.4 81.1L339.4 81.1Q338.4 81.1 337.8 81.8Q337.2 82.4 337.2 83.5L337.2 83.5L335.7 83.5Q335.7 81.9 336.7 80.9Q337.8 80.0 339.4 80.0L339.4 80.0Q341.0 80.0 342.0 80.8Q342.9 81.6 342.9 83.0L342.9 83.0Q342.9 84.7 340.7 87.0L340.7 87.0L337.7 90.3L343.4 90.3ZM345.1 90.7L345.1 90.7Q345.1 90.4 345.3 90.1Q345.6 89.9 346 89.9Q346.4 89.9 346.7 90.1Q346.9 90.4 346.9 90.7L346.9 90.7Q346.9 91.1 346.7 91.3Q346.4 91.6 346 91.6Q345.6 91.6 345.3 91.3Q345.1 91.1 345.1 90.7ZM354.6 80.1L354.8 80.1L354.8 81.3L354.5 81.3Q352.9 81.4 351.9 82.3Q350.9 83.3 350.7 85.1L350.7 85.1Q351.6 84.0 353.2 84.0L353.2 84.0Q354.6 84.0 355.5 85.1Q356.4 86.1 356.4 87.8L356.4 87.8Q356.4 89.5 355.5 90.6Q354.5 91.6 352.9 91.6L352.9 91.6Q351.3 91.6 350.2 90.4Q349.2 89.1 349.2 87.2L349.2 87.2L349.2 86.6Q349.2 83.5 350.6 81.8Q351.9 80.1 354.6 80.1L354.6 80.1ZM352.9 85.2L352.9 85.2Q352.2 85.2 351.5 85.7Q350.9 86.1 350.7 86.8L350.7 86.8L350.7 87.3Q350.7 88.7 351.3 89.6Q351.9 90.4 352.9 90.4L352.9 90.4Q353.9 90.4 354.4 89.7Q355.0 89.0 355.0 87.8L355.0 87.8Q355.0 86.7 354.4 85.9Q353.9 85.2 352.9 85.2ZM358 82.8L358 82.3Q358 81.3 358.7 80.6Q359.3 79.9 360.3 79.9L360.3 79.9Q361.4 79.9 362.0 80.6Q362.7 81.3 362.7 82.3L362.7 82.3L362.7 82.9Q362.7 83.9 362.0 84.6Q361.4 85.2 360.3 85.2L360.3 85.2Q359.3 85.2 358.7 84.6Q358 83.9 358 82.8L358 82.8ZM359.1 82.3L359.1 82.9Q359.1 83.5 359.4 83.9Q359.8 84.3 360.3 84.3L360.3 84.3Q360.9 84.3 361.2 83.9Q361.6 83.5 361.6 82.9L361.6 82.9L361.6 82.3Q361.6 81.7 361.2 81.3Q360.9 80.9 360.3 80.9Q359.8 80.9 359.4 81.3Q359.1 81.7 359.1 82.3L359.1 82.3ZM363.5 89.3L363.5 88.7Q363.5 87.7 364.2 87.0Q364.8 86.4 365.9 86.4Q366.9 86.4 367.5 87.0Q368.2 87.7 368.2 88.7L368.2 88.7L368.2 89.3Q368.2 90.3 367.6 91.0Q366.9 91.6 365.9 91.6Q364.9 91.6 364.2 91.0Q363.5 90.3 363.5 89.3L363.5 89.3ZM364.6 88.7L364.6 89.3Q364.6 89.9 365.0 90.3Q365.3 90.7 365.9 90.7L365.9 90.7Q366.4 90.7 366.8 90.3Q367.1 89.9 367.1 89.3L367.1 89.3L367.1 88.7Q367.1 88.1 366.8 87.7Q366.4 87.3 365.9 87.3L365.9 87.3Q365.3 87.3 365.0 87.7Q364.6 88.1 364.6 88.7L364.6 88.7ZM366.2 81.7L360.7 90.6L359.9 90.1L365.4 81.2L366.2 81.7Z "/><mask id="satori_om-id-1-8"><rect x="0" y="104" width="112" height="19" fill="#fff"/></mask><mask id="satori_om-id-1-8-0"><rect x="0" y="105" width="16" height="16" fill="#fff"/></mask><mask id="satori_om-id-1-8-0-0"><rect x="4" y="109" width="8" height="8" fill="#fff"/></mask><path x="4" y="109" width="8" height="8" fill="#ff5a03" d="M8,109 h0 a4,4 0 0 1 4,4 v0 a4,4 0 0 1 -4,4 h0 a4,4 0 0 1 -4,-4 v0 a4,4 0 0 1 4,-4"/><mask id="satori_om-id-1-8-1"><rect x="29" y="104" width="40" height="19" fill="#fff"/></mask><path fill="#fff" d="M37.2 119.5L36.4 117.1L32.3 117.1L31.5 119.5L29.1 119.5L33.3 108.1L35.5 108.1L39.7 119.5L37.2 119.5ZM34.4 111.0L33.0 115.2L35.8 115.2L34.4 111.0ZM45.2 117.1L45.2 117.1Q45.2 116.7 44.8 116.5Q44.4 116.3 43.5 116.1L43.5 116.1Q40.5 115.4 40.5 113.5L40.5 113.5Q40.5 112.4 41.4 111.6Q42.3 110.9 43.8 110.9L43.8 110.9Q45.5 110.9 46.4 111.6Q47.4 112.4 47.4 113.6L47.4 113.6L45.1 113.6Q45.1 113.1 44.8 112.8Q44.5 112.5 43.8 112.5L43.8 112.5Q43.3 112.5 43.0 112.7Q42.6 113.0 42.6 113.4L42.6 113.4Q42.6 113.8 43.0 114.0Q43.4 114.2 44.2 114.4Q45.0 114.6 45.6 114.8L45.6 114.8Q47.4 115.4 47.4 117.1L47.4 117.1Q47.4 118.2 46.4 118.9Q45.4 119.6 43.9 119.6L43.9 119.6Q42.8 119.6 42.0 119.3Q41.1 118.9 40.7 118.2Q40.2 117.6 40.2 116.8L40.2 116.8L42.3 116.8Q42.4 117.4 42.8 117.7Q43.2 118.0 43.9 118.0L43.9 118.0Q44.5 118.0 44.9 117.8Q45.2 117.5 45.2 117.1ZM49.3 109.0L51.6 109.0L51.6 111.0L53.0 111.0L53.0 112.7L51.6 112.7L51.6 116.9Q51.6 117.4 51.7 117.6Q51.9 117.8 52.4 117.8L52.4 117.8Q52.8 117.8 53.1 117.7L53.1 117.7L53.1 119.4Q52.4 119.6 51.7 119.6L51.7 119.6Q49.4 119.6 49.3 117.2L49.3 117.2L49.3 112.7L48.1 112.7L48.1 111.0L49.3 111.0L49.3 109.0ZM59.0 111.0L59.0 113.1Q58.6 113.1 58.2 113.1L58.2 113.1Q56.9 113.1 56.5 114.0L56.5 114.0L56.5 119.5L54.3 119.5L54.3 111.0L56.4 111.0L56.5 112.0Q57.1 110.9 58.3 110.9L58.3 110.9Q58.7 110.9 59.0 111.0L59.0 111.0ZM59.5 115.3L59.5 115.2Q59.5 113.9 60.0 112.9Q60.4 112.0 61.3 111.4Q62.3 110.9 63.5 110.9L63.5 110.9Q65.2 110.9 66.3 111.9Q67.3 113.0 67.5 114.8L67.5 114.8L67.5 115.3Q67.5 117.3 66.4 118.5Q65.3 119.6 63.5 119.6Q61.6 119.6 60.6 118.5Q59.5 117.3 59.5 115.3L59.5 115.3ZM61.7 115.3L61.7 115.3Q61.7 116.5 62.2 117.2Q62.6 117.8 63.5 117.8L63.5 117.8Q64.3 117.8 64.8 117.2Q65.2 116.6 65.2 115.2L65.2 115.2Q65.2 114.0 64.8 113.4Q64.3 112.7 63.5 112.7L63.5 112.7Q62.6 112.7 62.2 113.3Q61.7 114.0 61.7 115.3Z "/><mask id="satori_om-id-1-8-2"><rect x="78" y="104" width="34" height="19" fill="#fff"/></mask><path fill="#7d8590" d="M83.7 108.1L83.7 119.5L82.2 119.5L82.2 109.9L79.3 110.9L79.3 109.6L83.5 108.1L83.7 108.1ZM88.1 118.7L88.1 118.7Q88.1 118.4 88.3 118.1Q88.6 117.9 89 117.9Q89.4 117.9 89.7 118.1Q89.9 118.4 89.9 118.7L89.9 118.7Q89.9 119.1 89.7 119.3Q89.4 119.6 89 119.6Q88.6 119.6 88.3 119.3Q88.1 119.1 88.1 118.7ZM99.0 111.1L99.0 111.1Q99.0 111.9 98.6 112.6Q98.1 113.3 97.4 113.6L97.4 113.6Q98.3 114.0 98.8 114.7Q99.3 115.5 99.3 116.4L99.3 116.4Q99.3 117.9 98.3 118.8Q97.3 119.6 95.7 119.6L95.7 119.6Q94.0 119.6 93.1 118.8Q92.1 117.9 92.1 116.4L92.1 116.4Q92.1 115.5 92.6 114.7Q93.1 114.0 94.0 113.6L94.0 113.6Q93.2 113.2 92.8 112.6Q92.3 111.9 92.3 111.1L92.3 111.1Q92.3 109.6 93.3 108.8Q94.2 108.0 95.7 108.0L95.7 108.0Q97.2 108.0 98.1 108.8Q99.0 109.6 99.0 111.1ZM97.9 116.4L97.9 116.4Q97.9 115.4 97.3 114.8Q96.6 114.2 95.7 114.2Q94.7 114.2 94.1 114.8Q93.5 115.4 93.5 116.4Q93.5 117.4 94.1 117.9Q94.7 118.5 95.7 118.5L95.7 118.5Q96.7 118.5 97.3 117.9Q97.9 117.3 97.9 116.4ZM95.7 109.1L95.7 109.1Q94.8 109.1 94.3 109.7Q93.8 110.2 93.8 111.1L93.8 111.1Q93.8 112.0 94.3 112.5Q94.8 113.0 95.7 113.0Q96.6 113.0 97.1 112.5Q97.6 112.0 97.6 111.1Q97.6 110.2 97.1 109.7Q96.5 109.1 95.7 109.1ZM101 110.8L101 110.3Q101 109.3 101.7 108.6Q102.3 107.9 103.3 107.9L103.3 107.9Q104.4 107.9 105.0 108.6Q105.7 109.3 105.7 110.3L105.7 110.3L105.7 110.9Q105.7 111.9 105.0 112.6Q104.4 113.2 103.3 113.2L103.3 113.2Q102.3 113.2 101.7 112.6Q101 111.9 101 110.8L101 110.8ZM102.1 110.3L102.1 110.9Q102.1 111.5 102.4 111.9Q102.8 112.3 103.3 112.3L103.3 112.3Q103.9 112.3 104.2 111.9Q104.6 111.5 104.6 110.9L104.6 110.9L104.6 110.3Q104.6 109.7 104.2 109.3Q103.9 108.9 103.3 108.9Q102.8 108.9 102.4 109.3Q102.1 109.7 102.1 110.3L102.1 110.3ZM106.5 117.3L106.5 116.7Q106.5 115.7 107.2 115.0Q107.8 114.4 108.9 114.4Q109.9 114.4 110.5 115.0Q111.2 115.7 111.2 116.7L111.2 116.7L111.2 117.3Q111.2 118.3 110.6 119.0Q109.9 119.6 108.9 119.6Q107.9 119.6 107.2 119.0Q106.5 118.3 106.5 117.3L106.5 117.3ZM107.6 116.7L107.6 117.3Q107.6 117.9 108.0 118.3Q108.3 118.7 108.9 118.7L108.9 118.7Q109.4 118.7 109.8 118.3Q110.1 117.9 110.1 117.3L110.1 117.3L110.1 116.7Q110.1 116.1 109.8 115.7Q109.4 115.3 108.9 115.3L108.9 115.3Q108.3 115.3 108.0 115.7Q107.6 116.1 107.6 116.7L107.6 116.7ZM109.2 109.7L103.7 118.6L102.9 118.1L108.4 109.2L109.2 109.7Z "/><mask id="satori_om-id-1-9"><rect x="122" y="104" width="103" height="19" fill="#fff"/></mask><mask id="satori_om-id-1-9-0"><rect x="122" y="105" width="16" height="16" fill="#fff"/></mask><mask id="satori_om-id-1-9-0-0"><rect x="126" y="109" width="8" height="8" fill="#fff"/></mask><path x="126" y="109" width="8" height="8" fill="#563d7c" d="M130,109 h0 a4,4 0 0 1 4,4 v0 a4,4 0 0 1 -4,4 h0 a4,4 0 0 1 -4,-4 v0 a4,4 0 0 1 4,-4"/><mask id="satori_om-id-1-9-1"><rect x="151" y="104" width="31" height="19" fill="#fff"/></mask><path fill="#fff" d="M158.6 115.7L160.9 115.7Q160.8 117.5 159.6 118.6Q158.4 119.6 156.4 119.6L156.4 119.6Q154.2 119.6 152.9 118.2Q151.7 116.7 151.7 114.1L151.7 114.1L151.7 113.4Q151.7 111.8 152.3 110.5Q152.8 109.3 153.9 108.6Q155.0 108.0 156.4 108.0L156.4 108.0Q158.4 108.0 159.6 109.0Q160.8 110.1 161.0 112.0L161.0 112.0L158.6 112.0Q158.5 110.9 158.0 110.4Q157.5 109.9 156.4 109.9L156.4 109.9Q155.2 109.9 154.6 110.7Q154.1 111.6 154.0 113.3L154.0 113.3L154.0 114.2Q154.0 116.0 154.6 116.9Q155.2 117.7 156.4 117.7L156.4 117.7Q157.5 117.7 158.0 117.2Q158.5 116.7 158.6 115.7L158.6 115.7ZM168.4 116.5L168.4 116.5Q168.4 115.8 167.9 115.5Q167.4 115.1 166.2 114.7Q165.0 114.3 164.3 114.0L164.3 114.0Q162.4 112.9 162.4 111.1L162.4 111.1Q162.4 110.2 162.9 109.5Q163.4 108.8 164.4 108.4Q165.3 108.0 166.6 108.0L166.6 108.0Q167.8 108.0 168.7 108.4Q169.7 108.8 170.2 109.6Q170.7 110.4 170.7 111.5L170.7 111.5L168.4 111.5Q168.4 110.7 167.9 110.3Q167.4 109.8 166.5 109.8L166.5 109.8Q165.7 109.8 165.2 110.2Q164.7 110.5 164.7 111.1L164.7 111.1Q164.7 111.7 165.3 112.1Q165.8 112.4 166.9 112.8L166.9 112.8Q168.9 113.4 169.8 114.3Q170.7 115.2 170.7 116.5L170.7 116.5Q170.7 118.0 169.6 118.8Q168.5 119.6 166.6 119.6L166.6 119.6Q165.3 119.6 164.2 119.2Q163.1 118.7 162.6 117.8Q162.0 117.0 162.0 115.9L162.0 115.9L164.4 115.9Q164.4 117.8 166.6 117.8L166.6 117.8Q167.4 117.8 167.9 117.4Q168.4 117.1 168.4 116.5ZM178.2 116.5L178.2 116.5Q178.2 115.8 177.8 115.5Q177.3 115.1 176.1 114.7Q174.8 114.3 174.1 114.0L174.1 114.0Q172.2 112.9 172.2 111.1L172.2 111.1Q172.2 110.2 172.7 109.5Q173.2 108.8 174.2 108.4Q175.2 108.0 176.4 108.0L176.4 108.0Q177.6 108.0 178.6 108.4Q179.5 108.8 180.0 109.6Q180.6 110.4 180.6 111.5L180.6 111.5L178.2 111.5Q178.2 110.7 177.7 110.3Q177.2 109.8 176.4 109.8L176.4 109.8Q175.5 109.8 175.0 110.2Q174.5 110.5 174.5 111.1L174.5 111.1Q174.5 111.7 175.1 112.1Q175.7 112.4 176.7 112.8L176.7 112.8Q178.7 113.4 179.7 114.3Q180.6 115.2 180.6 116.5L180.6 116.5Q180.6 118.0 179.5 118.8Q178.3 119.6 176.4 119.6L176.4 119.6Q175.1 119.6 174.1 119.2Q173.0 118.7 172.4 117.8Q171.8 117.0 171.8 115.9L171.8 115.9L174.2 115.9Q174.2 117.8 176.4 117.8L176.4 117.8Q177.3 117.8 177.8 117.4Q178.2 117.1 178.2 116.5Z "/><mask id="satori_om-id-1-9-2"><rect x="191" y="104" width="34" height="19" fill="#fff"/></mask><path fill="#7d8590" d="M199.1 112.8L199.1 114.6Q199.1 117.2 198.2 118.4Q197.3 119.6 195.5 119.6L195.5 119.6Q193.7 119.6 192.8 118.4Q191.9 117.2 191.9 114.8L191.9 114.8L191.9 112.9Q191.9 110.4 192.8 109.2Q193.6 108.0 195.5 108.0L195.5 108.0Q197.3 108.0 198.2 109.1Q199.1 110.3 199.1 112.8L199.1 112.8ZM197.6 115.0L197.6 112.7Q197.6 110.8 197.1 110.0Q196.6 109.1 195.5 109.1L195.5 109.1Q194.4 109.1 193.9 110.0Q193.4 110.8 193.3 112.5L193.3 112.5L193.3 114.9Q193.3 116.7 193.9 117.6Q194.4 118.5 195.5 118.5L195.5 118.5Q196.6 118.5 197.1 117.6Q197.6 116.8 197.6 115.0L197.6 115.0ZM201.1 118.7L201.1 118.7Q201.1 118.4 201.3 118.1Q201.6 117.9 202 117.9Q202.4 117.9 202.7 118.1Q202.9 118.4 202.9 118.7L202.9 118.7Q202.9 119.1 202.7 119.3Q202.4 119.6 202 119.6Q201.6 119.6 201.3 119.3Q201.1 119.1 201.1 118.7ZM210.7 114.5L210.7 114.5Q210.2 115.0 209.6 115.4Q209.0 115.7 208.2 115.7L208.2 115.7Q207.2 115.7 206.5 115.2Q205.8 114.7 205.4 113.8Q205.0 113.0 205.0 111.9L205.0 111.9Q205.0 110.7 205.4 109.8Q205.8 108.9 206.6 108.4Q207.4 108.0 208.5 108.0L208.5 108.0Q210.2 108.0 211.2 109.2Q212.1 110.5 212.1 112.7L212.1 112.7L212.1 113.1Q212.1 116.4 210.8 117.9Q209.5 119.5 206.9 119.5L206.9 119.5L206.6 119.5L206.6 118.3L206.9 118.3Q208.7 118.2 209.6 117.3Q210.6 116.4 210.7 114.5ZM208.5 114.5L208.5 114.5Q209.2 114.5 209.8 114.0Q210.4 113.6 210.7 112.9L210.7 112.9L210.7 112.4Q210.7 110.9 210.1 110.0Q209.5 109.2 208.5 109.2L208.5 109.2Q207.6 109.2 207.0 109.9Q206.4 110.6 206.4 111.8L206.4 111.8Q206.4 113.0 207.0 113.7Q207.5 114.5 208.5 114.5ZM214 110.8L214 110.3Q214 109.3 214.7 108.6Q215.3 107.9 216.3 107.9L216.3 107.9Q217.4 107.9 218.0 108.6Q218.7 109.3 218.7 110.3L218.7 110.3L218.7 110.9Q218.7 111.9 218.0 112.6Q217.4 113.2 216.3 113.2L216.3 113.2Q215.3 113.2 214.7 112.6Q214 111.9 214 110.8L214 110.8ZM215.1 110.3L215.1 110.9Q215.1 111.5 215.4 111.9Q215.8 112.3 216.3 112.3L216.3 112.3Q216.9 112.3 217.2 111.9Q217.6 111.5 217.6 110.9L217.6 110.9L217.6 110.3Q217.6 109.7 217.2 109.3Q216.9 108.9 216.3 108.9Q215.8 108.9 215.4 109.3Q215.1 109.7 215.1 110.3L215.1 110.3ZM219.5 117.3L219.5 116.7Q219.5 115.7 220.2 115.0Q220.8 114.4 221.9 114.4Q222.9 114.4 223.5 115.0Q224.2 115.7 224.2 116.7L224.2 116.7L224.2 117.3Q224.2 118.3 223.6 119.0Q222.9 119.6 221.9 119.6Q220.9 119.6 220.2 119.0Q219.5 118.3 219.5 117.3L219.5 117.3ZM220.6 116.7L220.6 117.3Q220.6 117.9 221.0 118.3Q221.3 118.7 221.9 118.7L221.9 118.7Q222.4 118.7 222.8 118.3Q223.1 117.9 223.1 117.3L223.1 117.3L223.1 116.7Q223.1 116.1 222.8 115.7Q222.4 115.3 221.9 115.3L221.9 115.3Q221.3 115.3 221.0 115.7Q220.6 116.1 220.6 116.7L220.6 116.7ZM222.2 109.7L216.7 118.6L215.9 118.1L221.4 109.2L222.2 109.7Z "/></svg>