<svg width="375" height="200" viewBox="0 0 375 200" xmlns="http://www.w3.org/2000/svg"><mask id="satori_om-id"><rect x="0" y="0" width="375" height="124" fill="#fff"/></mask><clipPath id="satori_cp-id-0"><path x="0" y="0" width="375" height="8" d="M4,0 h367 a4,4 0 0 1 4,4 v0 a4,4 0 0 1 -4,4 h-367 a4,4 0 0 1 -4,-4 v0 a4,4 0 0 1 4,-4"/></clipPath><mask id="satori_om-id-0"><rect x="0" y="0" width="375" height="8" fill="#fff"/></mask><mask id="satori_om-id-0-0"><rect x="0" y="0" width="221" height="8" fill="#fff" mask="url(#satori_om-id-0)"/></mask><rect x="0" y="0" width="221" height="8" fill="#3178c6" clip-path="url(#satori_cp-id-0)" mask="url(#satori_om-id-0)"/><mask id="satori_om-id-0-1"><rect x="221" y="0" width="27" height="8" fill="#fff" mask="url(#satori_om-id-0)"/></mask><rect x="221" y="0" width="27" height="8" fill="#663399" clip-path="url(#satori_cp-id-0)" mask="url(#satori_om-id-0)"/><mask id="satori_om-id-0-2"><rect x="248" y="0" width="26" height="8" fill="#fff" mask="url(#satori_om-id-0)"/></mask><rect x="248" y="0" width="26" height="8" fill="#3572A5" clip-path="url(#satori_cp-id-0)" mask="url(#satori_om-id-0)"/><mask id="satori_om-id-0-3"><rect x="274" y="0" width="25" height="8" fill="#fff" mask="url(#satori_om-id-0)"/></mask><rect x="274" y="0" width="25" height="8" fill="#701516" clip-path="url(#satori_cp-id-0)" mask="url(#satori_om-id-0)"/><mask id="satori_om-id-0-4"><rect x="299" y="0" width="21" height="8" fill="#fff" mask="url(#satori_om-id-0)"/></mask><rect x="299" y="0" width="21" height="8" fill="#e34c26" clip-path="url(#satori_cp-id-0)" mask="url(#satori_om-id-0)"/><mask id="satori_om-id-0-5"><rect x="320" y="0" width="15" height="8" fill="#fff" mask="url(#satori_om-id-0)"/></mask><rect x="320" y="0" width="15" height="8" fill="#00ADD8" clip-path="url(#satori_cp-id-0)" mask="url(#satori_om-id-0)"/><mask id="satori_om-id-0-6"><rect x="335" y="0" width="12" height="8" fill="#fff" mask="url(#satori_om-id-0)"/></mask><rect x="335" y="0" width="12" height="8" fill="#f1e05a" clip-path="url(#satori_cp-id-0)" mask="url(#satori_om-id-0)"/><mask id="satori_om-id-0-7"><rect x="347" y="0" width="6" height="8" fill="#fff" mask="url(#satori_om-id-0)"/></mask><rect x="347" y="0" width="6" height="8" fill="#844FBA" clip-path="url(#satori_cp-id-0)" mask="url(#satori_om-id-0)"/><mask id="satori_om-id-0-8"><rect x="353" y="0" width="4" height="8" fill="#fff" mask="url(#satori_om-id-0)"/></mask><rect x="353" y="0" width="4" height="8" fill="#ff5a03" clip-path="url(#satori_cp-id-0)" mask="url(#satori_om-id-0)"/><mask id="satori_om-id-0-9"><rect x="357" y="0" width="4" height="8" fill="#fff" mask="url(#satori_om-id-0)"/></mask><rect x="357" y="0" width="4" height="8" fill="#A97BFF" clip-path="url(#satori_cp-id-0)" mask="url(#satori_om-id-0)"/><mask id="satori_om-id-1"><rect x="0" y="18" width="375" height="106" fill="#fff"/></mask><mask id="satori_om-id-1-0"><rect x="0" y="18" width="160" height="19" fill="#fff"/></mask><mask id="satori_om-id-1-0-0"><rect x="0" y="20" width="16" height="16" fill="#fff"/></mask><mask id="satori_om-id-1-0-0-0"><rect x="4" y="24" width="8" height="8" fill="#fff"/></mask><path x="4" y="24" width="8" height="8" fill="#3178c6" d="M8,24 h0 a4,4 0 0 1 4,4 v0 a4,4 0 0 1 -4,4 h0 a4,4 0 0 1 -4,-4 v0 a4,4 0 0 1 4,-4"/><mask id="satori_om-id-1-0-1"><rect x="29" y="18" width="79" height="19" fill="#fff"/></mask><g  ><path fill="#fff" d="M38.6 21.6L38.6 23.5L35.1 23.5L35.1 33L32.8 33L32.8 23.5L29.3 23.5L29.3 21.6L38.6 21.6ZM40.7 24.5L42.3 29.8L43.8 24.5L46.3 24.5L42.9 34.3L42.7 34.8Q41.9 36.4 40.2 36.4L40.2 36.4Q39.7 36.4 39.2 36.3L39.2 36.3L39.2 34.6L39.5 34.6Q40.2 34.6 40.5 34.4Q40.8 34.2 41.0 33.7L41.0 33.7L41.2 33.0L38.3 24.5L40.7 24.5ZM54.8 28.7L54.8 28.9Q54.8 30.8 53.9 32.0Q53.0 33.2 51.5 33.2L51.5 33.2Q50.2 33.2 49.4 32.3L49.4 32.3L49.4 36.3L47.2 36.3L47.2 24.5L49.3 24.5L49.3 25.4Q50.1 24.4 51.5 24.4L51.5 24.4Q53.0 24.4 53.9 25.5Q54.8 26.7 54.8 28.7L54.8 28.7ZM52.5 28.7L52.5 28.7Q52.5 27.5 52.1 26.9Q51.7 26.2 50.9 26.2L50.9 26.2Q49.8 26.2 49.4 27.0L49.4 27.0L49.4 30.5Q49.8 31.3 50.9 31.3L50.9 31.3Q52.5 31.3 52.5 28.7ZM60.1 33.2L60.1 33.2Q58.2 33.2 57.0 32.0Q55.9 30.9 55.9 29.0L55.9 29.0L55.9 28.8Q55.9 27.5 56.4 26.5Q56.8 25.5 57.7 24.9Q58.6 24.4 59.8 24.4L59.8 24.4Q61.5 24.4 62.5 25.5Q63.5 26.6 63.5 28.6L63.5 28.6L63.5 29.5L58.1 29.5Q58.3 30.3 58.8 30.8Q59.4 31.3 60.2 31.3L60.2 31.3Q61.5 31.3 62.2 30.4L62.2 30.4L63.4 31.6Q62.8 32.4 62.0 32.8Q61.1 33.2 60.1 33.2ZM59.8 26.2L59.8 26.2Q59.1 26.2 58.7 26.7Q58.3 27.1 58.2 28.0L58.2 28.0L61.3 28.0L61.3 27.8Q61.3 27.0 60.9 26.6Q60.5 26.2 59.8 26.2ZM70.9 30.0L70.9 30.0Q70.9 29.4 70.4 29.0Q69.9 28.6 68.7 28.2Q67.5 27.9 66.8 27.5L66.8 27.5Q64.8 26.4 64.8 24.6L64.8 24.6Q64.8 23.7 65.4 23.0Q65.9 22.3 66.8 21.9Q67.8 21.5 69.0 21.5L69.0 21.5Q70.3 21.5 71.2 21.9Q72.2 22.4 72.7 23.2Q73.2 24.0 73.2 25.0L73.2 25.0L70.9 25.0Q70.9 24.2 70.4 23.8Q69.9 23.3 69.0 23.3L69.0 23.3Q68.1 23.3 67.7 23.7Q67.2 24.1 67.2 24.7L67.2 24.7Q67.2 25.2 67.7 25.6Q68.3 26.0 69.4 26.3L69.4 26.3Q71.4 26.9 72.3 27.8Q73.2 28.7 73.2 30L73.2 30Q73.2 31.5 72.1 32.3Q71.0 33.2 69.1 33.2L69.1 33.2Q67.8 33.2 66.7 32.7Q65.6 32.2 65.1 31.4Q64.5 30.5 64.5 29.4L64.5 29.4L66.8 29.4Q66.8 31.3 69.1 31.3L69.1 31.3Q69.9 31.3 70.4 31.0Q70.9 30.6 70.9 30.0ZM78.2 31.3L78.2 31.3Q78.8 31.3 79.2 31.0Q79.6 30.6 79.6 30.1L79.6 30.1L81.7 30.1Q81.7 30.9 81.2 31.7Q80.8 32.4 80.0 32.8Q79.2 33.2 78.2 33.2L78.2 33.2Q76.4 33.2 75.3 32.0Q74.3 30.9 74.3 28.8L74.3 28.8L74.3 28.7Q74.3 26.7 75.3 25.6Q76.4 24.4 78.2 24.4L78.2 24.4Q79.8 24.4 80.7 25.3Q81.7 26.2 81.7 27.7L81.7 27.7L79.6 27.7Q79.6 27.0 79.2 26.6Q78.8 26.2 78.1 26.2L78.1 26.2Q77.4 26.2 77.0 26.8Q76.6 27.4 76.6 28.7L76.6 28.7L76.6 28.9Q76.6 30.2 77.0 30.8Q77.4 31.3 78.2 31.3ZM87.8 24.5L87.7 26.7Q87.3 26.6 86.9 26.6L86.9 26.6Q85.6 26.6 85.3 27.5L85.3 27.5L85.3 33L83.0 33L83.0 24.5L85.1 24.5L85.2 25.6Q85.9 24.4 87.1 24.4L87.1 24.4Q87.4 24.4 87.8 24.5L87.8 24.5ZM91.2 24.5L91.2 33L88.9 33L88.9 24.5L91.2 24.5ZM88.8 22.4L88.8 22.4Q88.8 21.9 89.2 21.5Q89.5 21.2 90.1 21.2L90.1 21.2Q90.7 21.2 91 21.5Q91.3 21.9 91.3 22.4L91.3 22.4Q91.3 22.9 91.0 23.2Q90.6 23.5 90.1 23.5Q89.5 23.5 89.2 23.2Q88.8 22.9 88.8 22.4ZM100.7 28.7L100.7 28.9Q100.7 30.8 99.8 32.0Q98.9 33.2 97.4 33.2L97.4 33.2Q96.1 33.2 95.3 32.3L95.3 32.3L95.3 36.3L93.1 36.3L93.1 24.5L95.2 24.5L95.2 25.4Q96.1 24.4 97.4 24.4L97.4 24.4Q98.9 24.4 99.8 25.5Q100.7 26.7 100.7 28.7L100.7 28.7ZM98.4 28.7L98.4 28.7Q98.4 27.5 98.0 26.9Q97.6 26.2 96.8 26.2L96.8 26.2Q95.7 26.2 95.3 27.0L95.3 27.0L95.3 30.5Q95.7 31.3 96.8 31.3L96.8 31.3Q98.4 31.3 98.4 28.7ZM102.5 22.5L104.8 22.5L104.8 24.5L106.2 24.5L106.2 26.2L104.8 26.2L104.8 30.4Q104.8 30.9 105.0 31.1Q105.1 31.3 105.6 31.3L105.6 31.3Q106.0 31.3 106.3 31.2L106.3 31.2L106.3 33.0Q105.6 33.2 104.9 33.2L104.9 33.2Q102.6 33.2 102.5 30.8L102.5 30.8L102.5 26.2L101.3 26.2L101.3 24.5L102.5 24.5L102.5 22.5Z "/></g><mask id="satori_om-id-1-0-2"><rect x="117" y="18" width="43" height="19" fill="#fff"/></mask><g  ><path fill="#7d8590" d="M119.8 27.6L118.6 27.3L119.2 21.6L125.0 21.6L125.0 23.0L120.4 23.0L120.1 26.1Q120.9 25.6 122.0 25.6L122.0 25.6Q123.5 25.6 124.4 26.6Q125.4 27.6 125.4 29.4L125.4 29.4Q125.4 31.1 124.4 32.1Q123.5 33.2 121.8 33.2L121.8 33.2Q120.2 33.2 119.3 32.3Q118.3 31.5 118.2 30.0L118.2 30.0L119.6 30.0Q119.7 31.0 120.3 31.5Q120.8 32.0 121.8 32.0L121.8 32.0Q122.8 32.0 123.3 31.3Q123.9 30.6 123.9 29.4L123.9 29.4Q123.9 28.3 123.3 27.6Q122.7 26.9 121.6 26.9L121.6 26.9Q120.7 26.9 120.1 27.3L120.1 27.3L119.8 27.6ZM133.8 24.6L133.8 24.6Q133.8 25.4 133.4 26.1Q132.9 26.8 132.2 27.1L132.2 27.1Q133.1 27.5 133.6 28.3Q134.1 29 134.1 29.9L134.1 29.9Q134.1 31.4 133.1 32.3Q132.1 33.2 130.5 33.2L130.5 33.2Q128.8 33.2 127.8 32.3Q126.9 31.4 126.9 29.9L126.9 29.9Q126.9 29.0 127.4 28.3Q127.9 27.5 128.8 27.1L128.8 27.1Q128 26.8 127.6 26.1Q127.1 25.4 127.1 24.6L127.1 24.6Q127.1 23.2 128.0 22.3Q129.0 21.5 130.5 21.5L130.5 21.5Q132.0 21.5 132.9 22.3Q133.8 23.2 133.8 24.6ZM132.6 29.9L132.6 29.9Q132.6 28.9 132.0 28.3Q131.4 27.7 130.5 27.7Q129.5 27.7 128.9 28.3Q128.3 28.9 128.3 29.9Q128.3 30.9 128.9 31.4Q129.5 32.0 130.5 32.0L130.5 32.0Q131.5 32.0 132.1 31.4Q132.6 30.9 132.6 29.9ZM130.5 22.7L130.5 22.7Q129.6 22.7 129.1 23.2Q128.6 23.7 128.6 24.6L128.6 24.6Q128.6 25.5 129.1 26.0Q129.6 26.6 130.5 26.6Q131.3 26.6 131.9 26.0Q132.4 25.5 132.4 24.6Q132.4 23.8 131.8 23.2Q131.3 22.7 130.5 22.7ZM136.1 32.2L136.1 32.2Q136.1 31.9 136.3 31.6Q136.5 31.4 137.0 31.4Q137.4 31.4 137.7 31.6Q137.9 31.9 137.9 32.2L137.9 32.2Q137.9 32.6 137.7 32.8Q137.4 33.1 137.0 33.1Q136.5 33.1 136.3 32.8Q136.1 32.6 136.1 32.2ZM145.7 28L145.7 28Q145.2 28.5 144.6 28.9Q144.0 29.2 143.2 29.2L143.2 29.2Q142.2 29.2 141.5 28.7Q140.8 28.2 140.4 27.3Q140.0 26.5 140.0 25.4L140.0 25.4Q140.0 24.3 140.4 23.4Q140.8 22.4 141.6 22.0Q142.4 21.5 143.5 21.5L143.5 21.5Q145.2 21.5 146.1 22.7Q147.1 24.0 147.1 26.2L147.1 26.2L147.1 26.6Q147.1 29.9 145.8 31.4Q144.5 33.0 141.8 33.0L141.8 33.0L141.6 33.0L141.6 31.8L141.9 31.8Q143.7 31.8 144.6 30.9Q145.6 30.0 145.7 28ZM143.4 28L143.4 28Q144.2 28 144.8 27.6Q145.4 27.1 145.7 26.5L145.7 26.5L145.7 25.9Q145.7 24.5 145.1 23.6Q144.4 22.7 143.5 22.7L143.5 22.7Q142.5 22.7 142.0 23.4Q141.4 24.1 141.4 25.3L141.4 25.3Q141.4 26.5 141.9 27.2Q142.5 28 143.4 28ZM149.0 24.4L149.0 23.8Q149.0 22.8 149.6 22.1Q150.3 21.5 151.3 21.5L151.3 21.5Q152.4 21.5 153.0 22.1Q153.6 22.8 153.6 23.9L153.6 23.9L153.6 24.4Q153.6 25.4 153.0 26.1Q152.3 26.8 151.3 26.8L151.3 26.8Q150.3 26.8 149.6 26.1Q149.0 25.4 149.0 24.4L149.0 24.4ZM150.1 23.8L150.1 24.4Q150.1 25.0 150.4 25.4Q150.8 25.8 151.3 25.8L151.3 25.8Q151.9 25.8 152.2 25.4Q152.6 25.0 152.6 24.4L152.6 24.4L152.6 23.8Q152.6 23.2 152.2 22.8Q151.9 22.4 151.3 22.4Q150.7 22.4 150.4 22.8Q150.1 23.2 150.1 23.8L150.1 23.8ZM154.5 30.8L154.5 30.2Q154.5 29.2 155.2 28.5Q155.8 27.9 156.9 27.9Q157.9 27.9 158.5 28.5Q159.2 29.2 159.2 30.3L159.2 30.3L159.2 30.8Q159.2 31.8 158.5 32.5Q157.9 33.2 156.9 33.2Q155.9 33.2 155.2 32.5Q154.5 31.9 154.5 30.8L154.5 30.8ZM155.6 30.2L155.6 30.8Q155.6 31.4 155.9 31.8Q156.3 32.2 156.9 32.2L156.9 32.2Q157.4 32.2 157.8 31.8Q158.1 31.5 158.1 30.8L158.1 30.8L158.1 30.2Q158.1 29.6 157.8 29.2Q157.4 28.8 156.9 28.8L156.9 28.8Q156.3 28.8 155.9 29.2Q155.6 29.6 155.6 30.2L155.6 30.2ZM157.2 23.3L151.7 32.1L150.8 31.6L156.4 22.7L157.2 23.3Z "/></g><mask id="satori_om-id-1-1"><rect x="170" y="18" width="103" height="19" fill="#fff"/></mask><mask id="satori_om-id-1-1-0"><rect x="170" y="20" width="16" height="16" fill="#fff"/></mask><mask id="satori_om-id-1-1-0-0"><rect x="174" y="24" width="8" height="8" fill="#fff"/></mask><path x="174" y="24" width="8" height="8" fill="#663399" d="M178,24 h0 a4,4 0 0 1 4,4 v0 a4,4 0 0 1 -4,4 h0 a4,4 0 0 1 -4,-4 v0 a4,4 0 0 1 4,-4"/><mask id="satori_om-id-1-1-1"><rect x="199" y="18" width="31" height="19" fill="#fff"/></mask><g  ><path fill="#fff" d="M206.6 29.2L208.9 29.2Q208.8 31.0 207.6 32.1Q206.4 33.2 204.4 33.2L204.4 33.2Q202.2 33.2 200.9 31.7Q199.7 30.2 199.7 27.6L199.7 27.6L199.7 26.9Q199.7 25.3 200.3 24.1Q200.8 22.8 201.9 22.1Q203.0 21.5 204.4 21.5L204.4 21.5Q206.4 21.5 207.6 22.5Q208.8 23.6 209.0 25.5L209.0 25.5L206.6 25.5Q206.5 24.4 206.0 23.9Q205.5 23.4 204.4 23.4L204.4 23.4Q203.2 23.4 202.6 24.2Q202.1 25.1 202.0 26.8L202.0 26.8L202.0 27.7Q202.0 29.5 202.6 30.4Q203.2 31.2 204.4 31.2L204.4 31.2Q205.5 31.2 206.0 30.7Q206.5 30.3 206.6 29.2L206.6 29.2ZM216.4 30.0L216.4 30.0Q216.4 29.4 215.9 29.0Q215.4 28.6 214.2 28.2Q213.0 27.9 212.3 27.5L212.3 27.5Q210.4 26.4 210.4 24.6L210.4 24.6Q210.4 23.7 210.9 23.0Q211.4 22.3 212.4 21.9Q213.3 21.5 214.6 21.5L214.6 21.5Q215.8 21.5 216.7 21.9Q217.7 22.4 218.2 23.2Q218.7 24.0 218.7 25.0L218.7 25.0L216.4 25.0Q216.4 24.2 215.9 23.8Q215.4 23.3 214.5 23.3L214.5 23.3Q213.7 23.3 213.2 23.7Q212.7 24.1 212.7 24.7L212.7 24.7Q212.7 25.2 213.3 25.6Q213.8 26.0 214.9 26.3L214.9 26.3Q216.9 26.9 217.8 27.8Q218.7 28.7 218.7 30L218.7 30Q218.7 31.5 217.6 32.3Q216.5 33.2 214.6 33.2L214.6 33.2Q213.3 33.2 212.2 32.7Q211.1 32.2 210.6 31.4Q210.0 30.5 210.0 29.4L210.0 29.4L212.4 29.4Q212.4 31.3 214.6 31.3L214.6 31.3Q215.4 31.3 215.9 31.0Q216.4 30.6 216.4 30.0ZM226.2 30.0L226.2 30.0Q226.2 29.4 225.8 29.0Q225.3 28.6 224.1 28.2Q222.8 27.9 222.1 27.5L222.1 27.5Q220.2 26.4 220.2 24.6L220.2 24.6Q220.2 23.7 220.7 23.0Q221.2 22.3 222.2 21.9Q223.2 21.5 224.4 21.5L224.4 21.5Q225.6 21.5 226.6 21.9Q227.5 22.4 228.0 23.2Q228.6 24.0 228.6 25.0L228.6 25.0L226.2 25.0Q226.2 24.2 225.7 23.8Q225.2 23.3 224.4 23.3L224.4 23.3Q223.5 23.3 223.0 23.7Q222.5 24.1 222.5 24.7L222.5 24.7Q222.5 25.2 223.1 25.6Q223.7 26.0 224.7 26.3L224.7 26.3Q226.7 26.9 227.7 27.8Q228.6 28.7 228.6 30L228.6 30Q228.6 31.5 227.5 32.3Q226.3 33.2 224.4 33.2L224.4 33.2Q223.1 33.2 222.1 32.7Q221.0 32.2 220.4 31.4Q219.8 30.5 219.8 29.4L219.8 29.4L222.2 29.4Q222.2 31.3 224.4 31.3L224.4 31.3Q225.3 31.3 225.8 31.0Q226.2 30.6 226.2 30.0Z "/></g><mask id="satori_om-id-1-1-2"><rect x="239" y="18" width="34" height="19" fill="#fff"/></mask><g  ><path fill="#7d8590" d="M247.3 21.6L247.3 22.4L242.6 33L241.1 33L245.8 22.8L239.6 22.8L239.6 21.6L247.3 21.6ZM249.1 32.2L249.1 32.2Q249.1 31.9 249.3 31.6Q249.6 31.4 250 31.4Q250.4 31.4 250.7 31.6Q250.9 31.9 250.9 32.2L250.9 32.2Q250.9 32.6 250.7 32.8Q250.4 33.1 250 33.1Q249.6 33.1 249.3 32.8Q249.1 32.6 249.1 32.2ZM260.6 31.8L260.6 33L253.1 33L253.1 32.0L257.1 27.6Q258.0 26.6 258.3 26.0Q258.6 25.4 258.6 24.7L258.6 24.7Q258.6 23.8 258.1 23.2Q257.5 22.7 256.6 22.7L256.6 22.7Q255.6 22.7 255.0 23.3Q254.4 23.9 254.4 25.0L254.4 25.0L252.9 25.0Q252.9 23.4 253.9 22.4Q254.9 21.5 256.6 21.5L256.6 21.5Q258.2 21.5 259.1 22.3Q260.1 23.1 260.1 24.5L260.1 24.5Q260.1 26.2 257.9 28.5L257.9 28.5L254.9 31.8L260.6 31.8ZM262 24.4L262 23.8Q262 22.8 262.7 22.1Q263.3 21.5 264.3 21.5L264.3 21.5Q265.4 21.5 266.0 22.1Q266.7 22.8 266.7 23.9L266.7 23.9L266.7 24.4Q266.7 25.4 266.0 26.1Q265.4 26.8 264.3 26.8L264.3 26.8Q263.3 26.8 262.7 26.1Q262 25.4 262 24.4L262 24.4ZM263.1 23.8L263.1 24.4Q263.1 25.0 263.4 25.4Q263.8 25.8 264.3 25.8L264.3 25.8Q264.9 25.8 265.2 25.4Q265.6 25.0 265.6 24.4L265.6 24.4L265.6 23.8Q265.6 23.2 265.2 22.8Q264.9 22.4 264.3 22.4Q263.8 22.4 263.4 22.8Q263.1 23.2 263.1 23.8L263.1 23.8ZM267.5 30.8L267.5 30.2Q267.5 29.2 268.2 28.5Q268.8 27.9 269.9 27.9Q270.9 27.9 271.5 28.5Q272.2 29.2 272.2 30.3L272.2 30.3L272.2 30.8Q272.2 31.8 271.6 32.5Q270.9 33.2 269.9 33.2Q268.9 33.2 268.2 32.5Q267.5 31.9 267.5 30.8L267.5 30.8ZM268.6 30.2L268.6 30.8Q268.6 31.4 269.0 31.8Q269.3 32.2 269.9 32.2L269.9 32.2Q270.4 32.2 270.8 31.8Q271.1 31.5 271.1 30.8L271.1 30.8L271.1 30.2Q271.1 29.6 270.8 29.2Q270.4 28.8 269.9 28.8L269.9 28.8Q269.3 28.8 269.0 29.2Q268.6 29.6 268.6 30.2L268.6 30.2ZM270.2 23.3L264.7 32.1L263.9 31.6L269.4 22.7L270.2 23.3Z "/></g><mask id="satori_om-id-1-2"><rect x="0" y="47" width="123" height="19" fill="#fff"/></mask><mask id="satori_om-id-1-2-0"><rect x="0" y="49" width="16" height="16" fill="#fff"/></mask><mask id="satori_om-id-1-2-0-0"><rect x="4" y="53" width="8" height="8" fill="#fff"/></mask><path x="4" y="53" width="8" height="8" fill="#3572A5" d="M8,53 h0 a4,4 0 0 1 4,4 v0 a4,4 0 0 1 -4,4 h0 a4,4 0 0 1 -4,-4 v0 a4,4 0 0 1 4,-4"/><mask id="satori_om-id-1-2-1"><rect x="29" y="47" width="51" height="19" fill="#fff"/></mask><g  ><path fill="#fff" d="M34.4 58.0L32.4 58.0L32.4 62L30.0 62L30.0 50.6L34.5 50.6Q35.7 50.6 36.7 51.1Q37.7 51.6 38.2 52.4Q38.7 53.3 38.7 54.4L38.7 54.4Q38.7 56.1 37.6 57.0Q36.4 58.0 34.4 58.0L34.4 58.0ZM32.4 52.5L32.4 56.1L34.5 56.1Q35.4 56.1 35.9 55.7Q36.4 55.2 36.4 54.4L36.4 54.4Q36.4 53.6 35.9 53.1Q35.4 52.5 34.5 52.5L34.5 52.5L32.4 52.5ZM41.9 53.5L43.5 58.8L45.0 53.5L47.4 53.5L44.0 63.3L43.9 63.8Q43.1 65.4 41.4 65.4L41.4 65.4Q40.9 65.4 40.4 65.3L40.4 65.3L40.4 63.6L40.7 63.6Q41.3 63.6 41.7 63.4Q42.0 63.2 42.2 62.7L42.2 62.7L42.4 62.0L39.5 53.5L41.9 53.5ZM48.8 51.5L51.0 51.5L51.0 53.5L52.5 53.5L52.5 55.2L51.0 55.2L51.0 59.4Q51.0 59.9 51.2 60.1Q51.4 60.3 51.9 60.3L51.9 60.3Q52.3 60.3 52.6 60.2L52.6 60.2L52.6 62.0Q51.9 62.2 51.2 62.2L51.2 62.2Q48.8 62.2 48.8 59.8L48.8 59.8L48.8 55.2L47.5 55.2L47.5 53.5L48.8 53.5L48.8 51.5ZM55.9 50L55.9 54.5Q56.8 53.4 58.2 53.4L58.2 53.4Q61.0 53.4 61.0 56.6L61.0 56.6L61.0 62L58.7 62L58.7 56.6Q58.7 55.9 58.4 55.6Q58.1 55.2 57.4 55.2L57.4 55.2Q56.4 55.2 55.9 56.0L55.9 56.0L55.9 62L53.7 62L53.7 50L55.9 50ZM62.3 57.8L62.3 57.7Q62.3 56.4 62.8 55.5Q63.3 54.5 64.2 53.9Q65.1 53.4 66.3 53.4L66.3 53.4Q68.0 53.4 69.1 54.4Q70.2 55.5 70.3 57.3L70.3 57.3L70.4 57.9Q70.4 59.8 69.3 61.0Q68.2 62.2 66.4 62.2Q64.5 62.2 63.4 61.0Q62.3 59.8 62.3 57.8L62.3 57.8ZM64.6 57.9L64.6 57.9Q64.6 59.1 65.1 59.7Q65.5 60.3 66.4 60.3L66.4 60.3Q67.2 60.3 67.6 59.7Q68.1 59.1 68.1 57.7L68.1 57.7Q68.1 56.5 67.6 55.9Q67.2 55.2 66.3 55.2L66.3 55.2Q65.5 55.2 65.1 55.9Q64.6 56.5 64.6 57.9ZM71.7 53.5L73.8 53.5L73.9 54.5Q74.8 53.4 76.3 53.4L76.3 53.4Q77.7 53.4 78.3 54.2Q79.0 55.0 79.0 56.5L79.0 56.5L79.0 62L76.7 62L76.7 56.6Q76.7 55.9 76.4 55.6Q76.1 55.2 75.4 55.2L75.4 55.2Q74.4 55.2 74.0 56.0L74.0 56.0L74.0 62L71.7 62L71.7 53.5Z "/></g><mask id="satori_om-id-1-2-2"><rect x="89" y="47" width="34" height="19" fill="#fff"/></mask><g  ><path fill="#7d8590" d="M95.4 50.6L95.6 50.6L95.6 51.8L95.4 51.8Q93.7 51.9 92.7 52.8Q91.7 53.8 91.5 55.6L91.5 55.6Q92.4 54.5 94.0 54.5L94.0 54.5Q95.4 54.5 96.3 55.6Q97.2 56.6 97.2 58.3L97.2 58.3Q97.2 60.0 96.3 61.1Q95.3 62.2 93.7 62.2L93.7 62.2Q92.1 62.2 91.0 60.9Q90.0 59.6 90.0 57.7L90.0 57.7L90.0 57.1Q90.0 54.0 91.4 52.3Q92.7 50.7 95.4 50.6L95.4 50.6ZM93.7 55.7L93.7 55.7Q93.0 55.7 92.4 56.2Q91.7 56.6 91.5 57.3L91.5 57.3L91.5 57.8Q91.5 59.2 92.1 60.1Q92.8 61.0 93.7 61.0L93.7 61.0Q94.7 61.0 95.2 60.2Q95.8 59.5 95.8 58.4L95.8 58.4Q95.8 57.2 95.2 56.5Q94.7 55.7 93.7 55.7ZM99.1 61.2L99.1 61.2Q99.1 60.9 99.3 60.6Q99.6 60.4 100 60.4Q100.4 60.4 100.7 60.6Q100.9 60.9 100.9 61.2L100.9 61.2Q100.9 61.6 100.7 61.8Q100.4 62.1 100 62.1Q99.6 62.1 99.3 61.8Q99.1 61.6 99.1 61.2ZM108.7 57L108.7 57Q108.2 57.5 107.6 57.9Q107.0 58.2 106.2 58.2L106.2 58.2Q105.2 58.2 104.5 57.7Q103.8 57.2 103.4 56.3Q103.0 55.5 103.0 54.4L103.0 54.4Q103.0 53.3 103.4 52.4Q103.8 51.4 104.6 51.0Q105.4 50.5 106.5 50.5L106.5 50.5Q108.2 50.5 109.2 51.7Q110.1 53.0 110.1 55.2L110.1 55.2L110.1 55.6Q110.1 58.9 108.8 60.4Q107.5 62.0 104.9 62.0L104.9 62.0L104.6 62.0L104.6 60.8L104.9 60.8Q106.7 60.8 107.6 59.9Q108.6 59.0 108.7 57ZM106.5 57L106.5 57Q107.2 57 107.8 56.6Q108.4 56.1 108.7 55.5L108.7 55.5L108.7 54.9Q108.7 53.5 108.1 52.6Q107.5 51.7 106.5 51.7L106.5 51.7Q105.6 51.7 105.0 52.4Q104.4 53.1 104.4 54.3L104.4 54.3Q104.4 55.5 105.0 56.2Q105.5 57 106.5 57ZM112 53.4L112 52.8Q112 51.8 112.7 51.1Q113.3 50.5 114.3 50.5L114.3 50.5Q115.4 50.5 116.0 51.1Q116.7 51.8 116.7 52.9L116.7 52.9L116.7 53.4Q116.7 54.4 116.0 55.1Q115.4 55.8 114.3 55.8L114.3 55.8Q113.3 55.8 112.7 55.1Q112 54.4 112 53.4L112 53.4ZM113.1 52.8L113.1 53.4Q113.1 54.0 113.4 54.4Q113.8 54.8 114.3 54.8L114.3 54.8Q114.9 54.8 115.2 54.4Q115.6 54.0 115.6 53.4L115.6 53.4L115.6 52.8Q115.6 52.2 115.2 51.8Q114.9 51.4 114.3 51.4Q113.8 51.4 113.4 51.8Q113.1 52.2 113.1 52.8L113.1 52.8ZM117.5 59.8L117.5 59.2Q117.5 58.2 118.2 57.5Q118.8 56.9 119.9 56.9Q120.9 56.9 121.5 57.5Q122.2 58.2 122.2 59.3L122.2 59.3L122.2 59.8Q122.2 60.8 121.6 61.5Q120.9 62.2 119.9 62.2Q118.9 62.2 118.2 61.5Q117.5 60.9 117.5 59.8L117.5 59.8ZM118.6 59.2L118.6 59.8Q118.6 60.4 119.0 60.8Q119.3 61.2 119.9 61.2L119.9 61.2Q120.4 61.2 120.8 60.8Q121.1 60.5 121.1 59.8L121.1 59.8L121.1 59.2Q121.1 58.6 120.8 58.2Q120.4 57.8 119.9 57.8L119.9 57.8Q119.3 57.8 119.0 58.2Q118.6 58.6 118.6 59.2L118.6 59.2ZM120.2 52.3L114.7 61.1L113.9 60.6L119.4 51.7L120.2 52.3Z "/></g><mask id="satori_om-id-1-3"><rect x="133" y="47" width="109" height="19" fill="#fff"/></mask><mask id="satori_om-id-1-3-0"><rect x="133" y="49" width="16" height="16" fill="#fff"/></mask><mask id="satori_om-id-1-3-0-0"><rect x="137" y="53" width="8" height="8" fill="#fff"/></mask><path x="137" y="53" width="8" height="8" fill="#701516" d="M141,53 h0 a4,4 0 0 1 4,4 v0 a4,4 0 0 1 -4,4 h0 a4,4 0 0 1 -4,-4 v0 a4,4 0 0 1 4,-4"/><mask id="satori_om-id-1-3-1"><rect x="162" y="47" width="37" height="19" fill="#fff"/></mask><g  ><path fill="#fff" d="M169.4 62L167.2 57.8L165.4 57.8L165.4 62L163.0 62L163.0 50.6L167.2 50.6Q169.3 50.6 170.4 51.5Q171.4 52.4 171.4 54.1L171.4 54.1Q171.4 55.2 170.9 56.0Q170.4 56.8 169.4 57.2L169.4 57.2L171.9 61.9L171.9 62L169.4 62ZM165.4 52.5L165.4 55.9L167.3 55.9Q168.1 55.9 168.6 55.5Q169.1 55.0 169.1 54.3L169.1 54.3Q169.1 53.4 168.6 53.0Q168.2 52.5 167.2 52.5L167.2 52.5L165.4 52.5ZM178.2 62L178.1 61.1Q177.3 62.2 175.8 62.2L175.8 62.2Q174.5 62.2 173.8 61.4Q173.0 60.6 173.0 59.1L173.0 59.1L173.0 53.5L175.3 53.5L175.3 59.0Q175.3 60.3 176.5 60.3L176.5 60.3Q177.6 60.3 178.1 59.5L178.1 59.5L178.1 53.5L180.3 53.5L180.3 62L178.2 62ZM189.6 57.7L189.6 57.9Q189.6 59.9 188.8 61.0Q187.9 62.2 186.4 62.2L186.4 62.2Q185.0 62.2 184.2 61.1L184.2 61.1L184.1 62L182.0 62L182.0 50L184.3 50L184.3 54.3Q185.1 53.4 186.3 53.4L186.3 53.4Q187.9 53.4 188.8 54.5Q189.6 55.7 189.6 57.7L189.6 57.7ZM187.4 57.7L187.4 57.7Q187.4 56.4 187.0 55.8Q186.6 55.2 185.8 55.2L185.8 55.2Q184.7 55.2 184.3 56.1L184.3 56.1L184.3 59.4Q184.7 60.3 185.8 60.3L185.8 60.3Q186.9 60.3 187.2 59.3L187.2 59.3Q187.4 58.7 187.4 57.7ZM192.5 53.5L194.1 58.8L195.7 53.5L198.1 53.5L194.7 63.3L194.5 63.8Q193.8 65.4 192.0 65.4L192.0 65.4Q191.5 65.4 191.0 65.3L191.0 65.3L191.0 63.6L191.4 63.6Q192.0 63.6 192.3 63.4Q192.6 63.2 192.8 62.7L192.8 62.7L193.1 62.0L190.1 53.5L192.5 53.5Z "/></g><mask id="satori_om-id-1-3-2"><rect x="208" y="47" width="34" height="19" fill="#fff"/></mask><g  ><path fill="#7d8590" d="M214.4 50.6L214.6 50.6L214.6 51.8L214.4 51.8Q212.7 51.9 211.7 52.8Q210.7 53.8 210.5 55.6L210.5 55.6Q211.4 54.5 213.0 54.5L213.0 54.5Q214.4 54.5 215.3 55.6Q216.2 56.6 216.2 58.3L216.2 58.3Q216.2 60.0 215.3 61.1Q214.3 62.2 212.7 62.2L212.7 62.2Q211.1 62.2 210.0 60.9Q209.0 59.6 209.0 57.7L209.0 57.7L209.0 57.1Q209.0 54.0 210.4 52.3Q211.7 50.7 214.4 50.6L214.4 50.6ZM212.7 55.7L212.7 55.7Q212.0 55.7 211.4 56.2Q210.7 56.6 210.5 57.3L210.5 57.3L210.5 57.8Q210.5 59.2 211.1 60.1Q211.8 61.0 212.7 61.0L212.7 61.0Q213.7 61.0 214.2 60.2Q214.8 59.5 214.8 58.4L214.8 58.4Q214.8 57.2 214.2 56.5Q213.7 55.7 212.7 55.7ZM218.1 61.2L218.1 61.2Q218.1 60.9 218.3 60.6Q218.6 60.4 219 60.4Q219.4 60.4 219.7 60.6Q219.9 60.9 219.9 61.2L219.9 61.2Q219.9 61.6 219.7 61.8Q219.4 62.1 219 62.1Q218.6 62.1 218.3 61.8Q218.1 61.6 218.1 61.2ZM229.0 53.6L229.0 53.6Q229.0 54.4 228.6 55.1Q228.1 55.8 227.4 56.1L227.4 56.1Q228.3 56.5 228.8 57.3Q229.3 58 229.3 58.9L229.3 58.9Q229.3 60.4 228.3 61.3Q227.3 62.2 225.7 62.2L225.7 62.2Q224.0 62.2 223.1 61.3Q222.1 60.4 222.1 58.9L222.1 58.9Q222.1 58.0 222.6 57.3Q223.1 56.5 224.0 56.1L224.0 56.1Q223.2 55.8 222.8 55.1Q222.3 54.4 222.3 53.6L222.3 53.6Q222.3 52.2 223.3 51.3Q224.2 50.5 225.7 50.5L225.7 50.5Q227.2 50.5 228.1 51.3Q229.0 52.2 229.0 53.6ZM227.9 58.9L227.9 58.9Q227.9 57.9 227.3 57.3Q226.6 56.7 225.7 56.7Q224.7 56.7 224.1 57.3Q223.5 57.9 223.5 58.9Q223.5 59.9 224.1 60.4Q224.7 61.0 225.7 61.0L225.7 61.0Q226.7 61.0 227.3 60.4Q227.9 59.9 227.9 58.9ZM225.7 51.7L225.7 51.7Q224.8 51.7 224.3 52.2Q223.8 52.7 223.8 53.6L223.8 53.6Q223.8 54.5 224.3 55.0Q224.8 55.6 225.7 55.6Q226.6 55.6 227.1 55.0Q227.6 54.5 227.6 53.6Q227.6 52.8 227.1 52.2Q226.5 51.7 225.7 51.7ZM231 53.4L231 52.8Q231 51.8 231.7 51.1Q232.3 50.5 233.3 50.5L233.3 50.5Q234.4 50.5 235.0 51.1Q235.7 51.8 235.7 52.9L235.7 52.9L235.7 53.4Q235.7 54.4 235.0 55.1Q234.4 55.8 233.3 55.8L233.3 55.8Q232.3 55.8 231.7 55.1Q231 54.4 231 53.4L231 53.4ZM232.1 52.8L232.1 53.4Q232.1 54.0 232.4 54.4Q232.8 54.8 233.3 54.8L233.3 54.8Q233.9 54.8 234.2 54.4Q234.6 54.0 234.6 53.4L234.6 53.4L234.6 52.8Q234.6 52.2 234.2 51.8Q233.9 51.4 233.3 51.4Q232.8 51.4 232.4 51.8Q232.1 52.2 232.1 52.8L232.1 52.8ZM236.5 59.8L236.5 59.2Q236.5 58.2 237.2 57.5Q237.8 56.9 238.9 56.9Q239.9 56.9 240.5 57.5Q241.2 58.2 241.2 59.3L241.2 59.3L241.2 59.8Q241.2 60.8 240.6 61.5Q239.9 62.2 238.9 62.2Q237.9 62.2 237.2 61.5Q236.5 60.9 236.5 59.8L236.5 59.8ZM237.6 59.2L237.6 59.8Q237.6 60.4 238.0 60.8Q238.3 61.2 238.9 61.2L238.9 61.2Q239.4 61.2 239.8 60.8Q240.1 60.5 240.1 59.8L240.1 59.8L240.1 59.2Q240.1 58.6 239.8 58.2Q239.4 57.8 238.9 57.8L238.9 57.8Q238.3 57.8 238.0 58.2Q237.6 58.6 237.6 59.2L237.6 59.2ZM239.2 52.3L233.7 61.1L232.9 60.6L238.4 51.7L239.2 52.3Z "/></g><mask id="satori_om-id-1-4"><rect x="252" y="47" width="116" height="19" fill="#fff"/></mask><mask id="satori_om-id-1-4-0"><rect x="252" y="49" width="16" height="16" fill="#fff"/></mask><mask id="satori_om-id-1-4-0-0"><rect x="256" y="53" width="8" height="8" fill="#fff"/></mask><path x="256" y="53" width="8" height="8" fill="#e34c26" d="M260,53 h0 a4,4 0 0 1 4,4 v0 a4,4 0 0 1 -4,4 h0 a4,4 0 0 1 -4,-4 v0 a4,4 0 0 1 4,-4"/><mask id="satori_om-id-1-4-1"><rect x="281" y="47" width="44" height="19" fill="#fff"/></mask><g  ><path fill="#fff" d="M291.3 50.6L291.3 62L288.9 62L288.9 57.1L284.4 57.1L284.4 62L282.0 62L282.0 50.6L284.4 50.6L284.4 55.2L288.9 55.2L288.9 50.6L291.3 50.6ZM301.7 50.6L301.7 52.5L298.2 52.5L298.2 62L295.8 62L295.8 52.5L292.4 52.5L292.4 50.6L301.7 50.6ZM303.0 50.6L306.1 50.6L309.0 58.9L311.9 50.6L315.0 50.6L315.0 62L312.6 62L312.6 58.9L312.8 53.5L309.8 62L308.2 62L305.1 53.5L305.3 58.9L305.3 62L303.0 62L303.0 50.6ZM319.4 50.6L319.4 60.1L324.3 60.1L324.3 62L317.0 62L317.0 50.6L319.4 50.6Z "/></g><mask id="satori_om-id-1-4-2"><rect x="334" y="47" width="34" height="19" fill="#fff"/></mask><g  ><path fill="#7d8590" d="M336.8 56.6L335.6 56.3L336.2 50.6L342.0 50.6L342.0 52.0L337.4 52.0L337.1 55.1Q337.9 54.6 339.0 54.6L339.0 54.6Q340.5 54.6 341.4 55.6Q342.4 56.6 342.4 58.4L342.4 58.4Q342.4 60.1 341.4 61.1Q340.5 62.2 338.8 62.2L338.8 62.2Q337.2 62.2 336.3 61.3Q335.3 60.5 335.2 59.0L335.2 59.0L336.6 59.0Q336.7 60.0 337.3 60.5Q337.8 61.0 338.8 61.0L338.8 61.0Q339.8 61.0 340.3 60.3Q340.9 59.6 340.9 58.4L340.9 58.4Q340.9 57.3 340.3 56.6Q339.7 55.9 338.6 55.9L338.6 55.9Q337.7 55.9 337.1 56.3L337.1 56.3L336.8 56.6ZM344.1 61.2L344.1 61.2Q344.1 60.9 344.3 60.6Q344.6 60.4 345 60.4Q345.4 60.4 345.7 60.6Q345.9 60.9 345.9 61.2L345.9 61.2Q345.9 61.6 345.7 61.8Q345.4 62.1 345 62.1Q344.6 62.1 344.3 61.8Q344.1 61.6 344.1 61.2ZM354.2 50.6L354.2 58.2L355.8 58.2L355.8 59.4L354.2 59.4L354.2 62L352.8 62L352.8 59.4L347.6 59.4L347.6 58.5L352.7 50.6L354.2 50.6ZM352.6 52.9L349.3 58.2L352.8 58.2L352.8 52.6L352.6 52.9ZM357 53.4L357 52.8Q357 51.8 357.7 51.1Q358.3 50.5 359.3 50.5L359.3 50.5Q360.4 50.5 361.0 51.1Q361.7 51.8 361.7 52.9L361.7 52.9L361.7 53.4Q361.7 54.4 361.0 55.1Q360.4 55.8 359.3 55.8L359.3 55.8Q358.3 55.8 357.7 55.1Q357 54.4 357 53.4L357 53.4ZM358.1 52.8L358.1 53.4Q358.1 54.0 358.4 54.4Q358.8 54.8 359.3 54.8L359.3 54.8Q359.9 54.8 360.2 54.4Q360.6 54.0 360.6 53.4L360.6 53.4L360.6 52.8Q360.6 52.2 360.2 51.8Q359.9 51.4 359.3 51.4Q358.8 51.4 358.4 51.8Q358.1 52.2 358.1 52.8L358.1 52.8ZM362.5 59.8L362.5 59.2Q362.5 58.2 363.2 57.5Q363.8 56.9 364.9 56.9Q365.9 56.9 366.5 57.5Q367.2 58.2 367.2 59.3L367.2 59.3L367.2 59.8Q367.2 60.8 366.6 61.5Q365.9 62.2 364.9 62.2Q363.9 62.2 363.2 61.5Q362.5 60.9 362.5 59.8L362.5 59.8ZM363.6 59.2L363.6 59.8Q363.6 60.4 364.0 60.8Q364.3 61.2 364.9 61.2L364.9 61.2Q365.4 61.2 365.8 60.8Q366.1 60.5 366.1 59.8L366.1 59.8L366.1 59.2Q366.1 58.6 365.8 58.2Q365.4 57.8 364.9 57.8L364.9 57.8Q364.3 57.8 364.0 58.2Q363.6 58.6 363.6 59.2L363.6 59.2ZM365.2 52.3L359.7 61.1L358.9 60.6L364.4 51.7L365.2 52.3Z "/></g><mask id="satori_om-id-1-5"><rect x="0" y="76" width="92" height="19" fill="#fff"/></mask><mask id="satori_om-id-1-5-0"><rect x="0" y="78" width="16" height="16" fill="#fff"/></mask><mask id="satori_om-id-1-5-0-0"><rect x="4" y="82" width="8" height="8" fill="#fff"/></mask><path x="4" y="82" width="8" height="8" fill="#00ADD8" d="M8,82 h0 a4,4 0 0 1 4,4 v0 a4,4 0 0 1 -4,4 h0 a4,4 0 0 1 -4,-4 v0 a4,4 0 0 1 4,-4"/><mask id="satori_om-id-1-5-1"><rect x="29" y="76" width="20" height="19" fill="#fff"/></mask><g  ><path fill="#fff" d="M39.0 85.0L39.0 89.6Q38.4 90.3 37.2 90.7Q36.1 91.2 34.7 91.2L34.7 91.2Q33.2 91.2 32.1 90.5Q31.0 89.9 30.4 88.6Q29.8 87.4 29.7 85.8L29.7 85.8L29.7 85.0Q29.7 83.3 30.3 82.0Q30.9 80.8 32.0 80.1Q33.0 79.5 34.5 79.5L34.5 79.5Q36.5 79.5 37.7 80.4Q38.8 81.4 39.0 83.2L39.0 83.2L36.7 83.2Q36.6 82.3 36.0 81.8Q35.5 81.4 34.6 81.4L34.6 81.4Q33.4 81.4 32.8 82.3Q32.1 83.2 32.1 84.9L32.1 84.9L32.1 85.7Q32.1 87.4 32.8 88.4Q33.5 89.3 34.8 89.3L34.8 89.3Q36.1 89.3 36.7 88.7L36.7 88.7L36.7 86.8L34.5 86.8L34.5 85.0L39.0 85.0ZM40.4 86.8L40.4 86.7Q40.4 85.4 40.9 84.5Q41.4 83.5 42.3 82.9Q43.2 82.4 44.4 82.4L44.4 82.4Q46.1 82.4 47.2 83.4Q48.3 84.5 48.4 86.3L48.4 86.3L48.4 86.9Q48.4 88.8 47.3 90.0Q46.3 91.2 44.4 91.2Q42.6 91.2 41.5 90.0Q40.4 88.8 40.4 86.8L40.4 86.8ZM42.7 86.9L42.7 86.9Q42.7 88.1 43.1 88.7Q43.6 89.3 44.4 89.3L44.4 89.3Q45.2 89.3 45.7 88.7Q46.2 88.1 46.2 86.7L46.2 86.7Q46.2 85.5 45.7 84.9Q45.2 84.2 44.4 84.2L44.4 84.2Q43.6 84.2 43.1 84.9Q42.7 85.5 42.7 86.9Z "/></g><mask id="satori_om-id-1-5-2"><rect x="58" y="76" width="34" height="19" fill="#fff"/></mask><g  ><path fill="#7d8590" d="M65.0 79.6L65.0 87.2L66.6 87.2L66.6 88.4L65.0 88.4L65.0 91L63.6 91L63.6 88.4L58.4 88.4L58.4 87.5L63.5 79.6L65.0 79.6ZM63.4 81.9L60.1 87.2L63.6 87.2L63.6 81.6L63.4 81.9ZM68.1 90.2L68.1 90.2Q68.1 89.9 68.3 89.6Q68.6 89.4 69 89.4Q69.4 89.4 69.7 89.6Q69.9 89.9 69.9 90.2L69.9 90.2Q69.9 90.6 69.7 90.8Q69.4 91.1 69 91.1Q68.6 91.1 68.3 90.8Q68.1 90.6 68.1 90.2ZM76.9 79.6L76.9 91L75.4 91L75.4 81.4L72.5 82.4L72.5 81.1L76.7 79.6L76.9 79.6ZM81 82.4L81 81.8Q81 80.8 81.7 80.1Q82.3 79.5 83.3 79.5L83.3 79.5Q84.4 79.5 85.0 80.1Q85.7 80.8 85.7 81.9L85.7 81.9L85.7 82.4Q85.7 83.4 85.0 84.1Q84.4 84.8 83.3 84.8L83.3 84.8Q82.3 84.8 81.7 84.1Q81 83.4 81 82.4L81 82.4ZM82.1 81.8L82.1 82.4Q82.1 83.0 82.4 83.4Q82.8 83.8 83.3 83.8L83.3 83.8Q83.9 83.8 84.2 83.4Q84.6 83.0 84.6 82.4L84.6 82.4L84.6 81.8Q84.6 81.2 84.2 80.8Q83.9 80.4 83.3 80.4Q82.8 80.4 82.4 80.8Q82.1 81.2 82.1 81.8L82.1 81.8ZM86.5 88.8L86.5 88.2Q86.5 87.2 87.2 86.5Q87.8 85.9 88.9 85.9Q89.9 85.9 90.5 86.5Q91.2 87.2 91.2 88.3L91.2 88.3L91.2 88.8Q91.2 89.8 90.6 90.5Q89.9 91.2 88.9 91.2Q87.9 91.2 87.2 90.5Q86.5 89.9 86.5 88.8L86.5 88.8ZM87.6 88.2L87.6 88.8Q87.6 89.4 88.0 89.8Q88.3 90.2 88.9 90.2L88.9 90.2Q89.4 90.2 89.8 89.8Q90.1 89.5 90.1 88.8L90.1 88.8L90.1 88.2Q90.1 87.6 89.8 87.2Q89.4 86.8 88.9 86.8L88.9 86.8Q88.3 86.8 88.0 87.2Q87.6 87.6 87.6 88.2L87.6 88.2ZM89.2 81.3L83.7 90.1L82.9 89.6L88.4 80.7L89.2 81.3Z "/></g><mask id="satori_om-id-1-6"><rect x="102" y="76" width="149" height="19" fill="#fff"/></mask><mask id="satori_om-id-1-6-0"><rect x="102" y="78" width="16" height="16" fill="#fff"/></mask><mask id="satori_om-id-1-6-0-0"><rect x="106" y="82" width="8" height="8" fill="#fff"/></mask><path x="106" y="82" width="8" height="8" fill="#f1e05a" d="M110,82 h0 a4,4 0 0 1 4,4 v0 a4,4 0 0 1 -4,4 h0 a4,4 0 0 1 -4,-4 v0 a4,4 0 0 1 4,-4"/><mask id="satori_om-id-1-6-1"><rect x="131" y="76" width="77" height="19" fill="#fff"/></mask><g  ><path fill="#fff" d="M136.6 87.5L136.6 79.6L138.9 79.6L138.9 87.5Q138.9 88.6 138.5 89.4Q138.0 90.3 137.1 90.7Q136.2 91.2 135.1 91.2L135.1 91.2Q133.3 91.2 132.3 90.2Q131.3 89.3 131.3 87.6L131.3 87.6L133.7 87.6Q133.7 88.5 134.0 88.9Q134.4 89.3 135.1 89.3L135.1 89.3Q135.8 89.3 136.2 88.8Q136.6 88.4 136.6 87.5L136.6 87.5ZM148.0 91L145.7 91Q145.5 90.7 145.5 90.2L145.5 90.2Q144.7 91.2 143.3 91.2L143.3 91.2Q142.1 91.2 141.3 90.4Q140.5 89.7 140.5 88.6L140.5 88.6Q140.5 87.3 141.5 86.6Q142.5 85.8 144.3 85.8L144.3 85.8L145.4 85.8L145.4 85.4Q145.4 84.8 145.1 84.4Q144.8 84.1 144.1 84.1L144.1 84.1Q143.6 84.1 143.2 84.3Q142.9 84.6 142.9 85.1L142.9 85.1L140.7 85.1Q140.7 84.4 141.1 83.7Q141.6 83.1 142.4 82.7Q143.2 82.4 144.3 82.4L144.3 82.4Q145.8 82.4 146.7 83.2Q147.6 84.0 147.6 85.4L147.6 85.4L147.6 89.0Q147.7 90.3 148.0 90.9L148.0 90.9L148.0 91ZM143.8 89.4L143.8 89.4Q144.3 89.4 144.8 89.2Q145.2 89.0 145.4 88.6L145.4 88.6L145.4 87.2L144.5 87.2Q142.8 87.2 142.7 88.3L142.7 88.3L142.7 88.5Q142.7 88.9 143.0 89.2Q143.3 89.4 143.8 89.4ZM150.9 82.5L152.4 88.2L154 82.5L156.4 82.5L153.5 91L151.4 91L148.5 82.5L150.9 82.5ZM164.4 91L162.1 91Q162.0 90.7 161.9 90.2L161.9 90.2Q161.1 91.2 159.8 91.2L159.8 91.2Q158.5 91.2 157.7 90.4Q156.9 89.7 156.9 88.6L156.9 88.6Q156.9 87.3 157.9 86.6Q158.9 85.8 160.8 85.8L160.8 85.8L161.8 85.8L161.8 85.4Q161.8 84.8 161.5 84.4Q161.2 84.1 160.6 84.1L160.6 84.1Q160.0 84.1 159.7 84.3Q159.3 84.6 159.3 85.1L159.3 85.1L157.1 85.1Q157.1 84.4 157.5 83.7Q158.0 83.1 158.8 82.7Q159.6 82.4 160.7 82.4L160.7 82.4Q162.2 82.4 163.2 83.2Q164.1 84.0 164.1 85.4L164.1 85.4L164.1 89.0Q164.1 90.3 164.4 90.9L164.4 90.9L164.4 91ZM160.3 89.4L160.3 89.4Q160.8 89.4 161.2 89.2Q161.6 89.0 161.8 88.6L161.8 88.6L161.8 87.2L161.0 87.2Q159.3 87.2 159.2 88.3L159.2 88.3L159.2 88.5Q159.2 88.9 159.5 89.2Q159.8 89.4 160.3 89.4ZM171.9 88.0L171.9 88.0Q171.9 87.4 171.4 87.0Q170.9 86.6 169.7 86.2Q168.5 85.9 167.8 85.5L167.8 85.5Q165.8 84.4 165.8 82.6L165.8 82.6Q165.8 81.7 166.4 81.0Q166.9 80.3 167.8 79.9Q168.8 79.5 170.0 79.5L170.0 79.5Q171.3 79.5 172.2 79.9Q173.2 80.4 173.7 81.2Q174.2 82.0 174.2 83.0L174.2 83.0L171.9 83.0Q171.9 82.2 171.4 81.8Q170.9 81.3 170.0 81.3L170.0 81.3Q169.1 81.3 168.7 81.7Q168.2 82.1 168.2 82.7L168.2 82.7Q168.2 83.2 168.7 83.6Q169.3 84.0 170.4 84.3L170.4 84.3Q172.4 84.9 173.3 85.8Q174.2 86.7 174.2 88L174.2 88Q174.2 89.5 173.1 90.3Q172.0 91.2 170.1 91.2L170.1 91.2Q168.8 91.2 167.7 90.7Q166.6 90.2 166.1 89.4Q165.5 88.5 165.5 87.4L165.5 87.4L167.8 87.4Q167.8 89.3 170.1 89.3L170.1 89.3Q170.9 89.3 171.4 89.0Q171.9 88.6 171.9 88.0ZM179.2 89.3L179.2 89.3Q179.8 89.3 180.2 89.0Q180.6 88.6 180.6 88.1L180.6 88.1L182.7 88.1Q182.7 88.9 182.2 89.7Q181.8 90.4 181.0 90.8Q180.2 91.2 179.2 91.2L179.2 91.2Q177.4 91.2 176.3 90.0Q175.3 88.9 175.3 86.8L175.3 86.8L175.3 86.7Q175.3 84.7 176.3 83.6Q177.4 82.4 179.2 82.4L179.2 82.4Q180.8 82.4 181.7 83.3Q182.7 84.2 182.7 85.7L182.7 85.7L180.6 85.7Q180.6 85.0 180.2 84.6Q179.8 84.2 179.1 84.2L179.1 84.2Q178.4 84.2 178.0 84.8Q177.6 85.4 177.6 86.7L177.6 86.7L177.6 86.9Q177.6 88.2 178.0 88.8Q178.4 89.3 179.2 89.3ZM188.8 82.5L188.7 84.7Q188.3 84.6 187.9 84.6L187.9 84.6Q186.6 84.6 186.3 85.5L186.3 85.5L186.3 91L184.0 91L184.0 82.5L186.1 82.5L186.2 83.6Q186.9 82.4 188.1 82.4L188.1 82.4Q188.4 82.4 188.8 82.5L188.8 82.5ZM192.2 82.5L192.2 91L189.9 91L189.9 82.5L192.2 82.5ZM189.8 80.4L189.8 80.4Q189.8 79.9 190.2 79.5Q190.5 79.2 191.1 79.2L191.1 79.2Q191.7 79.2 192 79.5Q192.3 79.9 192.3 80.4L192.3 80.4Q192.3 80.9 192.0 81.2Q191.6 81.5 191.1 81.5Q190.5 81.5 190.2 81.2Q189.8 80.9 189.8 80.4ZM201.7 86.7L201.7 86.9Q201.7 88.8 200.8 90.0Q199.9 91.2 198.4 91.2L198.4 91.2Q197.1 91.2 196.3 90.3L196.3 90.3L196.3 94.3L194.1 94.3L194.1 82.5L196.2 82.5L196.2 83.4Q197.1 82.4 198.4 82.4L198.4 82.4Q199.9 82.4 200.8 83.5Q201.7 84.7 201.7 86.7L201.7 86.7ZM199.4 86.7L199.4 86.7Q199.4 85.5 199.0 84.9Q198.6 84.2 197.8 84.2L197.8 84.2Q196.7 84.2 196.3 85.0L196.3 85.0L196.3 88.5Q196.7 89.3 197.8 89.3L197.8 89.3Q199.4 89.3 199.4 86.7ZM203.5 80.5L205.8 80.5L205.8 82.5L207.2 82.5L207.2 84.2L205.8 84.2L205.8 88.4Q205.8 88.9 206.0 89.1Q206.1 89.3 206.6 89.3L206.6 89.3Q207.0 89.3 207.3 89.2L207.3 89.2L207.3 91.0Q206.6 91.2 205.9 91.2L205.9 91.2Q203.6 91.2 203.5 88.8L203.5 88.8L203.5 84.2L202.3 84.2L202.3 82.5L203.5 82.5L203.5 80.5Z "/></g><mask id="satori_om-id-1-6-2"><rect x="217" y="76" width="34" height="19" fill="#fff"/></mask><g  ><path fill="#7d8590" d="M220.0 85.8L220.0 84.6L221.1 84.6Q222.2 84.6 222.7 84.1Q223.3 83.5 223.3 82.7L223.3 82.7Q223.3 80.7 221.3 80.7L221.3 80.7Q220.4 80.7 219.8 81.2Q219.3 81.7 219.3 82.6L219.3 82.6L217.8 82.6Q217.8 81.3 218.8 80.4Q219.8 79.5 221.3 79.5L221.3 79.5Q222.9 79.5 223.9 80.3Q224.8 81.2 224.8 82.7L224.8 82.7Q224.8 83.4 224.3 84.1Q223.8 84.8 223.0 85.2L223.0 85.2Q223.9 85.5 224.4 86.1Q224.9 86.8 224.9 87.8L224.9 87.8Q224.9 89.4 223.9 90.3Q222.9 91.2 221.3 91.2Q219.7 91.2 218.7 90.3Q217.7 89.4 217.7 88L217.7 88L219.2 88Q219.2 88.9 219.8 89.4Q220.4 90.0 221.3 90.0L221.3 90.0Q222.4 90.0 222.9 89.4Q223.5 88.9 223.5 87.9L223.5 87.9Q223.5 86.9 222.9 86.3Q222.3 85.8 221.1 85.8L221.1 85.8L220.0 85.8ZM227.1 90.2L227.1 90.2Q227.1 89.9 227.3 89.6Q227.6 89.4 228 89.4Q228.4 89.4 228.7 89.6Q228.9 89.9 228.9 90.2L228.9 90.2Q228.9 90.6 228.7 90.8Q228.4 91.1 228 91.1Q227.6 91.1 227.3 90.8Q227.1 90.6 227.1 90.2ZM235.9 79.6L235.9 91L234.4 91L234.4 81.4L231.5 82.4L231.5 81.1L235.7 79.6L235.9 79.6ZM240 82.4L240 81.8Q240 80.8 240.7 80.1Q241.3 79.5 242.3 79.5L242.3 79.5Q243.4 79.5 244.0 80.1Q244.7 80.8 244.7 81.9L244.7 81.9L244.7 82.4Q244.7 83.4 244.0 84.1Q243.4 84.8 242.3 84.8L242.3 84.8Q241.3 84.8 240.7 84.1Q240 83.4 240 82.4L240 82.4ZM241.1 81.8L241.1 82.4Q241.1 83.0 241.4 83.4Q241.8 83.8 242.3 83.8L242.3 83.8Q242.9 83.8 243.2 83.4Q243.6 83.0 243.6 82.4L243.6 82.4L243.6 81.8Q243.6 81.2 243.2 80.8Q242.9 80.4 242.3 80.4Q241.8 80.4 241.4 80.8Q241.1 81.2 241.1 81.8L241.1 81.8ZM245.5 88.8L245.5 88.2Q245.5 87.2 246.2 86.5Q246.8 85.9 247.9 85.9Q248.9 85.9 249.5 86.5Q250.2 87.2 250.2 88.3L250.2 88.3L250.2 88.8Q250.2 89.8 249.6 90.5Q248.9 91.2 247.9 91.2Q246.9 91.2 246.2 90.5Q245.5 89.9 245.5 88.8L245.5 88.8ZM246.6 88.2L246.6 88.8Q246.6 89.4 247.0 89.8Q247.3 90.2 247.9 90.2L247.9 90.2Q248.4 90.2 248.8 89.8Q249.1 89.5 249.1 88.8L249.1 88.8L249.1 88.2Q249.1 87.6 248.8 87.2Q248.4 86.8 247.9 86.8L247.9 86.8Q247.3 86.8 247.0 87.2Q246.6 87.6 246.6 88.2L246.6 88.2ZM248.2 81.3L242.7 90.1L241.9 89.6L247.4 80.7L248.2 81.3Z "/></g><mask id="satori_om-id-1-7"><rect x="261" y="76" width="103" height="19" fill="#fff"/></mask><mask id="satori_om-id-1-7-0"><rect x="261" y="78" width="16" height="16" fill="#fff"/></mask><mask id="satori_om-id-1-7-0-0"><rect x="265" y="82" width="8" height="8" fill="#fff"/></mask><path x="265" y="82" width="8" height="8" fill="#844FBA" d="M269,82 h0 a4,4 0 0 1 4,4 v0 a4,4 0 0 1 -4,4 h0 a4,4 0 0 1 -4,-4 v0 a4,4 0 0 1 4,-4"/><mask id="satori_om-id-1-7-1"><rect x="290" y="76" width="31" height="19" fill="#fff"/></mask><g  ><path fill="#fff" d="M300.3 79.6L300.3 91L297.9 91L297.9 86.1L293.4 86.1L293.4 91L291.0 91L291.0 79.6L293.4 79.6L293.4 84.2L297.9 84.2L297.9 79.6L300.3 79.6ZM308.9 87.2L311.3 87.2Q311.1 89.0 309.9 90.1Q308.7 91.2 306.7 91.2L306.7 91.2Q304.5 91.2 303.2 89.7Q302.0 88.2 302.0 85.6L302.0 85.6L302.0 84.9Q302.0 83.3 302.6 82.1Q303.1 80.8 304.2 80.1Q305.3 79.5 306.7 79.5L306.7 79.5Q308.7 79.5 309.9 80.5Q311.1 81.6 311.3 83.5L311.3 83.5L308.9 83.5Q308.8 82.4 308.3 81.9Q307.8 81.4 306.7 81.4L306.7 81.4Q305.5 81.4 304.9 82.2Q304.4 83.1 304.4 84.8L304.4 84.8L304.4 85.7Q304.4 87.5 304.9 88.4Q305.5 89.2 306.7 89.2L306.7 89.2Q307.8 89.2 308.3 88.7Q308.8 88.3 308.9 87.2L308.9 87.2ZM315.1 79.6L315.1 89.1L320.1 89.1L320.1 91L312.8 91L312.8 79.6L315.1 79.6Z "/></g><mask id="satori_om-id-1-7-2"><rect x="330" y="76" width="34" height="19" fill="#fff"/></mask><g  ><path fill="#7d8590" d="M335.7 79.6L335.7 91L334.2 91L334.2 81.4L331.3 82.4L331.3 81.1L335.5 79.6L335.7 79.6ZM340.1 90.2L340.1 90.2Q340.1 89.9 340.3 89.6Q340.6 89.4 341 89.4Q341.4 89.4 341.7 89.6Q341.9 89.9 341.9 90.2L341.9 90.2Q341.9 90.6 341.7 90.8Q341.4 91.1 341 91.1Q340.6 91.1 340.3 90.8Q340.1 90.6 340.1 90.2ZM349.6 79.6L349.8 79.6L349.8 80.8L349.5 80.8Q347.9 80.9 346.9 81.8Q345.9 82.8 345.7 84.6L345.7 84.6Q346.6 83.5 348.2 83.5L348.2 83.5Q349.6 83.5 350.5 84.6Q351.4 85.6 351.4 87.3L351.4 87.3Q351.4 89.0 350.5 90.1Q349.5 91.2 347.9 91.2L347.9 91.2Q346.3 91.2 345.2 89.9Q344.2 88.6 344.2 86.7L344.2 86.7L344.2 86.1Q344.2 83.0 345.6 81.3Q346.9 79.7 349.6 79.6L349.6 79.6ZM347.9 84.7L347.9 84.7Q347.2 84.7 346.5 85.2Q345.9 85.6 345.7 86.3L345.7 86.3L345.7 86.8Q345.7 88.2 346.3 89.1Q346.9 90.0 347.9 90.0L347.9 90.0Q348.9 90.0 349.4 89.2Q350.0 88.5 350.0 87.4L350.0 87.4Q350.0 86.2 349.4 85.5Q348.9 84.7 347.9 84.7ZM353 82.4L353 81.8Q353 80.8 353.7 80.1Q354.3 79.5 355.3 79.5L355.3 79.5Q356.4 79.5 357.0 80.1Q357.7 80.8 357.7 81.9L357.7 81.9L357.7 82.4Q357.7 83.4 357.0 84.1Q356.4 84.8 355.3 84.8L355.3 84.8Q354.3 84.8 353.7 84.1Q353 83.4 353 82.4L353 82.4ZM354.1 81.8L354.1 82.4Q354.1 83.0 354.4 83.4Q354.8 83.8 355.3 83.8L355.3 83.8Q355.9 83.8 356.2 83.4Q356.6 83.0 356.6 82.4L356.6 82.4L356.6 81.8Q356.6 81.2 356.2 80.8Q355.9 80.4 355.3 80.4Q354.8 80.4 354.4 80.8Q354.1 81.2 354.1 81.8L354.1 81.8ZM358.5 88.8L358.5 88.2Q358.5 87.2 359.2 86.5Q359.8 85.9 360.9 85.9Q361.9 85.9 362.5 86.5Q363.2 87.2 363.2 88.3L363.2 88.3L363.2 88.8Q363.2 89.8 362.6 90.5Q361.9 91.2 360.9 91.2Q359.9 91.2 359.2 90.5Q358.5 89.9 358.5 88.8L358.5 88.8ZM359.6 88.2L359.6 88.8Q359.6 89.4 360.0 89.8Q360.3 90.2 360.9 90.2L360.9 90.2Q361.4 90.2 361.8 89.8Q362.1 89.5 362.1 88.8L362.1 88.8L362.1 88.2Q362.1 87.6 361.8 87.2Q361.4 86.8 360.9 86.8L360.9 86.8Q360.3 86.8 360.0 87.2Q359.6 87.6 359.6 88.2L359.6 88.2ZM361.2 81.3L355.7 90.1L354.9 89.6L360.4 80.7L361.2 81.3Z "/></g><mask id="satori_om-id-1-8"><rect x="0" y="105" width="112" height="19" fill="#fff"/></mask><mask id="satori_om-id-1-8-0"><rect x="0" y="107" width="16" height="16" fill="#fff"/></mask><mask id="satori_om-id-1-8-0-0"><rect x="4" y="111" width="8" height="8" fill="#fff"/></mask><path x="4" y="111" width="8" height="8" fill="#ff5a03" d="M8,111 h0 a4,4 0 0 1 4,4 v0 a4,4 0 0 1 -4,4 h0 a4,4 0 0 1 -4,-4 v0 a4,4 0 0 1 4,-4"/><mask id="satori_om-id-1-8-1"><rect x="29" y="105" width="40" height="19" fill="#fff"/></mask><g  ><path fill="#fff" d="M37.2 120L36.4 117.7L32.3 117.7L31.5 120L29.1 120L33.3 108.6L35.5 108.6L39.7 120L37.2 120ZM34.4 111.5L33.0 115.8L35.8 115.8L34.4 111.5ZM45.2 117.7L45.2 117.7Q45.2 117.3 44.8 117.0Q44.4 116.8 43.5 116.6L43.5 116.6Q40.5 116.0 40.5 114.0L40.5 114.0Q40.5 112.9 41.4 112.1Q42.3 111.4 43.8 111.4L43.8 111.4Q45.5 111.4 46.4 112.1Q47.4 112.9 47.4 114.1L47.4 114.1L45.1 114.1Q45.1 113.6 44.8 113.3Q44.5 113 43.8 113L43.8 113Q43.3 113 43.0 113.3Q42.6 113.5 42.6 113.9L42.6 113.9Q42.6 114.3 43.0 114.5Q43.4 114.8 44.2 114.9Q45.0 115.1 45.6 115.3L45.6 115.3Q47.4 116.0 47.4 117.6L47.4 117.6Q47.4 118.7 46.4 119.4Q45.4 120.2 43.9 120.2L43.9 120.2Q42.8 120.2 42.0 119.8Q41.1 119.4 40.7 118.7Q40.2 118.1 40.2 117.3L40.2 117.3L42.3 117.3Q42.4 117.9 42.8 118.2Q43.2 118.6 43.9 118.6L43.9 118.6Q44.5 118.6 44.9 118.3Q45.2 118.1 45.2 117.7ZM49.3 109.5L51.6 109.5L51.6 111.5L53.0 111.5L53.0 113.2L51.6 113.2L51.6 117.4Q51.6 117.9 51.7 118.1Q51.9 118.3 52.4 118.3L52.4 118.3Q52.8 118.3 53.1 118.2L53.1 118.2L53.1 120.0Q52.4 120.2 51.7 120.2L51.7 120.2Q49.4 120.2 49.3 117.8L49.3 117.8L49.3 113.2L48.1 113.2L48.1 111.5L49.3 111.5L49.3 109.5ZM59.0 111.5L59.0 113.7Q58.6 113.6 58.2 113.6L58.2 113.6Q56.9 113.6 56.5 114.5L56.5 114.5L56.5 120L54.3 120L54.3 111.5L56.4 111.5L56.5 112.6Q57.1 111.4 58.3 111.4L58.3 111.4Q58.7 111.4 59.0 111.5L59.0 111.5ZM59.5 115.8L59.5 115.7Q59.5 114.4 60.0 113.5Q60.4 112.5 61.3 111.9Q62.3 111.4 63.5 111.4L63.5 111.4Q65.2 111.4 66.3 112.4Q67.3 113.5 67.5 115.3L67.5 115.3L67.5 115.9Q67.5 117.8 66.4 119.0Q65.3 120.2 63.5 120.2Q61.6 120.2 60.6 119.0Q59.5 117.8 59.5 115.8L59.5 115.8ZM61.7 115.9L61.7 115.9Q61.7 117.1 62.2 117.7Q62.6 118.3 63.5 118.3L63.5 118.3Q64.3 118.3 64.8 117.7Q65.2 117.1 65.2 115.7L65.2 115.7Q65.2 114.5 64.8 113.9Q64.3 113.2 63.5 113.2L63.5 113.2Q62.6 113.2 62.2 113.9Q61.7 114.5 61.7 115.9Z "/></g><mask id="satori_om-id-1-8-2"><rect x="78" y="105" width="34" height="19" fill="#fff"/></mask><g  ><path fill="#7d8590" d="M83.7 108.6L83.7 120L82.2 120L82.2 110.4L79.3 111.4L79.3 110.1L83.5 108.6L83.7 108.6ZM88.1 119.2L88.1 119.2Q88.1 118.9 88.3 118.6Q88.6 118.4 89 118.4Q89.4 118.4 89.7 118.6Q89.9 118.9 89.9 119.2L89.9 119.2Q89.9 119.6 89.7 119.8Q89.4 120.1 89 120.1Q88.6 120.1 88.3 119.8Q88.1 119.6 88.1 119.2ZM96.9 108.6L96.9 120L95.4 120L95.4 110.4L92.5 111.4L92.5 110.1L96.7 108.6L96.9 108.6ZM101 111.4L101 110.8Q101 109.8 101.7 109.1Q102.3 108.5 103.3 108.5L103.3 108.5Q104.4 108.5 105.0 109.1Q105.7 109.8 105.7 110.9L105.7 110.9L105.7 111.4Q105.7 112.4 105.0 113.1Q104.4 113.8 103.3 113.8L103.3 113.8Q102.3 113.8 101.7 113.1Q101 112.4 101 111.4L101 111.4ZM102.1 110.8L102.1 111.4Q102.1 112.0 102.4 112.4Q102.8 112.8 103.3 112.8L103.3 112.8Q103.9 112.8 104.2 112.4Q104.6 112.0 104.6 111.4L104.6 111.4L104.6 110.8Q104.6 110.2 104.2 109.8Q103.9 109.4 103.3 109.4Q102.8 109.4 102.4 109.8Q102.1 110.2 102.1 110.8L102.1 110.8ZM106.5 117.8L106.5 117.2Q106.5 116.2 107.2 115.5Q107.8 114.9 108.9 114.9Q109.9 114.9 110.5 115.5Q111.2 116.2 111.2 117.3L111.2 117.3L111.2 117.8Q111.2 118.8 110.6 119.5Q109.9 120.2 108.9 120.2Q107.9 120.2 107.2 119.5Q106.5 118.9 106.5 117.8L106.5 117.8ZM107.6 117.2L107.6 117.8Q107.6 118.4 108.0 118.8Q108.3 119.2 108.9 119.2L108.9 119.2Q109.4 119.2 109.8 118.8Q110.1 118.5 110.1 117.8L110.1 117.8L110.1 117.2Q110.1 116.6 109.8 116.2Q109.4 115.8 108.9 115.8L108.9 115.8Q108.3 115.8 108.0 116.2Q107.6 116.6 107.6 117.2L107.6 117.2ZM109.2 110.3L103.7 119.1L102.9 118.6L108.4 109.7L109.2 110.3Z "/></g><mask id="satori_om-id-1-9"><rect x="122" y="105" width="115" height="19" fill="#fff"/></mask><mask id="satori_om-id-1-9-0"><rect x="122" y="107" width="16" height="16" fill="#fff"/></mask><mask id="satori_om-id-1-9-0-0"><rect x="126" y="111" width="8" height="8" fill="#fff"/></mask><path x="126" y="111" width="8" height="8" fill="#A97BFF" d="M130,111 h0 a4,4 0 0 1 4,4 v0 a4,4 0 0 1 -4,4 h0 a4,4 0 0 1 -4,-4 v0 a4,4 0 0 1 4,-4"/><mask id="satori_om-id-1-9-1"><rect x="151" y="105" width="43" height="19" fill="#fff"/></mask><g  ><path fill="#fff" d="M158.5 120L155.6 115.4L154.4 116.8L154.4 120L152.0 120L152.0 108.6L154.4 108.6L154.4 113.8L155.4 112.4L158.3 108.6L161.2 108.6L157.1 113.7L161.3 120L158.5 120ZM161.5 115.8L161.5 115.7Q161.5 114.4 161.9 113.5Q162.4 112.5 163.3 111.9Q164.3 111.4 165.5 111.4L165.5 111.4Q167.2 111.4 168.2 112.4Q169.3 113.5 169.5 115.3L169.5 115.3L169.5 115.9Q169.5 117.8 168.4 119.0Q167.3 120.2 165.5 120.2Q163.6 120.2 162.6 119.0Q161.5 117.8 161.5 115.8L161.5 115.8ZM163.7 115.9L163.7 115.9Q163.7 117.1 164.2 117.7Q164.6 118.3 165.5 118.3L165.5 118.3Q166.3 118.3 166.8 117.7Q167.2 117.1 167.2 115.7L167.2 115.7Q167.2 114.5 166.8 113.9Q166.3 113.2 165.5 113.2L165.5 113.2Q164.6 113.2 164.2 113.9Q163.7 114.5 163.7 115.9ZM171.3 109.5L173.6 109.5L173.6 111.5L175.0 111.5L175.0 113.2L173.6 113.2L173.6 117.4Q173.6 117.9 173.7 118.1Q173.9 118.3 174.4 118.3L174.4 118.3Q174.8 118.3 175.1 118.2L175.1 118.2L175.1 120.0Q174.4 120.2 173.7 120.2L173.7 120.2Q171.4 120.2 171.3 117.8L171.3 117.8L171.3 113.2L170.1 113.2L170.1 111.5L171.3 111.5L171.3 109.5ZM178.6 108L178.6 120L176.4 120L176.4 108L178.6 108ZM182.9 111.5L182.9 120L180.6 120L180.6 111.5L182.9 111.5ZM180.5 109.4L180.5 109.4Q180.5 108.9 180.8 108.5Q181.2 108.2 181.8 108.2L181.8 108.2Q182.3 108.2 182.7 108.5Q183.0 108.9 183.0 109.4L183.0 109.4Q183.0 109.9 182.7 110.2Q182.3 110.5 181.8 110.5Q181.2 110.5 180.8 110.2Q180.5 109.9 180.5 109.4ZM184.7 111.5L186.8 111.5L186.9 112.5Q187.8 111.4 189.3 111.4L189.3 111.4Q190.7 111.4 191.3 112.2Q192.0 113.0 192 114.5L192 114.5L192 120L189.7 120L189.7 114.6Q189.7 113.9 189.4 113.6Q189.1 113.2 188.4 113.2L188.4 113.2Q187.4 113.2 187.0 114.0L187.0 114.0L187.0 120L184.7 120L184.7 111.5Z "/></g><mask id="satori_om-id-1-9-2"><rect x="203" y="105" width="34" height="19" fill="#fff"/></mask><g  ><path fill="#7d8590" d="M208.7 108.6L208.7 120L207.2 120L207.2 110.4L204.3 111.4L204.3 110.1L208.5 108.6L208.7 108.6ZM213.1 119.2L213.1 119.2Q213.1 118.9 213.3 118.6Q213.6 118.4 214 118.4Q214.4 118.4 214.7 118.6Q214.9 118.9 214.9 119.2L214.9 119.2Q214.9 119.6 214.7 119.8Q214.4 120.1 214 120.1Q213.6 120.1 213.3 119.8Q213.1 119.6 213.1 119.2ZM224.3 113.3L224.3 115.1Q224.3 117.7 223.4 118.9Q222.5 120.2 220.7 120.2L220.7 120.2Q218.9 120.2 218 118.9Q217.1 117.7 217.1 115.3L217.1 115.3L217.1 113.4Q217.1 110.9 218.0 109.7Q218.8 108.5 220.7 108.5L220.7 108.5Q222.5 108.5 223.4 109.6Q224.3 110.8 224.3 113.3L224.3 113.3ZM222.8 115.5L222.8 113.2Q222.8 111.3 222.3 110.5Q221.8 109.7 220.7 109.7L220.7 109.7Q219.6 109.7 219.1 110.5Q218.6 111.3 218.5 113.1L218.5 113.1L218.5 115.4Q218.5 117.2 219.1 118.1Q219.6 119.0 220.7 119.0L220.7 119.0Q221.8 119.0 222.3 118.1Q222.8 117.3 222.8 115.5L222.8 115.5ZM226 111.4L226 110.8Q226 109.8 226.7 109.1Q227.3 108.5 228.3 108.5L228.3 108.5Q229.4 108.5 230.0 109.1Q230.7 109.8 230.7 110.9L230.7 110.9L230.7 111.4Q230.7 112.4 230.0 113.1Q229.4 113.8 228.3 113.8L228.3 113.8Q227.3 113.8 226.7 113.1Q226 112.4 226 111.4L226 111.4ZM227.1 110.8L227.1 111.4Q227.1 112.0 227.4 112.4Q227.8 112.8 228.3 112.8L228.3 112.8Q228.9 112.8 229.2 112.4Q229.6 112.0 229.6 111.4L229.6 111.4L229.6 110.8Q229.6 110.2 229.2 109.8Q228.9 109.4 228.3 109.4Q227.8 109.4 227.4 109.8Q227.1 110.2 227.1 110.8L227.1 110.8ZM231.5 117.8L231.5 117.2Q231.5 116.2 232.2 115.5Q232.8 114.9 233.9 114.9Q234.9 114.9 235.5 115.5Q236.2 116.2 236.2 117.3L236.2 117.3L236.2 117.8Q236.2 118.8 235.6 119.5Q234.9 120.2 233.9 120.2Q232.9 120.2 232.2 119.5Q231.5 118.9 231.5 117.8L231.5 117.8ZM232.6 117.2L232.6 117.8Q232.6 118.4 233.0 118.8Q233.3 119.2 233.9 119.2L233.9 119.2Q234.4 119.2 234.8 118.8Q235.1 118.5 235.1 117.8L235.1 117.8L235.1 117.2Q235.1 116.6 234.8 116.2Q234.4 115.8 233.9 115.8L233.9 115.8Q233.3 115.8 233.0 116.2Q232.6 116.6 232.6 117.2L232.6 117.2ZM234.2 110.3L228.7 119.1L227.9 118.6L233.4 109.7L234.2 110.3Z "/></g></svg>