<svg width="375" height="200" viewBox="0 0 375 200" xmlns="http://www.w3.org/2000/svg"><mask id="satori_om-id"><rect x="0" y="0" width="375" height="152" fill="#fff"/></mask><clipPath id="satori_cp-id-0"><path x="0" y="0" width="375" height="8" d="M4,0 h367 a4,4 0 0 1 4,4 v0 a4,4 0 0 1 -4,4 h-367 a4,4 0 0 1 -4,-4 v0 a4,4 0 0 1 4,-4"/></clipPath><mask id="satori_om-id-0"><rect x="0" y="0" width="375" height="8" fill="#fff"/></mask><mask id="satori_om-id-0-0"><rect x="0" y="0" width="170" height="8" fill="#fff" mask="url(#satori_om-id-0)"/></mask><rect x="0" y="0" width="170" height="8" fill="#3178c6" clip-path="url(#satori_cp-id-0)" mask="url(#satori_om-id-0)"/><mask id="satori_om-id-0-1"><rect x="170" y="0" width="44" height="8" fill="#fff" mask="url(#satori_om-id-0)"/></mask><rect x="170" y="0" width="44" height="8" fill="#DA5B0B" clip-path="url(#satori_cp-id-0)" mask="url(#satori_om-id-0)"/><mask id="satori_om-id-0-2"><rect x="214" y="0" width="38" height="8" fill="#fff" mask="url(#satori_om-id-0)"/></mask><rect x="214" y="0" width="38" height="8" fill="#844FBA" clip-path="url(#satori_cp-id-0)" mask="url(#satori_om-id-0)"/><mask id="satori_om-id-0-3"><rect x="252" y="0" width="29" height="8" fill="#fff" mask="url(#satori_om-id-0)"/></mask><rect x="252" y="0" width="29" height="8" fill="#3572A5" clip-path="url(#satori_cp-id-0)" mask="url(#satori_om-id-0)"/><mask id="satori_om-id-0-4"><rect x="281" y="0" width="22" height="8" fill="#fff" mask="url(#satori_om-id-0)"/></mask><rect x="281" y="0" width="22" height="8" fill="#ff3e00" clip-path="url(#satori_cp-id-0)" mask="url(#satori_om-id-0)"/><mask id="satori_om-id-0-5"><rect x="303" y="0" width="21" height="8" fill="#fff" mask="url(#satori_om-id-0)"/></mask><rect x="303" y="0" width="21" height="8" fill="#00ADD8" clip-path="url(#satori_cp-id-0)" mask="url(#satori_om-id-0)"/><mask id="satori_om-id-0-6"><rect x="324" y="0" width="15" height="8" fill="#fff" mask="url(#satori_om-id-0)"/></mask><rect x="324" y="0" width="15" height="8" fill="#e34c26" clip-path="url(#satori_cp-id-0)" mask="url(#satori_om-id-0)"/><mask id="satori_om-id-0-7"><rect x="339" y="0" width="14" height="8" fill="#fff" mask="url(#satori_om-id-0)"/></mask><rect x="339" y="0" width="14" height="8" fill="#555555" clip-path="url(#satori_cp-id-0)" mask="url(#satori_om-id-0)"/><mask id="satori_om-id-0-8"><rect x="353" y="0" width="9" height="8" fill="#fff" mask="url(#satori_om-id-0)"/></mask><rect x="353" y="0" width="9" height="8" fill="#ff5a03" clip-path="url(#satori_cp-id-0)" mask="url(#satori_om-id-0)"/><mask id="satori_om-id-0-9"><rect x="362" y="0" width="10" height="8" fill="#fff" mask="url(#satori_om-id-0)"/></mask><rect x="362" y="0" width="10" height="8" fill="#f1e05a" clip-path="url(#satori_cp-id-0)" mask="url(#satori_om-id-0)"/><mask id="satori_om-id-1"><rect x="0" y="18" width="375" height="134" fill="#fff"/></mask><mask id="satori_om-id-1-0"><rect x="0" y="18" width="160" height="19" fill="#fff"/></mask><mask id="satori_om-id-1-0-0"><rect x="0" y="19" width="16" height="16" fill="#fff"/></mask><mask id="satori_om-id-1-0-0-0"><rect x="4" y="23" width="8" height="8" fill="#fff"/></mask><path x="4" y="23" width="8" height="8" fill="#3178c6" d="M8,23 h0 a4,4 0 0 1 4,4 v0 a4,4 0 0 1 -4,4 h0 a4,4 0 0 1 -4,-4 v0 a4,4 0 0 1 4,-4"/><mask id="satori_om-id-1-0-1"><rect x="29" y="18" width="79" height="19" fill="#fff"/></mask><path fill="#fff" d="M38.6 22.1L38.6 24.0L35.1 24.0L35.1 33.5L32.8 33.5L32.8 24.0L29.3 24.0L29.3 22.1L38.6 22.1ZM40.7 25.0L42.3 30.3L43.8 25.0L46.3 25.0L42.9 34.8L42.7 35.2Q41.9 36.9 40.2 36.9L40.2 36.9Q39.7 36.9 39.2 36.7L39.2 36.7L39.2 35.0L39.5 35.0Q40.2 35.0 40.5 34.9Q40.8 34.7 41.0 34.2L41.0 34.2L41.2 33.5L38.3 25.0L40.7 25.0ZM54.8 29.2L54.8 29.3Q54.8 31.3 53.9 32.5Q53.0 33.6 51.5 33.6L51.5 33.6Q50.2 33.6 49.4 32.7L49.4 32.7L49.4 36.7L47.2 36.7L47.2 25.0L49.3 25.0L49.3 25.9Q50.1 24.9 51.5 24.9L51.5 24.9Q53.0 24.9 53.9 26.0Q54.8 27.2 54.8 29.2L54.8 29.2ZM52.5 29.2L52.5 29.2Q52.5 28.0 52.1 27.4Q51.7 26.7 50.9 26.7L50.9 26.7Q49.8 26.7 49.4 27.5L49.4 27.5L49.4 31.0Q49.8 31.8 50.9 31.8L50.9 31.8Q52.5 31.8 52.5 29.2ZM60.1 33.6L60.1 33.6Q58.2 33.6 57.0 32.5Q55.9 31.4 55.9 29.5L55.9 29.5L55.9 29.2Q55.9 28.0 56.4 27.0Q56.8 26.0 57.7 25.4Q58.6 24.9 59.8 24.9L59.8 24.9Q61.5 24.9 62.5 26.0Q63.5 27.1 63.5 29.1L63.5 29.1L63.5 30.0L58.1 30.0Q58.3 30.8 58.8 31.3Q59.4 31.8 60.2 31.8L60.2 31.8Q61.5 31.8 62.2 30.9L62.2 30.9L63.4 32.1Q62.8 32.8 62.0 33.2Q61.1 33.6 60.1 33.6ZM59.8 26.7L59.8 26.7Q59.1 26.7 58.7 27.2Q58.3 27.6 58.2 28.5L58.2 28.5L61.3 28.5L61.3 28.3Q61.3 27.5 60.9 27.1Q60.5 26.7 59.8 26.7ZM70.9 30.5L70.9 30.5Q70.9 29.8 70.4 29.5Q69.9 29.1 68.7 28.7Q67.5 28.3 66.8 28.0L66.8 28.0Q64.8 26.9 64.8 25.1L64.8 25.1Q64.8 24.2 65.4 23.5Q65.9 22.8 66.8 22.4Q67.8 22.0 69.0 22.0L69.0 22.0Q70.3 22.0 71.2 22.4Q72.2 22.8 72.7 23.6Q73.2 24.4 73.2 25.5L73.2 25.5L70.9 25.5Q70.9 24.7 70.4 24.3Q69.9 23.8 69.0 23.8L69.0 23.8Q68.1 23.8 67.7 24.2Q67.2 24.5 67.2 25.1L67.2 25.1Q67.2 25.7 67.7 26.1Q68.3 26.4 69.4 26.8L69.4 26.8Q71.4 27.4 72.3 28.3Q73.2 29.2 73.2 30.5L73.2 30.5Q73.2 32.0 72.1 32.8Q71.0 33.6 69.1 33.6L69.1 33.6Q67.8 33.6 66.7 33.2Q65.6 32.7 65.1 31.8Q64.5 31.0 64.5 29.9L64.5 29.9L66.8 29.9Q66.8 31.8 69.1 31.8L69.1 31.8Q69.9 31.8 70.4 31.4Q70.9 31.1 70.9 30.5ZM78.2 31.8L78.2 31.8Q78.8 31.8 79.2 31.5Q79.6 31.1 79.6 30.6L79.6 30.6L81.7 30.6Q81.7 31.4 81.2 32.1Q80.8 32.9 80.0 33.2Q79.2 33.6 78.2 33.6L78.2 33.6Q76.4 33.6 75.3 32.5Q74.3 31.3 74.3 29.3L74.3 29.3L74.3 29.2Q74.3 27.2 75.3 26.0Q76.4 24.9 78.2 24.9L78.2 24.9Q79.8 24.9 80.7 25.8Q81.7 26.7 81.7 28.2L81.7 28.2L79.6 28.2Q79.6 27.5 79.2 27.1Q78.8 26.7 78.1 26.7L78.1 26.7Q77.4 26.7 77.0 27.3Q76.6 27.9 76.6 29.1L76.6 29.1L76.6 29.4Q76.6 30.7 77.0 31.2Q77.4 31.8 78.2 31.8ZM87.8 25.0L87.7 27.1Q87.3 27.1 86.9 27.1L86.9 27.1Q85.6 27.1 85.3 28.0L85.3 28.0L85.3 33.5L83.0 33.5L83.0 25.0L85.1 25.0L85.2 26.0Q85.9 24.9 87.1 24.9L87.1 24.9Q87.4 24.9 87.8 25.0L87.8 25.0ZM91.2 25.0L91.2 33.5L88.9 33.5L88.9 25.0L91.2 25.0ZM88.8 22.8L88.8 22.8Q88.8 22.3 89.2 22.0Q89.5 21.7 90.1 21.7L90.1 21.7Q90.7 21.7 91 22.0Q91.3 22.3 91.3 22.8L91.3 22.8Q91.3 23.4 91.0 23.7Q90.6 24.0 90.1 24.0Q89.5 24.0 89.2 23.7Q88.8 23.4 88.8 22.8ZM100.7 29.2L100.7 29.3Q100.7 31.3 99.8 32.5Q98.9 33.6 97.4 33.6L97.4 33.6Q96.1 33.6 95.3 32.7L95.3 32.7L95.3 36.7L93.1 36.7L93.1 25.0L95.2 25.0L95.2 25.9Q96.1 24.9 97.4 24.9L97.4 24.9Q98.9 24.9 99.8 26.0Q100.7 27.2 100.7 29.2L100.7 29.2ZM98.4 29.2L98.4 29.2Q98.4 28.0 98.0 27.4Q97.6 26.7 96.8 26.7L96.8 26.7Q95.7 26.7 95.3 27.5L95.3 27.5L95.3 31.0Q95.7 31.8 96.8 31.8L96.8 31.8Q98.4 31.8 98.4 29.2ZM102.5 23.0L104.8 23.0L104.8 25.0L106.2 25.0L106.2 26.7L104.8 26.7L104.8 30.9Q104.8 31.4 105.0 31.6Q105.1 31.8 105.6 31.8L105.6 31.8Q106.0 31.8 106.3 31.7L106.3 31.7L106.3 33.4Q105.6 33.6 104.9 33.6L104.9 33.6Q102.6 33.6 102.5 31.2L102.5 31.2L102.5 26.7L101.3 26.7L101.3 25.0L102.5 25.0L102.5 23.0Z "/><mask id="satori_om-id-1-0-2"><rect x="117" y="18" width="43" height="19" fill="#fff"/></mask><path fill="#7d8590" d="M124.0 22.1L124.0 29.7L125.6 29.7L125.6 30.8L124.0 30.8L124.0 33.5L122.6 33.5L122.6 30.8L117.4 30.8L117.4 30.0L122.5 22.1L124.0 22.1ZM122.4 24.4L119.1 29.7L122.6 29.7L122.6 24.1L122.4 24.4ZM128.8 28.1L127.6 27.8L128.2 22.1L134 22.1L134 23.4L129.4 23.4L129.1 26.5Q129.9 26.1 131.0 26.1L131.0 26.1Q132.5 26.1 133.4 27.1Q134.3 28.1 134.3 29.9L134.3 29.9Q134.3 31.6 133.4 32.6Q132.4 33.6 130.7 33.6L130.7 33.6Q129.2 33.6 128.3 32.8Q127.3 32.0 127.2 30.5L127.2 30.5L128.6 30.5Q128.7 31.5 129.3 32.0Q129.8 32.5 130.7 32.5L130.7 32.5Q131.7 32.5 132.3 31.8Q132.9 31.1 132.9 29.9L132.9 29.9Q132.9 28.7 132.3 28.0Q131.6 27.4 130.6 27.4L130.6 27.4Q129.7 27.4 129.1 27.8L129.1 27.8L128.8 28.1ZM136.1 32.7L136.1 32.7Q136.1 32.4 136.3 32.1Q136.5 31.9 137.0 31.9Q137.4 31.9 137.7 32.1Q137.9 32.4 137.9 32.7L137.9 32.7Q137.9 33.1 137.7 33.3Q137.4 33.6 137.0 33.6Q136.5 33.6 136.3 33.3Q136.1 33.1 136.1 32.7ZM142.2 28.3L142.2 27.1L143.3 27.1Q144.3 27.1 144.9 26.6Q145.5 26.0 145.5 25.1L145.5 25.1Q145.5 23.1 143.5 23.1L143.5 23.1Q142.6 23.1 142.0 23.7Q141.5 24.2 141.5 25.1L141.5 25.1L140.0 25.1Q140.0 23.7 141.0 22.8Q142.0 22.0 143.5 22.0L143.5 22.0Q145.1 22.0 146.0 22.8Q147.0 23.7 147.0 25.2L147.0 25.2Q147.0 25.9 146.5 26.6Q146.0 27.3 145.2 27.6L145.2 27.6Q146.1 27.9 146.6 28.6Q147.1 29.3 147.1 30.3L147.1 30.3Q147.1 31.8 146.1 32.7Q145.1 33.6 143.5 33.6Q141.9 33.6 140.9 32.8Q139.9 31.9 139.9 30.5L139.9 30.5L141.4 30.5Q141.4 31.4 142.0 31.9Q142.5 32.5 143.5 32.5L143.5 32.5Q144.6 32.5 145.1 31.9Q145.7 31.4 145.7 30.3L145.7 30.3Q145.7 29.4 145.1 28.8Q144.5 28.3 143.3 28.3L143.3 28.3L142.2 28.3ZM149.0 24.8L149.0 24.3Q149.0 23.3 149.6 22.6Q150.3 21.9 151.3 21.9L151.3 21.9Q152.4 21.9 153.0 22.6Q153.6 23.3 153.6 24.3L153.6 24.3L153.6 24.9Q153.6 25.9 153.0 26.6Q152.3 27.2 151.3 27.2L151.3 27.2Q150.3 27.2 149.6 26.6Q149.0 25.9 149.0 24.8L149.0 24.8ZM150.1 24.3L150.1 24.9Q150.1 25.5 150.4 25.9Q150.8 26.3 151.3 26.3L151.3 26.3Q151.9 26.3 152.2 25.9Q152.6 25.5 152.6 24.9L152.6 24.9L152.6 24.3Q152.6 23.7 152.2 23.3Q151.9 22.9 151.3 22.9Q150.7 22.9 150.4 23.3Q150.1 23.7 150.1 24.3L150.1 24.3ZM154.5 31.3L154.5 30.7Q154.5 29.7 155.2 29.0Q155.8 28.4 156.9 28.4Q157.9 28.4 158.5 29.0Q159.2 29.7 159.2 30.7L159.2 30.7L159.2 31.3Q159.2 32.3 158.5 33.0Q157.9 33.6 156.9 33.6Q155.9 33.6 155.2 33.0Q154.5 32.3 154.5 31.3L154.5 31.3ZM155.6 30.7L155.6 31.3Q155.6 31.9 155.9 32.3Q156.3 32.7 156.9 32.7L156.9 32.7Q157.4 32.7 157.8 32.3Q158.1 31.9 158.1 31.3L158.1 31.3L158.1 30.7Q158.1 30.1 157.8 29.7Q157.4 29.3 156.9 29.3L156.9 29.3Q156.3 29.3 155.9 29.7Q155.6 30.1 155.6 30.7L155.6 30.7ZM157.2 23.7L151.7 32.6L150.8 32.1L156.4 23.2L157.2 23.7Z "/><mask id="satori_om-id-1-1"><rect x="0" y="47" width="210" height="19" fill="#fff"/></mask><mask id="satori_om-id-1-1-0"><rect x="0" y="48" width="16" height="16" fill="#fff"/></mask><mask id="satori_om-id-1-1-0-0"><rect x="4" y="52" width="8" height="8" fill="#fff"/></mask><path x="4" y="52" width="8" height="8" fill="#DA5B0B" d="M8,52 h0 a4,4 0 0 1 4,4 v0 a4,4 0 0 1 -4,4 h0 a4,4 0 0 1 -4,-4 v0 a4,4 0 0 1 4,-4"/><mask id="satori_om-id-1-1-1"><rect x="29" y="47" width="129" height="19" fill="#fff"/></mask><path fill="#fff" d="M34.6 59.0L34.6 51.1L36.9 51.1L36.9 59.0Q36.9 60.1 36.5 60.9Q36.0 61.7 35.1 62.2Q34.2 62.6 33.1 62.6L33.1 62.6Q31.3 62.6 30.3 61.7Q29.3 60.8 29.3 59.1L29.3 59.1L31.7 59.1Q31.7 60.0 32.0 60.4Q32.4 60.8 33.1 60.8L33.1 60.8Q33.8 60.8 34.2 60.3Q34.6 59.8 34.6 59.0L34.6 59.0ZM43.9 62.5L43.9 61.6Q43.0 62.6 41.6 62.6L41.6 62.6Q40.2 62.6 39.5 61.9Q38.8 61.1 38.8 59.6L38.8 59.6L38.8 54.0L41.0 54.0L41.0 59.5Q41.0 60.8 42.2 60.8L42.2 60.8Q43.4 60.8 43.8 60.0L43.8 60.0L43.8 54.0L46.1 54.0L46.1 62.5L43.9 62.5ZM55.4 58.2L55.4 58.3Q55.4 60.3 54.5 61.5Q53.6 62.6 52.1 62.6L52.1 62.6Q50.8 62.6 50.0 61.7L50.0 61.7L50.0 65.7L47.8 65.7L47.8 54.0L49.9 54.0L49.9 54.9Q50.8 53.9 52.1 53.9L52.1 53.9Q53.6 53.9 54.5 55.0Q55.4 56.2 55.4 58.2L55.4 58.2ZM53.1 58.2L53.1 58.2Q53.1 57.0 52.7 56.4Q52.3 55.7 51.5 55.7L51.5 55.7Q50.4 55.7 50.0 56.5L50.0 56.5L50.0 60.0Q50.4 60.8 51.5 60.8L51.5 60.8Q53.1 60.8 53.1 58.2ZM58.3 54.0L59.8 59.3L61.4 54.0L63.8 54.0L60.4 63.8L60.2 64.2Q59.5 65.9 57.7 65.9L57.7 65.9Q57.2 65.9 56.7 65.7L56.7 65.7L56.7 64.0L57.1 64.0Q57.7 64.0 58.0 63.9Q58.4 63.7 58.5 63.2L58.5 63.2L58.8 62.5L55.8 54.0L58.3 54.0ZM65.2 52.0L67.4 52.0L67.4 54.0L68.9 54.0L68.9 55.7L67.4 55.7L67.4 59.9Q67.4 60.4 67.6 60.6Q67.8 60.8 68.3 60.8L68.3 60.8Q68.7 60.8 68.9 60.7L68.9 60.7L68.9 62.4Q68.3 62.6 67.6 62.6L67.6 62.6Q65.2 62.6 65.2 60.2L65.2 60.2L65.2 55.7L63.9 55.7L63.9 54.0L65.2 54.0L65.2 52.0ZM74.0 62.6L74.0 62.6Q72.1 62.6 71.0 61.5Q69.8 60.4 69.8 58.5L69.8 58.5L69.8 58.2Q69.8 57.0 70.3 56.0Q70.8 55.0 71.7 54.4Q72.6 53.9 73.8 53.9L73.8 53.9Q75.5 53.9 76.5 55.0Q77.5 56.1 77.5 58.1L77.5 58.1L77.5 59.0L72.1 59.0Q72.2 59.8 72.8 60.3Q73.3 60.8 74.2 60.8L74.2 60.8Q75.5 60.8 76.2 59.9L76.2 59.9L77.3 61.1Q76.8 61.8 75.9 62.2Q75.1 62.6 74.0 62.6ZM73.8 55.7L73.8 55.7Q73.1 55.7 72.7 56.2Q72.2 56.6 72.1 57.5L72.1 57.5L75.3 57.5L75.3 57.3Q75.3 56.5 74.9 56.1Q74.5 55.7 73.8 55.7ZM83.5 54.0L83.5 56.1Q83.1 56.1 82.7 56.1L82.7 56.1Q81.4 56.1 81.0 57.0L81.0 57.0L81.0 62.5L78.8 62.5L78.8 54.0L80.9 54.0L81.0 55.0Q81.6 53.9 82.8 53.9L82.8 53.9Q83.2 53.9 83.5 54.0L83.5 54.0Z M98.1 51.1L98.1 62.5L95.7 62.5L91.2 55.0L91.2 62.5L88.8 62.5L88.8 51.1L91.2 51.1L95.7 58.6L95.7 51.1L98.1 51.1ZM99.6 58.3L99.6 58.2Q99.6 56.9 100.1 55.9Q100.6 55.0 101.5 54.4Q102.4 53.9 103.6 53.9L103.6 53.9Q105.3 53.9 106.4 54.9Q107.5 56.0 107.6 57.8L107.6 57.8L107.6 58.3Q107.6 60.3 106.5 61.5Q105.5 62.6 103.6 62.6Q101.8 62.6 100.7 61.5Q99.6 60.3 99.6 58.3L99.6 58.3ZM101.9 58.3L101.9 58.3Q101.9 59.5 102.3 60.2Q102.8 60.8 103.6 60.8L103.6 60.8Q104.4 60.8 104.9 60.2Q105.4 59.6 105.4 58.2L105.4 58.2Q105.4 57.0 104.9 56.4Q104.4 55.7 103.6 55.7L103.6 55.7Q102.8 55.7 102.3 56.3Q101.9 57.0 101.9 58.3ZM109.5 52.0L111.7 52.0L111.7 54.0L113.2 54.0L113.2 55.7L111.7 55.7L111.7 59.9Q111.7 60.4 111.9 60.6Q112.1 60.8 112.6 60.8L112.6 60.8Q113.0 60.8 113.3 60.7L113.3 60.7L113.3 62.4Q112.6 62.6 111.9 62.6L111.9 62.6Q109.5 62.6 109.5 60.2L109.5 60.2L109.5 55.7L108.2 55.7L108.2 54.0L109.5 54.0L109.5 52.0ZM118.3 62.6L118.3 62.6Q116.5 62.6 115.3 61.5Q114.1 60.4 114.1 58.5L114.1 58.5L114.1 58.2Q114.1 57.0 114.6 56.0Q115.1 55.0 116.0 54.4Q116.9 53.9 118.1 53.9L118.1 53.9Q119.8 53.9 120.8 55.0Q121.8 56.1 121.8 58.1L121.8 58.1L121.8 59.0L116.4 59.0Q116.5 59.8 117.1 60.3Q117.6 60.8 118.5 60.8L118.5 60.8Q119.8 60.8 120.5 59.9L120.5 59.9L121.6 61.1Q121.1 61.8 120.2 62.2Q119.4 62.6 118.3 62.6ZM118.1 55.7L118.1 55.7Q117.4 55.7 117.0 56.2Q116.5 56.6 116.4 57.5L116.4 57.5L119.6 57.5L119.6 57.3Q119.6 56.5 119.2 56.1Q118.8 55.7 118.1 55.7ZM130.7 58.2L130.7 58.3Q130.7 60.4 129.8 61.5Q129.0 62.6 127.4 62.6L127.4 62.6Q126.0 62.6 125.2 61.6L125.2 61.6L125.1 62.5L123.1 62.5L123.1 50.5L125.3 50.5L125.3 54.8Q126.1 53.9 127.4 53.9L127.4 53.9Q128.9 53.9 129.8 55.0Q130.7 56.1 130.7 58.2L130.7 58.2ZM128.4 58.2L128.4 58.2Q128.4 56.9 128.0 56.3Q127.6 55.7 126.8 55.7L126.8 55.7Q125.7 55.7 125.3 56.6L125.3 56.6L125.3 59.9Q125.7 60.8 126.8 60.8L126.8 60.8Q127.9 60.8 128.3 59.7L128.3 59.7Q128.4 59.2 128.4 58.2ZM131.7 58.3L131.7 58.2Q131.7 56.9 132.2 55.9Q132.7 55.0 133.6 54.4Q134.5 53.9 135.7 53.9L135.7 53.9Q137.4 53.9 138.5 54.9Q139.6 56.0 139.7 57.8L139.7 57.8L139.7 58.3Q139.7 60.3 138.6 61.5Q137.6 62.6 135.7 62.6Q133.9 62.6 132.8 61.5Q131.7 60.3 131.7 58.3L131.7 58.3ZM134.0 58.3L134.0 58.3Q134.0 59.5 134.4 60.2Q134.9 60.8 135.7 60.8L135.7 60.8Q136.6 60.8 137.0 60.2Q137.5 59.6 137.5 58.2L137.5 58.2Q137.5 57.0 137.0 56.4Q136.6 55.7 135.7 55.7L135.7 55.7Q134.9 55.7 134.4 56.3Q134.0 57.0 134.0 58.3ZM140.8 58.3L140.8 58.2Q140.8 56.9 141.3 55.9Q141.7 55.0 142.7 54.4Q143.6 53.9 144.8 53.9L144.8 53.9Q146.5 53.9 147.6 54.9Q148.6 56.0 148.8 57.8L148.8 57.8L148.8 58.3Q148.8 60.3 147.7 61.5Q146.6 62.6 144.8 62.6Q143.0 62.6 141.9 61.5Q140.8 60.3 140.8 58.3L140.8 58.3ZM143.0 58.3L143.0 58.3Q143.0 59.5 143.5 60.2Q143.9 60.8 144.8 60.8L144.8 60.8Q145.6 60.8 146.1 60.2Q146.5 59.6 146.5 58.2L146.5 58.2Q146.5 57.0 146.1 56.4Q145.6 55.7 144.8 55.7L144.8 55.7Q143.9 55.7 143.5 56.3Q143.0 57.0 143.0 58.3ZM155.4 62.5L153.2 59.1L152.4 59.9L152.4 62.5L150.2 62.5L150.2 50.5L152.4 50.5L152.4 57.1L152.9 56.6L155.0 54.0L157.7 54.0L154.7 57.6L158.0 62.5L155.4 62.5Z "/><mask id="satori_om-id-1-1-2"><rect x="167" y="47" width="43" height="19" fill="#fff"/></mask><path fill="#7d8590" d="M172.7 51.1L172.7 62.5L171.2 62.5L171.2 52.9L168.3 53.9L168.3 52.6L172.5 51.1L172.7 51.1ZM181.7 51.1L181.7 62.5L180.2 62.5L180.2 52.9L177.3 53.9L177.3 52.6L181.5 51.1L181.7 51.1ZM186.1 61.7L186.1 61.7Q186.1 61.4 186.3 61.1Q186.5 60.9 187.0 60.9Q187.4 60.9 187.7 61.1Q187.9 61.4 187.9 61.7L187.9 61.7Q187.9 62.1 187.7 62.3Q187.4 62.6 187.0 62.6Q186.5 62.6 186.3 62.3Q186.1 62.1 186.1 61.7ZM197.5 51.1L197.5 51.9L192.8 62.5L191.2 62.5L195.9 52.3L189.8 52.3L189.8 51.1L197.5 51.1ZM199.0 53.8L199.0 53.3Q199.0 52.3 199.6 51.6Q200.3 50.9 201.3 50.9L201.3 50.9Q202.4 50.9 203.0 51.6Q203.6 52.3 203.6 53.3L203.6 53.3L203.6 53.9Q203.6 54.9 203.0 55.6Q202.3 56.2 201.3 56.2L201.3 56.2Q200.3 56.2 199.6 55.6Q199.0 54.9 199.0 53.8L199.0 53.8ZM200.1 53.3L200.1 53.9Q200.1 54.5 200.4 54.9Q200.8 55.3 201.3 55.3L201.3 55.3Q201.9 55.3 202.2 54.9Q202.6 54.5 202.6 53.9L202.6 53.9L202.6 53.3Q202.6 52.7 202.2 52.3Q201.9 51.9 201.3 51.9Q200.7 51.9 200.4 52.3Q200.1 52.7 200.1 53.3L200.1 53.3ZM204.5 60.3L204.5 59.7Q204.5 58.7 205.2 58.0Q205.8 57.4 206.9 57.4Q207.9 57.4 208.5 58.0Q209.2 58.7 209.2 59.7L209.2 59.7L209.2 60.3Q209.2 61.3 208.5 62.0Q207.9 62.6 206.9 62.6Q205.9 62.6 205.2 62.0Q204.5 61.3 204.5 60.3L204.5 60.3ZM205.6 59.7L205.6 60.3Q205.6 60.9 205.9 61.3Q206.3 61.7 206.9 61.7L206.9 61.7Q207.4 61.7 207.8 61.3Q208.1 60.9 208.1 60.3L208.1 60.3L208.1 59.7Q208.1 59.1 207.8 58.7Q207.4 58.3 206.9 58.3L206.9 58.3Q206.3 58.3 205.9 58.7Q205.6 59.1 205.6 59.7L205.6 59.7ZM207.2 52.7L201.7 61.6L200.8 61.1L206.4 52.2L207.2 52.7Z "/><mask id="satori_om-id-1-2"><rect x="220" y="47" width="112" height="19" fill="#fff"/></mask><mask id="satori_om-id-1-2-0"><rect x="220" y="48" width="16" height="16" fill="#fff"/></mask><mask id="satori_om-id-1-2-0-0"><rect x="224" y="52" width="8" height="8" fill="#fff"/></mask><path x="224" y="52" width="8" height="8" fill="#844FBA" d="M228,52 h0 a4,4 0 0 1 4,4 v0 a4,4 0 0 1 -4,4 h0 a4,4 0 0 1 -4,-4 v0 a4,4 0 0 1 4,-4"/><mask id="satori_om-id-1-2-1"><rect x="249" y="47" width="31" height="19" fill="#fff"/></mask><path fill="#fff" d="M259.3 51.1L259.3 62.5L256.9 62.5L256.9 57.6L252.4 57.6L252.4 62.5L250.0 62.5L250.0 51.1L252.4 51.1L252.4 55.7L256.9 55.7L256.9 51.1L259.3 51.1ZM267.9 58.7L270.3 58.7Q270.1 60.5 268.9 61.6Q267.7 62.6 265.7 62.6L265.7 62.6Q263.5 62.6 262.2 61.2Q261.0 59.7 261.0 57.1L261.0 57.1L261.0 56.4Q261.0 54.8 261.6 53.5Q262.1 52.3 263.2 51.6Q264.3 51.0 265.7 51.0L265.7 51.0Q267.7 51.0 268.9 52.0Q270.1 53.1 270.3 55.0L270.3 55.0L267.9 55.0Q267.8 53.9 267.3 53.4Q266.8 52.9 265.7 52.9L265.7 52.9Q264.5 52.9 263.9 53.7Q263.4 54.6 263.4 56.3L263.4 56.3L263.4 57.2Q263.4 59.0 263.9 59.9Q264.5 60.7 265.7 60.7L265.7 60.7Q266.8 60.7 267.3 60.2Q267.8 59.7 267.9 58.7L267.9 58.7ZM274.1 51.1L274.1 60.6L279.1 60.6L279.1 62.5L271.8 62.5L271.8 51.1L274.1 51.1Z "/><mask id="satori_om-id-1-2-2"><rect x="289" y="47" width="43" height="19" fill="#fff"/></mask><path fill="#7d8590" d="M294.7 51.1L294.7 62.5L293.2 62.5L293.2 52.9L290.3 53.9L290.3 52.6L294.5 51.1L294.7 51.1ZM306.1 55.8L306.1 57.6Q306.1 60.2 305.2 61.4Q304.3 62.6 302.5 62.6L302.5 62.6Q300.7 62.6 299.8 61.4Q298.9 60.2 298.9 57.8L298.9 57.8L298.9 55.9Q298.9 53.4 299.8 52.2Q300.6 51.0 302.5 51.0L302.5 51.0Q304.3 51.0 305.2 52.1Q306.0 53.3 306.1 55.8L306.1 55.8ZM304.6 58.0L304.6 55.7Q304.6 53.8 304.1 53.0Q303.6 52.1 302.5 52.1L302.5 52.1Q301.4 52.1 300.9 53.0Q300.3 53.8 300.3 55.5L300.3 55.5L300.3 57.9Q300.3 59.7 300.9 60.6Q301.4 61.5 302.5 61.5L302.5 61.5Q303.6 61.5 304.1 60.6Q304.6 59.8 304.6 58.0L304.6 58.0ZM308.1 61.7L308.1 61.7Q308.1 61.4 308.3 61.1Q308.5 60.9 309.0 60.9Q309.4 60.9 309.7 61.1Q309.9 61.4 309.9 61.7L309.9 61.7Q309.9 62.1 309.7 62.3Q309.4 62.6 309.0 62.6Q308.5 62.6 308.3 62.3Q308.1 62.1 308.1 61.7ZM316.9 51.1L316.9 62.5L315.4 62.5L315.4 52.9L312.5 53.9L312.5 52.6L316.6 51.1L316.9 51.1ZM321.0 53.8L321.0 53.3Q321.0 52.3 321.6 51.6Q322.3 50.9 323.3 50.9L323.3 50.9Q324.4 50.9 325.0 51.6Q325.6 52.3 325.6 53.3L325.6 53.3L325.6 53.9Q325.6 54.9 325.0 55.6Q324.3 56.2 323.3 56.2L323.3 56.2Q322.3 56.2 321.6 55.6Q321.0 54.9 321.0 53.8L321.0 53.8ZM322.1 53.3L322.1 53.9Q322.1 54.5 322.4 54.9Q322.8 55.3 323.3 55.3L323.3 55.3Q323.9 55.3 324.2 54.9Q324.6 54.5 324.6 53.9L324.6 53.9L324.6 53.3Q324.6 52.7 324.2 52.3Q323.9 51.9 323.3 51.9Q322.7 51.9 322.4 52.3Q322.1 52.7 322.1 53.3L322.1 53.3ZM326.5 60.3L326.5 59.7Q326.5 58.7 327.2 58.0Q327.8 57.4 328.9 57.4Q329.9 57.4 330.5 58.0Q331.2 58.7 331.2 59.7L331.2 59.7L331.2 60.3Q331.2 61.3 330.5 62.0Q329.9 62.6 328.9 62.6Q327.9 62.6 327.2 62.0Q326.5 61.3 326.5 60.3L326.5 60.3ZM327.6 59.7L327.6 60.3Q327.6 60.9 327.9 61.3Q328.3 61.7 328.9 61.7L328.9 61.7Q329.4 61.7 329.8 61.3Q330.1 60.9 330.1 60.3L330.1 60.3L330.1 59.7Q330.1 59.1 329.8 58.7Q329.4 58.3 328.9 58.3L328.9 58.3Q328.3 58.3 327.9 58.7Q327.6 59.1 327.6 59.7L327.6 59.7ZM329.2 52.7L323.7 61.6L322.8 61.1L328.4 52.2L329.2 52.7Z "/><mask id="satori_om-id-1-3"><rect x="0" y="76" width="123" height="18" fill="#fff"/></mask><mask id="satori_om-id-1-3-0"><rect x="0" y="77" width="16" height="16" fill="#fff"/></mask><mask id="satori_om-id-1-3-0-0"><rect x="4" y="81" width="8" height="8" fill="#fff"/></mask><path x="4" y="81" width="8" height="8" fill="#3572A5" d="M8,81 h0 a4,4 0 0 1 4,4 v0 a4,4 0 0 1 -4,4 h0 a4,4 0 0 1 -4,-4 v0 a4,4 0 0 1 4,-4"/><mask id="satori_om-id-1-3-1"><rect x="29" y="76" width="51" height="18" fill="#fff"/></mask><path fill="#fff" d="M34.4 87.5L32.4 87.5L32.4 91.5L30.0 91.5L30.0 80.1L34.5 80.1Q35.7 80.1 36.7 80.6Q37.7 81.0 38.2 81.9Q38.7 82.8 38.7 83.9L38.7 83.9Q38.7 85.5 37.6 86.5Q36.4 87.5 34.4 87.5L34.4 87.5ZM32.4 82.0L32.4 85.6L34.5 85.6Q35.4 85.6 35.9 85.1Q36.4 84.7 36.4 83.9L36.4 83.9Q36.4 83.1 35.9 82.5Q35.4 82.0 34.5 82.0L34.5 82.0L32.4 82.0ZM41.9 83.0L43.5 88.3L45.0 83.0L47.4 83.0L44.0 92.8L43.9 93.2Q43.1 94.9 41.4 94.9L41.4 94.9Q40.9 94.9 40.4 94.7L40.4 94.7L40.4 93.0L40.7 93.0Q41.3 93.0 41.7 92.9Q42.0 92.7 42.2 92.2L42.2 92.2L42.4 91.5L39.5 83.0L41.9 83.0ZM48.8 81.0L51.0 81.0L51.0 83.0L52.5 83.0L52.5 84.7L51.0 84.7L51.0 88.9Q51.0 89.4 51.2 89.6Q51.4 89.8 51.9 89.8L51.9 89.8Q52.3 89.8 52.6 89.7L52.6 89.7L52.6 91.4Q51.9 91.6 51.2 91.6L51.2 91.6Q48.8 91.6 48.8 89.2L48.8 89.2L48.8 84.7L47.5 84.7L47.5 83.0L48.8 83.0L48.8 81.0ZM55.9 79.5L55.9 84.0Q56.8 82.9 58.2 82.9L58.2 82.9Q61.0 82.9 61.0 86.1L61.0 86.1L61.0 91.5L58.7 91.5L58.7 86.1Q58.7 85.4 58.4 85.1Q58.1 84.7 57.4 84.7L57.4 84.7Q56.4 84.7 55.9 85.5L55.9 85.5L55.9 91.5L53.7 91.5L53.7 79.5L55.9 79.5ZM62.3 87.3L62.3 87.2Q62.3 85.9 62.8 84.9Q63.3 84.0 64.2 83.4Q65.1 82.9 66.3 82.9L66.3 82.9Q68.0 82.9 69.1 83.9Q70.2 85.0 70.3 86.8L70.3 86.8L70.4 87.3Q70.4 89.3 69.3 90.5Q68.2 91.6 66.4 91.6Q64.5 91.6 63.4 90.5Q62.3 89.3 62.3 87.3L62.3 87.3ZM64.6 87.3L64.6 87.3Q64.6 88.5 65.1 89.2Q65.5 89.8 66.4 89.8L66.4 89.8Q67.2 89.8 67.6 89.2Q68.1 88.6 68.1 87.2L68.1 87.2Q68.1 86.0 67.6 85.4Q67.2 84.7 66.3 84.7L66.3 84.7Q65.5 84.7 65.1 85.3Q64.6 86.0 64.6 87.3ZM71.7 83.0L73.8 83.0L73.9 84.0Q74.8 82.9 76.3 82.9L76.3 82.9Q77.7 82.9 78.3 83.7Q79.0 84.5 79.0 86.0L79.0 86.0L79.0 91.5L76.7 91.5L76.7 86.1Q76.7 85.4 76.4 85.0Q76.1 84.7 75.4 84.7L75.4 84.7Q74.4 84.7 74.0 85.5L74.0 85.5L74.0 91.5L71.7 91.5L71.7 83.0Z "/><mask id="satori_om-id-1-3-2"><rect x="89" y="76" width="34" height="18" fill="#fff"/></mask><path fill="#7d8590" d="M97.3 80.1L97.3 80.9L92.6 91.5L91.1 91.5L95.8 81.3L89.6 81.3L89.6 80.1L97.3 80.1ZM99.1 90.7L99.1 90.7Q99.1 90.4 99.3 90.1Q99.6 89.9 100 89.9Q100.4 89.9 100.7 90.1Q100.9 90.4 100.9 90.7L100.9 90.7Q100.9 91.1 100.7 91.3Q100.4 91.6 100 91.6Q99.6 91.6 99.3 91.3Q99.1 91.1 99.1 90.7ZM108.7 86.5L108.7 86.5Q108.2 87.0 107.6 87.4Q107.0 87.7 106.2 87.7L106.2 87.7Q105.2 87.7 104.5 87.2Q103.8 86.7 103.4 85.8Q103.0 85.0 103.0 83.9L103.0 83.9Q103.0 82.7 103.4 81.8Q103.8 80.9 104.6 80.4Q105.4 80.0 106.5 80.0L106.5 80.0Q108.2 80.0 109.2 81.2Q110.1 82.5 110.1 84.7L110.1 84.7L110.1 85.1Q110.1 88.4 108.8 89.9Q107.5 91.5 104.9 91.5L104.9 91.5L104.6 91.5L104.6 90.3L104.9 90.3Q106.7 90.2 107.6 89.3Q108.6 88.4 108.7 86.5ZM106.5 86.5L106.5 86.5Q107.2 86.5 107.8 86.0Q108.4 85.6 108.7 84.9L108.7 84.9L108.7 84.4Q108.7 82.9 108.1 82.0Q107.5 81.2 106.5 81.2L106.5 81.2Q105.6 81.2 105.0 81.9Q104.4 82.6 104.4 83.8L104.4 83.8Q104.4 85.0 105.0 85.7Q105.5 86.5 106.5 86.5ZM112 82.8L112 82.3Q112 81.3 112.7 80.6Q113.3 79.9 114.3 79.9L114.3 79.9Q115.4 79.9 116.0 80.6Q116.7 81.3 116.7 82.3L116.7 82.3L116.7 82.9Q116.7 83.9 116.0 84.6Q115.4 85.2 114.3 85.2L114.3 85.2Q113.3 85.2 112.7 84.6Q112 83.9 112 82.8L112 82.8ZM113.1 82.3L113.1 82.9Q113.1 83.5 113.4 83.9Q113.8 84.3 114.3 84.3L114.3 84.3Q114.9 84.3 115.2 83.9Q115.6 83.5 115.6 82.9L115.6 82.9L115.6 82.3Q115.6 81.7 115.2 81.3Q114.9 80.9 114.3 80.9Q113.8 80.9 113.4 81.3Q113.1 81.7 113.1 82.3L113.1 82.3ZM117.5 89.3L117.5 88.7Q117.5 87.7 118.2 87.0Q118.8 86.4 119.9 86.4Q120.9 86.4 121.5 87.0Q122.2 87.7 122.2 88.7L122.2 88.7L122.2 89.3Q122.2 90.3 121.6 91.0Q120.9 91.6 119.9 91.6Q118.9 91.6 118.2 91.0Q117.5 90.3 117.5 89.3L117.5 89.3ZM118.6 88.7L118.6 89.3Q118.6 89.9 119.0 90.3Q119.3 90.7 119.9 90.7L119.9 90.7Q120.4 90.7 120.8 90.3Q121.1 89.9 121.1 89.3L121.1 89.3L121.1 88.7Q121.1 88.1 120.8 87.7Q120.4 87.3 119.9 87.3L119.9 87.3Q119.3 87.3 119.0 87.7Q118.6 88.1 118.6 88.7L118.6 88.7ZM120.2 81.7L114.7 90.6L113.9 90.1L119.4 81.2L120.2 81.7Z "/><mask id="satori_om-id-1-4"><rect x="133" y="76" width="117" height="18" fill="#fff"/></mask><mask id="satori_om-id-1-4-0"><rect x="133" y="77" width="16" height="16" fill="#fff"/></mask><mask id="satori_om-id-1-4-0-0"><rect x="137" y="81" width="8" height="8" fill="#fff"/></mask><path x="137" y="81" width="8" height="8" fill="#ff3e00" d="M141,81 h0 a4,4 0 0 1 4,4 v0 a4,4 0 0 1 -4,4 h0 a4,4 0 0 1 -4,-4 v0 a4,4 0 0 1 4,-4"/><mask id="satori_om-id-1-4-1"><rect x="162" y="76" width="45" height="18" fill="#fff"/></mask><path fill="#fff" d="M168.9 88.5L168.9 88.5Q168.9 87.8 168.4 87.5Q168.0 87.1 166.8 86.7Q165.5 86.3 164.8 86.0L164.8 86.0Q162.9 84.9 162.9 83.1L162.9 83.1Q162.9 82.2 163.4 81.5Q163.9 80.8 164.9 80.4Q165.9 80.0 167.1 80.0L167.1 80.0Q168.3 80.0 169.3 80.4Q170.2 80.8 170.7 81.6Q171.3 82.4 171.3 83.5L171.3 83.5L168.9 83.5Q168.9 82.7 168.4 82.3Q167.9 81.8 167.0 81.8L167.0 81.8Q166.2 81.8 165.7 82.2Q165.2 82.5 165.2 83.1L165.2 83.1Q165.2 83.7 165.8 84.1Q166.4 84.4 167.4 84.8L167.4 84.8Q169.4 85.4 170.4 86.3Q171.3 87.2 171.3 88.5L171.3 88.5Q171.3 90.0 170.1 90.8Q169.0 91.6 167.1 91.6L167.1 91.6Q165.8 91.6 164.8 91.2Q163.7 90.7 163.1 89.8Q162.5 89.0 162.5 87.9L162.5 87.9L164.9 87.9Q164.9 89.8 167.1 89.8L167.1 89.8Q168.0 89.8 168.4 89.4Q168.9 89.1 168.9 88.5ZM174.3 83.0L175.9 88.7L177.4 83.0L179.8 83.0L176.9 91.5L174.8 91.5L171.9 83.0L174.3 83.0ZM184.6 91.6L184.6 91.6Q182.7 91.6 181.6 90.5Q180.4 89.4 180.4 87.5L180.4 87.5L180.4 87.2Q180.4 86.0 180.9 85.0Q181.4 84.0 182.3 83.4Q183.2 82.9 184.3 82.9L184.3 82.9Q186.1 82.9 187.1 84.0Q188.1 85.1 188.1 87.1L188.1 87.1L188.1 88.0L182.7 88.0Q182.8 88.8 183.3 89.3Q183.9 89.8 184.7 89.8L184.7 89.8Q186.0 89.8 186.8 88.9L186.8 88.9L187.9 90.1Q187.4 90.8 186.5 91.2Q185.6 91.6 184.6 91.6ZM184.3 84.7L184.3 84.7Q183.6 84.7 183.2 85.2Q182.8 85.6 182.7 86.5L182.7 86.5L185.8 86.5L185.8 86.3Q185.8 85.5 185.4 85.1Q185.0 84.7 184.3 84.7ZM191.7 79.5L191.7 91.5L189.5 91.5L189.5 79.5L191.7 79.5ZM194.0 81.0L196.3 81.0L196.3 83.0L197.7 83.0L197.7 84.7L196.3 84.7L196.3 88.9Q196.3 89.4 196.5 89.6Q196.6 89.8 197.1 89.8L197.1 89.8Q197.5 89.8 197.8 89.7L197.8 89.7L197.8 91.4Q197.1 91.6 196.4 91.6L196.4 91.6Q194.1 91.6 194.0 89.2L194.0 89.2L194.0 84.7L192.8 84.7L192.8 83.0L194.0 83.0L194.0 81.0ZM202.9 91.6L202.9 91.6Q201.0 91.6 199.8 90.5Q198.7 89.4 198.7 87.5L198.7 87.5L198.7 87.2Q198.7 86.0 199.2 85.0Q199.7 84.0 200.6 83.4Q201.5 82.9 202.6 82.9L202.6 82.9Q204.4 82.9 205.4 84.0Q206.4 85.1 206.4 87.1L206.4 87.1L206.4 88.0L201.0 88.0Q201.1 88.8 201.6 89.3Q202.2 89.8 203.0 89.8L203.0 89.8Q204.3 89.8 205.1 88.9L205.1 88.9L206.2 90.1Q205.7 90.8 204.8 91.2Q203.9 91.6 202.9 91.6ZM202.6 84.7L202.6 84.7Q201.9 84.7 201.5 85.2Q201.1 85.6 201.0 86.5L201.0 86.5L204.1 86.5L204.1 86.3Q204.1 85.5 203.7 85.1Q203.3 84.7 202.6 84.7Z "/><mask id="satori_om-id-1-4-2"><rect x="216" y="76" width="34" height="18" fill="#fff"/></mask><path fill="#7d8590" d="M218.8 86.1L217.6 85.8L218.2 80.1L224.0 80.1L224.0 81.4L219.4 81.4L219.1 84.5Q219.9 84.1 221.0 84.1L221.0 84.1Q222.5 84.1 223.4 85.1Q224.4 86.1 224.4 87.9L224.4 87.9Q224.4 89.6 223.4 90.6Q222.5 91.6 220.8 91.6L220.8 91.6Q219.2 91.6 218.3 90.8Q217.3 90.0 217.2 88.5L217.2 88.5L218.6 88.5Q218.7 89.5 219.3 90.0Q219.8 90.5 220.8 90.5L220.8 90.5Q221.8 90.5 222.3 89.8Q222.9 89.1 222.9 87.9L222.9 87.9Q222.9 86.7 222.3 86.0Q221.7 85.4 220.6 85.4L220.6 85.4Q219.7 85.4 219.1 85.8L219.1 85.8L218.8 86.1ZM226.1 90.7L226.1 90.7Q226.1 90.4 226.3 90.1Q226.6 89.9 227 89.9Q227.4 89.9 227.7 90.1Q227.9 90.4 227.9 90.7L227.9 90.7Q227.9 91.1 227.7 91.3Q227.4 91.6 227 91.6Q226.6 91.6 226.3 91.3Q226.1 91.1 226.1 90.7ZM235.7 86.5L235.7 86.5Q235.2 87.0 234.6 87.4Q234.0 87.7 233.2 87.7L233.2 87.7Q232.2 87.7 231.5 87.2Q230.8 86.7 230.4 85.8Q230.0 85.0 230.0 83.9L230.0 83.9Q230.0 82.7 230.4 81.8Q230.8 80.9 231.6 80.4Q232.4 80.0 233.5 80.0L233.5 80.0Q235.2 80.0 236.2 81.2Q237.1 82.5 237.1 84.7L237.1 84.7L237.1 85.1Q237.1 88.4 235.8 89.9Q234.5 91.5 231.9 91.5L231.9 91.5L231.6 91.5L231.6 90.3L231.9 90.3Q233.7 90.2 234.6 89.3Q235.6 88.4 235.7 86.5ZM233.5 86.5L233.5 86.5Q234.2 86.5 234.8 86.0Q235.4 85.6 235.7 84.9L235.7 84.9L235.7 84.4Q235.7 82.9 235.1 82.0Q234.5 81.2 233.5 81.2L233.5 81.2Q232.6 81.2 232.0 81.9Q231.4 82.6 231.4 83.8L231.4 83.8Q231.4 85.0 232.0 85.7Q232.5 86.5 233.5 86.5ZM239 82.8L239 82.3Q239 81.3 239.7 80.6Q240.3 79.9 241.3 79.9L241.3 79.9Q242.4 79.9 243.0 80.6Q243.7 81.3 243.7 82.3L243.7 82.3L243.7 82.9Q243.7 83.9 243.0 84.6Q242.4 85.2 241.3 85.2L241.3 85.2Q240.3 85.2 239.7 84.6Q239 83.9 239 82.8L239 82.8ZM240.1 82.3L240.1 82.9Q240.1 83.5 240.4 83.9Q240.8 84.3 241.3 84.3L241.3 84.3Q241.9 84.3 242.2 83.9Q242.6 83.5 242.6 82.9L242.6 82.9L242.6 82.3Q242.6 81.7 242.2 81.3Q241.9 80.9 241.3 80.9Q240.8 80.9 240.4 81.3Q240.1 81.7 240.1 82.3L240.1 82.3ZM244.5 89.3L244.5 88.7Q244.5 87.7 245.2 87.0Q245.8 86.4 246.9 86.4Q247.9 86.4 248.5 87.0Q249.2 87.7 249.2 88.7L249.2 88.7L249.2 89.3Q249.2 90.3 248.6 91.0Q247.9 91.6 246.9 91.6Q245.9 91.6 245.2 91.0Q244.5 90.3 244.5 89.3L244.5 89.3ZM245.6 88.7L245.6 89.3Q245.6 89.9 246.0 90.3Q246.3 90.7 246.9 90.7L246.9 90.7Q247.4 90.7 247.8 90.3Q248.1 89.9 248.1 89.3L248.1 89.3L248.1 88.7Q248.1 88.1 247.8 87.7Q247.4 87.3 246.9 87.3L246.9 87.3Q246.3 87.3 246.0 87.7Q245.6 88.1 245.6 88.7L245.6 88.7ZM247.2 81.7L241.7 90.6L240.9 90.1L246.4 81.2L247.2 81.7Z "/><mask id="satori_om-id-1-5"><rect x="260" y="76" width="92" height="18" fill="#fff"/></mask><mask id="satori_om-id-1-5-0"><rect x="260" y="77" width="16" height="16" fill="#fff"/></mask><mask id="satori_om-id-1-5-0-0"><rect x="264" y="81" width="8" height="8" fill="#fff"/></mask><path x="264" y="81" width="8" height="8" fill="#00ADD8" d="M268,81 h0 a4,4 0 0 1 4,4 v0 a4,4 0 0 1 -4,4 h0 a4,4 0 0 1 -4,-4 v0 a4,4 0 0 1 4,-4"/><mask id="satori_om-id-1-5-1"><rect x="289" y="76" width="20" height="18" fill="#fff"/></mask><path fill="#fff" d="M299.0 85.5L299.0 90.0Q298.4 90.8 297.2 91.2Q296.1 91.6 294.7 91.6L294.7 91.6Q293.2 91.6 292.1 91.0Q291.0 90.4 290.4 89.1Q289.8 87.9 289.7 86.2L289.7 86.2L289.7 85.5Q289.7 83.8 290.3 82.5Q290.9 81.3 292.0 80.6Q293.0 80.0 294.5 80.0L294.5 80.0Q296.5 80.0 297.7 80.9Q298.8 81.9 299.0 83.7L299.0 83.7L296.7 83.7Q296.6 82.7 296.0 82.3Q295.5 81.8 294.6 81.8L294.6 81.8Q293.4 81.8 292.8 82.7Q292.1 83.6 292.1 85.4L292.1 85.4L292.1 86.1Q292.1 87.9 292.8 88.8Q293.5 89.8 294.8 89.8L294.8 89.8Q296.1 89.8 296.7 89.2L296.7 89.2L296.7 87.2L294.5 87.2L294.5 85.5L299.0 85.5ZM300.4 87.3L300.4 87.2Q300.4 85.9 300.9 84.9Q301.4 84.0 302.3 83.4Q303.2 82.9 304.4 82.9L304.4 82.9Q306.1 82.9 307.2 83.9Q308.3 85.0 308.4 86.8L308.4 86.8L308.4 87.3Q308.4 89.3 307.3 90.5Q306.3 91.6 304.4 91.6Q302.6 91.6 301.5 90.5Q300.4 89.3 300.4 87.3L300.4 87.3ZM302.7 87.3L302.7 87.3Q302.7 88.5 303.1 89.2Q303.6 89.8 304.4 89.8L304.4 89.8Q305.2 89.8 305.7 89.2Q306.2 88.6 306.2 87.2L306.2 87.2Q306.2 86.0 305.7 85.4Q305.2 84.7 304.4 84.7L304.4 84.7Q303.6 84.7 303.1 85.3Q302.7 86.0 302.7 87.3Z "/><mask id="satori_om-id-1-5-2"><rect x="318" y="76" width="34" height="18" fill="#fff"/></mask><path fill="#7d8590" d="M320.8 86.1L319.6 85.8L320.2 80.1L326.0 80.1L326.0 81.4L321.4 81.4L321.1 84.5Q321.9 84.1 323.0 84.1L323.0 84.1Q324.5 84.1 325.4 85.1Q326.4 86.1 326.4 87.9L326.4 87.9Q326.4 89.6 325.4 90.6Q324.5 91.6 322.8 91.6L322.8 91.6Q321.2 91.6 320.3 90.8Q319.3 90.0 319.2 88.5L319.2 88.5L320.6 88.5Q320.7 89.5 321.3 90.0Q321.8 90.5 322.8 90.5L322.8 90.5Q323.8 90.5 324.3 89.8Q324.9 89.1 324.9 87.9L324.9 87.9Q324.9 86.7 324.3 86.0Q323.7 85.4 322.6 85.4L322.6 85.4Q321.7 85.4 321.1 85.8L321.1 85.8L320.8 86.1ZM328.1 90.7L328.1 90.7Q328.1 90.4 328.3 90.1Q328.6 89.9 329 89.9Q329.4 89.9 329.7 90.1Q329.9 90.4 329.9 90.7L329.9 90.7Q329.9 91.1 329.7 91.3Q329.4 91.6 329 91.6Q328.6 91.6 328.3 91.3Q328.1 91.1 328.1 90.7ZM334.0 86.1L332.8 85.8L333.4 80.1L339.2 80.1L339.2 81.4L334.6 81.4L334.3 84.5Q335.1 84.1 336.2 84.1L336.2 84.1Q337.7 84.1 338.6 85.1Q339.5 86.1 339.5 87.9L339.5 87.9Q339.5 89.6 338.6 90.6Q337.6 91.6 335.9 91.6L335.9 91.6Q334.4 91.6 333.5 90.8Q332.5 90.0 332.4 88.5L332.4 88.5L333.8 88.5Q333.9 89.5 334.5 90.0Q335.0 90.5 335.9 90.5L335.9 90.5Q337.0 90.5 337.5 89.8Q338.1 89.1 338.1 87.9L338.1 87.9Q338.1 86.7 337.5 86.0Q336.9 85.4 335.8 85.4L335.8 85.4Q334.9 85.4 334.3 85.8L334.3 85.8L334.0 86.1ZM341 82.8L341 82.3Q341 81.3 341.7 80.6Q342.3 79.9 343.3 79.9L343.3 79.9Q344.4 79.9 345.0 80.6Q345.7 81.3 345.7 82.3L345.7 82.3L345.7 82.9Q345.7 83.9 345.0 84.6Q344.4 85.2 343.3 85.2L343.3 85.2Q342.3 85.2 341.7 84.6Q341 83.9 341 82.8L341 82.8ZM342.1 82.3L342.1 82.9Q342.1 83.5 342.4 83.9Q342.8 84.3 343.3 84.3L343.3 84.3Q343.9 84.3 344.2 83.9Q344.6 83.5 344.6 82.9L344.6 82.9L344.6 82.3Q344.6 81.7 344.2 81.3Q343.9 80.9 343.3 80.9Q342.8 80.9 342.4 81.3Q342.1 81.7 342.1 82.3L342.1 82.3ZM346.5 89.3L346.5 88.7Q346.5 87.7 347.2 87.0Q347.8 86.4 348.9 86.4Q349.9 86.4 350.5 87.0Q351.2 87.7 351.2 88.7L351.2 88.7L351.2 89.3Q351.2 90.3 350.6 91.0Q349.9 91.6 348.9 91.6Q347.9 91.6 347.2 91.0Q346.5 90.3 346.5 89.3L346.5 89.3ZM347.6 88.7L347.6 89.3Q347.6 89.9 348.0 90.3Q348.3 90.7 348.9 90.7L348.9 90.7Q349.4 90.7 349.8 90.3Q350.1 89.9 350.1 89.3L350.1 89.3L350.1 88.7Q350.1 88.1 349.8 87.7Q349.4 87.3 348.9 87.3L348.9 87.3Q348.3 87.3 348.0 87.7Q347.6 88.1 347.6 88.7L347.6 88.7ZM349.2 81.7L343.7 90.6L342.9 90.1L348.4 81.2L349.2 81.7Z "/><mask id="satori_om-id-1-6"><rect x="0" y="104" width="116" height="19" fill="#fff"/></mask><mask id="satori_om-id-1-6-0"><rect x="0" y="105" width="16" height="16" fill="#fff"/></mask><mask id="satori_om-id-1-6-0-0"><rect x="4" y="109" width="8" height="8" fill="#fff"/></mask><path x="4" y="109" width="8" height="8" fill="#e34c26" d="M8,109 h0 a4,4 0 0 1 4,4 v0 a4,4 0 0 1 -4,4 h0 a4,4 0 0 1 -4,-4 v0 a4,4 0 0 1 4,-4"/><mask id="satori_om-id-1-6-1"><rect x="29" y="104" width="44" height="19" fill="#fff"/></mask><path fill="#fff" d="M39.3 108.1L39.3 119.5L36.9 119.5L36.9 114.6L32.4 114.6L32.4 119.5L30.0 119.5L30.0 108.1L32.4 108.1L32.4 112.7L36.9 112.7L36.9 108.1L39.3 108.1ZM49.7 108.1L49.7 110.0L46.2 110.0L46.2 119.5L43.8 119.5L43.8 110.0L40.4 110.0L40.4 108.1L49.7 108.1ZM51.0 108.1L54.1 108.1L57.0 116.4L59.9 108.1L63.0 108.1L63.0 119.5L60.6 119.5L60.6 116.4L60.8 111.0L57.8 119.5L56.2 119.5L53.1 111.0L53.3 116.4L53.3 119.5L51.0 119.5L51.0 108.1ZM67.4 108.1L67.4 117.6L72.3 117.6L72.3 119.5L65.0 119.5L65.0 108.1L67.4 108.1Z "/><mask id="satori_om-id-1-6-2"><rect x="82" y="104" width="34" height="19" fill="#fff"/></mask><path fill="#7d8590" d="M89.0 108.1L89.0 115.7L90.6 115.7L90.6 116.8L89.0 116.8L89.0 119.5L87.6 119.5L87.6 116.8L82.4 116.8L82.4 116.0L87.5 108.1L89.0 108.1ZM87.4 110.4L84.1 115.7L87.6 115.7L87.6 110.1L87.4 110.4ZM92.1 118.7L92.1 118.7Q92.1 118.4 92.3 118.1Q92.6 117.9 93 117.9Q93.4 117.9 93.7 118.1Q93.9 118.4 93.9 118.7L93.9 118.7Q93.9 119.1 93.7 119.3Q93.4 119.6 93 119.6Q92.6 119.6 92.3 119.3Q92.1 119.1 92.1 118.7ZM103.3 112.8L103.3 114.6Q103.3 117.2 102.4 118.4Q101.5 119.6 99.7 119.6L99.7 119.6Q97.9 119.6 97 118.4Q96.1 117.2 96.1 114.8L96.1 114.8L96.1 112.9Q96.1 110.4 97.0 109.2Q97.8 108.0 99.7 108.0L99.7 108.0Q101.5 108.0 102.4 109.1Q103.3 110.3 103.3 112.8L103.3 112.8ZM101.8 115.0L101.8 112.7Q101.8 110.8 101.3 110.0Q100.8 109.1 99.7 109.1L99.7 109.1Q98.6 109.1 98.1 110.0Q97.6 110.8 97.5 112.5L97.5 112.5L97.5 114.9Q97.5 116.7 98.1 117.6Q98.6 118.5 99.7 118.5L99.7 118.5Q100.8 118.5 101.3 117.6Q101.8 116.8 101.8 115.0L101.8 115.0ZM105 110.8L105 110.3Q105 109.3 105.7 108.6Q106.3 107.9 107.3 107.9L107.3 107.9Q108.4 107.9 109.0 108.6Q109.7 109.3 109.7 110.3L109.7 110.3L109.7 110.9Q109.7 111.9 109.0 112.6Q108.4 113.2 107.3 113.2L107.3 113.2Q106.3 113.2 105.7 112.6Q105 111.9 105 110.8L105 110.8ZM106.1 110.3L106.1 110.9Q106.1 111.5 106.4 111.9Q106.8 112.3 107.3 112.3L107.3 112.3Q107.9 112.3 108.2 111.9Q108.6 111.5 108.6 110.9L108.6 110.9L108.6 110.3Q108.6 109.7 108.2 109.3Q107.9 108.9 107.3 108.9Q106.8 108.9 106.4 109.3Q106.1 109.7 106.1 110.3L106.1 110.3ZM110.5 117.3L110.5 116.7Q110.5 115.7 111.2 115.0Q111.8 114.4 112.9 114.4Q113.9 114.4 114.5 115.0Q115.2 115.7 115.2 116.7L115.2 116.7L115.2 117.3Q115.2 118.3 114.6 119.0Q113.9 119.6 112.9 119.6Q111.9 119.6 111.2 119.0Q110.5 118.3 110.5 117.3L110.5 117.3ZM111.6 116.7L111.6 117.3Q111.6 117.9 112.0 118.3Q112.3 118.7 112.9 118.7L112.9 118.7Q113.4 118.7 113.8 118.3Q114.1 117.9 114.1 117.3L114.1 117.3L114.1 116.7Q114.1 116.1 113.8 115.7Q113.4 115.3 112.9 115.3L112.9 115.3Q112.3 115.3 112.0 115.7Q111.6 116.1 111.6 116.7L111.6 116.7ZM113.2 109.7L107.7 118.6L106.9 118.1L112.4 109.2L113.2 109.7Z "/><mask id="satori_om-id-1-7"><rect x="126" y="104" width="83" height="19" fill="#fff"/></mask><mask id="satori_om-id-1-7-0"><rect x="126" y="105" width="16" height="16" fill="#fff"/></mask><mask id="satori_om-id-1-7-0-0"><rect x="130" y="109" width="8" height="8" fill="#fff"/></mask><path x="130" y="109" width="8" height="8" fill="#555555" d="M134,109 h0 a4,4 0 0 1 4,4 v0 a4,4 0 0 1 -4,4 h0 a4,4 0 0 1 -4,-4 v0 a4,4 0 0 1 4,-4"/><mask id="satori_om-id-1-7-1"><rect x="155" y="104" width="11" height="19" fill="#fff"/></mask><path fill="#fff" d="M162.6 115.7L164.9 115.7Q164.8 117.5 163.6 118.6Q162.4 119.6 160.4 119.6L160.4 119.6Q158.2 119.6 156.9 118.2Q155.7 116.7 155.7 114.1L155.7 114.1L155.7 113.4Q155.7 111.8 156.3 110.5Q156.8 109.3 157.9 108.6Q159.0 108.0 160.4 108.0L160.4 108.0Q162.4 108.0 163.6 109.0Q164.8 110.1 165.0 112.0L165.0 112.0L162.6 112.0Q162.5 110.9 162.0 110.4Q161.5 109.9 160.4 109.9L160.4 109.9Q159.2 109.9 158.6 110.7Q158.1 111.6 158.0 113.3L158.0 113.3L158.0 114.2Q158.0 116.0 158.6 116.9Q159.2 117.7 160.4 117.7L160.4 117.7Q161.5 117.7 162.0 117.2Q162.5 116.7 162.6 115.7L162.6 115.7Z "/><mask id="satori_om-id-1-7-2"><rect x="175" y="104" width="34" height="19" fill="#fff"/></mask><path fill="#7d8590" d="M178.0 114.3L178.0 113.1L179.1 113.1Q180.2 113.1 180.7 112.6Q181.3 112.0 181.3 111.1L181.3 111.1Q181.3 109.1 179.3 109.1L179.3 109.1Q178.4 109.1 177.8 109.7Q177.3 110.2 177.3 111.1L177.3 111.1L175.8 111.1Q175.8 109.7 176.8 108.8Q177.8 108.0 179.3 108.0L179.3 108.0Q180.9 108.0 181.9 108.8Q182.8 109.7 182.8 111.2L182.8 111.2Q182.8 111.9 182.3 112.6Q181.8 113.3 181.0 113.6L181.0 113.6Q181.9 113.9 182.4 114.6Q182.9 115.3 182.9 116.3L182.9 116.3Q182.9 117.8 181.9 118.7Q180.9 119.6 179.3 119.6Q177.7 119.6 176.7 118.8Q175.7 117.9 175.7 116.5L175.7 116.5L177.2 116.5Q177.2 117.4 177.8 117.9Q178.4 118.5 179.3 118.5L179.3 118.5Q180.4 118.5 180.9 117.9Q181.5 117.4 181.5 116.3L181.5 116.3Q181.5 115.4 180.9 114.8Q180.3 114.3 179.1 114.3L179.1 114.3L178.0 114.3ZM185.1 118.7L185.1 118.7Q185.1 118.4 185.3 118.1Q185.6 117.9 186 117.9Q186.4 117.9 186.7 118.1Q186.9 118.4 186.9 118.7L186.9 118.7Q186.9 119.1 186.7 119.3Q186.4 119.6 186 119.6Q185.6 119.6 185.3 119.3Q185.1 119.1 185.1 118.7ZM196.5 108.1L196.5 108.9L191.8 119.5L190.3 119.5L195.0 109.3L188.8 109.3L188.8 108.1L196.5 108.1ZM198 110.8L198 110.3Q198 109.3 198.7 108.6Q199.3 107.9 200.3 107.9L200.3 107.9Q201.4 107.9 202.0 108.6Q202.7 109.3 202.7 110.3L202.7 110.3L202.7 110.9Q202.7 111.9 202.0 112.6Q201.4 113.2 200.3 113.2L200.3 113.2Q199.3 113.2 198.7 112.6Q198 111.9 198 110.8L198 110.8ZM199.1 110.3L199.1 110.9Q199.1 111.5 199.4 111.9Q199.8 112.3 200.3 112.3L200.3 112.3Q200.9 112.3 201.2 111.9Q201.6 111.5 201.6 110.9L201.6 110.9L201.6 110.3Q201.6 109.7 201.2 109.3Q200.9 108.9 200.3 108.9Q199.8 108.9 199.4 109.3Q199.1 109.7 199.1 110.3L199.1 110.3ZM203.5 117.3L203.5 116.7Q203.5 115.7 204.2 115.0Q204.8 114.4 205.9 114.4Q206.9 114.4 207.5 115.0Q208.2 115.7 208.2 116.7L208.2 116.7L208.2 117.3Q208.2 118.3 207.6 119.0Q206.9 119.6 205.9 119.6Q204.9 119.6 204.2 119.0Q203.5 118.3 203.5 117.3L203.5 117.3ZM204.6 116.7L204.6 117.3Q204.6 117.9 205.0 118.3Q205.3 118.7 205.9 118.7L205.9 118.7Q206.4 118.7 206.8 118.3Q207.1 117.9 207.1 117.3L207.1 117.3L207.1 116.7Q207.1 116.1 206.8 115.7Q206.4 115.3 205.9 115.3L205.9 115.3Q205.3 115.3 205.0 115.7Q204.6 116.1 204.6 116.7L204.6 116.7ZM206.2 109.7L200.7 118.6L199.9 118.1L205.4 109.2L206.2 109.7Z "/><mask id="satori_om-id-1-8"><rect x="219" y="104" width="112" height="19" fill="#fff"/></mask><mask id="satori_om-id-1-8-0"><rect x="219" y="105" width="16" height="16" fill="#fff"/></mask><mask id="satori_om-id-1-8-0-0"><rect x="223" y="109" width="8" height="8" fill="#fff"/></mask><path x="223" y="109" width="8" height="8" fill="#ff5a03" d="M227,109 h0 a4,4 0 0 1 4,4 v0 a4,4 0 0 1 -4,4 h0 a4,4 0 0 1 -4,-4 v0 a4,4 0 0 1 4,-4"/><mask id="satori_om-id-1-8-1"><rect x="248" y="104" width="40" height="19" fill="#fff"/></mask><path fill="#fff" d="M256.2 119.5L255.4 117.1L251.3 117.1L250.5 119.5L248.1 119.5L252.3 108.1L254.5 108.1L258.7 119.5L256.2 119.5ZM253.4 111.0L252.0 115.2L254.8 115.2L253.4 111.0ZM264.2 117.1L264.2 117.1Q264.2 116.7 263.8 116.5Q263.4 116.3 262.5 116.1L262.5 116.1Q259.5 115.4 259.5 113.5L259.5 113.5Q259.5 112.4 260.4 111.6Q261.3 110.9 262.8 110.9L262.8 110.9Q264.5 110.9 265.4 111.6Q266.4 112.4 266.4 113.6L266.4 113.6L264.1 113.6Q264.1 113.1 263.8 112.8Q263.5 112.5 262.8 112.5L262.8 112.5Q262.3 112.5 262.0 112.7Q261.6 113.0 261.6 113.4L261.6 113.4Q261.6 113.8 262.0 114.0Q262.4 114.2 263.2 114.4Q264.0 114.6 264.6 114.8L264.6 114.8Q266.4 115.4 266.4 117.1L266.4 117.1Q266.4 118.2 265.4 118.9Q264.4 119.6 262.9 119.6L262.9 119.6Q261.8 119.6 261.0 119.3Q260.1 118.9 259.7 118.2Q259.2 117.6 259.2 116.8L259.2 116.8L261.3 116.8Q261.4 117.4 261.8 117.7Q262.2 118.0 262.9 118.0L262.9 118.0Q263.5 118.0 263.9 117.8Q264.2 117.5 264.2 117.1ZM268.3 109.0L270.6 109.0L270.6 111.0L272.0 111.0L272.0 112.7L270.6 112.7L270.6 116.9Q270.6 117.4 270.7 117.6Q270.9 117.8 271.4 117.8L271.4 117.8Q271.8 117.8 272.1 117.7L272.1 117.7L272.1 119.4Q271.4 119.6 270.7 119.6L270.7 119.6Q268.4 119.6 268.3 117.2L268.3 117.2L268.3 112.7L267.1 112.7L267.1 111.0L268.3 111.0L268.3 109.0ZM278.0 111.0L278.0 113.1Q277.6 113.1 277.2 113.1L277.2 113.1Q275.9 113.1 275.5 114.0L275.5 114.0L275.5 119.5L273.3 119.5L273.3 111.0L275.4 111.0L275.5 112.0Q276.1 110.9 277.3 110.9L277.3 110.9Q277.7 110.9 278.0 111.0L278.0 111.0ZM278.5 115.3L278.5 115.2Q278.5 113.9 279.0 112.9Q279.4 112.0 280.3 111.4Q281.3 110.9 282.5 110.9L282.5 110.9Q284.2 110.9 285.3 111.9Q286.3 113.0 286.5 114.8L286.5 114.8L286.5 115.3Q286.5 117.3 285.4 118.5Q284.3 119.6 282.5 119.6Q280.6 119.6 279.6 118.5Q278.5 117.3 278.5 115.3L278.5 115.3ZM280.7 115.3L280.7 115.3Q280.7 116.5 281.2 117.2Q281.6 117.8 282.5 117.8L282.5 117.8Q283.3 117.8 283.8 117.2Q284.2 116.6 284.2 115.2L284.2 115.2Q284.2 114.0 283.8 113.4Q283.3 112.7 282.5 112.7L282.5 112.7Q281.6 112.7 281.2 113.3Q280.7 114.0 280.7 115.3Z "/><mask id="satori_om-id-1-8-2"><rect x="297" y="104" width="34" height="19" fill="#fff"/></mask><path fill="#7d8590" d="M305.4 118.3L305.4 119.5L297.9 119.5L297.9 118.4L301.9 114.1Q302.8 113.1 303.1 112.5Q303.4 111.8 303.4 111.2L303.4 111.2Q303.4 110.3 302.9 109.7Q302.3 109.1 301.4 109.1L301.4 109.1Q300.4 109.1 299.8 109.8Q299.2 110.4 299.2 111.5L299.2 111.5L297.7 111.5Q297.7 109.9 298.7 108.9Q299.8 108.0 301.4 108.0L301.4 108.0Q303.0 108.0 304.0 108.8Q304.9 109.6 304.9 111.0L304.9 111.0Q304.9 112.7 302.7 115.0L302.7 115.0L299.7 118.3L305.4 118.3ZM307.1 118.7L307.1 118.7Q307.1 118.4 307.3 118.1Q307.6 117.9 308 117.9Q308.4 117.9 308.7 118.1Q308.9 118.4 308.9 118.7L308.9 118.7Q308.9 119.1 308.7 119.3Q308.4 119.6 308 119.6Q307.6 119.6 307.3 119.3Q307.1 119.1 307.1 118.7ZM313.0 114.1L311.8 113.8L312.4 108.1L318.2 108.1L318.2 109.4L313.6 109.4L313.3 112.5Q314.1 112.1 315.2 112.1L315.2 112.1Q316.7 112.1 317.6 113.1Q318.5 114.1 318.5 115.9L318.5 115.9Q318.5 117.6 317.6 118.6Q316.6 119.6 314.9 119.6L314.9 119.6Q313.4 119.6 312.5 118.8Q311.5 118.0 311.4 116.5L311.4 116.5L312.8 116.5Q312.9 117.5 313.5 118.0Q314.0 118.5 314.9 118.5L314.9 118.5Q316.0 118.5 316.5 117.8Q317.1 117.1 317.1 115.9L317.1 115.9Q317.1 114.7 316.5 114.0Q315.9 113.4 314.8 113.4L314.8 113.4Q313.9 113.4 313.3 113.8L313.3 113.8L313.0 114.1ZM320 110.8L320 110.3Q320 109.3 320.7 108.6Q321.3 107.9 322.3 107.9L322.3 107.9Q323.4 107.9 324.0 108.6Q324.7 109.3 324.7 110.3L324.7 110.3L324.7 110.9Q324.7 111.9 324.0 112.6Q323.4 113.2 322.3 113.2L322.3 113.2Q321.3 113.2 320.7 112.6Q320 111.9 320 110.8L320 110.8ZM321.1 110.3L321.1 110.9Q321.1 111.5 321.4 111.9Q321.8 112.3 322.3 112.3L322.3 112.3Q322.9 112.3 323.2 111.9Q323.6 111.5 323.6 110.9L323.6 110.9L323.6 110.3Q323.6 109.7 323.2 109.3Q322.9 108.9 322.3 108.9Q321.8 108.9 321.4 109.3Q321.1 109.7 321.1 110.3L321.1 110.3ZM325.5 117.3L325.5 116.7Q325.5 115.7 326.2 115.0Q326.8 114.4 327.9 114.4Q328.9 114.4 329.5 115.0Q330.2 115.7 330.2 116.7L330.2 116.7L330.2 117.3Q330.2 118.3 329.6 119.0Q328.9 119.6 327.9 119.6Q326.9 119.6 326.2 119.0Q325.5 118.3 325.5 117.3L325.5 117.3ZM326.6 116.7L326.6 117.3Q326.6 117.9 327.0 118.3Q327.3 118.7 327.9 118.7L327.9 118.7Q328.4 118.7 328.8 118.3Q329.1 117.9 329.1 117.3L329.1 117.3L329.1 116.7Q329.1 116.1 328.8 115.7Q328.4 115.3 327.9 115.3L327.9 115.3Q327.3 115.3 327.0 115.7Q326.6 116.1 326.6 116.7L326.6 116.7ZM328.2 109.7L322.7 118.6L321.9 118.1L327.4 109.2L328.2 109.7Z "/><mask id="satori_om-id-1-9"><rect x="0" y="133" width="149" height="19" fill="#fff"/></mask><mask id="satori_om-id-1-9-0"><rect x="0" y="134" width="16" height="16" fill="#fff"/></mask><mask id="satori_om-id-1-9-0-0"><rect x="4" y="138" width="8" height="8" fill="#fff"/></mask><path x="4" y="138" width="8" height="8" fill="#f1e05a" d="M8,138 h0 a4,4 0 0 1 4,4 v0 a4,4 0 0 1 -4,4 h0 a4,4 0 0 1 -4,-4 v0 a4,4 0 0 1 4,-4"/><mask id="satori_om-id-1-9-1"><rect x="29" y="133" width="77" height="19" fill="#fff"/></mask><path fill="#fff" d="M34.6 145.0L34.6 137.1L36.9 137.1L36.9 145.0Q36.9 146.1 36.5 146.9Q36.0 147.7 35.1 148.2Q34.2 148.6 33.1 148.6L33.1 148.6Q31.3 148.6 30.3 147.7Q29.3 146.8 29.3 145.1L29.3 145.1L31.7 145.1Q31.7 146.0 32.0 146.4Q32.4 146.8 33.1 146.8L33.1 146.8Q33.8 146.8 34.2 146.3Q34.6 145.8 34.6 145.0L34.6 145.0ZM46.0 148.5L43.7 148.5Q43.5 148.2 43.5 147.7L43.5 147.7Q42.7 148.6 41.3 148.6L41.3 148.6Q40.1 148.6 39.3 147.9Q38.5 147.2 38.5 146.1L38.5 146.1Q38.5 144.8 39.5 144.0Q40.5 143.3 42.3 143.3L42.3 143.3L43.4 143.3L43.4 142.8Q43.4 142.2 43.1 141.9Q42.8 141.5 42.1 141.5L42.1 141.5Q41.6 141.5 41.2 141.8Q40.9 142.1 40.9 142.6L40.9 142.6L38.7 142.6Q38.7 141.8 39.1 141.2Q39.6 140.6 40.4 140.2Q41.2 139.9 42.3 139.9L42.3 139.9Q43.8 139.9 44.7 140.7Q45.6 141.4 45.6 142.9L45.6 142.9L45.6 146.5Q45.7 147.7 46.0 148.4L46.0 148.4L46.0 148.5ZM41.8 146.9L41.8 146.9Q42.3 146.9 42.8 146.7Q43.2 146.5 43.4 146.1L43.4 146.1L43.4 144.6L42.5 144.6Q40.8 144.6 40.7 145.8L40.7 145.8L40.7 145.9Q40.7 146.4 41.0 146.6Q41.3 146.9 41.8 146.9ZM48.9 140.0L50.4 145.7L52 140.0L54.4 140.0L51.5 148.5L49.4 148.5L46.5 140.0L48.9 140.0ZM62.4 148.5L60.1 148.5Q60.0 148.2 59.9 147.7L59.9 147.7Q59.1 148.6 57.8 148.6L57.8 148.6Q56.5 148.6 55.7 147.9Q54.9 147.2 54.9 146.1L54.9 146.1Q54.9 144.8 55.9 144.0Q56.9 143.3 58.8 143.3L58.8 143.3L59.8 143.3L59.8 142.8Q59.8 142.2 59.5 141.9Q59.2 141.5 58.6 141.5L58.6 141.5Q58.0 141.5 57.7 141.8Q57.3 142.1 57.3 142.6L57.3 142.6L55.1 142.6Q55.1 141.8 55.5 141.2Q56.0 140.6 56.8 140.2Q57.6 139.9 58.7 139.9L58.7 139.9Q60.2 139.9 61.2 140.7Q62.1 141.4 62.1 142.9L62.1 142.9L62.1 146.5Q62.1 147.7 62.4 148.4L62.4 148.4L62.4 148.5ZM58.3 146.9L58.3 146.9Q58.8 146.9 59.2 146.7Q59.6 146.5 59.8 146.1L59.8 146.1L59.8 144.6L59.0 144.6Q57.3 144.6 57.2 145.8L57.2 145.8L57.2 145.9Q57.2 146.4 57.5 146.6Q57.8 146.9 58.3 146.9ZM69.9 145.5L69.9 145.5Q69.9 144.8 69.4 144.5Q68.9 144.1 67.7 143.7Q66.5 143.3 65.8 143.0L65.8 143.0Q63.8 141.9 63.8 140.1L63.8 140.1Q63.8 139.2 64.4 138.5Q64.9 137.8 65.8 137.4Q66.8 137.0 68.0 137.0L68.0 137.0Q69.3 137.0 70.2 137.4Q71.2 137.8 71.7 138.6Q72.2 139.4 72.2 140.5L72.2 140.5L69.9 140.5Q69.9 139.7 69.4 139.3Q68.9 138.8 68.0 138.8L68.0 138.8Q67.1 138.8 66.7 139.2Q66.2 139.5 66.2 140.1L66.2 140.1Q66.2 140.7 66.7 141.1Q67.3 141.4 68.4 141.8L68.4 141.8Q70.4 142.4 71.3 143.3Q72.2 144.2 72.2 145.5L72.2 145.5Q72.2 147.0 71.1 147.8Q70.0 148.6 68.1 148.6L68.1 148.6Q66.8 148.6 65.7 148.2Q64.6 147.7 64.1 146.8Q63.5 146.0 63.5 144.9L63.5 144.9L65.8 144.9Q65.8 146.8 68.1 146.8L68.1 146.8Q68.9 146.8 69.4 146.4Q69.9 146.1 69.9 145.5ZM77.2 146.8L77.2 146.8Q77.8 146.8 78.2 146.5Q78.6 146.1 78.6 145.6L78.6 145.6L80.7 145.6Q80.7 146.4 80.2 147.1Q79.8 147.9 79.0 148.2Q78.2 148.6 77.2 148.6L77.2 148.6Q75.4 148.6 74.3 147.5Q73.3 146.3 73.3 144.3L73.3 144.3L73.3 144.2Q73.3 142.2 74.3 141.0Q75.4 139.9 77.2 139.9L77.2 139.9Q78.8 139.9 79.7 140.8Q80.7 141.7 80.7 143.2L80.7 143.2L78.6 143.2Q78.6 142.5 78.2 142.1Q77.8 141.7 77.1 141.7L77.1 141.7Q76.4 141.7 76.0 142.3Q75.6 142.9 75.6 144.1L75.6 144.1L75.6 144.4Q75.6 145.7 76.0 146.2Q76.4 146.8 77.2 146.8ZM86.8 140.0L86.7 142.1Q86.3 142.1 85.9 142.1L85.9 142.1Q84.6 142.1 84.3 143.0L84.3 143.0L84.3 148.5L82.0 148.5L82.0 140.0L84.1 140.0L84.2 141.0Q84.9 139.9 86.1 139.9L86.1 139.9Q86.4 139.9 86.8 140.0L86.8 140.0ZM90.2 140.0L90.2 148.5L87.9 148.5L87.9 140.0L90.2 140.0ZM87.8 137.8L87.8 137.8Q87.8 137.3 88.2 137.0Q88.5 136.7 89.1 136.7L89.1 136.7Q89.7 136.7 90 137.0Q90.3 137.3 90.3 137.8L90.3 137.8Q90.3 138.4 90.0 138.7Q89.6 139.0 89.1 139.0Q88.5 139.0 88.2 138.7Q87.8 138.4 87.8 137.8ZM99.7 144.2L99.7 144.3Q99.7 146.3 98.8 147.5Q97.9 148.6 96.4 148.6L96.4 148.6Q95.1 148.6 94.3 147.7L94.3 147.7L94.3 151.7L92.1 151.7L92.1 140.0L94.2 140.0L94.2 140.9Q95.1 139.9 96.4 139.9L96.4 139.9Q97.9 139.9 98.8 141.0Q99.7 142.2 99.7 144.2L99.7 144.2ZM97.4 144.2L97.4 144.2Q97.4 143.0 97.0 142.4Q96.6 141.7 95.8 141.7L95.8 141.7Q94.7 141.7 94.3 142.5L94.3 142.5L94.3 146.0Q94.7 146.8 95.8 146.8L95.8 146.8Q97.4 146.8 97.4 144.2ZM101.5 138.0L103.8 138.0L103.8 140.0L105.2 140.0L105.2 141.7L103.8 141.7L103.8 145.9Q103.8 146.4 104.0 146.6Q104.1 146.8 104.6 146.8L104.6 146.8Q105.0 146.8 105.3 146.7L105.3 146.7L105.3 148.4Q104.6 148.6 103.9 148.6L103.9 148.6Q101.6 148.6 101.5 146.2L101.5 146.2L101.5 141.7L100.3 141.7L100.3 140.0L101.5 140.0L101.5 138.0Z "/><mask id="satori_om-id-1-9-2"><rect x="115" y="133" width="34" height="19" fill="#fff"/></mask><path fill="#7d8590" d="M123.4 147.3L123.4 148.5L115.9 148.5L115.9 147.4L119.9 143.1Q120.8 142.1 121.1 141.5Q121.4 140.8 121.4 140.2L121.4 140.2Q121.4 139.3 120.9 138.7Q120.3 138.1 119.4 138.1L119.4 138.1Q118.4 138.1 117.8 138.8Q117.2 139.4 117.2 140.5L117.2 140.5L115.7 140.5Q115.7 138.9 116.7 137.9Q117.8 137.0 119.4 137.0L119.4 137.0Q121.0 137.0 122.0 137.8Q122.9 138.6 122.9 140.0L122.9 140.0Q122.9 141.7 120.7 144.0L120.7 144.0L117.7 147.3L123.4 147.3ZM125.1 147.7L125.1 147.7Q125.1 147.4 125.3 147.1Q125.6 146.9 126 146.9Q126.4 146.9 126.7 147.1Q126.9 147.4 126.9 147.7L126.9 147.7Q126.9 148.1 126.7 148.3Q126.4 148.6 126 148.6Q125.6 148.6 125.3 148.3Q125.1 148.1 125.1 147.7ZM131.0 143.1L129.8 142.8L130.4 137.1L136.2 137.1L136.2 138.4L131.6 138.4L131.3 141.5Q132.1 141.1 133.2 141.1L133.2 141.1Q134.7 141.1 135.6 142.1Q136.5 143.1 136.5 144.9L136.5 144.9Q136.5 146.6 135.6 147.6Q134.6 148.6 132.9 148.6L132.9 148.6Q131.4 148.6 130.5 147.8Q129.5 147.0 129.4 145.5L129.4 145.5L130.8 145.5Q130.9 146.5 131.5 147.0Q132.0 147.5 132.9 147.5L132.9 147.5Q134.0 147.5 134.5 146.8Q135.1 146.1 135.1 144.9L135.1 144.9Q135.1 143.7 134.5 143.0Q133.9 142.4 132.8 142.4L132.8 142.4Q131.9 142.4 131.3 142.8L131.3 142.8L131.0 143.1ZM138 139.8L138 139.3Q138 138.3 138.7 137.6Q139.3 136.9 140.3 136.9L140.3 136.9Q141.4 136.9 142.0 137.6Q142.7 138.3 142.7 139.3L142.7 139.3L142.7 139.9Q142.7 140.9 142.0 141.6Q141.4 142.2 140.3 142.2L140.3 142.2Q139.3 142.2 138.7 141.6Q138 140.9 138 139.8L138 139.8ZM139.1 139.3L139.1 139.9Q139.1 140.5 139.4 140.9Q139.8 141.3 140.3 141.3L140.3 141.3Q140.9 141.3 141.2 140.9Q141.6 140.5 141.6 139.9L141.6 139.9L141.6 139.3Q141.6 138.7 141.2 138.3Q140.9 137.9 140.3 137.9Q139.8 137.9 139.4 138.3Q139.1 138.7 139.1 139.3L139.1 139.3ZM143.5 146.3L143.5 145.7Q143.5 144.7 144.2 144.0Q144.8 143.4 145.9 143.4Q146.9 143.4 147.5 144.0Q148.2 144.7 148.2 145.7L148.2 145.7L148.2 146.3Q148.2 147.3 147.6 148.0Q146.9 148.6 145.9 148.6Q144.9 148.6 144.2 148.0Q143.5 147.3 143.5 146.3L143.5 146.3ZM144.6 145.7L144.6 146.3Q144.6 146.9 145.0 147.3Q145.3 147.7 145.9 147.7L145.9 147.7Q146.4 147.7 146.8 147.3Q147.1 146.9 147.1 146.3L147.1 146.3L147.1 145.7Q147.1 145.1 146.8 144.7Q146.4 144.3 145.9 144.3L145.9 144.3Q145.3 144.3 145.0 144.7Q144.6 145.1 144.6 145.7L144.6 145.7ZM146.2 138.7L140.7 147.6L139.9 147.1L145.4 138.2L146.2 138.7Z "/></svg>