<svg width="375" height="200" viewBox="0 0 375 200" xmlns="http://www.w3.org/2000/svg"><mask id="satori_om-id"><rect x="0" y="0" width="375" height="124" fill="#fff"/></mask><clipPath id="satori_cp-id-0"><path x="0" y="0" width="375" height="8" d="M4,0 h367 a4,4 0 0 1 4,4 v0 a4,4 0 0 1 -4,4 h-367 a4,4 0 0 1 -4,-4 v0 a4,4 0 0 1 4,-4"/></clipPath><mask id="satori_om-id-0"><rect x="0" y="0" width="375" height="8" fill="#fff"/></mask><mask id="satori_om-id-0-0"><rect x="0" y="0" width="164" height="8" fill="#fff" mask="url(#satori_om-id-0)"/></mask><rect x="0" y="0" width="164" height="8" fill="#3178c6" clip-path="url(#satori_cp-id-0)" mask="url(#satori_om-id-0)"/><mask id="satori_om-id-0-1"><rect x="164" y="0" width="57" height="8" fill="#fff" mask="url(#satori_om-id-0)"/></mask><rect x="164" y="0" width="57" height="8" fill="#00ADD8" clip-path="url(#satori_cp-id-0)" mask="url(#satori_om-id-0)"/><mask id="satori_om-id-0-2"><rect x="221" y="0" width="40" height="8" fill="#fff" mask="url(#satori_om-id-0)"/></mask><rect x="221" y="0" width="40" height="8" fill="#3572A5" clip-path="url(#satori_cp-id-0)" mask="url(#satori_om-id-0)"/><mask id="satori_om-id-0-3"><rect x="261" y="0" width="31" height="8" fill="#fff" mask="url(#satori_om-id-0)"/></mask><rect x="261" y="0" width="31" height="8" fill="#844FBA" clip-path="url(#satori_cp-id-0)" mask="url(#satori_om-id-0)"/><mask id="satori_om-id-0-4"><rect x="292" y="0" width="18" height="8" fill="#fff" mask="url(#satori_om-id-0)"/></mask><rect x="292" y="0" width="18" height="8" fill="#dea584" clip-path="url(#satori_cp-id-0)" mask="url(#satori_om-id-0)"/><mask id="satori_om-id-0-5"><rect x="310" y="0" width="16" height="8" fill="#fff" mask="url(#satori_om-id-0)"/></mask><rect x="310" y="0" width="16" height="8" fill="#A97BFF" clip-path="url(#satori_cp-id-0)" mask="url(#satori_om-id-0)"/><mask id="satori_om-id-0-6"><rect x="326" y="0" width="17" height="8" fill="#fff" mask="url(#satori_om-id-0)"/></mask><rect x="326" y="0" width="17" height="8" fill="#ff3e00" clip-path="url(#satori_cp-id-0)" mask="url(#satori_om-id-0)"/><mask id="satori_om-id-0-7"><rect x="343" y="0" width="11" height="8" fill="#fff" mask="url(#satori_om-id-0)"/></mask><rect x="343" y="0" width="11" height="8" fill="#f1e05a" clip-path="url(#satori_cp-id-0)" mask="url(#satori_om-id-0)"/><mask id="satori_om-id-0-8"><rect x="354" y="0" width="10" height="8" fill="#fff" mask="url(#satori_om-id-0)"/></mask><rect x="354" y="0" width="10" height="8" fill="#555555" clip-path="url(#satori_cp-id-0)" mask="url(#satori_om-id-0)"/><mask id="satori_om-id-0-9"><rect x="364" y="0" width="4" height="8" fill="#fff" mask="url(#satori_om-id-0)"/></mask><rect x="364" y="0" width="4" height="8" fill="#663399" clip-path="url(#satori_cp-id-0)" mask="url(#satori_om-id-0)"/><mask id="satori_om-id-1"><rect x="0" y="18" width="375" height="106" fill="#fff"/></mask><mask id="satori_om-id-1-0"><rect x="0" y="18" width="160" height="19" fill="#fff"/></mask><mask id="satori_om-id-1-0-0"><rect x="0" y="20" width="16" height="16" fill="#fff"/></mask><mask id="satori_om-id-1-0-0-0"><rect x="4" y="24" width="8" height="8" fill="#fff"/></mask><path x="4" y="24" width="8" height="8" fill="#3178c6" d="M8,24 h0 a4,4 0 0 1 4,4 v0 a4,4 0 0 1 -4,4 h0 a4,4 0 0 1 -4,-4 v0 a4,4 0 0 1 4,-4"/><mask id="satori_om-id-1-0-1"><rect x="29" y="18" width="79" height="19" fill="#fff"/></mask><g  ><path fill="#24292f" d="M38.6 21.6L38.6 23.5L35.1 23.5L35.1 33L32.8 33L32.8 23.5L29.3 23.5L29.3 21.6L38.6 21.6ZM40.7 24.5L42.3 29.8L43.8 24.5L46.3 24.5L42.9 34.3L42.7 34.8Q41.9 36.4 40.2 36.4L40.2 36.4Q39.7 36.4 39.2 36.3L39.2 36.3L39.2 34.6L39.5 34.6Q40.2 34.6 40.5 34.4Q40.8 34.2 41.0 33.7L41.0 33.7L41.2 33.0L38.3 24.5L40.7 24.5ZM54.8 28.7L54.8 28.9Q54.8 30.8 53.9 32.0Q53.0 33.2 51.5 33.2L51.5 33.2Q50.2 33.2 49.4 32.3L49.4 32.3L49.4 36.3L47.2 36.3L47.2 24.5L49.3 24.5L49.3 25.4Q50.1 24.4 51.5 24.4L51.5 24.4Q53.0 24.4 53.9 25.5Q54.8 26.7 54.8 28.7L54.8 28.7ZM52.5 28.7L52.5 28.7Q52.5 27.5 52.1 26.9Q51.7 26.2 50.9 26.2L50.9 26.2Q49.8 26.2 49.4 27.0L49.4 27.0L49.4 30.5Q49.8 31.3 50.9 31.3L50.9 31.3Q52.5 31.3 52.5 28.7ZM60.1 33.2L60.1 33.2Q58.2 33.2 57.0 32.0Q55.9 30.9 55.9 29.0L55.9 29.0L55.9 28.8Q55.9 27.5 56.4 26.5Q56.8 25.5 57.7 24.9Q58.6 24.4 59.8 24.4L59.8 24.4Q61.5 24.4 62.5 25.5Q63.5 26.6 63.5 28.6L63.5 28.6L63.5 29.5L58.1 29.5Q58.3 30.3 58.8 30.8Q59.4 31.3 60.2 31.3L60.2 31.3Q61.5 31.3 62.2 30.4L62.2 30.4L63.4 31.6Q62.8 32.4 62.0 32.8Q61.1 33.2 60.1 33.2ZM59.8 26.2L59.8 26.2Q59.1 26.2 58.7 26.7Q58.3 27.1 58.2 28.0L58.2 28.0L61.3 28.0L61.3 27.8Q61.3 27.0 60.9 26.6Q60.5 26.2 59.8 26.2ZM70.9 30.0L70.9 30.0Q70.9 29.4 70.4 29.0Q69.9 28.6 68.7 28.2Q67.5 27.9 66.8 27.5L66.8 27.5Q64.8 26.4 64.8 24.6L64.8 24.6Q64.8 23.7 65.4 23.0Q65.9 22.3 66.8 21.9Q67.8 21.5 69.0 21.5L69.0 21.5Q70.3 21.5 71.2 21.9Q72.2 22.4 72.7 23.2Q73.2 24.0 73.2 25.0L73.2 25.0L70.9 25.0Q70.9 24.2 70.4 23.8Q69.9 23.3 69.0 23.3L69.0 23.3Q68.1 23.3 67.7 23.7Q67.2 24.1 67.2 24.7L67.2 24.7Q67.2 25.2 67.7 25.6Q68.3 26.0 69.4 26.3L69.4 26.3Q71.4 26.9 72.3 27.8Q73.2 28.7 73.2 30L73.2 30Q73.2 31.5 72.1 32.3Q71.0 33.2 69.1 33.2L69.1 33.2Q67.8 33.2 66.7 32.7Q65.6 32.2 65.1 31.4Q64.5 30.5 64.5 29.4L64.5 29.4L66.8 29.4Q66.8 31.3 69.1 31.3L69.1 31.3Q69.9 31.3 70.4 31.0Q70.9 30.6 70.9 30.0ZM78.2 31.3L78.2 31.3Q78.8 31.3 79.2 31.0Q79.6 30.6 79.6 30.1L79.6 30.1L81.7 30.1Q81.7 30.9 81.2 31.7Q80.8 32.4 80.0 32.8Q79.2 33.2 78.2 33.2L78.2 33.2Q76.4 33.2 75.3 32.0Q74.3 30.9 74.3 28.8L74.3 28.8L74.3 28.7Q74.3 26.7 75.3 25.6Q76.4 24.4 78.2 24.4L78.2 24.4Q79.8 24.4 80.7 25.3Q81.7 26.2 81.7 27.7L81.7 27.7L79.6 27.7Q79.6 27.0 79.2 26.6Q78.8 26.2 78.1 26.2L78.1 26.2Q77.4 26.2 77.0 26.8Q76.6 27.4 76.6 28.7L76.6 28.7L76.6 28.9Q76.6 30.2 77.0 30.8Q77.4 31.3 78.2 31.3ZM87.8 24.5L87.7 26.7Q87.3 26.6 86.9 26.6L86.9 26.6Q85.6 26.6 85.3 27.5L85.3 27.5L85.3 33L83.0 33L83.0 24.5L85.1 24.5L85.2 25.6Q85.9 24.4 87.1 24.4L87.1 24.4Q87.4 24.4 87.8 24.5L87.8 24.5ZM91.2 24.5L91.2 33L88.9 33L88.9 24.5L91.2 24.5ZM88.8 22.4L88.8 22.4Q88.8 21.9 89.2 21.5Q89.5 21.2 90.1 21.2L90.1 21.2Q90.7 21.2 91 21.5Q91.3 21.9 91.3 22.4L91.3 22.4Q91.3 22.9 91.0 23.2Q90.6 23.5 90.1 23.5Q89.5 23.5 89.2 23.2Q88.8 22.9 88.8 22.4ZM100.7 28.7L100.7 28.9Q100.7 30.8 99.8 32.0Q98.9 33.2 97.4 33.2L97.4 33.2Q96.1 33.2 95.3 32.3L95.3 32.3L95.3 36.3L93.1 36.3L93.1 24.5L95.2 24.5L95.2 25.4Q96.1 24.4 97.4 24.4L97.4 24.4Q98.9 24.4 99.8 25.5Q100.7 26.7 100.7 28.7L100.7 28.7ZM98.4 28.7L98.4 28.7Q98.4 27.5 98.0 26.9Q97.6 26.2 96.8 26.2L96.8 26.2Q95.7 26.2 95.3 27.0L95.3 27.0L95.3 30.5Q95.7 31.3 96.8 31.3L96.8 31.3Q98.4 31.3 98.4 28.7ZM102.5 22.5L104.8 22.5L104.8 24.5L106.2 24.5L106.2 26.2L104.8 26.2L104.8 30.4Q104.8 30.9 105.0 31.1Q105.1 31.3 105.6 31.3L105.6 31.3Q106.0 31.3 106.3 31.2L106.3 31.2L106.3 33.0Q105.6 33.2 104.9 33.2L104.9 33.2Q102.6 33.2 102.5 30.8L102.5 30.8L102.5 26.2L101.3 26.2L101.3 24.5L102.5 24.5L102.5 22.5Z "/></g><mask id="satori_om-id-1-0-2"><rect x="117" y="18" width="43" height="19" fill="#fff"/></mask><g  ><path fill="#57606a" d="M124.0 21.6L124.0 29.2L125.6 29.2L125.6 30.4L124.0 30.4L124.0 33L122.6 33L122.6 30.4L117.4 30.4L117.4 29.5L122.5 21.6L124.0 21.6ZM122.4 23.9L119.1 29.2L122.6 29.2L122.6 23.6L122.4 23.9ZM129.0 27.8L129.0 26.6L130.1 26.6Q131.1 26.6 131.7 26.1Q132.3 25.5 132.3 24.7L132.3 24.7Q132.3 22.7 130.3 22.7L130.3 22.7Q129.4 22.7 128.8 23.2Q128.3 23.7 128.3 24.6L128.3 24.6L126.8 24.6Q126.8 23.3 127.8 22.4Q128.8 21.5 130.3 21.5L130.3 21.5Q131.9 21.5 132.8 22.3Q133.8 23.2 133.8 24.7L133.8 24.7Q133.8 25.4 133.3 26.1Q132.8 26.8 132.0 27.2L132.0 27.2Q132.9 27.5 133.4 28.1Q133.9 28.8 133.9 29.8L133.9 29.8Q133.9 31.4 132.9 32.3Q131.9 33.2 130.3 33.2Q128.7 33.2 127.7 32.3Q126.7 31.4 126.7 30L126.7 30L128.2 30Q128.2 30.9 128.8 31.4Q129.3 32.0 130.3 32.0L130.3 32.0Q131.4 32.0 131.9 31.4Q132.5 30.9 132.5 29.9L132.5 29.9Q132.5 28.9 131.9 28.3Q131.3 27.8 130.1 27.8L130.1 27.8L129.0 27.8ZM136.1 32.2L136.1 32.2Q136.1 31.9 136.3 31.6Q136.5 31.4 137.0 31.4Q137.4 31.4 137.7 31.6Q137.9 31.9 137.9 32.2L137.9 32.2Q137.9 32.6 137.7 32.8Q137.4 33.1 137.0 33.1Q136.5 33.1 136.3 32.8Q136.1 32.6 136.1 32.2ZM145.7 28L145.7 28Q145.2 28.5 144.6 28.9Q144.0 29.2 143.2 29.2L143.2 29.2Q142.2 29.2 141.5 28.7Q140.8 28.2 140.4 27.3Q140.0 26.5 140.0 25.4L140.0 25.4Q140.0 24.3 140.4 23.4Q140.8 22.4 141.6 22.0Q142.4 21.5 143.5 21.5L143.5 21.5Q145.2 21.5 146.1 22.7Q147.1 24.0 147.1 26.2L147.1 26.2L147.1 26.6Q147.1 29.9 145.8 31.4Q144.5 33.0 141.8 33.0L141.8 33.0L141.6 33.0L141.6 31.8L141.9 31.8Q143.7 31.8 144.6 30.9Q145.6 30.0 145.7 28ZM143.4 28L143.4 28Q144.2 28 144.8 27.6Q145.4 27.1 145.7 26.5L145.7 26.5L145.7 25.9Q145.7 24.5 145.1 23.6Q144.4 22.7 143.5 22.7L143.5 22.7Q142.5 22.7 142.0 23.4Q141.4 24.1 141.4 25.3L141.4 25.3Q141.4 26.5 141.9 27.2Q142.5 28 143.4 28ZM149.0 24.4L149.0 23.8Q149.0 22.8 149.6 22.1Q150.3 21.5 151.3 21.5L151.3 21.5Q152.4 21.5 153.0 22.1Q153.6 22.8 153.6 23.9L153.6 23.9L153.6 24.4Q153.6 25.4 153.0 26.1Q152.3 26.8 151.3 26.8L151.3 26.8Q150.3 26.8 149.6 26.1Q149.0 25.4 149.0 24.4L149.0 24.4ZM150.1 23.8L150.1 24.4Q150.1 25.0 150.4 25.4Q150.8 25.8 151.3 25.8L151.3 25.8Q151.9 25.8 152.2 25.4Q152.6 25.0 152.6 24.4L152.6 24.4L152.6 23.8Q152.6 23.2 152.2 22.8Q151.9 22.4 151.3 22.4Q150.7 22.4 150.4 22.8Q150.1 23.2 150.1 23.8L150.1 23.8ZM154.5 30.8L154.5 30.2Q154.5 29.2 155.2 28.5Q155.8 27.9 156.9 27.9Q157.9 27.9 158.5 28.5Q159.2 29.2 159.2 30.3L159.2 30.3L159.2 30.8Q159.2 31.8 158.5 32.5Q157.9 33.2 156.9 33.2Q155.9 33.2 155.2 32.5Q154.5 31.9 154.5 30.8L154.5 30.8ZM155.6 30.2L155.6 30.8Q155.6 31.4 155.9 31.8Q156.3 32.2 156.9 32.2L156.9 32.2Q157.4 32.2 157.8 31.8Q158.1 31.5 158.1 30.8L158.1 30.8L158.1 30.2Q158.1 29.6 157.8 29.2Q157.4 28.8 156.9 28.8L156.9 28.8Q156.3 28.8 155.9 29.2Q155.6 29.6 155.6 30.2L155.6 30.2ZM157.2 23.3L151.7 32.1L150.8 31.6L156.4 22.7L157.2 23.3Z "/></g><mask id="satori_om-id-1-1"><rect x="170" y="18" width="101" height="19" fill="#fff"/></mask><mask id="satori_om-id-1-1-0"><rect x="170" y="20" width="16" height="16" fill="#fff"/></mask><mask id="satori_om-id-1-1-0-0"><rect x="174" y="24" width="8" height="8" fill="#fff"/></mask><path x="174" y="24" width="8" height="8" fill="#00ADD8" d="M178,24 h0 a4,4 0 0 1 4,4 v0 a4,4 0 0 1 -4,4 h0 a4,4 0 0 1 -4,-4 v0 a4,4 0 0 1 4,-4"/><mask id="satori_om-id-1-1-1"><rect x="199" y="18" width="20" height="19" fill="#fff"/></mask><g  ><path fill="#24292f" d="M209.0 27.0L209.0 31.6Q208.4 32.3 207.2 32.7Q206.1 33.2 204.7 33.2L204.7 33.2Q203.2 33.2 202.1 32.5Q201.0 31.9 200.4 30.6Q199.8 29.4 199.7 27.8L199.7 27.8L199.7 27.0Q199.7 25.3 200.3 24.0Q200.9 22.8 202.0 22.1Q203.0 21.5 204.5 21.5L204.5 21.5Q206.5 21.5 207.7 22.4Q208.8 23.4 209.0 25.2L209.0 25.2L206.7 25.2Q206.6 24.3 206.0 23.8Q205.5 23.4 204.6 23.4L204.6 23.4Q203.4 23.4 202.8 24.3Q202.1 25.2 202.1 26.9L202.1 26.9L202.1 27.7Q202.1 29.4 202.8 30.4Q203.5 31.3 204.8 31.3L204.8 31.3Q206.1 31.3 206.7 30.7L206.7 30.7L206.7 28.8L204.5 28.8L204.5 27.0L209.0 27.0ZM210.4 28.8L210.4 28.7Q210.4 27.4 210.9 26.5Q211.4 25.5 212.3 24.9Q213.2 24.4 214.4 24.4L214.4 24.4Q216.1 24.4 217.2 25.4Q218.3 26.5 218.4 28.3L218.4 28.3L218.4 28.9Q218.4 30.8 217.3 32.0Q216.3 33.2 214.4 33.2Q212.6 33.2 211.5 32.0Q210.4 30.8 210.4 28.8L210.4 28.8ZM212.7 28.9L212.7 28.9Q212.7 30.1 213.1 30.7Q213.6 31.3 214.4 31.3L214.4 31.3Q215.2 31.3 215.7 30.7Q216.2 30.1 216.2 28.7L216.2 28.7Q216.2 27.5 215.7 26.9Q215.2 26.2 214.4 26.2L214.4 26.2Q213.6 26.2 213.1 26.9Q212.7 27.5 212.7 28.9Z "/></g><mask id="satori_om-id-1-1-2"><rect x="228" y="18" width="43" height="19" fill="#fff"/></mask><g  ><path fill="#57606a" d="M233.7 21.6L233.7 33L232.2 33L232.2 23.4L229.3 24.4L229.3 23.1L233.5 21.6L233.7 21.6ZM239.8 27.6L238.6 27.3L239.2 21.6L245 21.6L245 23.0L240.4 23.0L240.1 26.1Q240.9 25.6 242.0 25.6L242.0 25.6Q243.5 25.6 244.4 26.6Q245.3 27.6 245.3 29.4L245.3 29.4Q245.3 31.1 244.4 32.1Q243.4 33.2 241.7 33.2L241.7 33.2Q240.2 33.2 239.3 32.3Q238.3 31.5 238.2 30.0L238.2 30.0L239.6 30.0Q239.7 31.0 240.3 31.5Q240.8 32.0 241.7 32.0L241.7 32.0Q242.7 32.0 243.3 31.3Q243.9 30.6 243.9 29.4L243.9 29.4Q243.9 28.3 243.3 27.6Q242.6 26.9 241.6 26.9L241.6 26.9Q240.7 26.9 240.1 27.3L240.1 27.3L239.8 27.6ZM247.1 32.2L247.1 32.2Q247.1 31.9 247.3 31.6Q247.5 31.4 248.0 31.4Q248.4 31.4 248.7 31.6Q248.9 31.9 248.9 32.2L248.9 32.2Q248.9 32.6 248.7 32.8Q248.4 33.1 248.0 33.1Q247.5 33.1 247.3 32.8Q247.1 32.6 247.1 32.2ZM258.6 31.8L258.6 33L251.1 33L251.1 32.0L255.1 27.6Q255.9 26.6 256.3 26.0Q256.6 25.4 256.6 24.7L256.6 24.7Q256.6 23.8 256.1 23.2Q255.5 22.7 254.6 22.7L254.6 22.7Q253.5 22.7 252.9 23.3Q252.4 23.9 252.4 25.0L252.4 25.0L250.9 25.0Q250.9 23.4 251.9 22.4Q252.9 21.5 254.6 21.5L254.6 21.5Q256.2 21.5 257.1 22.3Q258.1 23.1 258.1 24.5L258.1 24.5Q258.1 26.2 255.9 28.5L255.9 28.5L252.9 31.8L258.6 31.8ZM260.0 24.4L260.0 23.8Q260.0 22.8 260.6 22.1Q261.3 21.5 262.3 21.5L262.3 21.5Q263.4 21.5 264.0 22.1Q264.6 22.8 264.6 23.9L264.6 23.9L264.6 24.4Q264.6 25.4 264.0 26.1Q263.3 26.8 262.3 26.8L262.3 26.8Q261.3 26.8 260.6 26.1Q260.0 25.4 260.0 24.4L260.0 24.4ZM261.1 23.8L261.1 24.4Q261.1 25.0 261.4 25.4Q261.8 25.8 262.3 25.8L262.3 25.8Q262.9 25.8 263.2 25.4Q263.6 25.0 263.6 24.4L263.6 24.4L263.6 23.8Q263.6 23.2 263.2 22.8Q262.9 22.4 262.3 22.4Q261.7 22.4 261.4 22.8Q261.1 23.2 261.1 23.8L261.1 23.8ZM265.5 30.8L265.5 30.2Q265.5 29.2 266.2 28.5Q266.8 27.9 267.9 27.9Q268.9 27.9 269.5 28.5Q270.2 29.2 270.2 30.3L270.2 30.3L270.2 30.8Q270.2 31.8 269.5 32.5Q268.9 33.2 267.9 33.2Q266.9 33.2 266.2 32.5Q265.5 31.9 265.5 30.8L265.5 30.8ZM266.6 30.2L266.6 30.8Q266.6 31.4 266.9 31.8Q267.3 32.2 267.9 32.2L267.9 32.2Q268.4 32.2 268.8 31.8Q269.1 31.5 269.1 30.8L269.1 30.8L269.1 30.2Q269.1 29.6 268.8 29.2Q268.4 28.8 267.9 28.8L267.9 28.8Q267.3 28.8 266.9 29.2Q266.6 29.6 266.6 30.2L266.6 30.2ZM268.2 23.3L262.7 32.1L261.8 31.6L267.4 22.7L268.2 23.3Z "/></g><mask id="satori_om-id-1-2"><rect x="0" y="47" width="132" height="19" fill="#fff"/></mask><mask id="satori_om-id-1-2-0"><rect x="0" y="49" width="16" height="16" fill="#fff"/></mask><mask id="satori_om-id-1-2-0-0"><rect x="4" y="53" width="8" height="8" fill="#fff"/></mask><path x="4" y="53" width="8" height="8" fill="#3572A5" d="M8,53 h0 a4,4 0 0 1 4,4 v0 a4,4 0 0 1 -4,4 h0 a4,4 0 0 1 -4,-4 v0 a4,4 0 0 1 4,-4"/><mask id="satori_om-id-1-2-1"><rect x="29" y="47" width="51" height="19" fill="#fff"/></mask><g  ><path fill="#24292f" d="M34.4 58.0L32.4 58.0L32.4 62L30.0 62L30.0 50.6L34.5 50.6Q35.7 50.6 36.7 51.1Q37.7 51.6 38.2 52.4Q38.7 53.3 38.7 54.4L38.7 54.4Q38.7 56.1 37.6 57.0Q36.4 58.0 34.4 58.0L34.4 58.0ZM32.4 52.5L32.4 56.1L34.5 56.1Q35.4 56.1 35.9 55.7Q36.4 55.2 36.4 54.4L36.4 54.4Q36.4 53.6 35.9 53.1Q35.4 52.5 34.5 52.5L34.5 52.5L32.4 52.5ZM41.9 53.5L43.5 58.8L45.0 53.5L47.4 53.5L44.0 63.3L43.9 63.8Q43.1 65.4 41.4 65.4L41.4 65.4Q40.9 65.4 40.4 65.3L40.4 65.3L40.4 63.6L40.7 63.6Q41.3 63.6 41.7 63.4Q42.0 63.2 42.2 62.7L42.2 62.7L42.4 62.0L39.5 53.5L41.9 53.5ZM48.8 51.5L51.0 51.5L51.0 53.5L52.5 53.5L52.5 55.2L51.0 55.2L51.0 59.4Q51.0 59.9 51.2 60.1Q51.4 60.3 51.9 60.3L51.9 60.3Q52.3 60.3 52.6 60.2L52.6 60.2L52.6 62.0Q51.9 62.2 51.2 62.2L51.2 62.2Q48.8 62.2 48.8 59.8L48.8 59.8L48.8 55.2L47.5 55.2L47.5 53.5L48.8 53.5L48.8 51.5ZM55.9 50L55.9 54.5Q56.8 53.4 58.2 53.4L58.2 53.4Q61.0 53.4 61.0 56.6L61.0 56.6L61.0 62L58.7 62L58.7 56.6Q58.7 55.9 58.4 55.6Q58.1 55.2 57.4 55.2L57.4 55.2Q56.4 55.2 55.9 56.0L55.9 56.0L55.9 62L53.7 62L53.7 50L55.9 50ZM62.3 57.8L62.3 57.7Q62.3 56.4 62.8 55.5Q63.3 54.5 64.2 53.9Q65.1 53.4 66.3 53.4L66.3 53.4Q68.0 53.4 69.1 54.4Q70.2 55.5 70.3 57.3L70.3 57.3L70.4 57.9Q70.4 59.8 69.3 61.0Q68.2 62.2 66.4 62.2Q64.5 62.2 63.4 61.0Q62.3 59.8 62.3 57.8L62.3 57.8ZM64.6 57.9L64.6 57.9Q64.6 59.1 65.1 59.7Q65.5 60.3 66.4 60.3L66.4 60.3Q67.2 60.3 67.6 59.7Q68.1 59.1 68.1 57.7L68.1 57.7Q68.1 56.5 67.6 55.9Q67.2 55.2 66.3 55.2L66.3 55.2Q65.5 55.2 65.1 55.9Q64.6 56.5 64.6 57.9ZM71.7 53.5L73.8 53.5L73.9 54.5Q74.8 53.4 76.3 53.4L76.3 53.4Q77.7 53.4 78.3 54.2Q79.0 55.0 79.0 56.5L79.0 56.5L79.0 62L76.7 62L76.7 56.6Q76.7 55.9 76.4 55.6Q76.1 55.2 75.4 55.2L75.4 55.2Q74.4 55.2 74.0 56.0L74.0 56.0L74.0 62L71.7 62L71.7 53.5Z "/></g><mask id="satori_om-id-1-2-2"><rect x="89" y="47" width="43" height="19" fill="#fff"/></mask><g  ><path fill="#57606a" d="M94.7 50.6L94.7 62L93.2 62L93.2 52.4L90.3 53.4L90.3 52.1L94.5 50.6L94.7 50.6ZM106.1 55.3L106.1 57.1Q106.1 59.7 105.2 60.9Q104.3 62.2 102.5 62.2L102.5 62.2Q100.7 62.2 99.8 60.9Q98.9 59.7 98.9 57.3L98.9 57.3L98.9 55.4Q98.9 52.9 99.8 51.7Q100.6 50.5 102.5 50.5L102.5 50.5Q104.3 50.5 105.2 51.6Q106.0 52.8 106.1 55.3L106.1 55.3ZM104.6 57.5L104.6 55.2Q104.6 53.3 104.1 52.5Q103.6 51.7 102.5 51.7L102.5 51.7Q101.4 51.7 100.9 52.5Q100.3 53.3 100.3 55.1L100.3 55.1L100.3 57.4Q100.3 59.2 100.9 60.1Q101.4 61.0 102.5 61.0L102.5 61.0Q103.6 61.0 104.1 60.1Q104.6 59.3 104.6 57.5L104.6 57.5ZM108.1 61.2L108.1 61.2Q108.1 60.9 108.3 60.6Q108.5 60.4 109.0 60.4Q109.4 60.4 109.7 60.6Q109.9 60.9 109.9 61.2L109.9 61.2Q109.9 61.6 109.7 61.8Q109.4 62.1 109.0 62.1Q108.5 62.1 108.3 61.8Q108.1 61.6 108.1 61.2ZM117.5 50.6L117.8 50.6L117.8 51.8L117.5 51.8Q115.8 51.9 114.8 52.8Q113.8 53.8 113.7 55.6L113.7 55.6Q114.6 54.5 116.1 54.5L116.1 54.5Q117.6 54.5 118.5 55.6Q119.4 56.6 119.4 58.3L119.4 58.3Q119.4 60.0 118.4 61.1Q117.5 62.2 115.9 62.2L115.9 62.2Q114.2 62.2 113.2 60.9Q112.2 59.6 112.2 57.7L112.2 57.7L112.2 57.1Q112.2 54.0 113.6 52.3Q114.9 50.7 117.5 50.6L117.5 50.6ZM115.9 55.7L115.9 55.7Q115.2 55.7 114.5 56.2Q113.9 56.6 113.7 57.3L113.7 57.3L113.7 57.8Q113.7 59.2 114.3 60.1Q114.9 61.0 115.9 61.0L115.9 61.0Q116.9 61.0 117.4 60.2Q118.0 59.5 118.0 58.4L118.0 58.4Q118.0 57.2 117.4 56.5Q116.8 55.7 115.9 55.7ZM121.0 53.4L121.0 52.8Q121.0 51.8 121.6 51.1Q122.3 50.5 123.3 50.5L123.3 50.5Q124.4 50.5 125.0 51.1Q125.6 51.8 125.6 52.9L125.6 52.9L125.6 53.4Q125.6 54.4 125.0 55.1Q124.3 55.8 123.3 55.8L123.3 55.8Q122.3 55.8 121.6 55.1Q121.0 54.4 121.0 53.4L121.0 53.4ZM122.1 52.8L122.1 53.4Q122.1 54.0 122.4 54.4Q122.8 54.8 123.3 54.8L123.3 54.8Q123.9 54.8 124.2 54.4Q124.6 54.0 124.6 53.4L124.6 53.4L124.6 52.8Q124.6 52.2 124.2 51.8Q123.9 51.4 123.3 51.4Q122.7 51.4 122.4 51.8Q122.1 52.2 122.1 52.8L122.1 52.8ZM126.5 59.8L126.5 59.2Q126.5 58.2 127.2 57.5Q127.8 56.9 128.9 56.9Q129.9 56.9 130.5 57.5Q131.2 58.2 131.2 59.3L131.2 59.3L131.2 59.8Q131.2 60.8 130.5 61.5Q129.9 62.2 128.9 62.2Q127.9 62.2 127.2 61.5Q126.5 60.9 126.5 59.8L126.5 59.8ZM127.6 59.2L127.6 59.8Q127.6 60.4 127.9 60.8Q128.3 61.2 128.9 61.2L128.9 61.2Q129.4 61.2 129.8 60.8Q130.1 60.5 130.1 59.8L130.1 59.8L130.1 59.2Q130.1 58.6 129.8 58.2Q129.4 57.8 128.9 57.8L128.9 57.8Q128.3 57.8 127.9 58.2Q127.6 58.6 127.6 59.2L127.6 59.2ZM129.2 52.3L123.7 61.1L122.8 60.6L128.4 51.7L129.2 52.3Z "/></g><mask id="satori_om-id-1-3"><rect x="142" y="47" width="103" height="19" fill="#fff"/></mask><mask id="satori_om-id-1-3-0"><rect x="142" y="49" width="16" height="16" fill="#fff"/></mask><mask id="satori_om-id-1-3-0-0"><rect x="146" y="53" width="8" height="8" fill="#fff"/></mask><path x="146" y="53" width="8" height="8" fill="#844FBA" d="M150,53 h0 a4,4 0 0 1 4,4 v0 a4,4 0 0 1 -4,4 h0 a4,4 0 0 1 -4,-4 v0 a4,4 0 0 1 4,-4"/><mask id="satori_om-id-1-3-1"><rect x="171" y="47" width="31" height="19" fill="#fff"/></mask><g  ><path fill="#24292f" d="M181.3 50.6L181.3 62L178.9 62L178.9 57.1L174.4 57.1L174.4 62L172.0 62L172.0 50.6L174.4 50.6L174.4 55.2L178.9 55.2L178.9 50.6L181.3 50.6ZM189.9 58.2L192.3 58.2Q192.1 60.0 190.9 61.1Q189.7 62.2 187.7 62.2L187.7 62.2Q185.5 62.2 184.2 60.7Q183.0 59.2 183.0 56.6L183.0 56.6L183.0 55.9Q183.0 54.3 183.6 53.1Q184.1 51.8 185.2 51.1Q186.3 50.5 187.7 50.5L187.7 50.5Q189.7 50.5 190.9 51.5Q192.1 52.6 192.3 54.5L192.3 54.5L189.9 54.5Q189.8 53.4 189.3 52.9Q188.8 52.4 187.7 52.4L187.7 52.4Q186.5 52.4 185.9 53.2Q185.4 54.1 185.4 55.8L185.4 55.8L185.4 56.7Q185.4 58.5 185.9 59.4Q186.5 60.2 187.7 60.2L187.7 60.2Q188.8 60.2 189.3 59.7Q189.8 59.3 189.9 58.2L189.9 58.2ZM196.1 50.6L196.1 60.1L201.1 60.1L201.1 62L193.8 62L193.8 50.6L196.1 50.6Z "/></g><mask id="satori_om-id-1-3-2"><rect x="211" y="47" width="34" height="19" fill="#fff"/></mask><g  ><path fill="#57606a" d="M218.8 53.6L218.8 53.6Q218.8 54.4 218.4 55.1Q217.9 55.8 217.2 56.1L217.2 56.1Q218.1 56.5 218.6 57.3Q219.1 58 219.1 58.9L219.1 58.9Q219.1 60.4 218.1 61.3Q217.1 62.2 215.5 62.2L215.5 62.2Q213.9 62.2 212.9 61.3Q211.9 60.4 211.9 58.9L211.9 58.9Q211.9 58.0 212.4 57.3Q212.9 56.5 213.8 56.1L213.8 56.1Q213.0 55.8 212.6 55.1Q212.1 54.4 212.1 53.6L212.1 53.6Q212.1 52.2 213.1 51.3Q214.0 50.5 215.5 50.5L215.5 50.5Q217.0 50.5 217.9 51.3Q218.8 52.2 218.8 53.6ZM217.7 58.9L217.7 58.9Q217.7 57.9 217.1 57.3Q216.5 56.7 215.5 56.7Q214.5 56.7 213.9 57.3Q213.3 57.9 213.3 58.9Q213.3 59.9 213.9 60.4Q214.5 61.0 215.5 61.0L215.5 61.0Q216.5 61.0 217.1 60.4Q217.7 59.9 217.7 58.9ZM215.5 51.7L215.5 51.7Q214.6 51.7 214.1 52.2Q213.6 52.7 213.6 53.6L213.6 53.6Q213.6 54.5 214.1 55.0Q214.6 55.6 215.5 55.6Q216.4 55.6 216.9 55.0Q217.4 54.5 217.4 53.6Q217.4 52.8 216.9 52.2Q216.3 51.7 215.5 51.7ZM221.1 61.2L221.1 61.2Q221.1 60.9 221.3 60.6Q221.6 60.4 222 60.4Q222.4 60.4 222.7 60.6Q222.9 60.9 222.9 61.2L222.9 61.2Q222.9 61.6 222.7 61.8Q222.4 62.1 222 62.1Q221.6 62.1 221.3 61.8Q221.1 61.6 221.1 61.2ZM232.6 60.8L232.6 62L225.1 62L225.1 61.0L229.1 56.6Q230.0 55.6 230.3 55.0Q230.6 54.4 230.6 53.7L230.6 53.7Q230.6 52.8 230.1 52.2Q229.5 51.7 228.6 51.7L228.6 51.7Q227.6 51.7 227.0 52.3Q226.4 52.9 226.4 54.0L226.4 54.0L224.9 54.0Q224.9 52.4 225.9 51.4Q226.9 50.5 228.6 50.5L228.6 50.5Q230.2 50.5 231.1 51.3Q232.1 52.1 232.1 53.5L232.1 53.5Q232.1 55.2 229.9 57.5L229.9 57.5L226.9 60.8L232.6 60.8ZM234 53.4L234 52.8Q234 51.8 234.7 51.1Q235.3 50.5 236.3 50.5L236.3 50.5Q237.4 50.5 238.0 51.1Q238.7 51.8 238.7 52.9L238.7 52.9L238.7 53.4Q238.7 54.4 238.0 55.1Q237.4 55.8 236.3 55.8L236.3 55.8Q235.3 55.8 234.7 55.1Q234 54.4 234 53.4L234 53.4ZM235.1 52.8L235.1 53.4Q235.1 54.0 235.4 54.4Q235.8 54.8 236.3 54.8L236.3 54.8Q236.9 54.8 237.2 54.4Q237.6 54.0 237.6 53.4L237.6 53.4L237.6 52.8Q237.6 52.2 237.2 51.8Q236.9 51.4 236.3 51.4Q235.8 51.4 235.4 51.8Q235.1 52.2 235.1 52.8L235.1 52.8ZM239.5 59.8L239.5 59.2Q239.5 58.2 240.2 57.5Q240.8 56.9 241.9 56.9Q242.9 56.9 243.5 57.5Q244.2 58.2 244.2 59.3L244.2 59.3L244.2 59.8Q244.2 60.8 243.6 61.5Q242.9 62.2 241.9 62.2Q240.9 62.2 240.2 61.5Q239.5 60.9 239.5 59.8L239.5 59.8ZM240.6 59.2L240.6 59.8Q240.6 60.4 241.0 60.8Q241.3 61.2 241.9 61.2L241.9 61.2Q242.4 61.2 242.8 60.8Q243.1 60.5 243.1 59.8L243.1 59.8L243.1 59.2Q243.1 58.6 242.8 58.2Q242.4 57.8 241.9 57.8L241.9 57.8Q241.3 57.8 241.0 58.2Q240.6 58.6 240.6 59.2L240.6 59.2ZM242.2 52.3L236.7 61.1L235.9 60.6L241.4 51.7L242.2 52.3Z "/></g><mask id="satori_om-id-1-4"><rect x="255" y="47" width="105" height="19" fill="#fff"/></mask><mask id="satori_om-id-1-4-0"><rect x="255" y="49" width="16" height="16" fill="#fff"/></mask><mask id="satori_om-id-1-4-0-0"><rect x="259" y="53" width="8" height="8" fill="#fff"/></mask><path x="259" y="53" width="8" height="8" fill="#dea584" d="M263,53 h0 a4,4 0 0 1 4,4 v0 a4,4 0 0 1 -4,4 h0 a4,4 0 0 1 -4,-4 v0 a4,4 0 0 1 4,-4"/><mask id="satori_om-id-1-4-1"><rect x="284" y="47" width="33" height="19" fill="#fff"/></mask><g  ><path fill="#24292f" d="M291.4 62L289.2 57.8L287.4 57.8L287.4 62L285.0 62L285.0 50.6L289.2 50.6Q291.3 50.6 292.4 51.5Q293.4 52.4 293.4 54.1L293.4 54.1Q293.4 55.2 292.9 56.0Q292.4 56.8 291.4 57.2L291.4 57.2L293.9 61.9L293.9 62L291.4 62ZM287.4 52.5L287.4 55.9L289.3 55.9Q290.1 55.9 290.6 55.5Q291.1 55.0 291.1 54.3L291.1 54.3Q291.1 53.4 290.6 53.0Q290.2 52.5 289.2 52.5L289.2 52.5L287.4 52.5ZM300.2 62L300.1 61.1Q299.3 62.2 297.8 62.2L297.8 62.2Q296.5 62.2 295.8 61.4Q295.0 60.6 295.0 59.1L295.0 59.1L295.0 53.5L297.3 53.5L297.3 59.0Q297.3 60.3 298.5 60.3L298.5 60.3Q299.6 60.3 300.1 59.5L300.1 59.5L300.1 53.5L302.3 53.5L302.3 62L300.2 62ZM308.6 59.7L308.6 59.7Q308.6 59.3 308.2 59.0Q307.8 58.8 306.9 58.6L306.9 58.6Q303.9 58.0 303.9 56.0L303.9 56.0Q303.9 54.9 304.8 54.1Q305.7 53.4 307.2 53.4L307.2 53.4Q308.9 53.4 309.8 54.1Q310.8 54.9 310.8 56.1L310.8 56.1L308.5 56.1Q308.5 55.6 308.2 55.3Q307.9 55 307.2 55L307.2 55Q306.7 55 306.4 55.3Q306.0 55.5 306.0 55.9L306.0 55.9Q306.0 56.3 306.4 56.5Q306.8 56.8 307.6 56.9Q308.4 57.1 309.0 57.3L309.0 57.3Q310.8 58.0 310.8 59.6L310.8 59.6Q310.8 60.7 309.8 61.4Q308.8 62.2 307.3 62.2L307.3 62.2Q306.2 62.2 305.4 61.8Q304.5 61.4 304.1 60.7Q303.6 60.1 303.6 59.3L303.6 59.3L305.7 59.3Q305.8 59.9 306.2 60.2Q306.6 60.6 307.3 60.6L307.3 60.6Q307.9 60.6 308.3 60.3Q308.6 60.1 308.6 59.7ZM312.7 51.5L315.0 51.5L315.0 53.5L316.4 53.5L316.4 55.2L315.0 55.2L315.0 59.4Q315.0 59.9 315.1 60.1Q315.3 60.3 315.8 60.3L315.8 60.3Q316.2 60.3 316.5 60.2L316.5 60.2L316.5 62.0Q315.8 62.2 315.1 62.2L315.1 62.2Q312.8 62.2 312.7 59.8L312.7 59.8L312.7 55.2L311.5 55.2L311.5 53.5L312.7 53.5L312.7 51.5Z "/></g><mask id="satori_om-id-1-4-2"><rect x="326" y="47" width="34" height="19" fill="#fff"/></mask><g  ><path fill="#57606a" d="M333.0 50.6L333.0 58.2L334.6 58.2L334.6 59.4L333.0 59.4L333.0 62L331.6 62L331.6 59.4L326.4 59.4L326.4 58.5L331.5 50.6L333.0 50.6ZM331.4 52.9L328.1 58.2L331.6 58.2L331.6 52.6L331.4 52.9ZM336.1 61.2L336.1 61.2Q336.1 60.9 336.3 60.6Q336.6 60.4 337 60.4Q337.4 60.4 337.7 60.6Q337.9 60.9 337.9 61.2L337.9 61.2Q337.9 61.6 337.7 61.8Q337.4 62.1 337 62.1Q336.6 62.1 336.3 61.8Q336.1 61.6 336.1 61.2ZM347.0 53.6L347.0 53.6Q347.0 54.4 346.6 55.1Q346.1 55.8 345.4 56.1L345.4 56.1Q346.3 56.5 346.8 57.3Q347.3 58 347.3 58.9L347.3 58.9Q347.3 60.4 346.3 61.3Q345.3 62.2 343.7 62.2L343.7 62.2Q342.0 62.2 341.1 61.3Q340.1 60.4 340.1 58.9L340.1 58.9Q340.1 58.0 340.6 57.3Q341.1 56.5 342.0 56.1L342.0 56.1Q341.2 55.8 340.8 55.1Q340.3 54.4 340.3 53.6L340.3 53.6Q340.3 52.2 341.3 51.3Q342.2 50.5 343.7 50.5L343.7 50.5Q345.2 50.5 346.1 51.3Q347.0 52.2 347.0 53.6ZM345.9 58.9L345.9 58.9Q345.9 57.9 345.3 57.3Q344.6 56.7 343.7 56.7Q342.7 56.7 342.1 57.3Q341.5 57.9 341.5 58.9Q341.5 59.9 342.1 60.4Q342.7 61.0 343.7 61.0L343.7 61.0Q344.7 61.0 345.3 60.4Q345.9 59.9 345.9 58.9ZM343.7 51.7L343.7 51.7Q342.8 51.7 342.3 52.2Q341.8 52.7 341.8 53.6L341.8 53.6Q341.8 54.5 342.3 55.0Q342.8 55.6 343.7 55.6Q344.6 55.6 345.1 55.0Q345.6 54.5 345.6 53.6Q345.6 52.8 345.1 52.2Q344.5 51.7 343.7 51.7ZM349 53.4L349 52.8Q349 51.8 349.7 51.1Q350.3 50.5 351.3 50.5L351.3 50.5Q352.4 50.5 353.0 51.1Q353.7 51.8 353.7 52.9L353.7 52.9L353.7 53.4Q353.7 54.4 353.0 55.1Q352.4 55.8 351.3 55.8L351.3 55.8Q350.3 55.8 349.7 55.1Q349 54.4 349 53.4L349 53.4ZM350.1 52.8L350.1 53.4Q350.1 54.0 350.4 54.4Q350.8 54.8 351.3 54.8L351.3 54.8Q351.9 54.8 352.2 54.4Q352.6 54.0 352.6 53.4L352.6 53.4L352.6 52.8Q352.6 52.2 352.2 51.8Q351.9 51.4 351.3 51.4Q350.8 51.4 350.4 51.8Q350.1 52.2 350.1 52.8L350.1 52.8ZM354.5 59.8L354.5 59.2Q354.5 58.2 355.2 57.5Q355.8 56.9 356.9 56.9Q357.9 56.9 358.5 57.5Q359.2 58.2 359.2 59.3L359.2 59.3L359.2 59.8Q359.2 60.8 358.6 61.5Q357.9 62.2 356.9 62.2Q355.9 62.2 355.2 61.5Q354.5 60.9 354.5 59.8L354.5 59.8ZM355.6 59.2L355.6 59.8Q355.6 60.4 356.0 60.8Q356.3 61.2 356.9 61.2L356.9 61.2Q357.4 61.2 357.8 60.8Q358.1 60.5 358.1 59.8L358.1 59.8L358.1 59.2Q358.1 58.6 357.8 58.2Q357.4 57.8 356.9 57.8L356.9 57.8Q356.3 57.8 356.0 58.2Q355.6 58.6 355.6 59.2L355.6 59.2ZM357.2 52.3L351.7 61.1L350.9 60.6L356.4 51.7L357.2 52.3Z "/></g><mask id="satori_om-id-1-5"><rect x="0" y="76" width="115" height="19" fill="#fff"/></mask><mask id="satori_om-id-1-5-0"><rect x="0" y="78" width="16" height="16" fill="#fff"/></mask><mask id="satori_om-id-1-5-0-0"><rect x="4" y="82" width="8" height="8" fill="#fff"/></mask><path x="4" y="82" width="8" height="8" fill="#A97BFF" d="M8,82 h0 a4,4 0 0 1 4,4 v0 a4,4 0 0 1 -4,4 h0 a4,4 0 0 1 -4,-4 v0 a4,4 0 0 1 4,-4"/><mask id="satori_om-id-1-5-1"><rect x="29" y="76" width="43" height="19" fill="#fff"/></mask><g  ><path fill="#24292f" d="M36.5 91L33.6 86.4L32.4 87.8L32.4 91L30.0 91L30.0 79.6L32.4 79.6L32.4 84.8L33.4 83.4L36.3 79.6L39.2 79.6L35.1 84.7L39.3 91L36.5 91ZM39.5 86.8L39.5 86.7Q39.5 85.4 39.9 84.5Q40.4 83.5 41.3 82.9Q42.3 82.4 43.5 82.4L43.5 82.4Q45.2 82.4 46.2 83.4Q47.3 84.5 47.5 86.3L47.5 86.3L47.5 86.9Q47.5 88.8 46.4 90.0Q45.3 91.2 43.5 91.2Q41.6 91.2 40.6 90.0Q39.5 88.8 39.5 86.8L39.5 86.8ZM41.7 86.9L41.7 86.9Q41.7 88.1 42.2 88.7Q42.6 89.3 43.5 89.3L43.5 89.3Q44.3 89.3 44.8 88.7Q45.2 88.1 45.2 86.7L45.2 86.7Q45.2 85.5 44.8 84.9Q44.3 84.2 43.5 84.2L43.5 84.2Q42.6 84.2 42.2 84.9Q41.7 85.5 41.7 86.9ZM49.3 80.5L51.6 80.5L51.6 82.5L53.0 82.5L53.0 84.2L51.6 84.2L51.6 88.4Q51.6 88.9 51.7 89.1Q51.9 89.3 52.4 89.3L52.4 89.3Q52.8 89.3 53.1 89.2L53.1 89.2L53.1 91.0Q52.4 91.2 51.7 91.2L51.7 91.2Q49.4 91.2 49.3 88.8L49.3 88.8L49.3 84.2L48.1 84.2L48.1 82.5L49.3 82.5L49.3 80.5ZM56.6 79L56.6 91L54.4 91L54.4 79L56.6 79ZM60.9 82.5L60.9 91L58.6 91L58.6 82.5L60.9 82.5ZM58.5 80.4L58.5 80.4Q58.5 79.9 58.8 79.5Q59.2 79.2 59.8 79.2L59.8 79.2Q60.3 79.2 60.7 79.5Q61.0 79.9 61.0 80.4L61.0 80.4Q61.0 80.9 60.7 81.2Q60.3 81.5 59.8 81.5Q59.2 81.5 58.8 81.2Q58.5 80.9 58.5 80.4ZM62.7 82.5L64.8 82.5L64.9 83.5Q65.8 82.4 67.3 82.4L67.3 82.4Q68.7 82.4 69.3 83.2Q70.0 84.0 70 85.5L70 85.5L70 91L67.7 91L67.7 85.6Q67.7 84.9 67.4 84.6Q67.1 84.2 66.4 84.2L66.4 84.2Q65.4 84.2 65.0 85.0L65.0 85.0L65.0 91L62.7 91L62.7 82.5Z "/></g><mask id="satori_om-id-1-5-2"><rect x="81" y="76" width="34" height="19" fill="#fff"/></mask><g  ><path fill="#57606a" d="M88.0 79.6L88.0 87.2L89.6 87.2L89.6 88.4L88.0 88.4L88.0 91L86.6 91L86.6 88.4L81.4 88.4L81.4 87.5L86.5 79.6L88.0 79.6ZM86.4 81.9L83.1 87.2L86.6 87.2L86.6 81.6L86.4 81.9ZM91.1 90.2L91.1 90.2Q91.1 89.9 91.3 89.6Q91.6 89.4 92 89.4Q92.4 89.4 92.7 89.6Q92.9 89.9 92.9 90.2L92.9 90.2Q92.9 90.6 92.7 90.8Q92.4 91.1 92 91.1Q91.6 91.1 91.3 90.8Q91.1 90.6 91.1 90.2ZM101.2 79.6L101.2 87.2L102.8 87.2L102.8 88.4L101.2 88.4L101.2 91L99.8 91L99.8 88.4L94.6 88.4L94.6 87.5L99.7 79.6L101.2 79.6ZM99.6 81.9L96.3 87.2L99.8 87.2L99.8 81.6L99.6 81.9ZM104 82.4L104 81.8Q104 80.8 104.7 80.1Q105.3 79.5 106.3 79.5L106.3 79.5Q107.4 79.5 108.0 80.1Q108.7 80.8 108.7 81.9L108.7 81.9L108.7 82.4Q108.7 83.4 108.0 84.1Q107.4 84.8 106.3 84.8L106.3 84.8Q105.3 84.8 104.7 84.1Q104 83.4 104 82.4L104 82.4ZM105.1 81.8L105.1 82.4Q105.1 83.0 105.4 83.4Q105.8 83.8 106.3 83.8L106.3 83.8Q106.9 83.8 107.2 83.4Q107.6 83.0 107.6 82.4L107.6 82.4L107.6 81.8Q107.6 81.2 107.2 80.8Q106.9 80.4 106.3 80.4Q105.8 80.4 105.4 80.8Q105.1 81.2 105.1 81.8L105.1 81.8ZM109.5 88.8L109.5 88.2Q109.5 87.2 110.2 86.5Q110.8 85.9 111.9 85.9Q112.9 85.9 113.5 86.5Q114.2 87.2 114.2 88.3L114.2 88.3L114.2 88.8Q114.2 89.8 113.6 90.5Q112.9 91.2 111.9 91.2Q110.9 91.2 110.2 90.5Q109.5 89.9 109.5 88.8L109.5 88.8ZM110.6 88.2L110.6 88.8Q110.6 89.4 111.0 89.8Q111.3 90.2 111.9 90.2L111.9 90.2Q112.4 90.2 112.8 89.8Q113.1 89.5 113.1 88.8L113.1 88.8L113.1 88.2Q113.1 87.6 112.8 87.2Q112.4 86.8 111.9 86.8L111.9 86.8Q111.3 86.8 111.0 87.2Q110.6 87.6 110.6 88.2L110.6 88.2ZM112.2 81.3L106.7 90.1L105.9 89.6L111.4 80.7L112.2 81.3Z "/></g><mask id="satori_om-id-1-6"><rect x="125" y="76" width="117" height="19" fill="#fff"/></mask><mask id="satori_om-id-1-6-0"><rect x="125" y="78" width="16" height="16" fill="#fff"/></mask><mask id="satori_om-id-1-6-0-0"><rect x="129" y="82" width="8" height="8" fill="#fff"/></mask><path x="129" y="82" width="8" height="8" fill="#ff3e00" d="M133,82 h0 a4,4 0 0 1 4,4 v0 a4,4 0 0 1 -4,4 h0 a4,4 0 0 1 -4,-4 v0 a4,4 0 0 1 4,-4"/><mask id="satori_om-id-1-6-1"><rect x="154" y="76" width="45" height="19" fill="#fff"/></mask><g  ><path fill="#24292f" d="M160.9 88.0L160.9 88.0Q160.9 87.4 160.4 87.0Q160.0 86.6 158.8 86.2Q157.5 85.9 156.8 85.5L156.8 85.5Q154.9 84.4 154.9 82.6L154.9 82.6Q154.9 81.7 155.4 81.0Q155.9 80.3 156.9 79.9Q157.9 79.5 159.1 79.5L159.1 79.5Q160.3 79.5 161.3 79.9Q162.2 80.4 162.7 81.2Q163.3 82.0 163.3 83.0L163.3 83.0L160.9 83.0Q160.9 82.2 160.4 81.8Q159.9 81.3 159.0 81.3L159.0 81.3Q158.2 81.3 157.7 81.7Q157.2 82.1 157.2 82.7L157.2 82.7Q157.2 83.2 157.8 83.6Q158.4 84.0 159.4 84.3L159.4 84.3Q161.4 84.9 162.4 85.8Q163.3 86.7 163.3 88L163.3 88Q163.3 89.5 162.1 90.3Q161.0 91.2 159.1 91.2L159.1 91.2Q157.8 91.2 156.8 90.7Q155.7 90.2 155.1 89.4Q154.5 88.5 154.5 87.4L154.5 87.4L156.9 87.4Q156.9 89.3 159.1 89.3L159.1 89.3Q160.0 89.3 160.4 89.0Q160.9 88.6 160.9 88.0ZM166.3 82.5L167.9 88.2L169.4 82.5L171.8 82.5L168.9 91L166.8 91L163.9 82.5L166.3 82.5ZM176.6 91.2L176.6 91.2Q174.7 91.2 173.6 90.0Q172.4 88.9 172.4 87.0L172.4 87.0L172.4 86.8Q172.4 85.5 172.9 84.5Q173.4 83.5 174.3 82.9Q175.2 82.4 176.3 82.4L176.3 82.4Q178.1 82.4 179.1 83.5Q180.1 84.6 180.1 86.6L180.1 86.6L180.1 87.5L174.7 87.5Q174.8 88.3 175.3 88.8Q175.9 89.3 176.7 89.3L176.7 89.3Q178.0 89.3 178.8 88.4L178.8 88.4L179.9 89.6Q179.4 90.4 178.5 90.8Q177.6 91.2 176.6 91.2ZM176.3 84.2L176.3 84.2Q175.6 84.2 175.2 84.7Q174.8 85.1 174.7 86.0L174.7 86.0L177.8 86.0L177.8 85.8Q177.8 85.0 177.4 84.6Q177.0 84.2 176.3 84.2ZM183.7 79L183.7 91L181.5 91L181.5 79L183.7 79ZM186.0 80.5L188.3 80.5L188.3 82.5L189.7 82.5L189.7 84.2L188.3 84.2L188.3 88.4Q188.3 88.9 188.5 89.1Q188.6 89.3 189.1 89.3L189.1 89.3Q189.5 89.3 189.8 89.2L189.8 89.2L189.8 91.0Q189.1 91.2 188.4 91.2L188.4 91.2Q186.1 91.2 186.0 88.8L186.0 88.8L186.0 84.2L184.8 84.2L184.8 82.5L186.0 82.5L186.0 80.5ZM194.9 91.2L194.9 91.2Q193.0 91.2 191.8 90.0Q190.7 88.9 190.7 87.0L190.7 87.0L190.7 86.8Q190.7 85.5 191.2 84.5Q191.7 83.5 192.6 82.9Q193.5 82.4 194.6 82.4L194.6 82.4Q196.4 82.4 197.4 83.5Q198.4 84.6 198.4 86.6L198.4 86.6L198.4 87.5L193.0 87.5Q193.1 88.3 193.6 88.8Q194.2 89.3 195.0 89.3L195.0 89.3Q196.3 89.3 197.1 88.4L197.1 88.4L198.2 89.6Q197.7 90.4 196.8 90.8Q195.9 91.2 194.9 91.2ZM194.6 84.2L194.6 84.2Q193.9 84.2 193.5 84.7Q193.1 85.1 193.0 86.0L193.0 86.0L196.1 86.0L196.1 85.8Q196.1 85.0 195.7 84.6Q195.3 84.2 194.6 84.2Z "/></g><mask id="satori_om-id-1-6-2"><rect x="208" y="76" width="34" height="19" fill="#fff"/></mask><g  ><path fill="#57606a" d="M215.0 79.6L215.0 87.2L216.6 87.2L216.6 88.4L215.0 88.4L215.0 91L213.6 91L213.6 88.4L208.4 88.4L208.4 87.5L213.5 79.6L215.0 79.6ZM213.4 81.9L210.1 87.2L213.6 87.2L213.6 81.6L213.4 81.9ZM218.1 90.2L218.1 90.2Q218.1 89.9 218.3 89.6Q218.6 89.4 219 89.4Q219.4 89.4 219.7 89.6Q219.9 89.9 219.9 90.2L219.9 90.2Q219.9 90.6 219.7 90.8Q219.4 91.1 219 91.1Q218.6 91.1 218.3 90.8Q218.1 90.6 218.1 90.2ZM228.2 79.6L228.2 87.2L229.8 87.2L229.8 88.4L228.2 88.4L228.2 91L226.8 91L226.8 88.4L221.6 88.4L221.6 87.5L226.7 79.6L228.2 79.6ZM226.6 81.9L223.3 87.2L226.8 87.2L226.8 81.6L226.6 81.9ZM231 82.4L231 81.8Q231 80.8 231.7 80.1Q232.3 79.5 233.3 79.5L233.3 79.5Q234.4 79.5 235.0 80.1Q235.7 80.8 235.7 81.9L235.7 81.9L235.7 82.4Q235.7 83.4 235.0 84.1Q234.4 84.8 233.3 84.8L233.3 84.8Q232.3 84.8 231.7 84.1Q231 83.4 231 82.4L231 82.4ZM232.1 81.8L232.1 82.4Q232.1 83.0 232.4 83.4Q232.8 83.8 233.3 83.8L233.3 83.8Q233.9 83.8 234.2 83.4Q234.6 83.0 234.6 82.4L234.6 82.4L234.6 81.8Q234.6 81.2 234.2 80.8Q233.9 80.4 233.3 80.4Q232.8 80.4 232.4 80.8Q232.1 81.2 232.1 81.8L232.1 81.8ZM236.5 88.8L236.5 88.2Q236.5 87.2 237.2 86.5Q237.8 85.9 238.9 85.9Q239.9 85.9 240.5 86.5Q241.2 87.2 241.2 88.3L241.2 88.3L241.2 88.8Q241.2 89.8 240.6 90.5Q239.9 91.2 238.9 91.2Q237.9 91.2 237.2 90.5Q236.5 89.9 236.5 88.8L236.5 88.8ZM237.6 88.2L237.6 88.8Q237.6 89.4 238.0 89.8Q238.3 90.2 238.9 90.2L238.9 90.2Q239.4 90.2 239.8 89.8Q240.1 89.5 240.1 88.8L240.1 88.8L240.1 88.2Q240.1 87.6 239.8 87.2Q239.4 86.8 238.9 86.8L238.9 86.8Q238.3 86.8 238.0 87.2Q237.6 87.6 237.6 88.2L237.6 88.2ZM239.2 81.3L233.7 90.1L232.9 89.6L238.4 80.7L239.2 81.3Z "/></g><mask id="satori_om-id-1-7"><rect x="0" y="105" width="149" height="19" fill="#fff"/></mask><mask id="satori_om-id-1-7-0"><rect x="0" y="107" width="16" height="16" fill="#fff"/></mask><mask id="satori_om-id-1-7-0-0"><rect x="4" y="111" width="8" height="8" fill="#fff"/></mask><path x="4" y="111" width="8" height="8" fill="#f1e05a" d="M8,111 h0 a4,4 0 0 1 4,4 v0 a4,4 0 0 1 -4,4 h0 a4,4 0 0 1 -4,-4 v0 a4,4 0 0 1 4,-4"/><mask id="satori_om-id-1-7-1"><rect x="29" y="105" width="77" height="19" fill="#fff"/></mask><g  ><path fill="#24292f" d="M34.6 116.5L34.6 108.6L36.9 108.6L36.9 116.5Q36.9 117.6 36.5 118.4Q36.0 119.3 35.1 119.7Q34.2 120.2 33.1 120.2L33.1 120.2Q31.3 120.2 30.3 119.2Q29.3 118.3 29.3 116.6L29.3 116.6L31.7 116.6Q31.7 117.5 32.0 117.9Q32.4 118.3 33.1 118.3L33.1 118.3Q33.8 118.3 34.2 117.8Q34.6 117.4 34.6 116.5L34.6 116.5ZM46.0 120L43.7 120Q43.5 119.7 43.5 119.2L43.5 119.2Q42.7 120.2 41.3 120.2L41.3 120.2Q40.1 120.2 39.3 119.4Q38.5 118.7 38.5 117.6L38.5 117.6Q38.5 116.3 39.5 115.6Q40.5 114.8 42.3 114.8L42.3 114.8L43.4 114.8L43.4 114.4Q43.4 113.8 43.1 113.4Q42.8 113.1 42.1 113.1L42.1 113.1Q41.6 113.1 41.2 113.3Q40.9 113.6 40.9 114.1L40.9 114.1L38.7 114.1Q38.7 113.4 39.1 112.7Q39.6 112.1 40.4 111.7Q41.2 111.4 42.3 111.4L42.3 111.4Q43.8 111.4 44.7 112.2Q45.6 113.0 45.6 114.4L45.6 114.4L45.6 118.0Q45.7 119.3 46.0 119.9L46.0 119.9L46.0 120ZM41.8 118.4L41.8 118.4Q42.3 118.4 42.8 118.2Q43.2 118.0 43.4 117.6L43.4 117.6L43.4 116.2L42.5 116.2Q40.8 116.2 40.7 117.3L40.7 117.3L40.7 117.5Q40.7 117.9 41.0 118.2Q41.3 118.4 41.8 118.4ZM48.9 111.5L50.4 117.2L52 111.5L54.4 111.5L51.5 120L49.4 120L46.5 111.5L48.9 111.5ZM62.4 120L60.1 120Q60.0 119.7 59.9 119.2L59.9 119.2Q59.1 120.2 57.8 120.2L57.8 120.2Q56.5 120.2 55.7 119.4Q54.9 118.7 54.9 117.6L54.9 117.6Q54.9 116.3 55.9 115.6Q56.9 114.8 58.8 114.8L58.8 114.8L59.8 114.8L59.8 114.4Q59.8 113.8 59.5 113.4Q59.2 113.1 58.6 113.1L58.6 113.1Q58.0 113.1 57.7 113.3Q57.3 113.6 57.3 114.1L57.3 114.1L55.1 114.1Q55.1 113.4 55.5 112.7Q56.0 112.1 56.8 111.7Q57.6 111.4 58.7 111.4L58.7 111.4Q60.2 111.4 61.2 112.2Q62.1 113.0 62.1 114.4L62.1 114.4L62.1 118.0Q62.1 119.3 62.4 119.9L62.4 119.9L62.4 120ZM58.3 118.4L58.3 118.4Q58.8 118.4 59.2 118.2Q59.6 118.0 59.8 117.6L59.8 117.6L59.8 116.2L59.0 116.2Q57.3 116.2 57.2 117.3L57.2 117.3L57.2 117.5Q57.2 117.9 57.5 118.2Q57.8 118.4 58.3 118.4ZM69.9 117.0L69.9 117.0Q69.9 116.4 69.4 116.0Q68.9 115.6 67.7 115.2Q66.5 114.9 65.8 114.5L65.8 114.5Q63.8 113.4 63.8 111.6L63.8 111.6Q63.8 110.7 64.4 110.0Q64.9 109.3 65.8 108.9Q66.8 108.5 68.0 108.5L68.0 108.5Q69.3 108.5 70.2 108.9Q71.2 109.4 71.7 110.2Q72.2 111.0 72.2 112.0L72.2 112.0L69.9 112.0Q69.9 111.2 69.4 110.8Q68.9 110.3 68.0 110.3L68.0 110.3Q67.1 110.3 66.7 110.7Q66.2 111.1 66.2 111.7L66.2 111.7Q66.2 112.2 66.7 112.6Q67.3 113.0 68.4 113.3L68.4 113.3Q70.4 113.9 71.3 114.8Q72.2 115.7 72.2 117L72.2 117Q72.2 118.5 71.1 119.3Q70.0 120.2 68.1 120.2L68.1 120.2Q66.8 120.2 65.7 119.7Q64.6 119.2 64.1 118.4Q63.5 117.5 63.5 116.4L63.5 116.4L65.8 116.4Q65.8 118.3 68.1 118.3L68.1 118.3Q68.9 118.3 69.4 118.0Q69.9 117.6 69.9 117.0ZM77.2 118.3L77.2 118.3Q77.8 118.3 78.2 118.0Q78.6 117.6 78.6 117.1L78.6 117.1L80.7 117.1Q80.7 117.9 80.2 118.7Q79.8 119.4 79.0 119.8Q78.2 120.2 77.2 120.2L77.2 120.2Q75.4 120.2 74.3 119.0Q73.3 117.9 73.3 115.8L73.3 115.8L73.3 115.7Q73.3 113.7 74.3 112.6Q75.4 111.4 77.2 111.4L77.2 111.4Q78.8 111.4 79.7 112.3Q80.7 113.2 80.7 114.7L80.7 114.7L78.6 114.7Q78.6 114.0 78.2 113.6Q77.8 113.2 77.1 113.2L77.1 113.2Q76.4 113.2 76.0 113.8Q75.6 114.4 75.6 115.7L75.6 115.7L75.6 115.9Q75.6 117.2 76.0 117.8Q76.4 118.3 77.2 118.3ZM86.8 111.5L86.7 113.7Q86.3 113.6 85.9 113.6L85.9 113.6Q84.6 113.6 84.3 114.5L84.3 114.5L84.3 120L82.0 120L82.0 111.5L84.1 111.5L84.2 112.6Q84.9 111.4 86.1 111.4L86.1 111.4Q86.4 111.4 86.8 111.5L86.8 111.5ZM90.2 111.5L90.2 120L87.9 120L87.9 111.5L90.2 111.5ZM87.8 109.4L87.8 109.4Q87.8 108.9 88.2 108.5Q88.5 108.2 89.1 108.2L89.1 108.2Q89.7 108.2 90 108.5Q90.3 108.9 90.3 109.4L90.3 109.4Q90.3 109.9 90.0 110.2Q89.6 110.5 89.1 110.5Q88.5 110.5 88.2 110.2Q87.8 109.9 87.8 109.4ZM99.7 115.7L99.7 115.9Q99.7 117.8 98.8 119.0Q97.9 120.2 96.4 120.2L96.4 120.2Q95.1 120.2 94.3 119.3L94.3 119.3L94.3 123.3L92.1 123.3L92.1 111.5L94.2 111.5L94.2 112.4Q95.1 111.4 96.4 111.4L96.4 111.4Q97.9 111.4 98.8 112.5Q99.7 113.7 99.7 115.7L99.7 115.7ZM97.4 115.7L97.4 115.7Q97.4 114.5 97.0 113.9Q96.6 113.2 95.8 113.2L95.8 113.2Q94.7 113.2 94.3 114.0L94.3 114.0L94.3 117.5Q94.7 118.3 95.8 118.3L95.8 118.3Q97.4 118.3 97.4 115.7ZM101.5 109.5L103.8 109.5L103.8 111.5L105.2 111.5L105.2 113.2L103.8 113.2L103.8 117.4Q103.8 117.9 104.0 118.1Q104.1 118.3 104.6 118.3L104.6 118.3Q105.0 118.3 105.3 118.2L105.3 118.2L105.3 120.0Q104.6 120.2 103.9 120.2L103.9 120.2Q101.6 120.2 101.5 117.8L101.5 117.8L101.5 113.2L100.3 113.2L100.3 111.5L101.5 111.5L101.5 109.5Z "/></g><mask id="satori_om-id-1-7-2"><rect x="115" y="105" width="34" height="19" fill="#fff"/></mask><g  ><path fill="#57606a" d="M123.4 118.8L123.4 120L115.9 120L115.9 119.0L119.9 114.6Q120.8 113.6 121.1 113.0Q121.4 112.4 121.4 111.7L121.4 111.7Q121.4 110.8 120.9 110.2Q120.3 109.7 119.4 109.7L119.4 109.7Q118.4 109.7 117.8 110.3Q117.2 110.9 117.2 112.0L117.2 112.0L115.7 112.0Q115.7 110.4 116.7 109.4Q117.8 108.5 119.4 108.5L119.4 108.5Q121.0 108.5 122.0 109.3Q122.9 110.1 122.9 111.5L122.9 111.5Q122.9 113.2 120.7 115.5L120.7 115.5L117.7 118.8L123.4 118.8ZM125.1 119.2L125.1 119.2Q125.1 118.9 125.3 118.6Q125.6 118.4 126 118.4Q126.4 118.4 126.7 118.6Q126.9 118.9 126.9 119.2L126.9 119.2Q126.9 119.6 126.7 119.8Q126.4 120.1 126 120.1Q125.6 120.1 125.3 119.8Q125.1 119.6 125.1 119.2ZM134.7 115L134.7 115Q134.2 115.5 133.6 115.9Q133.0 116.2 132.2 116.2L132.2 116.2Q131.2 116.2 130.5 115.7Q129.8 115.2 129.4 114.3Q129.0 113.5 129.0 112.4L129.0 112.4Q129.0 111.3 129.4 110.4Q129.8 109.4 130.6 109.0Q131.4 108.5 132.5 108.5L132.5 108.5Q134.2 108.5 135.2 109.7Q136.1 111.0 136.1 113.2L136.1 113.2L136.1 113.6Q136.1 116.9 134.8 118.4Q133.5 120.0 130.9 120.0L130.9 120.0L130.6 120.0L130.6 118.8L130.9 118.8Q132.7 118.8 133.6 117.9Q134.6 117.0 134.7 115ZM132.5 115L132.5 115Q133.2 115 133.8 114.6Q134.4 114.1 134.7 113.5L134.7 113.5L134.7 112.9Q134.7 111.5 134.1 110.6Q133.5 109.7 132.5 109.7L132.5 109.7Q131.6 109.7 131.0 110.4Q130.4 111.1 130.4 112.3L130.4 112.3Q130.4 113.5 131.0 114.2Q131.5 115 132.5 115ZM138 111.4L138 110.8Q138 109.8 138.7 109.1Q139.3 108.5 140.3 108.5L140.3 108.5Q141.4 108.5 142.0 109.1Q142.7 109.8 142.7 110.9L142.7 110.9L142.7 111.4Q142.7 112.4 142.0 113.1Q141.4 113.8 140.3 113.8L140.3 113.8Q139.3 113.8 138.7 113.1Q138 112.4 138 111.4L138 111.4ZM139.1 110.8L139.1 111.4Q139.1 112.0 139.4 112.4Q139.8 112.8 140.3 112.8L140.3 112.8Q140.9 112.8 141.2 112.4Q141.6 112.0 141.6 111.4L141.6 111.4L141.6 110.8Q141.6 110.2 141.2 109.8Q140.9 109.4 140.3 109.4Q139.8 109.4 139.4 109.8Q139.1 110.2 139.1 110.8L139.1 110.8ZM143.5 117.8L143.5 117.2Q143.5 116.2 144.2 115.5Q144.8 114.9 145.9 114.9Q146.9 114.9 147.5 115.5Q148.2 116.2 148.2 117.3L148.2 117.3L148.2 117.8Q148.2 118.8 147.6 119.5Q146.9 120.2 145.9 120.2Q144.9 120.2 144.2 119.5Q143.5 118.9 143.5 117.8L143.5 117.8ZM144.6 117.2L144.6 117.8Q144.6 118.4 145.0 118.8Q145.3 119.2 145.9 119.2L145.9 119.2Q146.4 119.2 146.8 118.8Q147.1 118.5 147.1 117.8L147.1 117.8L147.1 117.2Q147.1 116.6 146.8 116.2Q146.4 115.8 145.9 115.8L145.9 115.8Q145.3 115.8 145.0 116.2Q144.6 116.6 144.6 117.2L144.6 117.2ZM146.2 110.3L140.7 119.1L139.9 118.6L145.4 109.7L146.2 110.3Z "/></g><mask id="satori_om-id-1-8"><rect x="159" y="105" width="83" height="19" fill="#fff"/></mask><mask id="satori_om-id-1-8-0"><rect x="159" y="107" width="16" height="16" fill="#fff"/></mask><mask id="satori_om-id-1-8-0-0"><rect x="163" y="111" width="8" height="8" fill="#fff"/></mask><path x="163" y="111" width="8" height="8" fill="#555555" d="M167,111 h0 a4,4 0 0 1 4,4 v0 a4,4 0 0 1 -4,4 h0 a4,4 0 0 1 -4,-4 v0 a4,4 0 0 1 4,-4"/><mask id="satori_om-id-1-8-1"><rect x="188" y="105" width="11" height="19" fill="#fff"/></mask><g  ><path fill="#24292f" d="M195.6 116.2L197.9 116.2Q197.8 118.0 196.6 119.1Q195.4 120.2 193.4 120.2L193.4 120.2Q191.2 120.2 189.9 118.7Q188.7 117.2 188.7 114.6L188.7 114.6L188.7 113.9Q188.7 112.3 189.3 111.1Q189.8 109.8 190.9 109.1Q192.0 108.5 193.4 108.5L193.4 108.5Q195.4 108.5 196.6 109.5Q197.8 110.6 198.0 112.5L198.0 112.5L195.6 112.5Q195.5 111.4 195.0 110.9Q194.5 110.4 193.4 110.4L193.4 110.4Q192.2 110.4 191.6 111.2Q191.1 112.1 191.0 113.8L191.0 113.8L191.0 114.7Q191.0 116.5 191.6 117.4Q192.2 118.2 193.4 118.2L193.4 118.2Q194.5 118.2 195.0 117.7Q195.5 117.3 195.6 116.2L195.6 116.2Z "/></g><mask id="satori_om-id-1-8-2"><rect x="208" y="105" width="34" height="19" fill="#fff"/></mask><g  ><path fill="#57606a" d="M216.4 118.8L216.4 120L208.9 120L208.9 119.0L212.9 114.6Q213.8 113.6 214.1 113.0Q214.4 112.4 214.4 111.7L214.4 111.7Q214.4 110.8 213.9 110.2Q213.3 109.7 212.4 109.7L212.4 109.7Q211.4 109.7 210.8 110.3Q210.2 110.9 210.2 112.0L210.2 112.0L208.7 112.0Q208.7 110.4 209.7 109.4Q210.8 108.5 212.4 108.5L212.4 108.5Q214.0 108.5 215.0 109.3Q215.9 110.1 215.9 111.5L215.9 111.5Q215.9 113.2 213.7 115.5L213.7 115.5L210.7 118.8L216.4 118.8ZM218.1 119.2L218.1 119.2Q218.1 118.9 218.3 118.6Q218.6 118.4 219 118.4Q219.4 118.4 219.7 118.6Q219.9 118.9 219.9 119.2L219.9 119.2Q219.9 119.6 219.7 119.8Q219.4 120.1 219 120.1Q218.6 120.1 218.3 119.8Q218.1 119.6 218.1 119.2ZM229.5 108.6L229.5 109.4L224.8 120L223.3 120L228.0 109.8L221.8 109.8L221.8 108.6L229.5 108.6ZM231 111.4L231 110.8Q231 109.8 231.7 109.1Q232.3 108.5 233.3 108.5L233.3 108.5Q234.4 108.5 235.0 109.1Q235.7 109.8 235.7 110.9L235.7 110.9L235.7 111.4Q235.7 112.4 235.0 113.1Q234.4 113.8 233.3 113.8L233.3 113.8Q232.3 113.8 231.7 113.1Q231 112.4 231 111.4L231 111.4ZM232.1 110.8L232.1 111.4Q232.1 112.0 232.4 112.4Q232.8 112.8 233.3 112.8L233.3 112.8Q233.9 112.8 234.2 112.4Q234.6 112.0 234.6 111.4L234.6 111.4L234.6 110.8Q234.6 110.2 234.2 109.8Q233.9 109.4 233.3 109.4Q232.8 109.4 232.4 109.8Q232.1 110.2 232.1 110.8L232.1 110.8ZM236.5 117.8L236.5 117.2Q236.5 116.2 237.2 115.5Q237.8 114.9 238.9 114.9Q239.9 114.9 240.5 115.5Q241.2 116.2 241.2 117.3L241.2 117.3L241.2 117.8Q241.2 118.8 240.6 119.5Q239.9 120.2 238.9 120.2Q237.9 120.2 237.2 119.5Q236.5 118.9 236.5 117.8L236.5 117.8ZM237.6 117.2L237.6 117.8Q237.6 118.4 238.0 118.8Q238.3 119.2 238.9 119.2L238.9 119.2Q239.4 119.2 239.8 118.8Q240.1 118.5 240.1 117.8L240.1 117.8L240.1 117.2Q240.1 116.6 239.8 116.2Q239.4 115.8 238.9 115.8L238.9 115.8Q238.3 115.8 238.0 116.2Q237.6 116.6 237.6 117.2L237.6 117.2ZM239.2 110.3L233.7 119.1L232.9 118.6L238.4 109.7L239.2 110.3Z "/></g><mask id="satori_om-id-1-9"><rect x="252" y="105" width="103" height="19" fill="#fff"/></mask><mask id="satori_om-id-1-9-0"><rect x="252" y="107" width="16" height="16" fill="#fff"/></mask><mask id="satori_om-id-1-9-0-0"><rect x="256" y="111" width="8" height="8" fill="#fff"/></mask><path x="256" y="111" width="8" height="8" fill="#663399" d="M260,111 h0 a4,4 0 0 1 4,4 v0 a4,4 0 0 1 -4,4 h0 a4,4 0 0 1 -4,-4 v0 a4,4 0 0 1 4,-4"/><mask id="satori_om-id-1-9-1"><rect x="281" y="105" width="31" height="19" fill="#fff"/></mask><g  ><path fill="#24292f" d="M288.6 116.2L290.9 116.2Q290.8 118.0 289.6 119.1Q288.4 120.2 286.4 120.2L286.4 120.2Q284.2 120.2 282.9 118.7Q281.7 117.2 281.7 114.6L281.7 114.6L281.7 113.9Q281.7 112.3 282.3 111.1Q282.8 109.8 283.9 109.1Q285.0 108.5 286.4 108.5L286.4 108.5Q288.4 108.5 289.6 109.5Q290.8 110.6 291.0 112.5L291.0 112.5L288.6 112.5Q288.5 111.4 288.0 110.9Q287.5 110.4 286.4 110.4L286.4 110.4Q285.2 110.4 284.6 111.2Q284.1 112.1 284.0 113.8L284.0 113.8L284.0 114.7Q284.0 116.5 284.6 117.4Q285.2 118.2 286.4 118.2L286.4 118.2Q287.5 118.2 288.0 117.7Q288.5 117.3 288.6 116.2L288.6 116.2ZM298.4 117.0L298.4 117.0Q298.4 116.4 297.9 116.0Q297.4 115.6 296.2 115.2Q295.0 114.9 294.3 114.5L294.3 114.5Q292.4 113.4 292.4 111.6L292.4 111.6Q292.4 110.7 292.9 110.0Q293.4 109.3 294.4 108.9Q295.3 108.5 296.6 108.5L296.6 108.5Q297.8 108.5 298.7 108.9Q299.7 109.4 300.2 110.2Q300.7 111.0 300.7 112.0L300.7 112.0L298.4 112.0Q298.4 111.2 297.9 110.8Q297.4 110.3 296.5 110.3L296.5 110.3Q295.7 110.3 295.2 110.7Q294.7 111.1 294.7 111.7L294.7 111.7Q294.7 112.2 295.3 112.6Q295.8 113.0 296.9 113.3L296.9 113.3Q298.9 113.9 299.8 114.8Q300.7 115.7 300.7 117L300.7 117Q300.7 118.5 299.6 119.3Q298.5 120.2 296.6 120.2L296.6 120.2Q295.3 120.2 294.2 119.7Q293.1 119.2 292.6 118.4Q292.0 117.5 292.0 116.4L292.0 116.4L294.4 116.4Q294.4 118.3 296.6 118.3L296.6 118.3Q297.4 118.3 297.9 118.0Q298.4 117.6 298.4 117.0ZM308.2 117.0L308.2 117.0Q308.2 116.4 307.8 116.0Q307.3 115.6 306.1 115.2Q304.8 114.9 304.1 114.5L304.1 114.5Q302.2 113.4 302.2 111.6L302.2 111.6Q302.2 110.7 302.7 110.0Q303.2 109.3 304.2 108.9Q305.2 108.5 306.4 108.5L306.4 108.5Q307.6 108.5 308.6 108.9Q309.5 109.4 310.0 110.2Q310.6 111.0 310.6 112.0L310.6 112.0L308.2 112.0Q308.2 111.2 307.7 110.8Q307.2 110.3 306.4 110.3L306.4 110.3Q305.5 110.3 305.0 110.7Q304.5 111.1 304.5 111.7L304.5 111.7Q304.5 112.2 305.1 112.6Q305.7 113.0 306.7 113.3L306.7 113.3Q308.7 113.9 309.7 114.8Q310.6 115.7 310.6 117L310.6 117Q310.6 118.5 309.5 119.3Q308.3 120.2 306.4 120.2L306.4 120.2Q305.1 120.2 304.1 119.7Q303.0 119.2 302.4 118.4Q301.8 117.5 301.8 116.4L301.8 116.4L304.2 116.4Q304.2 118.3 306.4 118.3L306.4 118.3Q307.3 118.3 307.8 118.0Q308.2 117.6 308.2 117.0Z "/></g><mask id="satori_om-id-1-9-2"><rect x="321" y="105" width="34" height="19" fill="#fff"/></mask><g  ><path fill="#57606a" d="M326.7 108.6L326.7 120L325.2 120L325.2 110.4L322.3 111.4L322.3 110.1L326.5 108.6L326.7 108.6ZM331.1 119.2L331.1 119.2Q331.1 118.9 331.3 118.6Q331.6 118.4 332 118.4Q332.4 118.4 332.7 118.6Q332.9 118.9 332.9 119.2L332.9 119.2Q332.9 119.6 332.7 119.8Q332.4 120.1 332 120.1Q331.6 120.1 331.3 119.8Q331.1 119.6 331.1 119.2ZM342.6 118.8L342.6 120L335.1 120L335.1 119.0L339.1 114.6Q340.0 113.6 340.3 113.0Q340.6 112.4 340.6 111.7L340.6 111.7Q340.6 110.8 340.1 110.2Q339.5 109.7 338.6 109.7L338.6 109.7Q337.6 109.7 337.0 110.3Q336.4 110.9 336.4 112.0L336.4 112.0L334.9 112.0Q334.9 110.4 335.9 109.4Q336.9 108.5 338.6 108.5L338.6 108.5Q340.2 108.5 341.1 109.3Q342.1 110.1 342.1 111.5L342.1 111.5Q342.1 113.2 339.9 115.5L339.9 115.5L336.9 118.8L342.6 118.8ZM344 111.4L344 110.8Q344 109.8 344.7 109.1Q345.3 108.5 346.3 108.5L346.3 108.5Q347.4 108.5 348.0 109.1Q348.7 109.8 348.7 110.9L348.7 110.9L348.7 111.4Q348.7 112.4 348.0 113.1Q347.4 113.8 346.3 113.8L346.3 113.8Q345.3 113.8 344.7 113.1Q344 112.4 344 111.4L344 111.4ZM345.1 110.8L345.1 111.4Q345.1 112.0 345.4 112.4Q345.8 112.8 346.3 112.8L346.3 112.8Q346.9 112.8 347.2 112.4Q347.6 112.0 347.6 111.4L347.6 111.4L347.6 110.8Q347.6 110.2 347.2 109.8Q346.9 109.4 346.3 109.4Q345.8 109.4 345.4 109.8Q345.1 110.2 345.1 110.8L345.1 110.8ZM349.5 117.8L349.5 117.2Q349.5 116.2 350.2 115.5Q350.8 114.9 351.9 114.9Q352.9 114.9 353.5 115.5Q354.2 116.2 354.2 117.3L354.2 117.3L354.2 117.8Q354.2 118.8 353.6 119.5Q352.9 120.2 351.9 120.2Q350.9 120.2 350.2 119.5Q349.5 118.9 349.5 117.8L349.5 117.8ZM350.6 117.2L350.6 117.8Q350.6 118.4 351.0 118.8Q351.3 119.2 351.9 119.2L351.9 119.2Q352.4 119.2 352.8 118.8Q353.1 118.5 353.1 117.8L353.1 117.8L353.1 117.2Q353.1 116.6 352.8 116.2Q352.4 115.8 351.9 115.8L351.9 115.8Q351.3 115.8 351.0 116.2Q350.6 116.6 350.6 117.2L350.6 117.2ZM352.2 110.3L346.7 119.1L345.9 118.6L351.4 109.7L352.2 110.3Z "/></g></svg>