<svg width="375" height="200" viewBox="0 0 375 200" xmlns="http://www.w3.org/2000/svg"><mask id="satori_om-id"><rect x="0" y="0" width="375" height="124" fill="#fff"/></mask><clipPath id="satori_cp-id-0"><path x="0" y="0" width="375" height="8" d="M4,0 h367 a4,4 0 0 1 4,4 v0 a4,4 0 0 1 -4,4 h-367 a4,4 0 0 1 -4,-4 v0 a4,4 0 0 1 4,-4"/></clipPath><mask id="satori_om-id-0"><rect x="0" y="0" width="375" height="8" fill="#fff"/></mask><mask id="satori_om-id-0-0"><rect x="0" y="0" width="155" height="8" fill="#fff" mask="url(#satori_om-id-0)"/></mask><rect x="0" y="0" width="155" height="8" fill="#3178c6" clip-path="url(#satori_cp-id-0)" mask="url(#satori_om-id-0)"/><mask id="satori_om-id-0-1"><rect x="155" y="0" width="56" height="8" fill="#fff" mask="url(#satori_om-id-0)"/></mask><rect x="155" y="0" width="56" height="8" fill="#3572A5" clip-path="url(#satori_cp-id-0)" mask="url(#satori_om-id-0)"/><mask id="satori_om-id-0-2"><rect x="211" y="0" width="33" height="8" fill="#fff" mask="url(#satori_om-id-0)"/></mask><rect x="211" y="0" width="33" height="8" fill="#e34c26" clip-path="url(#satori_cp-id-0)" mask="url(#satori_om-id-0)"/><mask id="satori_om-id-0-3"><rect x="244" y="0" width="31" height="8" fill="#fff" mask="url(#satori_om-id-0)"/></mask><rect x="244" y="0" width="31" height="8" fill="#00ADD8" clip-path="url(#satori_cp-id-0)" mask="url(#satori_om-id-0)"/><mask id="satori_om-id-0-4"><rect x="275" y="0" width="26" height="8" fill="#fff" mask="url(#satori_om-id-0)"/></mask><rect x="275" y="0" width="26" height="8" fill="#701516" clip-path="url(#satori_cp-id-0)" mask="url(#satori_om-id-0)"/><mask id="satori_om-id-0-5"><rect x="301" y="0" width="15" height="8" fill="#fff" mask="url(#satori_om-id-0)"/></mask><rect x="301" y="0" width="15" height="8" fill="#844FBA" clip-path="url(#satori_cp-id-0)" mask="url(#satori_om-id-0)"/><mask id="satori_om-id-0-6"><rect x="316" y="0" width="10" height="8" fill="#fff" mask="url(#satori_om-id-0)"/></mask><rect x="316" y="0" width="10" height="8" fill="#f1e05a" clip-path="url(#satori_cp-id-0)" mask="url(#satori_om-id-0)"/><mask id="satori_om-id-0-7"><rect x="326" y="0" width="9" height="8" fill="#fff" mask="url(#satori_om-id-0)"/></mask><rect x="326" y="0" width="9" height="8" fill="#dea584" clip-path="url(#satori_cp-id-0)" mask="url(#satori_om-id-0)"/><mask id="satori_om-id-0-8"><rect x="335" y="0" width="8" height="8" fill="#fff" mask="url(#satori_om-id-0)"/></mask><rect x="335" y="0" width="8" height="8" fill="#663399" clip-path="url(#satori_cp-id-0)" mask="url(#satori_om-id-0)"/><mask id="satori_om-id-0-9"><rect x="343" y="0" width="7" height="8" fill="#fff" mask="url(#satori_om-id-0)"/></mask><rect x="343" y="0" width="7" height="8" fill="#A97BFF" clip-path="url(#satori_cp-id-0)" mask="url(#satori_om-id-0)"/><mask id="satori_om-id-1"><rect x="0" y="18" width="375" height="106" fill="#fff"/></mask><mask id="satori_om-id-1-0"><rect x="0" y="18" width="160" height="19" fill="#fff"/></mask><mask id="satori_om-id-1-0-0"><rect x="0" y="20" width="16" height="16" fill="#fff"/></mask><mask id="satori_om-id-1-0-0-0"><rect x="4" y="24" width="8" height="8" fill="#fff"/></mask><path x="4" y="24" width="8" height="8" fill="#3178c6" d="M8,24 h0 a4,4 0 0 1 4,4 v0 a4,4 0 0 1 -4,4 h0 a4,4 0 0 1 -4,-4 v0 a4,4 0 0 1 4,-4"/><mask id="satori_om-id-1-0-1"><rect x="29" y="18" width="79" height="19" fill="#fff"/></mask><g  ><path fill="#fff" d="M38.6 21.6L38.6 23.5L35.1 23.5L35.1 33L32.8 33L32.8 23.5L29.3 23.5L29.3 21.6L38.6 21.6ZM40.7 24.5L42.3 29.8L43.8 24.5L46.3 24.5L42.9 34.3L42.7 34.8Q41.9 36.4 40.2 36.4L40.2 36.4Q39.7 36.4 39.2 36.3L39.2 36.3L39.2 34.6L39.5 34.6Q40.2 34.6 40.5 34.4Q40.8 34.2 41.0 33.7L41.0 33.7L41.2 33.0L38.3 24.5L40.7 24.5ZM54.8 28.7L54.8 28.9Q54.8 30.8 53.9 32.0Q53.0 33.2 51.5 33.2L51.5 33.2Q50.2 33.2 49.4 32.3L49.4 32.3L49.4 36.3L47.2 36.3L47.2 24.5L49.3 24.5L49.3 25.4Q50.1 24.4 51.5 24.4L51.5 24.4Q53.0 24.4 53.9 25.5Q54.8 26.7 54.8 28.7L54.8 28.7ZM52.5 28.7L52.5 28.7Q52.5 27.5 52.1 26.9Q51.7 26.2 50.9 26.2L50.9 26.2Q49.8 26.2 49.4 27.0L49.4 27.0L49.4 30.5Q49.8 31.3 50.9 31.3L50.9 31.3Q52.5 31.3 52.5 28.7ZM60.1 33.2L60.1 33.2Q58.2 33.2 57.0 32.0Q55.9 30.9 55.9 29.0L55.9 29.0L55.9 28.8Q55.9 27.5 56.4 26.5Q56.8 25.5 57.7 24.9Q58.6 24.4 59.8 24.4L59.8 24.4Q61.5 24.4 62.5 25.5Q63.5 26.6 63.5 28.6L63.5 28.6L63.5 29.5L58.1 29.5Q58.3 30.3 58.8 30.8Q59.4 31.3 60.2 31.3L60.2 31.3Q61.5 31.3 62.2 30.4L62.2 30.4L63.4 31.6Q62.8 32.4 62.0 32.8Q61.1 33.2 60.1 33.2ZM59.8 26.2L59.8 26.2Q59.1 26.2 58.7 26.7Q58.3 27.1 58.2 28.0L58.2 28.0L61.3 28.0L61.3 27.8Q61.3 27.0 60.9 26.6Q60.5 26.2 59.8 26.2ZM70.9 30.0L70.9 30.0Q70.9 29.4 70.4 29.0Q69.9 28.6 68.7 28.2Q67.5 27.9 66.8 27.5L66.8 27.5Q64.8 26.4 64.8 24.6L64.8 24.6Q64.8 23.7 65.4 23.0Q65.9 22.3 66.8 21.9Q67.8 21.5 69.0 21.5L69.0 21.5Q70.3 21.5 71.2 21.9Q72.2 22.4 72.7 23.2Q73.2 24.0 73.2 25.0L73.2 25.0L70.9 25.0Q70.9 24.2 70.4 23.8Q69.9 23.3 69.0 23.3L69.0 23.3Q68.1 23.3 67.7 23.7Q67.2 24.1 67.2 24.7L67.2 24.7Q67.2 25.2 67.7 25.6Q68.3 26.0 69.4 26.3L69.4 26.3Q71.4 26.9 72.3 27.8Q73.2 28.7 73.2 30L73.2 30Q73.2 31.5 72.1 32.3Q71.0 33.2 69.1 33.2L69.1 33.2Q67.8 33.2 66.7 32.7Q65.6 32.2 65.1 31.4Q64.5 30.5 64.5 29.4L64.5 29.4L66.8 29.4Q66.8 31.3 69.1 31.3L69.1 31.3Q69.9 31.3 70.4 31.0Q70.9 30.6 70.9 30.0ZM78.2 31.3L78.2 31.3Q78.8 31.3 79.2 31.0Q79.6 30.6 79.6 30.1L79.6 30.1L81.7 30.1Q81.7 30.9 81.2 31.7Q80.8 32.4 80.0 32.8Q79.2 33.2 78.2 33.2L78.2 33.2Q76.4 33.2 75.3 32.0Q74.3 30.9 74.3 28.8L74.3 28.8L74.3 28.7Q74.3 26.7 75.3 25.6Q76.4 24.4 78.2 24.4L78.2 24.4Q79.8 24.4 80.7 25.3Q81.7 26.2 81.7 27.7L81.7 27.7L79.6 27.7Q79.6 27.0 79.2 26.6Q78.8 26.2 78.1 26.2L78.1 26.2Q77.4 26.2 77.0 26.8Q76.6 27.4 76.6 28.7L76.6 28.7L76.6 28.9Q76.6 30.2 77.0 30.8Q77.4 31.3 78.2 31.3ZM87.8 24.5L87.7 26.7Q87.3 26.6 86.9 26.6L86.9 26.6Q85.6 26.6 85.3 27.5L85.3 27.5L85.3 33L83.0 33L83.0 24.5L85.1 24.5L85.2 25.6Q85.9 24.4 87.1 24.4L87.1 24.4Q87.4 24.4 87.8 24.5L87.8 24.5ZM91.2 24.5L91.2 33L88.9 33L88.9 24.5L91.2 24.5ZM88.8 22.4L88.8 22.4Q88.8 21.9 89.2 21.5Q89.5 21.2 90.1 21.2L90.1 21.2Q90.7 21.2 91 21.5Q91.3 21.9 91.3 22.4L91.3 22.4Q91.3 22.9 91.0 23.2Q90.6 23.5 90.1 23.5Q89.5 23.5 89.2 23.2Q88.8 22.9 88.8 22.4ZM100.7 28.7L100.7 28.9Q100.7 30.8 99.8 32.0Q98.9 33.2 97.4 33.2L97.4 33.2Q96.1 33.2 95.3 32.3L95.3 32.3L95.3 36.3L93.1 36.3L93.1 24.5L95.2 24.5L95.2 25.4Q96.1 24.4 97.4 24.4L97.4 24.4Q98.9 24.4 99.8 25.5Q100.7 26.7 100.7 28.7L100.7 28.7ZM98.4 28.7L98.4 28.7Q98.4 27.5 98.0 26.9Q97.6 26.2 96.8 26.2L96.8 26.2Q95.7 26.2 95.3 27.0L95.3 27.0L95.3 30.5Q95.7 31.3 96.8 31.3L96.8 31.3Q98.4 31.3 98.4 28.7ZM102.5 22.5L104.8 22.5L104.8 24.5L106.2 24.5L106.2 26.2L104.8 26.2L104.8 30.4Q104.8 30.9 105.0 31.1Q105.1 31.3 105.6 31.3L105.6 31.3Q106.0 31.3 106.3 31.2L106.3 31.2L106.3 33.0Q105.6 33.2 104.9 33.2L104.9 33.2Q102.6 33.2 102.5 30.8L102.5 30.8L102.5 26.2L101.3 26.2L101.3 24.5L102.5 24.5L102.5 22.5Z "/></g><mask id="satori_om-id-1-0-2"><rect x="117" y="18" width="43" height="19" fill="#fff"/></mask><g  ><path fill="#7d8590" d="M124.0 21.6L124.0 29.2L125.6 29.2L125.6 30.4L124.0 30.4L124.0 33L122.6 33L122.6 30.4L117.4 30.4L117.4 29.5L122.5 21.6L124.0 21.6ZM122.4 23.9L119.1 29.2L122.6 29.2L122.6 23.6L122.4 23.9ZM131.7 21.6L131.7 33L130.2 33L130.2 23.4L127.3 24.4L127.3 23.1L131.5 21.6L131.7 21.6ZM136.1 32.2L136.1 32.2Q136.1 31.9 136.3 31.6Q136.5 31.4 137.0 31.4Q137.4 31.4 137.7 31.6Q137.9 31.9 137.9 32.2L137.9 32.2Q137.9 32.6 137.7 32.8Q137.4 33.1 137.0 33.1Q136.5 33.1 136.3 32.8Q136.1 32.6 136.1 32.2ZM142.2 27.8L142.2 26.6L143.3 26.6Q144.3 26.6 144.9 26.1Q145.5 25.5 145.5 24.7L145.5 24.7Q145.5 22.7 143.5 22.7L143.5 22.7Q142.6 22.7 142.0 23.2Q141.5 23.7 141.5 24.6L141.5 24.6L140.0 24.6Q140.0 23.3 141.0 22.4Q142.0 21.5 143.5 21.5L143.5 21.5Q145.1 21.5 146.0 22.3Q147.0 23.2 147.0 24.7L147.0 24.7Q147.0 25.4 146.5 26.1Q146.0 26.8 145.2 27.2L145.2 27.2Q146.1 27.5 146.6 28.1Q147.1 28.8 147.1 29.8L147.1 29.8Q147.1 31.4 146.1 32.3Q145.1 33.2 143.5 33.2Q141.9 33.2 140.9 32.3Q139.9 31.4 139.9 30L139.9 30L141.4 30Q141.4 30.9 142.0 31.4Q142.5 32.0 143.5 32.0L143.5 32.0Q144.6 32.0 145.1 31.4Q145.7 30.9 145.7 29.9L145.7 29.9Q145.7 28.9 145.1 28.3Q144.5 27.8 143.3 27.8L143.3 27.8L142.2 27.8ZM149.0 24.4L149.0 23.8Q149.0 22.8 149.6 22.1Q150.3 21.5 151.3 21.5L151.3 21.5Q152.4 21.5 153.0 22.1Q153.6 22.8 153.6 23.9L153.6 23.9L153.6 24.4Q153.6 25.4 153.0 26.1Q152.3 26.8 151.3 26.8L151.3 26.8Q150.3 26.8 149.6 26.1Q149.0 25.4 149.0 24.4L149.0 24.4ZM150.1 23.8L150.1 24.4Q150.1 25.0 150.4 25.4Q150.8 25.8 151.3 25.8L151.3 25.8Q151.9 25.8 152.2 25.4Q152.6 25.0 152.6 24.4L152.6 24.4L152.6 23.8Q152.6 23.2 152.2 22.8Q151.9 22.4 151.3 22.4Q150.7 22.4 150.4 22.8Q150.1 23.2 150.1 23.8L150.1 23.8ZM154.5 30.8L154.5 30.2Q154.5 29.2 155.2 28.5Q155.8 27.9 156.9 27.9Q157.9 27.9 158.5 28.5Q159.2 29.2 159.2 30.3L159.2 30.3L159.2 30.8Q159.2 31.8 158.5 32.5Q157.9 33.2 156.9 33.2Q155.9 33.2 155.2 32.5Q154.5 31.9 154.5 30.8L154.5 30.8ZM155.6 30.2L155.6 30.8Q155.6 31.4 155.9 31.8Q156.3 32.2 156.9 32.2L156.9 32.2Q157.4 32.2 157.8 31.8Q158.1 31.5 158.1 30.8L158.1 30.8L158.1 30.2Q158.1 29.6 157.8 29.2Q157.4 28.8 156.9 28.8L156.9 28.8Q156.3 28.8 155.9 29.2Q155.6 29.6 155.6 30.2L155.6 30.2ZM157.2 23.3L151.7 32.1L150.8 31.6L156.4 22.7L157.2 23.3Z "/></g><mask id="satori_om-id-1-1"><rect x="170" y="18" width="132" height="19" fill="#fff"/></mask><mask id="satori_om-id-1-1-0"><rect x="170" y="20" width="16" height="16" fill="#fff"/></mask><mask id="satori_om-id-1-1-0-0"><rect x="174" y="24" width="8" height="8" fill="#fff"/></mask><path x="174" y="24" width="8" height="8" fill="#3572A5" d="M178,24 h0 a4,4 0 0 1 4,4 v0 a4,4 0 0 1 -4,4 h0 a4,4 0 0 1 -4,-4 v0 a4,4 0 0 1 4,-4"/><mask id="satori_om-id-1-1-1"><rect x="199" y="18" width="51" height="19" fill="#fff"/></mask><g  ><path fill="#fff" d="M204.4 29.0L202.4 29.0L202.4 33L200.0 33L200.0 21.6L204.5 21.6Q205.7 21.6 206.7 22.1Q207.7 22.6 208.2 23.4Q208.7 24.3 208.7 25.4L208.7 25.4Q208.7 27.1 207.6 28.0Q206.4 29.0 204.4 29.0L204.4 29.0ZM202.4 23.5L202.4 27.1L204.5 27.1Q205.4 27.1 205.9 26.7Q206.4 26.2 206.4 25.4L206.4 25.4Q206.4 24.6 205.9 24.1Q205.4 23.5 204.5 23.5L204.5 23.5L202.4 23.5ZM211.9 24.5L213.5 29.8L215.0 24.5L217.4 24.5L214.0 34.3L213.9 34.8Q213.1 36.4 211.4 36.4L211.4 36.4Q210.9 36.4 210.4 36.3L210.4 36.3L210.4 34.6L210.7 34.6Q211.3 34.6 211.7 34.4Q212.0 34.2 212.2 33.7L212.2 33.7L212.4 33.0L209.5 24.5L211.9 24.5ZM218.8 22.5L221.0 22.5L221.0 24.5L222.5 24.5L222.5 26.2L221.0 26.2L221.0 30.4Q221.0 30.9 221.2 31.1Q221.4 31.3 221.9 31.3L221.9 31.3Q222.3 31.3 222.6 31.2L222.6 31.2L222.6 33.0Q221.9 33.2 221.2 33.2L221.2 33.2Q218.8 33.2 218.8 30.8L218.8 30.8L218.8 26.2L217.5 26.2L217.5 24.5L218.8 24.5L218.8 22.5ZM225.9 21L225.9 25.5Q226.8 24.4 228.2 24.4L228.2 24.4Q231.0 24.4 231.0 27.6L231.0 27.6L231.0 33L228.7 33L228.7 27.6Q228.7 26.9 228.4 26.6Q228.1 26.2 227.4 26.2L227.4 26.2Q226.4 26.2 225.9 27.0L225.9 27.0L225.9 33L223.7 33L223.7 21L225.9 21ZM232.3 28.8L232.3 28.7Q232.3 27.4 232.8 26.5Q233.3 25.5 234.2 24.9Q235.1 24.4 236.3 24.4L236.3 24.4Q238.0 24.4 239.1 25.4Q240.2 26.5 240.3 28.3L240.3 28.3L240.4 28.9Q240.4 30.8 239.3 32.0Q238.2 33.2 236.4 33.2Q234.5 33.2 233.4 32.0Q232.3 30.8 232.3 28.8L232.3 28.8ZM234.6 28.9L234.6 28.9Q234.6 30.1 235.1 30.7Q235.5 31.3 236.4 31.3L236.4 31.3Q237.2 31.3 237.6 30.7Q238.1 30.1 238.1 28.7L238.1 28.7Q238.1 27.5 237.6 26.9Q237.2 26.2 236.3 26.2L236.3 26.2Q235.5 26.2 235.1 26.9Q234.6 27.5 234.6 28.9ZM241.7 24.5L243.8 24.5L243.9 25.5Q244.8 24.4 246.3 24.4L246.3 24.4Q247.7 24.4 248.3 25.2Q249.0 26.0 249.0 27.5L249.0 27.5L249.0 33L246.7 33L246.7 27.6Q246.7 26.9 246.4 26.6Q246.1 26.2 245.4 26.2L245.4 26.2Q244.4 26.2 244.0 27.0L244.0 27.0L244.0 33L241.7 33L241.7 24.5Z "/></g><mask id="satori_om-id-1-1-2"><rect x="259" y="18" width="43" height="19" fill="#fff"/></mask><g  ><path fill="#7d8590" d="M264.7 21.6L264.7 33L263.2 33L263.2 23.4L260.3 24.4L260.3 23.1L264.5 21.6L264.7 21.6ZM270.8 27.6L269.6 27.3L270.2 21.6L276 21.6L276 23.0L271.4 23.0L271.1 26.1Q271.9 25.6 273.0 25.6L273.0 25.6Q274.5 25.6 275.4 26.6Q276.3 27.6 276.3 29.4L276.3 29.4Q276.3 31.1 275.4 32.1Q274.4 33.2 272.7 33.2L272.7 33.2Q271.2 33.2 270.3 32.3Q269.3 31.5 269.2 30.0L269.2 30.0L270.6 30.0Q270.7 31.0 271.3 31.5Q271.8 32.0 272.7 32.0L272.7 32.0Q273.7 32.0 274.3 31.3Q274.9 30.6 274.9 29.4L274.9 29.4Q274.9 28.3 274.3 27.6Q273.6 26.9 272.6 26.9L272.6 26.9Q271.7 26.9 271.1 27.3L271.1 27.3L270.8 27.6ZM278.1 32.2L278.1 32.2Q278.1 31.9 278.3 31.6Q278.5 31.4 279.0 31.4Q279.4 31.4 279.7 31.6Q279.9 31.9 279.9 32.2L279.9 32.2Q279.9 32.6 279.7 32.8Q279.4 33.1 279.0 33.1Q278.5 33.1 278.3 32.8Q278.1 32.6 278.1 32.2ZM289.3 26.3L289.3 28.1Q289.3 30.7 288.4 31.9Q287.5 33.2 285.7 33.2L285.7 33.2Q283.9 33.2 283.0 31.9Q282.1 30.7 282.1 28.3L282.1 28.3L282.1 26.4Q282.1 23.9 282.9 22.7Q283.8 21.5 285.7 21.5L285.7 21.5Q287.5 21.5 288.4 22.6Q289.2 23.8 289.3 26.3L289.3 26.3ZM287.8 28.5L287.8 26.2Q287.8 24.3 287.3 23.5Q286.8 22.7 285.7 22.7L285.7 22.7Q284.6 22.7 284.0 23.5Q283.5 24.3 283.5 26.1L283.5 26.1L283.5 28.4Q283.5 30.2 284.1 31.1Q284.6 32.0 285.7 32.0L285.7 32.0Q286.8 32.0 287.3 31.1Q287.8 30.3 287.8 28.5L287.8 28.5ZM291.0 24.4L291.0 23.8Q291.0 22.8 291.6 22.1Q292.3 21.5 293.3 21.5L293.3 21.5Q294.4 21.5 295.0 22.1Q295.6 22.8 295.6 23.9L295.6 23.9L295.6 24.4Q295.6 25.4 295.0 26.1Q294.3 26.8 293.3 26.8L293.3 26.8Q292.3 26.8 291.6 26.1Q291.0 25.4 291.0 24.4L291.0 24.4ZM292.1 23.8L292.1 24.4Q292.1 25.0 292.4 25.4Q292.8 25.8 293.3 25.8L293.3 25.8Q293.9 25.8 294.2 25.4Q294.6 25.0 294.6 24.4L294.6 24.4L294.6 23.8Q294.6 23.2 294.2 22.8Q293.9 22.4 293.3 22.4Q292.7 22.4 292.4 22.8Q292.1 23.2 292.1 23.8L292.1 23.8ZM296.5 30.8L296.5 30.2Q296.5 29.2 297.2 28.5Q297.8 27.9 298.9 27.9Q299.9 27.9 300.5 28.5Q301.2 29.2 301.2 30.3L301.2 30.3L301.2 30.8Q301.2 31.8 300.5 32.5Q299.9 33.2 298.9 33.2Q297.9 33.2 297.2 32.5Q296.5 31.9 296.5 30.8L296.5 30.8ZM297.6 30.2L297.6 30.8Q297.6 31.4 297.9 31.8Q298.3 32.2 298.9 32.2L298.9 32.2Q299.4 32.2 299.8 31.8Q300.1 31.5 300.1 30.8L300.1 30.8L300.1 30.2Q300.1 29.6 299.8 29.2Q299.4 28.8 298.9 28.8L298.9 28.8Q298.3 28.8 297.9 29.2Q297.6 29.6 297.6 30.2L297.6 30.2ZM299.2 23.3L293.7 32.1L292.8 31.6L298.4 22.7L299.2 23.3Z "/></g><mask id="satori_om-id-1-2"><rect x="0" y="47" width="116" height="19" fill="#fff"/></mask><mask id="satori_om-id-1-2-0"><rect x="0" y="49" width="16" height="16" fill="#fff"/></mask><mask id="satori_om-id-1-2-0-0"><rect x="4" y="53" width="8" height="8" fill="#fff"/></mask><path x="4" y="53" width="8" height="8" fill="#e34c26" d="M8,53 h0 a4,4 0 0 1 4,4 v0 a4,4 0 0 1 -4,4 h0 a4,4 0 0 1 -4,-4 v0 a4,4 0 0 1 4,-4"/><mask id="satori_om-id-1-2-1"><rect x="29" y="47" width="44" height="19" fill="#fff"/></mask><g  ><path fill="#fff" d="M39.3 50.6L39.3 62L36.9 62L36.9 57.1L32.4 57.1L32.4 62L30.0 62L30.0 50.6L32.4 50.6L32.4 55.2L36.9 55.2L36.9 50.6L39.3 50.6ZM49.7 50.6L49.7 52.5L46.2 52.5L46.2 62L43.8 62L43.8 52.5L40.4 52.5L40.4 50.6L49.7 50.6ZM51.0 50.6L54.1 50.6L57.0 58.9L59.9 50.6L63.0 50.6L63.0 62L60.6 62L60.6 58.9L60.8 53.5L57.8 62L56.2 62L53.1 53.5L53.3 58.9L53.3 62L51.0 62L51.0 50.6ZM67.4 50.6L67.4 60.1L72.3 60.1L72.3 62L65.0 62L65.0 50.6L67.4 50.6Z "/></g><mask id="satori_om-id-1-2-2"><rect x="82" y="47" width="34" height="19" fill="#fff"/></mask><g  ><path fill="#7d8590" d="M89.8 53.6L89.8 53.6Q89.8 54.4 89.4 55.1Q88.9 55.8 88.2 56.1L88.2 56.1Q89.1 56.5 89.6 57.3Q90.1 58 90.1 58.9L90.1 58.9Q90.1 60.4 89.1 61.3Q88.1 62.2 86.5 62.2L86.5 62.2Q84.9 62.2 83.9 61.3Q82.9 60.4 82.9 58.9L82.9 58.9Q82.9 58.0 83.4 57.3Q83.9 56.5 84.8 56.1L84.8 56.1Q84.0 55.8 83.6 55.1Q83.1 54.4 83.1 53.6L83.1 53.6Q83.1 52.2 84.1 51.3Q85.0 50.5 86.5 50.5L86.5 50.5Q88.0 50.5 88.9 51.3Q89.8 52.2 89.8 53.6ZM88.7 58.9L88.7 58.9Q88.7 57.9 88.1 57.3Q87.5 56.7 86.5 56.7Q85.5 56.7 84.9 57.3Q84.3 57.9 84.3 58.9Q84.3 59.9 84.9 60.4Q85.5 61.0 86.5 61.0L86.5 61.0Q87.5 61.0 88.1 60.4Q88.7 59.9 88.7 58.9ZM86.5 51.7L86.5 51.7Q85.6 51.7 85.1 52.2Q84.6 52.7 84.6 53.6L84.6 53.6Q84.6 54.5 85.1 55.0Q85.6 55.6 86.5 55.6Q87.4 55.6 87.9 55.0Q88.4 54.5 88.4 53.6Q88.4 52.8 87.9 52.2Q87.3 51.7 86.5 51.7ZM92.1 61.2L92.1 61.2Q92.1 60.9 92.3 60.6Q92.6 60.4 93 60.4Q93.4 60.4 93.7 60.6Q93.9 60.9 93.9 61.2L93.9 61.2Q93.9 61.6 93.7 61.8Q93.4 62.1 93 62.1Q92.6 62.1 92.3 61.8Q92.1 61.6 92.1 61.2ZM103.0 53.6L103.0 53.6Q103.0 54.4 102.6 55.1Q102.1 55.8 101.4 56.1L101.4 56.1Q102.3 56.5 102.8 57.3Q103.3 58 103.3 58.9L103.3 58.9Q103.3 60.4 102.3 61.3Q101.3 62.2 99.7 62.2L99.7 62.2Q98.0 62.2 97.1 61.3Q96.1 60.4 96.1 58.9L96.1 58.9Q96.1 58.0 96.6 57.3Q97.1 56.5 98.0 56.1L98.0 56.1Q97.2 55.8 96.8 55.1Q96.3 54.4 96.3 53.6L96.3 53.6Q96.3 52.2 97.3 51.3Q98.2 50.5 99.7 50.5L99.7 50.5Q101.2 50.5 102.1 51.3Q103.0 52.2 103.0 53.6ZM101.9 58.9L101.9 58.9Q101.9 57.9 101.3 57.3Q100.6 56.7 99.7 56.7Q98.7 56.7 98.1 57.3Q97.5 57.9 97.5 58.9Q97.5 59.9 98.1 60.4Q98.7 61.0 99.7 61.0L99.7 61.0Q100.7 61.0 101.3 60.4Q101.9 59.9 101.9 58.9ZM99.7 51.7L99.7 51.7Q98.8 51.7 98.3 52.2Q97.8 52.7 97.8 53.6L97.8 53.6Q97.8 54.5 98.3 55.0Q98.8 55.6 99.7 55.6Q100.6 55.6 101.1 55.0Q101.6 54.5 101.6 53.6Q101.6 52.8 101.1 52.2Q100.5 51.7 99.7 51.7ZM105 53.4L105 52.8Q105 51.8 105.7 51.1Q106.3 50.5 107.3 50.5L107.3 50.5Q108.4 50.5 109.0 51.1Q109.7 51.8 109.7 52.9L109.7 52.9L109.7 53.4Q109.7 54.4 109.0 55.1Q108.4 55.8 107.3 55.8L107.3 55.8Q106.3 55.8 105.7 55.1Q105 54.4 105 53.4L105 53.4ZM106.1 52.8L106.1 53.4Q106.1 54.0 106.4 54.4Q106.8 54.8 107.3 54.8L107.3 54.8Q107.9 54.8 108.2 54.4Q108.6 54.0 108.6 53.4L108.6 53.4L108.6 52.8Q108.6 52.2 108.2 51.8Q107.9 51.4 107.3 51.4Q106.8 51.4 106.4 51.8Q106.1 52.2 106.1 52.8L106.1 52.8ZM110.5 59.8L110.5 59.2Q110.5 58.2 111.2 57.5Q111.8 56.9 112.9 56.9Q113.9 56.9 114.5 57.5Q115.2 58.2 115.2 59.3L115.2 59.3L115.2 59.8Q115.2 60.8 114.6 61.5Q113.9 62.2 112.9 62.2Q111.9 62.2 111.2 61.5Q110.5 60.9 110.5 59.8L110.5 59.8ZM111.6 59.2L111.6 59.8Q111.6 60.4 112.0 60.8Q112.3 61.2 112.9 61.2L112.9 61.2Q113.4 61.2 113.8 60.8Q114.1 60.5 114.1 59.8L114.1 59.8L114.1 59.2Q114.1 58.6 113.8 58.2Q113.4 57.8 112.9 57.8L112.9 57.8Q112.3 57.8 112.0 58.2Q111.6 58.6 111.6 59.2L111.6 59.2ZM113.2 52.3L107.7 61.1L106.9 60.6L112.4 51.7L113.2 52.3Z "/></g><mask id="satori_om-id-1-3"><rect x="126" y="47" width="92" height="19" fill="#fff"/></mask><mask id="satori_om-id-1-3-0"><rect x="126" y="49" width="16" height="16" fill="#fff"/></mask><mask id="satori_om-id-1-3-0-0"><rect x="130" y="53" width="8" height="8" fill="#fff"/></mask><path x="130" y="53" width="8" height="8" fill="#00ADD8" d="M134,53 h0 a4,4 0 0 1 4,4 v0 a4,4 0 0 1 -4,4 h0 a4,4 0 0 1 -4,-4 v0 a4,4 0 0 1 4,-4"/><mask id="satori_om-id-1-3-1"><rect x="155" y="47" width="20" height="19" fill="#fff"/></mask><g  ><path fill="#fff" d="M165.0 56.0L165.0 60.6Q164.4 61.3 163.2 61.7Q162.1 62.2 160.7 62.2L160.7 62.2Q159.2 62.2 158.1 61.5Q157.0 60.9 156.4 59.6Q155.8 58.4 155.7 56.8L155.7 56.8L155.7 56.0Q155.7 54.3 156.3 53.0Q156.9 51.8 158.0 51.1Q159.0 50.5 160.5 50.5L160.5 50.5Q162.5 50.5 163.7 51.4Q164.8 52.4 165.0 54.2L165.0 54.2L162.7 54.2Q162.6 53.3 162.0 52.8Q161.5 52.4 160.6 52.4L160.6 52.4Q159.4 52.4 158.8 53.3Q158.1 54.2 158.1 55.9L158.1 55.9L158.1 56.7Q158.1 58.4 158.8 59.4Q159.5 60.3 160.8 60.3L160.8 60.3Q162.1 60.3 162.7 59.7L162.7 59.7L162.7 57.8L160.5 57.8L160.5 56.0L165.0 56.0ZM166.4 57.8L166.4 57.7Q166.4 56.4 166.9 55.5Q167.4 54.5 168.3 53.9Q169.2 53.4 170.4 53.4L170.4 53.4Q172.1 53.4 173.2 54.4Q174.3 55.5 174.4 57.3L174.4 57.3L174.4 57.9Q174.4 59.8 173.3 61.0Q172.3 62.2 170.4 62.2Q168.6 62.2 167.5 61.0Q166.4 59.8 166.4 57.8L166.4 57.8ZM168.7 57.9L168.7 57.9Q168.7 59.1 169.1 59.7Q169.6 60.3 170.4 60.3L170.4 60.3Q171.2 60.3 171.7 59.7Q172.2 59.1 172.2 57.7L172.2 57.7Q172.2 56.5 171.7 55.9Q171.2 55.2 170.4 55.2L170.4 55.2Q169.6 55.2 169.1 55.9Q168.7 56.5 168.7 57.9Z "/></g><mask id="satori_om-id-1-3-2"><rect x="184" y="47" width="34" height="19" fill="#fff"/></mask><g  ><path fill="#7d8590" d="M191.8 53.6L191.8 53.6Q191.8 54.4 191.4 55.1Q190.9 55.8 190.2 56.1L190.2 56.1Q191.1 56.5 191.6 57.3Q192.1 58 192.1 58.9L192.1 58.9Q192.1 60.4 191.1 61.3Q190.1 62.2 188.5 62.2L188.5 62.2Q186.9 62.2 185.9 61.3Q184.9 60.4 184.9 58.9L184.9 58.9Q184.9 58.0 185.4 57.3Q185.9 56.5 186.8 56.1L186.8 56.1Q186.0 55.8 185.6 55.1Q185.1 54.4 185.1 53.6L185.1 53.6Q185.1 52.2 186.1 51.3Q187.0 50.5 188.5 50.5L188.5 50.5Q190.0 50.5 190.9 51.3Q191.8 52.2 191.8 53.6ZM190.7 58.9L190.7 58.9Q190.7 57.9 190.1 57.3Q189.5 56.7 188.5 56.7Q187.5 56.7 186.9 57.3Q186.3 57.9 186.3 58.9Q186.3 59.9 186.9 60.4Q187.5 61.0 188.5 61.0L188.5 61.0Q189.5 61.0 190.1 60.4Q190.7 59.9 190.7 58.9ZM188.5 51.7L188.5 51.7Q187.6 51.7 187.1 52.2Q186.6 52.7 186.6 53.6L186.6 53.6Q186.6 54.5 187.1 55.0Q187.6 55.6 188.5 55.6Q189.4 55.6 189.9 55.0Q190.4 54.5 190.4 53.6Q190.4 52.8 189.9 52.2Q189.3 51.7 188.5 51.7ZM194.1 61.2L194.1 61.2Q194.1 60.9 194.3 60.6Q194.6 60.4 195 60.4Q195.4 60.4 195.7 60.6Q195.9 60.9 195.9 61.2L195.9 61.2Q195.9 61.6 195.7 61.8Q195.4 62.1 195 62.1Q194.6 62.1 194.3 61.8Q194.1 61.6 194.1 61.2ZM205.6 60.8L205.6 62L198.1 62L198.1 61.0L202.1 56.6Q203.0 55.6 203.3 55.0Q203.6 54.4 203.6 53.7L203.6 53.7Q203.6 52.8 203.1 52.2Q202.5 51.7 201.6 51.7L201.6 51.7Q200.6 51.7 200.0 52.3Q199.4 52.9 199.4 54.0L199.4 54.0L197.9 54.0Q197.9 52.4 198.9 51.4Q199.9 50.5 201.6 50.5L201.6 50.5Q203.2 50.5 204.1 51.3Q205.1 52.1 205.1 53.5L205.1 53.5Q205.1 55.2 202.9 57.5L202.9 57.5L199.9 60.8L205.6 60.8ZM207 53.4L207 52.8Q207 51.8 207.7 51.1Q208.3 50.5 209.3 50.5L209.3 50.5Q210.4 50.5 211.0 51.1Q211.7 51.8 211.7 52.9L211.7 52.9L211.7 53.4Q211.7 54.4 211.0 55.1Q210.4 55.8 209.3 55.8L209.3 55.8Q208.3 55.8 207.7 55.1Q207 54.4 207 53.4L207 53.4ZM208.1 52.8L208.1 53.4Q208.1 54.0 208.4 54.4Q208.8 54.8 209.3 54.8L209.3 54.8Q209.9 54.8 210.2 54.4Q210.6 54.0 210.6 53.4L210.6 53.4L210.6 52.8Q210.6 52.2 210.2 51.8Q209.9 51.4 209.3 51.4Q208.8 51.4 208.4 51.8Q208.1 52.2 208.1 52.8L208.1 52.8ZM212.5 59.8L212.5 59.2Q212.5 58.2 213.2 57.5Q213.8 56.9 214.9 56.9Q215.9 56.9 216.5 57.5Q217.2 58.2 217.2 59.3L217.2 59.3L217.2 59.8Q217.2 60.8 216.6 61.5Q215.9 62.2 214.9 62.2Q213.9 62.2 213.2 61.5Q212.5 60.9 212.5 59.8L212.5 59.8ZM213.6 59.2L213.6 59.8Q213.6 60.4 214.0 60.8Q214.3 61.2 214.9 61.2L214.9 61.2Q215.4 61.2 215.8 60.8Q216.1 60.5 216.1 59.8L216.1 59.8L216.1 59.2Q216.1 58.6 215.8 58.2Q215.4 57.8 214.9 57.8L214.9 57.8Q214.3 57.8 214.0 58.2Q213.6 58.6 213.6 59.2L213.6 59.2ZM215.2 52.3L209.7 61.1L208.9 60.6L214.4 51.7L215.2 52.3Z "/></g><mask id="satori_om-id-1-4"><rect x="228" y="47" width="109" height="19" fill="#fff"/></mask><mask id="satori_om-id-1-4-0"><rect x="228" y="49" width="16" height="16" fill="#fff"/></mask><mask id="satori_om-id-1-4-0-0"><rect x="232" y="53" width="8" height="8" fill="#fff"/></mask><path x="232" y="53" width="8" height="8" fill="#701516" d="M236,53 h0 a4,4 0 0 1 4,4 v0 a4,4 0 0 1 -4,4 h0 a4,4 0 0 1 -4,-4 v0 a4,4 0 0 1 4,-4"/><mask id="satori_om-id-1-4-1"><rect x="257" y="47" width="37" height="19" fill="#fff"/></mask><g  ><path fill="#fff" d="M264.4 62L262.2 57.8L260.4 57.8L260.4 62L258.0 62L258.0 50.6L262.2 50.6Q264.3 50.6 265.4 51.5Q266.4 52.4 266.4 54.1L266.4 54.1Q266.4 55.2 265.9 56.0Q265.4 56.8 264.4 57.2L264.4 57.2L266.9 61.9L266.9 62L264.4 62ZM260.4 52.5L260.4 55.9L262.3 55.9Q263.1 55.9 263.6 55.5Q264.1 55.0 264.1 54.3L264.1 54.3Q264.1 53.4 263.6 53.0Q263.2 52.5 262.2 52.5L262.2 52.5L260.4 52.5ZM273.2 62L273.1 61.1Q272.3 62.2 270.8 62.2L270.8 62.2Q269.5 62.2 268.8 61.4Q268.0 60.6 268.0 59.1L268.0 59.1L268.0 53.5L270.3 53.5L270.3 59.0Q270.3 60.3 271.5 60.3L271.5 60.3Q272.6 60.3 273.1 59.5L273.1 59.5L273.1 53.5L275.3 53.5L275.3 62L273.2 62ZM284.6 57.7L284.6 57.9Q284.6 59.9 283.8 61.0Q282.9 62.2 281.4 62.2L281.4 62.2Q280.0 62.2 279.2 61.1L279.2 61.1L279.1 62L277.0 62L277.0 50L279.3 50L279.3 54.3Q280.1 53.4 281.3 53.4L281.3 53.4Q282.9 53.4 283.8 54.5Q284.6 55.7 284.6 57.7L284.6 57.7ZM282.4 57.7L282.4 57.7Q282.4 56.4 282.0 55.8Q281.6 55.2 280.8 55.2L280.8 55.2Q279.7 55.2 279.3 56.1L279.3 56.1L279.3 59.4Q279.7 60.3 280.8 60.3L280.8 60.3Q281.9 60.3 282.2 59.3L282.2 59.3Q282.4 58.7 282.4 57.7ZM287.5 53.5L289.1 58.8L290.7 53.5L293.1 53.5L289.7 63.3L289.5 63.8Q288.8 65.4 287.0 65.4L287.0 65.4Q286.5 65.4 286.0 65.3L286.0 65.3L286.0 63.6L286.4 63.6Q287.0 63.6 287.3 63.4Q287.6 63.2 287.8 62.7L287.8 62.7L288.1 62.0L285.1 53.5L287.5 53.5Z "/></g><mask id="satori_om-id-1-4-2"><rect x="303" y="47" width="34" height="19" fill="#fff"/></mask><g  ><path fill="#7d8590" d="M311.3 50.6L311.3 51.4L306.6 62L305.1 62L309.8 51.8L303.6 51.8L303.6 50.6L311.3 50.6ZM313.1 61.2L313.1 61.2Q313.1 60.9 313.3 60.6Q313.6 60.4 314 60.4Q314.4 60.4 314.7 60.6Q314.9 60.9 314.9 61.2L314.9 61.2Q314.9 61.6 314.7 61.8Q314.4 62.1 314 62.1Q313.6 62.1 313.3 61.8Q313.1 61.6 313.1 61.2ZM324.3 55.3L324.3 57.1Q324.3 59.7 323.4 60.9Q322.5 62.2 320.7 62.2L320.7 62.2Q318.9 62.2 318 60.9Q317.1 59.7 317.1 57.3L317.1 57.3L317.1 55.4Q317.1 52.9 318.0 51.7Q318.8 50.5 320.7 50.5L320.7 50.5Q322.5 50.5 323.4 51.6Q324.3 52.8 324.3 55.3L324.3 55.3ZM322.8 57.5L322.8 55.2Q322.8 53.3 322.3 52.5Q321.8 51.7 320.7 51.7L320.7 51.7Q319.6 51.7 319.1 52.5Q318.6 53.3 318.5 55.1L318.5 55.1L318.5 57.4Q318.5 59.2 319.1 60.1Q319.6 61.0 320.7 61.0L320.7 61.0Q321.8 61.0 322.3 60.1Q322.8 59.3 322.8 57.5L322.8 57.5ZM326 53.4L326 52.8Q326 51.8 326.7 51.1Q327.3 50.5 328.3 50.5L328.3 50.5Q329.4 50.5 330.0 51.1Q330.7 51.8 330.7 52.9L330.7 52.9L330.7 53.4Q330.7 54.4 330.0 55.1Q329.4 55.8 328.3 55.8L328.3 55.8Q327.3 55.8 326.7 55.1Q326 54.4 326 53.4L326 53.4ZM327.1 52.8L327.1 53.4Q327.1 54.0 327.4 54.4Q327.8 54.8 328.3 54.8L328.3 54.8Q328.9 54.8 329.2 54.4Q329.6 54.0 329.6 53.4L329.6 53.4L329.6 52.8Q329.6 52.2 329.2 51.8Q328.9 51.4 328.3 51.4Q327.8 51.4 327.4 51.8Q327.1 52.2 327.1 52.8L327.1 52.8ZM331.5 59.8L331.5 59.2Q331.5 58.2 332.2 57.5Q332.8 56.9 333.9 56.9Q334.9 56.9 335.5 57.5Q336.2 58.2 336.2 59.3L336.2 59.3L336.2 59.8Q336.2 60.8 335.6 61.5Q334.9 62.2 333.9 62.2Q332.9 62.2 332.2 61.5Q331.5 60.9 331.5 59.8L331.5 59.8ZM332.6 59.2L332.6 59.8Q332.6 60.4 333.0 60.8Q333.3 61.2 333.9 61.2L333.9 61.2Q334.4 61.2 334.8 60.8Q335.1 60.5 335.1 59.8L335.1 59.8L335.1 59.2Q335.1 58.6 334.8 58.2Q334.4 57.8 333.9 57.8L333.9 57.8Q333.3 57.8 333.0 58.2Q332.6 58.6 332.6 59.2L332.6 59.2ZM334.2 52.3L328.7 61.1L327.9 60.6L333.4 51.7L334.2 52.3Z "/></g><mask id="satori_om-id-1-5"><rect x="0" y="76" width="103" height="19" fill="#fff"/></mask><mask id="satori_om-id-1-5-0"><rect x="0" y="78" width="16" height="16" fill="#fff"/></mask><mask id="satori_om-id-1-5-0-0"><rect x="4" y="82" width="8" height="8" fill="#fff"/></mask><path x="4" y="82" width="8" height="8" fill="#844FBA" d="M8,82 h0 a4,4 0 0 1 4,4 v0 a4,4 0 0 1 -4,4 h0 a4,4 0 0 1 -4,-4 v0 a4,4 0 0 1 4,-4"/><mask id="satori_om-id-1-5-1"><rect x="29" y="76" width="31" height="19" fill="#fff"/></mask><g  ><path fill="#fff" d="M39.3 79.6L39.3 91L36.9 91L36.9 86.1L32.4 86.1L32.4 91L30.0 91L30.0 79.6L32.4 79.6L32.4 84.2L36.9 84.2L36.9 79.6L39.3 79.6ZM47.9 87.2L50.3 87.2Q50.1 89.0 48.9 90.1Q47.7 91.2 45.7 91.2L45.7 91.2Q43.5 91.2 42.2 89.7Q41.0 88.2 41.0 85.6L41.0 85.6L41.0 84.9Q41.0 83.3 41.6 82.1Q42.1 80.8 43.2 80.1Q44.3 79.5 45.7 79.5L45.7 79.5Q47.7 79.5 48.9 80.5Q50.1 81.6 50.3 83.5L50.3 83.5L47.9 83.5Q47.8 82.4 47.3 81.9Q46.8 81.4 45.7 81.4L45.7 81.4Q44.5 81.4 43.9 82.2Q43.4 83.1 43.4 84.8L43.4 84.8L43.4 85.7Q43.4 87.5 43.9 88.4Q44.5 89.2 45.7 89.2L45.7 89.2Q46.8 89.2 47.3 88.7Q47.8 88.3 47.9 87.2L47.9 87.2ZM54.1 79.6L54.1 89.1L59.1 89.1L59.1 91L51.8 91L51.8 79.6L54.1 79.6Z "/></g><mask id="satori_om-id-1-5-2"><rect x="69" y="76" width="34" height="19" fill="#fff"/></mask><g  ><path fill="#7d8590" d="M72.0 85.8L72.0 84.6L73.1 84.6Q74.2 84.6 74.7 84.1Q75.3 83.5 75.3 82.7L75.3 82.7Q75.3 80.7 73.3 80.7L73.3 80.7Q72.4 80.7 71.8 81.2Q71.3 81.7 71.3 82.6L71.3 82.6L69.8 82.6Q69.8 81.3 70.8 80.4Q71.8 79.5 73.3 79.5L73.3 79.5Q74.9 79.5 75.9 80.3Q76.8 81.2 76.8 82.7L76.8 82.7Q76.8 83.4 76.3 84.1Q75.8 84.8 75.0 85.2L75.0 85.2Q75.9 85.5 76.4 86.1Q76.9 86.8 76.9 87.8L76.9 87.8Q76.9 89.4 75.9 90.3Q74.9 91.2 73.3 91.2Q71.7 91.2 70.7 90.3Q69.7 89.4 69.7 88L69.7 88L71.2 88Q71.2 88.9 71.8 89.4Q72.4 90.0 73.3 90.0L73.3 90.0Q74.4 90.0 74.9 89.4Q75.5 88.9 75.5 87.9L75.5 87.9Q75.5 86.9 74.9 86.3Q74.3 85.8 73.1 85.8L73.1 85.8L72.0 85.8ZM79.1 90.2L79.1 90.2Q79.1 89.9 79.3 89.6Q79.6 89.4 80 89.4Q80.4 89.4 80.7 89.6Q80.9 89.9 80.9 90.2L80.9 90.2Q80.9 90.6 80.7 90.8Q80.4 91.1 80 91.1Q79.6 91.1 79.3 90.8Q79.1 90.6 79.1 90.2ZM90.0 82.6L90.0 82.6Q90.0 83.4 89.6 84.1Q89.1 84.8 88.4 85.1L88.4 85.1Q89.3 85.5 89.8 86.3Q90.3 87 90.3 87.9L90.3 87.9Q90.3 89.4 89.3 90.3Q88.3 91.2 86.7 91.2L86.7 91.2Q85.0 91.2 84.1 90.3Q83.1 89.4 83.1 87.9L83.1 87.9Q83.1 87.0 83.6 86.3Q84.1 85.5 85.0 85.1L85.0 85.1Q84.2 84.8 83.8 84.1Q83.3 83.4 83.3 82.6L83.3 82.6Q83.3 81.2 84.3 80.3Q85.2 79.5 86.7 79.5L86.7 79.5Q88.2 79.5 89.1 80.3Q90.0 81.2 90.0 82.6ZM88.9 87.9L88.9 87.9Q88.9 86.9 88.3 86.3Q87.6 85.7 86.7 85.7Q85.7 85.7 85.1 86.3Q84.5 86.9 84.5 87.9Q84.5 88.9 85.1 89.4Q85.7 90.0 86.7 90.0L86.7 90.0Q87.7 90.0 88.3 89.4Q88.9 88.9 88.9 87.9ZM86.7 80.7L86.7 80.7Q85.8 80.7 85.3 81.2Q84.8 81.7 84.8 82.6L84.8 82.6Q84.8 83.5 85.3 84.0Q85.8 84.6 86.7 84.6Q87.6 84.6 88.1 84.0Q88.6 83.5 88.6 82.6Q88.6 81.8 88.1 81.2Q87.5 80.7 86.7 80.7ZM92 82.4L92 81.8Q92 80.8 92.7 80.1Q93.3 79.5 94.3 79.5L94.3 79.5Q95.4 79.5 96.0 80.1Q96.7 80.8 96.7 81.9L96.7 81.9L96.7 82.4Q96.7 83.4 96.0 84.1Q95.4 84.8 94.3 84.8L94.3 84.8Q93.3 84.8 92.7 84.1Q92 83.4 92 82.4L92 82.4ZM93.1 81.8L93.1 82.4Q93.1 83.0 93.4 83.4Q93.8 83.8 94.3 83.8L94.3 83.8Q94.9 83.8 95.2 83.4Q95.6 83.0 95.6 82.4L95.6 82.4L95.6 81.8Q95.6 81.2 95.2 80.8Q94.9 80.4 94.3 80.4Q93.8 80.4 93.4 80.8Q93.1 81.2 93.1 81.8L93.1 81.8ZM97.5 88.8L97.5 88.2Q97.5 87.2 98.2 86.5Q98.8 85.9 99.9 85.9Q100.9 85.9 101.5 86.5Q102.2 87.2 102.2 88.3L102.2 88.3L102.2 88.8Q102.2 89.8 101.6 90.5Q100.9 91.2 99.9 91.2Q98.9 91.2 98.2 90.5Q97.5 89.9 97.5 88.8L97.5 88.8ZM98.6 88.2L98.6 88.8Q98.6 89.4 99.0 89.8Q99.3 90.2 99.9 90.2L99.9 90.2Q100.4 90.2 100.8 89.8Q101.1 89.5 101.1 88.8L101.1 88.8L101.1 88.2Q101.1 87.6 100.8 87.2Q100.4 86.8 99.9 86.8L99.9 86.8Q99.3 86.8 99.0 87.2Q98.6 87.6 98.6 88.2L98.6 88.2ZM100.2 81.3L94.7 90.1L93.9 89.6L99.4 80.7L100.2 81.3Z "/></g><mask id="satori_om-id-1-6"><rect x="113" y="76" width="149" height="19" fill="#fff"/></mask><mask id="satori_om-id-1-6-0"><rect x="113" y="78" width="16" height="16" fill="#fff"/></mask><mask id="satori_om-id-1-6-0-0"><rect x="117" y="82" width="8" height="8" fill="#fff"/></mask><path x="117" y="82" width="8" height="8" fill="#f1e05a" d="M121,82 h0 a4,4 0 0 1 4,4 v0 a4,4 0 0 1 -4,4 h0 a4,4 0 0 1 -4,-4 v0 a4,4 0 0 1 4,-4"/><mask id="satori_om-id-1-6-1"><rect x="142" y="76" width="77" height="19" fill="#fff"/></mask><g  ><path fill="#fff" d="M147.6 87.5L147.6 79.6L149.9 79.6L149.9 87.5Q149.9 88.6 149.5 89.4Q149.0 90.3 148.1 90.7Q147.2 91.2 146.1 91.2L146.1 91.2Q144.3 91.2 143.3 90.2Q142.3 89.3 142.3 87.6L142.3 87.6L144.7 87.6Q144.7 88.5 145.0 88.9Q145.4 89.3 146.1 89.3L146.1 89.3Q146.8 89.3 147.2 88.8Q147.6 88.4 147.6 87.5L147.6 87.5ZM159.0 91L156.7 91Q156.5 90.7 156.5 90.2L156.5 90.2Q155.7 91.2 154.3 91.2L154.3 91.2Q153.1 91.2 152.3 90.4Q151.5 89.7 151.5 88.6L151.5 88.6Q151.5 87.3 152.5 86.6Q153.5 85.8 155.3 85.8L155.3 85.8L156.4 85.8L156.4 85.4Q156.4 84.8 156.1 84.4Q155.8 84.1 155.1 84.1L155.1 84.1Q154.6 84.1 154.2 84.3Q153.9 84.6 153.9 85.1L153.9 85.1L151.7 85.1Q151.7 84.4 152.1 83.7Q152.6 83.1 153.4 82.7Q154.2 82.4 155.3 82.4L155.3 82.4Q156.8 82.4 157.7 83.2Q158.6 84.0 158.6 85.4L158.6 85.4L158.6 89.0Q158.7 90.3 159.0 90.9L159.0 90.9L159.0 91ZM154.8 89.4L154.8 89.4Q155.3 89.4 155.8 89.2Q156.2 89.0 156.4 88.6L156.4 88.6L156.4 87.2L155.5 87.2Q153.8 87.2 153.7 88.3L153.7 88.3L153.7 88.5Q153.7 88.9 154.0 89.2Q154.3 89.4 154.8 89.4ZM161.9 82.5L163.4 88.2L165 82.5L167.4 82.5L164.5 91L162.4 91L159.5 82.5L161.9 82.5ZM175.4 91L173.1 91Q173.0 90.7 172.9 90.2L172.9 90.2Q172.1 91.2 170.8 91.2L170.8 91.2Q169.5 91.2 168.7 90.4Q167.9 89.7 167.9 88.6L167.9 88.6Q167.9 87.3 168.9 86.6Q169.9 85.8 171.8 85.8L171.8 85.8L172.8 85.8L172.8 85.4Q172.8 84.8 172.5 84.4Q172.2 84.1 171.6 84.1L171.6 84.1Q171.0 84.1 170.7 84.3Q170.3 84.6 170.3 85.1L170.3 85.1L168.1 85.1Q168.1 84.4 168.5 83.7Q169.0 83.1 169.8 82.7Q170.6 82.4 171.7 82.4L171.7 82.4Q173.2 82.4 174.2 83.2Q175.1 84.0 175.1 85.4L175.1 85.4L175.1 89.0Q175.1 90.3 175.4 90.9L175.4 90.9L175.4 91ZM171.3 89.4L171.3 89.4Q171.8 89.4 172.2 89.2Q172.6 89.0 172.8 88.6L172.8 88.6L172.8 87.2L172.0 87.2Q170.3 87.2 170.2 88.3L170.2 88.3L170.2 88.5Q170.2 88.9 170.5 89.2Q170.8 89.4 171.3 89.4ZM182.9 88.0L182.9 88.0Q182.9 87.4 182.4 87.0Q181.9 86.6 180.7 86.2Q179.5 85.9 178.8 85.5L178.8 85.5Q176.8 84.4 176.8 82.6L176.8 82.6Q176.8 81.7 177.4 81.0Q177.9 80.3 178.8 79.9Q179.8 79.5 181.0 79.5L181.0 79.5Q182.3 79.5 183.2 79.9Q184.2 80.4 184.7 81.2Q185.2 82.0 185.2 83.0L185.2 83.0L182.9 83.0Q182.9 82.2 182.4 81.8Q181.9 81.3 181.0 81.3L181.0 81.3Q180.1 81.3 179.7 81.7Q179.2 82.1 179.2 82.7L179.2 82.7Q179.2 83.2 179.7 83.6Q180.3 84.0 181.4 84.3L181.4 84.3Q183.4 84.9 184.3 85.8Q185.2 86.7 185.2 88L185.2 88Q185.2 89.5 184.1 90.3Q183.0 91.2 181.1 91.2L181.1 91.2Q179.8 91.2 178.7 90.7Q177.6 90.2 177.1 89.4Q176.5 88.5 176.5 87.4L176.5 87.4L178.8 87.4Q178.8 89.3 181.1 89.3L181.1 89.3Q181.9 89.3 182.4 89.0Q182.9 88.6 182.9 88.0ZM190.2 89.3L190.2 89.3Q190.8 89.3 191.2 89.0Q191.6 88.6 191.6 88.1L191.6 88.1L193.7 88.1Q193.7 88.9 193.2 89.7Q192.8 90.4 192.0 90.8Q191.2 91.2 190.2 91.2L190.2 91.2Q188.4 91.2 187.3 90.0Q186.3 88.9 186.3 86.8L186.3 86.8L186.3 86.7Q186.3 84.7 187.3 83.6Q188.4 82.4 190.2 82.4L190.2 82.4Q191.8 82.4 192.7 83.3Q193.7 84.2 193.7 85.7L193.7 85.7L191.6 85.7Q191.6 85.0 191.2 84.6Q190.8 84.2 190.1 84.2L190.1 84.2Q189.4 84.2 189.0 84.8Q188.6 85.4 188.6 86.7L188.6 86.7L188.6 86.9Q188.6 88.2 189.0 88.8Q189.4 89.3 190.2 89.3ZM199.8 82.5L199.7 84.7Q199.3 84.6 198.9 84.6L198.9 84.6Q197.6 84.6 197.3 85.5L197.3 85.5L197.3 91L195.0 91L195.0 82.5L197.1 82.5L197.2 83.6Q197.9 82.4 199.1 82.4L199.1 82.4Q199.4 82.4 199.8 82.5L199.8 82.5ZM203.2 82.5L203.2 91L200.9 91L200.9 82.5L203.2 82.5ZM200.8 80.4L200.8 80.4Q200.8 79.9 201.2 79.5Q201.5 79.2 202.1 79.2L202.1 79.2Q202.7 79.2 203 79.5Q203.3 79.9 203.3 80.4L203.3 80.4Q203.3 80.9 203.0 81.2Q202.6 81.5 202.1 81.5Q201.5 81.5 201.2 81.2Q200.8 80.9 200.8 80.4ZM212.7 86.7L212.7 86.9Q212.7 88.8 211.8 90.0Q210.9 91.2 209.4 91.2L209.4 91.2Q208.1 91.2 207.3 90.3L207.3 90.3L207.3 94.3L205.1 94.3L205.1 82.5L207.2 82.5L207.2 83.4Q208.1 82.4 209.4 82.4L209.4 82.4Q210.9 82.4 211.8 83.5Q212.7 84.7 212.7 86.7L212.7 86.7ZM210.4 86.7L210.4 86.7Q210.4 85.5 210.0 84.9Q209.6 84.2 208.8 84.2L208.8 84.2Q207.7 84.2 207.3 85.0L207.3 85.0L207.3 88.5Q207.7 89.3 208.8 89.3L208.8 89.3Q210.4 89.3 210.4 86.7ZM214.5 80.5L216.8 80.5L216.8 82.5L218.2 82.5L218.2 84.2L216.8 84.2L216.8 88.4Q216.8 88.9 217.0 89.1Q217.1 89.3 217.6 89.3L217.6 89.3Q218.0 89.3 218.3 89.2L218.3 89.2L218.3 91.0Q217.6 91.2 216.9 91.2L216.9 91.2Q214.6 91.2 214.5 88.8L214.5 88.8L214.5 84.2L213.3 84.2L213.3 82.5L214.5 82.5L214.5 80.5Z "/></g><mask id="satori_om-id-1-6-2"><rect x="228" y="76" width="34" height="19" fill="#fff"/></mask><g  ><path fill="#7d8590" d="M236.4 89.8L236.4 91L228.9 91L228.9 90.0L232.9 85.6Q233.8 84.6 234.1 84.0Q234.4 83.4 234.4 82.7L234.4 82.7Q234.4 81.8 233.9 81.2Q233.3 80.7 232.4 80.7L232.4 80.7Q231.4 80.7 230.8 81.3Q230.2 81.9 230.2 83.0L230.2 83.0L228.7 83.0Q228.7 81.4 229.7 80.4Q230.8 79.5 232.4 79.5L232.4 79.5Q234.0 79.5 235.0 80.3Q235.9 81.1 235.9 82.5L235.9 82.5Q235.9 84.2 233.7 86.5L233.7 86.5L230.7 89.8L236.4 89.8ZM238.1 90.2L238.1 90.2Q238.1 89.9 238.3 89.6Q238.6 89.4 239 89.4Q239.4 89.4 239.7 89.6Q239.9 89.9 239.9 90.2L239.9 90.2Q239.9 90.6 239.7 90.8Q239.4 91.1 239 91.1Q238.6 91.1 238.3 90.8Q238.1 90.6 238.1 90.2ZM247.7 86L247.7 86Q247.2 86.5 246.6 86.9Q246.0 87.2 245.2 87.2L245.2 87.2Q244.2 87.2 243.5 86.7Q242.8 86.2 242.4 85.3Q242.0 84.5 242.0 83.4L242.0 83.4Q242.0 82.3 242.4 81.4Q242.8 80.4 243.6 80.0Q244.4 79.5 245.5 79.5L245.5 79.5Q247.2 79.5 248.2 80.7Q249.1 82.0 249.1 84.2L249.1 84.2L249.1 84.6Q249.1 87.9 247.8 89.4Q246.5 91.0 243.9 91.0L243.9 91.0L243.6 91.0L243.6 89.8L243.9 89.8Q245.7 89.8 246.6 88.9Q247.6 88.0 247.7 86ZM245.5 86L245.5 86Q246.2 86 246.8 85.6Q247.4 85.1 247.7 84.5L247.7 84.5L247.7 83.9Q247.7 82.5 247.1 81.6Q246.5 80.7 245.5 80.7L245.5 80.7Q244.6 80.7 244.0 81.4Q243.4 82.1 243.4 83.3L243.4 83.3Q243.4 84.5 244.0 85.2Q244.5 86 245.5 86ZM251 82.4L251 81.8Q251 80.8 251.7 80.1Q252.3 79.5 253.3 79.5L253.3 79.5Q254.4 79.5 255.0 80.1Q255.7 80.8 255.7 81.9L255.7 81.9L255.7 82.4Q255.7 83.4 255.0 84.1Q254.4 84.8 253.3 84.8L253.3 84.8Q252.3 84.8 251.7 84.1Q251 83.4 251 82.4L251 82.4ZM252.1 81.8L252.1 82.4Q252.1 83.0 252.4 83.4Q252.8 83.8 253.3 83.8L253.3 83.8Q253.9 83.8 254.2 83.4Q254.6 83.0 254.6 82.4L254.6 82.4L254.6 81.8Q254.6 81.2 254.2 80.8Q253.9 80.4 253.3 80.4Q252.8 80.4 252.4 80.8Q252.1 81.2 252.1 81.8L252.1 81.8ZM256.5 88.8L256.5 88.2Q256.5 87.2 257.2 86.5Q257.8 85.9 258.9 85.9Q259.9 85.9 260.5 86.5Q261.2 87.2 261.2 88.3L261.2 88.3L261.2 88.8Q261.2 89.8 260.6 90.5Q259.9 91.2 258.9 91.2Q257.9 91.2 257.2 90.5Q256.5 89.9 256.5 88.8L256.5 88.8ZM257.6 88.2L257.6 88.8Q257.6 89.4 258.0 89.8Q258.3 90.2 258.9 90.2L258.9 90.2Q259.4 90.2 259.8 89.8Q260.1 89.5 260.1 88.8L260.1 88.8L260.1 88.2Q260.1 87.6 259.8 87.2Q259.4 86.8 258.9 86.8L258.9 86.8Q258.3 86.8 258.0 87.2Q257.6 87.6 257.6 88.2L257.6 88.2ZM259.2 81.3L253.7 90.1L252.9 89.6L258.4 80.7L259.2 81.3Z "/></g><mask id="satori_om-id-1-7"><rect x="0" y="105" width="105" height="19" fill="#fff"/></mask><mask id="satori_om-id-1-7-0"><rect x="0" y="107" width="16" height="16" fill="#fff"/></mask><mask id="satori_om-id-1-7-0-0"><rect x="4" y="111" width="8" height="8" fill="#fff"/></mask><path x="4" y="111" width="8" height="8" fill="#dea584" d="M8,111 h0 a4,4 0 0 1 4,4 v0 a4,4 0 0 1 -4,4 h0 a4,4 0 0 1 -4,-4 v0 a4,4 0 0 1 4,-4"/><mask id="satori_om-id-1-7-1"><rect x="29" y="105" width="33" height="19" fill="#fff"/></mask><g  ><path fill="#fff" d="M36.4 120L34.2 115.8L32.4 115.8L32.4 120L30.0 120L30.0 108.6L34.2 108.6Q36.3 108.6 37.4 109.5Q38.4 110.4 38.4 112.1L38.4 112.1Q38.4 113.2 37.9 114.0Q37.4 114.8 36.4 115.2L36.4 115.2L38.9 119.9L38.9 120L36.4 120ZM32.4 110.5L32.4 113.9L34.3 113.9Q35.1 113.9 35.6 113.5Q36.1 113.0 36.1 112.3L36.1 112.3Q36.1 111.4 35.6 111.0Q35.2 110.5 34.2 110.5L34.2 110.5L32.4 110.5ZM45.2 120L45.1 119.1Q44.3 120.2 42.8 120.2L42.8 120.2Q41.5 120.2 40.8 119.4Q40.0 118.6 40.0 117.1L40.0 117.1L40.0 111.5L42.3 111.5L42.3 117.0Q42.3 118.3 43.5 118.3L43.5 118.3Q44.6 118.3 45.1 117.5L45.1 117.5L45.1 111.5L47.3 111.5L47.3 120L45.2 120ZM53.6 117.7L53.6 117.7Q53.6 117.3 53.2 117.0Q52.8 116.8 51.9 116.6L51.9 116.6Q48.9 116.0 48.9 114.0L48.9 114.0Q48.9 112.9 49.8 112.1Q50.7 111.4 52.2 111.4L52.2 111.4Q53.9 111.4 54.8 112.1Q55.8 112.9 55.8 114.1L55.8 114.1L53.5 114.1Q53.5 113.6 53.2 113.3Q52.9 113 52.2 113L52.2 113Q51.7 113 51.4 113.3Q51.0 113.5 51.0 113.9L51.0 113.9Q51.0 114.3 51.4 114.5Q51.8 114.8 52.6 114.9Q53.4 115.1 54.0 115.3L54.0 115.3Q55.8 116.0 55.8 117.6L55.8 117.6Q55.8 118.7 54.8 119.4Q53.8 120.2 52.3 120.2L52.3 120.2Q51.2 120.2 50.4 119.8Q49.5 119.4 49.1 118.7Q48.6 118.1 48.6 117.3L48.6 117.3L50.7 117.3Q50.8 117.9 51.2 118.2Q51.6 118.6 52.3 118.6L52.3 118.6Q52.9 118.6 53.3 118.3Q53.6 118.1 53.6 117.7ZM57.7 109.5L60.0 109.5L60.0 111.5L61.4 111.5L61.4 113.2L60.0 113.2L60.0 117.4Q60.0 117.9 60.1 118.1Q60.3 118.3 60.8 118.3L60.8 118.3Q61.2 118.3 61.5 118.2L61.5 118.2L61.5 120.0Q60.8 120.2 60.1 120.2L60.1 120.2Q57.8 120.2 57.7 117.8L57.7 117.8L57.7 113.2L56.5 113.2L56.5 111.5L57.7 111.5L57.7 109.5Z "/></g><mask id="satori_om-id-1-7-2"><rect x="71" y="105" width="34" height="19" fill="#fff"/></mask><g  ><path fill="#7d8590" d="M79.4 118.8L79.4 120L71.9 120L71.9 119.0L75.9 114.6Q76.8 113.6 77.1 113.0Q77.4 112.4 77.4 111.7L77.4 111.7Q77.4 110.8 76.9 110.2Q76.3 109.7 75.4 109.7L75.4 109.7Q74.4 109.7 73.8 110.3Q73.2 110.9 73.2 112.0L73.2 112.0L71.7 112.0Q71.7 110.4 72.7 109.4Q73.8 108.5 75.4 108.5L75.4 108.5Q77.0 108.5 78.0 109.3Q78.9 110.1 78.9 111.5L78.9 111.5Q78.9 113.2 76.7 115.5L76.7 115.5L73.7 118.8L79.4 118.8ZM81.1 119.2L81.1 119.2Q81.1 118.9 81.3 118.6Q81.6 118.4 82 118.4Q82.4 118.4 82.7 118.6Q82.9 118.9 82.9 119.2L82.9 119.2Q82.9 119.6 82.7 119.8Q82.4 120.1 82 120.1Q81.6 120.1 81.3 119.8Q81.1 119.6 81.1 119.2ZM92.6 118.8L92.6 120L85.1 120L85.1 119.0L89.1 114.6Q90.0 113.6 90.3 113.0Q90.6 112.4 90.6 111.7L90.6 111.7Q90.6 110.8 90.1 110.2Q89.5 109.7 88.6 109.7L88.6 109.7Q87.6 109.7 87.0 110.3Q86.4 110.9 86.4 112.0L86.4 112.0L84.9 112.0Q84.9 110.4 85.9 109.4Q86.9 108.5 88.6 108.5L88.6 108.5Q90.2 108.5 91.1 109.3Q92.1 110.1 92.1 111.5L92.1 111.5Q92.1 113.2 89.9 115.5L89.9 115.5L86.9 118.8L92.6 118.8ZM94 111.4L94 110.8Q94 109.8 94.7 109.1Q95.3 108.5 96.3 108.5L96.3 108.5Q97.4 108.5 98.0 109.1Q98.7 109.8 98.7 110.9L98.7 110.9L98.7 111.4Q98.7 112.4 98.0 113.1Q97.4 113.8 96.3 113.8L96.3 113.8Q95.3 113.8 94.7 113.1Q94 112.4 94 111.4L94 111.4ZM95.1 110.8L95.1 111.4Q95.1 112.0 95.4 112.4Q95.8 112.8 96.3 112.8L96.3 112.8Q96.9 112.8 97.2 112.4Q97.6 112.0 97.6 111.4L97.6 111.4L97.6 110.8Q97.6 110.2 97.2 109.8Q96.9 109.4 96.3 109.4Q95.8 109.4 95.4 109.8Q95.1 110.2 95.1 110.8L95.1 110.8ZM99.5 117.8L99.5 117.2Q99.5 116.2 100.2 115.5Q100.8 114.9 101.9 114.9Q102.9 114.9 103.5 115.5Q104.2 116.2 104.2 117.3L104.2 117.3L104.2 117.8Q104.2 118.8 103.6 119.5Q102.9 120.2 101.9 120.2Q100.9 120.2 100.2 119.5Q99.5 118.9 99.5 117.8L99.5 117.8ZM100.6 117.2L100.6 117.8Q100.6 118.4 101.0 118.8Q101.3 119.2 101.9 119.2L101.9 119.2Q102.4 119.2 102.8 118.8Q103.1 118.5 103.1 117.8L103.1 117.8L103.1 117.2Q103.1 116.6 102.8 116.2Q102.4 115.8 101.9 115.8L101.9 115.8Q101.3 115.8 101.0 116.2Q100.6 116.6 100.6 117.2L100.6 117.2ZM102.2 110.3L96.7 119.1L95.9 118.6L101.4 109.7L102.2 110.3Z "/></g><mask id="satori_om-id-1-8"><rect x="115" y="105" width="103" height="19" fill="#fff"/></mask><mask id="satori_om-id-1-8-0"><rect x="115" y="107" width="16" height="16" fill="#fff"/></mask><mask id="satori_om-id-1-8-0-0"><rect x="119" y="111" width="8" height="8" fill="#fff"/></mask><path x="119" y="111" width="8" height="8" fill="#663399" d="M123,111 h0 a4,4 0 0 1 4,4 v0 a4,4 0 0 1 -4,4 h0 a4,4 0 0 1 -4,-4 v0 a4,4 0 0 1 4,-4"/><mask id="satori_om-id-1-8-1"><rect x="144" y="105" width="31" height="19" fill="#fff"/></mask><g  ><path fill="#fff" d="M151.6 116.2L153.9 116.2Q153.8 118.0 152.6 119.1Q151.4 120.2 149.4 120.2L149.4 120.2Q147.2 120.2 145.9 118.7Q144.7 117.2 144.7 114.6L144.7 114.6L144.7 113.9Q144.7 112.3 145.3 111.1Q145.8 109.8 146.9 109.1Q148.0 108.5 149.4 108.5L149.4 108.5Q151.4 108.5 152.6 109.5Q153.8 110.6 154.0 112.5L154.0 112.5L151.6 112.5Q151.5 111.4 151.0 110.9Q150.5 110.4 149.4 110.4L149.4 110.4Q148.2 110.4 147.6 111.2Q147.1 112.1 147.0 113.8L147.0 113.8L147.0 114.7Q147.0 116.5 147.6 117.4Q148.2 118.2 149.4 118.2L149.4 118.2Q150.5 118.2 151.0 117.7Q151.5 117.3 151.6 116.2L151.6 116.2ZM161.4 117.0L161.4 117.0Q161.4 116.4 160.9 116.0Q160.4 115.6 159.2 115.2Q158.0 114.9 157.3 114.5L157.3 114.5Q155.4 113.4 155.4 111.6L155.4 111.6Q155.4 110.7 155.9 110.0Q156.4 109.3 157.4 108.9Q158.3 108.5 159.6 108.5L159.6 108.5Q160.8 108.5 161.7 108.9Q162.7 109.4 163.2 110.2Q163.7 111.0 163.7 112.0L163.7 112.0L161.4 112.0Q161.4 111.2 160.9 110.8Q160.4 110.3 159.5 110.3L159.5 110.3Q158.7 110.3 158.2 110.7Q157.7 111.1 157.7 111.7L157.7 111.7Q157.7 112.2 158.3 112.6Q158.8 113.0 159.9 113.3L159.9 113.3Q161.9 113.9 162.8 114.8Q163.7 115.7 163.7 117L163.7 117Q163.7 118.5 162.6 119.3Q161.5 120.2 159.6 120.2L159.6 120.2Q158.3 120.2 157.2 119.7Q156.1 119.2 155.6 118.4Q155.0 117.5 155.0 116.4L155.0 116.4L157.4 116.4Q157.4 118.3 159.6 118.3L159.6 118.3Q160.4 118.3 160.9 118.0Q161.4 117.6 161.4 117.0ZM171.2 117.0L171.2 117.0Q171.2 116.4 170.8 116.0Q170.3 115.6 169.1 115.2Q167.8 114.9 167.1 114.5L167.1 114.5Q165.2 113.4 165.2 111.6L165.2 111.6Q165.2 110.7 165.7 110.0Q166.2 109.3 167.2 108.9Q168.2 108.5 169.4 108.5L169.4 108.5Q170.6 108.5 171.6 108.9Q172.5 109.4 173.0 110.2Q173.6 111.0 173.6 112.0L173.6 112.0L171.2 112.0Q171.2 111.2 170.7 110.8Q170.2 110.3 169.4 110.3L169.4 110.3Q168.5 110.3 168.0 110.7Q167.5 111.1 167.5 111.7L167.5 111.7Q167.5 112.2 168.1 112.6Q168.7 113.0 169.7 113.3L169.7 113.3Q171.7 113.9 172.7 114.8Q173.6 115.7 173.6 117L173.6 117Q173.6 118.5 172.5 119.3Q171.3 120.2 169.4 120.2L169.4 120.2Q168.1 120.2 167.1 119.7Q166.0 119.2 165.4 118.4Q164.8 117.5 164.8 116.4L164.8 116.4L167.2 116.4Q167.2 118.3 169.4 118.3L169.4 118.3Q170.3 118.3 170.8 118.0Q171.2 117.6 171.2 117.0Z "/></g><mask id="satori_om-id-1-8-2"><rect x="184" y="105" width="34" height="19" fill="#fff"/></mask><g  ><path fill="#7d8590" d="M192.4 118.8L192.4 120L184.9 120L184.9 119.0L188.9 114.6Q189.8 113.6 190.1 113.0Q190.4 112.4 190.4 111.7L190.4 111.7Q190.4 110.8 189.9 110.2Q189.3 109.7 188.4 109.7L188.4 109.7Q187.4 109.7 186.8 110.3Q186.2 110.9 186.2 112.0L186.2 112.0L184.7 112.0Q184.7 110.4 185.7 109.4Q186.8 108.5 188.4 108.5L188.4 108.5Q190.0 108.5 191.0 109.3Q191.9 110.1 191.9 111.5L191.9 111.5Q191.9 113.2 189.7 115.5L189.7 115.5L186.7 118.8L192.4 118.8ZM194.1 119.2L194.1 119.2Q194.1 118.9 194.3 118.6Q194.6 118.4 195 118.4Q195.4 118.4 195.7 118.6Q195.9 118.9 195.9 119.2L195.9 119.2Q195.9 119.6 195.7 119.8Q195.4 120.1 195 120.1Q194.6 120.1 194.3 119.8Q194.1 119.6 194.1 119.2ZM202.9 108.6L202.9 120L201.4 120L201.4 110.4L198.5 111.4L198.5 110.1L202.7 108.6L202.9 108.6ZM207 111.4L207 110.8Q207 109.8 207.7 109.1Q208.3 108.5 209.3 108.5L209.3 108.5Q210.4 108.5 211.0 109.1Q211.7 109.8 211.7 110.9L211.7 110.9L211.7 111.4Q211.7 112.4 211.0 113.1Q210.4 113.8 209.3 113.8L209.3 113.8Q208.3 113.8 207.7 113.1Q207 112.4 207 111.4L207 111.4ZM208.1 110.8L208.1 111.4Q208.1 112.0 208.4 112.4Q208.8 112.8 209.3 112.8L209.3 112.8Q209.9 112.8 210.2 112.4Q210.6 112.0 210.6 111.4L210.6 111.4L210.6 110.8Q210.6 110.2 210.2 109.8Q209.9 109.4 209.3 109.4Q208.8 109.4 208.4 109.8Q208.1 110.2 208.1 110.8L208.1 110.8ZM212.5 117.8L212.5 117.2Q212.5 116.2 213.2 115.5Q213.8 114.9 214.9 114.9Q215.9 114.9 216.5 115.5Q217.2 116.2 217.2 117.3L217.2 117.3L217.2 117.8Q217.2 118.8 216.6 119.5Q215.9 120.2 214.9 120.2Q213.9 120.2 213.2 119.5Q212.5 118.9 212.5 117.8L212.5 117.8ZM213.6 117.2L213.6 117.8Q213.6 118.4 214.0 118.8Q214.3 119.2 214.9 119.2L214.9 119.2Q215.4 119.2 215.8 118.8Q216.1 118.5 216.1 117.8L216.1 117.8L216.1 117.2Q216.1 116.6 215.8 116.2Q215.4 115.8 214.9 115.8L214.9 115.8Q214.3 115.8 214.0 116.2Q213.6 116.6 213.6 117.2L213.6 117.2ZM215.2 110.3L209.7 119.1L208.9 118.6L214.4 109.7L215.2 110.3Z "/></g><mask id="satori_om-id-1-9"><rect x="228" y="105" width="115" height="19" fill="#fff"/></mask><mask id="satori_om-id-1-9-0"><rect x="228" y="107" width="16" height="16" fill="#fff"/></mask><mask id="satori_om-id-1-9-0-0"><rect x="232" y="111" width="8" height="8" fill="#fff"/></mask><path x="232" y="111" width="8" height="8" fill="#A97BFF" d="M236,111 h0 a4,4 0 0 1 4,4 v0 a4,4 0 0 1 -4,4 h0 a4,4 0 0 1 -4,-4 v0 a4,4 0 0 1 4,-4"/><mask id="satori_om-id-1-9-1"><rect x="257" y="105" width="43" height="19" fill="#fff"/></mask><g  ><path fill="#fff" d="M264.5 120L261.6 115.4L260.4 116.8L260.4 120L258.0 120L258.0 108.6L260.4 108.6L260.4 113.8L261.4 112.4L264.3 108.6L267.2 108.6L263.1 113.7L267.3 120L264.5 120ZM267.5 115.8L267.5 115.7Q267.5 114.4 267.9 113.5Q268.4 112.5 269.3 111.9Q270.3 111.4 271.5 111.4L271.5 111.4Q273.2 111.4 274.2 112.4Q275.3 113.5 275.5 115.3L275.5 115.3L275.5 115.9Q275.5 117.8 274.4 119.0Q273.3 120.2 271.5 120.2Q269.6 120.2 268.6 119.0Q267.5 117.8 267.5 115.8L267.5 115.8ZM269.7 115.9L269.7 115.9Q269.7 117.1 270.2 117.7Q270.6 118.3 271.5 118.3L271.5 118.3Q272.3 118.3 272.8 117.7Q273.2 117.1 273.2 115.7L273.2 115.7Q273.2 114.5 272.8 113.9Q272.3 113.2 271.5 113.2L271.5 113.2Q270.6 113.2 270.2 113.9Q269.7 114.5 269.7 115.9ZM277.3 109.5L279.6 109.5L279.6 111.5L281.0 111.5L281.0 113.2L279.6 113.2L279.6 117.4Q279.6 117.9 279.7 118.1Q279.9 118.3 280.4 118.3L280.4 118.3Q280.8 118.3 281.1 118.2L281.1 118.2L281.1 120.0Q280.4 120.2 279.7 120.2L279.7 120.2Q277.4 120.2 277.3 117.8L277.3 117.8L277.3 113.2L276.1 113.2L276.1 111.5L277.3 111.5L277.3 109.5ZM284.6 108L284.6 120L282.4 120L282.4 108L284.6 108ZM288.9 111.5L288.9 120L286.6 120L286.6 111.5L288.9 111.5ZM286.5 109.4L286.5 109.4Q286.5 108.9 286.8 108.5Q287.2 108.2 287.8 108.2L287.8 108.2Q288.3 108.2 288.7 108.5Q289.0 108.9 289.0 109.4L289.0 109.4Q289.0 109.9 288.7 110.2Q288.3 110.5 287.8 110.5Q287.2 110.5 286.8 110.2Q286.5 109.9 286.5 109.4ZM290.7 111.5L292.8 111.5L292.9 112.5Q293.8 111.4 295.3 111.4L295.3 111.4Q296.7 111.4 297.3 112.2Q298.0 113.0 298 114.5L298 114.5L298 120L295.7 120L295.7 114.6Q295.7 113.9 295.4 113.6Q295.1 113.2 294.4 113.2L294.4 113.2Q293.4 113.2 293.0 114.0L293.0 114.0L293.0 120L290.7 120L290.7 111.5Z "/></g><mask id="satori_om-id-1-9-2"><rect x="309" y="105" width="34" height="19" fill="#fff"/></mask><g  ><path fill="#7d8590" d="M317.4 118.8L317.4 120L309.9 120L309.9 119.0L313.9 114.6Q314.8 113.6 315.1 113.0Q315.4 112.4 315.4 111.7L315.4 111.7Q315.4 110.8 314.9 110.2Q314.3 109.7 313.4 109.7L313.4 109.7Q312.4 109.7 311.8 110.3Q311.2 110.9 311.2 112.0L311.2 112.0L309.7 112.0Q309.7 110.4 310.7 109.4Q311.8 108.5 313.4 108.5L313.4 108.5Q315.0 108.5 316.0 109.3Q316.9 110.1 316.9 111.5L316.9 111.5Q316.9 113.2 314.7 115.5L314.7 115.5L311.7 118.8L317.4 118.8ZM319.1 119.2L319.1 119.2Q319.1 118.9 319.3 118.6Q319.6 118.4 320 118.4Q320.4 118.4 320.7 118.6Q320.9 118.9 320.9 119.2L320.9 119.2Q320.9 119.6 320.7 119.8Q320.4 120.1 320 120.1Q319.6 120.1 319.3 119.8Q319.1 119.6 319.1 119.2ZM330.3 113.3L330.3 115.1Q330.3 117.7 329.4 118.9Q328.5 120.2 326.7 120.2L326.7 120.2Q324.9 120.2 324 118.9Q323.1 117.7 323.1 115.3L323.1 115.3L323.1 113.4Q323.1 110.9 324.0 109.7Q324.8 108.5 326.7 108.5L326.7 108.5Q328.5 108.5 329.4 109.6Q330.3 110.8 330.3 113.3L330.3 113.3ZM328.8 115.5L328.8 113.2Q328.8 111.3 328.3 110.5Q327.8 109.7 326.7 109.7L326.7 109.7Q325.6 109.7 325.1 110.5Q324.6 111.3 324.5 113.1L324.5 113.1L324.5 115.4Q324.5 117.2 325.1 118.1Q325.6 119.0 326.7 119.0L326.7 119.0Q327.8 119.0 328.3 118.1Q328.8 117.3 328.8 115.5L328.8 115.5ZM332 111.4L332 110.8Q332 109.8 332.7 109.1Q333.3 108.5 334.3 108.5L334.3 108.5Q335.4 108.5 336.0 109.1Q336.7 109.8 336.7 110.9L336.7 110.9L336.7 111.4Q336.7 112.4 336.0 113.1Q335.4 113.8 334.3 113.8L334.3 113.8Q333.3 113.8 332.7 113.1Q332 112.4 332 111.4L332 111.4ZM333.1 110.8L333.1 111.4Q333.1 112.0 333.4 112.4Q333.8 112.8 334.3 112.8L334.3 112.8Q334.9 112.8 335.2 112.4Q335.6 112.0 335.6 111.4L335.6 111.4L335.6 110.8Q335.6 110.2 335.2 109.8Q334.9 109.4 334.3 109.4Q333.8 109.4 333.4 109.8Q333.1 110.2 333.1 110.8L333.1 110.8ZM337.5 117.8L337.5 117.2Q337.5 116.2 338.2 115.5Q338.8 114.9 339.9 114.9Q340.9 114.9 341.5 115.5Q342.2 116.2 342.2 117.3L342.2 117.3L342.2 117.8Q342.2 118.8 341.6 119.5Q340.9 120.2 339.9 120.2Q338.9 120.2 338.2 119.5Q337.5 118.9 337.5 117.8L337.5 117.8ZM338.6 117.2L338.6 117.8Q338.6 118.4 339.0 118.8Q339.3 119.2 339.9 119.2L339.9 119.2Q340.4 119.2 340.8 118.8Q341.1 118.5 341.1 117.8L341.1 117.8L341.1 117.2Q341.1 116.6 340.8 116.2Q340.4 115.8 339.9 115.8L339.9 115.8Q339.3 115.8 339.0 116.2Q338.6 116.6 338.6 117.2L338.6 117.2ZM340.2 110.3L334.7 119.1L333.9 118.6L339.4 109.7L340.2 110.3Z "/></g></svg>