<svg width="375" height="200" viewBox="0 0 375 200" xmlns="http://www.w3.org/2000/svg"><mask id="satori_om-id"><rect x="0" y="0" width="375" height="124" fill="#fff"/></mask><clipPath id="satori_cp-id-0"><path x="0" y="0" width="375" height="8" d="M4,0 h367 a4,4 0 0 1 4,4 v0 a4,4 0 0 1 -4,4 h-367 a4,4 0 0 1 -4,-4 v0 a4,4 0 0 1 4,-4"/></clipPath><mask id="satori_om-id-0"><rect x="0" y="0" width="375" height="8" fill="#fff"/></mask><mask id="satori_om-id-0-0"><rect x="0" y="0" width="126" height="8" fill="#fff" mask="url(#satori_om-id-0)"/></mask><rect x="0" y="0" width="126" height="8" fill="#3178c6" clip-path="url(#satori_cp-id-0)" mask="url(#satori_om-id-0)"/><mask id="satori_om-id-0-1"><rect x="126" y="0" width="77" height="8" fill="#fff" mask="url(#satori_om-id-0)"/></mask><rect x="126" y="0" width="77" height="8" fill="#3572A5" clip-path="url(#satori_cp-id-0)" mask="url(#satori_om-id-0)"/><mask id="satori_om-id-0-2"><rect x="203" y="0" width="42" height="8" fill="#fff" mask="url(#satori_om-id-0)"/></mask><rect x="203" y="0" width="42" height="8" fill="#00ADD8" clip-path="url(#satori_cp-id-0)" mask="url(#satori_om-id-0)"/><mask id="satori_om-id-0-3"><rect x="245" y="0" width="26" height="8" fill="#fff" mask="url(#satori_om-id-0)"/></mask><rect x="245" y="0" width="26" height="8" fill="#e34c26" clip-path="url(#satori_cp-id-0)" mask="url(#satori_om-id-0)"/><mask id="satori_om-id-0-4"><rect x="271" y="0" width="21" height="8" fill="#fff" mask="url(#satori_om-id-0)"/></mask><rect x="271" y="0" width="21" height="8" fill="#844FBA" clip-path="url(#satori_cp-id-0)" mask="url(#satori_om-id-0)"/><mask id="satori_om-id-0-5"><rect x="292" y="0" width="13" height="8" fill="#fff" mask="url(#satori_om-id-0)"/></mask><rect x="292" y="0" width="13" height="8" fill="#f1e05a" clip-path="url(#satori_cp-id-0)" mask="url(#satori_om-id-0)"/><mask id="satori_om-id-0-6"><rect x="305" y="0" width="12" height="8" fill="#fff" mask="url(#satori_om-id-0)"/></mask><rect x="305" y="0" width="12" height="8" fill="#dea584" clip-path="url(#satori_cp-id-0)" mask="url(#satori_om-id-0)"/><mask id="satori_om-id-0-7"><rect x="317" y="0" width="11" height="8" fill="#fff" mask="url(#satori_om-id-0)"/></mask><rect x="317" y="0" width="11" height="8" fill="#A97BFF" clip-path="url(#satori_cp-id-0)" mask="url(#satori_om-id-0)"/><mask id="satori_om-id-0-8"><rect x="328" y="0" width="11" height="8" fill="#fff" mask="url(#satori_om-id-0)"/></mask><rect x="328" y="0" width="11" height="8" fill="#ff3e00" clip-path="url(#satori_cp-id-0)" mask="url(#satori_om-id-0)"/><mask id="satori_om-id-0-9"><rect x="339" y="0" width="11" height="8" fill="#fff" mask="url(#satori_om-id-0)"/></mask><rect x="339" y="0" width="11" height="8" fill="#701516" clip-path="url(#satori_cp-id-0)" mask="url(#satori_om-id-0)"/><mask id="satori_om-id-1"><rect x="0" y="18" width="375" height="106" fill="#fff"/></mask><mask id="satori_om-id-1-0"><rect x="0" y="18" width="160" height="19" fill="#fff"/></mask><mask id="satori_om-id-1-0-0"><rect x="0" y="20" width="16" height="16" fill="#fff"/></mask><mask id="satori_om-id-1-0-0-0"><rect x="4" y="24" width="8" height="8" fill="#fff"/></mask><path x="4" y="24" width="8" height="8" fill="#3178c6" d="M8,24 h0 a4,4 0 0 1 4,4 v0 a4,4 0 0 1 -4,4 h0 a4,4 0 0 1 -4,-4 v0 a4,4 0 0 1 4,-4"/><mask id="satori_om-id-1-0-1"><rect x="29" y="18" width="79" height="19" fill="#fff"/></mask><g  ><path fill="#24292f" d="M38.6 21.6L38.6 23.5L35.1 23.5L35.1 33L32.8 33L32.8 23.5L29.3 23.5L29.3 21.6L38.6 21.6ZM40.7 24.5L42.3 29.8L43.8 24.5L46.3 24.5L42.9 34.3L42.7 34.8Q41.9 36.4 40.2 36.4L40.2 36.4Q39.7 36.4 39.2 36.3L39.2 36.3L39.2 34.6L39.5 34.6Q40.2 34.6 40.5 34.4Q40.8 34.2 41.0 33.7L41.0 33.7L41.2 33.0L38.3 24.5L40.7 24.5ZM54.8 28.7L54.8 28.9Q54.8 30.8 53.9 32.0Q53.0 33.2 51.5 33.2L51.5 33.2Q50.2 33.2 49.4 32.3L49.4 32.3L49.4 36.3L47.2 36.3L47.2 24.5L49.3 24.5L49.3 25.4Q50.1 24.4 51.5 24.4L51.5 24.4Q53.0 24.4 53.9 25.5Q54.8 26.7 54.8 28.7L54.8 28.7ZM52.5 28.7L52.5 28.7Q52.5 27.5 52.1 26.9Q51.7 26.2 50.9 26.2L50.9 26.2Q49.8 26.2 49.4 27.0L49.4 27.0L49.4 30.5Q49.8 31.3 50.9 31.3L50.9 31.3Q52.5 31.3 52.5 28.7ZM60.1 33.2L60.1 33.2Q58.2 33.2 57.0 32.0Q55.9 30.9 55.9 29.0L55.9 29.0L55.9 28.8Q55.9 27.5 56.4 26.5Q56.8 25.5 57.7 24.9Q58.6 24.4 59.8 24.4L59.8 24.4Q61.5 24.4 62.5 25.5Q63.5 26.6 63.5 28.6L63.5 28.6L63.5 29.5L58.1 29.5Q58.3 30.3 58.8 30.8Q59.4 31.3 60.2 31.3L60.2 31.3Q61.5 31.3 62.2 30.4L62.2 30.4L63.4 31.6Q62.8 32.4 62.0 32.8Q61.1 33.2 60.1 33.2ZM59.8 26.2L59.8 26.2Q59.1 26.2 58.7 26.7Q58.3 27.1 58.2 28.0L58.2 28.0L61.3 28.0L61.3 27.8Q61.3 27.0 60.9 26.6Q60.5 26.2 59.8 26.2ZM70.9 30.0L70.9 30.0Q70.9 29.4 70.4 29.0Q69.9 28.6 68.7 28.2Q67.5 27.9 66.8 27.5L66.8 27.5Q64.8 26.4 64.8 24.6L64.8 24.6Q64.8 23.7 65.4 23.0Q65.9 22.3 66.8 21.9Q67.8 21.5 69.0 21.5L69.0 21.5Q70.3 21.5 71.2 21.9Q72.2 22.4 72.7 23.2Q73.2 24.0 73.2 25.0L73.2 25.0L70.9 25.0Q70.9 24.2 70.4 23.8Q69.9 23.3 69.0 23.3L69.0 23.3Q68.1 23.3 67.7 23.7Q67.2 24.1 67.2 24.7L67.2 24.7Q67.2 25.2 67.7 25.6Q68.3 26.0 69.4 26.3L69.4 26.3Q71.4 26.9 72.3 27.8Q73.2 28.7 73.2 30L73.2 30Q73.2 31.5 72.1 32.3Q71.0 33.2 69.1 33.2L69.1 33.2Q67.8 33.2 66.7 32.7Q65.6 32.2 65.1 31.4Q64.5 30.5 64.5 29.4L64.5 29.4L66.8 29.4Q66.8 31.3 69.1 31.3L69.1 31.3Q69.9 31.3 70.4 31.0Q70.9 30.6 70.9 30.0ZM78.2 31.3L78.2 31.3Q78.8 31.3 79.2 31.0Q79.6 30.6 79.6 30.1L79.6 30.1L81.7 30.1Q81.7 30.9 81.2 31.7Q80.8 32.4 80.0 32.8Q79.2 33.2 78.2 33.2L78.2 33.2Q76.4 33.2 75.3 32.0Q74.3 30.9 74.3 28.8L74.3 28.8L74.3 28.7Q74.3 26.7 75.3 25.6Q76.4 24.4 78.2 24.4L78.2 24.4Q79.8 24.4 80.7 25.3Q81.7 26.2 81.7 27.7L81.7 27.7L79.6 27.7Q79.6 27.0 79.2 26.6Q78.8 26.2 78.1 26.2L78.1 26.2Q77.4 26.2 77.0 26.8Q76.6 27.4 76.6 28.7L76.6 28.7L76.6 28.9Q76.6 30.2 77.0 30.8Q77.4 31.3 78.2 31.3ZM87.8 24.5L87.7 26.7Q87.3 26.6 86.9 26.6L86.9 26.6Q85.6 26.6 85.3 27.5L85.3 27.5L85.3 33L83.0 33L83.0 24.5L85.1 24.5L85.2 25.6Q85.9 24.4 87.1 24.4L87.1 24.4Q87.4 24.4 87.8 24.5L87.8 24.5ZM91.2 24.5L91.2 33L88.9 33L88.9 24.5L91.2 24.5ZM88.8 22.4L88.8 22.4Q88.8 21.9 89.2 21.5Q89.5 21.2 90.1 21.2L90.1 21.2Q90.7 21.2 91 21.5Q91.3 21.9 91.3 22.4L91.3 22.4Q91.3 22.9 91.0 23.2Q90.6 23.5 90.1 23.5Q89.5 23.5 89.2 23.2Q88.8 22.9 88.8 22.4ZM100.7 28.7L100.7 28.9Q100.7 30.8 99.8 32.0Q98.9 33.2 97.4 33.2L97.4 33.2Q96.1 33.2 95.3 32.3L95.3 32.3L95.3 36.3L93.1 36.3L93.1 24.5L95.2 24.5L95.2 25.4Q96.1 24.4 97.4 24.4L97.4 24.4Q98.9 24.4 99.8 25.5Q100.7 26.7 100.7 28.7L100.7 28.7ZM98.4 28.7L98.4 28.7Q98.4 27.5 98.0 26.9Q97.6 26.2 96.8 26.2L96.8 26.2Q95.7 26.2 95.3 27.0L95.3 27.0L95.3 30.5Q95.7 31.3 96.8 31.3L96.8 31.3Q98.4 31.3 98.4 28.7ZM102.5 22.5L104.8 22.5L104.8 24.5L106.2 24.5L106.2 26.2L104.8 26.2L104.8 30.4Q104.8 30.9 105.0 31.1Q105.1 31.3 105.6 31.3L105.6 31.3Q106.0 31.3 106.3 31.2L106.3 31.2L106.3 33.0Q105.6 33.2 104.9 33.2L104.9 33.2Q102.6 33.2 102.5 30.8L102.5 30.8L102.5 26.2L101.3 26.2L101.3 24.5L102.5 24.5L102.5 22.5Z "/></g><mask id="satori_om-id-1-0-2"><rect x="117" y="18" width="43" height="19" fill="#fff"/></mask><g  ><path fill="#57606a" d="M120.0 27.8L120.0 26.6L121.1 26.6Q122.2 26.6 122.7 26.1Q123.3 25.5 123.3 24.7L123.3 24.7Q123.3 22.7 121.3 22.7L121.3 22.7Q120.4 22.7 119.8 23.2Q119.3 23.7 119.3 24.6L119.3 24.6L117.8 24.6Q117.8 23.3 118.8 22.4Q119.8 21.5 121.3 21.5L121.3 21.5Q122.9 21.5 123.9 22.3Q124.8 23.2 124.8 24.7L124.8 24.7Q124.8 25.4 124.3 26.1Q123.8 26.8 123.0 27.2L123.0 27.2Q123.9 27.5 124.4 28.1Q124.9 28.8 124.9 29.8L124.9 29.8Q124.9 31.4 123.9 32.3Q122.9 33.2 121.3 33.2Q119.7 33.2 118.7 32.3Q117.7 31.4 117.7 30L117.7 30L119.2 30Q119.2 30.9 119.8 31.4Q120.4 32.0 121.3 32.0L121.3 32.0Q122.4 32.0 122.9 31.4Q123.5 30.9 123.5 29.9L123.5 29.9Q123.5 28.9 122.9 28.3Q122.3 27.8 121.1 27.8L121.1 27.8L120.0 27.8ZM129.0 27.8L129.0 26.6L130.1 26.6Q131.1 26.6 131.7 26.1Q132.3 25.5 132.3 24.7L132.3 24.7Q132.3 22.7 130.3 22.7L130.3 22.7Q129.4 22.7 128.8 23.2Q128.3 23.7 128.3 24.6L128.3 24.6L126.8 24.6Q126.8 23.3 127.8 22.4Q128.8 21.5 130.3 21.5L130.3 21.5Q131.9 21.5 132.8 22.3Q133.8 23.2 133.8 24.7L133.8 24.7Q133.8 25.4 133.3 26.1Q132.8 26.8 132.0 27.2L132.0 27.2Q132.9 27.5 133.4 28.1Q133.9 28.8 133.9 29.8L133.9 29.8Q133.9 31.4 132.9 32.3Q131.9 33.2 130.3 33.2Q128.7 33.2 127.7 32.3Q126.7 31.4 126.7 30L126.7 30L128.2 30Q128.2 30.9 128.8 31.4Q129.3 32.0 130.3 32.0L130.3 32.0Q131.4 32.0 131.9 31.4Q132.5 30.9 132.5 29.9L132.5 29.9Q132.5 28.9 131.9 28.3Q131.3 27.8 130.1 27.8L130.1 27.8L129.0 27.8ZM136.1 32.2L136.1 32.2Q136.1 31.9 136.3 31.6Q136.5 31.4 137.0 31.4Q137.4 31.4 137.7 31.6Q137.9 31.9 137.9 32.2L137.9 32.2Q137.9 32.6 137.7 32.8Q137.4 33.1 137.0 33.1Q136.5 33.1 136.3 32.8Q136.1 32.6 136.1 32.2ZM141.9 27.6L140.8 27.3L141.4 21.6L147.2 21.6L147.2 23.0L142.6 23.0L142.3 26.1Q143.1 25.6 144.1 25.6L144.1 25.6Q145.7 25.6 146.6 26.6Q147.5 27.6 147.5 29.4L147.5 29.4Q147.5 31.1 146.6 32.1Q145.6 33.2 143.9 33.2L143.9 33.2Q142.4 33.2 141.5 32.3Q140.5 31.5 140.4 30.0L140.4 30.0L141.8 30.0Q141.9 31.0 142.4 31.5Q143.0 32.0 143.9 32.0L143.9 32.0Q144.9 32.0 145.5 31.3Q146.1 30.6 146.1 29.4L146.1 29.4Q146.1 28.3 145.5 27.6Q144.8 26.9 143.8 26.9L143.8 26.9Q142.9 26.9 142.3 27.3L142.3 27.3L141.9 27.6ZM149.0 24.4L149.0 23.8Q149.0 22.8 149.6 22.1Q150.3 21.5 151.3 21.5L151.3 21.5Q152.4 21.5 153.0 22.1Q153.6 22.8 153.6 23.9L153.6 23.9L153.6 24.4Q153.6 25.4 153.0 26.1Q152.3 26.8 151.3 26.8L151.3 26.8Q150.3 26.8 149.6 26.1Q149.0 25.4 149.0 24.4L149.0 24.4ZM150.1 23.8L150.1 24.4Q150.1 25.0 150.4 25.4Q150.8 25.8 151.3 25.8L151.3 25.8Q151.9 25.8 152.2 25.4Q152.6 25.0 152.6 24.4L152.6 24.4L152.6 23.8Q152.6 23.2 152.2 22.8Q151.9 22.4 151.3 22.4Q150.7 22.4 150.4 22.8Q150.1 23.2 150.1 23.8L150.1 23.8ZM154.5 30.8L154.5 30.2Q154.5 29.2 155.2 28.5Q155.8 27.9 156.9 27.9Q157.9 27.9 158.5 28.5Q159.2 29.2 159.2 30.3L159.2 30.3L159.2 30.8Q159.2 31.8 158.5 32.5Q157.9 33.2 156.9 33.2Q155.9 33.2 155.2 32.5Q154.5 31.9 154.5 30.8L154.5 30.8ZM155.6 30.2L155.6 30.8Q155.6 31.4 155.9 31.8Q156.3 32.2 156.9 32.2L156.9 32.2Q157.4 32.2 157.8 31.8Q158.1 31.5 158.1 30.8L158.1 30.8L158.1 30.2Q158.1 29.6 157.8 29.2Q157.4 28.8 156.9 28.8L156.9 28.8Q156.3 28.8 155.9 29.2Q155.6 29.6 155.6 30.2L155.6 30.2ZM157.2 23.3L151.7 32.1L150.8 31.6L156.4 22.7L157.2 23.3Z "/></g><mask id="satori_om-id-1-1"><rect x="170" y="18" width="132" height="19" fill="#fff"/></mask><mask id="satori_om-id-1-1-0"><rect x="170" y="20" width="16" height="16" fill="#fff"/></mask><mask id="satori_om-id-1-1-0-0"><rect x="174" y="24" width="8" height="8" fill="#fff"/></mask><path x="174" y="24" width="8" height="8" fill="#3572A5" d="M178,24 h0 a4,4 0 0 1 4,4 v0 a4,4 0 0 1 -4,4 h0 a4,4 0 0 1 -4,-4 v0 a4,4 0 0 1 4,-4"/><mask id="satori_om-id-1-1-1"><rect x="199" y="18" width="51" height="19" fill="#fff"/></mask><g  ><path fill="#24292f" d="M204.4 29.0L202.4 29.0L202.4 33L200.0 33L200.0 21.6L204.5 21.6Q205.7 21.6 206.7 22.1Q207.7 22.6 208.2 23.4Q208.7 24.3 208.7 25.4L208.7 25.4Q208.7 27.1 207.6 28.0Q206.4 29.0 204.4 29.0L204.4 29.0ZM202.4 23.5L202.4 27.1L204.5 27.1Q205.4 27.1 205.9 26.7Q206.4 26.2 206.4 25.4L206.4 25.4Q206.4 24.6 205.9 24.1Q205.4 23.5 204.5 23.5L204.5 23.5L202.4 23.5ZM211.9 24.5L213.5 29.8L215.0 24.5L217.4 24.5L214.0 34.3L213.9 34.8Q213.1 36.4 211.4 36.4L211.4 36.4Q210.9 36.4 210.4 36.3L210.4 36.3L210.4 34.6L210.7 34.6Q211.3 34.6 211.7 34.4Q212.0 34.2 212.2 33.7L212.2 33.7L212.4 33.0L209.5 24.5L211.9 24.5ZM218.8 22.5L221.0 22.5L221.0 24.5L222.5 24.5L222.5 26.2L221.0 26.2L221.0 30.4Q221.0 30.9 221.2 31.1Q221.4 31.3 221.9 31.3L221.9 31.3Q222.3 31.3 222.6 31.2L222.6 31.2L222.6 33.0Q221.9 33.2 221.2 33.2L221.2 33.2Q218.8 33.2 218.8 30.8L218.8 30.8L218.8 26.2L217.5 26.2L217.5 24.5L218.8 24.5L218.8 22.5ZM225.9 21L225.9 25.5Q226.8 24.4 228.2 24.4L228.2 24.4Q231.0 24.4 231.0 27.6L231.0 27.6L231.0 33L228.7 33L228.7 27.6Q228.7 26.9 228.4 26.6Q228.1 26.2 227.4 26.2L227.4 26.2Q226.4 26.2 225.9 27.0L225.9 27.0L225.9 33L223.7 33L223.7 21L225.9 21ZM232.3 28.8L232.3 28.7Q232.3 27.4 232.8 26.5Q233.3 25.5 234.2 24.9Q235.1 24.4 236.3 24.4L236.3 24.4Q238.0 24.4 239.1 25.4Q240.2 26.5 240.3 28.3L240.3 28.3L240.4 28.9Q240.4 30.8 239.3 32.0Q238.2 33.2 236.4 33.2Q234.5 33.2 233.4 32.0Q232.3 30.8 232.3 28.8L232.3 28.8ZM234.6 28.9L234.6 28.9Q234.6 30.1 235.1 30.7Q235.5 31.3 236.4 31.3L236.4 31.3Q237.2 31.3 237.6 30.7Q238.1 30.1 238.1 28.7L238.1 28.7Q238.1 27.5 237.6 26.9Q237.2 26.2 236.3 26.2L236.3 26.2Q235.5 26.2 235.1 26.9Q234.6 27.5 234.6 28.9ZM241.7 24.5L243.8 24.5L243.9 25.5Q244.8 24.4 246.3 24.4L246.3 24.4Q247.7 24.4 248.3 25.2Q249.0 26.0 249.0 27.5L249.0 27.5L249.0 33L246.7 33L246.7 27.6Q246.7 26.9 246.4 26.6Q246.1 26.2 245.4 26.2L245.4 26.2Q244.4 26.2 244.0 27.0L244.0 27.0L244.0 33L241.7 33L241.7 24.5Z "/></g><mask id="satori_om-id-1-1-2"><rect x="259" y="18" width="43" height="19" fill="#fff"/></mask><g  ><path fill="#57606a" d="M267.4 31.8L267.4 33L259.9 33L259.9 32.0L263.9 27.6Q264.8 26.6 265.1 26.0Q265.4 25.4 265.4 24.7L265.4 24.7Q265.4 23.8 264.9 23.2Q264.3 22.7 263.4 22.7L263.4 22.7Q262.4 22.7 261.8 23.3Q261.2 23.9 261.2 25.0L261.2 25.0L259.7 25.0Q259.7 23.4 260.7 22.4Q261.8 21.5 263.4 21.5L263.4 21.5Q265.0 21.5 266.0 22.3Q266.9 23.1 266.9 24.5L266.9 24.5Q266.9 26.2 264.7 28.5L264.7 28.5L261.7 31.8L267.4 31.8ZM276.1 26.3L276.1 28.1Q276.1 30.7 275.2 31.9Q274.3 33.2 272.5 33.2L272.5 33.2Q270.7 33.2 269.8 31.9Q268.9 30.7 268.9 28.3L268.9 28.3L268.9 26.4Q268.9 23.9 269.8 22.7Q270.6 21.5 272.5 21.5L272.5 21.5Q274.3 21.5 275.2 22.6Q276.0 23.8 276.1 26.3L276.1 26.3ZM274.6 28.5L274.6 26.2Q274.6 24.3 274.1 23.5Q273.6 22.7 272.5 22.7L272.5 22.7Q271.4 22.7 270.9 23.5Q270.3 24.3 270.3 26.1L270.3 26.1L270.3 28.4Q270.3 30.2 270.9 31.1Q271.4 32.0 272.5 32.0L272.5 32.0Q273.6 32.0 274.1 31.1Q274.6 30.3 274.6 28.5L274.6 28.5ZM278.1 32.2L278.1 32.2Q278.1 31.9 278.3 31.6Q278.5 31.4 279.0 31.4Q279.4 31.4 279.7 31.6Q279.9 31.9 279.9 32.2L279.9 32.2Q279.9 32.6 279.7 32.8Q279.4 33.1 279.0 33.1Q278.5 33.1 278.3 32.8Q278.1 32.6 278.1 32.2ZM287.5 21.6L287.8 21.6L287.8 22.8L287.5 22.8Q285.8 22.9 284.8 23.8Q283.8 24.8 283.7 26.6L283.7 26.6Q284.6 25.5 286.1 25.5L286.1 25.5Q287.6 25.5 288.5 26.6Q289.4 27.6 289.4 29.3L289.4 29.3Q289.4 31.0 288.4 32.1Q287.5 33.2 285.9 33.2L285.9 33.2Q284.2 33.2 283.2 31.9Q282.2 30.6 282.2 28.7L282.2 28.7L282.2 28.1Q282.2 25.0 283.6 23.3Q284.9 21.7 287.5 21.6L287.5 21.6ZM285.9 26.7L285.9 26.7Q285.2 26.7 284.5 27.2Q283.9 27.6 283.7 28.3L283.7 28.3L283.7 28.8Q283.7 30.2 284.3 31.1Q284.9 32.0 285.9 32.0L285.9 32.0Q286.9 32.0 287.4 31.2Q288.0 30.5 288.0 29.4L288.0 29.4Q288.0 28.2 287.4 27.5Q286.8 26.7 285.9 26.7ZM291.0 24.4L291.0 23.8Q291.0 22.8 291.6 22.1Q292.3 21.5 293.3 21.5L293.3 21.5Q294.4 21.5 295.0 22.1Q295.6 22.8 295.6 23.9L295.6 23.9L295.6 24.4Q295.6 25.4 295.0 26.1Q294.3 26.8 293.3 26.8L293.3 26.8Q292.3 26.8 291.6 26.1Q291.0 25.4 291.0 24.4L291.0 24.4ZM292.1 23.8L292.1 24.4Q292.1 25.0 292.4 25.4Q292.8 25.8 293.3 25.8L293.3 25.8Q293.9 25.8 294.2 25.4Q294.6 25.0 294.6 24.4L294.6 24.4L294.6 23.8Q294.6 23.2 294.2 22.8Q293.9 22.4 293.3 22.4Q292.7 22.4 292.4 22.8Q292.1 23.2 292.1 23.8L292.1 23.8ZM296.5 30.8L296.5 30.2Q296.5 29.2 297.2 28.5Q297.8 27.9 298.9 27.9Q299.9 27.9 300.5 28.5Q301.2 29.2 301.2 30.3L301.2 30.3L301.2 30.8Q301.2 31.8 300.5 32.5Q299.9 33.2 298.9 33.2Q297.9 33.2 297.2 32.5Q296.5 31.9 296.5 30.8L296.5 30.8ZM297.6 30.2L297.6 30.8Q297.6 31.4 297.9 31.8Q298.3 32.2 298.9 32.2L298.9 32.2Q299.4 32.2 299.8 31.8Q300.1 31.5 300.1 30.8L300.1 30.8L300.1 30.2Q300.1 29.6 299.8 29.2Q299.4 28.8 298.9 28.8L298.9 28.8Q298.3 28.8 297.9 29.2Q297.6 29.6 297.6 30.2L297.6 30.2ZM299.2 23.3L293.7 32.1L292.8 31.6L298.4 22.7L299.2 23.3Z "/></g><mask id="satori_om-id-1-2"><rect x="0" y="47" width="101" height="19" fill="#fff"/></mask><mask id="satori_om-id-1-2-0"><rect x="0" y="49" width="16" height="16" fill="#fff"/></mask><mask id="satori_om-id-1-2-0-0"><rect x="4" y="53" width="8" height="8" fill="#fff"/></mask><path x="4" y="53" width="8" height="8" fill="#00ADD8" d="M8,53 h0 a4,4 0 0 1 4,4 v0 a4,4 0 0 1 -4,4 h0 a4,4 0 0 1 -4,-4 v0 a4,4 0 0 1 4,-4"/><mask id="satori_om-id-1-2-1"><rect x="29" y="47" width="20" height="19" fill="#fff"/></mask><g  ><path fill="#24292f" d="M39.0 56.0L39.0 60.6Q38.4 61.3 37.2 61.7Q36.1 62.2 34.7 62.2L34.7 62.2Q33.2 62.2 32.1 61.5Q31.0 60.9 30.4 59.6Q29.8 58.4 29.7 56.8L29.7 56.8L29.7 56.0Q29.7 54.3 30.3 53.0Q30.9 51.8 32.0 51.1Q33.0 50.5 34.5 50.5L34.5 50.5Q36.5 50.5 37.7 51.4Q38.8 52.4 39.0 54.2L39.0 54.2L36.7 54.2Q36.6 53.3 36.0 52.8Q35.5 52.4 34.6 52.4L34.6 52.4Q33.4 52.4 32.8 53.3Q32.1 54.2 32.1 55.9L32.1 55.9L32.1 56.7Q32.1 58.4 32.8 59.4Q33.5 60.3 34.8 60.3L34.8 60.3Q36.1 60.3 36.7 59.7L36.7 59.7L36.7 57.8L34.5 57.8L34.5 56.0L39.0 56.0ZM40.4 57.8L40.4 57.7Q40.4 56.4 40.9 55.5Q41.4 54.5 42.3 53.9Q43.2 53.4 44.4 53.4L44.4 53.4Q46.1 53.4 47.2 54.4Q48.3 55.5 48.4 57.3L48.4 57.3L48.4 57.9Q48.4 59.8 47.3 61.0Q46.3 62.2 44.4 62.2Q42.6 62.2 41.5 61.0Q40.4 59.8 40.4 57.8L40.4 57.8ZM42.7 57.9L42.7 57.9Q42.7 59.1 43.1 59.7Q43.6 60.3 44.4 60.3L44.4 60.3Q45.2 60.3 45.7 59.7Q46.2 59.1 46.2 57.7L46.2 57.7Q46.2 56.5 45.7 55.9Q45.2 55.2 44.4 55.2L44.4 55.2Q43.6 55.2 43.1 55.9Q42.7 56.5 42.7 57.9Z "/></g><mask id="satori_om-id-1-2-2"><rect x="58" y="47" width="43" height="19" fill="#fff"/></mask><g  ><path fill="#57606a" d="M63.7 50.6L63.7 62L62.2 62L62.2 52.4L59.3 53.4L59.3 52.1L63.5 50.6L63.7 50.6ZM72.7 50.6L72.7 62L71.2 62L71.2 52.4L68.3 53.4L68.3 52.1L72.5 50.6L72.7 50.6ZM77.1 61.2L77.1 61.2Q77.1 60.9 77.3 60.6Q77.5 60.4 78.0 60.4Q78.4 60.4 78.7 60.6Q78.9 60.9 78.9 61.2L78.9 61.2Q78.9 61.6 78.7 61.8Q78.4 62.1 78.0 62.1Q77.5 62.1 77.3 61.8Q77.1 61.6 77.1 61.2ZM88.6 60.8L88.6 62L81.1 62L81.1 61.0L85.1 56.6Q85.9 55.6 86.3 55.0Q86.6 54.4 86.6 53.7L86.6 53.7Q86.6 52.8 86.1 52.2Q85.5 51.7 84.6 51.7L84.6 51.7Q83.5 51.7 82.9 52.3Q82.4 52.9 82.4 54.0L82.4 54.0L80.9 54.0Q80.9 52.4 81.9 51.4Q82.9 50.5 84.6 50.5L84.6 50.5Q86.2 50.5 87.1 51.3Q88.1 52.1 88.1 53.5L88.1 53.5Q88.1 55.2 85.9 57.5L85.9 57.5L82.9 60.8L88.6 60.8ZM90.0 53.4L90.0 52.8Q90.0 51.8 90.6 51.1Q91.3 50.5 92.3 50.5L92.3 50.5Q93.4 50.5 94.0 51.1Q94.6 51.8 94.6 52.9L94.6 52.9L94.6 53.4Q94.6 54.4 94.0 55.1Q93.3 55.8 92.3 55.8L92.3 55.8Q91.3 55.8 90.6 55.1Q90.0 54.4 90.0 53.4L90.0 53.4ZM91.1 52.8L91.1 53.4Q91.1 54.0 91.4 54.4Q91.8 54.8 92.3 54.8L92.3 54.8Q92.9 54.8 93.2 54.4Q93.6 54.0 93.6 53.4L93.6 53.4L93.6 52.8Q93.6 52.2 93.2 51.8Q92.9 51.4 92.3 51.4Q91.7 51.4 91.4 51.8Q91.1 52.2 91.1 52.8L91.1 52.8ZM95.5 59.8L95.5 59.2Q95.5 58.2 96.2 57.5Q96.8 56.9 97.9 56.9Q98.9 56.9 99.5 57.5Q100.2 58.2 100.2 59.3L100.2 59.3L100.2 59.8Q100.2 60.8 99.5 61.5Q98.9 62.2 97.9 62.2Q96.9 62.2 96.2 61.5Q95.5 60.9 95.5 59.8L95.5 59.8ZM96.6 59.2L96.6 59.8Q96.6 60.4 96.9 60.8Q97.3 61.2 97.9 61.2L97.9 61.2Q98.4 61.2 98.8 60.8Q99.1 60.5 99.1 59.8L99.1 59.8L99.1 59.2Q99.1 58.6 98.8 58.2Q98.4 57.8 97.9 57.8L97.9 57.8Q97.3 57.8 96.9 58.2Q96.6 58.6 96.6 59.2L96.6 59.2ZM98.2 52.3L92.7 61.1L91.8 60.6L97.4 51.7L98.2 52.3Z "/></g><mask id="satori_om-id-1-3"><rect x="111" y="47" width="116" height="19" fill="#fff"/></mask><mask id="satori_om-id-1-3-0"><rect x="111" y="49" width="16" height="16" fill="#fff"/></mask><mask id="satori_om-id-1-3-0-0"><rect x="115" y="53" width="8" height="8" fill="#fff"/></mask><path x="115" y="53" width="8" height="8" fill="#e34c26" d="M119,53 h0 a4,4 0 0 1 4,4 v0 a4,4 0 0 1 -4,4 h0 a4,4 0 0 1 -4,-4 v0 a4,4 0 0 1 4,-4"/><mask id="satori_om-id-1-3-1"><rect x="140" y="47" width="44" height="19" fill="#fff"/></mask><g  ><path fill="#24292f" d="M150.3 50.6L150.3 62L147.9 62L147.9 57.1L143.4 57.1L143.4 62L141.0 62L141.0 50.6L143.4 50.6L143.4 55.2L147.9 55.2L147.9 50.6L150.3 50.6ZM160.7 50.6L160.7 52.5L157.2 52.5L157.2 62L154.8 62L154.8 52.5L151.4 52.5L151.4 50.6L160.7 50.6ZM162.0 50.6L165.1 50.6L168.0 58.9L170.9 50.6L174.0 50.6L174.0 62L171.6 62L171.6 58.9L171.8 53.5L168.8 62L167.2 62L164.1 53.5L164.3 58.9L164.3 62L162.0 62L162.0 50.6ZM178.4 50.6L178.4 60.1L183.3 60.1L183.3 62L176.0 62L176.0 50.6L178.4 50.6Z "/></g><mask id="satori_om-id-1-3-2"><rect x="193" y="47" width="34" height="19" fill="#fff"/></mask><g  ><path fill="#57606a" d="M201.3 50.6L201.3 51.4L196.6 62L195.1 62L199.8 51.8L193.6 51.8L193.6 50.6L201.3 50.6ZM203.1 61.2L203.1 61.2Q203.1 60.9 203.3 60.6Q203.6 60.4 204 60.4Q204.4 60.4 204.7 60.6Q204.9 60.9 204.9 61.2L204.9 61.2Q204.9 61.6 204.7 61.8Q204.4 62.1 204 62.1Q203.6 62.1 203.3 61.8Q203.1 61.6 203.1 61.2ZM214.3 55.3L214.3 57.1Q214.3 59.7 213.4 60.9Q212.5 62.2 210.7 62.2L210.7 62.2Q208.9 62.2 208 60.9Q207.1 59.7 207.1 57.3L207.1 57.3L207.1 55.4Q207.1 52.9 208.0 51.7Q208.8 50.5 210.7 50.5L210.7 50.5Q212.5 50.5 213.4 51.6Q214.3 52.8 214.3 55.3L214.3 55.3ZM212.8 57.5L212.8 55.2Q212.8 53.3 212.3 52.5Q211.8 51.7 210.7 51.7L210.7 51.7Q209.6 51.7 209.1 52.5Q208.6 53.3 208.5 55.1L208.5 55.1L208.5 57.4Q208.5 59.2 209.1 60.1Q209.6 61.0 210.7 61.0L210.7 61.0Q211.8 61.0 212.3 60.1Q212.8 59.3 212.8 57.5L212.8 57.5ZM216 53.4L216 52.8Q216 51.8 216.7 51.1Q217.3 50.5 218.3 50.5L218.3 50.5Q219.4 50.5 220.0 51.1Q220.7 51.8 220.7 52.9L220.7 52.9L220.7 53.4Q220.7 54.4 220.0 55.1Q219.4 55.8 218.3 55.8L218.3 55.8Q217.3 55.8 216.7 55.1Q216 54.4 216 53.4L216 53.4ZM217.1 52.8L217.1 53.4Q217.1 54.0 217.4 54.4Q217.8 54.8 218.3 54.8L218.3 54.8Q218.9 54.8 219.2 54.4Q219.6 54.0 219.6 53.4L219.6 53.4L219.6 52.8Q219.6 52.2 219.2 51.8Q218.9 51.4 218.3 51.4Q217.8 51.4 217.4 51.8Q217.1 52.2 217.1 52.8L217.1 52.8ZM221.5 59.8L221.5 59.2Q221.5 58.2 222.2 57.5Q222.8 56.9 223.9 56.9Q224.9 56.9 225.5 57.5Q226.2 58.2 226.2 59.3L226.2 59.3L226.2 59.8Q226.2 60.8 225.6 61.5Q224.9 62.2 223.9 62.2Q222.9 62.2 222.2 61.5Q221.5 60.9 221.5 59.8L221.5 59.8ZM222.6 59.2L222.6 59.8Q222.6 60.4 223.0 60.8Q223.3 61.2 223.9 61.2L223.9 61.2Q224.4 61.2 224.8 60.8Q225.1 60.5 225.1 59.8L225.1 59.8L225.1 59.2Q225.1 58.6 224.8 58.2Q224.4 57.8 223.9 57.8L223.9 57.8Q223.3 57.8 223.0 58.2Q222.6 58.6 222.6 59.2L222.6 59.2ZM224.2 52.3L218.7 61.1L217.9 60.6L223.4 51.7L224.2 52.3Z "/></g><mask id="satori_om-id-1-4"><rect x="237" y="47" width="103" height="19" fill="#fff"/></mask><mask id="satori_om-id-1-4-0"><rect x="237" y="49" width="16" height="16" fill="#fff"/></mask><mask id="satori_om-id-1-4-0-0"><rect x="241" y="53" width="8" height="8" fill="#fff"/></mask><path x="241" y="53" width="8" height="8" fill="#844FBA" d="M245,53 h0 a4,4 0 0 1 4,4 v0 a4,4 0 0 1 -4,4 h0 a4,4 0 0 1 -4,-4 v0 a4,4 0 0 1 4,-4"/><mask id="satori_om-id-1-4-1"><rect x="266" y="47" width="31" height="19" fill="#fff"/></mask><g  ><path fill="#24292f" d="M276.3 50.6L276.3 62L273.9 62L273.9 57.1L269.4 57.1L269.4 62L267.0 62L267.0 50.6L269.4 50.6L269.4 55.2L273.9 55.2L273.9 50.6L276.3 50.6ZM284.9 58.2L287.3 58.2Q287.1 60.0 285.9 61.1Q284.7 62.2 282.7 62.2L282.7 62.2Q280.5 62.2 279.2 60.7Q278.0 59.2 278.0 56.6L278.0 56.6L278.0 55.9Q278.0 54.3 278.6 53.1Q279.1 51.8 280.2 51.1Q281.3 50.5 282.7 50.5L282.7 50.5Q284.7 50.5 285.9 51.5Q287.1 52.6 287.3 54.5L287.3 54.5L284.9 54.5Q284.8 53.4 284.3 52.9Q283.8 52.4 282.7 52.4L282.7 52.4Q281.5 52.4 280.9 53.2Q280.4 54.1 280.4 55.8L280.4 55.8L280.4 56.7Q280.4 58.5 280.9 59.4Q281.5 60.2 282.7 60.2L282.7 60.2Q283.8 60.2 284.3 59.7Q284.8 59.3 284.9 58.2L284.9 58.2ZM291.1 50.6L291.1 60.1L296.1 60.1L296.1 62L288.8 62L288.8 50.6L291.1 50.6Z "/></g><mask id="satori_om-id-1-4-2"><rect x="306" y="47" width="34" height="19" fill="#fff"/></mask><g  ><path fill="#57606a" d="M308.8 56.6L307.6 56.3L308.2 50.6L314.0 50.6L314.0 52.0L309.4 52.0L309.1 55.1Q309.9 54.6 311.0 54.6L311.0 54.6Q312.5 54.6 313.4 55.6Q314.4 56.6 314.4 58.4L314.4 58.4Q314.4 60.1 313.4 61.1Q312.5 62.2 310.8 62.2L310.8 62.2Q309.2 62.2 308.3 61.3Q307.3 60.5 307.2 59.0L307.2 59.0L308.6 59.0Q308.7 60.0 309.3 60.5Q309.8 61.0 310.8 61.0L310.8 61.0Q311.8 61.0 312.3 60.3Q312.9 59.6 312.9 58.4L312.9 58.4Q312.9 57.3 312.3 56.6Q311.7 55.9 310.6 55.9L310.6 55.9Q309.7 55.9 309.1 56.3L309.1 56.3L308.8 56.6ZM316.1 61.2L316.1 61.2Q316.1 60.9 316.3 60.6Q316.6 60.4 317 60.4Q317.4 60.4 317.7 60.6Q317.9 60.9 317.9 61.2L317.9 61.2Q317.9 61.6 317.7 61.8Q317.4 62.1 317 62.1Q316.6 62.1 316.3 61.8Q316.1 61.6 316.1 61.2ZM325.6 50.6L325.8 50.6L325.8 51.8L325.5 51.8Q323.9 51.9 322.9 52.8Q321.9 53.8 321.7 55.6L321.7 55.6Q322.6 54.5 324.2 54.5L324.2 54.5Q325.6 54.5 326.5 55.6Q327.4 56.6 327.4 58.3L327.4 58.3Q327.4 60.0 326.5 61.1Q325.5 62.2 323.9 62.2L323.9 62.2Q322.3 62.2 321.2 60.9Q320.2 59.6 320.2 57.7L320.2 57.7L320.2 57.1Q320.2 54.0 321.6 52.3Q322.9 50.7 325.6 50.6L325.6 50.6ZM323.9 55.7L323.9 55.7Q323.2 55.7 322.5 56.2Q321.9 56.6 321.7 57.3L321.7 57.3L321.7 57.8Q321.7 59.2 322.3 60.1Q322.9 61.0 323.9 61.0L323.9 61.0Q324.9 61.0 325.4 60.2Q326.0 59.5 326.0 58.4L326.0 58.4Q326.0 57.2 325.4 56.5Q324.9 55.7 323.9 55.7ZM329 53.4L329 52.8Q329 51.8 329.7 51.1Q330.3 50.5 331.3 50.5L331.3 50.5Q332.4 50.5 333.0 51.1Q333.7 51.8 333.7 52.9L333.7 52.9L333.7 53.4Q333.7 54.4 333.0 55.1Q332.4 55.8 331.3 55.8L331.3 55.8Q330.3 55.8 329.7 55.1Q329 54.4 329 53.4L329 53.4ZM330.1 52.8L330.1 53.4Q330.1 54.0 330.4 54.4Q330.8 54.8 331.3 54.8L331.3 54.8Q331.9 54.8 332.2 54.4Q332.6 54.0 332.6 53.4L332.6 53.4L332.6 52.8Q332.6 52.2 332.2 51.8Q331.9 51.4 331.3 51.4Q330.8 51.4 330.4 51.8Q330.1 52.2 330.1 52.8L330.1 52.8ZM334.5 59.8L334.5 59.2Q334.5 58.2 335.2 57.5Q335.8 56.9 336.9 56.9Q337.9 56.9 338.5 57.5Q339.2 58.2 339.2 59.3L339.2 59.3L339.2 59.8Q339.2 60.8 338.6 61.5Q337.9 62.2 336.9 62.2Q335.9 62.2 335.2 61.5Q334.5 60.9 334.5 59.8L334.5 59.8ZM335.6 59.2L335.6 59.8Q335.6 60.4 336.0 60.8Q336.3 61.2 336.9 61.2L336.9 61.2Q337.4 61.2 337.8 60.8Q338.1 60.5 338.1 59.8L338.1 59.8L338.1 59.2Q338.1 58.6 337.8 58.2Q337.4 57.8 336.9 57.8L336.9 57.8Q336.3 57.8 336.0 58.2Q335.6 58.6 335.6 59.2L335.6 59.2ZM337.2 52.3L331.7 61.1L330.9 60.6L336.4 51.7L337.2 52.3Z "/></g><mask id="satori_om-id-1-5"><rect x="0" y="76" width="149" height="19" fill="#fff"/></mask><mask id="satori_om-id-1-5-0"><rect x="0" y="78" width="16" height="16" fill="#fff"/></mask><mask id="satori_om-id-1-5-0-0"><rect x="4" y="82" width="8" height="8" fill="#fff"/></mask><path x="4" y="82" width="8" height="8" fill="#f1e05a" d="M8,82 h0 a4,4 0 0 1 4,4 v0 a4,4 0 0 1 -4,4 h0 a4,4 0 0 1 -4,-4 v0 a4,4 0 0 1 4,-4"/><mask id="satori_om-id-1-5-1"><rect x="29" y="76" width="77" height="19" fill="#fff"/></mask><g  ><path fill="#24292f" d="M34.6 87.5L34.6 79.6L36.9 79.6L36.9 87.5Q36.9 88.6 36.5 89.4Q36.0 90.3 35.1 90.7Q34.2 91.2 33.1 91.2L33.1 91.2Q31.3 91.2 30.3 90.2Q29.3 89.3 29.3 87.6L29.3 87.6L31.7 87.6Q31.7 88.5 32.0 88.9Q32.4 89.3 33.1 89.3L33.1 89.3Q33.8 89.3 34.2 88.8Q34.6 88.4 34.6 87.5L34.6 87.5ZM46.0 91L43.7 91Q43.5 90.7 43.5 90.2L43.5 90.2Q42.7 91.2 41.3 91.2L41.3 91.2Q40.1 91.2 39.3 90.4Q38.5 89.7 38.5 88.6L38.5 88.6Q38.5 87.3 39.5 86.6Q40.5 85.8 42.3 85.8L42.3 85.8L43.4 85.8L43.4 85.4Q43.4 84.8 43.1 84.4Q42.8 84.1 42.1 84.1L42.1 84.1Q41.6 84.1 41.2 84.3Q40.9 84.6 40.9 85.1L40.9 85.1L38.7 85.1Q38.7 84.4 39.1 83.7Q39.6 83.1 40.4 82.7Q41.2 82.4 42.3 82.4L42.3 82.4Q43.8 82.4 44.7 83.2Q45.6 84.0 45.6 85.4L45.6 85.4L45.6 89.0Q45.7 90.3 46.0 90.9L46.0 90.9L46.0 91ZM41.8 89.4L41.8 89.4Q42.3 89.4 42.8 89.2Q43.2 89.0 43.4 88.6L43.4 88.6L43.4 87.2L42.5 87.2Q40.8 87.2 40.7 88.3L40.7 88.3L40.7 88.5Q40.7 88.9 41.0 89.2Q41.3 89.4 41.8 89.4ZM48.9 82.5L50.4 88.2L52 82.5L54.4 82.5L51.5 91L49.4 91L46.5 82.5L48.9 82.5ZM62.4 91L60.1 91Q60.0 90.7 59.9 90.2L59.9 90.2Q59.1 91.2 57.8 91.2L57.8 91.2Q56.5 91.2 55.7 90.4Q54.9 89.7 54.9 88.6L54.9 88.6Q54.9 87.3 55.9 86.6Q56.9 85.8 58.8 85.8L58.8 85.8L59.8 85.8L59.8 85.4Q59.8 84.8 59.5 84.4Q59.2 84.1 58.6 84.1L58.6 84.1Q58.0 84.1 57.7 84.3Q57.3 84.6 57.3 85.1L57.3 85.1L55.1 85.1Q55.1 84.4 55.5 83.7Q56.0 83.1 56.8 82.7Q57.6 82.4 58.7 82.4L58.7 82.4Q60.2 82.4 61.2 83.2Q62.1 84.0 62.1 85.4L62.1 85.4L62.1 89.0Q62.1 90.3 62.4 90.9L62.4 90.9L62.4 91ZM58.3 89.4L58.3 89.4Q58.8 89.4 59.2 89.2Q59.6 89.0 59.8 88.6L59.8 88.6L59.8 87.2L59.0 87.2Q57.3 87.2 57.2 88.3L57.2 88.3L57.2 88.5Q57.2 88.9 57.5 89.2Q57.8 89.4 58.3 89.4ZM69.9 88.0L69.9 88.0Q69.9 87.4 69.4 87.0Q68.9 86.6 67.7 86.2Q66.5 85.9 65.8 85.5L65.8 85.5Q63.8 84.4 63.8 82.6L63.8 82.6Q63.8 81.7 64.4 81.0Q64.9 80.3 65.8 79.9Q66.8 79.5 68.0 79.5L68.0 79.5Q69.3 79.5 70.2 79.9Q71.2 80.4 71.7 81.2Q72.2 82.0 72.2 83.0L72.2 83.0L69.9 83.0Q69.9 82.2 69.4 81.8Q68.9 81.3 68.0 81.3L68.0 81.3Q67.1 81.3 66.7 81.7Q66.2 82.1 66.2 82.7L66.2 82.7Q66.2 83.2 66.7 83.6Q67.3 84.0 68.4 84.3L68.4 84.3Q70.4 84.9 71.3 85.8Q72.2 86.7 72.2 88L72.2 88Q72.2 89.5 71.1 90.3Q70.0 91.2 68.1 91.2L68.1 91.2Q66.8 91.2 65.7 90.7Q64.6 90.2 64.1 89.4Q63.5 88.5 63.5 87.4L63.5 87.4L65.8 87.4Q65.8 89.3 68.1 89.3L68.1 89.3Q68.9 89.3 69.4 89.0Q69.9 88.6 69.9 88.0ZM77.2 89.3L77.2 89.3Q77.8 89.3 78.2 89.0Q78.6 88.6 78.6 88.1L78.6 88.1L80.7 88.1Q80.7 88.9 80.2 89.7Q79.8 90.4 79.0 90.8Q78.2 91.2 77.2 91.2L77.2 91.2Q75.4 91.2 74.3 90.0Q73.3 88.9 73.3 86.8L73.3 86.8L73.3 86.7Q73.3 84.7 74.3 83.6Q75.4 82.4 77.2 82.4L77.2 82.4Q78.8 82.4 79.7 83.3Q80.7 84.2 80.7 85.7L80.7 85.7L78.6 85.7Q78.6 85.0 78.2 84.6Q77.8 84.2 77.1 84.2L77.1 84.2Q76.4 84.2 76.0 84.8Q75.6 85.4 75.6 86.7L75.6 86.7L75.6 86.9Q75.6 88.2 76.0 88.8Q76.4 89.3 77.2 89.3ZM86.8 82.5L86.7 84.7Q86.3 84.6 85.9 84.6L85.9 84.6Q84.6 84.6 84.3 85.5L84.3 85.5L84.3 91L82.0 91L82.0 82.5L84.1 82.5L84.2 83.6Q84.9 82.4 86.1 82.4L86.1 82.4Q86.4 82.4 86.8 82.5L86.8 82.5ZM90.2 82.5L90.2 91L87.9 91L87.9 82.5L90.2 82.5ZM87.8 80.4L87.8 80.4Q87.8 79.9 88.2 79.5Q88.5 79.2 89.1 79.2L89.1 79.2Q89.7 79.2 90 79.5Q90.3 79.9 90.3 80.4L90.3 80.4Q90.3 80.9 90.0 81.2Q89.6 81.5 89.1 81.5Q88.5 81.5 88.2 81.2Q87.8 80.9 87.8 80.4ZM99.7 86.7L99.7 86.9Q99.7 88.8 98.8 90.0Q97.9 91.2 96.4 91.2L96.4 91.2Q95.1 91.2 94.3 90.3L94.3 90.3L94.3 94.3L92.1 94.3L92.1 82.5L94.2 82.5L94.2 83.4Q95.1 82.4 96.4 82.4L96.4 82.4Q97.9 82.4 98.8 83.5Q99.7 84.7 99.7 86.7L99.7 86.7ZM97.4 86.7L97.4 86.7Q97.4 85.5 97.0 84.9Q96.6 84.2 95.8 84.2L95.8 84.2Q94.7 84.2 94.3 85.0L94.3 85.0L94.3 88.5Q94.7 89.3 95.8 89.3L95.8 89.3Q97.4 89.3 97.4 86.7ZM101.5 80.5L103.8 80.5L103.8 82.5L105.2 82.5L105.2 84.2L103.8 84.2L103.8 88.4Q103.8 88.9 104.0 89.1Q104.1 89.3 104.6 89.3L104.6 89.3Q105.0 89.3 105.3 89.2L105.3 89.2L105.3 91.0Q104.6 91.2 103.9 91.2L103.9 91.2Q101.6 91.2 101.5 88.8L101.5 88.8L101.5 84.2L100.3 84.2L100.3 82.5L101.5 82.5L101.5 80.5Z "/></g><mask id="satori_om-id-1-5-2"><rect x="115" y="76" width="34" height="19" fill="#fff"/></mask><g  ><path fill="#57606a" d="M118.0 85.8L118.0 84.6L119.1 84.6Q120.2 84.6 120.7 84.1Q121.3 83.5 121.3 82.7L121.3 82.7Q121.3 80.7 119.3 80.7L119.3 80.7Q118.4 80.7 117.8 81.2Q117.3 81.7 117.3 82.6L117.3 82.6L115.8 82.6Q115.8 81.3 116.8 80.4Q117.8 79.5 119.3 79.5L119.3 79.5Q120.9 79.5 121.9 80.3Q122.8 81.2 122.8 82.7L122.8 82.7Q122.8 83.4 122.3 84.1Q121.8 84.8 121.0 85.2L121.0 85.2Q121.9 85.5 122.4 86.1Q122.9 86.8 122.9 87.8L122.9 87.8Q122.9 89.4 121.9 90.3Q120.9 91.2 119.3 91.2Q117.7 91.2 116.7 90.3Q115.7 89.4 115.7 88L115.7 88L117.2 88Q117.2 88.9 117.8 89.4Q118.4 90.0 119.3 90.0L119.3 90.0Q120.4 90.0 120.9 89.4Q121.5 88.9 121.5 87.9L121.5 87.9Q121.5 86.9 120.9 86.3Q120.3 85.8 119.1 85.8L119.1 85.8L118.0 85.8ZM125.1 90.2L125.1 90.2Q125.1 89.9 125.3 89.6Q125.6 89.4 126 89.4Q126.4 89.4 126.7 89.6Q126.9 89.9 126.9 90.2L126.9 90.2Q126.9 90.6 126.7 90.8Q126.4 91.1 126 91.1Q125.6 91.1 125.3 90.8Q125.1 90.6 125.1 90.2ZM135.2 79.6L135.2 87.2L136.8 87.2L136.8 88.4L135.2 88.4L135.2 91L133.8 91L133.8 88.4L128.6 88.4L128.6 87.5L133.7 79.6L135.2 79.6ZM133.6 81.9L130.3 87.2L133.8 87.2L133.8 81.6L133.6 81.9ZM138 82.4L138 81.8Q138 80.8 138.7 80.1Q139.3 79.5 140.3 79.5L140.3 79.5Q141.4 79.5 142.0 80.1Q142.7 80.8 142.7 81.9L142.7 81.9L142.7 82.4Q142.7 83.4 142.0 84.1Q141.4 84.8 140.3 84.8L140.3 84.8Q139.3 84.8 138.7 84.1Q138 83.4 138 82.4L138 82.4ZM139.1 81.8L139.1 82.4Q139.1 83.0 139.4 83.4Q139.8 83.8 140.3 83.8L140.3 83.8Q140.9 83.8 141.2 83.4Q141.6 83.0 141.6 82.4L141.6 82.4L141.6 81.8Q141.6 81.2 141.2 80.8Q140.9 80.4 140.3 80.4Q139.8 80.4 139.4 80.8Q139.1 81.2 139.1 81.8L139.1 81.8ZM143.5 88.8L143.5 88.2Q143.5 87.2 144.2 86.5Q144.8 85.9 145.9 85.9Q146.9 85.9 147.5 86.5Q148.2 87.2 148.2 88.3L148.2 88.3L148.2 88.8Q148.2 89.8 147.6 90.5Q146.9 91.2 145.9 91.2Q144.9 91.2 144.2 90.5Q143.5 89.9 143.5 88.8L143.5 88.8ZM144.6 88.2L144.6 88.8Q144.6 89.4 145.0 89.8Q145.3 90.2 145.9 90.2L145.9 90.2Q146.4 90.2 146.8 89.8Q147.1 89.5 147.1 88.8L147.1 88.8L147.1 88.2Q147.1 87.6 146.8 87.2Q146.4 86.8 145.9 86.8L145.9 86.8Q145.3 86.8 145.0 87.2Q144.6 87.6 144.6 88.2L144.6 88.2ZM146.2 81.3L140.7 90.1L139.9 89.6L145.4 80.7L146.2 81.3Z "/></g><mask id="satori_om-id-1-6"><rect x="159" y="76" width="105" height="19" fill="#fff"/></mask><mask id="satori_om-id-1-6-0"><rect x="159" y="78" width="16" height="16" fill="#fff"/></mask><mask id="satori_om-id-1-6-0-0"><rect x="163" y="82" width="8" height="8" fill="#fff"/></mask><path x="163" y="82" width="8" height="8" fill="#dea584" d="M167,82 h0 a4,4 0 0 1 4,4 v0 a4,4 0 0 1 -4,4 h0 a4,4 0 0 1 -4,-4 v0 a4,4 0 0 1 4,-4"/><mask id="satori_om-id-1-6-1"><rect x="188" y="76" width="33" height="19" fill="#fff"/></mask><g  ><path fill="#24292f" d="M195.4 91L193.2 86.8L191.4 86.8L191.4 91L189.0 91L189.0 79.6L193.2 79.6Q195.3 79.6 196.4 80.5Q197.4 81.4 197.4 83.1L197.4 83.1Q197.4 84.2 196.9 85.0Q196.4 85.8 195.4 86.2L195.4 86.2L197.9 90.9L197.9 91L195.4 91ZM191.4 81.5L191.4 84.9L193.3 84.9Q194.1 84.9 194.6 84.5Q195.1 84.0 195.1 83.3L195.1 83.3Q195.1 82.4 194.6 82.0Q194.2 81.5 193.2 81.5L193.2 81.5L191.4 81.5ZM204.2 91L204.1 90.1Q203.3 91.2 201.8 91.2L201.8 91.2Q200.5 91.2 199.8 90.4Q199.0 89.6 199.0 88.1L199.0 88.1L199.0 82.5L201.3 82.5L201.3 88.0Q201.3 89.3 202.5 89.3L202.5 89.3Q203.6 89.3 204.1 88.5L204.1 88.5L204.1 82.5L206.3 82.5L206.3 91L204.2 91ZM212.6 88.7L212.6 88.7Q212.6 88.3 212.2 88.0Q211.8 87.8 210.9 87.6L210.9 87.6Q207.9 87.0 207.9 85.0L207.9 85.0Q207.9 83.9 208.8 83.1Q209.7 82.4 211.2 82.4L211.2 82.4Q212.9 82.4 213.8 83.1Q214.8 83.9 214.8 85.1L214.8 85.1L212.5 85.1Q212.5 84.6 212.2 84.3Q211.9 84 211.2 84L211.2 84Q210.7 84 210.4 84.3Q210.0 84.5 210.0 84.9L210.0 84.9Q210.0 85.3 210.4 85.5Q210.8 85.8 211.6 85.9Q212.4 86.1 213.0 86.3L213.0 86.3Q214.8 87.0 214.8 88.6L214.8 88.6Q214.8 89.7 213.8 90.4Q212.8 91.2 211.3 91.2L211.3 91.2Q210.2 91.2 209.4 90.8Q208.5 90.4 208.1 89.7Q207.6 89.1 207.6 88.3L207.6 88.3L209.7 88.3Q209.8 88.9 210.2 89.2Q210.6 89.6 211.3 89.6L211.3 89.6Q211.9 89.6 212.3 89.3Q212.6 89.1 212.6 88.7ZM216.7 80.5L219.0 80.5L219.0 82.5L220.4 82.5L220.4 84.2L219.0 84.2L219.0 88.4Q219.0 88.9 219.1 89.1Q219.3 89.3 219.8 89.3L219.8 89.3Q220.2 89.3 220.5 89.2L220.5 89.2L220.5 91.0Q219.8 91.2 219.1 91.2L219.1 91.2Q216.8 91.2 216.7 88.8L216.7 88.8L216.7 84.2L215.5 84.2L215.5 82.5L216.7 82.5L216.7 80.5Z "/></g><mask id="satori_om-id-1-6-2"><rect x="230" y="76" width="34" height="19" fill="#fff"/></mask><g  ><path fill="#57606a" d="M233.0 85.8L233.0 84.6L234.1 84.6Q235.2 84.6 235.7 84.1Q236.3 83.5 236.3 82.7L236.3 82.7Q236.3 80.7 234.3 80.7L234.3 80.7Q233.4 80.7 232.8 81.2Q232.3 81.7 232.3 82.6L232.3 82.6L230.8 82.6Q230.8 81.3 231.8 80.4Q232.8 79.5 234.3 79.5L234.3 79.5Q235.9 79.5 236.9 80.3Q237.8 81.2 237.8 82.7L237.8 82.7Q237.8 83.4 237.3 84.1Q236.8 84.8 236.0 85.2L236.0 85.2Q236.9 85.5 237.4 86.1Q237.9 86.8 237.9 87.8L237.9 87.8Q237.9 89.4 236.9 90.3Q235.9 91.2 234.3 91.2Q232.7 91.2 231.7 90.3Q230.7 89.4 230.7 88L230.7 88L232.2 88Q232.2 88.9 232.8 89.4Q233.4 90.0 234.3 90.0L234.3 90.0Q235.4 90.0 235.9 89.4Q236.5 88.9 236.5 87.9L236.5 87.9Q236.5 86.9 235.9 86.3Q235.3 85.8 234.1 85.8L234.1 85.8L233.0 85.8ZM240.1 90.2L240.1 90.2Q240.1 89.9 240.3 89.6Q240.6 89.4 241 89.4Q241.4 89.4 241.7 89.6Q241.9 89.9 241.9 90.2L241.9 90.2Q241.9 90.6 241.7 90.8Q241.4 91.1 241 91.1Q240.6 91.1 240.3 90.8Q240.1 90.6 240.1 90.2ZM251.6 89.8L251.6 91L244.1 91L244.1 90.0L248.1 85.6Q249.0 84.6 249.3 84.0Q249.6 83.4 249.6 82.7L249.6 82.7Q249.6 81.8 249.1 81.2Q248.5 80.7 247.6 80.7L247.6 80.7Q246.6 80.7 246.0 81.3Q245.4 81.9 245.4 83.0L245.4 83.0L243.9 83.0Q243.9 81.4 244.9 80.4Q245.9 79.5 247.6 79.5L247.6 79.5Q249.2 79.5 250.1 80.3Q251.1 81.1 251.1 82.5L251.1 82.5Q251.1 84.2 248.9 86.5L248.9 86.5L245.9 89.8L251.6 89.8ZM253 82.4L253 81.8Q253 80.8 253.7 80.1Q254.3 79.5 255.3 79.5L255.3 79.5Q256.4 79.5 257.0 80.1Q257.7 80.8 257.7 81.9L257.7 81.9L257.7 82.4Q257.7 83.4 257.0 84.1Q256.4 84.8 255.3 84.8L255.3 84.8Q254.3 84.8 253.7 84.1Q253 83.4 253 82.4L253 82.4ZM254.1 81.8L254.1 82.4Q254.1 83.0 254.4 83.4Q254.8 83.8 255.3 83.8L255.3 83.8Q255.9 83.8 256.2 83.4Q256.6 83.0 256.6 82.4L256.6 82.4L256.6 81.8Q256.6 81.2 256.2 80.8Q255.9 80.4 255.3 80.4Q254.8 80.4 254.4 80.8Q254.1 81.2 254.1 81.8L254.1 81.8ZM258.5 88.8L258.5 88.2Q258.5 87.2 259.2 86.5Q259.8 85.9 260.9 85.9Q261.9 85.9 262.5 86.5Q263.2 87.2 263.2 88.3L263.2 88.3L263.2 88.8Q263.2 89.8 262.6 90.5Q261.9 91.2 260.9 91.2Q259.9 91.2 259.2 90.5Q258.5 89.9 258.5 88.8L258.5 88.8ZM259.6 88.2L259.6 88.8Q259.6 89.4 260.0 89.8Q260.3 90.2 260.9 90.2L260.9 90.2Q261.4 90.2 261.8 89.8Q262.1 89.5 262.1 88.8L262.1 88.8L262.1 88.2Q262.1 87.6 261.8 87.2Q261.4 86.8 260.9 86.8L260.9 86.8Q260.3 86.8 260.0 87.2Q259.6 87.6 259.6 88.2L259.6 88.2ZM261.2 81.3L255.7 90.1L254.9 89.6L260.4 80.7L261.2 81.3Z "/></g><mask id="satori_om-id-1-7"><rect x="0" y="105" width="115" height="19" fill="#fff"/></mask><mask id="satori_om-id-1-7-0"><rect x="0" y="107" width="16" height="16" fill="#fff"/></mask><mask id="satori_om-id-1-7-0-0"><rect x="4" y="111" width="8" height="8" fill="#fff"/></mask><path x="4" y="111" width="8" height="8" fill="#A97BFF" d="M8,111 h0 a4,4 0 0 1 4,4 v0 a4,4 0 0 1 -4,4 h0 a4,4 0 0 1 -4,-4 v0 a4,4 0 0 1 4,-4"/><mask id="satori_om-id-1-7-1"><rect x="29" y="105" width="43" height="19" fill="#fff"/></mask><g  ><path fill="#24292f" d="M36.5 120L33.6 115.4L32.4 116.8L32.4 120L30.0 120L30.0 108.6L32.4 108.6L32.4 113.8L33.4 112.4L36.3 108.6L39.2 108.6L35.1 113.7L39.3 120L36.5 120ZM39.5 115.8L39.5 115.7Q39.5 114.4 39.9 113.5Q40.4 112.5 41.3 111.9Q42.3 111.4 43.5 111.4L43.5 111.4Q45.2 111.4 46.2 112.4Q47.3 113.5 47.5 115.3L47.5 115.3L47.5 115.9Q47.5 117.8 46.4 119.0Q45.3 120.2 43.5 120.2Q41.6 120.2 40.6 119.0Q39.5 117.8 39.5 115.8L39.5 115.8ZM41.7 115.9L41.7 115.9Q41.7 117.1 42.2 117.7Q42.6 118.3 43.5 118.3L43.5 118.3Q44.3 118.3 44.8 117.7Q45.2 117.1 45.2 115.7L45.2 115.7Q45.2 114.5 44.8 113.9Q44.3 113.2 43.5 113.2L43.5 113.2Q42.6 113.2 42.2 113.9Q41.7 114.5 41.7 115.9ZM49.3 109.5L51.6 109.5L51.6 111.5L53.0 111.5L53.0 113.2L51.6 113.2L51.6 117.4Q51.6 117.9 51.7 118.1Q51.9 118.3 52.4 118.3L52.4 118.3Q52.8 118.3 53.1 118.2L53.1 118.2L53.1 120.0Q52.4 120.2 51.7 120.2L51.7 120.2Q49.4 120.2 49.3 117.8L49.3 117.8L49.3 113.2L48.1 113.2L48.1 111.5L49.3 111.5L49.3 109.5ZM56.6 108L56.6 120L54.4 120L54.4 108L56.6 108ZM60.9 111.5L60.9 120L58.6 120L58.6 111.5L60.9 111.5ZM58.5 109.4L58.5 109.4Q58.5 108.9 58.8 108.5Q59.2 108.2 59.8 108.2L59.8 108.2Q60.3 108.2 60.7 108.5Q61.0 108.9 61.0 109.4L61.0 109.4Q61.0 109.9 60.7 110.2Q60.3 110.5 59.8 110.5Q59.2 110.5 58.8 110.2Q58.5 109.9 58.5 109.4ZM62.7 111.5L64.8 111.5L64.9 112.5Q65.8 111.4 67.3 111.4L67.3 111.4Q68.7 111.4 69.3 112.2Q70.0 113.0 70 114.5L70 114.5L70 120L67.7 120L67.7 114.6Q67.7 113.9 67.4 113.6Q67.1 113.2 66.4 113.2L66.4 113.2Q65.4 113.2 65.0 114.0L65.0 114.0L65.0 120L62.7 120L62.7 111.5Z "/></g><mask id="satori_om-id-1-7-2"><rect x="81" y="105" width="34" height="19" fill="#fff"/></mask><g  ><path fill="#57606a" d="M84.0 114.8L84.0 113.6L85.1 113.6Q86.2 113.6 86.7 113.1Q87.3 112.5 87.3 111.7L87.3 111.7Q87.3 109.7 85.3 109.7L85.3 109.7Q84.4 109.7 83.8 110.2Q83.3 110.7 83.3 111.6L83.3 111.6L81.8 111.6Q81.8 110.3 82.8 109.4Q83.8 108.5 85.3 108.5L85.3 108.5Q86.9 108.5 87.9 109.3Q88.8 110.2 88.8 111.7L88.8 111.7Q88.8 112.4 88.3 113.1Q87.8 113.8 87.0 114.2L87.0 114.2Q87.9 114.5 88.4 115.1Q88.9 115.8 88.9 116.8L88.9 116.8Q88.9 118.4 87.9 119.3Q86.9 120.2 85.3 120.2Q83.7 120.2 82.7 119.3Q81.7 118.4 81.7 117L81.7 117L83.2 117Q83.2 117.9 83.8 118.4Q84.4 119.0 85.3 119.0L85.3 119.0Q86.4 119.0 86.9 118.4Q87.5 117.9 87.5 116.9L87.5 116.9Q87.5 115.9 86.9 115.3Q86.3 114.8 85.1 114.8L85.1 114.8L84.0 114.8ZM91.1 119.2L91.1 119.2Q91.1 118.9 91.3 118.6Q91.6 118.4 92 118.4Q92.4 118.4 92.7 118.6Q92.9 118.9 92.9 119.2L92.9 119.2Q92.9 119.6 92.7 119.8Q92.4 120.1 92 120.1Q91.6 120.1 91.3 119.8Q91.1 119.6 91.1 119.2ZM102.3 113.3L102.3 115.1Q102.3 117.7 101.4 118.9Q100.5 120.2 98.7 120.2L98.7 120.2Q96.9 120.2 96 118.9Q95.1 117.7 95.1 115.3L95.1 115.3L95.1 113.4Q95.1 110.9 96.0 109.7Q96.8 108.5 98.7 108.5L98.7 108.5Q100.5 108.5 101.4 109.6Q102.3 110.8 102.3 113.3L102.3 113.3ZM100.8 115.5L100.8 113.2Q100.8 111.3 100.3 110.5Q99.8 109.7 98.7 109.7L98.7 109.7Q97.6 109.7 97.1 110.5Q96.6 111.3 96.5 113.1L96.5 113.1L96.5 115.4Q96.5 117.2 97.1 118.1Q97.6 119.0 98.7 119.0L98.7 119.0Q99.8 119.0 100.3 118.1Q100.8 117.3 100.8 115.5L100.8 115.5ZM104 111.4L104 110.8Q104 109.8 104.7 109.1Q105.3 108.5 106.3 108.5L106.3 108.5Q107.4 108.5 108.0 109.1Q108.7 109.8 108.7 110.9L108.7 110.9L108.7 111.4Q108.7 112.4 108.0 113.1Q107.4 113.8 106.3 113.8L106.3 113.8Q105.3 113.8 104.7 113.1Q104 112.4 104 111.4L104 111.4ZM105.1 110.8L105.1 111.4Q105.1 112.0 105.4 112.4Q105.8 112.8 106.3 112.8L106.3 112.8Q106.9 112.8 107.2 112.4Q107.6 112.0 107.6 111.4L107.6 111.4L107.6 110.8Q107.6 110.2 107.2 109.8Q106.9 109.4 106.3 109.4Q105.8 109.4 105.4 109.8Q105.1 110.2 105.1 110.8L105.1 110.8ZM109.5 117.8L109.5 117.2Q109.5 116.2 110.2 115.5Q110.8 114.9 111.9 114.9Q112.9 114.9 113.5 115.5Q114.2 116.2 114.2 117.3L114.2 117.3L114.2 117.8Q114.2 118.8 113.6 119.5Q112.9 120.2 111.9 120.2Q110.9 120.2 110.2 119.5Q109.5 118.9 109.5 117.8L109.5 117.8ZM110.6 117.2L110.6 117.8Q110.6 118.4 111.0 118.8Q111.3 119.2 111.9 119.2L111.9 119.2Q112.4 119.2 112.8 118.8Q113.1 118.5 113.1 117.8L113.1 117.8L113.1 117.2Q113.1 116.6 112.8 116.2Q112.4 115.8 111.9 115.8L111.9 115.8Q111.3 115.8 111.0 116.2Q110.6 116.6 110.6 117.2L110.6 117.2ZM112.2 110.3L106.7 119.1L105.9 118.6L111.4 109.7L112.2 110.3Z "/></g><mask id="satori_om-id-1-8"><rect x="125" y="105" width="117" height="19" fill="#fff"/></mask><mask id="satori_om-id-1-8-0"><rect x="125" y="107" width="16" height="16" fill="#fff"/></mask><mask id="satori_om-id-1-8-0-0"><rect x="129" y="111" width="8" height="8" fill="#fff"/></mask><path x="129" y="111" width="8" height="8" fill="#ff3e00" d="M133,111 h0 a4,4 0 0 1 4,4 v0 a4,4 0 0 1 -4,4 h0 a4,4 0 0 1 -4,-4 v0 a4,4 0 0 1 4,-4"/><mask id="satori_om-id-1-8-1"><rect x="154" y="105" width="45" height="19" fill="#fff"/></mask><g  ><path fill="#24292f" d="M160.9 117.0L160.9 117.0Q160.9 116.4 160.4 116.0Q160.0 115.6 158.8 115.2Q157.5 114.9 156.8 114.5L156.8 114.5Q154.9 113.4 154.9 111.6L154.9 111.6Q154.9 110.7 155.4 110.0Q155.9 109.3 156.9 108.9Q157.9 108.5 159.1 108.5L159.1 108.5Q160.3 108.5 161.3 108.9Q162.2 109.4 162.7 110.2Q163.3 111.0 163.3 112.0L163.3 112.0L160.9 112.0Q160.9 111.2 160.4 110.8Q159.9 110.3 159.0 110.3L159.0 110.3Q158.2 110.3 157.7 110.7Q157.2 111.1 157.2 111.7L157.2 111.7Q157.2 112.2 157.8 112.6Q158.4 113.0 159.4 113.3L159.4 113.3Q161.4 113.9 162.4 114.8Q163.3 115.7 163.3 117L163.3 117Q163.3 118.5 162.1 119.3Q161.0 120.2 159.1 120.2L159.1 120.2Q157.8 120.2 156.8 119.7Q155.7 119.2 155.1 118.4Q154.5 117.5 154.5 116.4L154.5 116.4L156.9 116.4Q156.9 118.3 159.1 118.3L159.1 118.3Q160.0 118.3 160.4 118.0Q160.9 117.6 160.9 117.0ZM166.3 111.5L167.9 117.2L169.4 111.5L171.8 111.5L168.9 120L166.8 120L163.9 111.5L166.3 111.5ZM176.6 120.2L176.6 120.2Q174.7 120.2 173.6 119.0Q172.4 117.9 172.4 116.0L172.4 116.0L172.4 115.8Q172.4 114.5 172.9 113.5Q173.4 112.5 174.3 111.9Q175.2 111.4 176.3 111.4L176.3 111.4Q178.1 111.4 179.1 112.5Q180.1 113.6 180.1 115.6L180.1 115.6L180.1 116.5L174.7 116.5Q174.8 117.3 175.3 117.8Q175.9 118.3 176.7 118.3L176.7 118.3Q178.0 118.3 178.8 117.4L178.8 117.4L179.9 118.6Q179.4 119.4 178.5 119.8Q177.6 120.2 176.6 120.2ZM176.3 113.2L176.3 113.2Q175.6 113.2 175.2 113.7Q174.8 114.1 174.7 115.0L174.7 115.0L177.8 115.0L177.8 114.8Q177.8 114.0 177.4 113.6Q177.0 113.2 176.3 113.2ZM183.7 108L183.7 120L181.5 120L181.5 108L183.7 108ZM186.0 109.5L188.3 109.5L188.3 111.5L189.7 111.5L189.7 113.2L188.3 113.2L188.3 117.4Q188.3 117.9 188.5 118.1Q188.6 118.3 189.1 118.3L189.1 118.3Q189.5 118.3 189.8 118.2L189.8 118.2L189.8 120.0Q189.1 120.2 188.4 120.2L188.4 120.2Q186.1 120.2 186.0 117.8L186.0 117.8L186.0 113.2L184.8 113.2L184.8 111.5L186.0 111.5L186.0 109.5ZM194.9 120.2L194.9 120.2Q193.0 120.2 191.8 119.0Q190.7 117.9 190.7 116.0L190.7 116.0L190.7 115.8Q190.7 114.5 191.2 113.5Q191.7 112.5 192.6 111.9Q193.5 111.4 194.6 111.4L194.6 111.4Q196.4 111.4 197.4 112.5Q198.4 113.6 198.4 115.6L198.4 115.6L198.4 116.5L193.0 116.5Q193.1 117.3 193.6 117.8Q194.2 118.3 195.0 118.3L195.0 118.3Q196.3 118.3 197.1 117.4L197.1 117.4L198.2 118.6Q197.7 119.4 196.8 119.8Q195.9 120.2 194.9 120.2ZM194.6 113.2L194.6 113.2Q193.9 113.2 193.5 113.7Q193.1 114.1 193.0 115.0L193.0 115.0L196.1 115.0L196.1 114.8Q196.1 114.0 195.7 113.6Q195.3 113.2 194.6 113.2Z "/></g><mask id="satori_om-id-1-8-2"><rect x="208" y="105" width="34" height="19" fill="#fff"/></mask><g  ><path fill="#57606a" d="M216.4 118.8L216.4 120L208.9 120L208.9 119.0L212.9 114.6Q213.8 113.6 214.1 113.0Q214.4 112.4 214.4 111.7L214.4 111.7Q214.4 110.8 213.9 110.2Q213.3 109.7 212.4 109.7L212.4 109.7Q211.4 109.7 210.8 110.3Q210.2 110.9 210.2 112.0L210.2 112.0L208.7 112.0Q208.7 110.4 209.7 109.4Q210.8 108.5 212.4 108.5L212.4 108.5Q214.0 108.5 215.0 109.3Q215.9 110.1 215.9 111.5L215.9 111.5Q215.9 113.2 213.7 115.5L213.7 115.5L210.7 118.8L216.4 118.8ZM218.1 119.2L218.1 119.2Q218.1 118.9 218.3 118.6Q218.6 118.4 219 118.4Q219.4 118.4 219.7 118.6Q219.9 118.9 219.9 119.2L219.9 119.2Q219.9 119.6 219.7 119.8Q219.4 120.1 219 120.1Q218.6 120.1 218.3 119.8Q218.1 119.6 218.1 119.2ZM227.7 115L227.7 115Q227.2 115.5 226.6 115.9Q226.0 116.2 225.2 116.2L225.2 116.2Q224.2 116.2 223.5 115.7Q222.8 115.2 222.4 114.3Q222.0 113.5 222.0 112.4L222.0 112.4Q222.0 111.3 222.4 110.4Q222.8 109.4 223.6 109.0Q224.4 108.5 225.5 108.5L225.5 108.5Q227.2 108.5 228.2 109.7Q229.1 111.0 229.1 113.2L229.1 113.2L229.1 113.6Q229.1 116.9 227.8 118.4Q226.5 120.0 223.9 120.0L223.9 120.0L223.6 120.0L223.6 118.8L223.9 118.8Q225.7 118.8 226.6 117.9Q227.6 117.0 227.7 115ZM225.5 115L225.5 115Q226.2 115 226.8 114.6Q227.4 114.1 227.7 113.5L227.7 113.5L227.7 112.9Q227.7 111.5 227.1 110.6Q226.5 109.7 225.5 109.7L225.5 109.7Q224.6 109.7 224.0 110.4Q223.4 111.1 223.4 112.3L223.4 112.3Q223.4 113.5 224.0 114.2Q224.5 115 225.5 115ZM231 111.4L231 110.8Q231 109.8 231.7 109.1Q232.3 108.5 233.3 108.5L233.3 108.5Q234.4 108.5 235.0 109.1Q235.7 109.8 235.7 110.9L235.7 110.9L235.7 111.4Q235.7 112.4 235.0 113.1Q234.4 113.8 233.3 113.8L233.3 113.8Q232.3 113.8 231.7 113.1Q231 112.4 231 111.4L231 111.4ZM232.1 110.8L232.1 111.4Q232.1 112.0 232.4 112.4Q232.8 112.8 233.3 112.8L233.3 112.8Q233.9 112.8 234.2 112.4Q234.6 112.0 234.6 111.4L234.6 111.4L234.6 110.8Q234.6 110.2 234.2 109.8Q233.9 109.4 233.3 109.4Q232.8 109.4 232.4 109.8Q232.1 110.2 232.1 110.8L232.1 110.8ZM236.5 117.8L236.5 117.2Q236.5 116.2 237.2 115.5Q237.8 114.9 238.9 114.9Q239.9 114.9 240.5 115.5Q241.2 116.2 241.2 117.3L241.2 117.3L241.2 117.8Q241.2 118.8 240.6 119.5Q239.9 120.2 238.9 120.2Q237.9 120.2 237.2 119.5Q236.5 118.9 236.5 117.8L236.5 117.8ZM237.6 117.2L237.6 117.8Q237.6 118.4 238.0 118.8Q238.3 119.2 238.9 119.2L238.9 119.2Q239.4 119.2 239.8 118.8Q240.1 118.5 240.1 117.8L240.1 117.8L240.1 117.2Q240.1 116.6 239.8 116.2Q239.4 115.8 238.9 115.8L238.9 115.8Q238.3 115.8 238.0 116.2Q237.6 116.6 237.6 117.2L237.6 117.2ZM239.2 110.3L233.7 119.1L232.9 118.6L238.4 109.7L239.2 110.3Z "/></g><mask id="satori_om-id-1-9"><rect x="252" y="105" width="109" height="19" fill="#fff"/></mask><mask id="satori_om-id-1-9-0"><rect x="252" y="107" width="16" height="16" fill="#fff"/></mask><mask id="satori_om-id-1-9-0-0"><rect x="256" y="111" width="8" height="8" fill="#fff"/></mask><path x="256" y="111" width="8" height="8" fill="#701516" d="M260,111 h0 a4,4 0 0 1 4,4 v0 a4,4 0 0 1 -4,4 h0 a4,4 0 0 1 -4,-4 v0 a4,4 0 0 1 4,-4"/><mask id="satori_om-id-1-9-1"><rect x="281" y="105" width="37" height="19" fill="#fff"/></mask><g  ><path fill="#24292f" d="M288.4 120L286.2 115.8L284.4 115.8L284.4 120L282.0 120L282.0 108.6L286.2 108.6Q288.3 108.6 289.4 109.5Q290.4 110.4 290.4 112.1L290.4 112.1Q290.4 113.2 289.9 114.0Q289.4 114.8 288.4 115.2L288.4 115.2L290.9 119.9L290.9 120L288.4 120ZM284.4 110.5L284.4 113.9L286.3 113.9Q287.1 113.9 287.6 113.5Q288.1 113.0 288.1 112.3L288.1 112.3Q288.1 111.4 287.6 111.0Q287.2 110.5 286.2 110.5L286.2 110.5L284.4 110.5ZM297.2 120L297.1 119.1Q296.3 120.2 294.8 120.2L294.8 120.2Q293.5 120.2 292.8 119.4Q292.0 118.6 292.0 117.1L292.0 117.1L292.0 111.5L294.3 111.5L294.3 117.0Q294.3 118.3 295.5 118.3L295.5 118.3Q296.6 118.3 297.1 117.5L297.1 117.5L297.1 111.5L299.3 111.5L299.3 120L297.2 120ZM308.6 115.7L308.6 115.9Q308.6 117.9 307.8 119.0Q306.9 120.2 305.4 120.2L305.4 120.2Q304.0 120.2 303.2 119.1L303.2 119.1L303.1 120L301.0 120L301.0 108L303.3 108L303.3 112.3Q304.1 111.4 305.3 111.4L305.3 111.4Q306.9 111.4 307.8 112.5Q308.6 113.7 308.6 115.7L308.6 115.7ZM306.4 115.7L306.4 115.7Q306.4 114.4 306.0 113.8Q305.6 113.2 304.8 113.2L304.8 113.2Q303.7 113.2 303.3 114.1L303.3 114.1L303.3 117.4Q303.7 118.3 304.8 118.3L304.8 118.3Q305.9 118.3 306.2 117.3L306.2 117.3Q306.4 116.7 306.4 115.7ZM311.5 111.5L313.1 116.8L314.7 111.5L317.1 111.5L313.7 121.3L313.5 121.8Q312.8 123.4 311.0 123.4L311.0 123.4Q310.5 123.4 310.0 123.3L310.0 123.3L310.0 121.6L310.4 121.6Q311.0 121.6 311.3 121.4Q311.6 121.2 311.8 120.7L311.8 120.7L312.1 120.0L309.1 111.5L311.5 111.5Z "/></g><mask id="satori_om-id-1-9-2"><rect x="327" y="105" width="34" height="19" fill="#fff"/></mask><g  ><path fill="#57606a" d="M335.4 118.8L335.4 120L327.9 120L327.9 119.0L331.9 114.6Q332.8 113.6 333.1 113.0Q333.4 112.4 333.4 111.7L333.4 111.7Q333.4 110.8 332.9 110.2Q332.3 109.7 331.4 109.7L331.4 109.7Q330.4 109.7 329.8 110.3Q329.2 110.9 329.2 112.0L329.2 112.0L327.7 112.0Q327.7 110.4 328.7 109.4Q329.8 108.5 331.4 108.5L331.4 108.5Q333.0 108.5 334.0 109.3Q334.9 110.1 334.9 111.5L334.9 111.5Q334.9 113.2 332.7 115.5L332.7 115.5L329.7 118.8L335.4 118.8ZM337.1 119.2L337.1 119.2Q337.1 118.9 337.3 118.6Q337.6 118.4 338 118.4Q338.4 118.4 338.7 118.6Q338.9 118.9 338.9 119.2L338.9 119.2Q338.9 119.6 338.7 119.8Q338.4 120.1 338 120.1Q337.6 120.1 337.3 119.8Q337.1 119.6 337.1 119.2ZM348.0 111.6L348.0 111.6Q348.0 112.4 347.6 113.1Q347.1 113.8 346.4 114.1L346.4 114.1Q347.3 114.5 347.8 115.3Q348.3 116 348.3 116.9L348.3 116.9Q348.3 118.4 347.3 119.3Q346.3 120.2 344.7 120.2L344.7 120.2Q343.0 120.2 342.1 119.3Q341.1 118.4 341.1 116.9L341.1 116.9Q341.1 116.0 341.6 115.3Q342.1 114.5 343.0 114.1L343.0 114.1Q342.2 113.8 341.8 113.1Q341.3 112.4 341.3 111.6L341.3 111.6Q341.3 110.2 342.3 109.3Q343.2 108.5 344.7 108.5L344.7 108.5Q346.2 108.5 347.1 109.3Q348.0 110.2 348.0 111.6ZM346.9 116.9L346.9 116.9Q346.9 115.9 346.3 115.3Q345.6 114.7 344.7 114.7Q343.7 114.7 343.1 115.3Q342.5 115.9 342.5 116.9Q342.5 117.9 343.1 118.4Q343.7 119.0 344.7 119.0L344.7 119.0Q345.7 119.0 346.3 118.4Q346.9 117.9 346.9 116.9ZM344.7 109.7L344.7 109.7Q343.8 109.7 343.3 110.2Q342.8 110.7 342.8 111.6L342.8 111.6Q342.8 112.5 343.3 113.0Q343.8 113.6 344.7 113.6Q345.6 113.6 346.1 113.0Q346.6 112.5 346.6 111.6Q346.6 110.8 346.1 110.2Q345.5 109.7 344.7 109.7ZM350 111.4L350 110.8Q350 109.8 350.7 109.1Q351.3 108.5 352.3 108.5L352.3 108.5Q353.4 108.5 354.0 109.1Q354.7 109.8 354.7 110.9L354.7 110.9L354.7 111.4Q354.7 112.4 354.0 113.1Q353.4 113.8 352.3 113.8L352.3 113.8Q351.3 113.8 350.7 113.1Q350 112.4 350 111.4L350 111.4ZM351.1 110.8L351.1 111.4Q351.1 112.0 351.4 112.4Q351.8 112.8 352.3 112.8L352.3 112.8Q352.9 112.8 353.2 112.4Q353.6 112.0 353.6 111.4L353.6 111.4L353.6 110.8Q353.6 110.2 353.2 109.8Q352.9 109.4 352.3 109.4Q351.8 109.4 351.4 109.8Q351.1 110.2 351.1 110.8L351.1 110.8ZM355.5 117.8L355.5 117.2Q355.5 116.2 356.2 115.5Q356.8 114.9 357.9 114.9Q358.9 114.9 359.5 115.5Q360.2 116.2 360.2 117.3L360.2 117.3L360.2 117.8Q360.2 118.8 359.6 119.5Q358.9 120.2 357.9 120.2Q356.9 120.2 356.2 119.5Q355.5 118.9 355.5 117.8L355.5 117.8ZM356.6 117.2L356.6 117.8Q356.6 118.4 357.0 118.8Q357.3 119.2 357.9 119.2L357.9 119.2Q358.4 119.2 358.8 118.8Q359.1 118.5 359.1 117.8L359.1 117.8L359.1 117.2Q359.1 116.6 358.8 116.2Q358.4 115.8 357.9 115.8L357.9 115.8Q357.3 115.8 357.0 116.2Q356.6 116.6 356.6 117.2L356.6 117.2ZM358.2 110.3L352.7 119.1L351.9 118.6L357.4 109.7L358.2 110.3Z "/></g></svg>