<svg width="375" height="200" viewBox="0 0 375 200" xmlns="http://www.w3.org/2000/svg"><mask id="satori_om-id"><rect x="0" y="0" width="375" height="123" fill="#fff"/></mask><clipPath id="satori_cp-id-0"><path x="0" y="0" width="375" height="8" d="M4,0 h367 a4,4 0 0 1 4,4 v0 a4,4 0 0 1 -4,4 h-367 a4,4 0 0 1 -4,-4 v0 a4,4 0 0 1 4,-4"/></clipPath><mask id="satori_om-id-0"><rect x="0" y="0" width="375" height="8" fill="#fff"/></mask><mask id="satori_om-id-0-0"><rect x="0" y="0" width="165" height="8" fill="#fff" mask="url(#satori_om-id-0)"/></mask><rect x="0" y="0" width="165" height="8" fill="#3178c6" clip-path="url(#satori_cp-id-0)" mask="url(#satori_om-id-0)"/><mask id="satori_om-id-0-1"><rect x="165" y="0" width="51" height="8" fill="#fff" mask="url(#satori_om-id-0)"/></mask><rect x="165" y="0" width="51" height="8" fill="#3572A5" clip-path="url(#satori_cp-id-0)" mask="url(#satori_om-id-0)"/><mask id="satori_om-id-0-2"><rect x="216" y="0" width="49" height="8" fill="#fff" mask="url(#satori_om-id-0)"/></mask><rect x="216" y="0" width="49" height="8" fill="#00ADD8" clip-path="url(#satori_cp-id-0)" mask="url(#satori_om-id-0)"/><mask id="satori_om-id-0-3"><rect x="265" y="0" width="28" height="8" fill="#fff" mask="url(#satori_om-id-0)"/></mask><rect x="265" y="0" width="28" height="8" fill="#844FBA" clip-path="url(#satori_cp-id-0)" mask="url(#satori_om-id-0)"/><mask id="satori_om-id-0-4"><rect x="293" y="0" width="21" height="8" fill="#fff" mask="url(#satori_om-id-0)"/></mask><rect x="293" y="0" width="21" height="8" fill="#A97BFF" clip-path="url(#satori_cp-id-0)" mask="url(#satori_om-id-0)"/><mask id="satori_om-id-0-5"><rect x="314" y="0" width="21" height="8" fill="#fff" mask="url(#satori_om-id-0)"/></mask><rect x="314" y="0" width="21" height="8" fill="#ff3e00" clip-path="url(#satori_cp-id-0)" mask="url(#satori_om-id-0)"/><mask id="satori_om-id-0-6"><rect x="335" y="0" width="13" height="8" fill="#fff" mask="url(#satori_om-id-0)"/></mask><rect x="335" y="0" width="13" height="8" fill="#555555" clip-path="url(#satori_cp-id-0)" mask="url(#satori_om-id-0)"/><mask id="satori_om-id-0-7"><rect x="348" y="0" width="10" height="8" fill="#fff" mask="url(#satori_om-id-0)"/></mask><rect x="348" y="0" width="10" height="8" fill="#f1e05a" clip-path="url(#satori_cp-id-0)" mask="url(#satori_om-id-0)"/><mask id="satori_om-id-0-8"><rect x="358" y="0" width="7" height="8" fill="#fff" mask="url(#satori_om-id-0)"/></mask><rect x="358" y="0" width="7" height="8" fill="#ff5a03" clip-path="url(#satori_cp-id-0)" mask="url(#satori_om-id-0)"/><mask id="satori_om-id-0-9"><rect x="365" y="0" width="3" height="8" fill="#fff" mask="url(#satori_om-id-0)"/></mask><rect x="365" y="0" width="3" height="8" fill="#563d7c" clip-path="url(#satori_cp-id-0)" mask="url(#satori_om-id-0)"/><mask id="satori_om-id-1"><rect x="0" y="18" width="375" height="105" fill="#fff"/></mask><mask id="satori_om-id-1-0"><rect x="0" y="18" width="160" height="19" fill="#fff"/></mask><mask id="satori_om-id-1-0-0"><rect x="0" y="19" width="16" height="16" fill="#fff"/></mask><mask id="satori_om-id-1-0-0-0"><rect x="4" y="23" width="8" height="8" fill="#fff"/></mask><path x="4" y="23" width="8" height="8" fill="#3178c6" d="M8,23 h0 a4,4 0 0 1 4,4 v0 a4,4 0 0 1 -4,4 h0 a4,4 0 0 1 -4,-4 v0 a4,4 0 0 1 4,-4"/><mask id="satori_om-id-1-0-1"><rect x="29" y="18" width="79" height="19" fill="#fff"/></mask><path fill="#fff" d="M38.6 22.1L38.6 24.0L35.1 24.0L35.1 33.5L32.8 33.5L32.8 24.0L29.3 24.0L29.3 22.1L38.6 22.1ZM40.7 25.0L42.3 30.3L43.8 25.0L46.3 25.0L42.9 34.8L42.7 35.2Q41.9 36.9 40.2 36.9L40.2 36.9Q39.7 36.9 39.2 36.7L39.2 36.7L39.2 35.0L39.5 35.0Q40.2 35.0 40.5 34.9Q40.8 34.7 41.0 34.2L41.0 34.2L41.2 33.5L38.3 25.0L40.7 25.0ZM54.8 29.2L54.8 29.3Q54.8 31.3 53.9 32.5Q53.0 33.6 51.5 33.6L51.5 33.6Q50.2 33.6 49.4 32.7L49.4 32.7L49.4 36.7L47.2 36.7L47.2 25.0L49.3 25.0L49.3 25.9Q50.1 24.9 51.5 24.9L51.5 24.9Q53.0 24.9 53.9 26.0Q54.8 27.2 54.8 29.2L54.8 29.2ZM52.5 29.2L52.5 29.2Q52.5 28.0 52.1 27.4Q51.7 26.7 50.9 26.7L50.9 26.7Q49.8 26.7 49.4 27.5L49.4 27.5L49.4 31.0Q49.8 31.8 50.9 31.8L50.9 31.8Q52.5 31.8 52.5 29.2ZM60.1 33.6L60.1 33.6Q58.2 33.6 57.0 32.5Q55.9 31.4 55.9 29.5L55.9 29.5L55.9 29.2Q55.9 28.0 56.4 27.0Q56.8 26.0 57.7 25.4Q58.6 24.9 59.8 24.9L59.8 24.9Q61.5 24.9 62.5 26.0Q63.5 27.1 63.5 29.1L63.5 29.1L63.5 30.0L58.1 30.0Q58.3 30.8 58.8 31.3Q59.4 31.8 60.2 31.8L60.2 31.8Q61.5 31.8 62.2 30.9L62.2 30.9L63.4 32.1Q62.8 32.8 62.0 33.2Q61.1 33.6 60.1 33.6ZM59.8 26.7L59.8 26.7Q59.1 26.7 58.7 27.2Q58.3 27.6 58.2 28.5L58.2 28.5L61.3 28.5L61.3 28.3Q61.3 27.5 60.9 27.1Q60.5 26.7 59.8 26.7ZM70.9 30.5L70.9 30.5Q70.9 29.8 70.4 29.5Q69.9 29.1 68.7 28.7Q67.5 28.3 66.8 28.0L66.8 28.0Q64.8 26.9 64.8 25.1L64.8 25.1Q64.8 24.2 65.4 23.5Q65.9 22.8 66.8 22.4Q67.8 22.0 69.0 22.0L69.0 22.0Q70.3 22.0 71.2 22.4Q72.2 22.8 72.7 23.6Q73.2 24.4 73.2 25.5L73.2 25.5L70.9 25.5Q70.9 24.7 70.4 24.3Q69.9 23.8 69.0 23.8L69.0 23.8Q68.1 23.8 67.7 24.2Q67.2 24.5 67.2 25.1L67.2 25.1Q67.2 25.7 67.7 26.1Q68.3 26.4 69.4 26.8L69.4 26.8Q71.4 27.4 72.3 28.3Q73.2 29.2 73.2 30.5L73.2 30.5Q73.2 32.0 72.1 32.8Q71.0 33.6 69.1 33.6L69.1 33.6Q67.8 33.6 66.7 33.2Q65.6 32.7 65.1 31.8Q64.5 31.0 64.5 29.9L64.5 29.9L66.8 29.9Q66.8 31.8 69.1 31.8L69.1 31.8Q69.9 31.8 70.4 31.4Q70.9 31.1 70.9 30.5ZM78.2 31.8L78.2 31.8Q78.8 31.8 79.2 31.5Q79.6 31.1 79.6 30.6L79.6 30.6L81.7 30.6Q81.7 31.4 81.2 32.1Q80.8 32.9 80.0 33.2Q79.2 33.6 78.2 33.6L78.2 33.6Q76.4 33.6 75.3 32.5Q74.3 31.3 74.3 29.3L74.3 29.3L74.3 29.2Q74.3 27.2 75.3 26.0Q76.4 24.9 78.2 24.9L78.2 24.9Q79.8 24.9 80.7 25.8Q81.7 26.7 81.7 28.2L81.7 28.2L79.6 28.2Q79.6 27.5 79.2 27.1Q78.8 26.7 78.1 26.7L78.1 26.7Q77.4 26.7 77.0 27.3Q76.6 27.9 76.6 29.1L76.6 29.1L76.6 29.4Q76.6 30.7 77.0 31.2Q77.4 31.8 78.2 31.8ZM87.8 25.0L87.7 27.1Q87.3 27.1 86.9 27.1L86.9 27.1Q85.6 27.1 85.3 28.0L85.3 28.0L85.3 33.5L83.0 33.5L83.0 25.0L85.1 25.0L85.2 26.0Q85.9 24.9 87.1 24.9L87.1 24.9Q87.4 24.9 87.8 25.0L87.8 25.0ZM91.2 25.0L91.2 33.5L88.9 33.5L88.9 25.0L91.2 25.0ZM88.8 22.8L88.8 22.8Q88.8 22.3 89.2 22.0Q89.5 21.7 90.1 21.7L90.1 21.7Q90.7 21.7 91 22.0Q91.3 22.3 91.3 22.8L91.3 22.8Q91.3 23.4 91.0 23.7Q90.6 24.0 90.1 24.0Q89.5 24.0 89.2 23.7Q88.8 23.4 88.8 22.8ZM100.7 29.2L100.7 29.3Q100.7 31.3 99.8 32.5Q98.9 33.6 97.4 33.6L97.4 33.6Q96.1 33.6 95.3 32.7L95.3 32.7L95.3 36.7L93.1 36.7L93.1 25.0L95.2 25.0L95.2 25.9Q96.1 24.9 97.4 24.9L97.4 24.9Q98.9 24.9 99.8 26.0Q100.7 27.2 100.7 29.2L100.7 29.2ZM98.4 29.2L98.4 29.2Q98.4 28.0 98.0 27.4Q97.6 26.7 96.8 26.7L96.8 26.7Q95.7 26.7 95.3 27.5L95.3 27.5L95.3 31.0Q95.7 31.8 96.8 31.8L96.8 31.8Q98.4 31.8 98.4 29.2ZM102.5 23.0L104.8 23.0L104.8 25.0L106.2 25.0L106.2 26.7L104.8 26.7L104.8 30.9Q104.8 31.4 105.0 31.6Q105.1 31.8 105.6 31.8L105.6 31.8Q106.0 31.8 106.3 31.7L106.3 31.7L106.3 33.4Q105.6 33.6 104.9 33.6L104.9 33.6Q102.6 33.6 102.5 31.2L102.5 31.2L102.5 26.7L101.3 26.7L101.3 25.0L102.5 25.0L102.5 23.0Z "/><mask id="satori_om-id-1-0-2"><rect x="117" y="18" width="43" height="19" fill="#fff"/></mask><path fill="#7d8590" d="M124.0 22.1L124.0 29.7L125.6 29.7L125.6 30.8L124.0 30.8L124.0 33.5L122.6 33.5L122.6 30.8L117.4 30.8L117.4 30.0L122.5 22.1L124.0 22.1ZM122.4 24.4L119.1 29.7L122.6 29.7L122.6 24.1L122.4 24.4ZM133.0 22.1L133.0 29.7L134.6 29.7L134.6 30.8L133.0 30.8L133.0 33.5L131.6 33.5L131.6 30.8L126.4 30.8L126.4 30.0L131.5 22.1L133.0 22.1ZM131.4 24.4L128.0 29.7L131.6 29.7L131.6 24.1L131.4 24.4ZM136.1 32.7L136.1 32.7Q136.1 32.4 136.3 32.1Q136.5 31.9 137.0 31.9Q137.4 31.9 137.7 32.1Q137.9 32.4 137.9 32.7L137.9 32.7Q137.9 33.1 137.7 33.3Q137.4 33.6 137.0 33.6Q136.5 33.6 136.3 33.3Q136.1 33.1 136.1 32.7ZM147.3 26.8L147.3 28.6Q147.3 31.2 146.4 32.4Q145.5 33.6 143.7 33.6L143.7 33.6Q141.9 33.6 141.0 32.4Q140.1 31.2 140.1 28.8L140.1 28.8L140.1 26.9Q140.1 24.4 140.9 23.2Q141.8 22.0 143.7 22.0L143.7 22.0Q145.5 22.0 146.4 23.1Q147.2 24.3 147.3 26.8L147.3 26.8ZM145.8 29.0L145.8 26.7Q145.8 24.8 145.3 24.0Q144.8 23.1 143.7 23.1L143.7 23.1Q142.6 23.1 142.0 24.0Q141.5 24.8 141.5 26.5L141.5 26.5L141.5 28.9Q141.5 30.7 142.1 31.6Q142.6 32.5 143.7 32.5L143.7 32.5Q144.8 32.5 145.3 31.6Q145.8 30.8 145.8 29.0L145.8 29.0ZM149.0 24.8L149.0 24.3Q149.0 23.3 149.6 22.6Q150.3 21.9 151.3 21.9L151.3 21.9Q152.4 21.9 153.0 22.6Q153.6 23.3 153.6 24.3L153.6 24.3L153.6 24.9Q153.6 25.9 153.0 26.6Q152.3 27.2 151.3 27.2L151.3 27.2Q150.3 27.2 149.6 26.6Q149.0 25.9 149.0 24.8L149.0 24.8ZM150.1 24.3L150.1 24.9Q150.1 25.5 150.4 25.9Q150.8 26.3 151.3 26.3L151.3 26.3Q151.9 26.3 152.2 25.9Q152.6 25.5 152.6 24.9L152.6 24.9L152.6 24.3Q152.6 23.7 152.2 23.3Q151.9 22.9 151.3 22.9Q150.7 22.9 150.4 23.3Q150.1 23.7 150.1 24.3L150.1 24.3ZM154.5 31.3L154.5 30.7Q154.5 29.7 155.2 29.0Q155.8 28.4 156.9 28.4Q157.9 28.4 158.5 29.0Q159.2 29.7 159.2 30.7L159.2 30.7L159.2 31.3Q159.2 32.3 158.5 33.0Q157.9 33.6 156.9 33.6Q155.9 33.6 155.2 33.0Q154.5 32.3 154.5 31.3L154.5 31.3ZM155.6 30.7L155.6 31.3Q155.6 31.9 155.9 32.3Q156.3 32.7 156.9 32.7L156.9 32.7Q157.4 32.7 157.8 32.3Q158.1 31.9 158.1 31.3L158.1 31.3L158.1 30.7Q158.1 30.1 157.8 29.7Q157.4 29.3 156.9 29.3L156.9 29.3Q156.3 29.3 155.9 29.7Q155.6 30.1 155.6 30.7L155.6 30.7ZM157.2 23.7L151.7 32.6L150.8 32.1L156.4 23.2L157.2 23.7Z "/><mask id="satori_om-id-1-1"><rect x="170" y="18" width="132" height="19" fill="#fff"/></mask><mask id="satori_om-id-1-1-0"><rect x="170" y="19" width="16" height="16" fill="#fff"/></mask><mask id="satori_om-id-1-1-0-0"><rect x="174" y="23" width="8" height="8" fill="#fff"/></mask><path x="174" y="23" width="8" height="8" fill="#3572A5" d="M178,23 h0 a4,4 0 0 1 4,4 v0 a4,4 0 0 1 -4,4 h0 a4,4 0 0 1 -4,-4 v0 a4,4 0 0 1 4,-4"/><mask id="satori_om-id-1-1-1"><rect x="199" y="18" width="51" height="19" fill="#fff"/></mask><path fill="#fff" d="M204.4 29.5L202.4 29.5L202.4 33.5L200.0 33.5L200.0 22.1L204.5 22.1Q205.7 22.1 206.7 22.6Q207.7 23.0 208.2 23.9Q208.7 24.8 208.7 25.9L208.7 25.9Q208.7 27.5 207.6 28.5Q206.4 29.5 204.4 29.5L204.4 29.5ZM202.4 24.0L202.4 27.6L204.5 27.6Q205.4 27.6 205.9 27.1Q206.4 26.7 206.4 25.9L206.4 25.9Q206.4 25.1 205.9 24.5Q205.4 24.0 204.5 24.0L204.5 24.0L202.4 24.0ZM211.9 25.0L213.5 30.3L215.0 25.0L217.4 25.0L214.0 34.8L213.9 35.2Q213.1 36.9 211.4 36.9L211.4 36.9Q210.9 36.9 210.4 36.7L210.4 36.7L210.4 35.0L210.7 35.0Q211.3 35.0 211.7 34.9Q212.0 34.7 212.2 34.2L212.2 34.2L212.4 33.5L209.5 25.0L211.9 25.0ZM218.8 23.0L221.0 23.0L221.0 25.0L222.5 25.0L222.5 26.7L221.0 26.7L221.0 30.9Q221.0 31.4 221.2 31.6Q221.4 31.8 221.9 31.8L221.9 31.8Q222.3 31.8 222.6 31.7L222.6 31.7L222.6 33.4Q221.9 33.6 221.2 33.6L221.2 33.6Q218.8 33.6 218.8 31.2L218.8 31.2L218.8 26.7L217.5 26.7L217.5 25.0L218.8 25.0L218.8 23.0ZM225.9 21.5L225.9 26.0Q226.8 24.9 228.2 24.9L228.2 24.9Q231.0 24.9 231.0 28.1L231.0 28.1L231.0 33.5L228.7 33.5L228.7 28.1Q228.7 27.4 228.4 27.1Q228.1 26.7 227.4 26.7L227.4 26.7Q226.4 26.7 225.9 27.5L225.9 27.5L225.9 33.5L223.7 33.5L223.7 21.5L225.9 21.5ZM232.3 29.3L232.3 29.2Q232.3 27.9 232.8 26.9Q233.3 26.0 234.2 25.4Q235.1 24.9 236.3 24.9L236.3 24.9Q238.0 24.9 239.1 25.9Q240.2 27.0 240.3 28.8L240.3 28.8L240.4 29.3Q240.4 31.3 239.3 32.5Q238.2 33.6 236.4 33.6Q234.5 33.6 233.4 32.5Q232.3 31.3 232.3 29.3L232.3 29.3ZM234.6 29.3L234.6 29.3Q234.6 30.5 235.1 31.2Q235.5 31.8 236.4 31.8L236.4 31.8Q237.2 31.8 237.6 31.2Q238.1 30.6 238.1 29.2L238.1 29.2Q238.1 28.0 237.6 27.4Q237.2 26.7 236.3 26.7L236.3 26.7Q235.5 26.7 235.1 27.3Q234.6 28.0 234.6 29.3ZM241.7 25.0L243.8 25.0L243.9 26.0Q244.8 24.9 246.3 24.9L246.3 24.9Q247.7 24.9 248.3 25.7Q249.0 26.5 249.0 28.0L249.0 28.0L249.0 33.5L246.7 33.5L246.7 28.1Q246.7 27.4 246.4 27.0Q246.1 26.7 245.4 26.7L245.4 26.7Q244.4 26.7 244.0 27.5L244.0 27.5L244.0 33.5L241.7 33.5L241.7 25.0Z "/><mask id="satori_om-id-1-1-2"><rect x="259" y="18" width="43" height="19" fill="#fff"/></mask><path fill="#7d8590" d="M264.7 22.1L264.7 33.5L263.2 33.5L263.2 23.9L260.3 24.9L260.3 23.6L264.5 22.1L264.7 22.1ZM271.0 28.3L271.0 27.1L272.1 27.1Q273.1 27.1 273.7 26.6Q274.3 26.0 274.3 25.1L274.3 25.1Q274.3 23.1 272.3 23.1L272.3 23.1Q271.4 23.1 270.8 23.7Q270.3 24.2 270.3 25.1L270.3 25.1L268.8 25.1Q268.8 23.7 269.8 22.8Q270.8 22.0 272.3 22.0L272.3 22.0Q273.9 22.0 274.8 22.8Q275.8 23.7 275.8 25.2L275.8 25.2Q275.8 25.9 275.3 26.6Q274.8 27.3 274.0 27.6L274.0 27.6Q274.9 27.9 275.4 28.6Q275.9 29.3 275.9 30.3L275.9 30.3Q275.9 31.8 274.9 32.7Q273.9 33.6 272.3 33.6Q270.7 33.6 269.7 32.8Q268.7 31.9 268.7 30.5L268.7 30.5L270.2 30.5Q270.2 31.4 270.8 31.9Q271.3 32.5 272.3 32.5L272.3 32.5Q273.4 32.5 273.9 31.9Q274.5 31.4 274.5 30.3L274.5 30.3Q274.5 29.4 273.9 28.8Q273.3 28.3 272.1 28.3L272.1 28.3L271.0 28.3ZM278.1 32.7L278.1 32.7Q278.1 32.4 278.3 32.1Q278.5 31.9 279.0 31.9Q279.4 31.9 279.7 32.1Q279.9 32.4 279.9 32.7L279.9 32.7Q279.9 33.1 279.7 33.3Q279.4 33.6 279.0 33.6Q278.5 33.6 278.3 33.3Q278.1 33.1 278.1 32.7ZM283.9 28.1L282.8 27.8L283.4 22.1L289.2 22.1L289.2 23.4L284.6 23.4L284.3 26.5Q285.1 26.1 286.1 26.1L286.1 26.1Q287.7 26.1 288.6 27.1Q289.5 28.1 289.5 29.9L289.5 29.9Q289.5 31.6 288.6 32.6Q287.6 33.6 285.9 33.6L285.9 33.6Q284.4 33.6 283.5 32.8Q282.5 32.0 282.4 30.5L282.4 30.5L283.8 30.5Q283.9 31.5 284.4 32.0Q285.0 32.5 285.9 32.5L285.9 32.5Q286.9 32.5 287.5 31.8Q288.1 31.1 288.1 29.9L288.1 29.9Q288.1 28.7 287.5 28.0Q286.8 27.4 285.8 27.4L285.8 27.4Q284.9 27.4 284.3 27.8L284.3 27.8L283.9 28.1ZM291.0 24.8L291.0 24.3Q291.0 23.3 291.6 22.6Q292.3 21.9 293.3 21.9L293.3 21.9Q294.4 21.9 295.0 22.6Q295.6 23.3 295.6 24.3L295.6 24.3L295.6 24.9Q295.6 25.9 295.0 26.6Q294.3 27.2 293.3 27.2L293.3 27.2Q292.3 27.2 291.6 26.6Q291.0 25.9 291.0 24.8L291.0 24.8ZM292.1 24.3L292.1 24.9Q292.1 25.5 292.4 25.9Q292.8 26.3 293.3 26.3L293.3 26.3Q293.9 26.3 294.2 25.9Q294.6 25.5 294.6 24.9L294.6 24.9L294.6 24.3Q294.6 23.7 294.2 23.3Q293.9 22.9 293.3 22.9Q292.7 22.9 292.4 23.3Q292.1 23.7 292.1 24.3L292.1 24.3ZM296.5 31.3L296.5 30.7Q296.5 29.7 297.2 29.0Q297.8 28.4 298.9 28.4Q299.9 28.4 300.5 29.0Q301.2 29.7 301.2 30.7L301.2 30.7L301.2 31.3Q301.2 32.3 300.5 33.0Q299.9 33.6 298.9 33.6Q297.9 33.6 297.2 33.0Q296.5 32.3 296.5 31.3L296.5 31.3ZM297.6 30.7L297.6 31.3Q297.6 31.9 297.9 32.3Q298.3 32.7 298.9 32.7L298.9 32.7Q299.4 32.7 299.8 32.3Q300.1 31.9 300.1 31.3L300.1 31.3L300.1 30.7Q300.1 30.1 299.8 29.7Q299.4 29.3 298.9 29.3L298.9 29.3Q298.3 29.3 297.9 29.7Q297.6 30.1 297.6 30.7L297.6 30.7ZM299.2 23.7L293.7 32.6L292.8 32.1L298.4 23.2L299.2 23.7Z "/><mask id="satori_om-id-1-2"><rect x="0" y="47" width="101" height="19" fill="#fff"/></mask><mask id="satori_om-id-1-2-0"><rect x="0" y="48" width="16" height="16" fill="#fff"/></mask><mask id="satori_om-id-1-2-0-0"><rect x="4" y="52" width="8" height="8" fill="#fff"/></mask><path x="4" y="52" width="8" height="8" fill="#00ADD8" d="M8,52 h0 a4,4 0 0 1 4,4 v0 a4,4 0 0 1 -4,4 h0 a4,4 0 0 1 -4,-4 v0 a4,4 0 0 1 4,-4"/><mask id="satori_om-id-1-2-1"><rect x="29" y="47" width="20" height="19" fill="#fff"/></mask><path fill="#fff" d="M39.0 56.5L39.0 61.0Q38.4 61.8 37.2 62.2Q36.1 62.6 34.7 62.6L34.7 62.6Q33.2 62.6 32.1 62.0Q31.0 61.4 30.4 60.1Q29.8 58.9 29.7 57.2L29.7 57.2L29.7 56.5Q29.7 54.8 30.3 53.5Q30.9 52.3 32.0 51.6Q33.0 51.0 34.5 51.0L34.5 51.0Q36.5 51.0 37.7 51.9Q38.8 52.9 39.0 54.7L39.0 54.7L36.7 54.7Q36.6 53.7 36.0 53.3Q35.5 52.8 34.6 52.8L34.6 52.8Q33.4 52.8 32.8 53.7Q32.1 54.6 32.1 56.4L32.1 56.4L32.1 57.1Q32.1 58.9 32.8 59.8Q33.5 60.8 34.8 60.8L34.8 60.8Q36.1 60.8 36.7 60.2L36.7 60.2L36.7 58.2L34.5 58.2L34.5 56.5L39.0 56.5ZM40.4 58.3L40.4 58.2Q40.4 56.9 40.9 55.9Q41.4 55.0 42.3 54.4Q43.2 53.9 44.4 53.9L44.4 53.9Q46.1 53.9 47.2 54.9Q48.3 56.0 48.4 57.8L48.4 57.8L48.4 58.3Q48.4 60.3 47.3 61.5Q46.3 62.6 44.4 62.6Q42.6 62.6 41.5 61.5Q40.4 60.3 40.4 58.3L40.4 58.3ZM42.7 58.3L42.7 58.3Q42.7 59.5 43.1 60.2Q43.6 60.8 44.4 60.8L44.4 60.8Q45.2 60.8 45.7 60.2Q46.2 59.6 46.2 58.2L46.2 58.2Q46.2 57.0 45.7 56.4Q45.2 55.7 44.4 55.7L44.4 55.7Q43.6 55.7 43.1 56.3Q42.7 57.0 42.7 58.3Z "/><mask id="satori_om-id-1-2-2"><rect x="58" y="47" width="43" height="19" fill="#fff"/></mask><path fill="#7d8590" d="M63.7 51.1L63.7 62.5L62.2 62.5L62.2 52.9L59.3 53.9L59.3 52.6L63.5 51.1L63.7 51.1ZM70.0 57.3L70.0 56.1L71.1 56.1Q72.1 56.1 72.7 55.6Q73.3 55.0 73.3 54.1L73.3 54.1Q73.3 52.1 71.3 52.1L71.3 52.1Q70.4 52.1 69.8 52.7Q69.3 53.2 69.3 54.1L69.3 54.1L67.8 54.1Q67.8 52.7 68.8 51.8Q69.8 51.0 71.3 51.0L71.3 51.0Q72.9 51.0 73.8 51.8Q74.8 52.7 74.8 54.2L74.8 54.2Q74.8 54.9 74.3 55.6Q73.8 56.3 73.0 56.6L73.0 56.6Q73.9 56.9 74.4 57.6Q74.9 58.3 74.9 59.3L74.9 59.3Q74.9 60.8 73.9 61.7Q72.9 62.6 71.3 62.6Q69.7 62.6 68.7 61.8Q67.7 60.9 67.7 59.5L67.7 59.5L69.2 59.5Q69.2 60.4 69.8 60.9Q70.3 61.5 71.3 61.5L71.3 61.5Q72.4 61.5 72.9 60.9Q73.5 60.4 73.5 59.3L73.5 59.3Q73.5 58.4 72.9 57.8Q72.3 57.3 71.1 57.3L71.1 57.3L70.0 57.3ZM77.1 61.7L77.1 61.7Q77.1 61.4 77.3 61.1Q77.5 60.9 78.0 60.9Q78.4 60.9 78.7 61.1Q78.9 61.4 78.9 61.7L78.9 61.7Q78.9 62.1 78.7 62.3Q78.4 62.6 78.0 62.6Q77.5 62.6 77.3 62.3Q77.1 62.1 77.1 61.7ZM83.2 57.3L83.2 56.1L84.3 56.1Q85.3 56.1 85.9 55.6Q86.5 55.0 86.5 54.1L86.5 54.1Q86.5 52.1 84.5 52.1L84.5 52.1Q83.6 52.1 83.0 52.7Q82.5 53.2 82.5 54.1L82.5 54.1L81.0 54.1Q81.0 52.7 82.0 51.8Q83.0 51.0 84.5 51.0L84.5 51.0Q86.1 51.0 87.0 51.8Q88.0 52.7 88.0 54.2L88.0 54.2Q88.0 54.9 87.5 55.6Q87.0 56.3 86.2 56.6L86.2 56.6Q87.1 56.9 87.6 57.6Q88.1 58.3 88.1 59.3L88.1 59.3Q88.1 60.8 87.1 61.7Q86.1 62.6 84.5 62.6Q82.9 62.6 81.9 61.8Q80.9 60.9 80.9 59.5L80.9 59.5L82.4 59.5Q82.4 60.4 83.0 60.9Q83.5 61.5 84.5 61.5L84.5 61.5Q85.6 61.5 86.1 60.9Q86.7 60.4 86.7 59.3L86.7 59.3Q86.7 58.4 86.1 57.8Q85.5 57.3 84.3 57.3L84.3 57.3L83.2 57.3ZM90.0 53.8L90.0 53.3Q90.0 52.3 90.6 51.6Q91.3 50.9 92.3 50.9L92.3 50.9Q93.4 50.9 94.0 51.6Q94.6 52.3 94.6 53.3L94.6 53.3L94.6 53.9Q94.6 54.9 94.0 55.6Q93.3 56.2 92.3 56.2L92.3 56.2Q91.3 56.2 90.6 55.6Q90.0 54.9 90.0 53.8L90.0 53.8ZM91.1 53.3L91.1 53.9Q91.1 54.5 91.4 54.9Q91.8 55.3 92.3 55.3L92.3 55.3Q92.9 55.3 93.2 54.9Q93.6 54.5 93.6 53.9L93.6 53.9L93.6 53.3Q93.6 52.7 93.2 52.3Q92.9 51.9 92.3 51.9Q91.7 51.9 91.4 52.3Q91.1 52.7 91.1 53.3L91.1 53.3ZM95.5 60.3L95.5 59.7Q95.5 58.7 96.2 58.0Q96.8 57.4 97.9 57.4Q98.9 57.4 99.5 58.0Q100.2 58.7 100.2 59.7L100.2 59.7L100.2 60.3Q100.2 61.3 99.5 62.0Q98.9 62.6 97.9 62.6Q96.9 62.6 96.2 62.0Q95.5 61.3 95.5 60.3L95.5 60.3ZM96.6 59.7L96.6 60.3Q96.6 60.9 96.9 61.3Q97.3 61.7 97.9 61.7L97.9 61.7Q98.4 61.7 98.8 61.3Q99.1 60.9 99.1 60.3L99.1 60.3L99.1 59.7Q99.1 59.1 98.8 58.7Q98.4 58.3 97.9 58.3L97.9 58.3Q97.3 58.3 96.9 58.7Q96.6 59.1 96.6 59.7L96.6 59.7ZM98.2 52.7L92.7 61.6L91.8 61.1L97.4 52.2L98.2 52.7Z "/><mask id="satori_om-id-1-3"><rect x="111" y="47" width="103" height="19" fill="#fff"/></mask><mask id="satori_om-id-1-3-0"><rect x="111" y="48" width="16" height="16" fill="#fff"/></mask><mask id="satori_om-id-1-3-0-0"><rect x="115" y="52" width="8" height="8" fill="#fff"/></mask><path x="115" y="52" width="8" height="8" fill="#844FBA" d="M119,52 h0 a4,4 0 0 1 4,4 v0 a4,4 0 0 1 -4,4 h0 a4,4 0 0 1 -4,-4 v0 a4,4 0 0 1 4,-4"/><mask id="satori_om-id-1-3-1"><rect x="140" y="47" width="31" height="19" fill="#fff"/></mask><path fill="#fff" d="M150.3 51.1L150.3 62.5L147.9 62.5L147.9 57.6L143.4 57.6L143.4 62.5L141.0 62.5L141.0 51.1L143.4 51.1L143.4 55.7L147.9 55.7L147.9 51.1L150.3 51.1ZM158.9 58.7L161.3 58.7Q161.1 60.5 159.9 61.6Q158.7 62.6 156.7 62.6L156.7 62.6Q154.5 62.6 153.2 61.2Q152.0 59.7 152.0 57.1L152.0 57.1L152.0 56.4Q152.0 54.8 152.6 53.5Q153.1 52.3 154.2 51.6Q155.3 51.0 156.7 51.0L156.7 51.0Q158.7 51.0 159.9 52.0Q161.1 53.1 161.3 55.0L161.3 55.0L158.9 55.0Q158.8 53.9 158.3 53.4Q157.8 52.9 156.7 52.9L156.7 52.9Q155.5 52.9 154.9 53.7Q154.4 54.6 154.4 56.3L154.4 56.3L154.4 57.2Q154.4 59.0 154.9 59.9Q155.5 60.7 156.7 60.7L156.7 60.7Q157.8 60.7 158.3 60.2Q158.8 59.7 158.9 58.7L158.9 58.7ZM165.1 51.1L165.1 60.6L170.1 60.6L170.1 62.5L162.8 62.5L162.8 51.1L165.1 51.1Z "/><mask id="satori_om-id-1-3-2"><rect x="180" y="47" width="34" height="19" fill="#fff"/></mask><path fill="#7d8590" d="M188.3 51.1L188.3 51.9L183.6 62.5L182.1 62.5L186.8 52.3L180.6 52.3L180.6 51.1L188.3 51.1ZM190.1 61.7L190.1 61.7Q190.1 61.4 190.3 61.1Q190.6 60.9 191 60.9Q191.4 60.9 191.7 61.1Q191.9 61.4 191.9 61.7L191.9 61.7Q191.9 62.1 191.7 62.3Q191.4 62.6 191 62.6Q190.6 62.6 190.3 62.3Q190.1 62.1 190.1 61.7ZM196.2 57.3L196.2 56.1L197.3 56.1Q198.4 56.1 198.9 55.6Q199.5 55.0 199.5 54.1L199.5 54.1Q199.5 52.1 197.5 52.1L197.5 52.1Q196.6 52.1 196.0 52.7Q195.5 53.2 195.5 54.1L195.5 54.1L194.0 54.1Q194.0 52.7 195.0 51.8Q196.0 51.0 197.5 51.0L197.5 51.0Q199.1 51.0 200.1 51.8Q201.0 52.7 201.0 54.2L201.0 54.2Q201.0 54.9 200.5 55.6Q200.0 56.3 199.2 56.6L199.2 56.6Q200.1 56.9 200.6 57.6Q201.1 58.3 201.1 59.3L201.1 59.3Q201.1 60.8 200.1 61.7Q199.1 62.6 197.5 62.6Q195.9 62.6 194.9 61.8Q193.9 60.9 193.9 59.5L193.9 59.5L195.4 59.5Q195.4 60.4 196.0 60.9Q196.6 61.5 197.5 61.5L197.5 61.5Q198.6 61.5 199.1 60.9Q199.7 60.4 199.7 59.3L199.7 59.3Q199.7 58.4 199.1 57.8Q198.5 57.3 197.3 57.3L197.3 57.3L196.2 57.3ZM203 53.8L203 53.3Q203 52.3 203.7 51.6Q204.3 50.9 205.3 50.9L205.3 50.9Q206.4 50.9 207.0 51.6Q207.7 52.3 207.7 53.3L207.7 53.3L207.7 53.9Q207.7 54.9 207.0 55.6Q206.4 56.2 205.3 56.2L205.3 56.2Q204.3 56.2 203.7 55.6Q203 54.9 203 53.8L203 53.8ZM204.1 53.3L204.1 53.9Q204.1 54.5 204.4 54.9Q204.8 55.3 205.3 55.3L205.3 55.3Q205.9 55.3 206.2 54.9Q206.6 54.5 206.6 53.9L206.6 53.9L206.6 53.3Q206.6 52.7 206.2 52.3Q205.9 51.9 205.3 51.9Q204.8 51.9 204.4 52.3Q204.1 52.7 204.1 53.3L204.1 53.3ZM208.5 60.3L208.5 59.7Q208.5 58.7 209.2 58.0Q209.8 57.4 210.9 57.4Q211.9 57.4 212.5 58.0Q213.2 58.7 213.2 59.7L213.2 59.7L213.2 60.3Q213.2 61.3 212.6 62.0Q211.9 62.6 210.9 62.6Q209.9 62.6 209.2 62.0Q208.5 61.3 208.5 60.3L208.5 60.3ZM209.6 59.7L209.6 60.3Q209.6 60.9 210.0 61.3Q210.3 61.7 210.9 61.7L210.9 61.7Q211.4 61.7 211.8 61.3Q212.1 60.9 212.1 60.3L212.1 60.3L212.1 59.7Q212.1 59.1 211.8 58.7Q211.4 58.3 210.9 58.3L210.9 58.3Q210.3 58.3 210.0 58.7Q209.6 59.1 209.6 59.7L209.6 59.7ZM211.2 52.7L205.7 61.6L204.9 61.1L210.4 52.2L211.2 52.7Z "/><mask id="satori_om-id-1-4"><rect x="224" y="47" width="115" height="19" fill="#fff"/></mask><mask id="satori_om-id-1-4-0"><rect x="224" y="48" width="16" height="16" fill="#fff"/></mask><mask id="satori_om-id-1-4-0-0"><rect x="228" y="52" width="8" height="8" fill="#fff"/></mask><path x="228" y="52" width="8" height="8" fill="#A97BFF" d="M232,52 h0 a4,4 0 0 1 4,4 v0 a4,4 0 0 1 -4,4 h0 a4,4 0 0 1 -4,-4 v0 a4,4 0 0 1 4,-4"/><mask id="satori_om-id-1-4-1"><rect x="253" y="47" width="43" height="19" fill="#fff"/></mask><path fill="#fff" d="M260.5 62.5L257.6 57.9L256.4 59.2L256.4 62.5L254.0 62.5L254.0 51.1L256.4 51.1L256.4 56.3L257.4 54.9L260.3 51.1L263.2 51.1L259.1 56.2L263.3 62.5L260.5 62.5ZM263.5 58.3L263.5 58.2Q263.5 56.9 263.9 55.9Q264.4 55.0 265.3 54.4Q266.3 53.9 267.5 53.9L267.5 53.9Q269.2 53.9 270.2 54.9Q271.3 56.0 271.5 57.8L271.5 57.8L271.5 58.3Q271.5 60.3 270.4 61.5Q269.3 62.6 267.5 62.6Q265.6 62.6 264.6 61.5Q263.5 60.3 263.5 58.3L263.5 58.3ZM265.7 58.3L265.7 58.3Q265.7 59.5 266.2 60.2Q266.6 60.8 267.5 60.8L267.5 60.8Q268.3 60.8 268.8 60.2Q269.2 59.6 269.2 58.2L269.2 58.2Q269.2 57.0 268.8 56.4Q268.3 55.7 267.5 55.7L267.5 55.7Q266.6 55.7 266.2 56.3Q265.7 57.0 265.7 58.3ZM273.3 52.0L275.6 52.0L275.6 54.0L277.0 54.0L277.0 55.7L275.6 55.7L275.6 59.9Q275.6 60.4 275.7 60.6Q275.9 60.8 276.4 60.8L276.4 60.8Q276.8 60.8 277.1 60.7L277.1 60.7L277.1 62.4Q276.4 62.6 275.7 62.6L275.7 62.6Q273.4 62.6 273.3 60.2L273.3 60.2L273.3 55.7L272.1 55.7L272.1 54.0L273.3 54.0L273.3 52.0ZM280.6 50.5L280.6 62.5L278.4 62.5L278.4 50.5L280.6 50.5ZM284.9 54.0L284.9 62.5L282.6 62.5L282.6 54.0L284.9 54.0ZM282.5 51.8L282.5 51.8Q282.5 51.3 282.8 51.0Q283.2 50.7 283.8 50.7L283.8 50.7Q284.3 50.7 284.7 51.0Q285.0 51.3 285.0 51.8L285.0 51.8Q285.0 52.4 284.7 52.7Q284.3 53.0 283.8 53.0Q283.2 53.0 282.8 52.7Q282.5 52.4 282.5 51.8ZM286.7 54.0L288.8 54.0L288.9 55.0Q289.8 53.9 291.3 53.9L291.3 53.9Q292.7 53.9 293.3 54.7Q294.0 55.5 294 57.0L294 57.0L294 62.5L291.7 62.5L291.7 57.1Q291.7 56.4 291.4 56.0Q291.1 55.7 290.4 55.7L290.4 55.7Q289.4 55.7 289.0 56.5L289.0 56.5L289.0 62.5L286.7 62.5L286.7 54.0Z "/><mask id="satori_om-id-1-4-2"><rect x="305" y="47" width="34" height="19" fill="#fff"/></mask><path fill="#7d8590" d="M307.8 57.1L306.6 56.8L307.2 51.1L313.0 51.1L313.0 52.4L308.4 52.4L308.1 55.5Q308.9 55.1 310.0 55.1L310.0 55.1Q311.5 55.1 312.4 56.1Q313.4 57.1 313.4 58.9L313.4 58.9Q313.4 60.6 312.4 61.6Q311.5 62.6 309.8 62.6L309.8 62.6Q308.2 62.6 307.3 61.8Q306.3 61.0 306.2 59.5L306.2 59.5L307.6 59.5Q307.7 60.5 308.3 61.0Q308.8 61.5 309.8 61.5L309.8 61.5Q310.8 61.5 311.3 60.8Q311.9 60.1 311.9 58.9L311.9 58.9Q311.9 57.7 311.3 57.0Q310.7 56.4 309.6 56.4L309.6 56.4Q308.7 56.4 308.1 56.8L308.1 56.8L307.8 57.1ZM315.1 61.7L315.1 61.7Q315.1 61.4 315.3 61.1Q315.6 60.9 316 60.9Q316.4 60.9 316.7 61.1Q316.9 61.4 316.9 61.7L316.9 61.7Q316.9 62.1 316.7 62.3Q316.4 62.6 316 62.6Q315.6 62.6 315.3 62.3Q315.1 62.1 315.1 61.7ZM324.6 51.1L324.8 51.1L324.8 52.3L324.5 52.3Q322.9 52.4 321.9 53.3Q320.9 54.3 320.7 56.1L320.7 56.1Q321.6 55.0 323.2 55.0L323.2 55.0Q324.6 55.0 325.5 56.1Q326.4 57.1 326.4 58.8L326.4 58.8Q326.4 60.5 325.5 61.6Q324.5 62.6 322.9 62.6L322.9 62.6Q321.3 62.6 320.2 61.4Q319.2 60.1 319.2 58.2L319.2 58.2L319.2 57.6Q319.2 54.5 320.6 52.8Q321.9 51.1 324.6 51.1L324.6 51.1ZM322.9 56.2L322.9 56.2Q322.2 56.2 321.5 56.7Q320.9 57.1 320.7 57.8L320.7 57.8L320.7 58.3Q320.7 59.7 321.3 60.6Q321.9 61.4 322.9 61.4L322.9 61.4Q323.9 61.4 324.4 60.7Q325.0 60.0 325.0 58.8L325.0 58.8Q325.0 57.7 324.4 56.9Q323.9 56.2 322.9 56.2ZM328 53.8L328 53.3Q328 52.3 328.7 51.6Q329.3 50.9 330.3 50.9L330.3 50.9Q331.4 50.9 332.0 51.6Q332.7 52.3 332.7 53.3L332.7 53.3L332.7 53.9Q332.7 54.9 332.0 55.6Q331.4 56.2 330.3 56.2L330.3 56.2Q329.3 56.2 328.7 55.6Q328 54.9 328 53.8L328 53.8ZM329.1 53.3L329.1 53.9Q329.1 54.5 329.4 54.9Q329.8 55.3 330.3 55.3L330.3 55.3Q330.9 55.3 331.2 54.9Q331.6 54.5 331.6 53.9L331.6 53.9L331.6 53.3Q331.6 52.7 331.2 52.3Q330.9 51.9 330.3 51.9Q329.8 51.9 329.4 52.3Q329.1 52.7 329.1 53.3L329.1 53.3ZM333.5 60.3L333.5 59.7Q333.5 58.7 334.2 58.0Q334.8 57.4 335.9 57.4Q336.9 57.4 337.5 58.0Q338.2 58.7 338.2 59.7L338.2 59.7L338.2 60.3Q338.2 61.3 337.6 62.0Q336.9 62.6 335.9 62.6Q334.9 62.6 334.2 62.0Q333.5 61.3 333.5 60.3L333.5 60.3ZM334.6 59.7L334.6 60.3Q334.6 60.9 335.0 61.3Q335.3 61.7 335.9 61.7L335.9 61.7Q336.4 61.7 336.8 61.3Q337.1 60.9 337.1 60.3L337.1 60.3L337.1 59.7Q337.1 59.1 336.8 58.7Q336.4 58.3 335.9 58.3L335.9 58.3Q335.3 58.3 335.0 58.7Q334.6 59.1 334.6 59.7L334.6 59.7ZM336.2 52.7L330.7 61.6L329.9 61.1L335.4 52.2L336.2 52.7Z "/><mask id="satori_om-id-1-5"><rect x="0" y="76" width="117" height="18" fill="#fff"/></mask><mask id="satori_om-id-1-5-0"><rect x="0" y="77" width="16" height="16" fill="#fff"/></mask><mask id="satori_om-id-1-5-0-0"><rect x="4" y="81" width="8" height="8" fill="#fff"/></mask><path x="4" y="81" width="8" height="8" fill="#ff3e00" d="M8,81 h0 a4,4 0 0 1 4,4 v0 a4,4 0 0 1 -4,4 h0 a4,4 0 0 1 -4,-4 v0 a4,4 0 0 1 4,-4"/><mask id="satori_om-id-1-5-1"><rect x="29" y="76" width="45" height="18" fill="#fff"/></mask><path fill="#fff" d="M35.9 88.5L35.9 88.5Q35.9 87.8 35.4 87.5Q35.0 87.1 33.8 86.7Q32.5 86.3 31.8 86.0L31.8 86.0Q29.9 84.9 29.9 83.1L29.9 83.1Q29.9 82.2 30.4 81.5Q30.9 80.8 31.9 80.4Q32.9 80.0 34.1 80.0L34.1 80.0Q35.3 80.0 36.3 80.4Q37.2 80.8 37.7 81.6Q38.3 82.4 38.3 83.5L38.3 83.5L35.9 83.5Q35.9 82.7 35.4 82.3Q34.9 81.8 34.0 81.8L34.0 81.8Q33.2 81.8 32.7 82.2Q32.2 82.5 32.2 83.1L32.2 83.1Q32.2 83.7 32.8 84.1Q33.4 84.4 34.4 84.8L34.4 84.8Q36.4 85.4 37.4 86.3Q38.3 87.2 38.3 88.5L38.3 88.5Q38.3 90.0 37.1 90.8Q36.0 91.6 34.1 91.6L34.1 91.6Q32.8 91.6 31.8 91.2Q30.7 90.7 30.1 89.8Q29.5 89.0 29.5 87.9L29.5 87.9L31.9 87.9Q31.9 89.8 34.1 89.8L34.1 89.8Q35.0 89.8 35.4 89.4Q35.9 89.1 35.9 88.5ZM41.3 83.0L42.9 88.7L44.4 83.0L46.8 83.0L43.9 91.5L41.8 91.5L38.9 83.0L41.3 83.0ZM51.6 91.6L51.6 91.6Q49.7 91.6 48.6 90.5Q47.4 89.4 47.4 87.5L47.4 87.5L47.4 87.2Q47.4 86.0 47.9 85.0Q48.4 84.0 49.3 83.4Q50.2 82.9 51.3 82.9L51.3 82.9Q53.1 82.9 54.1 84.0Q55.1 85.1 55.1 87.1L55.1 87.1L55.1 88.0L49.7 88.0Q49.8 88.8 50.3 89.3Q50.9 89.8 51.7 89.8L51.7 89.8Q53.0 89.8 53.8 88.9L53.8 88.9L54.9 90.1Q54.4 90.8 53.5 91.2Q52.6 91.6 51.6 91.6ZM51.3 84.7L51.3 84.7Q50.6 84.7 50.2 85.2Q49.8 85.6 49.7 86.5L49.7 86.5L52.8 86.5L52.8 86.3Q52.8 85.5 52.4 85.1Q52.0 84.7 51.3 84.7ZM58.7 79.5L58.7 91.5L56.5 91.5L56.5 79.5L58.7 79.5ZM61.0 81.0L63.3 81.0L63.3 83.0L64.7 83.0L64.7 84.7L63.3 84.7L63.3 88.9Q63.3 89.4 63.5 89.6Q63.6 89.8 64.1 89.8L64.1 89.8Q64.5 89.8 64.8 89.7L64.8 89.7L64.8 91.4Q64.1 91.6 63.4 91.6L63.4 91.6Q61.1 91.6 61.0 89.2L61.0 89.2L61.0 84.7L59.8 84.7L59.8 83.0L61.0 83.0L61.0 81.0ZM69.9 91.6L69.9 91.6Q68.0 91.6 66.8 90.5Q65.7 89.4 65.7 87.5L65.7 87.5L65.7 87.2Q65.7 86.0 66.2 85.0Q66.7 84.0 67.6 83.4Q68.5 82.9 69.6 82.9L69.6 82.9Q71.4 82.9 72.4 84.0Q73.4 85.1 73.4 87.1L73.4 87.1L73.4 88.0L68.0 88.0Q68.1 88.8 68.6 89.3Q69.2 89.8 70.0 89.8L70.0 89.8Q71.3 89.8 72.1 88.9L72.1 88.9L73.2 90.1Q72.7 90.8 71.8 91.2Q70.9 91.6 69.9 91.6ZM69.6 84.7L69.6 84.7Q68.9 84.7 68.5 85.2Q68.1 85.6 68.0 86.5L68.0 86.5L71.1 86.5L71.1 86.3Q71.1 85.5 70.7 85.1Q70.3 84.7 69.6 84.7Z "/><mask id="satori_om-id-1-5-2"><rect x="83" y="76" width="34" height="18" fill="#fff"/></mask><path fill="#7d8590" d="M85.8 86.1L84.6 85.8L85.2 80.1L91.0 80.1L91.0 81.4L86.4 81.4L86.1 84.5Q86.9 84.1 88.0 84.1L88.0 84.1Q89.5 84.1 90.4 85.1Q91.4 86.1 91.4 87.9L91.4 87.9Q91.4 89.6 90.4 90.6Q89.5 91.6 87.8 91.6L87.8 91.6Q86.2 91.6 85.3 90.8Q84.3 90.0 84.2 88.5L84.2 88.5L85.6 88.5Q85.7 89.5 86.3 90.0Q86.8 90.5 87.8 90.5L87.8 90.5Q88.8 90.5 89.3 89.8Q89.9 89.1 89.9 87.9L89.9 87.9Q89.9 86.7 89.3 86.0Q88.7 85.4 87.6 85.4L87.6 85.4Q86.7 85.4 86.1 85.8L86.1 85.8L85.8 86.1ZM93.1 90.7L93.1 90.7Q93.1 90.4 93.3 90.1Q93.6 89.9 94 89.9Q94.4 89.9 94.7 90.1Q94.9 90.4 94.9 90.7L94.9 90.7Q94.9 91.1 94.7 91.3Q94.4 91.6 94 91.6Q93.6 91.6 93.3 91.3Q93.1 91.1 93.1 90.7ZM102.6 80.1L102.8 80.1L102.8 81.3L102.5 81.3Q100.9 81.4 99.9 82.3Q98.9 83.3 98.7 85.1L98.7 85.1Q99.6 84.0 101.2 84.0L101.2 84.0Q102.6 84.0 103.5 85.1Q104.4 86.1 104.4 87.8L104.4 87.8Q104.4 89.5 103.5 90.6Q102.5 91.6 100.9 91.6L100.9 91.6Q99.3 91.6 98.2 90.4Q97.2 89.1 97.2 87.2L97.2 87.2L97.2 86.6Q97.2 83.5 98.6 81.8Q99.9 80.1 102.6 80.1L102.6 80.1ZM100.9 85.2L100.9 85.2Q100.2 85.2 99.5 85.7Q98.9 86.1 98.7 86.8L98.7 86.8L98.7 87.3Q98.7 88.7 99.3 89.6Q99.9 90.4 100.9 90.4L100.9 90.4Q101.9 90.4 102.4 89.7Q103.0 89.0 103.0 87.8L103.0 87.8Q103.0 86.7 102.4 85.9Q101.9 85.2 100.9 85.2ZM106 82.8L106 82.3Q106 81.3 106.7 80.6Q107.3 79.9 108.3 79.9L108.3 79.9Q109.4 79.9 110.0 80.6Q110.7 81.3 110.7 82.3L110.7 82.3L110.7 82.9Q110.7 83.9 110.0 84.6Q109.4 85.2 108.3 85.2L108.3 85.2Q107.3 85.2 106.7 84.6Q106 83.9 106 82.8L106 82.8ZM107.1 82.3L107.1 82.9Q107.1 83.5 107.4 83.9Q107.8 84.3 108.3 84.3L108.3 84.3Q108.9 84.3 109.2 83.9Q109.6 83.5 109.6 82.9L109.6 82.9L109.6 82.3Q109.6 81.7 109.2 81.3Q108.9 80.9 108.3 80.9Q107.8 80.9 107.4 81.3Q107.1 81.7 107.1 82.3L107.1 82.3ZM111.5 89.3L111.5 88.7Q111.5 87.7 112.2 87.0Q112.8 86.4 113.9 86.4Q114.9 86.4 115.5 87.0Q116.2 87.7 116.2 88.7L116.2 88.7L116.2 89.3Q116.2 90.3 115.6 91.0Q114.9 91.6 113.9 91.6Q112.9 91.6 112.2 91.0Q111.5 90.3 111.5 89.3L111.5 89.3ZM112.6 88.7L112.6 89.3Q112.6 89.9 113.0 90.3Q113.3 90.7 113.9 90.7L113.9 90.7Q114.4 90.7 114.8 90.3Q115.1 89.9 115.1 89.3L115.1 89.3L115.1 88.7Q115.1 88.1 114.8 87.7Q114.4 87.3 113.9 87.3L113.9 87.3Q113.3 87.3 113.0 87.7Q112.6 88.1 112.6 88.7L112.6 88.7ZM114.2 81.7L108.7 90.6L107.9 90.1L113.4 81.2L114.2 81.7Z "/><mask id="satori_om-id-1-6"><rect x="127" y="76" width="83" height="18" fill="#fff"/></mask><mask id="satori_om-id-1-6-0"><rect x="127" y="77" width="16" height="16" fill="#fff"/></mask><mask id="satori_om-id-1-6-0-0"><rect x="131" y="81" width="8" height="8" fill="#fff"/></mask><path x="131" y="81" width="8" height="8" fill="#555555" d="M135,81 h0 a4,4 0 0 1 4,4 v0 a4,4 0 0 1 -4,4 h0 a4,4 0 0 1 -4,-4 v0 a4,4 0 0 1 4,-4"/><mask id="satori_om-id-1-6-1"><rect x="156" y="76" width="11" height="18" fill="#fff"/></mask><path fill="#fff" d="M163.6 87.7L165.9 87.7Q165.8 89.5 164.6 90.6Q163.4 91.6 161.4 91.6L161.4 91.6Q159.2 91.6 157.9 90.2Q156.7 88.7 156.7 86.1L156.7 86.1L156.7 85.4Q156.7 83.8 157.3 82.5Q157.8 81.3 158.9 80.6Q160.0 80.0 161.4 80.0L161.4 80.0Q163.4 80.0 164.6 81.0Q165.8 82.1 166.0 84.0L166.0 84.0L163.6 84.0Q163.5 82.9 163.0 82.4Q162.5 81.9 161.4 81.9L161.4 81.9Q160.2 81.9 159.6 82.7Q159.1 83.6 159.0 85.3L159.0 85.3L159.0 86.2Q159.0 88.0 159.6 88.9Q160.2 89.7 161.4 89.7L161.4 89.7Q162.5 89.7 163.0 89.2Q163.5 88.7 163.6 87.7L163.6 87.7Z "/><mask id="satori_om-id-1-6-2"><rect x="176" y="76" width="34" height="18" fill="#fff"/></mask><path fill="#7d8590" d="M179.0 86.3L179.0 85.1L180.1 85.1Q181.2 85.1 181.7 84.6Q182.3 84.0 182.3 83.1L182.3 83.1Q182.3 81.1 180.3 81.1L180.3 81.1Q179.4 81.1 178.8 81.7Q178.3 82.2 178.3 83.1L178.3 83.1L176.8 83.1Q176.8 81.7 177.8 80.8Q178.8 80.0 180.3 80.0L180.3 80.0Q181.9 80.0 182.9 80.8Q183.8 81.7 183.8 83.2L183.8 83.2Q183.8 83.9 183.3 84.6Q182.8 85.3 182.0 85.6L182.0 85.6Q182.9 85.9 183.4 86.6Q183.9 87.3 183.9 88.3L183.9 88.3Q183.9 89.8 182.9 90.7Q181.9 91.6 180.3 91.6Q178.7 91.6 177.7 90.8Q176.7 89.9 176.7 88.5L176.7 88.5L178.2 88.5Q178.2 89.4 178.8 89.9Q179.4 90.5 180.3 90.5L180.3 90.5Q181.4 90.5 181.9 89.9Q182.5 89.4 182.5 88.3L182.5 88.3Q182.5 87.4 181.9 86.8Q181.3 86.3 180.1 86.3L180.1 86.3L179.0 86.3ZM186.1 90.7L186.1 90.7Q186.1 90.4 186.3 90.1Q186.6 89.9 187 89.9Q187.4 89.9 187.7 90.1Q187.9 90.4 187.9 90.7L187.9 90.7Q187.9 91.1 187.7 91.3Q187.4 91.6 187 91.6Q186.6 91.6 186.3 91.3Q186.1 91.1 186.1 90.7ZM192.0 86.1L190.8 85.8L191.4 80.1L197.2 80.1L197.2 81.4L192.6 81.4L192.3 84.5Q193.1 84.1 194.2 84.1L194.2 84.1Q195.7 84.1 196.6 85.1Q197.5 86.1 197.5 87.9L197.5 87.9Q197.5 89.6 196.6 90.6Q195.6 91.6 193.9 91.6L193.9 91.6Q192.4 91.6 191.5 90.8Q190.5 90.0 190.4 88.5L190.4 88.5L191.8 88.5Q191.9 89.5 192.5 90.0Q193.0 90.5 193.9 90.5L193.9 90.5Q195.0 90.5 195.5 89.8Q196.1 89.1 196.1 87.9L196.1 87.9Q196.1 86.7 195.5 86.0Q194.9 85.4 193.8 85.4L193.8 85.4Q192.9 85.4 192.3 85.8L192.3 85.8L192.0 86.1ZM199 82.8L199 82.3Q199 81.3 199.7 80.6Q200.3 79.9 201.3 79.9L201.3 79.9Q202.4 79.9 203.0 80.6Q203.7 81.3 203.7 82.3L203.7 82.3L203.7 82.9Q203.7 83.9 203.0 84.6Q202.4 85.2 201.3 85.2L201.3 85.2Q200.3 85.2 199.7 84.6Q199 83.9 199 82.8L199 82.8ZM200.1 82.3L200.1 82.9Q200.1 83.5 200.4 83.9Q200.8 84.3 201.3 84.3L201.3 84.3Q201.9 84.3 202.2 83.9Q202.6 83.5 202.6 82.9L202.6 82.9L202.6 82.3Q202.6 81.7 202.2 81.3Q201.9 80.9 201.3 80.9Q200.8 80.9 200.4 81.3Q200.1 81.7 200.1 82.3L200.1 82.3ZM204.5 89.3L204.5 88.7Q204.5 87.7 205.2 87.0Q205.8 86.4 206.9 86.4Q207.9 86.4 208.5 87.0Q209.2 87.7 209.2 88.7L209.2 88.7L209.2 89.3Q209.2 90.3 208.6 91.0Q207.9 91.6 206.9 91.6Q205.9 91.6 205.2 91.0Q204.5 90.3 204.5 89.3L204.5 89.3ZM205.6 88.7L205.6 89.3Q205.6 89.9 206.0 90.3Q206.3 90.7 206.9 90.7L206.9 90.7Q207.4 90.7 207.8 90.3Q208.1 89.9 208.1 89.3L208.1 89.3L208.1 88.7Q208.1 88.1 207.8 87.7Q207.4 87.3 206.9 87.3L206.9 87.3Q206.3 87.3 206.0 87.7Q205.6 88.1 205.6 88.7L205.6 88.7ZM207.2 81.7L201.7 90.6L200.9 90.1L206.4 81.2L207.2 81.7Z "/><mask id="satori_om-id-1-7"><rect x="220" y="76" width="149" height="18" fill="#fff"/></mask><mask id="satori_om-id-1-7-0"><rect x="220" y="77" width="16" height="16" fill="#fff"/></mask><mask id="satori_om-id-1-7-0-0"><rect x="224" y="81" width="8" height="8" fill="#fff"/></mask><path x="224" y="81" width="8" height="8" fill="#f1e05a" d="M228,81 h0 a4,4 0 0 1 4,4 v0 a4,4 0 0 1 -4,4 h0 a4,4 0 0 1 -4,-4 v0 a4,4 0 0 1 4,-4"/><mask id="satori_om-id-1-7-1"><rect x="249" y="76" width="77" height="18" fill="#fff"/></mask><path fill="#fff" d="M254.6 88.0L254.6 80.1L256.9 80.1L256.9 88.0Q256.9 89.1 256.5 89.9Q256.0 90.7 255.1 91.2Q254.2 91.6 253.1 91.6L253.1 91.6Q251.3 91.6 250.3 90.7Q249.3 89.8 249.3 88.1L249.3 88.1L251.7 88.1Q251.7 89.0 252.0 89.4Q252.4 89.8 253.1 89.8L253.1 89.8Q253.8 89.8 254.2 89.3Q254.6 88.8 254.6 88.0L254.6 88.0ZM266.0 91.5L263.7 91.5Q263.5 91.2 263.5 90.7L263.5 90.7Q262.7 91.6 261.3 91.6L261.3 91.6Q260.1 91.6 259.3 90.9Q258.5 90.2 258.5 89.1L258.5 89.1Q258.5 87.8 259.5 87.0Q260.5 86.3 262.3 86.3L262.3 86.3L263.4 86.3L263.4 85.8Q263.4 85.2 263.1 84.9Q262.8 84.5 262.1 84.5L262.1 84.5Q261.6 84.5 261.2 84.8Q260.9 85.1 260.9 85.6L260.9 85.6L258.7 85.6Q258.7 84.8 259.1 84.2Q259.6 83.6 260.4 83.2Q261.2 82.9 262.3 82.9L262.3 82.9Q263.8 82.9 264.7 83.7Q265.6 84.4 265.6 85.9L265.6 85.9L265.6 89.5Q265.7 90.7 266.0 91.4L266.0 91.4L266.0 91.5ZM261.8 89.9L261.8 89.9Q262.3 89.9 262.8 89.7Q263.2 89.5 263.4 89.1L263.4 89.1L263.4 87.6L262.5 87.6Q260.8 87.6 260.7 88.8L260.7 88.8L260.7 88.9Q260.7 89.4 261.0 89.6Q261.3 89.9 261.8 89.9ZM268.9 83.0L270.4 88.7L272 83.0L274.4 83.0L271.5 91.5L269.4 91.5L266.5 83.0L268.9 83.0ZM282.4 91.5L280.1 91.5Q280.0 91.2 279.9 90.7L279.9 90.7Q279.1 91.6 277.8 91.6L277.8 91.6Q276.5 91.6 275.7 90.9Q274.9 90.2 274.9 89.1L274.9 89.1Q274.9 87.8 275.9 87.0Q276.9 86.3 278.8 86.3L278.8 86.3L279.8 86.3L279.8 85.8Q279.8 85.2 279.5 84.9Q279.2 84.5 278.6 84.5L278.6 84.5Q278.0 84.5 277.7 84.8Q277.3 85.1 277.3 85.6L277.3 85.6L275.1 85.6Q275.1 84.8 275.5 84.2Q276.0 83.6 276.8 83.2Q277.6 82.9 278.7 82.9L278.7 82.9Q280.2 82.9 281.2 83.7Q282.1 84.4 282.1 85.9L282.1 85.9L282.1 89.5Q282.1 90.7 282.4 91.4L282.4 91.4L282.4 91.5ZM278.3 89.9L278.3 89.9Q278.8 89.9 279.2 89.7Q279.6 89.5 279.8 89.1L279.8 89.1L279.8 87.6L279.0 87.6Q277.3 87.6 277.2 88.8L277.2 88.8L277.2 88.9Q277.2 89.4 277.5 89.6Q277.8 89.9 278.3 89.9ZM289.9 88.5L289.9 88.5Q289.9 87.8 289.4 87.5Q288.9 87.1 287.7 86.7Q286.5 86.3 285.8 86.0L285.8 86.0Q283.8 84.9 283.8 83.1L283.8 83.1Q283.8 82.2 284.4 81.5Q284.9 80.8 285.8 80.4Q286.8 80.0 288.0 80.0L288.0 80.0Q289.3 80.0 290.2 80.4Q291.2 80.8 291.7 81.6Q292.2 82.4 292.2 83.5L292.2 83.5L289.9 83.5Q289.9 82.7 289.4 82.3Q288.9 81.8 288.0 81.8L288.0 81.8Q287.1 81.8 286.7 82.2Q286.2 82.5 286.2 83.1L286.2 83.1Q286.2 83.7 286.7 84.1Q287.3 84.4 288.4 84.8L288.4 84.8Q290.4 85.4 291.3 86.3Q292.2 87.2 292.2 88.5L292.2 88.5Q292.2 90.0 291.1 90.8Q290.0 91.6 288.1 91.6L288.1 91.6Q286.8 91.6 285.7 91.2Q284.6 90.7 284.1 89.8Q283.5 89.0 283.5 87.9L283.5 87.9L285.8 87.9Q285.8 89.8 288.1 89.8L288.1 89.8Q288.9 89.8 289.4 89.4Q289.9 89.1 289.9 88.5ZM297.2 89.8L297.2 89.8Q297.8 89.8 298.2 89.5Q298.6 89.1 298.6 88.6L298.6 88.6L300.7 88.6Q300.7 89.4 300.2 90.1Q299.8 90.9 299.0 91.2Q298.2 91.6 297.2 91.6L297.2 91.6Q295.4 91.6 294.3 90.5Q293.3 89.3 293.3 87.3L293.3 87.3L293.3 87.2Q293.3 85.2 294.3 84.0Q295.4 82.9 297.2 82.9L297.2 82.9Q298.8 82.9 299.7 83.8Q300.7 84.7 300.7 86.2L300.7 86.2L298.6 86.2Q298.6 85.5 298.2 85.1Q297.8 84.7 297.1 84.7L297.1 84.7Q296.4 84.7 296.0 85.3Q295.6 85.9 295.6 87.1L295.6 87.1L295.6 87.4Q295.6 88.7 296.0 89.2Q296.4 89.8 297.2 89.8ZM306.8 83.0L306.7 85.1Q306.3 85.1 305.9 85.1L305.9 85.1Q304.6 85.1 304.3 86.0L304.3 86.0L304.3 91.5L302.0 91.5L302.0 83.0L304.1 83.0L304.2 84.0Q304.9 82.9 306.1 82.9L306.1 82.9Q306.4 82.9 306.8 83.0L306.8 83.0ZM310.2 83.0L310.2 91.5L307.9 91.5L307.9 83.0L310.2 83.0ZM307.8 80.8L307.8 80.8Q307.8 80.3 308.2 80.0Q308.5 79.7 309.1 79.7L309.1 79.7Q309.7 79.7 310 80.0Q310.3 80.3 310.3 80.8L310.3 80.8Q310.3 81.4 310.0 81.7Q309.6 82.0 309.1 82.0Q308.5 82.0 308.2 81.7Q307.8 81.4 307.8 80.8ZM319.7 87.2L319.7 87.3Q319.7 89.3 318.8 90.5Q317.9 91.6 316.4 91.6L316.4 91.6Q315.1 91.6 314.3 90.7L314.3 90.7L314.3 94.7L312.1 94.7L312.1 83.0L314.2 83.0L314.2 83.9Q315.1 82.9 316.4 82.9L316.4 82.9Q317.9 82.9 318.8 84.0Q319.7 85.2 319.7 87.2L319.7 87.2ZM317.4 87.2L317.4 87.2Q317.4 86.0 317.0 85.4Q316.6 84.7 315.8 84.7L315.8 84.7Q314.7 84.7 314.3 85.5L314.3 85.5L314.3 89.0Q314.7 89.8 315.8 89.8L315.8 89.8Q317.4 89.8 317.4 87.2ZM321.5 81.0L323.8 81.0L323.8 83.0L325.2 83.0L325.2 84.7L323.8 84.7L323.8 88.9Q323.8 89.4 324.0 89.6Q324.1 89.8 324.6 89.8L324.6 89.8Q325.0 89.8 325.3 89.7L325.3 89.7L325.3 91.4Q324.6 91.6 323.9 91.6L323.9 91.6Q321.6 91.6 321.5 89.2L321.5 89.2L321.5 84.7L320.3 84.7L320.3 83.0L321.5 83.0L321.5 81.0Z "/><mask id="satori_om-id-1-7-2"><rect x="335" y="76" width="34" height="18" fill="#fff"/></mask><path fill="#7d8590" d="M343.4 90.3L343.4 91.5L335.9 91.5L335.9 90.4L339.9 86.1Q340.8 85.1 341.1 84.5Q341.4 83.8 341.4 83.2L341.4 83.2Q341.4 82.3 340.9 81.7Q340.3 81.1 339.4 81.1L339.4 81.1Q338.4 81.1 337.8 81.8Q337.2 82.4 337.2 83.5L337.2 83.5L335.7 83.5Q335.7 81.9 336.7 80.9Q337.8 80.0 339.4 80.0L339.4 80.0Q341.0 80.0 342.0 80.8Q342.9 81.6 342.9 83.0L342.9 83.0Q342.9 84.7 340.7 87.0L340.7 87.0L337.7 90.3L343.4 90.3ZM345.1 90.7L345.1 90.7Q345.1 90.4 345.3 90.1Q345.6 89.9 346 89.9Q346.4 89.9 346.7 90.1Q346.9 90.4 346.9 90.7L346.9 90.7Q346.9 91.1 346.7 91.3Q346.4 91.6 346 91.6Q345.6 91.6 345.3 91.3Q345.1 91.1 345.1 90.7ZM354.6 80.1L354.8 80.1L354.8 81.3L354.5 81.3Q352.9 81.4 351.9 82.3Q350.9 83.3 350.7 85.1L350.7 85.1Q351.6 84.0 353.2 84.0L353.2 84.0Q354.6 84.0 355.5 85.1Q356.4 86.1 356.4 87.8L356.4 87.8Q356.4 89.5 355.5 90.6Q354.5 91.6 352.9 91.6L352.9 91.6Q351.3 91.6 350.2 90.4Q349.2 89.1 349.2 87.2L349.2 87.2L349.2 86.6Q349.2 83.5 350.6 81.8Q351.9 80.1 354.6 80.1L354.6 80.1ZM352.9 85.2L352.9 85.2Q352.2 85.2 351.5 85.7Q350.9 86.1 350.7 86.8L350.7 86.8L350.7 87.3Q350.7 88.7 351.3 89.6Q351.9 90.4 352.9 90.4L352.9 90.4Q353.9 90.4 354.4 89.7Q355.0 89.0 355.0 87.8L355.0 87.8Q355.0 86.7 354.4 85.9Q353.9 85.2 352.9 85.2ZM358 82.8L358 82.3Q358 81.3 358.7 80.6Q359.3 79.9 360.3 79.9L360.3 79.9Q361.4 79.9 362.0 80.6Q362.7 81.3 362.7 82.3L362.7 82.3L362.7 82.9Q362.7 83.9 362.0 84.6Q361.4 85.2 360.3 85.2L360.3 85.2Q359.3 85.2 358.7 84.6Q358 83.9 358 82.8L358 82.8ZM359.1 82.3L359.1 82.9Q359.1 83.5 359.4 83.9Q359.8 84.3 360.3 84.3L360.3 84.3Q360.9 84.3 361.2 83.9Q361.6 83.5 361.6 82.9L361.6 82.9L361.6 82.3Q361.6 81.7 361.2 81.3Q360.9 80.9 360.3 80.9Q359.8 80.9 359.4 81.3Q359.1 81.7 359.1 82.3L359.1 82.3ZM363.5 89.3L363.5 88.7Q363.5 87.7 364.2 87.0Q364.8 86.4 365.9 86.4Q366.9 86.4 367.5 87.0Q368.2 87.7 368.2 88.7L368.2 88.7L368.2 89.3Q368.2 90.3 367.6 91.0Q366.9 91.6 365.9 91.6Q364.9 91.6 364.2 91.0Q363.5 90.3 363.5 89.3L363.5 89.3ZM364.6 88.7L364.6 89.3Q364.6 89.9 365.0 90.3Q365.3 90.7 365.9 90.7L365.9 90.7Q366.4 90.7 366.8 90.3Q367.1 89.9 367.1 89.3L367.1 89.3L367.1 88.7Q367.1 88.1 366.8 87.7Q366.4 87.3 365.9 87.3L365.9 87.3Q365.3 87.3 365.0 87.7Q364.6 88.1 364.6 88.7L364.6 88.7ZM366.2 81.7L360.7 90.6L359.9 90.1L365.4 81.2L366.2 81.7Z "/><mask id="satori_om-id-1-8"><rect x="0" y="104" width="112" height="19" fill="#fff"/></mask><mask id="satori_om-id-1-8-0"><rect x="0" y="105" width="16" height="16" fill="#fff"/></mask><mask id="satori_om-id-1-8-0-0"><rect x="4" y="109" width="8" height="8" fill="#fff"/></mask><path x="4" y="109" width="8" height="8" fill="#ff5a03" d="M8,109 h0 a4,4 0 0 1 4,4 v0 a4,4 0 0 1 -4,4 h0 a4,4 0 0 1 -4,-4 v0 a4,4 0 0 1 4,-4"/><mask id="satori_om-id-1-8-1"><rect x="29" y="104" width="40" height="19" fill="#fff"/></mask><path fill="#fff" d="M37.2 119.5L36.4 117.1L32.3 117.1L31.5 119.5L29.1 119.5L33.3 108.1L35.5 108.1L39.7 119.5L37.2 119.5ZM34.4 111.0L33.0 115.2L35.8 115.2L34.4 111.0ZM45.2 117.1L45.2 117.1Q45.2 116.7 44.8 116.5Q44.4 116.3 43.5 116.1L43.5 116.1Q40.5 115.4 40.5 113.5L40.5 113.5Q40.5 112.4 41.4 111.6Q42.3 110.9 43.8 110.9L43.8 110.9Q45.5 110.9 46.4 111.6Q47.4 112.4 47.4 113.6L47.4 113.6L45.1 113.6Q45.1 113.1 44.8 112.8Q44.5 112.5 43.8 112.5L43.8 112.5Q43.3 112.5 43.0 112.7Q42.6 113.0 42.6 113.4L42.6 113.4Q42.6 113.8 43.0 114.0Q43.4 114.2 44.2 114.4Q45.0 114.6 45.6 114.8L45.6 114.8Q47.4 115.4 47.4 117.1L47.4 117.1Q47.4 118.2 46.4 118.9Q45.4 119.6 43.9 119.6L43.9 119.6Q42.8 119.6 42.0 119.3Q41.1 118.9 40.7 118.2Q40.2 117.6 40.2 116.8L40.2 116.8L42.3 116.8Q42.4 117.4 42.8 117.7Q43.2 118.0 43.9 118.0L43.9 118.0Q44.5 118.0 44.9 117.8Q45.2 117.5 45.2 117.1ZM49.3 109.0L51.6 109.0L51.6 111.0L53.0 111.0L53.0 112.7L51.6 112.7L51.6 116.9Q51.6 117.4 51.7 117.6Q51.9 117.8 52.4 117.8L52.4 117.8Q52.8 117.8 53.1 117.7L53.1 117.7L53.1 119.4Q52.4 119.6 51.7 119.6L51.7 119.6Q49.4 119.6 49.3 117.2L49.3 117.2L49.3 112.7L48.1 112.7L48.1 111.0L49.3 111.0L49.3 109.0ZM59.0 111.0L59.0 113.1Q58.6 113.1 58.2 113.1L58.2 113.1Q56.9 113.1 56.5 114.0L56.5 114.0L56.5 119.5L54.3 119.5L54.3 111.0L56.4 111.0L56.5 112.0Q57.1 110.9 58.3 110.9L58.3 110.9Q58.7 110.9 59.0 111.0L59.0 111.0ZM59.5 115.3L59.5 115.2Q59.5 113.9 60.0 112.9Q60.4 112.0 61.3 111.4Q62.3 110.9 63.5 110.9L63.5 110.9Q65.2 110.9 66.3 111.9Q67.3 113.0 67.5 114.8L67.5 114.8L67.5 115.3Q67.5 117.3 66.4 118.5Q65.3 119.6 63.5 119.6Q61.6 119.6 60.6 118.5Q59.5 117.3 59.5 115.3L59.5 115.3ZM61.7 115.3L61.7 115.3Q61.7 116.5 62.2 117.2Q62.6 117.8 63.5 117.8L63.5 117.8Q64.3 117.8 64.8 117.2Q65.2 116.6 65.2 115.2L65.2 115.2Q65.2 114.0 64.8 113.4Q64.3 112.7 63.5 112.7L63.5 112.7Q62.6 112.7 62.2 113.3Q61.7 114.0 61.7 115.3Z "/><mask id="satori_om-id-1-8-2"><rect x="78" y="104" width="34" height="19" fill="#fff"/></mask><path fill="#7d8590" d="M83.7 108.1L83.7 119.5L82.2 119.5L82.2 109.9L79.3 110.9L79.3 109.6L83.5 108.1L83.7 108.1ZM88.1 118.7L88.1 118.7Q88.1 118.4 88.3 118.1Q88.6 117.9 89 117.9Q89.4 117.9 89.7 118.1Q89.9 118.4 89.9 118.7L89.9 118.7Q89.9 119.1 89.7 119.3Q89.4 119.6 89 119.6Q88.6 119.6 88.3 119.3Q88.1 119.1 88.1 118.7ZM97.7 114.5L97.7 114.5Q97.2 115.0 96.6 115.4Q96.0 115.7 95.2 115.7L95.2 115.7Q94.2 115.7 93.5 115.2Q92.8 114.7 92.4 113.8Q92.0 113.0 92.0 111.9L92.0 111.9Q92.0 110.7 92.4 109.8Q92.8 108.9 93.6 108.4Q94.4 108.0 95.5 108.0L95.5 108.0Q97.2 108.0 98.2 109.2Q99.1 110.5 99.1 112.7L99.1 112.7L99.1 113.1Q99.1 116.4 97.8 117.9Q96.5 119.5 93.9 119.5L93.9 119.5L93.6 119.5L93.6 118.3L93.9 118.3Q95.7 118.2 96.6 117.3Q97.6 116.4 97.7 114.5ZM95.5 114.5L95.5 114.5Q96.2 114.5 96.8 114.0Q97.4 113.6 97.7 112.9L97.7 112.9L97.7 112.4Q97.7 110.9 97.1 110.0Q96.5 109.2 95.5 109.2L95.5 109.2Q94.6 109.2 94.0 109.9Q93.4 110.6 93.4 111.8L93.4 111.8Q93.4 113.0 94.0 113.7Q94.5 114.5 95.5 114.5ZM101 110.8L101 110.3Q101 109.3 101.7 108.6Q102.3 107.9 103.3 107.9L103.3 107.9Q104.4 107.9 105.0 108.6Q105.7 109.3 105.7 110.3L105.7 110.3L105.7 110.9Q105.7 111.9 105.0 112.6Q104.4 113.2 103.3 113.2L103.3 113.2Q102.3 113.2 101.7 112.6Q101 111.9 101 110.8L101 110.8ZM102.1 110.3L102.1 110.9Q102.1 111.5 102.4 111.9Q102.8 112.3 103.3 112.3L103.3 112.3Q103.9 112.3 104.2 111.9Q104.6 111.5 104.6 110.9L104.6 110.9L104.6 110.3Q104.6 109.7 104.2 109.3Q103.9 108.9 103.3 108.9Q102.8 108.9 102.4 109.3Q102.1 109.7 102.1 110.3L102.1 110.3ZM106.5 117.3L106.5 116.7Q106.5 115.7 107.2 115.0Q107.8 114.4 108.9 114.4Q109.9 114.4 110.5 115.0Q111.2 115.7 111.2 116.7L111.2 116.7L111.2 117.3Q111.2 118.3 110.6 119.0Q109.9 119.6 108.9 119.6Q107.9 119.6 107.2 119.0Q106.5 118.3 106.5 117.3L106.5 117.3ZM107.6 116.7L107.6 117.3Q107.6 117.9 108.0 118.3Q108.3 118.7 108.9 118.7L108.9 118.7Q109.4 118.7 109.8 118.3Q110.1 117.9 110.1 117.3L110.1 117.3L110.1 116.7Q110.1 116.1 109.8 115.7Q109.4 115.3 108.9 115.3L108.9 115.3Q108.3 115.3 108.0 115.7Q107.6 116.1 107.6 116.7L107.6 116.7ZM109.2 109.7L103.7 118.6L102.9 118.1L108.4 109.2L109.2 109.7Z "/><mask id="satori_om-id-1-9"><rect x="122" y="104" width="103" height="19" fill="#fff"/></mask><mask id="satori_om-id-1-9-0"><rect x="122" y="105" width="16" height="16" fill="#fff"/></mask><mask id="satori_om-id-1-9-0-0"><rect x="126" y="109" width="8" height="8" fill="#fff"/></mask><path x="126" y="109" width="8" height="8" fill="#563d7c" d="M130,109 h0 a4,4 0 0 1 4,4 v0 a4,4 0 0 1 -4,4 h0 a4,4 0 0 1 -4,-4 v0 a4,4 0 0 1 4,-4"/><mask id="satori_om-id-1-9-1"><rect x="151" y="104" width="31" height="19" fill="#fff"/></mask><path fill="#fff" d="M158.6 115.7L160.9 115.7Q160.8 117.5 159.6 118.6Q158.4 119.6 156.4 119.6L156.4 119.6Q154.2 119.6 152.9 118.2Q151.7 116.7 151.7 114.1L151.7 114.1L151.7 113.4Q151.7 111.8 152.3 110.5Q152.8 109.3 153.9 108.6Q155.0 108.0 156.4 108.0L156.4 108.0Q158.4 108.0 159.6 109.0Q160.8 110.1 161.0 112.0L161.0 112.0L158.6 112.0Q158.5 110.9 158.0 110.4Q157.5 109.9 156.4 109.9L156.4 109.9Q155.2 109.9 154.6 110.7Q154.1 111.6 154.0 113.3L154.0 113.3L154.0 114.2Q154.0 116.0 154.6 116.9Q155.2 117.7 156.4 117.7L156.4 117.7Q157.5 117.7 158.0 117.2Q158.5 116.7 158.6 115.7L158.6 115.7ZM168.4 116.5L168.4 116.5Q168.4 115.8 167.9 115.5Q167.4 115.1 166.2 114.7Q165.0 114.3 164.3 114.0L164.3 114.0Q162.4 112.9 162.4 111.1L162.4 111.1Q162.4 110.2 162.9 109.5Q163.4 108.8 164.4 108.4Q165.3 108.0 166.6 108.0L166.6 108.0Q167.8 108.0 168.7 108.4Q169.7 108.8 170.2 109.6Q170.7 110.4 170.7 111.5L170.7 111.5L168.4 111.5Q168.4 110.7 167.9 110.3Q167.4 109.8 166.5 109.8L166.5 109.8Q165.7 109.8 165.2 110.2Q164.7 110.5 164.7 111.1L164.7 111.1Q164.7 111.7 165.3 112.1Q165.8 112.4 166.9 112.8L166.9 112.8Q168.9 113.4 169.8 114.3Q170.7 115.2 170.7 116.5L170.7 116.5Q170.7 118.0 169.6 118.8Q168.5 119.6 166.6 119.6L166.6 119.6Q165.3 119.6 164.2 119.2Q163.1 118.7 162.6 117.8Q162.0 117.0 162.0 115.9L162.0 115.9L164.4 115.9Q164.4 117.8 166.6 117.8L166.6 117.8Q167.4 117.8 167.9 117.4Q168.4 117.1 168.4 116.5ZM178.2 116.5L178.2 116.5Q178.2 115.8 177.8 115.5Q177.3 115.1 176.1 114.7Q174.8 114.3 174.1 114.0L174.1 114.0Q172.2 112.9 172.2 111.1L172.2 111.1Q172.2 110.2 172.7 109.5Q173.2 108.8 174.2 108.4Q175.2 108.0 176.4 108.0L176.4 108.0Q177.6 108.0 178.6 108.4Q179.5 108.8 180.0 109.6Q180.6 110.4 180.6 111.5L180.6 111.5L178.2 111.5Q178.2 110.7 177.7 110.3Q177.2 109.8 176.4 109.8L176.4 109.8Q175.5 109.8 175.0 110.2Q174.5 110.5 174.5 111.1L174.5 111.1Q174.5 111.7 175.1 112.1Q175.7 112.4 176.7 112.8L176.7 112.8Q178.7 113.4 179.7 114.3Q180.6 115.2 180.6 116.5L180.6 116.5Q180.6 118.0 179.5 118.8Q178.3 119.6 176.4 119.6L176.4 119.6Q175.1 119.6 174.1 119.2Q173.0 118.7 172.4 117.8Q171.8 117.0 171.8 115.9L171.8 115.9L174.2 115.9Q174.2 117.8 176.4 117.8L176.4 117.8Q177.3 117.8 177.8 117.4Q178.2 117.1 178.2 116.5Z "/><mask id="satori_om-id-1-9-2"><rect x="191" y="104" width="34" height="19" fill="#fff"/></mask><path fill="#7d8590" d="M199.1 112.8L199.1 114.6Q199.1 117.2 198.2 118.4Q197.3 119.6 195.5 119.6L195.5 119.6Q193.7 119.6 192.8 118.4Q191.9 117.2 191.9 114.8L191.9 114.8L191.9 112.9Q191.9 110.4 192.8 109.2Q193.6 108.0 195.5 108.0L195.5 108.0Q197.3 108.0 198.2 109.1Q199.1 110.3 199.1 112.8L199.1 112.8ZM197.6 115.0L197.6 112.7Q197.6 110.8 197.1 110.0Q196.6 109.1 195.5 109.1L195.5 109.1Q194.4 109.1 193.9 110.0Q193.4 110.8 193.3 112.5L193.3 112.5L193.3 114.9Q193.3 116.7 193.9 117.6Q194.4 118.5 195.5 118.5L195.5 118.5Q196.6 118.5 197.1 117.6Q197.6 116.8 197.6 115.0L197.6 115.0ZM201.1 118.7L201.1 118.7Q201.1 118.4 201.3 118.1Q201.6 117.9 202 117.9Q202.4 117.9 202.7 118.1Q202.9 118.4 202.9 118.7L202.9 118.7Q202.9 119.1 202.7 119.3Q202.4 119.6 202 119.6Q201.6 119.6 201.3 119.3Q201.1 119.1 201.1 118.7ZM210.7 114.5L210.7 114.5Q210.2 115.0 209.6 115.4Q209.0 115.7 208.2 115.7L208.2 115.7Q207.2 115.7 206.5 115.2Q205.8 114.7 205.4 113.8Q205.0 113.0 205.0 111.9L205.0 111.9Q205.0 110.7 205.4 109.8Q205.8 108.9 206.6 108.4Q207.4 108.0 208.5 108.0L208.5 108.0Q210.2 108.0 211.2 109.2Q212.1 110.5 212.1 112.7L212.1 112.7L212.1 113.1Q212.1 116.4 210.8 117.9Q209.5 119.5 206.9 119.5L206.9 119.5L206.6 119.5L206.6 118.3L206.9 118.3Q208.7 118.2 209.6 117.3Q210.6 116.4 210.7 114.5ZM208.5 114.5L208.5 114.5Q209.2 114.5 209.8 114.0Q210.4 113.6 210.7 112.9L210.7 112.9L210.7 112.4Q210.7 110.9 210.1 110.0Q209.5 109.2 208.5 109.2L208.5 109.2Q207.6 109.2 207.0 109.9Q206.4 110.6 206.4 111.8L206.4 111.8Q206.4 113.0 207.0 113.7Q207.5 114.5 208.5 114.5ZM214 110.8L214 110.3Q214 109.3 214.7 108.6Q215.3 107.9 216.3 107.9L216.3 107.9Q217.4 107.9 218.0 108.6Q218.7 109.3 218.7 110.3L218.7 110.3L218.7 110.9Q218.7 111.9 218.0 112.6Q217.4 113.2 216.3 113.2L216.3 113.2Q215.3 113.2 214.7 112.6Q214 111.9 214 110.8L214 110.8ZM215.1 110.3L215.1 110.9Q215.1 111.5 215.4 111.9Q215.8 112.3 216.3 112.3L216.3 112.3Q216.9 112.3 217.2 111.9Q217.6 111.5 217.6 110.9L217.6 110.9L217.6 110.3Q217.6 109.7 217.2 109.3Q216.9 108.9 216.3 108.9Q215.8 108.9 215.4 109.3Q215.1 109.7 215.1 110.3L215.1 110.3ZM219.5 117.3L219.5 116.7Q219.5 115.7 220.2 115.0Q220.8 114.4 221.9 114.4Q222.9 114.4 223.5 115.0Q224.2 115.7 224.2 116.7L224.2 116.7L224.2 117.3Q224.2 118.3 223.6 119.0Q222.9 119.6 221.9 119.6Q220.9 119.6 220.2 119.0Q219.5 118.3 219.5 117.3L219.5 117.3ZM220.6 116.7L220.6 117.3Q220.6 117.9 221.0 118.3Q221.3 118.7 221.9 118.7L221.9 118.7Q222.4 118.7 222.8 118.3Q223.1 117.9 223.1 117.3L223.1 117.3L223.1 116.7Q223.1 116.1 222.8 115.7Q222.4 115.3 221.9 115.3L221.9 115.3Q221.3 115.3 221.0 115.7Q220.6 116.1 220.6 116.7L220.6 116.7ZM222.2 109.7L216.7 118.6L215.9 118.1L221.4 109.2L222.2 109.7Z "/></svg>