<svg width="375" height="200" viewBox="0 0 375 200" xmlns="http://www.w3.org/2000/svg"><mask id="satori_om-id"><rect x="0" y="0" width="375" height="124" fill="#fff"/></mask><clipPath id="satori_cp-id-0"><path x="0" y="0" width="375" height="8" d="M4,0 h367 a4,4 0 0 1 4,4 v0 a4,4 0 0 1 -4,4 h-367 a4,4 0 0 1 -4,-4 v0 a4,4 0 0 1 4,-4"/></clipPath><mask id="satori_om-id-0"><rect x="0" y="0" width="375" height="8" fill="#fff"/></mask><mask id="satori_om-id-0-0"><rect x="0" y="0" width="201" height="8" fill="#fff" mask="url(#satori_om-id-0)"/></mask><rect x="0" y="0" width="201" height="8" fill="#3178c6" clip-path="url(#satori_cp-id-0)" mask="url(#satori_om-id-0)"/><mask id="satori_om-id-0-1"><rect x="201" y="0" width="31" height="8" fill="#fff" mask="url(#satori_om-id-0)"/></mask><rect x="201" y="0" width="31" height="8" fill="#3572A5" clip-path="url(#satori_cp-id-0)" mask="url(#satori_om-id-0)"/><mask id="satori_om-id-0-2"><rect x="232" y="0" width="30" height="8" fill="#fff" mask="url(#satori_om-id-0)"/></mask><rect x="232" y="0" width="30" height="8" fill="#701516" clip-path="url(#satori_cp-id-0)" mask="url(#satori_om-id-0)"/><mask id="satori_om-id-0-3"><rect x="262" y="0" width="29" height="8" fill="#fff" mask="url(#satori_om-id-0)"/></mask><rect x="262" y="0" width="29" height="8" fill="#663399" clip-path="url(#satori_cp-id-0)" mask="url(#satori_om-id-0)"/><mask id="satori_om-id-0-4"><rect x="291" y="0" width="21" height="8" fill="#fff" mask="url(#satori_om-id-0)"/></mask><rect x="291" y="0" width="21" height="8" fill="#e34c26" clip-path="url(#satori_cp-id-0)" mask="url(#satori_om-id-0)"/><mask id="satori_om-id-0-5"><rect x="312" y="0" width="19" height="8" fill="#fff" mask="url(#satori_om-id-0)"/></mask><rect x="312" y="0" width="19" height="8" fill="#00ADD8" clip-path="url(#satori_cp-id-0)" mask="url(#satori_om-id-0)"/><mask id="satori_om-id-0-6"><rect x="331" y="0" width="9" height="8" fill="#fff" mask="url(#satori_om-id-0)"/></mask><rect x="331" y="0" width="9" height="8" fill="#f1e05a" clip-path="url(#satori_cp-id-0)" mask="url(#satori_om-id-0)"/><mask id="satori_om-id-0-7"><rect x="340" y="0" width="9" height="8" fill="#fff" mask="url(#satori_om-id-0)"/></mask><rect x="340" y="0" width="9" height="8" fill="#844FBA" clip-path="url(#satori_cp-id-0)" mask="url(#satori_om-id-0)"/><mask id="satori_om-id-0-8"><rect x="349" y="0" width="5" height="8" fill="#fff" mask="url(#satori_om-id-0)"/></mask><rect x="349" y="0" width="5" height="8" fill="#ff5a03" clip-path="url(#satori_cp-id-0)" mask="url(#satori_om-id-0)"/><mask id="satori_om-id-0-9"><rect x="354" y="0" width="4" height="8" fill="#fff" mask="url(#satori_om-id-0)"/></mask><rect x="354" y="0" width="4" height="8" fill="#A97BFF" clip-path="url(#satori_cp-id-0)" mask="url(#satori_om-id-0)"/><mask id="satori_om-id-1"><rect x="0" y="18" width="375" height="106" fill="#fff"/></mask><mask id="satori_om-id-1-0"><rect x="0" y="18" width="160" height="19" fill="#fff"/></mask><mask id="satori_om-id-1-0-0"><rect x="0" y="20" width="16" height="16" fill="#fff"/></mask><mask id="satori_om-id-1-0-0-0"><rect x="4" y="24" width="8" height="8" fill="#fff"/></mask><path x="4" y="24" width="8" height="8" fill="#3178c6" d="M8,24 h0 a4,4 0 0 1 4,4 v0 a4,4 0 0 1 -4,4 h0 a4,4 0 0 1 -4,-4 v0 a4,4 0 0 1 4,-4"/><mask id="satori_om-id-1-0-1"><rect x="29" y="18" width="79" height="19" fill="#fff"/></mask><g  ><path fill="#24292f" d="M38.6 21.6L38.6 23.5L35.1 23.5L35.1 33L32.8 33L32.8 23.5L29.3 23.5L29.3 21.6L38.6 21.6ZM40.7 24.5L42.3 29.8L43.8 24.5L46.3 24.5L42.9 34.3L42.7 34.8Q41.9 36.4 40.2 36.4L40.2 36.4Q39.7 36.4 39.2 36.3L39.2 36.3L39.2 34.6L39.5 34.6Q40.2 34.6 40.5 34.4Q40.8 34.2 41.0 33.7L41.0 33.7L41.2 33.0L38.3 24.5L40.7 24.5ZM54.8 28.7L54.8 28.9Q54.8 30.8 53.9 32.0Q53.0 33.2 51.5 33.2L51.5 33.2Q50.2 33.2 49.4 32.3L49.4 32.3L49.4 36.3L47.2 36.3L47.2 24.5L49.3 24.5L49.3 25.4Q50.1 24.4 51.5 24.4L51.5 24.4Q53.0 24.4 53.9 25.5Q54.8 26.7 54.8 28.7L54.8 28.7ZM52.5 28.7L52.5 28.7Q52.5 27.5 52.1 26.9Q51.7 26.2 50.9 26.2L50.9 26.2Q49.8 26.2 49.4 27.0L49.4 27.0L49.4 30.5Q49.8 31.3 50.9 31.3L50.9 31.3Q52.5 31.3 52.5 28.7ZM60.1 33.2L60.1 33.2Q58.2 33.2 57.0 32.0Q55.9 30.9 55.9 29.0L55.9 29.0L55.9 28.8Q55.9 27.5 56.4 26.5Q56.8 25.5 57.7 24.9Q58.6 24.4 59.8 24.4L59.8 24.4Q61.5 24.4 62.5 25.5Q63.5 26.6 63.5 28.6L63.5 28.6L63.5 29.5L58.1 29.5Q58.3 30.3 58.8 30.8Q59.4 31.3 60.2 31.3L60.2 31.3Q61.5 31.3 62.2 30.4L62.2 30.4L63.4 31.6Q62.8 32.4 62.0 32.8Q61.1 33.2 60.1 33.2ZM59.8 26.2L59.8 26.2Q59.1 26.2 58.7 26.7Q58.3 27.1 58.2 28.0L58.2 28.0L61.3 28.0L61.3 27.8Q61.3 27.0 60.9 26.6Q60.5 26.2 59.8 26.2ZM70.9 30.0L70.9 30.0Q70.9 29.4 70.4 29.0Q69.9 28.6 68.7 28.2Q67.5 27.9 66.8 27.5L66.8 27.5Q64.8 26.4 64.8 24.6L64.8 24.6Q64.8 23.7 65.4 23.0Q65.9 22.3 66.8 21.9Q67.8 21.5 69.0 21.5L69.0 21.5Q70.3 21.5 71.2 21.9Q72.2 22.4 72.7 23.2Q73.2 24.0 73.2 25.0L73.2 25.0L70.9 25.0Q70.9 24.2 70.4 23.8Q69.9 23.3 69.0 23.3L69.0 23.3Q68.1 23.3 67.7 23.7Q67.2 24.1 67.2 24.7L67.2 24.7Q67.2 25.2 67.7 25.6Q68.3 26.0 69.4 26.3L69.4 26.3Q71.4 26.9 72.3 27.8Q73.2 28.7 73.2 30L73.2 30Q73.2 31.5 72.1 32.3Q71.0 33.2 69.1 33.2L69.1 33.2Q67.8 33.2 66.7 32.7Q65.6 32.2 65.1 31.4Q64.5 30.5 64.5 29.4L64.5 29.4L66.8 29.4Q66.8 31.3 69.1 31.3L69.1 31.3Q69.9 31.3 70.4 31.0Q70.9 30.6 70.9 30.0ZM78.2 31.3L78.2 31.3Q78.8 31.3 79.2 31.0Q79.6 30.6 79.6 30.1L79.6 30.1L81.7 30.1Q81.7 30.9 81.2 31.7Q80.8 32.4 80.0 32.8Q79.2 33.2 78.2 33.2L78.2 33.2Q76.4 33.2 75.3 32.0Q74.3 30.9 74.3 28.8L74.3 28.8L74.3 28.7Q74.3 26.7 75.3 25.6Q76.4 24.4 78.2 24.4L78.2 24.4Q79.8 24.4 80.7 25.3Q81.7 26.2 81.7 27.7L81.7 27.7L79.6 27.7Q79.6 27.0 79.2 26.6Q78.8 26.2 78.1 26.2L78.1 26.2Q77.4 26.2 77.0 26.8Q76.6 27.4 76.6 28.7L76.6 28.7L76.6 28.9Q76.6 30.2 77.0 30.8Q77.4 31.3 78.2 31.3ZM87.8 24.5L87.7 26.7Q87.3 26.6 86.9 26.6L86.9 26.6Q85.6 26.6 85.3 27.5L85.3 27.5L85.3 33L83.0 33L83.0 24.5L85.1 24.5L85.2 25.6Q85.9 24.4 87.1 24.4L87.1 24.4Q87.4 24.4 87.8 24.5L87.8 24.5ZM91.2 24.5L91.2 33L88.9 33L88.9 24.5L91.2 24.5ZM88.8 22.4L88.8 22.4Q88.8 21.9 89.2 21.5Q89.5 21.2 90.1 21.2L90.1 21.2Q90.7 21.2 91 21.5Q91.3 21.9 91.3 22.4L91.3 22.4Q91.3 22.9 91.0 23.2Q90.6 23.5 90.1 23.5Q89.5 23.5 89.2 23.2Q88.8 22.9 88.8 22.4ZM100.7 28.7L100.7 28.9Q100.7 30.8 99.8 32.0Q98.9 33.2 97.4 33.2L97.4 33.2Q96.1 33.2 95.3 32.3L95.3 32.3L95.3 36.3L93.1 36.3L93.1 24.5L95.2 24.5L95.2 25.4Q96.1 24.4 97.4 24.4L97.4 24.4Q98.9 24.4 99.8 25.5Q100.7 26.7 100.7 28.7L100.7 28.7ZM98.4 28.7L98.4 28.7Q98.4 27.5 98.0 26.9Q97.6 26.2 96.8 26.2L96.8 26.2Q95.7 26.2 95.3 27.0L95.3 27.0L95.3 30.5Q95.7 31.3 96.8 31.3L96.8 31.3Q98.4 31.3 98.4 28.7ZM102.5 22.5L104.8 22.5L104.8 24.5L106.2 24.5L106.2 26.2L104.8 26.2L104.8 30.4Q104.8 30.9 105.0 31.1Q105.1 31.3 105.6 31.3L105.6 31.3Q106.0 31.3 106.3 31.2L106.3 31.2L106.3 33.0Q105.6 33.2 104.9 33.2L104.9 33.2Q102.6 33.2 102.5 30.8L102.5 30.8L102.5 26.2L101.3 26.2L101.3 24.5L102.5 24.5L102.5 22.5Z "/></g><mask id="satori_om-id-1-0-2"><rect x="117" y="18" width="43" height="19" fill="#fff"/></mask><g  ><path fill="#57606a" d="M119.8 27.6L118.6 27.3L119.2 21.6L125.0 21.6L125.0 23.0L120.4 23.0L120.1 26.1Q120.9 25.6 122.0 25.6L122.0 25.6Q123.5 25.6 124.4 26.6Q125.4 27.6 125.4 29.4L125.4 29.4Q125.4 31.1 124.4 32.1Q123.5 33.2 121.8 33.2L121.8 33.2Q120.2 33.2 119.3 32.3Q118.3 31.5 118.2 30.0L118.2 30.0L119.6 30.0Q119.7 31.0 120.3 31.5Q120.8 32.0 121.8 32.0L121.8 32.0Q122.8 32.0 123.3 31.3Q123.9 30.6 123.9 29.4L123.9 29.4Q123.9 28.3 123.3 27.6Q122.7 26.9 121.6 26.9L121.6 26.9Q120.7 26.9 120.1 27.3L120.1 27.3L119.8 27.6ZM129.0 27.8L129.0 26.6L130.1 26.6Q131.1 26.6 131.7 26.1Q132.3 25.5 132.3 24.7L132.3 24.7Q132.3 22.7 130.3 22.7L130.3 22.7Q129.4 22.7 128.8 23.2Q128.3 23.7 128.3 24.6L128.3 24.6L126.8 24.6Q126.8 23.3 127.8 22.4Q128.8 21.5 130.3 21.5L130.3 21.5Q131.9 21.5 132.8 22.3Q133.8 23.2 133.8 24.7L133.8 24.7Q133.8 25.4 133.3 26.1Q132.8 26.8 132.0 27.2L132.0 27.2Q132.9 27.5 133.4 28.1Q133.9 28.8 133.9 29.8L133.9 29.8Q133.9 31.4 132.9 32.3Q131.9 33.2 130.3 33.2Q128.7 33.2 127.7 32.3Q126.7 31.4 126.7 30L126.7 30L128.2 30Q128.2 30.9 128.8 31.4Q129.3 32.0 130.3 32.0L130.3 32.0Q131.4 32.0 131.9 31.4Q132.5 30.9 132.5 29.9L132.5 29.9Q132.5 28.9 131.9 28.3Q131.3 27.8 130.1 27.8L130.1 27.8L129.0 27.8ZM136.1 32.2L136.1 32.2Q136.1 31.9 136.3 31.6Q136.5 31.4 137.0 31.4Q137.4 31.4 137.7 31.6Q137.9 31.9 137.9 32.2L137.9 32.2Q137.9 32.6 137.7 32.8Q137.4 33.1 137.0 33.1Q136.5 33.1 136.3 32.8Q136.1 32.6 136.1 32.2ZM145.5 21.6L145.8 21.6L145.8 22.8L145.5 22.8Q143.8 22.9 142.8 23.8Q141.8 24.8 141.7 26.6L141.7 26.6Q142.6 25.5 144.1 25.5L144.1 25.5Q145.6 25.5 146.5 26.6Q147.4 27.6 147.4 29.3L147.4 29.3Q147.4 31.0 146.4 32.1Q145.5 33.2 143.9 33.2L143.9 33.2Q142.2 33.2 141.2 31.9Q140.2 30.6 140.2 28.7L140.2 28.7L140.2 28.1Q140.2 25.0 141.6 23.3Q142.9 21.7 145.5 21.6L145.5 21.6ZM143.9 26.7L143.9 26.7Q143.2 26.7 142.5 27.2Q141.9 27.6 141.7 28.3L141.7 28.3L141.7 28.8Q141.7 30.2 142.3 31.1Q142.9 32.0 143.9 32.0L143.9 32.0Q144.9 32.0 145.4 31.2Q146.0 30.5 146.0 29.4L146.0 29.4Q146.0 28.2 145.4 27.5Q144.8 26.7 143.9 26.7ZM149.0 24.4L149.0 23.8Q149.0 22.8 149.6 22.1Q150.3 21.5 151.3 21.5L151.3 21.5Q152.4 21.5 153.0 22.1Q153.6 22.8 153.6 23.9L153.6 23.9L153.6 24.4Q153.6 25.4 153.0 26.1Q152.3 26.8 151.3 26.8L151.3 26.8Q150.3 26.8 149.6 26.1Q149.0 25.4 149.0 24.4L149.0 24.4ZM150.1 23.8L150.1 24.4Q150.1 25.0 150.4 25.4Q150.8 25.8 151.3 25.8L151.3 25.8Q151.9 25.8 152.2 25.4Q152.6 25.0 152.6 24.4L152.6 24.4L152.6 23.8Q152.6 23.2 152.2 22.8Q151.9 22.4 151.3 22.4Q150.7 22.4 150.4 22.8Q150.1 23.2 150.1 23.8L150.1 23.8ZM154.5 30.8L154.5 30.2Q154.5 29.2 155.2 28.5Q155.8 27.9 156.9 27.9Q157.9 27.9 158.5 28.5Q159.2 29.2 159.2 30.3L159.2 30.3L159.2 30.8Q159.2 31.8 158.5 32.5Q157.9 33.2 156.9 33.2Q155.9 33.2 155.2 32.5Q154.5 31.9 154.5 30.8L154.5 30.8ZM155.6 30.2L155.6 30.8Q155.6 31.4 155.9 31.8Q156.3 32.2 156.9 32.2L156.9 32.2Q157.4 32.2 157.8 31.8Q158.1 31.5 158.1 30.8L158.1 30.8L158.1 30.2Q158.1 29.6 157.8 29.2Q157.4 28.8 156.9 28.8L156.9 28.8Q156.3 28.8 155.9 29.2Q155.6 29.6 155.6 30.2L155.6 30.2ZM157.2 23.3L151.7 32.1L150.8 31.6L156.4 22.7L157.2 23.3Z "/></g><mask id="satori_om-id-1-1"><rect x="170" y="18" width="123" height="19" fill="#fff"/></mask><mask id="satori_om-id-1-1-0"><rect x="170" y="20" width="16" height="16" fill="#fff"/></mask><mask id="satori_om-id-1-1-0-0"><rect x="174" y="24" width="8" height="8" fill="#fff"/></mask><path x="174" y="24" width="8" height="8" fill="#3572A5" d="M178,24 h0 a4,4 0 0 1 4,4 v0 a4,4 0 0 1 -4,4 h0 a4,4 0 0 1 -4,-4 v0 a4,4 0 0 1 4,-4"/><mask id="satori_om-id-1-1-1"><rect x="199" y="18" width="51" height="19" fill="#fff"/></mask><g  ><path fill="#24292f" d="M204.4 29.0L202.4 29.0L202.4 33L200.0 33L200.0 21.6L204.5 21.6Q205.7 21.6 206.7 22.1Q207.7 22.6 208.2 23.4Q208.7 24.3 208.7 25.4L208.7 25.4Q208.7 27.1 207.6 28.0Q206.4 29.0 204.4 29.0L204.4 29.0ZM202.4 23.5L202.4 27.1L204.5 27.1Q205.4 27.1 205.9 26.7Q206.4 26.2 206.4 25.4L206.4 25.4Q206.4 24.6 205.9 24.1Q205.4 23.5 204.5 23.5L204.5 23.5L202.4 23.5ZM211.9 24.5L213.5 29.8L215.0 24.5L217.4 24.5L214.0 34.3L213.9 34.8Q213.1 36.4 211.4 36.4L211.4 36.4Q210.9 36.4 210.4 36.3L210.4 36.3L210.4 34.6L210.7 34.6Q211.3 34.6 211.7 34.4Q212.0 34.2 212.2 33.7L212.2 33.7L212.4 33.0L209.5 24.5L211.9 24.5ZM218.8 22.5L221.0 22.5L221.0 24.5L222.5 24.5L222.5 26.2L221.0 26.2L221.0 30.4Q221.0 30.9 221.2 31.1Q221.4 31.3 221.9 31.3L221.9 31.3Q222.3 31.3 222.6 31.2L222.6 31.2L222.6 33.0Q221.9 33.2 221.2 33.2L221.2 33.2Q218.8 33.2 218.8 30.8L218.8 30.8L218.8 26.2L217.5 26.2L217.5 24.5L218.8 24.5L218.8 22.5ZM225.9 21L225.9 25.5Q226.8 24.4 228.2 24.4L228.2 24.4Q231.0 24.4 231.0 27.6L231.0 27.6L231.0 33L228.7 33L228.7 27.6Q228.7 26.9 228.4 26.6Q228.1 26.2 227.4 26.2L227.4 26.2Q226.4 26.2 225.9 27.0L225.9 27.0L225.9 33L223.7 33L223.7 21L225.9 21ZM232.3 28.8L232.3 28.7Q232.3 27.4 232.8 26.5Q233.3 25.5 234.2 24.9Q235.1 24.4 236.3 24.4L236.3 24.4Q238.0 24.4 239.1 25.4Q240.2 26.5 240.3 28.3L240.3 28.3L240.4 28.9Q240.4 30.8 239.3 32.0Q238.2 33.2 236.4 33.2Q234.5 33.2 233.4 32.0Q232.3 30.8 232.3 28.8L232.3 28.8ZM234.6 28.9L234.6 28.9Q234.6 30.1 235.1 30.7Q235.5 31.3 236.4 31.3L236.4 31.3Q237.2 31.3 237.6 30.7Q238.1 30.1 238.1 28.7L238.1 28.7Q238.1 27.5 237.6 26.9Q237.2 26.2 236.3 26.2L236.3 26.2Q235.5 26.2 235.1 26.9Q234.6 27.5 234.6 28.9ZM241.7 24.5L243.8 24.5L243.9 25.5Q244.8 24.4 246.3 24.4L246.3 24.4Q247.7 24.4 248.3 25.2Q249.0 26.0 249.0 27.5L249.0 27.5L249.0 33L246.7 33L246.7 27.6Q246.7 26.9 246.4 26.6Q246.1 26.2 245.4 26.2L245.4 26.2Q244.4 26.2 244.0 27.0L244.0 27.0L244.0 33L241.7 33L241.7 24.5Z "/></g><mask id="satori_om-id-1-1-2"><rect x="259" y="18" width="34" height="19" fill="#fff"/></mask><g  ><path fill="#57606a" d="M266.8 24.6L266.8 24.6Q266.8 25.4 266.4 26.1Q265.9 26.8 265.2 27.1L265.2 27.1Q266.1 27.5 266.6 28.3Q267.1 29 267.1 29.9L267.1 29.9Q267.1 31.4 266.1 32.3Q265.1 33.2 263.5 33.2L263.5 33.2Q261.9 33.2 260.9 32.3Q259.9 31.4 259.9 29.9L259.9 29.9Q259.9 29.0 260.4 28.3Q260.9 27.5 261.8 27.1L261.8 27.1Q261.0 26.8 260.6 26.1Q260.1 25.4 260.1 24.6L260.1 24.6Q260.1 23.2 261.1 22.3Q262.0 21.5 263.5 21.5L263.5 21.5Q265.0 21.5 265.9 22.3Q266.8 23.2 266.8 24.6ZM265.7 29.9L265.7 29.9Q265.7 28.9 265.1 28.3Q264.5 27.7 263.5 27.7Q262.5 27.7 261.9 28.3Q261.3 28.9 261.3 29.9Q261.3 30.9 261.9 31.4Q262.5 32.0 263.5 32.0L263.5 32.0Q264.5 32.0 265.1 31.4Q265.7 30.9 265.7 29.9ZM263.5 22.7L263.5 22.7Q262.6 22.7 262.1 23.2Q261.6 23.7 261.6 24.6L261.6 24.6Q261.6 25.5 262.1 26.0Q262.6 26.6 263.5 26.6Q264.4 26.6 264.9 26.0Q265.4 25.5 265.4 24.6Q265.4 23.8 264.9 23.2Q264.3 22.7 263.5 22.7ZM269.1 32.2L269.1 32.2Q269.1 31.9 269.3 31.6Q269.6 31.4 270 31.4Q270.4 31.4 270.7 31.6Q270.9 31.9 270.9 32.2L270.9 32.2Q270.9 32.6 270.7 32.8Q270.4 33.1 270 33.1Q269.6 33.1 269.3 32.8Q269.1 32.6 269.1 32.2ZM280.6 31.8L280.6 33L273.1 33L273.1 32.0L277.1 27.6Q278.0 26.6 278.3 26.0Q278.6 25.4 278.6 24.7L278.6 24.7Q278.6 23.8 278.1 23.2Q277.5 22.7 276.6 22.7L276.6 22.7Q275.6 22.7 275.0 23.3Q274.4 23.9 274.4 25.0L274.4 25.0L272.9 25.0Q272.9 23.4 273.9 22.4Q274.9 21.5 276.6 21.5L276.6 21.5Q278.2 21.5 279.1 22.3Q280.1 23.1 280.1 24.5L280.1 24.5Q280.1 26.2 277.9 28.5L277.9 28.5L274.9 31.8L280.6 31.8ZM282 24.4L282 23.8Q282 22.8 282.7 22.1Q283.3 21.5 284.3 21.5L284.3 21.5Q285.4 21.5 286.0 22.1Q286.7 22.8 286.7 23.9L286.7 23.9L286.7 24.4Q286.7 25.4 286.0 26.1Q285.4 26.8 284.3 26.8L284.3 26.8Q283.3 26.8 282.7 26.1Q282 25.4 282 24.4L282 24.4ZM283.1 23.8L283.1 24.4Q283.1 25.0 283.4 25.4Q283.8 25.8 284.3 25.8L284.3 25.8Q284.9 25.8 285.2 25.4Q285.6 25.0 285.6 24.4L285.6 24.4L285.6 23.8Q285.6 23.2 285.2 22.8Q284.9 22.4 284.3 22.4Q283.8 22.4 283.4 22.8Q283.1 23.2 283.1 23.8L283.1 23.8ZM287.5 30.8L287.5 30.2Q287.5 29.2 288.2 28.5Q288.8 27.9 289.9 27.9Q290.9 27.9 291.5 28.5Q292.2 29.2 292.2 30.3L292.2 30.3L292.2 30.8Q292.2 31.8 291.6 32.5Q290.9 33.2 289.9 33.2Q288.9 33.2 288.2 32.5Q287.5 31.9 287.5 30.8L287.5 30.8ZM288.6 30.2L288.6 30.8Q288.6 31.4 289.0 31.8Q289.3 32.2 289.9 32.2L289.9 32.2Q290.4 32.2 290.8 31.8Q291.1 31.5 291.1 30.8L291.1 30.8L291.1 30.2Q291.1 29.6 290.8 29.2Q290.4 28.8 289.9 28.8L289.9 28.8Q289.3 28.8 289.0 29.2Q288.6 29.6 288.6 30.2L288.6 30.2ZM290.2 23.3L284.7 32.1L283.9 31.6L289.4 22.7L290.2 23.3Z "/></g><mask id="satori_om-id-1-2"><rect x="0" y="47" width="109" height="19" fill="#fff"/></mask><mask id="satori_om-id-1-2-0"><rect x="0" y="49" width="16" height="16" fill="#fff"/></mask><mask id="satori_om-id-1-2-0-0"><rect x="4" y="53" width="8" height="8" fill="#fff"/></mask><path x="4" y="53" width="8" height="8" fill="#701516" d="M8,53 h0 a4,4 0 0 1 4,4 v0 a4,4 0 0 1 -4,4 h0 a4,4 0 0 1 -4,-4 v0 a4,4 0 0 1 4,-4"/><mask id="satori_om-id-1-2-1"><rect x="29" y="47" width="37" height="19" fill="#fff"/></mask><g  ><path fill="#24292f" d="M36.4 62L34.2 57.8L32.4 57.8L32.4 62L30.0 62L30.0 50.6L34.2 50.6Q36.3 50.6 37.4 51.5Q38.4 52.4 38.4 54.1L38.4 54.1Q38.4 55.2 37.9 56.0Q37.4 56.8 36.4 57.2L36.4 57.2L38.9 61.9L38.9 62L36.4 62ZM32.4 52.5L32.4 55.9L34.3 55.9Q35.1 55.9 35.6 55.5Q36.1 55.0 36.1 54.3L36.1 54.3Q36.1 53.4 35.6 53.0Q35.2 52.5 34.2 52.5L34.2 52.5L32.4 52.5ZM45.2 62L45.1 61.1Q44.3 62.2 42.8 62.2L42.8 62.2Q41.5 62.2 40.8 61.4Q40.0 60.6 40.0 59.1L40.0 59.1L40.0 53.5L42.3 53.5L42.3 59.0Q42.3 60.3 43.5 60.3L43.5 60.3Q44.6 60.3 45.1 59.5L45.1 59.5L45.1 53.5L47.3 53.5L47.3 62L45.2 62ZM56.6 57.7L56.6 57.9Q56.6 59.9 55.8 61.0Q54.9 62.2 53.4 62.2L53.4 62.2Q52.0 62.2 51.2 61.1L51.2 61.1L51.1 62L49.0 62L49.0 50L51.3 50L51.3 54.3Q52.1 53.4 53.3 53.4L53.3 53.4Q54.9 53.4 55.8 54.5Q56.6 55.7 56.6 57.7L56.6 57.7ZM54.4 57.7L54.4 57.7Q54.4 56.4 54.0 55.8Q53.6 55.2 52.8 55.2L52.8 55.2Q51.7 55.2 51.3 56.1L51.3 56.1L51.3 59.4Q51.7 60.3 52.8 60.3L52.8 60.3Q53.9 60.3 54.2 59.3L54.2 59.3Q54.4 58.7 54.4 57.7ZM59.5 53.5L61.1 58.8L62.7 53.5L65.1 53.5L61.7 63.3L61.5 63.8Q60.8 65.4 59.0 65.4L59.0 65.4Q58.5 65.4 58.0 65.3L58.0 65.3L58.0 63.6L58.4 63.6Q59.0 63.6 59.3 63.4Q59.6 63.2 59.8 62.7L59.8 62.7L60.1 62.0L57.1 53.5L59.5 53.5Z "/></g><mask id="satori_om-id-1-2-2"><rect x="75" y="47" width="34" height="19" fill="#fff"/></mask><g  ><path fill="#57606a" d="M82.8 53.6L82.8 53.6Q82.8 54.4 82.4 55.1Q81.9 55.8 81.2 56.1L81.2 56.1Q82.1 56.5 82.6 57.3Q83.1 58 83.1 58.9L83.1 58.9Q83.1 60.4 82.1 61.3Q81.1 62.2 79.5 62.2L79.5 62.2Q77.9 62.2 76.9 61.3Q75.9 60.4 75.9 58.9L75.9 58.9Q75.9 58.0 76.4 57.3Q76.9 56.5 77.8 56.1L77.8 56.1Q77.0 55.8 76.6 55.1Q76.1 54.4 76.1 53.6L76.1 53.6Q76.1 52.2 77.1 51.3Q78.0 50.5 79.5 50.5L79.5 50.5Q81.0 50.5 81.9 51.3Q82.8 52.2 82.8 53.6ZM81.7 58.9L81.7 58.9Q81.7 57.9 81.1 57.3Q80.5 56.7 79.5 56.7Q78.5 56.7 77.9 57.3Q77.3 57.9 77.3 58.9Q77.3 59.9 77.9 60.4Q78.5 61.0 79.5 61.0L79.5 61.0Q80.5 61.0 81.1 60.4Q81.7 59.9 81.7 58.9ZM79.5 51.7L79.5 51.7Q78.6 51.7 78.1 52.2Q77.6 52.7 77.6 53.6L77.6 53.6Q77.6 54.5 78.1 55.0Q78.6 55.6 79.5 55.6Q80.4 55.6 80.9 55.0Q81.4 54.5 81.4 53.6Q81.4 52.8 80.9 52.2Q80.3 51.7 79.5 51.7ZM85.1 61.2L85.1 61.2Q85.1 60.9 85.3 60.6Q85.6 60.4 86 60.4Q86.4 60.4 86.7 60.6Q86.9 60.9 86.9 61.2L86.9 61.2Q86.9 61.6 86.7 61.8Q86.4 62.1 86 62.1Q85.6 62.1 85.3 61.8Q85.1 61.6 85.1 61.2ZM96.6 60.8L96.6 62L89.1 62L89.1 61.0L93.1 56.6Q94.0 55.6 94.3 55.0Q94.6 54.4 94.6 53.7L94.6 53.7Q94.6 52.8 94.1 52.2Q93.5 51.7 92.6 51.7L92.6 51.7Q91.6 51.7 91.0 52.3Q90.4 52.9 90.4 54.0L90.4 54.0L88.9 54.0Q88.9 52.4 89.9 51.4Q90.9 50.5 92.6 50.5L92.6 50.5Q94.2 50.5 95.1 51.3Q96.1 52.1 96.1 53.5L96.1 53.5Q96.1 55.2 93.9 57.5L93.9 57.5L90.9 60.8L96.6 60.8ZM98 53.4L98 52.8Q98 51.8 98.7 51.1Q99.3 50.5 100.3 50.5L100.3 50.5Q101.4 50.5 102.0 51.1Q102.7 51.8 102.7 52.9L102.7 52.9L102.7 53.4Q102.7 54.4 102.0 55.1Q101.4 55.8 100.3 55.8L100.3 55.8Q99.3 55.8 98.7 55.1Q98 54.4 98 53.4L98 53.4ZM99.1 52.8L99.1 53.4Q99.1 54.0 99.4 54.4Q99.8 54.8 100.3 54.8L100.3 54.8Q100.9 54.8 101.2 54.4Q101.6 54.0 101.6 53.4L101.6 53.4L101.6 52.8Q101.6 52.2 101.2 51.8Q100.9 51.4 100.3 51.4Q99.8 51.4 99.4 51.8Q99.1 52.2 99.1 52.8L99.1 52.8ZM103.5 59.8L103.5 59.2Q103.5 58.2 104.2 57.5Q104.8 56.9 105.9 56.9Q106.9 56.9 107.5 57.5Q108.2 58.2 108.2 59.3L108.2 59.3L108.2 59.8Q108.2 60.8 107.6 61.5Q106.9 62.2 105.9 62.2Q104.9 62.2 104.2 61.5Q103.5 60.9 103.5 59.8L103.5 59.8ZM104.6 59.2L104.6 59.8Q104.6 60.4 105.0 60.8Q105.3 61.2 105.9 61.2L105.9 61.2Q106.4 61.2 106.8 60.8Q107.1 60.5 107.1 59.8L107.1 59.8L107.1 59.2Q107.1 58.6 106.8 58.2Q106.4 57.8 105.9 57.8L105.9 57.8Q105.3 57.8 105.0 58.2Q104.6 58.6 104.6 59.2L104.6 59.2ZM106.2 52.3L100.7 61.1L99.9 60.6L105.4 51.7L106.2 52.3Z "/></g><mask id="satori_om-id-1-3"><rect x="119" y="47" width="103" height="19" fill="#fff"/></mask><mask id="satori_om-id-1-3-0"><rect x="119" y="49" width="16" height="16" fill="#fff"/></mask><mask id="satori_om-id-1-3-0-0"><rect x="123" y="53" width="8" height="8" fill="#fff"/></mask><path x="123" y="53" width="8" height="8" fill="#663399" d="M127,53 h0 a4,4 0 0 1 4,4 v0 a4,4 0 0 1 -4,4 h0 a4,4 0 0 1 -4,-4 v0 a4,4 0 0 1 4,-4"/><mask id="satori_om-id-1-3-1"><rect x="148" y="47" width="31" height="19" fill="#fff"/></mask><g  ><path fill="#24292f" d="M155.6 58.2L157.9 58.2Q157.8 60.0 156.6 61.1Q155.4 62.2 153.4 62.2L153.4 62.2Q151.2 62.2 149.9 60.7Q148.7 59.2 148.7 56.6L148.7 56.6L148.7 55.9Q148.7 54.3 149.3 53.1Q149.8 51.8 150.9 51.1Q152.0 50.5 153.4 50.5L153.4 50.5Q155.4 50.5 156.6 51.5Q157.8 52.6 158.0 54.5L158.0 54.5L155.6 54.5Q155.5 53.4 155.0 52.9Q154.5 52.4 153.4 52.4L153.4 52.4Q152.2 52.4 151.6 53.2Q151.1 54.1 151.0 55.8L151.0 55.8L151.0 56.7Q151.0 58.5 151.6 59.4Q152.2 60.2 153.4 60.2L153.4 60.2Q154.5 60.2 155.0 59.7Q155.5 59.3 155.6 58.2L155.6 58.2ZM165.4 59.0L165.4 59.0Q165.4 58.4 164.9 58.0Q164.4 57.6 163.2 57.2Q162.0 56.9 161.3 56.5L161.3 56.5Q159.4 55.4 159.4 53.6L159.4 53.6Q159.4 52.7 159.9 52.0Q160.4 51.3 161.4 50.9Q162.3 50.5 163.6 50.5L163.6 50.5Q164.8 50.5 165.7 50.9Q166.7 51.4 167.2 52.2Q167.7 53.0 167.7 54.0L167.7 54.0L165.4 54.0Q165.4 53.2 164.9 52.8Q164.4 52.3 163.5 52.3L163.5 52.3Q162.7 52.3 162.2 52.7Q161.7 53.1 161.7 53.7L161.7 53.7Q161.7 54.2 162.3 54.6Q162.8 55.0 163.9 55.3L163.9 55.3Q165.9 55.9 166.8 56.8Q167.7 57.7 167.7 59L167.7 59Q167.7 60.5 166.6 61.3Q165.5 62.2 163.6 62.2L163.6 62.2Q162.3 62.2 161.2 61.7Q160.1 61.2 159.6 60.4Q159.0 59.5 159.0 58.4L159.0 58.4L161.4 58.4Q161.4 60.3 163.6 60.3L163.6 60.3Q164.4 60.3 164.9 60.0Q165.4 59.6 165.4 59.0ZM175.2 59.0L175.2 59.0Q175.2 58.4 174.8 58.0Q174.3 57.6 173.1 57.2Q171.8 56.9 171.1 56.5L171.1 56.5Q169.2 55.4 169.2 53.6L169.2 53.6Q169.2 52.7 169.7 52.0Q170.2 51.3 171.2 50.9Q172.2 50.5 173.4 50.5L173.4 50.5Q174.6 50.5 175.6 50.9Q176.5 51.4 177.0 52.2Q177.6 53.0 177.6 54.0L177.6 54.0L175.2 54.0Q175.2 53.2 174.7 52.8Q174.2 52.3 173.4 52.3L173.4 52.3Q172.5 52.3 172.0 52.7Q171.5 53.1 171.5 53.7L171.5 53.7Q171.5 54.2 172.1 54.6Q172.7 55.0 173.7 55.3L173.7 55.3Q175.7 55.9 176.7 56.8Q177.6 57.7 177.6 59L177.6 59Q177.6 60.5 176.5 61.3Q175.3 62.2 173.4 62.2L173.4 62.2Q172.1 62.2 171.1 61.7Q170.0 61.2 169.4 60.4Q168.8 59.5 168.8 58.4L168.8 58.4L171.2 58.4Q171.2 60.3 173.4 60.3L173.4 60.3Q174.3 60.3 174.8 60.0Q175.2 59.6 175.2 59.0Z "/></g><mask id="satori_om-id-1-3-2"><rect x="188" y="47" width="34" height="19" fill="#fff"/></mask><g  ><path fill="#57606a" d="M196.3 50.6L196.3 51.4L191.6 62L190.1 62L194.8 51.8L188.6 51.8L188.6 50.6L196.3 50.6ZM198.1 61.2L198.1 61.2Q198.1 60.9 198.3 60.6Q198.6 60.4 199 60.4Q199.4 60.4 199.7 60.6Q199.9 60.9 199.9 61.2L199.9 61.2Q199.9 61.6 199.7 61.8Q199.4 62.1 199 62.1Q198.6 62.1 198.3 61.8Q198.1 61.6 198.1 61.2ZM209.5 50.6L209.5 51.4L204.8 62L203.3 62L208.0 51.8L201.8 51.8L201.8 50.6L209.5 50.6ZM211 53.4L211 52.8Q211 51.8 211.7 51.1Q212.3 50.5 213.3 50.5L213.3 50.5Q214.4 50.5 215.0 51.1Q215.7 51.8 215.7 52.9L215.7 52.9L215.7 53.4Q215.7 54.4 215.0 55.1Q214.4 55.8 213.3 55.8L213.3 55.8Q212.3 55.8 211.7 55.1Q211 54.4 211 53.4L211 53.4ZM212.1 52.8L212.1 53.4Q212.1 54.0 212.4 54.4Q212.8 54.8 213.3 54.8L213.3 54.8Q213.9 54.8 214.2 54.4Q214.6 54.0 214.6 53.4L214.6 53.4L214.6 52.8Q214.6 52.2 214.2 51.8Q213.9 51.4 213.3 51.4Q212.8 51.4 212.4 51.8Q212.1 52.2 212.1 52.8L212.1 52.8ZM216.5 59.8L216.5 59.2Q216.5 58.2 217.2 57.5Q217.8 56.9 218.9 56.9Q219.9 56.9 220.5 57.5Q221.2 58.2 221.2 59.3L221.2 59.3L221.2 59.8Q221.2 60.8 220.6 61.5Q219.9 62.2 218.9 62.2Q217.9 62.2 217.2 61.5Q216.5 60.9 216.5 59.8L216.5 59.8ZM217.6 59.2L217.6 59.8Q217.6 60.4 218.0 60.8Q218.3 61.2 218.9 61.2L218.9 61.2Q219.4 61.2 219.8 60.8Q220.1 60.5 220.1 59.8L220.1 59.8L220.1 59.2Q220.1 58.6 219.8 58.2Q219.4 57.8 218.9 57.8L218.9 57.8Q218.3 57.8 218.0 58.2Q217.6 58.6 217.6 59.2L217.6 59.2ZM219.2 52.3L213.7 61.1L212.9 60.6L218.4 51.7L219.2 52.3Z "/></g><mask id="satori_om-id-1-4"><rect x="232" y="47" width="116" height="19" fill="#fff"/></mask><mask id="satori_om-id-1-4-0"><rect x="232" y="49" width="16" height="16" fill="#fff"/></mask><mask id="satori_om-id-1-4-0-0"><rect x="236" y="53" width="8" height="8" fill="#fff"/></mask><path x="236" y="53" width="8" height="8" fill="#e34c26" d="M240,53 h0 a4,4 0 0 1 4,4 v0 a4,4 0 0 1 -4,4 h0 a4,4 0 0 1 -4,-4 v0 a4,4 0 0 1 4,-4"/><mask id="satori_om-id-1-4-1"><rect x="261" y="47" width="44" height="19" fill="#fff"/></mask><g  ><path fill="#24292f" d="M271.3 50.6L271.3 62L268.9 62L268.9 57.1L264.4 57.1L264.4 62L262.0 62L262.0 50.6L264.4 50.6L264.4 55.2L268.9 55.2L268.9 50.6L271.3 50.6ZM281.7 50.6L281.7 52.5L278.2 52.5L278.2 62L275.8 62L275.8 52.5L272.4 52.5L272.4 50.6L281.7 50.6ZM283.0 50.6L286.1 50.6L289.0 58.9L291.9 50.6L295.0 50.6L295.0 62L292.6 62L292.6 58.9L292.8 53.5L289.8 62L288.2 62L285.1 53.5L285.3 58.9L285.3 62L283.0 62L283.0 50.6ZM299.4 50.6L299.4 60.1L304.3 60.1L304.3 62L297.0 62L297.0 50.6L299.4 50.6Z "/></g><mask id="satori_om-id-1-4-2"><rect x="314" y="47" width="34" height="19" fill="#fff"/></mask><g  ><path fill="#57606a" d="M316.8 56.6L315.6 56.3L316.2 50.6L322.0 50.6L322.0 52.0L317.4 52.0L317.1 55.1Q317.9 54.6 319.0 54.6L319.0 54.6Q320.5 54.6 321.4 55.6Q322.4 56.6 322.4 58.4L322.4 58.4Q322.4 60.1 321.4 61.1Q320.5 62.2 318.8 62.2L318.8 62.2Q317.2 62.2 316.3 61.3Q315.3 60.5 315.2 59.0L315.2 59.0L316.6 59.0Q316.7 60.0 317.3 60.5Q317.8 61.0 318.8 61.0L318.8 61.0Q319.8 61.0 320.3 60.3Q320.9 59.6 320.9 58.4L320.9 58.4Q320.9 57.3 320.3 56.6Q319.7 55.9 318.6 55.9L318.6 55.9Q317.7 55.9 317.1 56.3L317.1 56.3L316.8 56.6ZM324.1 61.2L324.1 61.2Q324.1 60.9 324.3 60.6Q324.6 60.4 325 60.4Q325.4 60.4 325.7 60.6Q325.9 60.9 325.9 61.2L325.9 61.2Q325.9 61.6 325.7 61.8Q325.4 62.1 325 62.1Q324.6 62.1 324.3 61.8Q324.1 61.6 324.1 61.2ZM333.6 50.6L333.8 50.6L333.8 51.8L333.5 51.8Q331.9 51.9 330.9 52.8Q329.9 53.8 329.7 55.6L329.7 55.6Q330.6 54.5 332.2 54.5L332.2 54.5Q333.6 54.5 334.5 55.6Q335.4 56.6 335.4 58.3L335.4 58.3Q335.4 60.0 334.5 61.1Q333.5 62.2 331.9 62.2L331.9 62.2Q330.3 62.2 329.2 60.9Q328.2 59.6 328.2 57.7L328.2 57.7L328.2 57.1Q328.2 54.0 329.6 52.3Q330.9 50.7 333.6 50.6L333.6 50.6ZM331.9 55.7L331.9 55.7Q331.2 55.7 330.5 56.2Q329.9 56.6 329.7 57.3L329.7 57.3L329.7 57.8Q329.7 59.2 330.3 60.1Q330.9 61.0 331.9 61.0L331.9 61.0Q332.9 61.0 333.4 60.2Q334.0 59.5 334.0 58.4L334.0 58.4Q334.0 57.2 333.4 56.5Q332.9 55.7 331.9 55.7ZM337 53.4L337 52.8Q337 51.8 337.7 51.1Q338.3 50.5 339.3 50.5L339.3 50.5Q340.4 50.5 341.0 51.1Q341.7 51.8 341.7 52.9L341.7 52.9L341.7 53.4Q341.7 54.4 341.0 55.1Q340.4 55.8 339.3 55.8L339.3 55.8Q338.3 55.8 337.7 55.1Q337 54.4 337 53.4L337 53.4ZM338.1 52.8L338.1 53.4Q338.1 54.0 338.4 54.4Q338.8 54.8 339.3 54.8L339.3 54.8Q339.9 54.8 340.2 54.4Q340.6 54.0 340.6 53.4L340.6 53.4L340.6 52.8Q340.6 52.2 340.2 51.8Q339.9 51.4 339.3 51.4Q338.8 51.4 338.4 51.8Q338.1 52.2 338.1 52.8L338.1 52.8ZM342.5 59.8L342.5 59.2Q342.5 58.2 343.2 57.5Q343.8 56.9 344.9 56.9Q345.9 56.9 346.5 57.5Q347.2 58.2 347.2 59.3L347.2 59.3L347.2 59.8Q347.2 60.8 346.6 61.5Q345.9 62.2 344.9 62.2Q343.9 62.2 343.2 61.5Q342.5 60.9 342.5 59.8L342.5 59.8ZM343.6 59.2L343.6 59.8Q343.6 60.4 344.0 60.8Q344.3 61.2 344.9 61.2L344.9 61.2Q345.4 61.2 345.8 60.8Q346.1 60.5 346.1 59.8L346.1 59.8L346.1 59.2Q346.1 58.6 345.8 58.2Q345.4 57.8 344.9 57.8L344.9 57.8Q344.3 57.8 344.0 58.2Q343.6 58.6 343.6 59.2L343.6 59.2ZM345.2 52.3L339.7 61.1L338.9 60.6L344.4 51.7L345.2 52.3Z "/></g><mask id="satori_om-id-1-5"><rect x="0" y="76" width="92" height="19" fill="#fff"/></mask><mask id="satori_om-id-1-5-0"><rect x="0" y="78" width="16" height="16" fill="#fff"/></mask><mask id="satori_om-id-1-5-0-0"><rect x="4" y="82" width="8" height="8" fill="#fff"/></mask><path x="4" y="82" width="8" height="8" fill="#00ADD8" d="M8,82 h0 a4,4 0 0 1 4,4 v0 a4,4 0 0 1 -4,4 h0 a4,4 0 0 1 -4,-4 v0 a4,4 0 0 1 4,-4"/><mask id="satori_om-id-1-5-1"><rect x="29" y="76" width="20" height="19" fill="#fff"/></mask><g  ><path fill="#24292f" d="M39.0 85.0L39.0 89.6Q38.4 90.3 37.2 90.7Q36.1 91.2 34.7 91.2L34.7 91.2Q33.2 91.2 32.1 90.5Q31.0 89.9 30.4 88.6Q29.8 87.4 29.7 85.8L29.7 85.8L29.7 85.0Q29.7 83.3 30.3 82.0Q30.9 80.8 32.0 80.1Q33.0 79.5 34.5 79.5L34.5 79.5Q36.5 79.5 37.7 80.4Q38.8 81.4 39.0 83.2L39.0 83.2L36.7 83.2Q36.6 82.3 36.0 81.8Q35.5 81.4 34.6 81.4L34.6 81.4Q33.4 81.4 32.8 82.3Q32.1 83.2 32.1 84.9L32.1 84.9L32.1 85.7Q32.1 87.4 32.8 88.4Q33.5 89.3 34.8 89.3L34.8 89.3Q36.1 89.3 36.7 88.7L36.7 88.7L36.7 86.8L34.5 86.8L34.5 85.0L39.0 85.0ZM40.4 86.8L40.4 86.7Q40.4 85.4 40.9 84.5Q41.4 83.5 42.3 82.9Q43.2 82.4 44.4 82.4L44.4 82.4Q46.1 82.4 47.2 83.4Q48.3 84.5 48.4 86.3L48.4 86.3L48.4 86.9Q48.4 88.8 47.3 90.0Q46.3 91.2 44.4 91.2Q42.6 91.2 41.5 90.0Q40.4 88.8 40.4 86.8L40.4 86.8ZM42.7 86.9L42.7 86.9Q42.7 88.1 43.1 88.7Q43.6 89.3 44.4 89.3L44.4 89.3Q45.2 89.3 45.7 88.7Q46.2 88.1 46.2 86.7L46.2 86.7Q46.2 85.5 45.7 84.9Q45.2 84.2 44.4 84.2L44.4 84.2Q43.6 84.2 43.1 84.9Q42.7 85.5 42.7 86.9Z "/></g><mask id="satori_om-id-1-5-2"><rect x="58" y="76" width="34" height="19" fill="#fff"/></mask><g  ><path fill="#57606a" d="M60.8 85.6L59.6 85.3L60.2 79.6L66.0 79.6L66.0 81.0L61.4 81.0L61.1 84.1Q61.9 83.6 63.0 83.6L63.0 83.6Q64.5 83.6 65.4 84.6Q66.4 85.6 66.4 87.4L66.4 87.4Q66.4 89.1 65.4 90.1Q64.5 91.2 62.8 91.2L62.8 91.2Q61.2 91.2 60.3 90.3Q59.3 89.5 59.2 88.0L59.2 88.0L60.6 88.0Q60.7 89.0 61.3 89.5Q61.8 90.0 62.8 90.0L62.8 90.0Q63.8 90.0 64.3 89.3Q64.9 88.6 64.9 87.4L64.9 87.4Q64.9 86.3 64.3 85.6Q63.7 84.9 62.6 84.9L62.6 84.9Q61.7 84.9 61.1 85.3L61.1 85.3L60.8 85.6ZM68.1 90.2L68.1 90.2Q68.1 89.9 68.3 89.6Q68.6 89.4 69 89.4Q69.4 89.4 69.7 89.6Q69.9 89.9 69.9 90.2L69.9 90.2Q69.9 90.6 69.7 90.8Q69.4 91.1 69 91.1Q68.6 91.1 68.3 90.8Q68.1 90.6 68.1 90.2ZM79.3 84.3L79.3 86.1Q79.3 88.7 78.4 89.9Q77.5 91.2 75.7 91.2L75.7 91.2Q73.9 91.2 73 89.9Q72.1 88.7 72.1 86.3L72.1 86.3L72.1 84.4Q72.1 81.9 73.0 80.7Q73.8 79.5 75.7 79.5L75.7 79.5Q77.5 79.5 78.4 80.6Q79.3 81.8 79.3 84.3L79.3 84.3ZM77.8 86.5L77.8 84.2Q77.8 82.3 77.3 81.5Q76.8 80.7 75.7 80.7L75.7 80.7Q74.6 80.7 74.1 81.5Q73.6 82.3 73.5 84.1L73.5 84.1L73.5 86.4Q73.5 88.2 74.1 89.1Q74.6 90.0 75.7 90.0L75.7 90.0Q76.8 90.0 77.3 89.1Q77.8 88.3 77.8 86.5L77.8 86.5ZM81 82.4L81 81.8Q81 80.8 81.7 80.1Q82.3 79.5 83.3 79.5L83.3 79.5Q84.4 79.5 85.0 80.1Q85.7 80.8 85.7 81.9L85.7 81.9L85.7 82.4Q85.7 83.4 85.0 84.1Q84.4 84.8 83.3 84.8L83.3 84.8Q82.3 84.8 81.7 84.1Q81 83.4 81 82.4L81 82.4ZM82.1 81.8L82.1 82.4Q82.1 83.0 82.4 83.4Q82.8 83.8 83.3 83.8L83.3 83.8Q83.9 83.8 84.2 83.4Q84.6 83.0 84.6 82.4L84.6 82.4L84.6 81.8Q84.6 81.2 84.2 80.8Q83.9 80.4 83.3 80.4Q82.8 80.4 82.4 80.8Q82.1 81.2 82.1 81.8L82.1 81.8ZM86.5 88.8L86.5 88.2Q86.5 87.2 87.2 86.5Q87.8 85.9 88.9 85.9Q89.9 85.9 90.5 86.5Q91.2 87.2 91.2 88.3L91.2 88.3L91.2 88.8Q91.2 89.8 90.6 90.5Q89.9 91.2 88.9 91.2Q87.9 91.2 87.2 90.5Q86.5 89.9 86.5 88.8L86.5 88.8ZM87.6 88.2L87.6 88.8Q87.6 89.4 88.0 89.8Q88.3 90.2 88.9 90.2L88.9 90.2Q89.4 90.2 89.8 89.8Q90.1 89.5 90.1 88.8L90.1 88.8L90.1 88.2Q90.1 87.6 89.8 87.2Q89.4 86.8 88.9 86.8L88.9 86.8Q88.3 86.8 88.0 87.2Q87.6 87.6 87.6 88.2L87.6 88.2ZM89.2 81.3L83.7 90.1L82.9 89.6L88.4 80.7L89.2 81.3Z "/></g><mask id="satori_om-id-1-6"><rect x="102" y="76" width="149" height="19" fill="#fff"/></mask><mask id="satori_om-id-1-6-0"><rect x="102" y="78" width="16" height="16" fill="#fff"/></mask><mask id="satori_om-id-1-6-0-0"><rect x="106" y="82" width="8" height="8" fill="#fff"/></mask><path x="106" y="82" width="8" height="8" fill="#f1e05a" d="M110,82 h0 a4,4 0 0 1 4,4 v0 a4,4 0 0 1 -4,4 h0 a4,4 0 0 1 -4,-4 v0 a4,4 0 0 1 4,-4"/><mask id="satori_om-id-1-6-1"><rect x="131" y="76" width="77" height="19" fill="#fff"/></mask><g  ><path fill="#24292f" d="M136.6 87.5L136.6 79.6L138.9 79.6L138.9 87.5Q138.9 88.6 138.5 89.4Q138.0 90.3 137.1 90.7Q136.2 91.2 135.1 91.2L135.1 91.2Q133.3 91.2 132.3 90.2Q131.3 89.3 131.3 87.6L131.3 87.6L133.7 87.6Q133.7 88.5 134.0 88.9Q134.4 89.3 135.1 89.3L135.1 89.3Q135.8 89.3 136.2 88.8Q136.6 88.4 136.6 87.5L136.6 87.5ZM148.0 91L145.7 91Q145.5 90.7 145.5 90.2L145.5 90.2Q144.7 91.2 143.3 91.2L143.3 91.2Q142.1 91.2 141.3 90.4Q140.5 89.7 140.5 88.6L140.5 88.6Q140.5 87.3 141.5 86.6Q142.5 85.8 144.3 85.8L144.3 85.8L145.4 85.8L145.4 85.4Q145.4 84.8 145.1 84.4Q144.8 84.1 144.1 84.1L144.1 84.1Q143.6 84.1 143.2 84.3Q142.9 84.6 142.9 85.1L142.9 85.1L140.7 85.1Q140.7 84.4 141.1 83.7Q141.6 83.1 142.4 82.7Q143.2 82.4 144.3 82.4L144.3 82.4Q145.8 82.4 146.7 83.2Q147.6 84.0 147.6 85.4L147.6 85.4L147.6 89.0Q147.7 90.3 148.0 90.9L148.0 90.9L148.0 91ZM143.8 89.4L143.8 89.4Q144.3 89.4 144.8 89.2Q145.2 89.0 145.4 88.6L145.4 88.6L145.4 87.2L144.5 87.2Q142.8 87.2 142.7 88.3L142.7 88.3L142.7 88.5Q142.7 88.9 143.0 89.2Q143.3 89.4 143.8 89.4ZM150.9 82.5L152.4 88.2L154 82.5L156.4 82.5L153.5 91L151.4 91L148.5 82.5L150.9 82.5ZM164.4 91L162.1 91Q162.0 90.7 161.9 90.2L161.9 90.2Q161.1 91.2 159.8 91.2L159.8 91.2Q158.5 91.2 157.7 90.4Q156.9 89.7 156.9 88.6L156.9 88.6Q156.9 87.3 157.9 86.6Q158.9 85.8 160.8 85.8L160.8 85.8L161.8 85.8L161.8 85.4Q161.8 84.8 161.5 84.4Q161.2 84.1 160.6 84.1L160.6 84.1Q160.0 84.1 159.7 84.3Q159.3 84.6 159.3 85.1L159.3 85.1L157.1 85.1Q157.1 84.4 157.5 83.7Q158.0 83.1 158.8 82.7Q159.6 82.4 160.7 82.4L160.7 82.4Q162.2 82.4 163.2 83.2Q164.1 84.0 164.1 85.4L164.1 85.4L164.1 89.0Q164.1 90.3 164.4 90.9L164.4 90.9L164.4 91ZM160.3 89.4L160.3 89.4Q160.8 89.4 161.2 89.2Q161.6 89.0 161.8 88.6L161.8 88.6L161.8 87.2L161.0 87.2Q159.3 87.2 159.2 88.3L159.2 88.3L159.2 88.5Q159.2 88.9 159.5 89.2Q159.8 89.4 160.3 89.4ZM171.9 88.0L171.9 88.0Q171.9 87.4 171.4 87.0Q170.9 86.6 169.7 86.2Q168.5 85.9 167.8 85.5L167.8 85.5Q165.8 84.4 165.8 82.6L165.8 82.6Q165.8 81.7 166.4 81.0Q166.9 80.3 167.8 79.9Q168.8 79.5 170.0 79.5L170.0 79.5Q171.3 79.5 172.2 79.9Q173.2 80.4 173.7 81.2Q174.2 82.0 174.2 83.0L174.2 83.0L171.9 83.0Q171.9 82.2 171.4 81.8Q170.9 81.3 170.0 81.3L170.0 81.3Q169.1 81.3 168.7 81.7Q168.2 82.1 168.2 82.7L168.2 82.7Q168.2 83.2 168.7 83.6Q169.3 84.0 170.4 84.3L170.4 84.3Q172.4 84.9 173.3 85.8Q174.2 86.7 174.2 88L174.2 88Q174.2 89.5 173.1 90.3Q172.0 91.2 170.1 91.2L170.1 91.2Q168.8 91.2 167.7 90.7Q166.6 90.2 166.1 89.4Q165.5 88.5 165.5 87.4L165.5 87.4L167.8 87.4Q167.8 89.3 170.1 89.3L170.1 89.3Q170.9 89.3 171.4 89.0Q171.9 88.6 171.9 88.0ZM179.2 89.3L179.2 89.3Q179.8 89.3 180.2 89.0Q180.6 88.6 180.6 88.1L180.6 88.1L182.7 88.1Q182.7 88.9 182.2 89.7Q181.8 90.4 181.0 90.8Q180.2 91.2 179.2 91.2L179.2 91.2Q177.4 91.2 176.3 90.0Q175.3 88.9 175.3 86.8L175.3 86.8L175.3 86.7Q175.3 84.7 176.3 83.6Q177.4 82.4 179.2 82.4L179.2 82.4Q180.8 82.4 181.7 83.3Q182.7 84.2 182.7 85.7L182.7 85.7L180.6 85.7Q180.6 85.0 180.2 84.6Q179.8 84.2 179.1 84.2L179.1 84.2Q178.4 84.2 178.0 84.8Q177.6 85.4 177.6 86.7L177.6 86.7L177.6 86.9Q177.6 88.2 178.0 88.8Q178.4 89.3 179.2 89.3ZM188.8 82.5L188.7 84.7Q188.3 84.6 187.9 84.6L187.9 84.6Q186.6 84.6 186.3 85.5L186.3 85.5L186.3 91L184.0 91L184.0 82.5L186.1 82.5L186.2 83.6Q186.9 82.4 188.1 82.4L188.1 82.4Q188.4 82.4 188.8 82.5L188.8 82.5ZM192.2 82.5L192.2 91L189.9 91L189.9 82.5L192.2 82.5ZM189.8 80.4L189.8 80.4Q189.8 79.9 190.2 79.5Q190.5 79.2 191.1 79.2L191.1 79.2Q191.7 79.2 192 79.5Q192.3 79.9 192.3 80.4L192.3 80.4Q192.3 80.9 192.0 81.2Q191.6 81.5 191.1 81.5Q190.5 81.5 190.2 81.2Q189.8 80.9 189.8 80.4ZM201.7 86.7L201.7 86.9Q201.7 88.8 200.8 90.0Q199.9 91.2 198.4 91.2L198.4 91.2Q197.1 91.2 196.3 90.3L196.3 90.3L196.3 94.3L194.1 94.3L194.1 82.5L196.2 82.5L196.2 83.4Q197.1 82.4 198.4 82.4L198.4 82.4Q199.9 82.4 200.8 83.5Q201.7 84.7 201.7 86.7L201.7 86.7ZM199.4 86.7L199.4 86.7Q199.4 85.5 199.0 84.9Q198.6 84.2 197.8 84.2L197.8 84.2Q196.7 84.2 196.3 85.0L196.3 85.0L196.3 88.5Q196.7 89.3 197.8 89.3L197.8 89.3Q199.4 89.3 199.4 86.7ZM203.5 80.5L205.8 80.5L205.8 82.5L207.2 82.5L207.2 84.2L205.8 84.2L205.8 88.4Q205.8 88.9 206.0 89.1Q206.1 89.3 206.6 89.3L206.6 89.3Q207.0 89.3 207.3 89.2L207.3 89.2L207.3 91.0Q206.6 91.2 205.9 91.2L205.9 91.2Q203.6 91.2 203.5 88.8L203.5 88.8L203.5 84.2L202.3 84.2L202.3 82.5L203.5 82.5L203.5 80.5Z "/></g><mask id="satori_om-id-1-6-2"><rect x="217" y="76" width="34" height="19" fill="#fff"/></mask><g  ><path fill="#57606a" d="M225.4 89.8L225.4 91L217.9 91L217.9 90.0L221.9 85.6Q222.8 84.6 223.1 84.0Q223.4 83.4 223.4 82.7L223.4 82.7Q223.4 81.8 222.9 81.2Q222.3 80.7 221.4 80.7L221.4 80.7Q220.4 80.7 219.8 81.3Q219.2 81.9 219.2 83.0L219.2 83.0L217.7 83.0Q217.7 81.4 218.7 80.4Q219.8 79.5 221.4 79.5L221.4 79.5Q223.0 79.5 224.0 80.3Q224.9 81.1 224.9 82.5L224.9 82.5Q224.9 84.2 222.7 86.5L222.7 86.5L219.7 89.8L225.4 89.8ZM227.1 90.2L227.1 90.2Q227.1 89.9 227.3 89.6Q227.6 89.4 228 89.4Q228.4 89.4 228.7 89.6Q228.9 89.9 228.9 90.2L228.9 90.2Q228.9 90.6 228.7 90.8Q228.4 91.1 228 91.1Q227.6 91.1 227.3 90.8Q227.1 90.6 227.1 90.2ZM233.0 85.6L231.8 85.3L232.4 79.6L238.2 79.6L238.2 81.0L233.6 81.0L233.3 84.1Q234.1 83.6 235.2 83.6L235.2 83.6Q236.7 83.6 237.6 84.6Q238.5 85.6 238.5 87.4L238.5 87.4Q238.5 89.1 237.6 90.1Q236.6 91.2 234.9 91.2L234.9 91.2Q233.4 91.2 232.5 90.3Q231.5 89.5 231.4 88.0L231.4 88.0L232.8 88.0Q232.9 89.0 233.5 89.5Q234.0 90.0 234.9 90.0L234.9 90.0Q236.0 90.0 236.5 89.3Q237.1 88.6 237.1 87.4L237.1 87.4Q237.1 86.3 236.5 85.6Q235.9 84.9 234.8 84.9L234.8 84.9Q233.9 84.9 233.3 85.3L233.3 85.3L233.0 85.6ZM240 82.4L240 81.8Q240 80.8 240.7 80.1Q241.3 79.5 242.3 79.5L242.3 79.5Q243.4 79.5 244.0 80.1Q244.7 80.8 244.7 81.9L244.7 81.9L244.7 82.4Q244.7 83.4 244.0 84.1Q243.4 84.8 242.3 84.8L242.3 84.8Q241.3 84.8 240.7 84.1Q240 83.4 240 82.4L240 82.4ZM241.1 81.8L241.1 82.4Q241.1 83.0 241.4 83.4Q241.8 83.8 242.3 83.8L242.3 83.8Q242.9 83.8 243.2 83.4Q243.6 83.0 243.6 82.4L243.6 82.4L243.6 81.8Q243.6 81.2 243.2 80.8Q242.9 80.4 242.3 80.4Q241.8 80.4 241.4 80.8Q241.1 81.2 241.1 81.8L241.1 81.8ZM245.5 88.8L245.5 88.2Q245.5 87.2 246.2 86.5Q246.8 85.9 247.9 85.9Q248.9 85.9 249.5 86.5Q250.2 87.2 250.2 88.3L250.2 88.3L250.2 88.8Q250.2 89.8 249.6 90.5Q248.9 91.2 247.9 91.2Q246.9 91.2 246.2 90.5Q245.5 89.9 245.5 88.8L245.5 88.8ZM246.6 88.2L246.6 88.8Q246.6 89.4 247.0 89.8Q247.3 90.2 247.9 90.2L247.9 90.2Q248.4 90.2 248.8 89.8Q249.1 89.5 249.1 88.8L249.1 88.8L249.1 88.2Q249.1 87.6 248.8 87.2Q248.4 86.8 247.9 86.8L247.9 86.8Q247.3 86.8 247.0 87.2Q246.6 87.6 246.6 88.2L246.6 88.2ZM248.2 81.3L242.7 90.1L241.9 89.6L247.4 80.7L248.2 81.3Z "/></g><mask id="satori_om-id-1-7"><rect x="261" y="76" width="103" height="19" fill="#fff"/></mask><mask id="satori_om-id-1-7-0"><rect x="261" y="78" width="16" height="16" fill="#fff"/></mask><mask id="satori_om-id-1-7-0-0"><rect x="265" y="82" width="8" height="8" fill="#fff"/></mask><path x="265" y="82" width="8" height="8" fill="#844FBA" d="M269,82 h0 a4,4 0 0 1 4,4 v0 a4,4 0 0 1 -4,4 h0 a4,4 0 0 1 -4,-4 v0 a4,4 0 0 1 4,-4"/><mask id="satori_om-id-1-7-1"><rect x="290" y="76" width="31" height="19" fill="#fff"/></mask><g  ><path fill="#24292f" d="M300.3 79.6L300.3 91L297.9 91L297.9 86.1L293.4 86.1L293.4 91L291.0 91L291.0 79.6L293.4 79.6L293.4 84.2L297.9 84.2L297.9 79.6L300.3 79.6ZM308.9 87.2L311.3 87.2Q311.1 89.0 309.9 90.1Q308.7 91.2 306.7 91.2L306.7 91.2Q304.5 91.2 303.2 89.7Q302.0 88.2 302.0 85.6L302.0 85.6L302.0 84.9Q302.0 83.3 302.6 82.1Q303.1 80.8 304.2 80.1Q305.3 79.5 306.7 79.5L306.7 79.5Q308.7 79.5 309.9 80.5Q311.1 81.6 311.3 83.5L311.3 83.5L308.9 83.5Q308.8 82.4 308.3 81.9Q307.8 81.4 306.7 81.4L306.7 81.4Q305.5 81.4 304.9 82.2Q304.4 83.1 304.4 84.8L304.4 84.8L304.4 85.7Q304.4 87.5 304.9 88.4Q305.5 89.2 306.7 89.2L306.7 89.2Q307.8 89.2 308.3 88.7Q308.8 88.3 308.9 87.2L308.9 87.2ZM315.1 79.6L315.1 89.1L320.1 89.1L320.1 91L312.8 91L312.8 79.6L315.1 79.6Z "/></g><mask id="satori_om-id-1-7-2"><rect x="330" y="76" width="34" height="19" fill="#fff"/></mask><g  ><path fill="#57606a" d="M338.4 89.8L338.4 91L330.9 91L330.9 90.0L334.9 85.6Q335.8 84.6 336.1 84.0Q336.4 83.4 336.4 82.7L336.4 82.7Q336.4 81.8 335.9 81.2Q335.3 80.7 334.4 80.7L334.4 80.7Q333.4 80.7 332.8 81.3Q332.2 81.9 332.2 83.0L332.2 83.0L330.7 83.0Q330.7 81.4 331.7 80.4Q332.8 79.5 334.4 79.5L334.4 79.5Q336.0 79.5 337.0 80.3Q337.9 81.1 337.9 82.5L337.9 82.5Q337.9 84.2 335.7 86.5L335.7 86.5L332.7 89.8L338.4 89.8ZM340.1 90.2L340.1 90.2Q340.1 89.9 340.3 89.6Q340.6 89.4 341 89.4Q341.4 89.4 341.7 89.6Q341.9 89.9 341.9 90.2L341.9 90.2Q341.9 90.6 341.7 90.8Q341.4 91.1 341 91.1Q340.6 91.1 340.3 90.8Q340.1 90.6 340.1 90.2ZM346.2 85.8L346.2 84.6L347.3 84.6Q348.4 84.6 348.9 84.1Q349.5 83.5 349.5 82.7L349.5 82.7Q349.5 80.7 347.5 80.7L347.5 80.7Q346.6 80.7 346.0 81.2Q345.5 81.7 345.5 82.6L345.5 82.6L344.0 82.6Q344.0 81.3 345.0 80.4Q346.0 79.5 347.5 79.5L347.5 79.5Q349.1 79.5 350.1 80.3Q351.0 81.2 351.0 82.7L351.0 82.7Q351.0 83.4 350.5 84.1Q350.0 84.8 349.2 85.2L349.2 85.2Q350.1 85.5 350.6 86.1Q351.1 86.8 351.1 87.8L351.1 87.8Q351.1 89.4 350.1 90.3Q349.1 91.2 347.5 91.2Q345.9 91.2 344.9 90.3Q343.9 89.4 343.9 88L343.9 88L345.4 88Q345.4 88.9 346.0 89.4Q346.6 90.0 347.5 90.0L347.5 90.0Q348.6 90.0 349.1 89.4Q349.7 88.9 349.7 87.9L349.7 87.9Q349.7 86.9 349.1 86.3Q348.5 85.8 347.3 85.8L347.3 85.8L346.2 85.8ZM353 82.4L353 81.8Q353 80.8 353.7 80.1Q354.3 79.5 355.3 79.5L355.3 79.5Q356.4 79.5 357.0 80.1Q357.7 80.8 357.7 81.9L357.7 81.9L357.7 82.4Q357.7 83.4 357.0 84.1Q356.4 84.8 355.3 84.8L355.3 84.8Q354.3 84.8 353.7 84.1Q353 83.4 353 82.4L353 82.4ZM354.1 81.8L354.1 82.4Q354.1 83.0 354.4 83.4Q354.8 83.8 355.3 83.8L355.3 83.8Q355.9 83.8 356.2 83.4Q356.6 83.0 356.6 82.4L356.6 82.4L356.6 81.8Q356.6 81.2 356.2 80.8Q355.9 80.4 355.3 80.4Q354.8 80.4 354.4 80.8Q354.1 81.2 354.1 81.8L354.1 81.8ZM358.5 88.8L358.5 88.2Q358.5 87.2 359.2 86.5Q359.8 85.9 360.9 85.9Q361.9 85.9 362.5 86.5Q363.2 87.2 363.2 88.3L363.2 88.3L363.2 88.8Q363.2 89.8 362.6 90.5Q361.9 91.2 360.9 91.2Q359.9 91.2 359.2 90.5Q358.5 89.9 358.5 88.8L358.5 88.8ZM359.6 88.2L359.6 88.8Q359.6 89.4 360.0 89.8Q360.3 90.2 360.9 90.2L360.9 90.2Q361.4 90.2 361.8 89.8Q362.1 89.5 362.1 88.8L362.1 88.8L362.1 88.2Q362.1 87.6 361.8 87.2Q361.4 86.8 360.9 86.8L360.9 86.8Q360.3 86.8 360.0 87.2Q359.6 87.6 359.6 88.2L359.6 88.2ZM361.2 81.3L355.7 90.1L354.9 89.6L360.4 80.7L361.2 81.3Z "/></g><mask id="satori_om-id-1-8"><rect x="0" y="105" width="112" height="19" fill="#fff"/></mask><mask id="satori_om-id-1-8-0"><rect x="0" y="107" width="16" height="16" fill="#fff"/></mask><mask id="satori_om-id-1-8-0-0"><rect x="4" y="111" width="8" height="8" fill="#fff"/></mask><path x="4" y="111" width="8" height="8" fill="#ff5a03" d="M8,111 h0 a4,4 0 0 1 4,4 v0 a4,4 0 0 1 -4,4 h0 a4,4 0 0 1 -4,-4 v0 a4,4 0 0 1 4,-4"/><mask id="satori_om-id-1-8-1"><rect x="29" y="105" width="40" height="19" fill="#fff"/></mask><g  ><path fill="#24292f" d="M37.2 120L36.4 117.7L32.3 117.7L31.5 120L29.1 120L33.3 108.6L35.5 108.6L39.7 120L37.2 120ZM34.4 111.5L33.0 115.8L35.8 115.8L34.4 111.5ZM45.2 117.7L45.2 117.7Q45.2 117.3 44.8 117.0Q44.4 116.8 43.5 116.6L43.5 116.6Q40.5 116.0 40.5 114.0L40.5 114.0Q40.5 112.9 41.4 112.1Q42.3 111.4 43.8 111.4L43.8 111.4Q45.5 111.4 46.4 112.1Q47.4 112.9 47.4 114.1L47.4 114.1L45.1 114.1Q45.1 113.6 44.8 113.3Q44.5 113 43.8 113L43.8 113Q43.3 113 43.0 113.3Q42.6 113.5 42.6 113.9L42.6 113.9Q42.6 114.3 43.0 114.5Q43.4 114.8 44.2 114.9Q45.0 115.1 45.6 115.3L45.6 115.3Q47.4 116.0 47.4 117.6L47.4 117.6Q47.4 118.7 46.4 119.4Q45.4 120.2 43.9 120.2L43.9 120.2Q42.8 120.2 42.0 119.8Q41.1 119.4 40.7 118.7Q40.2 118.1 40.2 117.3L40.2 117.3L42.3 117.3Q42.4 117.9 42.8 118.2Q43.2 118.6 43.9 118.6L43.9 118.6Q44.5 118.6 44.9 118.3Q45.2 118.1 45.2 117.7ZM49.3 109.5L51.6 109.5L51.6 111.5L53.0 111.5L53.0 113.2L51.6 113.2L51.6 117.4Q51.6 117.9 51.7 118.1Q51.9 118.3 52.4 118.3L52.4 118.3Q52.8 118.3 53.1 118.2L53.1 118.2L53.1 120.0Q52.4 120.2 51.7 120.2L51.7 120.2Q49.4 120.2 49.3 117.8L49.3 117.8L49.3 113.2L48.1 113.2L48.1 111.5L49.3 111.5L49.3 109.5ZM59.0 111.5L59.0 113.7Q58.6 113.6 58.2 113.6L58.2 113.6Q56.9 113.6 56.5 114.5L56.5 114.5L56.5 120L54.3 120L54.3 111.5L56.4 111.5L56.5 112.6Q57.1 111.4 58.3 111.4L58.3 111.4Q58.7 111.4 59.0 111.5L59.0 111.5ZM59.5 115.8L59.5 115.7Q59.5 114.4 60.0 113.5Q60.4 112.5 61.3 111.9Q62.3 111.4 63.5 111.4L63.5 111.4Q65.2 111.4 66.3 112.4Q67.3 113.5 67.5 115.3L67.5 115.3L67.5 115.9Q67.5 117.8 66.4 119.0Q65.3 120.2 63.5 120.2Q61.6 120.2 60.6 119.0Q59.5 117.8 59.5 115.8L59.5 115.8ZM61.7 115.9L61.7 115.9Q61.7 117.1 62.2 117.7Q62.6 118.3 63.5 118.3L63.5 118.3Q64.3 118.3 64.8 117.7Q65.2 117.1 65.2 115.7L65.2 115.7Q65.2 114.5 64.8 113.9Q64.3 113.2 63.5 113.2L63.5 113.2Q62.6 113.2 62.2 113.9Q61.7 114.5 61.7 115.9Z "/></g><mask id="satori_om-id-1-8-2"><rect x="78" y="105" width="34" height="19" fill="#fff"/></mask><g  ><path fill="#57606a" d="M83.7 108.6L83.7 120L82.2 120L82.2 110.4L79.3 111.4L79.3 110.1L83.5 108.6L83.7 108.6ZM88.1 119.2L88.1 119.2Q88.1 118.9 88.3 118.6Q88.6 118.4 89 118.4Q89.4 118.4 89.7 118.6Q89.9 118.9 89.9 119.2L89.9 119.2Q89.9 119.6 89.7 119.8Q89.4 120.1 89 120.1Q88.6 120.1 88.3 119.8Q88.1 119.6 88.1 119.2ZM98.2 108.6L98.2 116.2L99.8 116.2L99.8 117.4L98.2 117.4L98.2 120L96.8 120L96.8 117.4L91.6 117.4L91.6 116.5L96.7 108.6L98.2 108.6ZM96.6 110.9L93.3 116.2L96.8 116.2L96.8 110.6L96.6 110.9ZM101 111.4L101 110.8Q101 109.8 101.7 109.1Q102.3 108.5 103.3 108.5L103.3 108.5Q104.4 108.5 105.0 109.1Q105.7 109.8 105.7 110.9L105.7 110.9L105.7 111.4Q105.7 112.4 105.0 113.1Q104.4 113.8 103.3 113.8L103.3 113.8Q102.3 113.8 101.7 113.1Q101 112.4 101 111.4L101 111.4ZM102.1 110.8L102.1 111.4Q102.1 112.0 102.4 112.4Q102.8 112.8 103.3 112.8L103.3 112.8Q103.9 112.8 104.2 112.4Q104.6 112.0 104.6 111.4L104.6 111.4L104.6 110.8Q104.6 110.2 104.2 109.8Q103.9 109.4 103.3 109.4Q102.8 109.4 102.4 109.8Q102.1 110.2 102.1 110.8L102.1 110.8ZM106.5 117.8L106.5 117.2Q106.5 116.2 107.2 115.5Q107.8 114.9 108.9 114.9Q109.9 114.9 110.5 115.5Q111.2 116.2 111.2 117.3L111.2 117.3L111.2 117.8Q111.2 118.8 110.6 119.5Q109.9 120.2 108.9 120.2Q107.9 120.2 107.2 119.5Q106.5 118.9 106.5 117.8L106.5 117.8ZM107.6 117.2L107.6 117.8Q107.6 118.4 108.0 118.8Q108.3 119.2 108.9 119.2L108.9 119.2Q109.4 119.2 109.8 118.8Q110.1 118.5 110.1 117.8L110.1 117.8L110.1 117.2Q110.1 116.6 109.8 116.2Q109.4 115.8 108.9 115.8L108.9 115.8Q108.3 115.8 108.0 116.2Q107.6 116.6 107.6 117.2L107.6 117.2ZM109.2 110.3L103.7 119.1L102.9 118.6L108.4 109.7L109.2 110.3Z "/></g><mask id="satori_om-id-1-9"><rect x="122" y="105" width="115" height="19" fill="#fff"/></mask><mask id="satori_om-id-1-9-0"><rect x="122" y="107" width="16" height="16" fill="#fff"/></mask><mask id="satori_om-id-1-9-0-0"><rect x="126" y="111" width="8" height="8" fill="#fff"/></mask><path x="126" y="111" width="8" height="8" fill="#A97BFF" d="M130,111 h0 a4,4 0 0 1 4,4 v0 a4,4 0 0 1 -4,4 h0 a4,4 0 0 1 -4,-4 v0 a4,4 0 0 1 4,-4"/><mask id="satori_om-id-1-9-1"><rect x="151" y="105" width="43" height="19" fill="#fff"/></mask><g  ><path fill="#24292f" d="M158.5 120L155.6 115.4L154.4 116.8L154.4 120L152.0 120L152.0 108.6L154.4 108.6L154.4 113.8L155.4 112.4L158.3 108.6L161.2 108.6L157.1 113.7L161.3 120L158.5 120ZM161.5 115.8L161.5 115.7Q161.5 114.4 161.9 113.5Q162.4 112.5 163.3 111.9Q164.3 111.4 165.5 111.4L165.5 111.4Q167.2 111.4 168.2 112.4Q169.3 113.5 169.5 115.3L169.5 115.3L169.5 115.9Q169.5 117.8 168.4 119.0Q167.3 120.2 165.5 120.2Q163.6 120.2 162.6 119.0Q161.5 117.8 161.5 115.8L161.5 115.8ZM163.7 115.9L163.7 115.9Q163.7 117.1 164.2 117.7Q164.6 118.3 165.5 118.3L165.5 118.3Q166.3 118.3 166.8 117.7Q167.2 117.1 167.2 115.7L167.2 115.7Q167.2 114.5 166.8 113.9Q166.3 113.2 165.5 113.2L165.5 113.2Q164.6 113.2 164.2 113.9Q163.7 114.5 163.7 115.9ZM171.3 109.5L173.6 109.5L173.6 111.5L175.0 111.5L175.0 113.2L173.6 113.2L173.6 117.4Q173.6 117.9 173.7 118.1Q173.9 118.3 174.4 118.3L174.4 118.3Q174.8 118.3 175.1 118.2L175.1 118.2L175.1 120.0Q174.4 120.2 173.7 120.2L173.7 120.2Q171.4 120.2 171.3 117.8L171.3 117.8L171.3 113.2L170.1 113.2L170.1 111.5L171.3 111.5L171.3 109.5ZM178.6 108L178.6 120L176.4 120L176.4 108L178.6 108ZM182.9 111.5L182.9 120L180.6 120L180.6 111.5L182.9 111.5ZM180.5 109.4L180.5 109.4Q180.5 108.9 180.8 108.5Q181.2 108.2 181.8 108.2L181.8 108.2Q182.3 108.2 182.7 108.5Q183.0 108.9 183.0 109.4L183.0 109.4Q183.0 109.9 182.7 110.2Q182.3 110.5 181.8 110.5Q181.2 110.5 180.8 110.2Q180.5 109.9 180.5 109.4ZM184.7 111.5L186.8 111.5L186.9 112.5Q187.8 111.4 189.3 111.4L189.3 111.4Q190.7 111.4 191.3 112.2Q192.0 113.0 192 114.5L192 114.5L192 120L189.7 120L189.7 114.6Q189.7 113.9 189.4 113.6Q189.1 113.2 188.4 113.2L188.4 113.2Q187.4 113.2 187.0 114.0L187.0 114.0L187.0 120L184.7 120L184.7 111.5Z "/></g><mask id="satori_om-id-1-9-2"><rect x="203" y="105" width="34" height="19" fill="#fff"/></mask><g  ><path fill="#57606a" d="M208.7 108.6L208.7 120L207.2 120L207.2 110.4L204.3 111.4L204.3 110.1L208.5 108.6L208.7 108.6ZM213.1 119.2L213.1 119.2Q213.1 118.9 213.3 118.6Q213.6 118.4 214 118.4Q214.4 118.4 214.7 118.6Q214.9 118.9 214.9 119.2L214.9 119.2Q214.9 119.6 214.7 119.8Q214.4 120.1 214 120.1Q213.6 120.1 213.3 119.8Q213.1 119.6 213.1 119.2ZM224.6 118.8L224.6 120L217.1 120L217.1 119.0L221.1 114.6Q222.0 113.6 222.3 113.0Q222.6 112.4 222.6 111.7L222.6 111.7Q222.6 110.8 222.1 110.2Q221.5 109.7 220.6 109.7L220.6 109.7Q219.6 109.7 219.0 110.3Q218.4 110.9 218.4 112.0L218.4 112.0L216.9 112.0Q216.9 110.4 217.9 109.4Q218.9 108.5 220.6 108.5L220.6 108.5Q222.2 108.5 223.1 109.3Q224.1 110.1 224.1 111.5L224.1 111.5Q224.1 113.2 221.9 115.5L221.9 115.5L218.9 118.8L224.6 118.8ZM226 111.4L226 110.8Q226 109.8 226.7 109.1Q227.3 108.5 228.3 108.5L228.3 108.5Q229.4 108.5 230.0 109.1Q230.7 109.8 230.7 110.9L230.7 110.9L230.7 111.4Q230.7 112.4 230.0 113.1Q229.4 113.8 228.3 113.8L228.3 113.8Q227.3 113.8 226.7 113.1Q226 112.4 226 111.4L226 111.4ZM227.1 110.8L227.1 111.4Q227.1 112.0 227.4 112.4Q227.8 112.8 228.3 112.8L228.3 112.8Q228.9 112.8 229.2 112.4Q229.6 112.0 229.6 111.4L229.6 111.4L229.6 110.8Q229.6 110.2 229.2 109.8Q228.9 109.4 228.3 109.4Q227.8 109.4 227.4 109.8Q227.1 110.2 227.1 110.8L227.1 110.8ZM231.5 117.8L231.5 117.2Q231.5 116.2 232.2 115.5Q232.8 114.9 233.9 114.9Q234.9 114.9 235.5 115.5Q236.2 116.2 236.2 117.3L236.2 117.3L236.2 117.8Q236.2 118.8 235.6 119.5Q234.9 120.2 233.9 120.2Q232.9 120.2 232.2 119.5Q231.5 118.9 231.5 117.8L231.5 117.8ZM232.6 117.2L232.6 117.8Q232.6 118.4 233.0 118.8Q233.3 119.2 233.9 119.2L233.9 119.2Q234.4 119.2 234.8 118.8Q235.1 118.5 235.1 117.8L235.1 117.8L235.1 117.2Q235.1 116.6 234.8 116.2Q234.4 115.8 233.9 115.8L233.9 115.8Q233.3 115.8 233.0 116.2Q232.6 116.6 232.6 117.2L232.6 117.2ZM234.2 110.3L228.7 119.1L227.9 118.6L233.4 109.7L234.2 110.3Z "/></g></svg>