<svg width="375" height="200" viewBox="0 0 375 200" xmlns="http://www.w3.org/2000/svg"><mask id="satori_om-id"><rect x="0" y="0" width="375" height="124" fill="#fff"/></mask><clipPath id="satori_cp-id-0"><path x="0" y="0" width="375" height="8" d="M4,0 h367 a4,4 0 0 1 4,4 v0 a4,4 0 0 1 -4,4 h-367 a4,4 0 0 1 -4,-4 v0 a4,4 0 0 1 4,-4"/></clipPath><mask id="satori_om-id-0"><rect x="0" y="0" width="375" height="8" fill="#fff"/></mask><mask id="satori_om-id-0-0"><rect x="0" y="0" width="144" height="8" fill="#fff" mask="url(#satori_om-id-0)"/></mask><rect x="0" y="0" width="144" height="8" fill="#3178c6" clip-path="url(#satori_cp-id-0)" mask="url(#satori_om-id-0)"/><mask id="satori_om-id-0-1"><rect x="144" y="0" width="53" height="8" fill="#fff" mask="url(#satori_om-id-0)"/></mask><rect x="144" y="0" width="53" height="8" fill="#3572A5" clip-path="url(#satori_cp-id-0)" mask="url(#satori_om-id-0)"/><mask id="satori_om-id-0-2"><rect x="197" y="0" width="48" height="8" fill="#fff" mask="url(#satori_om-id-0)"/></mask><rect x="197" y="0" width="48" height="8" fill="#00ADD8" clip-path="url(#satori_cp-id-0)" mask="url(#satori_om-id-0)"/><mask id="satori_om-id-0-3"><rect x="245" y="0" width="25" height="8" fill="#fff" mask="url(#satori_om-id-0)"/></mask><rect x="245" y="0" width="25" height="8" fill="#844FBA" clip-path="url(#satori_cp-id-0)" mask="url(#satori_om-id-0)"/><mask id="satori_om-id-0-4"><rect x="270" y="0" width="14" height="8" fill="#fff" mask="url(#satori_om-id-0)"/></mask><rect x="270" y="0" width="14" height="8" fill="#f1e05a" clip-path="url(#satori_cp-id-0)" mask="url(#satori_om-id-0)"/><mask id="satori_om-id-0-5"><rect x="284" y="0" width="14" height="8" fill="#fff" mask="url(#satori_om-id-0)"/></mask><rect x="284" y="0" width="14" height="8" fill="#dea584" clip-path="url(#satori_cp-id-0)" mask="url(#satori_om-id-0)"/><mask id="satori_om-id-0-6"><rect x="298" y="0" width="13" height="8" fill="#fff" mask="url(#satori_om-id-0)"/></mask><rect x="298" y="0" width="13" height="8" fill="#A97BFF" clip-path="url(#satori_cp-id-0)" mask="url(#satori_om-id-0)"/><mask id="satori_om-id-0-7"><rect x="311" y="0" width="13" height="8" fill="#fff" mask="url(#satori_om-id-0)"/></mask><rect x="311" y="0" width="13" height="8" fill="#ff3e00" clip-path="url(#satori_cp-id-0)" mask="url(#satori_om-id-0)"/><mask id="satori_om-id-0-8"><rect x="324" y="0" width="12" height="8" fill="#fff" mask="url(#satori_om-id-0)"/></mask><rect x="324" y="0" width="12" height="8" fill="#701516" clip-path="url(#satori_cp-id-0)" mask="url(#satori_om-id-0)"/><mask id="satori_om-id-0-9"><rect x="336" y="0" width="11" height="8" fill="#fff" mask="url(#satori_om-id-0)"/></mask><rect x="336" y="0" width="11" height="8" fill="#e16737" clip-path="url(#satori_cp-id-0)" mask="url(#satori_om-id-0)"/><mask id="satori_om-id-1"><rect x="0" y="18" width="375" height="106" fill="#fff"/></mask><mask id="satori_om-id-1-0"><rect x="0" y="18" width="160" height="19" fill="#fff"/></mask><mask id="satori_om-id-1-0-0"><rect x="0" y="20" width="16" height="16" fill="#fff"/></mask><mask id="satori_om-id-1-0-0-0"><rect x="4" y="24" width="8" height="8" fill="#fff"/></mask><path x="4" y="24" width="8" height="8" fill="#3178c6" d="M8,24 h0 a4,4 0 0 1 4,4 v0 a4,4 0 0 1 -4,4 h0 a4,4 0 0 1 -4,-4 v0 a4,4 0 0 1 4,-4"/><mask id="satori_om-id-1-0-1"><rect x="29" y="18" width="79" height="19" fill="#fff"/></mask><g  ><path fill="#24292f" d="M38.6 21.6L38.6 23.5L35.1 23.5L35.1 33L32.8 33L32.8 23.5L29.3 23.5L29.3 21.6L38.6 21.6ZM40.7 24.5L42.3 29.8L43.8 24.5L46.3 24.5L42.9 34.3L42.7 34.8Q41.9 36.4 40.2 36.4L40.2 36.4Q39.7 36.4 39.2 36.3L39.2 36.3L39.2 34.6L39.5 34.6Q40.2 34.6 40.5 34.4Q40.8 34.2 41.0 33.7L41.0 33.7L41.2 33.0L38.3 24.5L40.7 24.5ZM54.8 28.7L54.8 28.9Q54.8 30.8 53.9 32.0Q53.0 33.2 51.5 33.2L51.5 33.2Q50.2 33.2 49.4 32.3L49.4 32.3L49.4 36.3L47.2 36.3L47.2 24.5L49.3 24.5L49.3 25.4Q50.1 24.4 51.5 24.4L51.5 24.4Q53.0 24.4 53.9 25.5Q54.8 26.7 54.8 28.7L54.8 28.7ZM52.5 28.7L52.5 28.7Q52.5 27.5 52.1 26.9Q51.7 26.2 50.9 26.2L50.9 26.2Q49.8 26.2 49.4 27.0L49.4 27.0L49.4 30.5Q49.8 31.3 50.9 31.3L50.9 31.3Q52.5 31.3 52.5 28.7ZM60.1 33.2L60.1 33.2Q58.2 33.2 57.0 32.0Q55.9 30.9 55.9 29.0L55.9 29.0L55.9 28.8Q55.9 27.5 56.4 26.5Q56.8 25.5 57.7 24.9Q58.6 24.4 59.8 24.4L59.8 24.4Q61.5 24.4 62.5 25.5Q63.5 26.6 63.5 28.6L63.5 28.6L63.5 29.5L58.1 29.5Q58.3 30.3 58.8 30.8Q59.4 31.3 60.2 31.3L60.2 31.3Q61.5 31.3 62.2 30.4L62.2 30.4L63.4 31.6Q62.8 32.4 62.0 32.8Q61.1 33.2 60.1 33.2ZM59.8 26.2L59.8 26.2Q59.1 26.2 58.7 26.7Q58.3 27.1 58.2 28.0L58.2 28.0L61.3 28.0L61.3 27.8Q61.3 27.0 60.9 26.6Q60.5 26.2 59.8 26.2ZM70.9 30.0L70.9 30.0Q70.9 29.4 70.4 29.0Q69.9 28.6 68.7 28.2Q67.5 27.9 66.8 27.5L66.8 27.5Q64.8 26.4 64.8 24.6L64.8 24.6Q64.8 23.7 65.4 23.0Q65.9 22.3 66.8 21.9Q67.8 21.5 69.0 21.5L69.0 21.5Q70.3 21.5 71.2 21.9Q72.2 22.4 72.7 23.2Q73.2 24.0 73.2 25.0L73.2 25.0L70.9 25.0Q70.9 24.2 70.4 23.8Q69.9 23.3 69.0 23.3L69.0 23.3Q68.1 23.3 67.7 23.7Q67.2 24.1 67.2 24.7L67.2 24.7Q67.2 25.2 67.7 25.6Q68.3 26.0 69.4 26.3L69.4 26.3Q71.4 26.9 72.3 27.8Q73.2 28.7 73.2 30L73.2 30Q73.2 31.5 72.1 32.3Q71.0 33.2 69.1 33.2L69.1 33.2Q67.8 33.2 66.7 32.7Q65.6 32.2 65.1 31.4Q64.5 30.5 64.5 29.4L64.5 29.4L66.8 29.4Q66.8 31.3 69.1 31.3L69.1 31.3Q69.9 31.3 70.4 31.0Q70.9 30.6 70.9 30.0ZM78.2 31.3L78.2 31.3Q78.8 31.3 79.2 31.0Q79.6 30.6 79.6 30.1L79.6 30.1L81.7 30.1Q81.7 30.9 81.2 31.7Q80.8 32.4 80.0 32.8Q79.2 33.2 78.2 33.2L78.2 33.2Q76.4 33.2 75.3 32.0Q74.3 30.9 74.3 28.8L74.3 28.8L74.3 28.7Q74.3 26.7 75.3 25.6Q76.4 24.4 78.2 24.4L78.2 24.4Q79.8 24.4 80.7 25.3Q81.7 26.2 81.7 27.7L81.7 27.7L79.6 27.7Q79.6 27.0 79.2 26.6Q78.8 26.2 78.1 26.2L78.1 26.2Q77.4 26.2 77.0 26.8Q76.6 27.4 76.6 28.7L76.6 28.7L76.6 28.9Q76.6 30.2 77.0 30.8Q77.4 31.3 78.2 31.3ZM87.8 24.5L87.7 26.7Q87.3 26.6 86.9 26.6L86.9 26.6Q85.6 26.6 85.3 27.5L85.3 27.5L85.3 33L83.0 33L83.0 24.5L85.1 24.5L85.2 25.6Q85.9 24.4 87.1 24.4L87.1 24.4Q87.4 24.4 87.8 24.5L87.8 24.5ZM91.2 24.5L91.2 33L88.9 33L88.9 24.5L91.2 24.5ZM88.8 22.4L88.8 22.4Q88.8 21.9 89.2 21.5Q89.5 21.2 90.1 21.2L90.1 21.2Q90.7 21.2 91 21.5Q91.3 21.9 91.3 22.4L91.3 22.4Q91.3 22.9 91.0 23.2Q90.6 23.5 90.1 23.5Q89.5 23.5 89.2 23.2Q88.8 22.9 88.8 22.4ZM100.7 28.7L100.7 28.9Q100.7 30.8 99.8 32.0Q98.9 33.2 97.4 33.2L97.4 33.2Q96.1 33.2 95.3 32.3L95.3 32.3L95.3 36.3L93.1 36.3L93.1 24.5L95.2 24.5L95.2 25.4Q96.1 24.4 97.4 24.4L97.4 24.4Q98.9 24.4 99.8 25.5Q100.7 26.7 100.7 28.7L100.7 28.7ZM98.4 28.7L98.4 28.7Q98.4 27.5 98.0 26.9Q97.6 26.2 96.8 26.2L96.8 26.2Q95.7 26.2 95.3 27.0L95.3 27.0L95.3 30.5Q95.7 31.3 96.8 31.3L96.8 31.3Q98.4 31.3 98.4 28.7ZM102.5 22.5L104.8 22.5L104.8 24.5L106.2 24.5L106.2 26.2L104.8 26.2L104.8 30.4Q104.8 30.9 105.0 31.1Q105.1 31.3 105.6 31.3L105.6 31.3Q106.0 31.3 106.3 31.2L106.3 31.2L106.3 33.0Q105.6 33.2 104.9 33.2L104.9 33.2Q102.6 33.2 102.5 30.8L102.5 30.8L102.5 26.2L101.3 26.2L101.3 24.5L102.5 24.5L102.5 22.5Z "/></g><mask id="satori_om-id-1-0-2"><rect x="117" y="18" width="43" height="19" fill="#fff"/></mask><g  ><path fill="#57606a" d="M120.0 27.8L120.0 26.6L121.1 26.6Q122.2 26.6 122.7 26.1Q123.3 25.5 123.3 24.7L123.3 24.7Q123.3 22.7 121.3 22.7L121.3 22.7Q120.4 22.7 119.8 23.2Q119.3 23.7 119.3 24.6L119.3 24.6L117.8 24.6Q117.8 23.3 118.8 22.4Q119.8 21.5 121.3 21.5L121.3 21.5Q122.9 21.5 123.9 22.3Q124.8 23.2 124.8 24.7L124.8 24.7Q124.8 25.4 124.3 26.1Q123.8 26.8 123.0 27.2L123.0 27.2Q123.9 27.5 124.4 28.1Q124.9 28.8 124.9 29.8L124.9 29.8Q124.9 31.4 123.9 32.3Q122.9 33.2 121.3 33.2Q119.7 33.2 118.7 32.3Q117.7 31.4 117.7 30L117.7 30L119.2 30Q119.2 30.9 119.8 31.4Q120.4 32.0 121.3 32.0L121.3 32.0Q122.4 32.0 122.9 31.4Q123.5 30.9 123.5 29.9L123.5 29.9Q123.5 28.9 122.9 28.3Q122.3 27.8 121.1 27.8L121.1 27.8L120.0 27.8ZM133.8 24.6L133.8 24.6Q133.8 25.4 133.4 26.1Q132.9 26.8 132.2 27.1L132.2 27.1Q133.1 27.5 133.6 28.3Q134.1 29 134.1 29.9L134.1 29.9Q134.1 31.4 133.1 32.3Q132.1 33.2 130.5 33.2L130.5 33.2Q128.8 33.2 127.8 32.3Q126.9 31.4 126.9 29.9L126.9 29.9Q126.9 29.0 127.4 28.3Q127.9 27.5 128.8 27.1L128.8 27.1Q128 26.8 127.6 26.1Q127.1 25.4 127.1 24.6L127.1 24.6Q127.1 23.2 128.0 22.3Q129.0 21.5 130.5 21.5L130.5 21.5Q132.0 21.5 132.9 22.3Q133.8 23.2 133.8 24.6ZM132.6 29.9L132.6 29.9Q132.6 28.9 132.0 28.3Q131.4 27.7 130.5 27.7Q129.5 27.7 128.9 28.3Q128.3 28.9 128.3 29.9Q128.3 30.9 128.9 31.4Q129.5 32.0 130.5 32.0L130.5 32.0Q131.5 32.0 132.1 31.4Q132.6 30.9 132.6 29.9ZM130.5 22.7L130.5 22.7Q129.6 22.7 129.1 23.2Q128.6 23.7 128.6 24.6L128.6 24.6Q128.6 25.5 129.1 26.0Q129.6 26.6 130.5 26.6Q131.3 26.6 131.9 26.0Q132.4 25.5 132.4 24.6Q132.4 23.8 131.8 23.2Q131.3 22.7 130.5 22.7ZM136.1 32.2L136.1 32.2Q136.1 31.9 136.3 31.6Q136.5 31.4 137.0 31.4Q137.4 31.4 137.7 31.6Q137.9 31.9 137.9 32.2L137.9 32.2Q137.9 32.6 137.7 32.8Q137.4 33.1 137.0 33.1Q136.5 33.1 136.3 32.8Q136.1 32.6 136.1 32.2ZM142.2 27.8L142.2 26.6L143.3 26.6Q144.3 26.6 144.9 26.1Q145.5 25.5 145.5 24.7L145.5 24.7Q145.5 22.7 143.5 22.7L143.5 22.7Q142.6 22.7 142.0 23.2Q141.5 23.7 141.5 24.6L141.5 24.6L140.0 24.6Q140.0 23.3 141.0 22.4Q142.0 21.5 143.5 21.5L143.5 21.5Q145.1 21.5 146.0 22.3Q147.0 23.2 147.0 24.7L147.0 24.7Q147.0 25.4 146.5 26.1Q146.0 26.8 145.2 27.2L145.2 27.2Q146.1 27.5 146.6 28.1Q147.1 28.8 147.1 29.8L147.1 29.8Q147.1 31.4 146.1 32.3Q145.1 33.2 143.5 33.2Q141.9 33.2 140.9 32.3Q139.9 31.4 139.9 30L139.9 30L141.4 30Q141.4 30.9 142.0 31.4Q142.5 32.0 143.5 32.0L143.5 32.0Q144.6 32.0 145.1 31.4Q145.7 30.9 145.7 29.9L145.7 29.9Q145.7 28.9 145.1 28.3Q144.5 27.8 143.3 27.8L143.3 27.8L142.2 27.8ZM149.0 24.4L149.0 23.8Q149.0 22.8 149.6 22.1Q150.3 21.5 151.3 21.5L151.3 21.5Q152.4 21.5 153.0 22.1Q153.6 22.8 153.6 23.9L153.6 23.9L153.6 24.4Q153.6 25.4 153.0 26.1Q152.3 26.8 151.3 26.8L151.3 26.8Q150.3 26.8 149.6 26.1Q149.0 25.4 149.0 24.4L149.0 24.4ZM150.1 23.8L150.1 24.4Q150.1 25.0 150.4 25.4Q150.8 25.8 151.3 25.8L151.3 25.8Q151.9 25.8 152.2 25.4Q152.6 25.0 152.6 24.4L152.6 24.4L152.6 23.8Q152.6 23.2 152.2 22.8Q151.9 22.4 151.3 22.4Q150.7 22.4 150.4 22.8Q150.1 23.2 150.1 23.8L150.1 23.8ZM154.5 30.8L154.5 30.2Q154.5 29.2 155.2 28.5Q155.8 27.9 156.9 27.9Q157.9 27.9 158.5 28.5Q159.2 29.2 159.2 30.3L159.2 30.3L159.2 30.8Q159.2 31.8 158.5 32.5Q157.9 33.2 156.9 33.2Q155.9 33.2 155.2 32.5Q154.5 31.9 154.5 30.8L154.5 30.8ZM155.6 30.2L155.6 30.8Q155.6 31.4 155.9 31.8Q156.3 32.2 156.9 32.2L156.9 32.2Q157.4 32.2 157.8 31.8Q158.1 31.5 158.1 30.8L158.1 30.8L158.1 30.2Q158.1 29.6 157.8 29.2Q157.4 28.8 156.9 28.8L156.9 28.8Q156.3 28.8 155.9 29.2Q155.6 29.6 155.6 30.2L155.6 30.2ZM157.2 23.3L151.7 32.1L150.8 31.6L156.4 22.7L157.2 23.3Z "/></g><mask id="satori_om-id-1-1"><rect x="170" y="18" width="132" height="19" fill="#fff"/></mask><mask id="satori_om-id-1-1-0"><rect x="170" y="20" width="16" height="16" fill="#fff"/></mask><mask id="satori_om-id-1-1-0-0"><rect x="174" y="24" width="8" height="8" fill="#fff"/></mask><path x="174" y="24" width="8" height="8" fill="#3572A5" d="M178,24 h0 a4,4 0 0 1 4,4 v0 a4,4 0 0 1 -4,4 h0 a4,4 0 0 1 -4,-4 v0 a4,4 0 0 1 4,-4"/><mask id="satori_om-id-1-1-1"><rect x="199" y="18" width="51" height="19" fill="#fff"/></mask><g  ><path fill="#24292f" d="M204.4 29.0L202.4 29.0L202.4 33L200.0 33L200.0 21.6L204.5 21.6Q205.7 21.6 206.7 22.1Q207.7 22.6 208.2 23.4Q208.7 24.3 208.7 25.4L208.7 25.4Q208.7 27.1 207.6 28.0Q206.4 29.0 204.4 29.0L204.4 29.0ZM202.4 23.5L202.4 27.1L204.5 27.1Q205.4 27.1 205.9 26.7Q206.4 26.2 206.4 25.4L206.4 25.4Q206.4 24.6 205.9 24.1Q205.4 23.5 204.5 23.5L204.5 23.5L202.4 23.5ZM211.9 24.5L213.5 29.8L215.0 24.5L217.4 24.5L214.0 34.3L213.9 34.8Q213.1 36.4 211.4 36.4L211.4 36.4Q210.9 36.4 210.4 36.3L210.4 36.3L210.4 34.6L210.7 34.6Q211.3 34.6 211.7 34.4Q212.0 34.2 212.2 33.7L212.2 33.7L212.4 33.0L209.5 24.5L211.9 24.5ZM218.8 22.5L221.0 22.5L221.0 24.5L222.5 24.5L222.5 26.2L221.0 26.2L221.0 30.4Q221.0 30.9 221.2 31.1Q221.4 31.3 221.9 31.3L221.9 31.3Q222.3 31.3 222.6 31.2L222.6 31.2L222.6 33.0Q221.9 33.2 221.2 33.2L221.2 33.2Q218.8 33.2 218.8 30.8L218.8 30.8L218.8 26.2L217.5 26.2L217.5 24.5L218.8 24.5L218.8 22.5ZM225.9 21L225.9 25.5Q226.8 24.4 228.2 24.4L228.2 24.4Q231.0 24.4 231.0 27.6L231.0 27.6L231.0 33L228.7 33L228.7 27.6Q228.7 26.9 228.4 26.6Q228.1 26.2 227.4 26.2L227.4 26.2Q226.4 26.2 225.9 27.0L225.9 27.0L225.9 33L223.7 33L223.7 21L225.9 21ZM232.3 28.8L232.3 28.7Q232.3 27.4 232.8 26.5Q233.3 25.5 234.2 24.9Q235.1 24.4 236.3 24.4L236.3 24.4Q238.0 24.4 239.1 25.4Q240.2 26.5 240.3 28.3L240.3 28.3L240.4 28.9Q240.4 30.8 239.3 32.0Q238.2 33.2 236.4 33.2Q234.5 33.2 233.4 32.0Q232.3 30.8 232.3 28.8L232.3 28.8ZM234.6 28.9L234.6 28.9Q234.6 30.1 235.1 30.7Q235.5 31.3 236.4 31.3L236.4 31.3Q237.2 31.3 237.6 30.7Q238.1 30.1 238.1 28.7L238.1 28.7Q238.1 27.5 237.6 26.9Q237.2 26.2 236.3 26.2L236.3 26.2Q235.5 26.2 235.1 26.9Q234.6 27.5 234.6 28.9ZM241.7 24.5L243.8 24.5L243.9 25.5Q244.8 24.4 246.3 24.4L246.3 24.4Q247.7 24.4 248.3 25.2Q249.0 26.0 249.0 27.5L249.0 27.5L249.0 33L246.7 33L246.7 27.6Q246.7 26.9 246.4 26.6Q246.1 26.2 245.4 26.2L245.4 26.2Q244.4 26.2 244.0 27.0L244.0 27.0L244.0 33L241.7 33L241.7 24.5Z "/></g><mask id="satori_om-id-1-1-2"><rect x="259" y="18" width="43" height="19" fill="#fff"/></mask><g  ><path fill="#57606a" d="M264.7 21.6L264.7 33L263.2 33L263.2 23.4L260.3 24.4L260.3 23.1L264.5 21.6L264.7 21.6ZM275.0 21.6L275.0 29.2L276.6 29.2L276.6 30.4L275.0 30.4L275.0 33L273.6 33L273.6 30.4L268.4 30.4L268.4 29.5L273.5 21.6L275.0 21.6ZM273.4 23.9L270.0 29.2L273.6 29.2L273.6 23.6L273.4 23.9ZM278.1 32.2L278.1 32.2Q278.1 31.9 278.3 31.6Q278.5 31.4 279.0 31.4Q279.4 31.4 279.7 31.6Q279.9 31.9 279.9 32.2L279.9 32.2Q279.9 32.6 279.7 32.8Q279.4 33.1 279.0 33.1Q278.5 33.1 278.3 32.8Q278.1 32.6 278.1 32.2ZM286.9 21.6L286.9 33L285.4 33L285.4 23.4L282.5 24.4L282.5 23.1L286.6 21.6L286.9 21.6ZM291.0 24.4L291.0 23.8Q291.0 22.8 291.6 22.1Q292.3 21.5 293.3 21.5L293.3 21.5Q294.4 21.5 295.0 22.1Q295.6 22.8 295.6 23.9L295.6 23.9L295.6 24.4Q295.6 25.4 295.0 26.1Q294.3 26.8 293.3 26.8L293.3 26.8Q292.3 26.8 291.6 26.1Q291.0 25.4 291.0 24.4L291.0 24.4ZM292.1 23.8L292.1 24.4Q292.1 25.0 292.4 25.4Q292.8 25.8 293.3 25.8L293.3 25.8Q293.9 25.8 294.2 25.4Q294.6 25.0 294.6 24.4L294.6 24.4L294.6 23.8Q294.6 23.2 294.2 22.8Q293.9 22.4 293.3 22.4Q292.7 22.4 292.4 22.8Q292.1 23.2 292.1 23.8L292.1 23.8ZM296.5 30.8L296.5 30.2Q296.5 29.2 297.2 28.5Q297.8 27.9 298.9 27.9Q299.9 27.9 300.5 28.5Q301.2 29.2 301.2 30.3L301.2 30.3L301.2 30.8Q301.2 31.8 300.5 32.5Q299.9 33.2 298.9 33.2Q297.9 33.2 297.2 32.5Q296.5 31.9 296.5 30.8L296.5 30.8ZM297.6 30.2L297.6 30.8Q297.6 31.4 297.9 31.8Q298.3 32.2 298.9 32.2L298.9 32.2Q299.4 32.2 299.8 31.8Q300.1 31.5 300.1 30.8L300.1 30.8L300.1 30.2Q300.1 29.6 299.8 29.2Q299.4 28.8 298.9 28.8L298.9 28.8Q298.3 28.8 297.9 29.2Q297.6 29.6 297.6 30.2L297.6 30.2ZM299.2 23.3L293.7 32.1L292.8 31.6L298.4 22.7L299.2 23.3Z "/></g><mask id="satori_om-id-1-2"><rect x="0" y="47" width="101" height="19" fill="#fff"/></mask><mask id="satori_om-id-1-2-0"><rect x="0" y="49" width="16" height="16" fill="#fff"/></mask><mask id="satori_om-id-1-2-0-0"><rect x="4" y="53" width="8" height="8" fill="#fff"/></mask><path x="4" y="53" width="8" height="8" fill="#00ADD8" d="M8,53 h0 a4,4 0 0 1 4,4 v0 a4,4 0 0 1 -4,4 h0 a4,4 0 0 1 -4,-4 v0 a4,4 0 0 1 4,-4"/><mask id="satori_om-id-1-2-1"><rect x="29" y="47" width="20" height="19" fill="#fff"/></mask><g  ><path fill="#24292f" d="M39.0 56.0L39.0 60.6Q38.4 61.3 37.2 61.7Q36.1 62.2 34.7 62.2L34.7 62.2Q33.2 62.2 32.1 61.5Q31.0 60.9 30.4 59.6Q29.8 58.4 29.7 56.8L29.7 56.8L29.7 56.0Q29.7 54.3 30.3 53.0Q30.9 51.8 32.0 51.1Q33.0 50.5 34.5 50.5L34.5 50.5Q36.5 50.5 37.7 51.4Q38.8 52.4 39.0 54.2L39.0 54.2L36.7 54.2Q36.6 53.3 36.0 52.8Q35.5 52.4 34.6 52.4L34.6 52.4Q33.4 52.4 32.8 53.3Q32.1 54.2 32.1 55.9L32.1 55.9L32.1 56.7Q32.1 58.4 32.8 59.4Q33.5 60.3 34.8 60.3L34.8 60.3Q36.1 60.3 36.7 59.7L36.7 59.7L36.7 57.8L34.5 57.8L34.5 56.0L39.0 56.0ZM40.4 57.8L40.4 57.7Q40.4 56.4 40.9 55.5Q41.4 54.5 42.3 53.9Q43.2 53.4 44.4 53.4L44.4 53.4Q46.1 53.4 47.2 54.4Q48.3 55.5 48.4 57.3L48.4 57.3L48.4 57.9Q48.4 59.8 47.3 61.0Q46.3 62.2 44.4 62.2Q42.6 62.2 41.5 61.0Q40.4 59.8 40.4 57.8L40.4 57.8ZM42.7 57.9L42.7 57.9Q42.7 59.1 43.1 59.7Q43.6 60.3 44.4 60.3L44.4 60.3Q45.2 60.3 45.7 59.7Q46.2 59.1 46.2 57.7L46.2 57.7Q46.2 56.5 45.7 55.9Q45.2 55.2 44.4 55.2L44.4 55.2Q43.6 55.2 43.1 55.9Q42.7 56.5 42.7 57.9Z "/></g><mask id="satori_om-id-1-2-2"><rect x="58" y="47" width="43" height="19" fill="#fff"/></mask><g  ><path fill="#57606a" d="M63.7 50.6L63.7 62L62.2 62L62.2 52.4L59.3 53.4L59.3 52.1L63.5 50.6L63.7 50.6ZM70.0 56.8L70.0 55.6L71.1 55.6Q72.1 55.6 72.7 55.1Q73.3 54.5 73.3 53.7L73.3 53.7Q73.3 51.7 71.3 51.7L71.3 51.7Q70.4 51.7 69.8 52.2Q69.3 52.7 69.3 53.6L69.3 53.6L67.8 53.6Q67.8 52.3 68.8 51.4Q69.8 50.5 71.3 50.5L71.3 50.5Q72.9 50.5 73.8 51.3Q74.8 52.2 74.8 53.7L74.8 53.7Q74.8 54.4 74.3 55.1Q73.8 55.8 73.0 56.2L73.0 56.2Q73.9 56.5 74.4 57.1Q74.9 57.8 74.9 58.8L74.9 58.8Q74.9 60.4 73.9 61.3Q72.9 62.2 71.3 62.2Q69.7 62.2 68.7 61.3Q67.7 60.4 67.7 59L67.7 59L69.2 59Q69.2 59.9 69.8 60.4Q70.3 61.0 71.3 61.0L71.3 61.0Q72.4 61.0 72.9 60.4Q73.5 59.9 73.5 58.9L73.5 58.9Q73.5 57.9 72.9 57.3Q72.3 56.8 71.1 56.8L71.1 56.8L70.0 56.8ZM77.1 61.2L77.1 61.2Q77.1 60.9 77.3 60.6Q77.5 60.4 78.0 60.4Q78.4 60.4 78.7 60.6Q78.9 60.9 78.9 61.2L78.9 61.2Q78.9 61.6 78.7 61.8Q78.4 62.1 78.0 62.1Q77.5 62.1 77.3 61.8Q77.1 61.6 77.1 61.2ZM88.3 55.3L88.3 57.1Q88.3 59.7 87.4 60.9Q86.5 62.2 84.7 62.2L84.7 62.2Q82.9 62.2 82.0 60.9Q81.1 59.7 81.1 57.3L81.1 57.3L81.1 55.4Q81.1 52.9 81.9 51.7Q82.8 50.5 84.7 50.5L84.7 50.5Q86.5 50.5 87.4 51.6Q88.2 52.8 88.3 55.3L88.3 55.3ZM86.8 57.5L86.8 55.2Q86.8 53.3 86.3 52.5Q85.8 51.7 84.7 51.7L84.7 51.7Q83.6 51.7 83.0 52.5Q82.5 53.3 82.5 55.1L82.5 55.1L82.5 57.4Q82.5 59.2 83.1 60.1Q83.6 61.0 84.7 61.0L84.7 61.0Q85.8 61.0 86.3 60.1Q86.8 59.3 86.8 57.5L86.8 57.5ZM90.0 53.4L90.0 52.8Q90.0 51.8 90.6 51.1Q91.3 50.5 92.3 50.5L92.3 50.5Q93.4 50.5 94.0 51.1Q94.6 51.8 94.6 52.9L94.6 52.9L94.6 53.4Q94.6 54.4 94.0 55.1Q93.3 55.8 92.3 55.8L92.3 55.8Q91.3 55.8 90.6 55.1Q90.0 54.4 90.0 53.4L90.0 53.4ZM91.1 52.8L91.1 53.4Q91.1 54.0 91.4 54.4Q91.8 54.8 92.3 54.8L92.3 54.8Q92.9 54.8 93.2 54.4Q93.6 54.0 93.6 53.4L93.6 53.4L93.6 52.8Q93.6 52.2 93.2 51.8Q92.9 51.4 92.3 51.4Q91.7 51.4 91.4 51.8Q91.1 52.2 91.1 52.8L91.1 52.8ZM95.5 59.8L95.5 59.2Q95.5 58.2 96.2 57.5Q96.8 56.9 97.9 56.9Q98.9 56.9 99.5 57.5Q100.2 58.2 100.2 59.3L100.2 59.3L100.2 59.8Q100.2 60.8 99.5 61.5Q98.9 62.2 97.9 62.2Q96.9 62.2 96.2 61.5Q95.5 60.9 95.5 59.8L95.5 59.8ZM96.6 59.2L96.6 59.8Q96.6 60.4 96.9 60.8Q97.3 61.2 97.9 61.2L97.9 61.2Q98.4 61.2 98.8 60.8Q99.1 60.5 99.1 59.8L99.1 59.8L99.1 59.2Q99.1 58.6 98.8 58.2Q98.4 57.8 97.9 57.8L97.9 57.8Q97.3 57.8 96.9 58.2Q96.6 58.6 96.6 59.2L96.6 59.2ZM98.2 52.3L92.7 61.1L91.8 60.6L97.4 51.7L98.2 52.3Z "/></g><mask id="satori_om-id-1-3"><rect x="111" y="47" width="103" height="19" fill="#fff"/></mask><mask id="satori_om-id-1-3-0"><rect x="111" y="49" width="16" height="16" fill="#fff"/></mask><mask id="satori_om-id-1-3-0-0"><rect x="115" y="53" width="8" height="8" fill="#fff"/></mask><path x="115" y="53" width="8" height="8" fill="#844FBA" d="M119,53 h0 a4,4 0 0 1 4,4 v0 a4,4 0 0 1 -4,4 h0 a4,4 0 0 1 -4,-4 v0 a4,4 0 0 1 4,-4"/><mask id="satori_om-id-1-3-1"><rect x="140" y="47" width="31" height="19" fill="#fff"/></mask><g  ><path fill="#24292f" d="M150.3 50.6L150.3 62L147.9 62L147.9 57.1L143.4 57.1L143.4 62L141.0 62L141.0 50.6L143.4 50.6L143.4 55.2L147.9 55.2L147.9 50.6L150.3 50.6ZM158.9 58.2L161.3 58.2Q161.1 60.0 159.9 61.1Q158.7 62.2 156.7 62.2L156.7 62.2Q154.5 62.2 153.2 60.7Q152.0 59.2 152.0 56.6L152.0 56.6L152.0 55.9Q152.0 54.3 152.6 53.1Q153.1 51.8 154.2 51.1Q155.3 50.5 156.7 50.5L156.7 50.5Q158.7 50.5 159.9 51.5Q161.1 52.6 161.3 54.5L161.3 54.5L158.9 54.5Q158.8 53.4 158.3 52.9Q157.8 52.4 156.7 52.4L156.7 52.4Q155.5 52.4 154.9 53.2Q154.4 54.1 154.4 55.8L154.4 55.8L154.4 56.7Q154.4 58.5 154.9 59.4Q155.5 60.2 156.7 60.2L156.7 60.2Q157.8 60.2 158.3 59.7Q158.8 59.3 158.9 58.2L158.9 58.2ZM165.1 50.6L165.1 60.1L170.1 60.1L170.1 62L162.8 62L162.8 50.6L165.1 50.6Z "/></g><mask id="satori_om-id-1-3-2"><rect x="180" y="47" width="34" height="19" fill="#fff"/></mask><g  ><path fill="#57606a" d="M186.4 50.6L186.6 50.6L186.6 51.8L186.4 51.8Q184.7 51.9 183.7 52.8Q182.7 53.8 182.5 55.6L182.5 55.6Q183.4 54.5 185.0 54.5L185.0 54.5Q186.4 54.5 187.3 55.6Q188.2 56.6 188.2 58.3L188.2 58.3Q188.2 60.0 187.3 61.1Q186.3 62.2 184.7 62.2L184.7 62.2Q183.1 62.2 182.0 60.9Q181.0 59.6 181.0 57.7L181.0 57.7L181.0 57.1Q181.0 54.0 182.4 52.3Q183.7 50.7 186.4 50.6L186.4 50.6ZM184.7 55.7L184.7 55.7Q184.0 55.7 183.4 56.2Q182.7 56.6 182.5 57.3L182.5 57.3L182.5 57.8Q182.5 59.2 183.1 60.1Q183.8 61.0 184.7 61.0L184.7 61.0Q185.7 61.0 186.2 60.2Q186.8 59.5 186.8 58.4L186.8 58.4Q186.8 57.2 186.2 56.5Q185.7 55.7 184.7 55.7ZM190.1 61.2L190.1 61.2Q190.1 60.9 190.3 60.6Q190.6 60.4 191 60.4Q191.4 60.4 191.7 60.6Q191.9 60.9 191.9 61.2L191.9 61.2Q191.9 61.6 191.7 61.8Q191.4 62.1 191 62.1Q190.6 62.1 190.3 61.8Q190.1 61.6 190.1 61.2ZM200.2 50.6L200.2 58.2L201.8 58.2L201.8 59.4L200.2 59.4L200.2 62L198.8 62L198.8 59.4L193.6 59.4L193.6 58.5L198.7 50.6L200.2 50.6ZM198.6 52.9L195.3 58.2L198.8 58.2L198.8 52.6L198.6 52.9ZM203 53.4L203 52.8Q203 51.8 203.7 51.1Q204.3 50.5 205.3 50.5L205.3 50.5Q206.4 50.5 207.0 51.1Q207.7 51.8 207.7 52.9L207.7 52.9L207.7 53.4Q207.7 54.4 207.0 55.1Q206.4 55.8 205.3 55.8L205.3 55.8Q204.3 55.8 203.7 55.1Q203 54.4 203 53.4L203 53.4ZM204.1 52.8L204.1 53.4Q204.1 54.0 204.4 54.4Q204.8 54.8 205.3 54.8L205.3 54.8Q205.9 54.8 206.2 54.4Q206.6 54.0 206.6 53.4L206.6 53.4L206.6 52.8Q206.6 52.2 206.2 51.8Q205.9 51.4 205.3 51.4Q204.8 51.4 204.4 51.8Q204.1 52.2 204.1 52.8L204.1 52.8ZM208.5 59.8L208.5 59.2Q208.5 58.2 209.2 57.5Q209.8 56.9 210.9 56.9Q211.9 56.9 212.5 57.5Q213.2 58.2 213.2 59.3L213.2 59.3L213.2 59.8Q213.2 60.8 212.6 61.5Q211.9 62.2 210.9 62.2Q209.9 62.2 209.2 61.5Q208.5 60.9 208.5 59.8L208.5 59.8ZM209.6 59.2L209.6 59.8Q209.6 60.4 210.0 60.8Q210.3 61.2 210.9 61.2L210.9 61.2Q211.4 61.2 211.8 60.8Q212.1 60.5 212.1 59.8L212.1 59.8L212.1 59.2Q212.1 58.6 211.8 58.2Q211.4 57.8 210.9 57.8L210.9 57.8Q210.3 57.8 210.0 58.2Q209.6 58.6 209.6 59.2L209.6 59.2ZM211.2 52.3L205.7 61.1L204.9 60.6L210.4 51.7L211.2 52.3Z "/></g><mask id="satori_om-id-1-4"><rect x="224" y="47" width="149" height="19" fill="#fff"/></mask><mask id="satori_om-id-1-4-0"><rect x="224" y="49" width="16" height="16" fill="#fff"/></mask><mask id="satori_om-id-1-4-0-0"><rect x="228" y="53" width="8" height="8" fill="#fff"/></mask><path x="228" y="53" width="8" height="8" fill="#f1e05a" d="M232,53 h0 a4,4 0 0 1 4,4 v0 a4,4 0 0 1 -4,4 h0 a4,4 0 0 1 -4,-4 v0 a4,4 0 0 1 4,-4"/><mask id="satori_om-id-1-4-1"><rect x="253" y="47" width="77" height="19" fill="#fff"/></mask><g  ><path fill="#24292f" d="M258.6 58.5L258.6 50.6L260.9 50.6L260.9 58.5Q260.9 59.6 260.5 60.4Q260.0 61.3 259.1 61.7Q258.2 62.2 257.1 62.2L257.1 62.2Q255.3 62.2 254.3 61.2Q253.3 60.3 253.3 58.6L253.3 58.6L255.7 58.6Q255.7 59.5 256.0 59.9Q256.4 60.3 257.1 60.3L257.1 60.3Q257.8 60.3 258.2 59.8Q258.6 59.4 258.6 58.5L258.6 58.5ZM270.0 62L267.7 62Q267.5 61.7 267.5 61.2L267.5 61.2Q266.7 62.2 265.3 62.2L265.3 62.2Q264.1 62.2 263.3 61.4Q262.5 60.7 262.5 59.6L262.5 59.6Q262.5 58.3 263.5 57.6Q264.5 56.8 266.3 56.8L266.3 56.8L267.4 56.8L267.4 56.4Q267.4 55.8 267.1 55.4Q266.8 55.1 266.1 55.1L266.1 55.1Q265.6 55.1 265.2 55.3Q264.9 55.6 264.9 56.1L264.9 56.1L262.7 56.1Q262.7 55.4 263.1 54.7Q263.6 54.1 264.4 53.7Q265.2 53.4 266.3 53.4L266.3 53.4Q267.8 53.4 268.7 54.2Q269.6 55.0 269.6 56.4L269.6 56.4L269.6 60.0Q269.7 61.3 270.0 61.9L270.0 61.9L270.0 62ZM265.8 60.4L265.8 60.4Q266.3 60.4 266.8 60.2Q267.2 60.0 267.4 59.6L267.4 59.6L267.4 58.2L266.5 58.2Q264.8 58.2 264.7 59.3L264.7 59.3L264.7 59.5Q264.7 59.9 265.0 60.2Q265.3 60.4 265.8 60.4ZM272.9 53.5L274.4 59.2L276 53.5L278.4 53.5L275.5 62L273.4 62L270.5 53.5L272.9 53.5ZM286.4 62L284.1 62Q284.0 61.7 283.9 61.2L283.9 61.2Q283.1 62.2 281.8 62.2L281.8 62.2Q280.5 62.2 279.7 61.4Q278.9 60.7 278.9 59.6L278.9 59.6Q278.9 58.3 279.9 57.6Q280.9 56.8 282.8 56.8L282.8 56.8L283.8 56.8L283.8 56.4Q283.8 55.8 283.5 55.4Q283.2 55.1 282.6 55.1L282.6 55.1Q282.0 55.1 281.7 55.3Q281.3 55.6 281.3 56.1L281.3 56.1L279.1 56.1Q279.1 55.4 279.5 54.7Q280.0 54.1 280.8 53.7Q281.6 53.4 282.7 53.4L282.7 53.4Q284.2 53.4 285.2 54.2Q286.1 55.0 286.1 56.4L286.1 56.4L286.1 60.0Q286.1 61.3 286.4 61.9L286.4 61.9L286.4 62ZM282.3 60.4L282.3 60.4Q282.8 60.4 283.2 60.2Q283.6 60.0 283.8 59.6L283.8 59.6L283.8 58.2L283.0 58.2Q281.3 58.2 281.2 59.3L281.2 59.3L281.2 59.5Q281.2 59.9 281.5 60.2Q281.8 60.4 282.3 60.4ZM293.9 59.0L293.9 59.0Q293.9 58.4 293.4 58.0Q292.9 57.6 291.7 57.2Q290.5 56.9 289.8 56.5L289.8 56.5Q287.8 55.4 287.8 53.6L287.8 53.6Q287.8 52.7 288.4 52.0Q288.9 51.3 289.8 50.9Q290.8 50.5 292.0 50.5L292.0 50.5Q293.3 50.5 294.2 50.9Q295.2 51.4 295.7 52.2Q296.2 53.0 296.2 54.0L296.2 54.0L293.9 54.0Q293.9 53.2 293.4 52.8Q292.9 52.3 292.0 52.3L292.0 52.3Q291.1 52.3 290.7 52.7Q290.2 53.1 290.2 53.7L290.2 53.7Q290.2 54.2 290.7 54.6Q291.3 55.0 292.4 55.3L292.4 55.3Q294.4 55.9 295.3 56.8Q296.2 57.7 296.2 59L296.2 59Q296.2 60.5 295.1 61.3Q294.0 62.2 292.1 62.2L292.1 62.2Q290.8 62.2 289.7 61.7Q288.6 61.2 288.1 60.4Q287.5 59.5 287.5 58.4L287.5 58.4L289.8 58.4Q289.8 60.3 292.1 60.3L292.1 60.3Q292.9 60.3 293.4 60.0Q293.9 59.6 293.9 59.0ZM301.2 60.3L301.2 60.3Q301.8 60.3 302.2 60.0Q302.6 59.6 302.6 59.1L302.6 59.1L304.7 59.1Q304.7 59.9 304.2 60.7Q303.8 61.4 303.0 61.8Q302.2 62.2 301.2 62.2L301.2 62.2Q299.4 62.2 298.3 61.0Q297.3 59.9 297.3 57.8L297.3 57.8L297.3 57.7Q297.3 55.7 298.3 54.6Q299.4 53.4 301.2 53.4L301.2 53.4Q302.8 53.4 303.7 54.3Q304.7 55.2 304.7 56.7L304.7 56.7L302.6 56.7Q302.6 56.0 302.2 55.6Q301.8 55.2 301.1 55.2L301.1 55.2Q300.4 55.2 300.0 55.8Q299.6 56.4 299.6 57.7L299.6 57.7L299.6 57.9Q299.6 59.2 300.0 59.8Q300.4 60.3 301.2 60.3ZM310.8 53.5L310.7 55.7Q310.3 55.6 309.9 55.6L309.9 55.6Q308.6 55.6 308.3 56.5L308.3 56.5L308.3 62L306.0 62L306.0 53.5L308.1 53.5L308.2 54.6Q308.9 53.4 310.1 53.4L310.1 53.4Q310.4 53.4 310.8 53.5L310.8 53.5ZM314.2 53.5L314.2 62L311.9 62L311.9 53.5L314.2 53.5ZM311.8 51.4L311.8 51.4Q311.8 50.9 312.2 50.5Q312.5 50.2 313.1 50.2L313.1 50.2Q313.7 50.2 314 50.5Q314.3 50.9 314.3 51.4L314.3 51.4Q314.3 51.9 314.0 52.2Q313.6 52.5 313.1 52.5Q312.5 52.5 312.2 52.2Q311.8 51.9 311.8 51.4ZM323.7 57.7L323.7 57.9Q323.7 59.8 322.8 61.0Q321.9 62.2 320.4 62.2L320.4 62.2Q319.1 62.2 318.3 61.3L318.3 61.3L318.3 65.3L316.1 65.3L316.1 53.5L318.2 53.5L318.2 54.4Q319.1 53.4 320.4 53.4L320.4 53.4Q321.9 53.4 322.8 54.5Q323.7 55.7 323.7 57.7L323.7 57.7ZM321.4 57.7L321.4 57.7Q321.4 56.5 321.0 55.9Q320.6 55.2 319.8 55.2L319.8 55.2Q318.7 55.2 318.3 56.0L318.3 56.0L318.3 59.5Q318.7 60.3 319.8 60.3L319.8 60.3Q321.4 60.3 321.4 57.7ZM325.5 51.5L327.8 51.5L327.8 53.5L329.2 53.5L329.2 55.2L327.8 55.2L327.8 59.4Q327.8 59.9 328.0 60.1Q328.1 60.3 328.6 60.3L328.6 60.3Q329.0 60.3 329.3 60.2L329.3 60.2L329.3 62.0Q328.6 62.2 327.9 62.2L327.9 62.2Q325.6 62.2 325.5 59.8L325.5 59.8L325.5 55.2L324.3 55.2L324.3 53.5L325.5 53.5L325.5 51.5Z "/></g><mask id="satori_om-id-1-4-2"><rect x="339" y="47" width="34" height="19" fill="#fff"/></mask><g  ><path fill="#57606a" d="M342.0 56.8L342.0 55.6L343.1 55.6Q344.2 55.6 344.7 55.1Q345.3 54.5 345.3 53.7L345.3 53.7Q345.3 51.7 343.3 51.7L343.3 51.7Q342.4 51.7 341.8 52.2Q341.3 52.7 341.3 53.6L341.3 53.6L339.8 53.6Q339.8 52.3 340.8 51.4Q341.8 50.5 343.3 50.5L343.3 50.5Q344.9 50.5 345.9 51.3Q346.8 52.2 346.8 53.7L346.8 53.7Q346.8 54.4 346.3 55.1Q345.8 55.8 345.0 56.2L345.0 56.2Q345.9 56.5 346.4 57.1Q346.9 57.8 346.9 58.8L346.9 58.8Q346.9 60.4 345.9 61.3Q344.9 62.2 343.3 62.2Q341.7 62.2 340.7 61.3Q339.7 60.4 339.7 59L339.7 59L341.2 59Q341.2 59.9 341.8 60.4Q342.4 61.0 343.3 61.0L343.3 61.0Q344.4 61.0 344.9 60.4Q345.5 59.9 345.5 58.9L345.5 58.9Q345.5 57.9 344.9 57.3Q344.3 56.8 343.1 56.8L343.1 56.8L342.0 56.8ZM349.1 61.2L349.1 61.2Q349.1 60.9 349.3 60.6Q349.6 60.4 350 60.4Q350.4 60.4 350.7 60.6Q350.9 60.9 350.9 61.2L350.9 61.2Q350.9 61.6 350.7 61.8Q350.4 62.1 350 62.1Q349.6 62.1 349.3 61.8Q349.1 61.6 349.1 61.2ZM358.7 57L358.7 57Q358.2 57.5 357.6 57.9Q357.0 58.2 356.2 58.2L356.2 58.2Q355.2 58.2 354.5 57.7Q353.8 57.2 353.4 56.3Q353.0 55.5 353.0 54.4L353.0 54.4Q353.0 53.3 353.4 52.4Q353.8 51.4 354.6 51.0Q355.4 50.5 356.5 50.5L356.5 50.5Q358.2 50.5 359.2 51.7Q360.1 53.0 360.1 55.2L360.1 55.2L360.1 55.6Q360.1 58.9 358.8 60.4Q357.5 62.0 354.9 62.0L354.9 62.0L354.6 62.0L354.6 60.8L354.9 60.8Q356.7 60.8 357.6 59.9Q358.6 59.0 358.7 57ZM356.5 57L356.5 57Q357.2 57 357.8 56.6Q358.4 56.1 358.7 55.5L358.7 55.5L358.7 54.9Q358.7 53.5 358.1 52.6Q357.5 51.7 356.5 51.7L356.5 51.7Q355.6 51.7 355.0 52.4Q354.4 53.1 354.4 54.3L354.4 54.3Q354.4 55.5 355.0 56.2Q355.5 57 356.5 57ZM362 53.4L362 52.8Q362 51.8 362.7 51.1Q363.3 50.5 364.3 50.5L364.3 50.5Q365.4 50.5 366.0 51.1Q366.7 51.8 366.7 52.9L366.7 52.9L366.7 53.4Q366.7 54.4 366.0 55.1Q365.4 55.8 364.3 55.8L364.3 55.8Q363.3 55.8 362.7 55.1Q362 54.4 362 53.4L362 53.4ZM363.1 52.8L363.1 53.4Q363.1 54.0 363.4 54.4Q363.8 54.8 364.3 54.8L364.3 54.8Q364.9 54.8 365.2 54.4Q365.6 54.0 365.6 53.4L365.6 53.4L365.6 52.8Q365.6 52.2 365.2 51.8Q364.9 51.4 364.3 51.4Q363.8 51.4 363.4 51.8Q363.1 52.2 363.1 52.8L363.1 52.8ZM367.5 59.8L367.5 59.2Q367.5 58.2 368.2 57.5Q368.8 56.9 369.9 56.9Q370.9 56.9 371.5 57.5Q372.2 58.2 372.2 59.3L372.2 59.3L372.2 59.8Q372.2 60.8 371.6 61.5Q370.9 62.2 369.9 62.2Q368.9 62.2 368.2 61.5Q367.5 60.9 367.5 59.8L367.5 59.8ZM368.6 59.2L368.6 59.8Q368.6 60.4 369.0 60.8Q369.3 61.2 369.9 61.2L369.9 61.2Q370.4 61.2 370.8 60.8Q371.1 60.5 371.1 59.8L371.1 59.8L371.1 59.2Q371.1 58.6 370.8 58.2Q370.4 57.8 369.9 57.8L369.9 57.8Q369.3 57.8 369.0 58.2Q368.6 58.6 368.6 59.2L368.6 59.2ZM370.2 52.3L364.7 61.1L363.9 60.6L369.4 51.7L370.2 52.3Z "/></g><mask id="satori_om-id-1-5"><rect x="0" y="76" width="105" height="19" fill="#fff"/></mask><mask id="satori_om-id-1-5-0"><rect x="0" y="78" width="16" height="16" fill="#fff"/></mask><mask id="satori_om-id-1-5-0-0"><rect x="4" y="82" width="8" height="8" fill="#fff"/></mask><path x="4" y="82" width="8" height="8" fill="#dea584" d="M8,82 h0 a4,4 0 0 1 4,4 v0 a4,4 0 0 1 -4,4 h0 a4,4 0 0 1 -4,-4 v0 a4,4 0 0 1 4,-4"/><mask id="satori_om-id-1-5-1"><rect x="29" y="76" width="33" height="19" fill="#fff"/></mask><g  ><path fill="#24292f" d="M36.4 91L34.2 86.8L32.4 86.8L32.4 91L30.0 91L30.0 79.6L34.2 79.6Q36.3 79.6 37.4 80.5Q38.4 81.4 38.4 83.1L38.4 83.1Q38.4 84.2 37.9 85.0Q37.4 85.8 36.4 86.2L36.4 86.2L38.9 90.9L38.9 91L36.4 91ZM32.4 81.5L32.4 84.9L34.3 84.9Q35.1 84.9 35.6 84.5Q36.1 84.0 36.1 83.3L36.1 83.3Q36.1 82.4 35.6 82.0Q35.2 81.5 34.2 81.5L34.2 81.5L32.4 81.5ZM45.2 91L45.1 90.1Q44.3 91.2 42.8 91.2L42.8 91.2Q41.5 91.2 40.8 90.4Q40.0 89.6 40.0 88.1L40.0 88.1L40.0 82.5L42.3 82.5L42.3 88.0Q42.3 89.3 43.5 89.3L43.5 89.3Q44.6 89.3 45.1 88.5L45.1 88.5L45.1 82.5L47.3 82.5L47.3 91L45.2 91ZM53.6 88.7L53.6 88.7Q53.6 88.3 53.2 88.0Q52.8 87.8 51.9 87.6L51.9 87.6Q48.9 87.0 48.9 85.0L48.9 85.0Q48.9 83.9 49.8 83.1Q50.7 82.4 52.2 82.4L52.2 82.4Q53.9 82.4 54.8 83.1Q55.8 83.9 55.8 85.1L55.8 85.1L53.5 85.1Q53.5 84.6 53.2 84.3Q52.9 84 52.2 84L52.2 84Q51.7 84 51.4 84.3Q51.0 84.5 51.0 84.9L51.0 84.9Q51.0 85.3 51.4 85.5Q51.8 85.8 52.6 85.9Q53.4 86.1 54.0 86.3L54.0 86.3Q55.8 87.0 55.8 88.6L55.8 88.6Q55.8 89.7 54.8 90.4Q53.8 91.2 52.3 91.2L52.3 91.2Q51.2 91.2 50.4 90.8Q49.5 90.4 49.1 89.7Q48.6 89.1 48.6 88.3L48.6 88.3L50.7 88.3Q50.8 88.9 51.2 89.2Q51.6 89.6 52.3 89.6L52.3 89.6Q52.9 89.6 53.3 89.3Q53.6 89.1 53.6 88.7ZM57.7 80.5L60.0 80.5L60.0 82.5L61.4 82.5L61.4 84.2L60.0 84.2L60.0 88.4Q60.0 88.9 60.1 89.1Q60.3 89.3 60.8 89.3L60.8 89.3Q61.2 89.3 61.5 89.2L61.5 89.2L61.5 91.0Q60.8 91.2 60.1 91.2L60.1 91.2Q57.8 91.2 57.7 88.8L57.7 88.8L57.7 84.2L56.5 84.2L56.5 82.5L57.7 82.5L57.7 80.5Z "/></g><mask id="satori_om-id-1-5-2"><rect x="71" y="76" width="34" height="19" fill="#fff"/></mask><g  ><path fill="#57606a" d="M74.0 85.8L74.0 84.6L75.1 84.6Q76.2 84.6 76.7 84.1Q77.3 83.5 77.3 82.7L77.3 82.7Q77.3 80.7 75.3 80.7L75.3 80.7Q74.4 80.7 73.8 81.2Q73.3 81.7 73.3 82.6L73.3 82.6L71.8 82.6Q71.8 81.3 72.8 80.4Q73.8 79.5 75.3 79.5L75.3 79.5Q76.9 79.5 77.9 80.3Q78.8 81.2 78.8 82.7L78.8 82.7Q78.8 83.4 78.3 84.1Q77.8 84.8 77.0 85.2L77.0 85.2Q77.9 85.5 78.4 86.1Q78.9 86.8 78.9 87.8L78.9 87.8Q78.9 89.4 77.9 90.3Q76.9 91.2 75.3 91.2Q73.7 91.2 72.7 90.3Q71.7 89.4 71.7 88L71.7 88L73.2 88Q73.2 88.9 73.8 89.4Q74.4 90.0 75.3 90.0L75.3 90.0Q76.4 90.0 76.9 89.4Q77.5 88.9 77.5 87.9L77.5 87.9Q77.5 86.9 76.9 86.3Q76.3 85.8 75.1 85.8L75.1 85.8L74.0 85.8ZM81.1 90.2L81.1 90.2Q81.1 89.9 81.3 89.6Q81.6 89.4 82 89.4Q82.4 89.4 82.7 89.6Q82.9 89.9 82.9 90.2L82.9 90.2Q82.9 90.6 82.7 90.8Q82.4 91.1 82 91.1Q81.6 91.1 81.3 90.8Q81.1 90.6 81.1 90.2ZM92.0 82.6L92.0 82.6Q92.0 83.4 91.6 84.1Q91.1 84.8 90.4 85.1L90.4 85.1Q91.3 85.5 91.8 86.3Q92.3 87 92.3 87.9L92.3 87.9Q92.3 89.4 91.3 90.3Q90.3 91.2 88.7 91.2L88.7 91.2Q87.0 91.2 86.1 90.3Q85.1 89.4 85.1 87.9L85.1 87.9Q85.1 87.0 85.6 86.3Q86.1 85.5 87.0 85.1L87.0 85.1Q86.2 84.8 85.8 84.1Q85.3 83.4 85.3 82.6L85.3 82.6Q85.3 81.2 86.3 80.3Q87.2 79.5 88.7 79.5L88.7 79.5Q90.2 79.5 91.1 80.3Q92.0 81.2 92.0 82.6ZM90.9 87.9L90.9 87.9Q90.9 86.9 90.3 86.3Q89.6 85.7 88.7 85.7Q87.7 85.7 87.1 86.3Q86.5 86.9 86.5 87.9Q86.5 88.9 87.1 89.4Q87.7 90.0 88.7 90.0L88.7 90.0Q89.7 90.0 90.3 89.4Q90.9 88.9 90.9 87.9ZM88.7 80.7L88.7 80.7Q87.8 80.7 87.3 81.2Q86.8 81.7 86.8 82.6L86.8 82.6Q86.8 83.5 87.3 84.0Q87.8 84.6 88.7 84.6Q89.6 84.6 90.1 84.0Q90.6 83.5 90.6 82.6Q90.6 81.8 90.1 81.2Q89.5 80.7 88.7 80.7ZM94 82.4L94 81.8Q94 80.8 94.7 80.1Q95.3 79.5 96.3 79.5L96.3 79.5Q97.4 79.5 98.0 80.1Q98.7 80.8 98.7 81.9L98.7 81.9L98.7 82.4Q98.7 83.4 98.0 84.1Q97.4 84.8 96.3 84.8L96.3 84.8Q95.3 84.8 94.7 84.1Q94 83.4 94 82.4L94 82.4ZM95.1 81.8L95.1 82.4Q95.1 83.0 95.4 83.4Q95.8 83.8 96.3 83.8L96.3 83.8Q96.9 83.8 97.2 83.4Q97.6 83.0 97.6 82.4L97.6 82.4L97.6 81.8Q97.6 81.2 97.2 80.8Q96.9 80.4 96.3 80.4Q95.8 80.4 95.4 80.8Q95.1 81.2 95.1 81.8L95.1 81.8ZM99.5 88.8L99.5 88.2Q99.5 87.2 100.2 86.5Q100.8 85.9 101.9 85.9Q102.9 85.9 103.5 86.5Q104.2 87.2 104.2 88.3L104.2 88.3L104.2 88.8Q104.2 89.8 103.6 90.5Q102.9 91.2 101.9 91.2Q100.9 91.2 100.2 90.5Q99.5 89.9 99.5 88.8L99.5 88.8ZM100.6 88.2L100.6 88.8Q100.6 89.4 101.0 89.8Q101.3 90.2 101.9 90.2L101.9 90.2Q102.4 90.2 102.8 89.8Q103.1 89.5 103.1 88.8L103.1 88.8L103.1 88.2Q103.1 87.6 102.8 87.2Q102.4 86.8 101.9 86.8L101.9 86.8Q101.3 86.8 101.0 87.2Q100.6 87.6 100.6 88.2L100.6 88.2ZM102.2 81.3L96.7 90.1L95.9 89.6L101.4 80.7L102.2 81.3Z "/></g><mask id="satori_om-id-1-6"><rect x="115" y="76" width="115" height="19" fill="#fff"/></mask><mask id="satori_om-id-1-6-0"><rect x="115" y="78" width="16" height="16" fill="#fff"/></mask><mask id="satori_om-id-1-6-0-0"><rect x="119" y="82" width="8" height="8" fill="#fff"/></mask><path x="119" y="82" width="8" height="8" fill="#A97BFF" d="M123,82 h0 a4,4 0 0 1 4,4 v0 a4,4 0 0 1 -4,4 h0 a4,4 0 0 1 -4,-4 v0 a4,4 0 0 1 4,-4"/><mask id="satori_om-id-1-6-1"><rect x="144" y="76" width="43" height="19" fill="#fff"/></mask><g  ><path fill="#24292f" d="M151.5 91L148.6 86.4L147.4 87.8L147.4 91L145.0 91L145.0 79.6L147.4 79.6L147.4 84.8L148.4 83.4L151.3 79.6L154.2 79.6L150.1 84.7L154.3 91L151.5 91ZM154.5 86.8L154.5 86.7Q154.5 85.4 154.9 84.5Q155.4 83.5 156.3 82.9Q157.3 82.4 158.5 82.4L158.5 82.4Q160.2 82.4 161.2 83.4Q162.3 84.5 162.5 86.3L162.5 86.3L162.5 86.9Q162.5 88.8 161.4 90.0Q160.3 91.2 158.5 91.2Q156.6 91.2 155.6 90.0Q154.5 88.8 154.5 86.8L154.5 86.8ZM156.7 86.9L156.7 86.9Q156.7 88.1 157.2 88.7Q157.6 89.3 158.5 89.3L158.5 89.3Q159.3 89.3 159.8 88.7Q160.2 88.1 160.2 86.7L160.2 86.7Q160.2 85.5 159.8 84.9Q159.3 84.2 158.5 84.2L158.5 84.2Q157.6 84.2 157.2 84.9Q156.7 85.5 156.7 86.9ZM164.3 80.5L166.6 80.5L166.6 82.5L168.0 82.5L168.0 84.2L166.6 84.2L166.6 88.4Q166.6 88.9 166.7 89.1Q166.9 89.3 167.4 89.3L167.4 89.3Q167.8 89.3 168.1 89.2L168.1 89.2L168.1 91.0Q167.4 91.2 166.7 91.2L166.7 91.2Q164.4 91.2 164.3 88.8L164.3 88.8L164.3 84.2L163.1 84.2L163.1 82.5L164.3 82.5L164.3 80.5ZM171.6 79L171.6 91L169.4 91L169.4 79L171.6 79ZM175.9 82.5L175.9 91L173.6 91L173.6 82.5L175.9 82.5ZM173.5 80.4L173.5 80.4Q173.5 79.9 173.8 79.5Q174.2 79.2 174.8 79.2L174.8 79.2Q175.3 79.2 175.7 79.5Q176.0 79.9 176.0 80.4L176.0 80.4Q176.0 80.9 175.7 81.2Q175.3 81.5 174.8 81.5Q174.2 81.5 173.8 81.2Q173.5 80.9 173.5 80.4ZM177.7 82.5L179.8 82.5L179.9 83.5Q180.8 82.4 182.3 82.4L182.3 82.4Q183.7 82.4 184.3 83.2Q185.0 84.0 185 85.5L185 85.5L185 91L182.7 91L182.7 85.6Q182.7 84.9 182.4 84.6Q182.1 84.2 181.4 84.2L181.4 84.2Q180.4 84.2 180.0 85.0L180.0 85.0L180.0 91L177.7 91L177.7 82.5Z "/></g><mask id="satori_om-id-1-6-2"><rect x="196" y="76" width="34" height="19" fill="#fff"/></mask><g  ><path fill="#57606a" d="M199.0 85.8L199.0 84.6L200.1 84.6Q201.2 84.6 201.7 84.1Q202.3 83.5 202.3 82.7L202.3 82.7Q202.3 80.7 200.3 80.7L200.3 80.7Q199.4 80.7 198.8 81.2Q198.3 81.7 198.3 82.6L198.3 82.6L196.8 82.6Q196.8 81.3 197.8 80.4Q198.8 79.5 200.3 79.5L200.3 79.5Q201.9 79.5 202.9 80.3Q203.8 81.2 203.8 82.7L203.8 82.7Q203.8 83.4 203.3 84.1Q202.8 84.8 202.0 85.2L202.0 85.2Q202.9 85.5 203.4 86.1Q203.9 86.8 203.9 87.8L203.9 87.8Q203.9 89.4 202.9 90.3Q201.9 91.2 200.3 91.2Q198.7 91.2 197.7 90.3Q196.7 89.4 196.7 88L196.7 88L198.2 88Q198.2 88.9 198.8 89.4Q199.4 90.0 200.3 90.0L200.3 90.0Q201.4 90.0 201.9 89.4Q202.5 88.9 202.5 87.9L202.5 87.9Q202.5 86.9 201.9 86.3Q201.3 85.8 200.1 85.8L200.1 85.8L199.0 85.8ZM206.1 90.2L206.1 90.2Q206.1 89.9 206.3 89.6Q206.6 89.4 207 89.4Q207.4 89.4 207.7 89.6Q207.9 89.9 207.9 90.2L207.9 90.2Q207.9 90.6 207.7 90.8Q207.4 91.1 207 91.1Q206.6 91.1 206.3 90.8Q206.1 90.6 206.1 90.2ZM216.2 79.6L216.2 87.2L217.8 87.2L217.8 88.4L216.2 88.4L216.2 91L214.8 91L214.8 88.4L209.6 88.4L209.6 87.5L214.7 79.6L216.2 79.6ZM214.6 81.9L211.3 87.2L214.8 87.2L214.8 81.6L214.6 81.9ZM219 82.4L219 81.8Q219 80.8 219.7 80.1Q220.3 79.5 221.3 79.5L221.3 79.5Q222.4 79.5 223.0 80.1Q223.7 80.8 223.7 81.9L223.7 81.9L223.7 82.4Q223.7 83.4 223.0 84.1Q222.4 84.8 221.3 84.8L221.3 84.8Q220.3 84.8 219.7 84.1Q219 83.4 219 82.4L219 82.4ZM220.1 81.8L220.1 82.4Q220.1 83.0 220.4 83.4Q220.8 83.8 221.3 83.8L221.3 83.8Q221.9 83.8 222.2 83.4Q222.6 83.0 222.6 82.4L222.6 82.4L222.6 81.8Q222.6 81.2 222.2 80.8Q221.9 80.4 221.3 80.4Q220.8 80.4 220.4 80.8Q220.1 81.2 220.1 81.8L220.1 81.8ZM224.5 88.8L224.5 88.2Q224.5 87.2 225.2 86.5Q225.8 85.9 226.9 85.9Q227.9 85.9 228.5 86.5Q229.2 87.2 229.2 88.3L229.2 88.3L229.2 88.8Q229.2 89.8 228.6 90.5Q227.9 91.2 226.9 91.2Q225.9 91.2 225.2 90.5Q224.5 89.9 224.5 88.8L224.5 88.8ZM225.6 88.2L225.6 88.8Q225.6 89.4 226.0 89.8Q226.3 90.2 226.9 90.2L226.9 90.2Q227.4 90.2 227.8 89.8Q228.1 89.5 228.1 88.8L228.1 88.8L228.1 88.2Q228.1 87.6 227.8 87.2Q227.4 86.8 226.9 86.8L226.9 86.8Q226.3 86.8 226.0 87.2Q225.6 87.6 225.6 88.2L225.6 88.2ZM227.2 81.3L221.7 90.1L220.9 89.6L226.4 80.7L227.2 81.3Z "/></g><mask id="satori_om-id-1-7"><rect x="240" y="76" width="117" height="19" fill="#fff"/></mask><mask id="satori_om-id-1-7-0"><rect x="240" y="78" width="16" height="16" fill="#fff"/></mask><mask id="satori_om-id-1-7-0-0"><rect x="244" y="82" width="8" height="8" fill="#fff"/></mask><path x="244" y="82" width="8" height="8" fill="#ff3e00" d="M248,82 h0 a4,4 0 0 1 4,4 v0 a4,4 0 0 1 -4,4 h0 a4,4 0 0 1 -4,-4 v0 a4,4 0 0 1 4,-4"/><mask id="satori_om-id-1-7-1"><rect x="269" y="76" width="45" height="19" fill="#fff"/></mask><g  ><path fill="#24292f" d="M275.9 88.0L275.9 88.0Q275.9 87.4 275.4 87.0Q275.0 86.6 273.8 86.2Q272.5 85.9 271.8 85.5L271.8 85.5Q269.9 84.4 269.9 82.6L269.9 82.6Q269.9 81.7 270.4 81.0Q270.9 80.3 271.9 79.9Q272.9 79.5 274.1 79.5L274.1 79.5Q275.3 79.5 276.3 79.9Q277.2 80.4 277.7 81.2Q278.3 82.0 278.3 83.0L278.3 83.0L275.9 83.0Q275.9 82.2 275.4 81.8Q274.9 81.3 274.0 81.3L274.0 81.3Q273.2 81.3 272.7 81.7Q272.2 82.1 272.2 82.7L272.2 82.7Q272.2 83.2 272.8 83.6Q273.4 84.0 274.4 84.3L274.4 84.3Q276.4 84.9 277.4 85.8Q278.3 86.7 278.3 88L278.3 88Q278.3 89.5 277.1 90.3Q276.0 91.2 274.1 91.2L274.1 91.2Q272.8 91.2 271.8 90.7Q270.7 90.2 270.1 89.4Q269.5 88.5 269.5 87.4L269.5 87.4L271.9 87.4Q271.9 89.3 274.1 89.3L274.1 89.3Q275.0 89.3 275.4 89.0Q275.9 88.6 275.9 88.0ZM281.3 82.5L282.9 88.2L284.4 82.5L286.8 82.5L283.9 91L281.8 91L278.9 82.5L281.3 82.5ZM291.6 91.2L291.6 91.2Q289.7 91.2 288.6 90.0Q287.4 88.9 287.4 87.0L287.4 87.0L287.4 86.8Q287.4 85.5 287.9 84.5Q288.4 83.5 289.3 82.9Q290.2 82.4 291.3 82.4L291.3 82.4Q293.1 82.4 294.1 83.5Q295.1 84.6 295.1 86.6L295.1 86.6L295.1 87.5L289.7 87.5Q289.8 88.3 290.3 88.8Q290.9 89.3 291.7 89.3L291.7 89.3Q293.0 89.3 293.8 88.4L293.8 88.4L294.9 89.6Q294.4 90.4 293.5 90.8Q292.6 91.2 291.6 91.2ZM291.3 84.2L291.3 84.2Q290.6 84.2 290.2 84.7Q289.8 85.1 289.7 86.0L289.7 86.0L292.8 86.0L292.8 85.8Q292.8 85.0 292.4 84.6Q292.0 84.2 291.3 84.2ZM298.7 79L298.7 91L296.5 91L296.5 79L298.7 79ZM301.0 80.5L303.3 80.5L303.3 82.5L304.7 82.5L304.7 84.2L303.3 84.2L303.3 88.4Q303.3 88.9 303.5 89.1Q303.6 89.3 304.1 89.3L304.1 89.3Q304.5 89.3 304.8 89.2L304.8 89.2L304.8 91.0Q304.1 91.2 303.4 91.2L303.4 91.2Q301.1 91.2 301.0 88.8L301.0 88.8L301.0 84.2L299.8 84.2L299.8 82.5L301.0 82.5L301.0 80.5ZM309.9 91.2L309.9 91.2Q308.0 91.2 306.8 90.0Q305.7 88.9 305.7 87.0L305.7 87.0L305.7 86.8Q305.7 85.5 306.2 84.5Q306.7 83.5 307.6 82.9Q308.5 82.4 309.6 82.4L309.6 82.4Q311.4 82.4 312.4 83.5Q313.4 84.6 313.4 86.6L313.4 86.6L313.4 87.5L308.0 87.5Q308.1 88.3 308.6 88.8Q309.2 89.3 310.0 89.3L310.0 89.3Q311.3 89.3 312.1 88.4L312.1 88.4L313.2 89.6Q312.7 90.4 311.8 90.8Q310.9 91.2 309.9 91.2ZM309.6 84.2L309.6 84.2Q308.9 84.2 308.5 84.7Q308.1 85.1 308.0 86.0L308.0 86.0L311.1 86.0L311.1 85.8Q311.1 85.0 310.7 84.6Q310.3 84.2 309.6 84.2Z "/></g><mask id="satori_om-id-1-7-2"><rect x="323" y="76" width="34" height="19" fill="#fff"/></mask><g  ><path fill="#57606a" d="M326.0 85.8L326.0 84.6L327.1 84.6Q328.2 84.6 328.7 84.1Q329.3 83.5 329.3 82.7L329.3 82.7Q329.3 80.7 327.3 80.7L327.3 80.7Q326.4 80.7 325.8 81.2Q325.3 81.7 325.3 82.6L325.3 82.6L323.8 82.6Q323.8 81.3 324.8 80.4Q325.8 79.5 327.3 79.5L327.3 79.5Q328.9 79.5 329.9 80.3Q330.8 81.2 330.8 82.7L330.8 82.7Q330.8 83.4 330.3 84.1Q329.8 84.8 329.0 85.2L329.0 85.2Q329.9 85.5 330.4 86.1Q330.9 86.8 330.9 87.8L330.9 87.8Q330.9 89.4 329.9 90.3Q328.9 91.2 327.3 91.2Q325.7 91.2 324.7 90.3Q323.7 89.4 323.7 88L323.7 88L325.2 88Q325.2 88.9 325.8 89.4Q326.4 90.0 327.3 90.0L327.3 90.0Q328.4 90.0 328.9 89.4Q329.5 88.9 329.5 87.9L329.5 87.9Q329.5 86.9 328.9 86.3Q328.3 85.8 327.1 85.8L327.1 85.8L326.0 85.8ZM333.1 90.2L333.1 90.2Q333.1 89.9 333.3 89.6Q333.6 89.4 334 89.4Q334.4 89.4 334.7 89.6Q334.9 89.9 334.9 90.2L334.9 90.2Q334.9 90.6 334.7 90.8Q334.4 91.1 334 91.1Q333.6 91.1 333.3 90.8Q333.1 90.6 333.1 90.2ZM343.2 79.6L343.2 87.2L344.8 87.2L344.8 88.4L343.2 88.4L343.2 91L341.8 91L341.8 88.4L336.6 88.4L336.6 87.5L341.7 79.6L343.2 79.6ZM341.6 81.9L338.3 87.2L341.8 87.2L341.8 81.6L341.6 81.9ZM346 82.4L346 81.8Q346 80.8 346.7 80.1Q347.3 79.5 348.3 79.5L348.3 79.5Q349.4 79.5 350.0 80.1Q350.7 80.8 350.7 81.9L350.7 81.9L350.7 82.4Q350.7 83.4 350.0 84.1Q349.4 84.8 348.3 84.8L348.3 84.8Q347.3 84.8 346.7 84.1Q346 83.4 346 82.4L346 82.4ZM347.1 81.8L347.1 82.4Q347.1 83.0 347.4 83.4Q347.8 83.8 348.3 83.8L348.3 83.8Q348.9 83.8 349.2 83.4Q349.6 83.0 349.6 82.4L349.6 82.4L349.6 81.8Q349.6 81.2 349.2 80.8Q348.9 80.4 348.3 80.4Q347.8 80.4 347.4 80.8Q347.1 81.2 347.1 81.8L347.1 81.8ZM351.5 88.8L351.5 88.2Q351.5 87.2 352.2 86.5Q352.8 85.9 353.9 85.9Q354.9 85.9 355.5 86.5Q356.2 87.2 356.2 88.3L356.2 88.3L356.2 88.8Q356.2 89.8 355.6 90.5Q354.9 91.2 353.9 91.2Q352.9 91.2 352.2 90.5Q351.5 89.9 351.5 88.8L351.5 88.8ZM352.6 88.2L352.6 88.8Q352.6 89.4 353.0 89.8Q353.3 90.2 353.9 90.2L353.9 90.2Q354.4 90.2 354.8 89.8Q355.1 89.5 355.1 88.8L355.1 88.8L355.1 88.2Q355.1 87.6 354.8 87.2Q354.4 86.8 353.9 86.8L353.9 86.8Q353.3 86.8 353.0 87.2Q352.6 87.6 352.6 88.2L352.6 88.2ZM354.2 81.3L348.7 90.1L347.9 89.6L353.4 80.7L354.2 81.3Z "/></g><mask id="satori_om-id-1-8"><rect x="0" y="105" width="109" height="19" fill="#fff"/></mask><mask id="satori_om-id-1-8-0"><rect x="0" y="107" width="16" height="16" fill="#fff"/></mask><mask id="satori_om-id-1-8-0-0"><rect x="4" y="111" width="8" height="8" fill="#fff"/></mask><path x="4" y="111" width="8" height="8" fill="#701516" d="M8,111 h0 a4,4 0 0 1 4,4 v0 a4,4 0 0 1 -4,4 h0 a4,4 0 0 1 -4,-4 v0 a4,4 0 0 1 4,-4"/><mask id="satori_om-id-1-8-1"><rect x="29" y="105" width="37" height="19" fill="#fff"/></mask><g  ><path fill="#24292f" d="M36.4 120L34.2 115.8L32.4 115.8L32.4 120L30.0 120L30.0 108.6L34.2 108.6Q36.3 108.6 37.4 109.5Q38.4 110.4 38.4 112.1L38.4 112.1Q38.4 113.2 37.9 114.0Q37.4 114.8 36.4 115.2L36.4 115.2L38.9 119.9L38.9 120L36.4 120ZM32.4 110.5L32.4 113.9L34.3 113.9Q35.1 113.9 35.6 113.5Q36.1 113.0 36.1 112.3L36.1 112.3Q36.1 111.4 35.6 111.0Q35.2 110.5 34.2 110.5L34.2 110.5L32.4 110.5ZM45.2 120L45.1 119.1Q44.3 120.2 42.8 120.2L42.8 120.2Q41.5 120.2 40.8 119.4Q40.0 118.6 40.0 117.1L40.0 117.1L40.0 111.5L42.3 111.5L42.3 117.0Q42.3 118.3 43.5 118.3L43.5 118.3Q44.6 118.3 45.1 117.5L45.1 117.5L45.1 111.5L47.3 111.5L47.3 120L45.2 120ZM56.6 115.7L56.6 115.9Q56.6 117.9 55.8 119.0Q54.9 120.2 53.4 120.2L53.4 120.2Q52.0 120.2 51.2 119.1L51.2 119.1L51.1 120L49.0 120L49.0 108L51.3 108L51.3 112.3Q52.1 111.4 53.3 111.4L53.3 111.4Q54.9 111.4 55.8 112.5Q56.6 113.7 56.6 115.7L56.6 115.7ZM54.4 115.7L54.4 115.7Q54.4 114.4 54.0 113.8Q53.6 113.2 52.8 113.2L52.8 113.2Q51.7 113.2 51.3 114.1L51.3 114.1L51.3 117.4Q51.7 118.3 52.8 118.3L52.8 118.3Q53.9 118.3 54.2 117.3L54.2 117.3Q54.4 116.7 54.4 115.7ZM59.5 111.5L61.1 116.8L62.7 111.5L65.1 111.5L61.7 121.3L61.5 121.8Q60.8 123.4 59.0 123.4L59.0 123.4Q58.5 123.4 58.0 123.3L58.0 123.3L58.0 121.6L58.4 121.6Q59.0 121.6 59.3 121.4Q59.6 121.2 59.8 120.7L59.8 120.7L60.1 120.0L57.1 111.5L59.5 111.5Z "/></g><mask id="satori_om-id-1-8-2"><rect x="75" y="105" width="34" height="19" fill="#fff"/></mask><g  ><path fill="#57606a" d="M78.0 114.8L78.0 113.6L79.1 113.6Q80.2 113.6 80.7 113.1Q81.3 112.5 81.3 111.7L81.3 111.7Q81.3 109.7 79.3 109.7L79.3 109.7Q78.4 109.7 77.8 110.2Q77.3 110.7 77.3 111.6L77.3 111.6L75.8 111.6Q75.8 110.3 76.8 109.4Q77.8 108.5 79.3 108.5L79.3 108.5Q80.9 108.5 81.9 109.3Q82.8 110.2 82.8 111.7L82.8 111.7Q82.8 112.4 82.3 113.1Q81.8 113.8 81.0 114.2L81.0 114.2Q81.9 114.5 82.4 115.1Q82.9 115.8 82.9 116.8L82.9 116.8Q82.9 118.4 81.9 119.3Q80.9 120.2 79.3 120.2Q77.7 120.2 76.7 119.3Q75.7 118.4 75.7 117L75.7 117L77.2 117Q77.2 117.9 77.8 118.4Q78.4 119.0 79.3 119.0L79.3 119.0Q80.4 119.0 80.9 118.4Q81.5 117.9 81.5 116.9L81.5 116.9Q81.5 115.9 80.9 115.3Q80.3 114.8 79.1 114.8L79.1 114.8L78.0 114.8ZM85.1 119.2L85.1 119.2Q85.1 118.9 85.3 118.6Q85.6 118.4 86 118.4Q86.4 118.4 86.7 118.6Q86.9 118.9 86.9 119.2L86.9 119.2Q86.9 119.6 86.7 119.8Q86.4 120.1 86 120.1Q85.6 120.1 85.3 119.8Q85.1 119.6 85.1 119.2ZM91.2 114.8L91.2 113.6L92.3 113.6Q93.4 113.6 93.9 113.1Q94.5 112.5 94.5 111.7L94.5 111.7Q94.5 109.7 92.5 109.7L92.5 109.7Q91.6 109.7 91.0 110.2Q90.5 110.7 90.5 111.6L90.5 111.6L89.0 111.6Q89.0 110.3 90.0 109.4Q91.0 108.5 92.5 108.5L92.5 108.5Q94.1 108.5 95.1 109.3Q96.0 110.2 96.0 111.7L96.0 111.7Q96.0 112.4 95.5 113.1Q95.0 113.8 94.2 114.2L94.2 114.2Q95.1 114.5 95.6 115.1Q96.1 115.8 96.1 116.8L96.1 116.8Q96.1 118.4 95.1 119.3Q94.1 120.2 92.5 120.2Q90.9 120.2 89.9 119.3Q88.9 118.4 88.9 117L88.9 117L90.4 117Q90.4 117.9 91.0 118.4Q91.6 119.0 92.5 119.0L92.5 119.0Q93.6 119.0 94.1 118.4Q94.7 117.9 94.7 116.9L94.7 116.9Q94.7 115.9 94.1 115.3Q93.5 114.8 92.3 114.8L92.3 114.8L91.2 114.8ZM98 111.4L98 110.8Q98 109.8 98.7 109.1Q99.3 108.5 100.3 108.5L100.3 108.5Q101.4 108.5 102.0 109.1Q102.7 109.8 102.7 110.9L102.7 110.9L102.7 111.4Q102.7 112.4 102.0 113.1Q101.4 113.8 100.3 113.8L100.3 113.8Q99.3 113.8 98.7 113.1Q98 112.4 98 111.4L98 111.4ZM99.1 110.8L99.1 111.4Q99.1 112.0 99.4 112.4Q99.8 112.8 100.3 112.8L100.3 112.8Q100.9 112.8 101.2 112.4Q101.6 112.0 101.6 111.4L101.6 111.4L101.6 110.8Q101.6 110.2 101.2 109.8Q100.9 109.4 100.3 109.4Q99.8 109.4 99.4 109.8Q99.1 110.2 99.1 110.8L99.1 110.8ZM103.5 117.8L103.5 117.2Q103.5 116.2 104.2 115.5Q104.8 114.9 105.9 114.9Q106.9 114.9 107.5 115.5Q108.2 116.2 108.2 117.3L108.2 117.3L108.2 117.8Q108.2 118.8 107.6 119.5Q106.9 120.2 105.9 120.2Q104.9 120.2 104.2 119.5Q103.5 118.9 103.5 117.8L103.5 117.8ZM104.6 117.2L104.6 117.8Q104.6 118.4 105.0 118.8Q105.3 119.2 105.9 119.2L105.9 119.2Q106.4 119.2 106.8 118.8Q107.1 118.5 107.1 117.8L107.1 117.8L107.1 117.2Q107.1 116.6 106.8 116.2Q106.4 115.8 105.9 115.8L105.9 115.8Q105.3 115.8 105.0 116.2Q104.6 116.6 104.6 117.2L104.6 117.2ZM106.2 110.3L100.7 119.1L99.9 118.6L105.4 109.7L106.2 110.3Z "/></g><mask id="satori_om-id-1-9"><rect x="119" y="105" width="137" height="19" fill="#fff"/></mask><mask id="satori_om-id-1-9-0"><rect x="119" y="107" width="16" height="16" fill="#fff"/></mask><mask id="satori_om-id-1-9-0-0"><rect x="123" y="111" width="8" height="8" fill="#fff"/></mask><path x="123" y="111" width="8" height="8" fill="#e16737" d="M127,111 h0 a4,4 0 0 1 4,4 v0 a4,4 0 0 1 -4,4 h0 a4,4 0 0 1 -4,-4 v0 a4,4 0 0 1 4,-4"/><mask id="satori_om-id-1-9-1"><rect x="148" y="105" width="65" height="19" fill="#fff"/></mask><g  ><path fill="#24292f" d="M149.0 108.6L152.1 108.6L155 116.9L157.9 108.6L161.0 108.6L161.0 120L158.6 120L158.6 116.9L158.9 111.5L155.8 120L154.2 120L151.1 111.5L151.4 116.9L151.4 120L149.0 120L149.0 108.6ZM170.4 120L169.6 117.7L165.5 117.7L164.7 120L162.2 120L166.4 108.6L168.6 108.6L172.9 120L170.4 120ZM167.5 111.5L166.1 115.8L169.0 115.8L167.5 111.5ZM181.6 108.6L181.6 110.5L178.1 110.5L178.1 120L175.7 120L175.7 110.5L172.3 110.5L172.3 108.6L181.6 108.6ZM185.2 108.6L185.2 118.1L190.2 118.1L190.2 120L182.9 120L182.9 108.6L185.2 108.6ZM198.9 120L198.1 117.7L194.0 117.7L193.2 120L190.8 120L195.0 108.6L197.2 108.6L201.4 120L198.9 120ZM196.1 111.5L194.7 115.8L197.5 115.8L196.1 111.5ZM206.9 120L202.5 120L202.5 108.6L206.5 108.6Q208.5 108.6 209.6 109.4Q210.7 110.2 210.7 111.7L210.7 111.7Q210.7 112.6 210.2 113.2Q209.8 113.9 209.0 114.1L209.0 114.1Q209.9 114.4 210.4 115.0Q210.9 115.7 210.9 116.7L210.9 116.7Q210.9 118.3 209.9 119.1Q208.8 120.0 206.9 120L206.9 120ZM207.0 115.0L204.8 115.0L204.8 118.1L206.8 118.1Q207.7 118.1 208.1 117.7Q208.6 117.3 208.6 116.6L208.6 116.6Q208.6 115.1 207.0 115.0L207.0 115.0ZM204.8 110.5L204.8 113.4L206.6 113.4Q208.3 113.4 208.3 112.0L208.3 112.0Q208.3 111.2 207.9 110.9Q207.4 110.5 206.5 110.5L206.5 110.5L204.8 110.5Z "/></g><mask id="satori_om-id-1-9-2"><rect x="222" y="105" width="34" height="19" fill="#fff"/></mask><g  ><path fill="#57606a" d="M230.4 118.8L230.4 120L222.9 120L222.9 119.0L226.9 114.6Q227.8 113.6 228.1 113.0Q228.4 112.4 228.4 111.7L228.4 111.7Q228.4 110.8 227.9 110.2Q227.3 109.7 226.4 109.7L226.4 109.7Q225.4 109.7 224.8 110.3Q224.2 110.9 224.2 112.0L224.2 112.0L222.7 112.0Q222.7 110.4 223.7 109.4Q224.8 108.5 226.4 108.5L226.4 108.5Q228.0 108.5 229.0 109.3Q229.9 110.1 229.9 111.5L229.9 111.5Q229.9 113.2 227.7 115.5L227.7 115.5L224.7 118.8L230.4 118.8ZM232.1 119.2L232.1 119.2Q232.1 118.9 232.3 118.6Q232.6 118.4 233 118.4Q233.4 118.4 233.7 118.6Q233.9 118.9 233.9 119.2L233.9 119.2Q233.9 119.6 233.7 119.8Q233.4 120.1 233 120.1Q232.6 120.1 232.3 119.8Q232.1 119.6 232.1 119.2ZM243.0 111.6L243.0 111.6Q243.0 112.4 242.6 113.1Q242.1 113.8 241.4 114.1L241.4 114.1Q242.3 114.5 242.8 115.3Q243.3 116 243.3 116.9L243.3 116.9Q243.3 118.4 242.3 119.3Q241.3 120.2 239.7 120.2L239.7 120.2Q238.0 120.2 237.1 119.3Q236.1 118.4 236.1 116.9L236.1 116.9Q236.1 116.0 236.6 115.3Q237.1 114.5 238.0 114.1L238.0 114.1Q237.2 113.8 236.8 113.1Q236.3 112.4 236.3 111.6L236.3 111.6Q236.3 110.2 237.3 109.3Q238.2 108.5 239.7 108.5L239.7 108.5Q241.2 108.5 242.1 109.3Q243.0 110.2 243.0 111.6ZM241.9 116.9L241.9 116.9Q241.9 115.9 241.3 115.3Q240.6 114.7 239.7 114.7Q238.7 114.7 238.1 115.3Q237.5 115.9 237.5 116.9Q237.5 117.9 238.1 118.4Q238.7 119.0 239.7 119.0L239.7 119.0Q240.7 119.0 241.3 118.4Q241.9 117.9 241.9 116.9ZM239.7 109.7L239.7 109.7Q238.8 109.7 238.3 110.2Q237.8 110.7 237.8 111.6L237.8 111.6Q237.8 112.5 238.3 113.0Q238.8 113.6 239.7 113.6Q240.6 113.6 241.1 113.0Q241.6 112.5 241.6 111.6Q241.6 110.8 241.1 110.2Q240.5 109.7 239.7 109.7ZM245 111.4L245 110.8Q245 109.8 245.7 109.1Q246.3 108.5 247.3 108.5L247.3 108.5Q248.4 108.5 249.0 109.1Q249.7 109.8 249.7 110.9L249.7 110.9L249.7 111.4Q249.7 112.4 249.0 113.1Q248.4 113.8 247.3 113.8L247.3 113.8Q246.3 113.8 245.7 113.1Q245 112.4 245 111.4L245 111.4ZM246.1 110.8L246.1 111.4Q246.1 112.0 246.4 112.4Q246.8 112.8 247.3 112.8L247.3 112.8Q247.9 112.8 248.2 112.4Q248.6 112.0 248.6 111.4L248.6 111.4L248.6 110.8Q248.6 110.2 248.2 109.8Q247.9 109.4 247.3 109.4Q246.8 109.4 246.4 109.8Q246.1 110.2 246.1 110.8L246.1 110.8ZM250.5 117.8L250.5 117.2Q250.5 116.2 251.2 115.5Q251.8 114.9 252.9 114.9Q253.9 114.9 254.5 115.5Q255.2 116.2 255.2 117.3L255.2 117.3L255.2 117.8Q255.2 118.8 254.6 119.5Q253.9 120.2 252.9 120.2Q251.9 120.2 251.2 119.5Q250.5 118.9 250.5 117.8L250.5 117.8ZM251.6 117.2L251.6 117.8Q251.6 118.4 252.0 118.8Q252.3 119.2 252.9 119.2L252.9 119.2Q253.4 119.2 253.8 118.8Q254.1 118.5 254.1 117.8L254.1 117.8L254.1 117.2Q254.1 116.6 253.8 116.2Q253.4 115.8 252.9 115.8L252.9 115.8Q252.3 115.8 252.0 116.2Q251.6 116.6 251.6 117.2L251.6 117.2ZM253.2 110.3L247.7 119.1L246.9 118.6L252.4 109.7L253.2 110.3Z "/></g></svg>