<svg width="375" height="200" viewBox="0 0 375 200" xmlns="http://www.w3.org/2000/svg"><mask id="satori_om-id"><rect x="0" y="0" width="375" height="152" fill="#fff"/></mask><clipPath id="satori_cp-id-0"><path x="0" y="0" width="375" height="8" d="M4,0 h367 a4,4 0 0 1 4,4 v0 a4,4 0 0 1 -4,4 h-367 a4,4 0 0 1 -4,-4 v0 a4,4 0 0 1 4,-4"/></clipPath><mask id="satori_om-id-0"><rect x="0" y="0" width="375" height="8" fill="#fff"/></mask><mask id="satori_om-id-0-0"><rect x="0" y="0" width="178" height="8" fill="#fff" mask="url(#satori_om-id-0)"/></mask><rect x="0" y="0" width="178" height="8" fill="#3178c6" clip-path="url(#satori_cp-id-0)" mask="url(#satori_om-id-0)"/><mask id="satori_om-id-0-1"><rect x="178" y="0" width="45" height="8" fill="#fff" mask="url(#satori_om-id-0)"/></mask><rect x="178" y="0" width="45" height="8" fill="#844FBA" clip-path="url(#satori_cp-id-0)" mask="url(#satori_om-id-0)"/><mask id="satori_om-id-0-2"><rect x="223" y="0" width="38" height="8" fill="#fff" mask="url(#satori_om-id-0)"/></mask><rect x="223" y="0" width="38" height="8" fill="#DA5B0B" clip-path="url(#satori_cp-id-0)" mask="url(#satori_om-id-0)"/><mask id="satori_om-id-0-3"><rect x="261" y="0" width="27" height="8" fill="#fff" mask="url(#satori_om-id-0)"/></mask><rect x="261" y="0" width="27" height="8" fill="#3572A5" clip-path="url(#satori_cp-id-0)" mask="url(#satori_om-id-0)"/><mask id="satori_om-id-0-4"><rect x="288" y="0" width="19" height="8" fill="#fff" mask="url(#satori_om-id-0)"/></mask><rect x="288" y="0" width="19" height="8" fill="#ff3e00" clip-path="url(#satori_cp-id-0)" mask="url(#satori_om-id-0)"/><mask id="satori_om-id-0-5"><rect x="307" y="0" width="15" height="8" fill="#fff" mask="url(#satori_om-id-0)"/></mask><rect x="307" y="0" width="15" height="8" fill="#e34c26" clip-path="url(#satori_cp-id-0)" mask="url(#satori_om-id-0)"/><mask id="satori_om-id-0-6"><rect x="322" y="0" width="13" height="8" fill="#fff" mask="url(#satori_om-id-0)"/></mask><rect x="322" y="0" width="13" height="8" fill="#f1e05a" clip-path="url(#satori_cp-id-0)" mask="url(#satori_om-id-0)"/><mask id="satori_om-id-0-7"><rect x="335" y="0" width="14" height="8" fill="#fff" mask="url(#satori_om-id-0)"/></mask><rect x="335" y="0" width="14" height="8" fill="#00ADD8" clip-path="url(#satori_cp-id-0)" mask="url(#satori_om-id-0)"/><mask id="satori_om-id-0-8"><rect x="349" y="0" width="12" height="8" fill="#fff" mask="url(#satori_om-id-0)"/></mask><rect x="349" y="0" width="12" height="8" fill="#555555" clip-path="url(#satori_cp-id-0)" mask="url(#satori_om-id-0)"/><mask id="satori_om-id-0-9"><rect x="361" y="0" width="8" height="8" fill="#fff" mask="url(#satori_om-id-0)"/></mask><rect x="361" y="0" width="8" height="8" fill="#ff5a03" clip-path="url(#satori_cp-id-0)" mask="url(#satori_om-id-0)"/><mask id="satori_om-id-1"><rect x="0" y="18" width="375" height="134" fill="#fff"/></mask><mask id="satori_om-id-1-0"><rect x="0" y="18" width="160" height="19" fill="#fff"/></mask><mask id="satori_om-id-1-0-0"><rect x="0" y="19" width="16" height="16" fill="#fff"/></mask><mask id="satori_om-id-1-0-0-0"><rect x="4" y="23" width="8" height="8" fill="#fff"/></mask><path x="4" y="23" width="8" height="8" fill="#3178c6" d="M8,23 h0 a4,4 0 0 1 4,4 v0 a4,4 0 0 1 -4,4 h0 a4,4 0 0 1 -4,-4 v0 a4,4 0 0 1 4,-4"/><mask id="satori_om-id-1-0-1"><rect x="29" y="18" width="79" height="19" fill="#fff"/></mask><path fill="#24292f" d="M38.6 22.1L38.6 24.0L35.1 24.0L35.1 33.5L32.8 33.5L32.8 24.0L29.3 24.0L29.3 22.1L38.6 22.1ZM40.7 25.0L42.3 30.3L43.8 25.0L46.3 25.0L42.9 34.8L42.7 35.2Q41.9 36.9 40.2 36.9L40.2 36.9Q39.7 36.9 39.2 36.7L39.2 36.7L39.2 35.0L39.5 35.0Q40.2 35.0 40.5 34.9Q40.8 34.7 41.0 34.2L41.0 34.2L41.2 33.5L38.3 25.0L40.7 25.0ZM54.8 29.2L54.8 29.3Q54.8 31.3 53.9 32.5Q53.0 33.6 51.5 33.6L51.5 33.6Q50.2 33.6 49.4 32.7L49.4 32.7L49.4 36.7L47.2 36.7L47.2 25.0L49.3 25.0L49.3 25.9Q50.1 24.9 51.5 24.9L51.5 24.9Q53.0 24.9 53.9 26.0Q54.8 27.2 54.8 29.2L54.8 29.2ZM52.5 29.2L52.5 29.2Q52.5 28.0 52.1 27.4Q51.7 26.7 50.9 26.7L50.9 26.7Q49.8 26.7 49.4 27.5L49.4 27.5L49.4 31.0Q49.8 31.8 50.9 31.8L50.9 31.8Q52.5 31.8 52.5 29.2ZM60.1 33.6L60.1 33.6Q58.2 33.6 57.0 32.5Q55.9 31.4 55.9 29.5L55.9 29.5L55.9 29.2Q55.9 28.0 56.4 27.0Q56.8 26.0 57.7 25.4Q58.6 24.9 59.8 24.9L59.8 24.9Q61.5 24.9 62.5 26.0Q63.5 27.1 63.5 29.1L63.5 29.1L63.5 30.0L58.1 30.0Q58.3 30.8 58.8 31.3Q59.4 31.8 60.2 31.8L60.2 31.8Q61.5 31.8 62.2 30.9L62.2 30.9L63.4 32.1Q62.8 32.8 62.0 33.2Q61.1 33.6 60.1 33.6ZM59.8 26.7L59.8 26.7Q59.1 26.7 58.7 27.2Q58.3 27.6 58.2 28.5L58.2 28.5L61.3 28.5L61.3 28.3Q61.3 27.5 60.9 27.1Q60.5 26.7 59.8 26.7ZM70.9 30.5L70.9 30.5Q70.9 29.8 70.4 29.5Q69.9 29.1 68.7 28.7Q67.5 28.3 66.8 28.0L66.8 28.0Q64.8 26.9 64.8 25.1L64.8 25.1Q64.8 24.2 65.4 23.5Q65.9 22.8 66.8 22.4Q67.8 22.0 69.0 22.0L69.0 22.0Q70.3 22.0 71.2 22.4Q72.2 22.8 72.7 23.6Q73.2 24.4 73.2 25.5L73.2 25.5L70.9 25.5Q70.9 24.7 70.4 24.3Q69.9 23.8 69.0 23.8L69.0 23.8Q68.1 23.8 67.7 24.2Q67.2 24.5 67.2 25.1L67.2 25.1Q67.2 25.7 67.7 26.1Q68.3 26.4 69.4 26.8L69.4 26.8Q71.4 27.4 72.3 28.3Q73.2 29.2 73.2 30.5L73.2 30.5Q73.2 32.0 72.1 32.8Q71.0 33.6 69.1 33.6L69.1 33.6Q67.8 33.6 66.7 33.2Q65.6 32.7 65.1 31.8Q64.5 31.0 64.5 29.9L64.5 29.9L66.8 29.9Q66.8 31.8 69.1 31.8L69.1 31.8Q69.9 31.8 70.4 31.4Q70.9 31.1 70.9 30.5ZM78.2 31.8L78.2 31.8Q78.8 31.8 79.2 31.5Q79.6 31.1 79.6 30.6L79.6 30.6L81.7 30.6Q81.7 31.4 81.2 32.1Q80.8 32.9 80.0 33.2Q79.2 33.6 78.2 33.6L78.2 33.6Q76.4 33.6 75.3 32.5Q74.3 31.3 74.3 29.3L74.3 29.3L74.3 29.2Q74.3 27.2 75.3 26.0Q76.4 24.9 78.2 24.9L78.2 24.9Q79.8 24.9 80.7 25.8Q81.7 26.7 81.7 28.2L81.7 28.2L79.6 28.2Q79.6 27.5 79.2 27.1Q78.8 26.7 78.1 26.7L78.1 26.7Q77.4 26.7 77.0 27.3Q76.6 27.9 76.6 29.1L76.6 29.1L76.6 29.4Q76.6 30.7 77.0 31.2Q77.4 31.8 78.2 31.8ZM87.8 25.0L87.7 27.1Q87.3 27.1 86.9 27.1L86.9 27.1Q85.6 27.1 85.3 28.0L85.3 28.0L85.3 33.5L83.0 33.5L83.0 25.0L85.1 25.0L85.2 26.0Q85.9 24.9 87.1 24.9L87.1 24.9Q87.4 24.9 87.8 25.0L87.8 25.0ZM91.2 25.0L91.2 33.5L88.9 33.5L88.9 25.0L91.2 25.0ZM88.8 22.8L88.8 22.8Q88.8 22.3 89.2 22.0Q89.5 21.7 90.1 21.7L90.1 21.7Q90.7 21.7 91 22.0Q91.3 22.3 91.3 22.8L91.3 22.8Q91.3 23.4 91.0 23.7Q90.6 24.0 90.1 24.0Q89.5 24.0 89.2 23.7Q88.8 23.4 88.8 22.8ZM100.7 29.2L100.7 29.3Q100.7 31.3 99.8 32.5Q98.9 33.6 97.4 33.6L97.4 33.6Q96.1 33.6 95.3 32.7L95.3 32.7L95.3 36.7L93.1 36.7L93.1 25.0L95.2 25.0L95.2 25.9Q96.1 24.9 97.4 24.9L97.4 24.9Q98.9 24.9 99.8 26.0Q100.7 27.2 100.7 29.2L100.7 29.2ZM98.4 29.2L98.4 29.2Q98.4 28.0 98.0 27.4Q97.6 26.7 96.8 26.7L96.8 26.7Q95.7 26.7 95.3 27.5L95.3 27.5L95.3 31.0Q95.7 31.8 96.8 31.8L96.8 31.8Q98.4 31.8 98.4 29.2ZM102.5 23.0L104.8 23.0L104.8 25.0L106.2 25.0L106.2 26.7L104.8 26.7L104.8 30.9Q104.8 31.4 105.0 31.6Q105.1 31.8 105.6 31.8L105.6 31.8Q106.0 31.8 106.3 31.7L106.3 31.7L106.3 33.4Q105.6 33.6 104.9 33.6L104.9 33.6Q102.6 33.6 102.5 31.2L102.5 31.2L102.5 26.7L101.3 26.7L101.3 25.0L102.5 25.0L102.5 23.0Z "/><mask id="satori_om-id-1-0-2"><rect x="117" y="18" width="43" height="19" fill="#fff"/></mask><path fill="#57606a" d="M124.0 22.1L124.0 29.7L125.6 29.7L125.6 30.8L124.0 30.8L124.0 33.5L122.6 33.5L122.6 30.8L117.4 30.8L117.4 30.0L122.5 22.1L124.0 22.1ZM122.4 24.4L119.1 29.7L122.6 29.7L122.6 24.1L122.4 24.4ZM134.3 22.1L134.3 22.9L129.6 33.5L128.0 33.5L132.7 23.3L126.6 23.3L126.6 22.1L134.3 22.1ZM136.1 32.7L136.1 32.7Q136.1 32.4 136.3 32.1Q136.5 31.9 137.0 31.9Q137.4 31.9 137.7 32.1Q137.9 32.4 137.9 32.7L137.9 32.7Q137.9 33.1 137.7 33.3Q137.4 33.6 137.0 33.6Q136.5 33.6 136.3 33.3Q136.1 33.1 136.1 32.7ZM146.2 22.1L146.2 29.7L147.8 29.7L147.8 30.8L146.2 30.8L146.2 33.5L144.8 33.5L144.8 30.8L139.6 30.8L139.6 30.0L144.7 22.1L146.2 22.1ZM144.6 24.4L141.2 29.7L144.8 29.7L144.8 24.1L144.6 24.4ZM149.0 24.8L149.0 24.3Q149.0 23.3 149.6 22.6Q150.3 21.9 151.3 21.9L151.3 21.9Q152.4 21.9 153.0 22.6Q153.6 23.3 153.6 24.3L153.6 24.3L153.6 24.9Q153.6 25.9 153.0 26.6Q152.3 27.2 151.3 27.2L151.3 27.2Q150.3 27.2 149.6 26.6Q149.0 25.9 149.0 24.8L149.0 24.8ZM150.1 24.3L150.1 24.9Q150.1 25.5 150.4 25.9Q150.8 26.3 151.3 26.3L151.3 26.3Q151.9 26.3 152.2 25.9Q152.6 25.5 152.6 24.9L152.6 24.9L152.6 24.3Q152.6 23.7 152.2 23.3Q151.9 22.9 151.3 22.9Q150.7 22.9 150.4 23.3Q150.1 23.7 150.1 24.3L150.1 24.3ZM154.5 31.3L154.5 30.7Q154.5 29.7 155.2 29.0Q155.8 28.4 156.9 28.4Q157.9 28.4 158.5 29.0Q159.2 29.7 159.2 30.7L159.2 30.7L159.2 31.3Q159.2 32.3 158.5 33.0Q157.9 33.6 156.9 33.6Q155.9 33.6 155.2 33.0Q154.5 32.3 154.5 31.3L154.5 31.3ZM155.6 30.7L155.6 31.3Q155.6 31.9 155.9 32.3Q156.3 32.7 156.9 32.7L156.9 32.7Q157.4 32.7 157.8 32.3Q158.1 31.9 158.1 31.3L158.1 31.3L158.1 30.7Q158.1 30.1 157.8 29.7Q157.4 29.3 156.9 29.3L156.9 29.3Q156.3 29.3 155.9 29.7Q155.6 30.1 155.6 30.7L155.6 30.7ZM157.2 23.7L151.7 32.6L150.8 32.1L156.4 23.2L157.2 23.7Z "/><mask id="satori_om-id-1-1"><rect x="170" y="18" width="112" height="19" fill="#fff"/></mask><mask id="satori_om-id-1-1-0"><rect x="170" y="19" width="16" height="16" fill="#fff"/></mask><mask id="satori_om-id-1-1-0-0"><rect x="174" y="23" width="8" height="8" fill="#fff"/></mask><path x="174" y="23" width="8" height="8" fill="#844FBA" d="M178,23 h0 a4,4 0 0 1 4,4 v0 a4,4 0 0 1 -4,4 h0 a4,4 0 0 1 -4,-4 v0 a4,4 0 0 1 4,-4"/><mask id="satori_om-id-1-1-1"><rect x="199" y="18" width="31" height="19" fill="#fff"/></mask><path fill="#24292f" d="M209.3 22.1L209.3 33.5L206.9 33.5L206.9 28.6L202.4 28.6L202.4 33.5L200.0 33.5L200.0 22.1L202.4 22.1L202.4 26.7L206.9 26.7L206.9 22.1L209.3 22.1ZM217.9 29.7L220.3 29.7Q220.1 31.5 218.9 32.6Q217.7 33.6 215.7 33.6L215.7 33.6Q213.5 33.6 212.2 32.2Q211.0 30.7 211.0 28.1L211.0 28.1L211.0 27.4Q211.0 25.8 211.6 24.5Q212.1 23.3 213.2 22.6Q214.3 22.0 215.7 22.0L215.7 22.0Q217.7 22.0 218.9 23.0Q220.1 24.1 220.3 26.0L220.3 26.0L217.9 26.0Q217.8 24.9 217.3 24.4Q216.8 23.9 215.7 23.9L215.7 23.9Q214.5 23.9 213.9 24.7Q213.4 25.6 213.4 27.3L213.4 27.3L213.4 28.2Q213.4 30.0 213.9 30.9Q214.5 31.7 215.7 31.7L215.7 31.7Q216.8 31.7 217.3 31.2Q217.8 30.7 217.9 29.7L217.9 29.7ZM224.1 22.1L224.1 31.6L229.1 31.6L229.1 33.5L221.8 33.5L221.8 22.1L224.1 22.1Z "/><mask id="satori_om-id-1-1-2"><rect x="239" y="18" width="43" height="19" fill="#fff"/></mask><path fill="#57606a" d="M244.7 22.1L244.7 33.5L243.2 33.5L243.2 23.9L240.3 24.9L240.3 23.6L244.5 22.1L244.7 22.1ZM253.7 22.1L253.7 33.5L252.2 33.5L252.2 23.9L249.3 24.9L249.3 23.6L253.5 22.1L253.7 22.1ZM258.1 32.7L258.1 32.7Q258.1 32.4 258.3 32.1Q258.5 31.9 259.0 31.9Q259.4 31.9 259.7 32.1Q259.9 32.4 259.9 32.7L259.9 32.7Q259.9 33.1 259.7 33.3Q259.4 33.6 259.0 33.6Q258.5 33.6 258.3 33.3Q258.1 33.1 258.1 32.7ZM267.7 28.5L267.7 28.5Q267.2 29.0 266.6 29.4Q266.0 29.7 265.2 29.7L265.2 29.7Q264.2 29.7 263.5 29.2Q262.8 28.7 262.4 27.8Q262.0 27.0 262.0 25.9L262.0 25.9Q262.0 24.7 262.4 23.8Q262.8 22.9 263.6 22.4Q264.4 22.0 265.5 22.0L265.5 22.0Q267.2 22.0 268.1 23.2Q269.1 24.5 269.1 26.7L269.1 26.7L269.1 27.1Q269.1 30.4 267.8 31.9Q266.5 33.5 263.8 33.5L263.8 33.5L263.6 33.5L263.6 32.3L263.9 32.3Q265.7 32.2 266.6 31.3Q267.6 30.4 267.7 28.5ZM265.4 28.5L265.4 28.5Q266.2 28.5 266.8 28.0Q267.4 27.6 267.7 26.9L267.7 26.9L267.7 26.4Q267.7 24.9 267.1 24.0Q266.4 23.2 265.5 23.2L265.5 23.2Q264.5 23.2 264.0 23.9Q263.4 24.6 263.4 25.8L263.4 25.8Q263.4 27.0 263.9 27.7Q264.5 28.5 265.4 28.5ZM271.0 24.8L271.0 24.3Q271.0 23.3 271.6 22.6Q272.3 21.9 273.3 21.9L273.3 21.9Q274.4 21.9 275.0 22.6Q275.6 23.3 275.6 24.3L275.6 24.3L275.6 24.9Q275.6 25.9 275.0 26.6Q274.3 27.2 273.3 27.2L273.3 27.2Q272.3 27.2 271.6 26.6Q271.0 25.9 271.0 24.8L271.0 24.8ZM272.1 24.3L272.1 24.9Q272.1 25.5 272.4 25.9Q272.8 26.3 273.3 26.3L273.3 26.3Q273.9 26.3 274.2 25.9Q274.6 25.5 274.6 24.9L274.6 24.9L274.6 24.3Q274.6 23.7 274.2 23.3Q273.9 22.9 273.3 22.9Q272.7 22.9 272.4 23.3Q272.1 23.7 272.1 24.3L272.1 24.3ZM276.5 31.3L276.5 30.7Q276.5 29.7 277.2 29.0Q277.8 28.4 278.9 28.4Q279.9 28.4 280.5 29.0Q281.2 29.7 281.2 30.7L281.2 30.7L281.2 31.3Q281.2 32.3 280.5 33.0Q279.9 33.6 278.9 33.6Q277.9 33.6 277.2 33.0Q276.5 32.3 276.5 31.3L276.5 31.3ZM277.6 30.7L277.6 31.3Q277.6 31.9 277.9 32.3Q278.3 32.7 278.9 32.7L278.9 32.7Q279.4 32.7 279.8 32.3Q280.1 31.9 280.1 31.3L280.1 31.3L280.1 30.7Q280.1 30.1 279.8 29.7Q279.4 29.3 278.9 29.3L278.9 29.3Q278.3 29.3 277.9 29.7Q277.6 30.1 277.6 30.7L277.6 30.7ZM279.2 23.7L273.7 32.6L272.8 32.1L278.4 23.2L279.2 23.7Z "/><mask id="satori_om-id-1-2"><rect x="0" y="47" width="210" height="19" fill="#fff"/></mask><mask id="satori_om-id-1-2-0"><rect x="0" y="48" width="16" height="16" fill="#fff"/></mask><mask id="satori_om-id-1-2-0-0"><rect x="4" y="52" width="8" height="8" fill="#fff"/></mask><path x="4" y="52" width="8" height="8" fill="#DA5B0B" d="M8,52 h0 a4,4 0 0 1 4,4 v0 a4,4 0 0 1 -4,4 h0 a4,4 0 0 1 -4,-4 v0 a4,4 0 0 1 4,-4"/><mask id="satori_om-id-1-2-1"><rect x="29" y="47" width="129" height="19" fill="#fff"/></mask><path fill="#24292f" d="M34.6 59.0L34.6 51.1L36.9 51.1L36.9 59.0Q36.9 60.1 36.5 60.9Q36.0 61.7 35.1 62.2Q34.2 62.6 33.1 62.6L33.1 62.6Q31.3 62.6 30.3 61.7Q29.3 60.8 29.3 59.1L29.3 59.1L31.7 59.1Q31.7 60.0 32.0 60.4Q32.4 60.8 33.1 60.8L33.1 60.8Q33.8 60.8 34.2 60.3Q34.6 59.8 34.6 59.0L34.6 59.0ZM43.9 62.5L43.9 61.6Q43.0 62.6 41.6 62.6L41.6 62.6Q40.2 62.6 39.5 61.9Q38.8 61.1 38.8 59.6L38.8 59.6L38.8 54.0L41.0 54.0L41.0 59.5Q41.0 60.8 42.2 60.8L42.2 60.8Q43.4 60.8 43.8 60.0L43.8 60.0L43.8 54.0L46.1 54.0L46.1 62.5L43.9 62.5ZM55.4 58.2L55.4 58.3Q55.4 60.3 54.5 61.5Q53.6 62.6 52.1 62.6L52.1 62.6Q50.8 62.6 50.0 61.7L50.0 61.7L50.0 65.7L47.8 65.7L47.8 54.0L49.9 54.0L49.9 54.9Q50.8 53.9 52.1 53.9L52.1 53.9Q53.6 53.9 54.5 55.0Q55.4 56.2 55.4 58.2L55.4 58.2ZM53.1 58.2L53.1 58.2Q53.1 57.0 52.7 56.4Q52.3 55.7 51.5 55.7L51.5 55.7Q50.4 55.7 50.0 56.5L50.0 56.5L50.0 60.0Q50.4 60.8 51.5 60.8L51.5 60.8Q53.1 60.8 53.1 58.2ZM58.3 54.0L59.8 59.3L61.4 54.0L63.8 54.0L60.4 63.8L60.2 64.2Q59.5 65.9 57.7 65.9L57.7 65.9Q57.2 65.9 56.7 65.7L56.7 65.7L56.7 64.0L57.1 64.0Q57.7 64.0 58.0 63.9Q58.4 63.7 58.5 63.2L58.5 63.2L58.8 62.5L55.8 54.0L58.3 54.0ZM65.2 52.0L67.4 52.0L67.4 54.0L68.9 54.0L68.9 55.7L67.4 55.7L67.4 59.9Q67.4 60.4 67.6 60.6Q67.8 60.8 68.3 60.8L68.3 60.8Q68.7 60.8 68.9 60.7L68.9 60.7L68.9 62.4Q68.3 62.6 67.6 62.6L67.6 62.6Q65.2 62.6 65.2 60.2L65.2 60.2L65.2 55.7L63.9 55.7L63.9 54.0L65.2 54.0L65.2 52.0ZM74.0 62.6L74.0 62.6Q72.1 62.6 71.0 61.5Q69.8 60.4 69.8 58.5L69.8 58.5L69.8 58.2Q69.8 57.0 70.3 56.0Q70.8 55.0 71.7 54.4Q72.6 53.9 73.8 53.9L73.8 53.9Q75.5 53.9 76.5 55.0Q77.5 56.1 77.5 58.1L77.5 58.1L77.5 59.0L72.1 59.0Q72.2 59.8 72.8 60.3Q73.3 60.8 74.2 60.8L74.2 60.8Q75.5 60.8 76.2 59.9L76.2 59.9L77.3 61.1Q76.8 61.8 75.9 62.2Q75.1 62.6 74.0 62.6ZM73.8 55.7L73.8 55.7Q73.1 55.7 72.7 56.2Q72.2 56.6 72.1 57.5L72.1 57.5L75.3 57.5L75.3 57.3Q75.3 56.5 74.9 56.1Q74.5 55.7 73.8 55.7ZM83.5 54.0L83.5 56.1Q83.1 56.1 82.7 56.1L82.7 56.1Q81.4 56.1 81.0 57.0L81.0 57.0L81.0 62.5L78.8 62.5L78.8 54.0L80.9 54.0L81.0 55.0Q81.6 53.9 82.8 53.9L82.8 53.9Q83.2 53.9 83.5 54.0L83.5 54.0Z M98.1 51.1L98.1 62.5L95.7 62.5L91.2 55.0L91.2 62.5L88.8 62.5L88.8 51.1L91.2 51.1L95.7 58.6L95.7 51.1L98.1 51.1ZM99.6 58.3L99.6 58.2Q99.6 56.9 100.1 55.9Q100.6 55.0 101.5 54.4Q102.4 53.9 103.6 53.9L103.6 53.9Q105.3 53.9 106.4 54.9Q107.5 56.0 107.6 57.8L107.6 57.8L107.6 58.3Q107.6 60.3 106.5 61.5Q105.5 62.6 103.6 62.6Q101.8 62.6 100.7 61.5Q99.6 60.3 99.6 58.3L99.6 58.3ZM101.9 58.3L101.9 58.3Q101.9 59.5 102.3 60.2Q102.8 60.8 103.6 60.8L103.6 60.8Q104.4 60.8 104.9 60.2Q105.4 59.6 105.4 58.2L105.4 58.2Q105.4 57.0 104.9 56.4Q104.4 55.7 103.6 55.7L103.6 55.7Q102.8 55.7 102.3 56.3Q101.9 57.0 101.9 58.3ZM109.5 52.0L111.7 52.0L111.7 54.0L113.2 54.0L113.2 55.7L111.7 55.7L111.7 59.9Q111.7 60.4 111.9 60.6Q112.1 60.8 112.6 60.8L112.6 60.8Q113.0 60.8 113.3 60.7L113.3 60.7L113.3 62.4Q112.6 62.6 111.9 62.6L111.9 62.6Q109.5 62.6 109.5 60.2L109.5 60.2L109.5 55.7L108.2 55.7L108.2 54.0L109.5 54.0L109.5 52.0ZM118.3 62.6L118.3 62.6Q116.5 62.6 115.3 61.5Q114.1 60.4 114.1 58.5L114.1 58.5L114.1 58.2Q114.1 57.0 114.6 56.0Q115.1 55.0 116.0 54.4Q116.9 53.9 118.1 53.9L118.1 53.9Q119.8 53.9 120.8 55.0Q121.8 56.1 121.8 58.1L121.8 58.1L121.8 59.0L116.4 59.0Q116.5 59.8 117.1 60.3Q117.6 60.8 118.5 60.8L118.5 60.8Q119.8 60.8 120.5 59.9L120.5 59.9L121.6 61.1Q121.1 61.8 120.2 62.2Q119.4 62.6 118.3 62.6ZM118.1 55.7L118.1 55.7Q117.4 55.7 117.0 56.2Q116.5 56.6 116.4 57.5L116.4 57.5L119.6 57.5L119.6 57.3Q119.6 56.5 119.2 56.1Q118.8 55.7 118.1 55.7ZM130.7 58.2L130.7 58.3Q130.7 60.4 129.8 61.5Q129.0 62.6 127.4 62.6L127.4 62.6Q126.0 62.6 125.2 61.6L125.2 61.6L125.1 62.5L123.1 62.5L123.1 50.5L125.3 50.5L125.3 54.8Q126.1 53.9 127.4 53.9L127.4 53.9Q128.9 53.9 129.8 55.0Q130.7 56.1 130.7 58.2L130.7 58.2ZM128.4 58.2L128.4 58.2Q128.4 56.9 128.0 56.3Q127.6 55.7 126.8 55.7L126.8 55.7Q125.7 55.7 125.3 56.6L125.3 56.6L125.3 59.9Q125.7 60.8 126.8 60.8L126.8 60.8Q127.9 60.8 128.3 59.7L128.3 59.7Q128.4 59.2 128.4 58.2ZM131.7 58.3L131.7 58.2Q131.7 56.9 132.2 55.9Q132.7 55.0 133.6 54.4Q134.5 53.9 135.7 53.9L135.7 53.9Q137.4 53.9 138.5 54.9Q139.6 56.0 139.7 57.8L139.7 57.8L139.7 58.3Q139.7 60.3 138.6 61.5Q137.6 62.6 135.7 62.6Q133.9 62.6 132.8 61.5Q131.7 60.3 131.7 58.3L131.7 58.3ZM134.0 58.3L134.0 58.3Q134.0 59.5 134.4 60.2Q134.9 60.8 135.7 60.8L135.7 60.8Q136.6 60.8 137.0 60.2Q137.5 59.6 137.5 58.2L137.5 58.2Q137.5 57.0 137.0 56.4Q136.6 55.7 135.7 55.7L135.7 55.7Q134.9 55.7 134.4 56.3Q134.0 57.0 134.0 58.3ZM140.8 58.3L140.8 58.2Q140.8 56.9 141.3 55.9Q141.7 55.0 142.7 54.4Q143.6 53.9 144.8 53.9L144.8 53.9Q146.5 53.9 147.6 54.9Q148.6 56.0 148.8 57.8L148.8 57.8L148.8 58.3Q148.8 60.3 147.7 61.5Q146.6 62.6 144.8 62.6Q143.0 62.6 141.9 61.5Q140.8 60.3 140.8 58.3L140.8 58.3ZM143.0 58.3L143.0 58.3Q143.0 59.5 143.5 60.2Q143.9 60.8 144.8 60.8L144.8 60.8Q145.6 60.8 146.1 60.2Q146.5 59.6 146.5 58.2L146.5 58.2Q146.5 57.0 146.1 56.4Q145.6 55.7 144.8 55.7L144.8 55.7Q143.9 55.7 143.5 56.3Q143.0 57.0 143.0 58.3ZM155.4 62.5L153.2 59.1L152.4 59.9L152.4 62.5L150.2 62.5L150.2 50.5L152.4 50.5L152.4 57.1L152.9 56.6L155.0 54.0L157.7 54.0L154.7 57.6L158.0 62.5L155.4 62.5Z "/><mask id="satori_om-id-1-2-2"><rect x="167" y="47" width="43" height="19" fill="#fff"/></mask><path fill="#57606a" d="M172.7 51.1L172.7 62.5L171.2 62.5L171.2 52.9L168.3 53.9L168.3 52.6L172.5 51.1L172.7 51.1ZM184.1 55.8L184.1 57.6Q184.1 60.2 183.2 61.4Q182.3 62.6 180.5 62.6L180.5 62.6Q178.7 62.6 177.8 61.4Q176.9 60.2 176.9 57.8L176.9 57.8L176.9 55.9Q176.9 53.4 177.8 52.2Q178.6 51.0 180.5 51.0L180.5 51.0Q182.3 51.0 183.2 52.1Q184.0 53.3 184.1 55.8L184.1 55.8ZM182.6 58.0L182.6 55.7Q182.6 53.8 182.1 53.0Q181.6 52.1 180.5 52.1L180.5 52.1Q179.4 52.1 178.9 53.0Q178.3 53.8 178.3 55.5L178.3 55.5L178.3 57.9Q178.3 59.7 178.9 60.6Q179.4 61.5 180.5 61.5L180.5 61.5Q181.6 61.5 182.1 60.6Q182.6 59.8 182.6 58.0L182.6 58.0ZM186.1 61.7L186.1 61.7Q186.1 61.4 186.3 61.1Q186.5 60.9 187.0 60.9Q187.4 60.9 187.7 61.1Q187.9 61.4 187.9 61.7L187.9 61.7Q187.9 62.1 187.7 62.3Q187.4 62.6 187.0 62.6Q186.5 62.6 186.3 62.3Q186.1 62.1 186.1 61.7ZM197.6 61.3L197.6 62.5L190.1 62.5L190.1 61.4L194.1 57.1Q194.9 56.1 195.3 55.5Q195.6 54.8 195.6 54.2L195.6 54.2Q195.6 53.3 195.1 52.7Q194.5 52.1 193.6 52.1L193.6 52.1Q192.5 52.1 191.9 52.8Q191.4 53.4 191.4 54.5L191.4 54.5L189.9 54.5Q189.9 52.9 190.9 51.9Q191.9 51.0 193.6 51.0L193.6 51.0Q195.2 51.0 196.1 51.8Q197.1 52.6 197.1 54.0L197.1 54.0Q197.1 55.7 194.9 58.0L194.9 58.0L191.9 61.3L197.6 61.3ZM199.0 53.8L199.0 53.3Q199.0 52.3 199.6 51.6Q200.3 50.9 201.3 50.9L201.3 50.9Q202.4 50.9 203.0 51.6Q203.6 52.3 203.6 53.3L203.6 53.3L203.6 53.9Q203.6 54.9 203.0 55.6Q202.3 56.2 201.3 56.2L201.3 56.2Q200.3 56.2 199.6 55.6Q199.0 54.9 199.0 53.8L199.0 53.8ZM200.1 53.3L200.1 53.9Q200.1 54.5 200.4 54.9Q200.8 55.3 201.3 55.3L201.3 55.3Q201.9 55.3 202.2 54.9Q202.6 54.5 202.6 53.9L202.6 53.9L202.6 53.3Q202.6 52.7 202.2 52.3Q201.9 51.9 201.3 51.9Q200.7 51.9 200.4 52.3Q200.1 52.7 200.1 53.3L200.1 53.3ZM204.5 60.3L204.5 59.7Q204.5 58.7 205.2 58.0Q205.8 57.4 206.9 57.4Q207.9 57.4 208.5 58.0Q209.2 58.7 209.2 59.7L209.2 59.7L209.2 60.3Q209.2 61.3 208.5 62.0Q207.9 62.6 206.9 62.6Q205.9 62.6 205.2 62.0Q204.5 61.3 204.5 60.3L204.5 60.3ZM205.6 59.7L205.6 60.3Q205.6 60.9 205.9 61.3Q206.3 61.7 206.9 61.7L206.9 61.7Q207.4 61.7 207.8 61.3Q208.1 60.9 208.1 60.3L208.1 60.3L208.1 59.7Q208.1 59.1 207.8 58.7Q207.4 58.3 206.9 58.3L206.9 58.3Q206.3 58.3 205.9 58.7Q205.6 59.1 205.6 59.7L205.6 59.7ZM207.2 52.7L201.7 61.6L200.8 61.1L206.4 52.2L207.2 52.7Z "/><mask id="satori_om-id-1-3"><rect x="220" y="47" width="123" height="19" fill="#fff"/></mask><mask id="satori_om-id-1-3-0"><rect x="220" y="48" width="16" height="16" fill="#fff"/></mask><mask id="satori_om-id-1-3-0-0"><rect x="224" y="52" width="8" height="8" fill="#fff"/></mask><path x="224" y="52" width="8" height="8" fill="#3572A5" d="M228,52 h0 a4,4 0 0 1 4,4 v0 a4,4 0 0 1 -4,4 h0 a4,4 0 0 1 -4,-4 v0 a4,4 0 0 1 4,-4"/><mask id="satori_om-id-1-3-1"><rect x="249" y="47" width="51" height="19" fill="#fff"/></mask><path fill="#24292f" d="M254.4 58.5L252.4 58.5L252.4 62.5L250.0 62.5L250.0 51.1L254.5 51.1Q255.7 51.1 256.7 51.6Q257.7 52.0 258.2 52.9Q258.7 53.8 258.7 54.9L258.7 54.9Q258.7 56.5 257.6 57.5Q256.4 58.5 254.4 58.5L254.4 58.5ZM252.4 53.0L252.4 56.6L254.5 56.6Q255.4 56.6 255.9 56.1Q256.4 55.7 256.4 54.9L256.4 54.9Q256.4 54.1 255.9 53.5Q255.4 53.0 254.5 53.0L254.5 53.0L252.4 53.0ZM261.9 54.0L263.5 59.3L265.0 54.0L267.4 54.0L264.0 63.8L263.9 64.2Q263.1 65.9 261.4 65.9L261.4 65.9Q260.9 65.9 260.4 65.7L260.4 65.7L260.4 64.0L260.7 64.0Q261.3 64.0 261.7 63.9Q262.0 63.7 262.2 63.2L262.2 63.2L262.4 62.5L259.5 54.0L261.9 54.0ZM268.8 52.0L271.0 52.0L271.0 54.0L272.5 54.0L272.5 55.7L271.0 55.7L271.0 59.9Q271.0 60.4 271.2 60.6Q271.4 60.8 271.9 60.8L271.9 60.8Q272.3 60.8 272.6 60.7L272.6 60.7L272.6 62.4Q271.9 62.6 271.2 62.6L271.2 62.6Q268.8 62.6 268.8 60.2L268.8 60.2L268.8 55.7L267.5 55.7L267.5 54.0L268.8 54.0L268.8 52.0ZM275.9 50.5L275.9 55.0Q276.8 53.9 278.2 53.9L278.2 53.9Q281.0 53.9 281.0 57.1L281.0 57.1L281.0 62.5L278.7 62.5L278.7 57.1Q278.7 56.4 278.4 56.1Q278.1 55.7 277.4 55.7L277.4 55.7Q276.4 55.7 275.9 56.5L275.9 56.5L275.9 62.5L273.7 62.5L273.7 50.5L275.9 50.5ZM282.3 58.3L282.3 58.2Q282.3 56.9 282.8 55.9Q283.3 55.0 284.2 54.4Q285.1 53.9 286.3 53.9L286.3 53.9Q288.0 53.9 289.1 54.9Q290.2 56.0 290.3 57.8L290.3 57.8L290.4 58.3Q290.4 60.3 289.3 61.5Q288.2 62.6 286.4 62.6Q284.5 62.6 283.4 61.5Q282.3 60.3 282.3 58.3L282.3 58.3ZM284.6 58.3L284.6 58.3Q284.6 59.5 285.1 60.2Q285.5 60.8 286.4 60.8L286.4 60.8Q287.2 60.8 287.6 60.2Q288.1 59.6 288.1 58.2L288.1 58.2Q288.1 57.0 287.6 56.4Q287.2 55.7 286.3 55.7L286.3 55.7Q285.5 55.7 285.1 56.3Q284.6 57.0 284.6 58.3ZM291.7 54.0L293.8 54.0L293.9 55.0Q294.8 53.9 296.3 53.9L296.3 53.9Q297.7 53.9 298.3 54.7Q299.0 55.5 299.0 57.0L299.0 57.0L299.0 62.5L296.7 62.5L296.7 57.1Q296.7 56.4 296.4 56.0Q296.1 55.7 295.4 55.7L295.4 55.7Q294.4 55.7 294.0 56.5L294.0 56.5L294.0 62.5L291.7 62.5L291.7 54.0Z "/><mask id="satori_om-id-1-3-2"><rect x="309" y="47" width="34" height="19" fill="#fff"/></mask><path fill="#57606a" d="M317.3 51.1L317.3 51.9L312.6 62.5L311.1 62.5L315.8 52.3L309.6 52.3L309.6 51.1L317.3 51.1ZM319.1 61.7L319.1 61.7Q319.1 61.4 319.3 61.1Q319.6 60.9 320 60.9Q320.4 60.9 320.7 61.1Q320.9 61.4 320.9 61.7L320.9 61.7Q320.9 62.1 320.7 62.3Q320.4 62.6 320 62.6Q319.6 62.6 319.3 62.3Q319.1 62.1 319.1 61.7ZM327.9 51.1L327.9 62.5L326.4 62.5L326.4 52.9L323.5 53.9L323.5 52.6L327.7 51.1L327.9 51.1ZM332 53.8L332 53.3Q332 52.3 332.7 51.6Q333.3 50.9 334.3 50.9L334.3 50.9Q335.4 50.9 336.0 51.6Q336.7 52.3 336.7 53.3L336.7 53.3L336.7 53.9Q336.7 54.9 336.0 55.6Q335.4 56.2 334.3 56.2L334.3 56.2Q333.3 56.2 332.7 55.6Q332 54.9 332 53.8L332 53.8ZM333.1 53.3L333.1 53.9Q333.1 54.5 333.4 54.9Q333.8 55.3 334.3 55.3L334.3 55.3Q334.9 55.3 335.2 54.9Q335.6 54.5 335.6 53.9L335.6 53.9L335.6 53.3Q335.6 52.7 335.2 52.3Q334.9 51.9 334.3 51.9Q333.8 51.9 333.4 52.3Q333.1 52.7 333.1 53.3L333.1 53.3ZM337.5 60.3L337.5 59.7Q337.5 58.7 338.2 58.0Q338.8 57.4 339.9 57.4Q340.9 57.4 341.5 58.0Q342.2 58.7 342.2 59.7L342.2 59.7L342.2 60.3Q342.2 61.3 341.6 62.0Q340.9 62.6 339.9 62.6Q338.9 62.6 338.2 62.0Q337.5 61.3 337.5 60.3L337.5 60.3ZM338.6 59.7L338.6 60.3Q338.6 60.9 339.0 61.3Q339.3 61.7 339.9 61.7L339.9 61.7Q340.4 61.7 340.8 61.3Q341.1 60.9 341.1 60.3L341.1 60.3L341.1 59.7Q341.1 59.1 340.8 58.7Q340.4 58.3 339.9 58.3L339.9 58.3Q339.3 58.3 339.0 58.7Q338.6 59.1 338.6 59.7L338.6 59.7ZM340.2 52.7L334.7 61.6L333.9 61.1L339.4 52.2L340.2 52.7Z "/><mask id="satori_om-id-1-4"><rect x="0" y="76" width="117" height="18" fill="#fff"/></mask><mask id="satori_om-id-1-4-0"><rect x="0" y="77" width="16" height="16" fill="#fff"/></mask><mask id="satori_om-id-1-4-0-0"><rect x="4" y="81" width="8" height="8" fill="#fff"/></mask><path x="4" y="81" width="8" height="8" fill="#ff3e00" d="M8,81 h0 a4,4 0 0 1 4,4 v0 a4,4 0 0 1 -4,4 h0 a4,4 0 0 1 -4,-4 v0 a4,4 0 0 1 4,-4"/><mask id="satori_om-id-1-4-1"><rect x="29" y="76" width="45" height="18" fill="#fff"/></mask><path fill="#24292f" d="M35.9 88.5L35.9 88.5Q35.9 87.8 35.4 87.5Q35.0 87.1 33.8 86.7Q32.5 86.3 31.8 86.0L31.8 86.0Q29.9 84.9 29.9 83.1L29.9 83.1Q29.9 82.2 30.4 81.5Q30.9 80.8 31.9 80.4Q32.9 80.0 34.1 80.0L34.1 80.0Q35.3 80.0 36.3 80.4Q37.2 80.8 37.7 81.6Q38.3 82.4 38.3 83.5L38.3 83.5L35.9 83.5Q35.9 82.7 35.4 82.3Q34.9 81.8 34.0 81.8L34.0 81.8Q33.2 81.8 32.7 82.2Q32.2 82.5 32.2 83.1L32.2 83.1Q32.2 83.7 32.8 84.1Q33.4 84.4 34.4 84.8L34.4 84.8Q36.4 85.4 37.4 86.3Q38.3 87.2 38.3 88.5L38.3 88.5Q38.3 90.0 37.1 90.8Q36.0 91.6 34.1 91.6L34.1 91.6Q32.8 91.6 31.8 91.2Q30.7 90.7 30.1 89.8Q29.5 89.0 29.5 87.9L29.5 87.9L31.9 87.9Q31.9 89.8 34.1 89.8L34.1 89.8Q35.0 89.8 35.4 89.4Q35.9 89.1 35.9 88.5ZM41.3 83.0L42.9 88.7L44.4 83.0L46.8 83.0L43.9 91.5L41.8 91.5L38.9 83.0L41.3 83.0ZM51.6 91.6L51.6 91.6Q49.7 91.6 48.6 90.5Q47.4 89.4 47.4 87.5L47.4 87.5L47.4 87.2Q47.4 86.0 47.9 85.0Q48.4 84.0 49.3 83.4Q50.2 82.9 51.3 82.9L51.3 82.9Q53.1 82.9 54.1 84.0Q55.1 85.1 55.1 87.1L55.1 87.1L55.1 88.0L49.7 88.0Q49.8 88.8 50.3 89.3Q50.9 89.8 51.7 89.8L51.7 89.8Q53.0 89.8 53.8 88.9L53.8 88.9L54.9 90.1Q54.4 90.8 53.5 91.2Q52.6 91.6 51.6 91.6ZM51.3 84.7L51.3 84.7Q50.6 84.7 50.2 85.2Q49.8 85.6 49.7 86.5L49.7 86.5L52.8 86.5L52.8 86.3Q52.8 85.5 52.4 85.1Q52.0 84.7 51.3 84.7ZM58.7 79.5L58.7 91.5L56.5 91.5L56.5 79.5L58.7 79.5ZM61.0 81.0L63.3 81.0L63.3 83.0L64.7 83.0L64.7 84.7L63.3 84.7L63.3 88.9Q63.3 89.4 63.5 89.6Q63.6 89.8 64.1 89.8L64.1 89.8Q64.5 89.8 64.8 89.7L64.8 89.7L64.8 91.4Q64.1 91.6 63.4 91.6L63.4 91.6Q61.1 91.6 61.0 89.2L61.0 89.2L61.0 84.7L59.8 84.7L59.8 83.0L61.0 83.0L61.0 81.0ZM69.9 91.6L69.9 91.6Q68.0 91.6 66.8 90.5Q65.7 89.4 65.7 87.5L65.7 87.5L65.7 87.2Q65.7 86.0 66.2 85.0Q66.7 84.0 67.6 83.4Q68.5 82.9 69.6 82.9L69.6 82.9Q71.4 82.9 72.4 84.0Q73.4 85.1 73.4 87.1L73.4 87.1L73.4 88.0L68.0 88.0Q68.1 88.8 68.6 89.3Q69.2 89.8 70.0 89.8L70.0 89.8Q71.3 89.8 72.1 88.9L72.1 88.9L73.2 90.1Q72.7 90.8 71.8 91.2Q70.9 91.6 69.9 91.6ZM69.6 84.7L69.6 84.7Q68.9 84.7 68.5 85.2Q68.1 85.6 68.0 86.5L68.0 86.5L71.1 86.5L71.1 86.3Q71.1 85.5 70.7 85.1Q70.3 84.7 69.6 84.7Z "/><mask id="satori_om-id-1-4-2"><rect x="83" y="76" width="34" height="18" fill="#fff"/></mask><path fill="#57606a" d="M85.8 86.1L84.6 85.8L85.2 80.1L91.0 80.1L91.0 81.4L86.4 81.4L86.1 84.5Q86.9 84.1 88.0 84.1L88.0 84.1Q89.5 84.1 90.4 85.1Q91.4 86.1 91.4 87.9L91.4 87.9Q91.4 89.6 90.4 90.6Q89.5 91.6 87.8 91.6L87.8 91.6Q86.2 91.6 85.3 90.8Q84.3 90.0 84.2 88.5L84.2 88.5L85.6 88.5Q85.7 89.5 86.3 90.0Q86.8 90.5 87.8 90.5L87.8 90.5Q88.8 90.5 89.3 89.8Q89.9 89.1 89.9 87.9L89.9 87.9Q89.9 86.7 89.3 86.0Q88.7 85.4 87.6 85.4L87.6 85.4Q86.7 85.4 86.1 85.8L86.1 85.8L85.8 86.1ZM93.1 90.7L93.1 90.7Q93.1 90.4 93.3 90.1Q93.6 89.9 94 89.9Q94.4 89.9 94.7 90.1Q94.9 90.4 94.9 90.7L94.9 90.7Q94.9 91.1 94.7 91.3Q94.4 91.6 94 91.6Q93.6 91.6 93.3 91.3Q93.1 91.1 93.1 90.7ZM101.9 80.1L101.9 91.5L100.4 91.5L100.4 81.9L97.5 82.9L97.5 81.6L101.7 80.1L101.9 80.1ZM106 82.8L106 82.3Q106 81.3 106.7 80.6Q107.3 79.9 108.3 79.9L108.3 79.9Q109.4 79.9 110.0 80.6Q110.7 81.3 110.7 82.3L110.7 82.3L110.7 82.9Q110.7 83.9 110.0 84.6Q109.4 85.2 108.3 85.2L108.3 85.2Q107.3 85.2 106.7 84.6Q106 83.9 106 82.8L106 82.8ZM107.1 82.3L107.1 82.9Q107.1 83.5 107.4 83.9Q107.8 84.3 108.3 84.3L108.3 84.3Q108.9 84.3 109.2 83.9Q109.6 83.5 109.6 82.9L109.6 82.9L109.6 82.3Q109.6 81.7 109.2 81.3Q108.9 80.9 108.3 80.9Q107.8 80.9 107.4 81.3Q107.1 81.7 107.1 82.3L107.1 82.3ZM111.5 89.3L111.5 88.7Q111.5 87.7 112.2 87.0Q112.8 86.4 113.9 86.4Q114.9 86.4 115.5 87.0Q116.2 87.7 116.2 88.7L116.2 88.7L116.2 89.3Q116.2 90.3 115.6 91.0Q114.9 91.6 113.9 91.6Q112.9 91.6 112.2 91.0Q111.5 90.3 111.5 89.3L111.5 89.3ZM112.6 88.7L112.6 89.3Q112.6 89.9 113.0 90.3Q113.3 90.7 113.9 90.7L113.9 90.7Q114.4 90.7 114.8 90.3Q115.1 89.9 115.1 89.3L115.1 89.3L115.1 88.7Q115.1 88.1 114.8 87.7Q114.4 87.3 113.9 87.3L113.9 87.3Q113.3 87.3 113.0 87.7Q112.6 88.1 112.6 88.7L112.6 88.7ZM114.2 81.7L108.7 90.6L107.9 90.1L113.4 81.2L114.2 81.7Z "/><mask id="satori_om-id-1-5"><rect x="127" y="76" width="116" height="18" fill="#fff"/></mask><mask id="satori_om-id-1-5-0"><rect x="127" y="77" width="16" height="16" fill="#fff"/></mask><mask id="satori_om-id-1-5-0-0"><rect x="131" y="81" width="8" height="8" fill="#fff"/></mask><path x="131" y="81" width="8" height="8" fill="#e34c26" d="M135,81 h0 a4,4 0 0 1 4,4 v0 a4,4 0 0 1 -4,4 h0 a4,4 0 0 1 -4,-4 v0 a4,4 0 0 1 4,-4"/><mask id="satori_om-id-1-5-1"><rect x="156" y="76" width="44" height="18" fill="#fff"/></mask><path fill="#24292f" d="M166.3 80.1L166.3 91.5L163.9 91.5L163.9 86.6L159.4 86.6L159.4 91.5L157.0 91.5L157.0 80.1L159.4 80.1L159.4 84.7L163.9 84.7L163.9 80.1L166.3 80.1ZM176.7 80.1L176.7 82.0L173.2 82.0L173.2 91.5L170.8 91.5L170.8 82.0L167.4 82.0L167.4 80.1L176.7 80.1ZM178.0 80.1L181.1 80.1L184.0 88.4L186.9 80.1L190.0 80.1L190.0 91.5L187.6 91.5L187.6 88.4L187.8 83.0L184.8 91.5L183.2 91.5L180.1 83.0L180.3 88.4L180.3 91.5L178.0 91.5L178.0 80.1ZM194.4 80.1L194.4 89.6L199.3 89.6L199.3 91.5L192.0 91.5L192.0 80.1L194.4 80.1Z "/><mask id="satori_om-id-1-5-2"><rect x="209" y="76" width="34" height="18" fill="#fff"/></mask><path fill="#57606a" d="M212.0 86.3L212.0 85.1L213.1 85.1Q214.2 85.1 214.7 84.6Q215.3 84.0 215.3 83.1L215.3 83.1Q215.3 81.1 213.3 81.1L213.3 81.1Q212.4 81.1 211.8 81.7Q211.3 82.2 211.3 83.1L211.3 83.1L209.8 83.1Q209.8 81.7 210.8 80.8Q211.8 80.0 213.3 80.0L213.3 80.0Q214.9 80.0 215.9 80.8Q216.8 81.7 216.8 83.2L216.8 83.2Q216.8 83.9 216.3 84.6Q215.8 85.3 215.0 85.6L215.0 85.6Q215.9 85.9 216.4 86.6Q216.9 87.3 216.9 88.3L216.9 88.3Q216.9 89.8 215.9 90.7Q214.9 91.6 213.3 91.6Q211.7 91.6 210.7 90.8Q209.7 89.9 209.7 88.5L209.7 88.5L211.2 88.5Q211.2 89.4 211.8 89.9Q212.4 90.5 213.3 90.5L213.3 90.5Q214.4 90.5 214.9 89.9Q215.5 89.4 215.5 88.3L215.5 88.3Q215.5 87.4 214.9 86.8Q214.3 86.3 213.1 86.3L213.1 86.3L212.0 86.3ZM219.1 90.7L219.1 90.7Q219.1 90.4 219.3 90.1Q219.6 89.9 220 89.9Q220.4 89.9 220.7 90.1Q220.9 90.4 220.9 90.7L220.9 90.7Q220.9 91.1 220.7 91.3Q220.4 91.6 220 91.6Q219.6 91.6 219.3 91.3Q219.1 91.1 219.1 90.7ZM228.7 86.5L228.7 86.5Q228.2 87.0 227.6 87.4Q227.0 87.7 226.2 87.7L226.2 87.7Q225.2 87.7 224.5 87.2Q223.8 86.7 223.4 85.8Q223.0 85.0 223.0 83.9L223.0 83.9Q223.0 82.7 223.4 81.8Q223.8 80.9 224.6 80.4Q225.4 80.0 226.5 80.0L226.5 80.0Q228.2 80.0 229.2 81.2Q230.1 82.5 230.1 84.7L230.1 84.7L230.1 85.1Q230.1 88.4 228.8 89.9Q227.5 91.5 224.9 91.5L224.9 91.5L224.6 91.5L224.6 90.3L224.9 90.3Q226.7 90.2 227.6 89.3Q228.6 88.4 228.7 86.5ZM226.5 86.5L226.5 86.5Q227.2 86.5 227.8 86.0Q228.4 85.6 228.7 84.9L228.7 84.9L228.7 84.4Q228.7 82.9 228.1 82.0Q227.5 81.2 226.5 81.2L226.5 81.2Q225.6 81.2 225.0 81.9Q224.4 82.6 224.4 83.8L224.4 83.8Q224.4 85.0 225.0 85.7Q225.5 86.5 226.5 86.5ZM232 82.8L232 82.3Q232 81.3 232.7 80.6Q233.3 79.9 234.3 79.9L234.3 79.9Q235.4 79.9 236.0 80.6Q236.7 81.3 236.7 82.3L236.7 82.3L236.7 82.9Q236.7 83.9 236.0 84.6Q235.4 85.2 234.3 85.2L234.3 85.2Q233.3 85.2 232.7 84.6Q232 83.9 232 82.8L232 82.8ZM233.1 82.3L233.1 82.9Q233.1 83.5 233.4 83.9Q233.8 84.3 234.3 84.3L234.3 84.3Q234.9 84.3 235.2 83.9Q235.6 83.5 235.6 82.9L235.6 82.9L235.6 82.3Q235.6 81.7 235.2 81.3Q234.9 80.9 234.3 80.9Q233.8 80.9 233.4 81.3Q233.1 81.7 233.1 82.3L233.1 82.3ZM237.5 89.3L237.5 88.7Q237.5 87.7 238.2 87.0Q238.8 86.4 239.9 86.4Q240.9 86.4 241.5 87.0Q242.2 87.7 242.2 88.7L242.2 88.7L242.2 89.3Q242.2 90.3 241.6 91.0Q240.9 91.6 239.9 91.6Q238.9 91.6 238.2 91.0Q237.5 90.3 237.5 89.3L237.5 89.3ZM238.6 88.7L238.6 89.3Q238.6 89.9 239.0 90.3Q239.3 90.7 239.9 90.7L239.9 90.7Q240.4 90.7 240.8 90.3Q241.1 89.9 241.1 89.3L241.1 89.3L241.1 88.7Q241.1 88.1 240.8 87.7Q240.4 87.3 239.9 87.3L239.9 87.3Q239.3 87.3 239.0 87.7Q238.6 88.1 238.6 88.7L238.6 88.7ZM240.2 81.7L234.7 90.6L233.9 90.1L239.4 81.2L240.2 81.7Z "/><mask id="satori_om-id-1-6"><rect x="0" y="104" width="149" height="19" fill="#fff"/></mask><mask id="satori_om-id-1-6-0"><rect x="0" y="105" width="16" height="16" fill="#fff"/></mask><mask id="satori_om-id-1-6-0-0"><rect x="4" y="109" width="8" height="8" fill="#fff"/></mask><path x="4" y="109" width="8" height="8" fill="#f1e05a" d="M8,109 h0 a4,4 0 0 1 4,4 v0 a4,4 0 0 1 -4,4 h0 a4,4 0 0 1 -4,-4 v0 a4,4 0 0 1 4,-4"/><mask id="satori_om-id-1-6-1"><rect x="29" y="104" width="77" height="19" fill="#fff"/></mask><path fill="#24292f" d="M34.6 116.0L34.6 108.1L36.9 108.1L36.9 116.0Q36.9 117.1 36.5 117.9Q36.0 118.7 35.1 119.2Q34.2 119.6 33.1 119.6L33.1 119.6Q31.3 119.6 30.3 118.7Q29.3 117.8 29.3 116.1L29.3 116.1L31.7 116.1Q31.7 117.0 32.0 117.4Q32.4 117.8 33.1 117.8L33.1 117.8Q33.8 117.8 34.2 117.3Q34.6 116.8 34.6 116.0L34.6 116.0ZM46.0 119.5L43.7 119.5Q43.5 119.2 43.5 118.7L43.5 118.7Q42.7 119.6 41.3 119.6L41.3 119.6Q40.1 119.6 39.3 118.9Q38.5 118.2 38.5 117.1L38.5 117.1Q38.5 115.8 39.5 115.0Q40.5 114.3 42.3 114.3L42.3 114.3L43.4 114.3L43.4 113.8Q43.4 113.2 43.1 112.9Q42.8 112.5 42.1 112.5L42.1 112.5Q41.6 112.5 41.2 112.8Q40.9 113.1 40.9 113.6L40.9 113.6L38.7 113.6Q38.7 112.8 39.1 112.2Q39.6 111.6 40.4 111.2Q41.2 110.9 42.3 110.9L42.3 110.9Q43.8 110.9 44.7 111.7Q45.6 112.4 45.6 113.9L45.6 113.9L45.6 117.5Q45.7 118.7 46.0 119.4L46.0 119.4L46.0 119.5ZM41.8 117.9L41.8 117.9Q42.3 117.9 42.8 117.7Q43.2 117.5 43.4 117.1L43.4 117.1L43.4 115.6L42.5 115.6Q40.8 115.6 40.7 116.8L40.7 116.8L40.7 116.9Q40.7 117.4 41.0 117.6Q41.3 117.9 41.8 117.9ZM48.9 111.0L50.4 116.7L52 111.0L54.4 111.0L51.5 119.5L49.4 119.5L46.5 111.0L48.9 111.0ZM62.4 119.5L60.1 119.5Q60.0 119.2 59.9 118.7L59.9 118.7Q59.1 119.6 57.8 119.6L57.8 119.6Q56.5 119.6 55.7 118.9Q54.9 118.2 54.9 117.1L54.9 117.1Q54.9 115.8 55.9 115.0Q56.9 114.3 58.8 114.3L58.8 114.3L59.8 114.3L59.8 113.8Q59.8 113.2 59.5 112.9Q59.2 112.5 58.6 112.5L58.6 112.5Q58.0 112.5 57.7 112.8Q57.3 113.1 57.3 113.6L57.3 113.6L55.1 113.6Q55.1 112.8 55.5 112.2Q56.0 111.6 56.8 111.2Q57.6 110.9 58.7 110.9L58.7 110.9Q60.2 110.9 61.2 111.7Q62.1 112.4 62.1 113.9L62.1 113.9L62.1 117.5Q62.1 118.7 62.4 119.4L62.4 119.4L62.4 119.5ZM58.3 117.9L58.3 117.9Q58.8 117.9 59.2 117.7Q59.6 117.5 59.8 117.1L59.8 117.1L59.8 115.6L59.0 115.6Q57.3 115.6 57.2 116.8L57.2 116.8L57.2 116.9Q57.2 117.4 57.5 117.6Q57.8 117.9 58.3 117.9ZM69.9 116.5L69.9 116.5Q69.9 115.8 69.4 115.5Q68.9 115.1 67.7 114.7Q66.5 114.3 65.8 114.0L65.8 114.0Q63.8 112.9 63.8 111.1L63.8 111.1Q63.8 110.2 64.4 109.5Q64.9 108.8 65.8 108.4Q66.8 108.0 68.0 108.0L68.0 108.0Q69.3 108.0 70.2 108.4Q71.2 108.8 71.7 109.6Q72.2 110.4 72.2 111.5L72.2 111.5L69.9 111.5Q69.9 110.7 69.4 110.3Q68.9 109.8 68.0 109.8L68.0 109.8Q67.1 109.8 66.7 110.2Q66.2 110.5 66.2 111.1L66.2 111.1Q66.2 111.7 66.7 112.1Q67.3 112.4 68.4 112.8L68.4 112.8Q70.4 113.4 71.3 114.3Q72.2 115.2 72.2 116.5L72.2 116.5Q72.2 118.0 71.1 118.8Q70.0 119.6 68.1 119.6L68.1 119.6Q66.8 119.6 65.7 119.2Q64.6 118.7 64.1 117.8Q63.5 117.0 63.5 115.9L63.5 115.9L65.8 115.9Q65.8 117.8 68.1 117.8L68.1 117.8Q68.9 117.8 69.4 117.4Q69.9 117.1 69.9 116.5ZM77.2 117.8L77.2 117.8Q77.8 117.8 78.2 117.5Q78.6 117.1 78.6 116.6L78.6 116.6L80.7 116.6Q80.7 117.4 80.2 118.1Q79.8 118.9 79.0 119.2Q78.2 119.6 77.2 119.6L77.2 119.6Q75.4 119.6 74.3 118.5Q73.3 117.3 73.3 115.3L73.3 115.3L73.3 115.2Q73.3 113.2 74.3 112.0Q75.4 110.9 77.2 110.9L77.2 110.9Q78.8 110.9 79.7 111.8Q80.7 112.7 80.7 114.2L80.7 114.2L78.6 114.2Q78.6 113.5 78.2 113.1Q77.8 112.7 77.1 112.7L77.1 112.7Q76.4 112.7 76.0 113.3Q75.6 113.9 75.6 115.1L75.6 115.1L75.6 115.4Q75.6 116.7 76.0 117.2Q76.4 117.8 77.2 117.8ZM86.8 111.0L86.7 113.1Q86.3 113.1 85.9 113.1L85.9 113.1Q84.6 113.1 84.3 114.0L84.3 114.0L84.3 119.5L82.0 119.5L82.0 111.0L84.1 111.0L84.2 112.0Q84.9 110.9 86.1 110.9L86.1 110.9Q86.4 110.9 86.8 111.0L86.8 111.0ZM90.2 111.0L90.2 119.5L87.9 119.5L87.9 111.0L90.2 111.0ZM87.8 108.8L87.8 108.8Q87.8 108.3 88.2 108.0Q88.5 107.7 89.1 107.7L89.1 107.7Q89.7 107.7 90 108.0Q90.3 108.3 90.3 108.8L90.3 108.8Q90.3 109.4 90.0 109.7Q89.6 110.0 89.1 110.0Q88.5 110.0 88.2 109.7Q87.8 109.4 87.8 108.8ZM99.7 115.2L99.7 115.3Q99.7 117.3 98.8 118.5Q97.9 119.6 96.4 119.6L96.4 119.6Q95.1 119.6 94.3 118.7L94.3 118.7L94.3 122.7L92.1 122.7L92.1 111.0L94.2 111.0L94.2 111.9Q95.1 110.9 96.4 110.9L96.4 110.9Q97.9 110.9 98.8 112.0Q99.7 113.2 99.7 115.2L99.7 115.2ZM97.4 115.2L97.4 115.2Q97.4 114.0 97.0 113.4Q96.6 112.7 95.8 112.7L95.8 112.7Q94.7 112.7 94.3 113.5L94.3 113.5L94.3 117.0Q94.7 117.8 95.8 117.8L95.8 117.8Q97.4 117.8 97.4 115.2ZM101.5 109.0L103.8 109.0L103.8 111.0L105.2 111.0L105.2 112.7L103.8 112.7L103.8 116.9Q103.8 117.4 104.0 117.6Q104.1 117.8 104.6 117.8L104.6 117.8Q105.0 117.8 105.3 117.7L105.3 117.7L105.3 119.4Q104.6 119.6 103.9 119.6L103.9 119.6Q101.6 119.6 101.5 117.2L101.5 117.2L101.5 112.7L100.3 112.7L100.3 111.0L101.5 111.0L101.5 109.0Z "/><mask id="satori_om-id-1-6-2"><rect x="115" y="104" width="34" height="19" fill="#fff"/></mask><path fill="#57606a" d="M118.0 114.3L118.0 113.1L119.1 113.1Q120.2 113.1 120.7 112.6Q121.3 112.0 121.3 111.1L121.3 111.1Q121.3 109.1 119.3 109.1L119.3 109.1Q118.4 109.1 117.8 109.7Q117.3 110.2 117.3 111.1L117.3 111.1L115.8 111.1Q115.8 109.7 116.8 108.8Q117.8 108.0 119.3 108.0L119.3 108.0Q120.9 108.0 121.9 108.8Q122.8 109.7 122.8 111.2L122.8 111.2Q122.8 111.9 122.3 112.6Q121.8 113.3 121.0 113.6L121.0 113.6Q121.9 113.9 122.4 114.6Q122.9 115.3 122.9 116.3L122.9 116.3Q122.9 117.8 121.9 118.7Q120.9 119.6 119.3 119.6Q117.7 119.6 116.7 118.8Q115.7 117.9 115.7 116.5L115.7 116.5L117.2 116.5Q117.2 117.4 117.8 117.9Q118.4 118.5 119.3 118.5L119.3 118.5Q120.4 118.5 120.9 117.9Q121.5 117.4 121.5 116.3L121.5 116.3Q121.5 115.4 120.9 114.8Q120.3 114.3 119.1 114.3L119.1 114.3L118.0 114.3ZM125.1 118.7L125.1 118.7Q125.1 118.4 125.3 118.1Q125.6 117.9 126 117.9Q126.4 117.9 126.7 118.1Q126.9 118.4 126.9 118.7L126.9 118.7Q126.9 119.1 126.7 119.3Q126.4 119.6 126 119.6Q125.6 119.6 125.3 119.3Q125.1 119.1 125.1 118.7ZM136.5 108.1L136.5 108.9L131.8 119.5L130.3 119.5L135.0 109.3L128.8 109.3L128.8 108.1L136.5 108.1ZM138 110.8L138 110.3Q138 109.3 138.7 108.6Q139.3 107.9 140.3 107.9L140.3 107.9Q141.4 107.9 142.0 108.6Q142.7 109.3 142.7 110.3L142.7 110.3L142.7 110.9Q142.7 111.9 142.0 112.6Q141.4 113.2 140.3 113.2L140.3 113.2Q139.3 113.2 138.7 112.6Q138 111.9 138 110.8L138 110.8ZM139.1 110.3L139.1 110.9Q139.1 111.5 139.4 111.9Q139.8 112.3 140.3 112.3L140.3 112.3Q140.9 112.3 141.2 111.9Q141.6 111.5 141.6 110.9L141.6 110.9L141.6 110.3Q141.6 109.7 141.2 109.3Q140.9 108.9 140.3 108.9Q139.8 108.9 139.4 109.3Q139.1 109.7 139.1 110.3L139.1 110.3ZM143.5 117.3L143.5 116.7Q143.5 115.7 144.2 115.0Q144.8 114.4 145.9 114.4Q146.9 114.4 147.5 115.0Q148.2 115.7 148.2 116.7L148.2 116.7L148.2 117.3Q148.2 118.3 147.6 119.0Q146.9 119.6 145.9 119.6Q144.9 119.6 144.2 119.0Q143.5 118.3 143.5 117.3L143.5 117.3ZM144.6 116.7L144.6 117.3Q144.6 117.9 145.0 118.3Q145.3 118.7 145.9 118.7L145.9 118.7Q146.4 118.7 146.8 118.3Q147.1 117.9 147.1 117.3L147.1 117.3L147.1 116.7Q147.1 116.1 146.8 115.7Q146.4 115.3 145.9 115.3L145.9 115.3Q145.3 115.3 145.0 115.7Q144.6 116.1 144.6 116.7L144.6 116.7ZM146.2 109.7L140.7 118.6L139.9 118.1L145.4 109.2L146.2 109.7Z "/><mask id="satori_om-id-1-7"><rect x="159" y="104" width="92" height="19" fill="#fff"/></mask><mask id="satori_om-id-1-7-0"><rect x="159" y="105" width="16" height="16" fill="#fff"/></mask><mask id="satori_om-id-1-7-0-0"><rect x="163" y="109" width="8" height="8" fill="#fff"/></mask><path x="163" y="109" width="8" height="8" fill="#00ADD8" d="M167,109 h0 a4,4 0 0 1 4,4 v0 a4,4 0 0 1 -4,4 h0 a4,4 0 0 1 -4,-4 v0 a4,4 0 0 1 4,-4"/><mask id="satori_om-id-1-7-1"><rect x="188" y="104" width="20" height="19" fill="#fff"/></mask><path fill="#24292f" d="M198.0 113.5L198.0 118.0Q197.4 118.8 196.2 119.2Q195.1 119.6 193.7 119.6L193.7 119.6Q192.2 119.6 191.1 119.0Q190.0 118.4 189.4 117.1Q188.8 115.9 188.7 114.2L188.7 114.2L188.7 113.5Q188.7 111.8 189.3 110.5Q189.9 109.3 191.0 108.6Q192.0 108.0 193.5 108.0L193.5 108.0Q195.5 108.0 196.7 108.9Q197.8 109.9 198.0 111.7L198.0 111.7L195.7 111.7Q195.6 110.7 195.0 110.3Q194.5 109.8 193.6 109.8L193.6 109.8Q192.4 109.8 191.8 110.7Q191.1 111.6 191.1 113.4L191.1 113.4L191.1 114.1Q191.1 115.9 191.8 116.8Q192.5 117.8 193.8 117.8L193.8 117.8Q195.1 117.8 195.7 117.2L195.7 117.2L195.7 115.2L193.5 115.2L193.5 113.5L198.0 113.5ZM199.4 115.3L199.4 115.2Q199.4 113.9 199.9 112.9Q200.4 112.0 201.3 111.4Q202.2 110.9 203.4 110.9L203.4 110.9Q205.1 110.9 206.2 111.9Q207.3 113.0 207.4 114.8L207.4 114.8L207.4 115.3Q207.4 117.3 206.3 118.5Q205.3 119.6 203.4 119.6Q201.6 119.6 200.5 118.5Q199.4 117.3 199.4 115.3L199.4 115.3ZM201.7 115.3L201.7 115.3Q201.7 116.5 202.1 117.2Q202.6 117.8 203.4 117.8L203.4 117.8Q204.2 117.8 204.7 117.2Q205.2 116.6 205.2 115.2L205.2 115.2Q205.2 114.0 204.7 113.4Q204.2 112.7 203.4 112.7L203.4 112.7Q202.6 112.7 202.1 113.3Q201.7 114.0 201.7 115.3Z "/><mask id="satori_om-id-1-7-2"><rect x="217" y="104" width="34" height="19" fill="#fff"/></mask><path fill="#57606a" d="M220.0 114.3L220.0 113.1L221.1 113.1Q222.2 113.1 222.7 112.6Q223.3 112.0 223.3 111.1L223.3 111.1Q223.3 109.1 221.3 109.1L221.3 109.1Q220.4 109.1 219.8 109.7Q219.3 110.2 219.3 111.1L219.3 111.1L217.8 111.1Q217.8 109.7 218.8 108.8Q219.8 108.0 221.3 108.0L221.3 108.0Q222.9 108.0 223.9 108.8Q224.8 109.7 224.8 111.2L224.8 111.2Q224.8 111.9 224.3 112.6Q223.8 113.3 223.0 113.6L223.0 113.6Q223.9 113.9 224.4 114.6Q224.9 115.3 224.9 116.3L224.9 116.3Q224.9 117.8 223.9 118.7Q222.9 119.6 221.3 119.6Q219.7 119.6 218.7 118.8Q217.7 117.9 217.7 116.5L217.7 116.5L219.2 116.5Q219.2 117.4 219.8 117.9Q220.4 118.5 221.3 118.5L221.3 118.5Q222.4 118.5 222.9 117.9Q223.5 117.4 223.5 116.3L223.5 116.3Q223.5 115.4 222.9 114.8Q222.3 114.3 221.1 114.3L221.1 114.3L220.0 114.3ZM227.1 118.7L227.1 118.7Q227.1 118.4 227.3 118.1Q227.6 117.9 228 117.9Q228.4 117.9 228.7 118.1Q228.9 118.4 228.9 118.7L228.9 118.7Q228.9 119.1 228.7 119.3Q228.4 119.6 228 119.6Q227.6 119.6 227.3 119.3Q227.1 119.1 227.1 118.7ZM233.0 114.1L231.8 113.8L232.4 108.1L238.2 108.1L238.2 109.4L233.6 109.4L233.3 112.5Q234.1 112.1 235.2 112.1L235.2 112.1Q236.7 112.1 237.6 113.1Q238.5 114.1 238.5 115.9L238.5 115.9Q238.5 117.6 237.6 118.6Q236.6 119.6 234.9 119.6L234.9 119.6Q233.4 119.6 232.5 118.8Q231.5 118.0 231.4 116.5L231.4 116.5L232.8 116.5Q232.9 117.5 233.5 118.0Q234.0 118.5 234.9 118.5L234.9 118.5Q236.0 118.5 236.5 117.8Q237.1 117.1 237.1 115.9L237.1 115.9Q237.1 114.7 236.5 114.0Q235.9 113.4 234.8 113.4L234.8 113.4Q233.9 113.4 233.3 113.8L233.3 113.8L233.0 114.1ZM240 110.8L240 110.3Q240 109.3 240.7 108.6Q241.3 107.9 242.3 107.9L242.3 107.9Q243.4 107.9 244.0 108.6Q244.7 109.3 244.7 110.3L244.7 110.3L244.7 110.9Q244.7 111.9 244.0 112.6Q243.4 113.2 242.3 113.2L242.3 113.2Q241.3 113.2 240.7 112.6Q240 111.9 240 110.8L240 110.8ZM241.1 110.3L241.1 110.9Q241.1 111.5 241.4 111.9Q241.8 112.3 242.3 112.3L242.3 112.3Q242.9 112.3 243.2 111.9Q243.6 111.5 243.6 110.9L243.6 110.9L243.6 110.3Q243.6 109.7 243.2 109.3Q242.9 108.9 242.3 108.9Q241.8 108.9 241.4 109.3Q241.1 109.7 241.1 110.3L241.1 110.3ZM245.5 117.3L245.5 116.7Q245.5 115.7 246.2 115.0Q246.8 114.4 247.9 114.4Q248.9 114.4 249.5 115.0Q250.2 115.7 250.2 116.7L250.2 116.7L250.2 117.3Q250.2 118.3 249.6 119.0Q248.9 119.6 247.9 119.6Q246.9 119.6 246.2 119.0Q245.5 118.3 245.5 117.3L245.5 117.3ZM246.6 116.7L246.6 117.3Q246.6 117.9 247.0 118.3Q247.3 118.7 247.9 118.7L247.9 118.7Q248.4 118.7 248.8 118.3Q249.1 117.9 249.1 117.3L249.1 117.3L249.1 116.7Q249.1 116.1 248.8 115.7Q248.4 115.3 247.9 115.3L247.9 115.3Q247.3 115.3 247.0 115.7Q246.6 116.1 246.6 116.7L246.6 116.7ZM248.2 109.7L242.7 118.6L241.9 118.1L247.4 109.2L248.2 109.7Z "/><mask id="satori_om-id-1-8"><rect x="261" y="104" width="83" height="19" fill="#fff"/></mask><mask id="satori_om-id-1-8-0"><rect x="261" y="105" width="16" height="16" fill="#fff"/></mask><mask id="satori_om-id-1-8-0-0"><rect x="265" y="109" width="8" height="8" fill="#fff"/></mask><path x="265" y="109" width="8" height="8" fill="#555555" d="M269,109 h0 a4,4 0 0 1 4,4 v0 a4,4 0 0 1 -4,4 h0 a4,4 0 0 1 -4,-4 v0 a4,4 0 0 1 4,-4"/><mask id="satori_om-id-1-8-1"><rect x="290" y="104" width="11" height="19" fill="#fff"/></mask><path fill="#24292f" d="M297.6 115.7L299.9 115.7Q299.8 117.5 298.6 118.6Q297.4 119.6 295.4 119.6L295.4 119.6Q293.2 119.6 291.9 118.2Q290.7 116.7 290.7 114.1L290.7 114.1L290.7 113.4Q290.7 111.8 291.3 110.5Q291.8 109.3 292.9 108.6Q294.0 108.0 295.4 108.0L295.4 108.0Q297.4 108.0 298.6 109.0Q299.8 110.1 300.0 112.0L300.0 112.0L297.6 112.0Q297.5 110.9 297.0 110.4Q296.5 109.9 295.4 109.9L295.4 109.9Q294.2 109.9 293.6 110.7Q293.1 111.6 293.0 113.3L293.0 113.3L293.0 114.2Q293.0 116.0 293.6 116.9Q294.2 117.7 295.4 117.7L295.4 117.7Q296.5 117.7 297.0 117.2Q297.5 116.7 297.6 115.7L297.6 115.7Z "/><mask id="satori_om-id-1-8-2"><rect x="310" y="104" width="34" height="19" fill="#fff"/></mask><path fill="#57606a" d="M313.0 114.3L313.0 113.1L314.1 113.1Q315.2 113.1 315.7 112.6Q316.3 112.0 316.3 111.1L316.3 111.1Q316.3 109.1 314.3 109.1L314.3 109.1Q313.4 109.1 312.8 109.7Q312.3 110.2 312.3 111.1L312.3 111.1L310.8 111.1Q310.8 109.7 311.8 108.8Q312.8 108.0 314.3 108.0L314.3 108.0Q315.9 108.0 316.9 108.8Q317.8 109.7 317.8 111.2L317.8 111.2Q317.8 111.9 317.3 112.6Q316.8 113.3 316.0 113.6L316.0 113.6Q316.9 113.9 317.4 114.6Q317.9 115.3 317.9 116.3L317.9 116.3Q317.9 117.8 316.9 118.7Q315.9 119.6 314.3 119.6Q312.7 119.6 311.7 118.8Q310.7 117.9 310.7 116.5L310.7 116.5L312.2 116.5Q312.2 117.4 312.8 117.9Q313.4 118.5 314.3 118.5L314.3 118.5Q315.4 118.5 315.9 117.9Q316.5 117.4 316.5 116.3L316.5 116.3Q316.5 115.4 315.9 114.8Q315.3 114.3 314.1 114.3L314.1 114.3L313.0 114.3ZM320.1 118.7L320.1 118.7Q320.1 118.4 320.3 118.1Q320.6 117.9 321 117.9Q321.4 117.9 321.7 118.1Q321.9 118.4 321.9 118.7L321.9 118.7Q321.9 119.1 321.7 119.3Q321.4 119.6 321 119.6Q320.6 119.6 320.3 119.3Q320.1 119.1 320.1 118.7ZM331.6 118.3L331.6 119.5L324.1 119.5L324.1 118.4L328.1 114.1Q329.0 113.1 329.3 112.5Q329.6 111.8 329.6 111.2L329.6 111.2Q329.6 110.3 329.1 109.7Q328.5 109.1 327.6 109.1L327.6 109.1Q326.6 109.1 326.0 109.8Q325.4 110.4 325.4 111.5L325.4 111.5L323.9 111.5Q323.9 109.9 324.9 108.9Q325.9 108.0 327.6 108.0L327.6 108.0Q329.2 108.0 330.1 108.8Q331.1 109.6 331.1 111.0L331.1 111.0Q331.1 112.7 328.9 115.0L328.9 115.0L325.9 118.3L331.6 118.3ZM333 110.8L333 110.3Q333 109.3 333.7 108.6Q334.3 107.9 335.3 107.9L335.3 107.9Q336.4 107.9 337.0 108.6Q337.7 109.3 337.7 110.3L337.7 110.3L337.7 110.9Q337.7 111.9 337.0 112.6Q336.4 113.2 335.3 113.2L335.3 113.2Q334.3 113.2 333.7 112.6Q333 111.9 333 110.8L333 110.8ZM334.1 110.3L334.1 110.9Q334.1 111.5 334.4 111.9Q334.8 112.3 335.3 112.3L335.3 112.3Q335.9 112.3 336.2 111.9Q336.6 111.5 336.6 110.9L336.6 110.9L336.6 110.3Q336.6 109.7 336.2 109.3Q335.9 108.9 335.3 108.9Q334.8 108.9 334.4 109.3Q334.1 109.7 334.1 110.3L334.1 110.3ZM338.5 117.3L338.5 116.7Q338.5 115.7 339.2 115.0Q339.8 114.4 340.9 114.4Q341.9 114.4 342.5 115.0Q343.2 115.7 343.2 116.7L343.2 116.7L343.2 117.3Q343.2 118.3 342.6 119.0Q341.9 119.6 340.9 119.6Q339.9 119.6 339.2 119.0Q338.5 118.3 338.5 117.3L338.5 117.3ZM339.6 116.7L339.6 117.3Q339.6 117.9 340.0 118.3Q340.3 118.7 340.9 118.7L340.9 118.7Q341.4 118.7 341.8 118.3Q342.1 117.9 342.1 117.3L342.1 117.3L342.1 116.7Q342.1 116.1 341.8 115.7Q341.4 115.3 340.9 115.3L340.9 115.3Q340.3 115.3 340.0 115.7Q339.6 116.1 339.6 116.7L339.6 116.7ZM341.2 109.7L335.7 118.6L334.9 118.1L340.4 109.2L341.2 109.7Z "/><mask id="satori_om-id-1-9"><rect x="0" y="133" width="112" height="19" fill="#fff"/></mask><mask id="satori_om-id-1-9-0"><rect x="0" y="134" width="16" height="16" fill="#fff"/></mask><mask id="satori_om-id-1-9-0-0"><rect x="4" y="138" width="8" height="8" fill="#fff"/></mask><path x="4" y="138" width="8" height="8" fill="#ff5a03" d="M8,138 h0 a4,4 0 0 1 4,4 v0 a4,4 0 0 1 -4,4 h0 a4,4 0 0 1 -4,-4 v0 a4,4 0 0 1 4,-4"/><mask id="satori_om-id-1-9-1"><rect x="29" y="133" width="40" height="19" fill="#fff"/></mask><path fill="#24292f" d="M37.2 148.5L36.4 146.1L32.3 146.1L31.5 148.5L29.1 148.5L33.3 137.1L35.5 137.1L39.7 148.5L37.2 148.5ZM34.4 140.0L33.0 144.2L35.8 144.2L34.4 140.0ZM45.2 146.1L45.2 146.1Q45.2 145.7 44.8 145.5Q44.4 145.3 43.5 145.1L43.5 145.1Q40.5 144.4 40.5 142.5L40.5 142.5Q40.5 141.4 41.4 140.6Q42.3 139.9 43.8 139.9L43.8 139.9Q45.5 139.9 46.4 140.6Q47.4 141.4 47.4 142.6L47.4 142.6L45.1 142.6Q45.1 142.1 44.8 141.8Q44.5 141.5 43.8 141.5L43.8 141.5Q43.3 141.5 43.0 141.7Q42.6 142.0 42.6 142.4L42.6 142.4Q42.6 142.8 43.0 143.0Q43.4 143.2 44.2 143.4Q45.0 143.6 45.6 143.8L45.6 143.8Q47.4 144.4 47.4 146.1L47.4 146.1Q47.4 147.2 46.4 147.9Q45.4 148.6 43.9 148.6L43.9 148.6Q42.8 148.6 42.0 148.3Q41.1 147.9 40.7 147.2Q40.2 146.6 40.2 145.8L40.2 145.8L42.3 145.8Q42.4 146.4 42.8 146.7Q43.2 147.0 43.9 147.0L43.9 147.0Q44.5 147.0 44.9 146.8Q45.2 146.5 45.2 146.1ZM49.3 138.0L51.6 138.0L51.6 140.0L53.0 140.0L53.0 141.7L51.6 141.7L51.6 145.9Q51.6 146.4 51.7 146.6Q51.9 146.8 52.4 146.8L52.4 146.8Q52.8 146.8 53.1 146.7L53.1 146.7L53.1 148.4Q52.4 148.6 51.7 148.6L51.7 148.6Q49.4 148.6 49.3 146.2L49.3 146.2L49.3 141.7L48.1 141.7L48.1 140.0L49.3 140.0L49.3 138.0ZM59.0 140.0L59.0 142.1Q58.6 142.1 58.2 142.1L58.2 142.1Q56.9 142.1 56.5 143.0L56.5 143.0L56.5 148.5L54.3 148.5L54.3 140.0L56.4 140.0L56.5 141.0Q57.1 139.9 58.3 139.9L58.3 139.9Q58.7 139.9 59.0 140.0L59.0 140.0ZM59.5 144.3L59.5 144.2Q59.5 142.9 60.0 141.9Q60.4 141.0 61.3 140.4Q62.3 139.9 63.5 139.9L63.5 139.9Q65.2 139.9 66.3 140.9Q67.3 142.0 67.5 143.8L67.5 143.8L67.5 144.3Q67.5 146.3 66.4 147.5Q65.3 148.6 63.5 148.6Q61.6 148.6 60.6 147.5Q59.5 146.3 59.5 144.3L59.5 144.3ZM61.7 144.3L61.7 144.3Q61.7 145.5 62.2 146.2Q62.6 146.8 63.5 146.8L63.5 146.8Q64.3 146.8 64.8 146.2Q65.2 145.6 65.2 144.2L65.2 144.2Q65.2 143.0 64.8 142.4Q64.3 141.7 63.5 141.7L63.5 141.7Q62.6 141.7 62.2 142.3Q61.7 143.0 61.7 144.3Z "/><mask id="satori_om-id-1-9-2"><rect x="78" y="133" width="34" height="19" fill="#fff"/></mask><path fill="#57606a" d="M86.4 147.3L86.4 148.5L78.9 148.5L78.9 147.4L82.9 143.1Q83.8 142.1 84.1 141.5Q84.4 140.8 84.4 140.2L84.4 140.2Q84.4 139.3 83.9 138.7Q83.3 138.1 82.4 138.1L82.4 138.1Q81.4 138.1 80.8 138.8Q80.2 139.4 80.2 140.5L80.2 140.5L78.7 140.5Q78.7 138.9 79.7 137.9Q80.8 137.0 82.4 137.0L82.4 137.0Q84.0 137.0 85.0 137.8Q85.9 138.6 85.9 140.0L85.9 140.0Q85.9 141.7 83.7 144.0L83.7 144.0L80.7 147.3L86.4 147.3ZM88.1 147.7L88.1 147.7Q88.1 147.4 88.3 147.1Q88.6 146.9 89 146.9Q89.4 146.9 89.7 147.1Q89.9 147.4 89.9 147.7L89.9 147.7Q89.9 148.1 89.7 148.3Q89.4 148.6 89 148.6Q88.6 148.6 88.3 148.3Q88.1 148.1 88.1 147.7ZM99.6 147.3L99.6 148.5L92.1 148.5L92.1 147.4L96.1 143.1Q97.0 142.1 97.3 141.5Q97.6 140.8 97.6 140.2L97.6 140.2Q97.6 139.3 97.1 138.7Q96.5 138.1 95.6 138.1L95.6 138.1Q94.6 138.1 94.0 138.8Q93.4 139.4 93.4 140.5L93.4 140.5L91.9 140.5Q91.9 138.9 92.9 137.9Q93.9 137.0 95.6 137.0L95.6 137.0Q97.2 137.0 98.1 137.8Q99.1 138.6 99.1 140.0L99.1 140.0Q99.1 141.7 96.9 144.0L96.9 144.0L93.9 147.3L99.6 147.3ZM101 139.8L101 139.3Q101 138.3 101.7 137.6Q102.3 136.9 103.3 136.9L103.3 136.9Q104.4 136.9 105.0 137.6Q105.7 138.3 105.7 139.3L105.7 139.3L105.7 139.9Q105.7 140.9 105.0 141.6Q104.4 142.2 103.3 142.2L103.3 142.2Q102.3 142.2 101.7 141.6Q101 140.9 101 139.8L101 139.8ZM102.1 139.3L102.1 139.9Q102.1 140.5 102.4 140.9Q102.8 141.3 103.3 141.3L103.3 141.3Q103.9 141.3 104.2 140.9Q104.6 140.5 104.6 139.9L104.6 139.9L104.6 139.3Q104.6 138.7 104.2 138.3Q103.9 137.9 103.3 137.9Q102.8 137.9 102.4 138.3Q102.1 138.7 102.1 139.3L102.1 139.3ZM106.5 146.3L106.5 145.7Q106.5 144.7 107.2 144.0Q107.8 143.4 108.9 143.4Q109.9 143.4 110.5 144.0Q111.2 144.7 111.2 145.7L111.2 145.7L111.2 146.3Q111.2 147.3 110.6 148.0Q109.9 148.6 108.9 148.6Q107.9 148.6 107.2 148.0Q106.5 147.3 106.5 146.3L106.5 146.3ZM107.6 145.7L107.6 146.3Q107.6 146.9 108.0 147.3Q108.3 147.7 108.9 147.7L108.9 147.7Q109.4 147.7 109.8 147.3Q110.1 146.9 110.1 146.3L110.1 146.3L110.1 145.7Q110.1 145.1 109.8 144.7Q109.4 144.3 108.9 144.3L108.9 144.3Q108.3 144.3 108.0 144.7Q107.6 145.1 107.6 145.7L107.6 145.7ZM109.2 138.7L103.7 147.6L102.9 147.1L108.4 138.2L109.2 138.7Z "/></svg>