<svg width="375" height="200" viewBox="0 0 375 200" xmlns="http://www.w3.org/2000/svg"><mask id="satori_om-id"><rect x="0" y="0" width="375" height="124" fill="#fff"/></mask><clipPath id="satori_cp-id-0"><path x="0" y="0" width="375" height="8" d="M4,0 h367 a4,4 0 0 1 4,4 v0 a4,4 0 0 1 -4,4 h-367 a4,4 0 0 1 -4,-4 v0 a4,4 0 0 1 4,-4"/></clipPath><mask id="satori_om-id-0"><rect x="0" y="0" width="375" height="8" fill="#fff"/></mask><mask id="satori_om-id-0-0"><rect x="0" y="0" width="180" height="8" fill="#fff" mask="url(#satori_om-id-0)"/></mask><rect x="0" y="0" width="180" height="8" fill="#3178c6" clip-path="url(#satori_cp-id-0)" mask="url(#satori_om-id-0)"/><mask id="satori_om-id-0-1"><rect x="180" y="0" width="49" height="8" fill="#fff" mask="url(#satori_om-id-0)"/></mask><rect x="180" y="0" width="49" height="8" fill="#3572A5" clip-path="url(#satori_cp-id-0)" mask="url(#satori_om-id-0)"/><mask id="satori_om-id-0-2"><rect x="229" y="0" width="36" height="8" fill="#fff" mask="url(#satori_om-id-0)"/></mask><rect x="229" y="0" width="36" height="8" fill="#701516" clip-path="url(#satori_cp-id-0)" mask="url(#satori_om-id-0)"/><mask id="satori_om-id-0-3"><rect x="265" y="0" width="24" height="8" fill="#fff" mask="url(#satori_om-id-0)"/></mask><rect x="265" y="0" width="24" height="8" fill="#00ADD8" clip-path="url(#satori_cp-id-0)" mask="url(#satori_om-id-0)"/><mask id="satori_om-id-0-4"><rect x="289" y="0" width="15" height="8" fill="#fff" mask="url(#satori_om-id-0)"/></mask><rect x="289" y="0" width="15" height="8" fill="#e34c26" clip-path="url(#satori_cp-id-0)" mask="url(#satori_om-id-0)"/><mask id="satori_om-id-0-5"><rect x="304" y="0" width="11" height="8" fill="#fff" mask="url(#satori_om-id-0)"/></mask><rect x="304" y="0" width="11" height="8" fill="#844FBA" clip-path="url(#satori_cp-id-0)" mask="url(#satori_om-id-0)"/><mask id="satori_om-id-0-6"><rect x="315" y="0" width="11" height="8" fill="#fff" mask="url(#satori_om-id-0)"/></mask><rect x="315" y="0" width="11" height="8" fill="#f1e05a" clip-path="url(#satori_cp-id-0)" mask="url(#satori_om-id-0)"/><mask id="satori_om-id-0-7"><rect x="326" y="0" width="9" height="8" fill="#fff" mask="url(#satori_om-id-0)"/></mask><rect x="326" y="0" width="9" height="8" fill="#663399" clip-path="url(#satori_cp-id-0)" mask="url(#satori_om-id-0)"/><mask id="satori_om-id-0-8"><rect x="335" y="0" width="7" height="8" fill="#fff" mask="url(#satori_om-id-0)"/></mask><rect x="335" y="0" width="7" height="8" fill="#ff5a03" clip-path="url(#satori_cp-id-0)" mask="url(#satori_om-id-0)"/><mask id="satori_om-id-0-9"><rect x="342" y="0" width="7" height="8" fill="#fff" mask="url(#satori_om-id-0)"/></mask><rect x="342" y="0" width="7" height="8" fill="#dea584" clip-path="url(#satori_cp-id-0)" mask="url(#satori_om-id-0)"/><mask id="satori_om-id-1"><rect x="0" y="18" width="375" height="106" fill="#fff"/></mask><mask id="satori_om-id-1-0"><rect x="0" y="18" width="160" height="19" fill="#fff"/></mask><mask id="satori_om-id-1-0-0"><rect x="0" y="20" width="16" height="16" fill="#fff"/></mask><mask id="satori_om-id-1-0-0-0"><rect x="4" y="24" width="8" height="8" fill="#fff"/></mask><path x="4" y="24" width="8" height="8" fill="#3178c6" d="M8,24 h0 a4,4 0 0 1 4,4 v0 a4,4 0 0 1 -4,4 h0 a4,4 0 0 1 -4,-4 v0 a4,4 0 0 1 4,-4"/><mask id="satori_om-id-1-0-1"><rect x="29" y="18" width="79" height="19" fill="#fff"/></mask><g  ><path fill="#24292f" d="M38.6 21.6L38.6 23.5L35.1 23.5L35.1 33L32.8 33L32.8 23.5L29.3 23.5L29.3 21.6L38.6 21.6ZM40.7 24.5L42.3 29.8L43.8 24.5L46.3 24.5L42.9 34.3L42.7 34.8Q41.9 36.4 40.2 36.4L40.2 36.4Q39.7 36.4 39.2 36.3L39.2 36.3L39.2 34.6L39.5 34.6Q40.2 34.6 40.5 34.4Q40.8 34.2 41.0 33.7L41.0 33.7L41.2 33.0L38.3 24.5L40.7 24.5ZM54.8 28.7L54.8 28.9Q54.8 30.8 53.9 32.0Q53.0 33.2 51.5 33.2L51.5 33.2Q50.2 33.2 49.4 32.3L49.4 32.3L49.4 36.3L47.2 36.3L47.2 24.5L49.3 24.5L49.3 25.4Q50.1 24.4 51.5 24.4L51.5 24.4Q53.0 24.4 53.9 25.5Q54.8 26.7 54.8 28.7L54.8 28.7ZM52.5 28.7L52.5 28.7Q52.5 27.5 52.1 26.9Q51.7 26.2 50.9 26.2L50.9 26.2Q49.8 26.2 49.4 27.0L49.4 27.0L49.4 30.5Q49.8 31.3 50.9 31.3L50.9 31.3Q52.5 31.3 52.5 28.7ZM60.1 33.2L60.1 33.2Q58.2 33.2 57.0 32.0Q55.9 30.9 55.9 29.0L55.9 29.0L55.9 28.8Q55.9 27.5 56.4 26.5Q56.8 25.5 57.7 24.9Q58.6 24.4 59.8 24.4L59.8 24.4Q61.5 24.4 62.5 25.5Q63.5 26.6 63.5 28.6L63.5 28.6L63.5 29.5L58.1 29.5Q58.3 30.3 58.8 30.8Q59.4 31.3 60.2 31.3L60.2 31.3Q61.5 31.3 62.2 30.4L62.2 30.4L63.4 31.6Q62.8 32.4 62.0 32.8Q61.1 33.2 60.1 33.2ZM59.8 26.2L59.8 26.2Q59.1 26.2 58.7 26.7Q58.3 27.1 58.2 28.0L58.2 28.0L61.3 28.0L61.3 27.8Q61.3 27.0 60.9 26.6Q60.5 26.2 59.8 26.2ZM70.9 30.0L70.9 30.0Q70.9 29.4 70.4 29.0Q69.9 28.6 68.7 28.2Q67.5 27.9 66.8 27.5L66.8 27.5Q64.8 26.4 64.8 24.6L64.8 24.6Q64.8 23.7 65.4 23.0Q65.9 22.3 66.8 21.9Q67.8 21.5 69.0 21.5L69.0 21.5Q70.3 21.5 71.2 21.9Q72.2 22.4 72.7 23.2Q73.2 24.0 73.2 25.0L73.2 25.0L70.9 25.0Q70.9 24.2 70.4 23.8Q69.9 23.3 69.0 23.3L69.0 23.3Q68.1 23.3 67.7 23.7Q67.2 24.1 67.2 24.7L67.2 24.7Q67.2 25.2 67.7 25.6Q68.3 26.0 69.4 26.3L69.4 26.3Q71.4 26.9 72.3 27.8Q73.2 28.7 73.2 30L73.2 30Q73.2 31.5 72.1 32.3Q71.0 33.2 69.1 33.2L69.1 33.2Q67.8 33.2 66.7 32.7Q65.6 32.2 65.1 31.4Q64.5 30.5 64.5 29.4L64.5 29.4L66.8 29.4Q66.8 31.3 69.1 31.3L69.1 31.3Q69.9 31.3 70.4 31.0Q70.9 30.6 70.9 30.0ZM78.2 31.3L78.2 31.3Q78.8 31.3 79.2 31.0Q79.6 30.6 79.6 30.1L79.6 30.1L81.7 30.1Q81.7 30.9 81.2 31.7Q80.8 32.4 80.0 32.8Q79.2 33.2 78.2 33.2L78.2 33.2Q76.4 33.2 75.3 32.0Q74.3 30.9 74.3 28.8L74.3 28.8L74.3 28.7Q74.3 26.7 75.3 25.6Q76.4 24.4 78.2 24.4L78.2 24.4Q79.8 24.4 80.7 25.3Q81.7 26.2 81.7 27.7L81.7 27.7L79.6 27.7Q79.6 27.0 79.2 26.6Q78.8 26.2 78.1 26.2L78.1 26.2Q77.4 26.2 77.0 26.8Q76.6 27.4 76.6 28.7L76.6 28.7L76.6 28.9Q76.6 30.2 77.0 30.8Q77.4 31.3 78.2 31.3ZM87.8 24.5L87.7 26.7Q87.3 26.6 86.9 26.6L86.9 26.6Q85.6 26.6 85.3 27.5L85.3 27.5L85.3 33L83.0 33L83.0 24.5L85.1 24.5L85.2 25.6Q85.9 24.4 87.1 24.4L87.1 24.4Q87.4 24.4 87.8 24.5L87.8 24.5ZM91.2 24.5L91.2 33L88.9 33L88.9 24.5L91.2 24.5ZM88.8 22.4L88.8 22.4Q88.8 21.9 89.2 21.5Q89.5 21.2 90.1 21.2L90.1 21.2Q90.7 21.2 91 21.5Q91.3 21.9 91.3 22.4L91.3 22.4Q91.3 22.9 91.0 23.2Q90.6 23.5 90.1 23.5Q89.5 23.5 89.2 23.2Q88.8 22.9 88.8 22.4ZM100.7 28.7L100.7 28.9Q100.7 30.8 99.8 32.0Q98.9 33.2 97.4 33.2L97.4 33.2Q96.1 33.2 95.3 32.3L95.3 32.3L95.3 36.3L93.1 36.3L93.1 24.5L95.2 24.5L95.2 25.4Q96.1 24.4 97.4 24.4L97.4 24.4Q98.9 24.4 99.8 25.5Q100.7 26.7 100.7 28.7L100.7 28.7ZM98.4 28.7L98.4 28.7Q98.4 27.5 98.0 26.9Q97.6 26.2 96.8 26.2L96.8 26.2Q95.7 26.2 95.3 27.0L95.3 27.0L95.3 30.5Q95.7 31.3 96.8 31.3L96.8 31.3Q98.4 31.3 98.4 28.7ZM102.5 22.5L104.8 22.5L104.8 24.5L106.2 24.5L106.2 26.2L104.8 26.2L104.8 30.4Q104.8 30.9 105.0 31.1Q105.1 31.3 105.6 31.3L105.6 31.3Q106.0 31.3 106.3 31.2L106.3 31.2L106.3 33.0Q105.6 33.2 104.9 33.2L104.9 33.2Q102.6 33.2 102.5 30.8L102.5 30.8L102.5 26.2L101.3 26.2L101.3 24.5L102.5 24.5L102.5 22.5Z "/></g><mask id="satori_om-id-1-0-2"><rect x="117" y="18" width="43" height="19" fill="#fff"/></mask><g  ><path fill="#57606a" d="M124.0 21.6L124.0 29.2L125.6 29.2L125.6 30.4L124.0 30.4L124.0 33L122.6 33L122.6 30.4L117.4 30.4L117.4 29.5L122.5 21.6L124.0 21.6ZM122.4 23.9L119.1 29.2L122.6 29.2L122.6 23.6L122.4 23.9ZM134.3 21.6L134.3 22.4L129.6 33L128.0 33L132.7 22.8L126.6 22.8L126.6 21.6L134.3 21.6ZM136.1 32.2L136.1 32.2Q136.1 31.9 136.3 31.6Q136.5 31.4 137.0 31.4Q137.4 31.4 137.7 31.6Q137.9 31.9 137.9 32.2L137.9 32.2Q137.9 32.6 137.7 32.8Q137.4 33.1 137.0 33.1Q136.5 33.1 136.3 32.8Q136.1 32.6 136.1 32.2ZM145.7 28L145.7 28Q145.2 28.5 144.6 28.9Q144.0 29.2 143.2 29.2L143.2 29.2Q142.2 29.2 141.5 28.7Q140.8 28.2 140.4 27.3Q140.0 26.5 140.0 25.4L140.0 25.4Q140.0 24.3 140.4 23.4Q140.8 22.4 141.6 22.0Q142.4 21.5 143.5 21.5L143.5 21.5Q145.2 21.5 146.1 22.7Q147.1 24.0 147.1 26.2L147.1 26.2L147.1 26.6Q147.1 29.9 145.8 31.4Q144.5 33.0 141.8 33.0L141.8 33.0L141.6 33.0L141.6 31.8L141.9 31.8Q143.7 31.8 144.6 30.9Q145.6 30.0 145.7 28ZM143.4 28L143.4 28Q144.2 28 144.8 27.6Q145.4 27.1 145.7 26.5L145.7 26.5L145.7 25.9Q145.7 24.5 145.1 23.6Q144.4 22.7 143.5 22.7L143.5 22.7Q142.5 22.7 142.0 23.4Q141.4 24.1 141.4 25.3L141.4 25.3Q141.4 26.5 141.9 27.2Q142.5 28 143.4 28ZM149.0 24.4L149.0 23.8Q149.0 22.8 149.6 22.1Q150.3 21.5 151.3 21.5L151.3 21.5Q152.4 21.5 153.0 22.1Q153.6 22.8 153.6 23.9L153.6 23.9L153.6 24.4Q153.6 25.4 153.0 26.1Q152.3 26.8 151.3 26.8L151.3 26.8Q150.3 26.8 149.6 26.1Q149.0 25.4 149.0 24.4L149.0 24.4ZM150.1 23.8L150.1 24.4Q150.1 25.0 150.4 25.4Q150.8 25.8 151.3 25.8L151.3 25.8Q151.9 25.8 152.2 25.4Q152.6 25.0 152.6 24.4L152.6 24.4L152.6 23.8Q152.6 23.2 152.2 22.8Q151.9 22.4 151.3 22.4Q150.7 22.4 150.4 22.8Q150.1 23.2 150.1 23.8L150.1 23.8ZM154.5 30.8L154.5 30.2Q154.5 29.2 155.2 28.5Q155.8 27.9 156.9 27.9Q157.9 27.9 158.5 28.5Q159.2 29.2 159.2 30.3L159.2 30.3L159.2 30.8Q159.2 31.8 158.5 32.5Q157.9 33.2 156.9 33.2Q155.9 33.2 155.2 32.5Q154.5 31.9 154.5 30.8L154.5 30.8ZM155.6 30.2L155.6 30.8Q155.6 31.4 155.9 31.8Q156.3 32.2 156.9 32.2L156.9 32.2Q157.4 32.2 157.8 31.8Q158.1 31.5 158.1 30.8L158.1 30.8L158.1 30.2Q158.1 29.6 157.8 29.2Q157.4 28.8 156.9 28.8L156.9 28.8Q156.3 28.8 155.9 29.2Q155.6 29.6 155.6 30.2L155.6 30.2ZM157.2 23.3L151.7 32.1L150.8 31.6L156.4 22.7L157.2 23.3Z "/></g><mask id="satori_om-id-1-1"><rect x="170" y="18" width="132" height="19" fill="#fff"/></mask><mask id="satori_om-id-1-1-0"><rect x="170" y="20" width="16" height="16" fill="#fff"/></mask><mask id="satori_om-id-1-1-0-0"><rect x="174" y="24" width="8" height="8" fill="#fff"/></mask><path x="174" y="24" width="8" height="8" fill="#3572A5" d="M178,24 h0 a4,4 0 0 1 4,4 v0 a4,4 0 0 1 -4,4 h0 a4,4 0 0 1 -4,-4 v0 a4,4 0 0 1 4,-4"/><mask id="satori_om-id-1-1-1"><rect x="199" y="18" width="51" height="19" fill="#fff"/></mask><g  ><path fill="#24292f" d="M204.4 29.0L202.4 29.0L202.4 33L200.0 33L200.0 21.6L204.5 21.6Q205.7 21.6 206.7 22.1Q207.7 22.6 208.2 23.4Q208.7 24.3 208.7 25.4L208.7 25.4Q208.7 27.1 207.6 28.0Q206.4 29.0 204.4 29.0L204.4 29.0ZM202.4 23.5L202.4 27.1L204.5 27.1Q205.4 27.1 205.9 26.7Q206.4 26.2 206.4 25.4L206.4 25.4Q206.4 24.6 205.9 24.1Q205.4 23.5 204.5 23.5L204.5 23.5L202.4 23.5ZM211.9 24.5L213.5 29.8L215.0 24.5L217.4 24.5L214.0 34.3L213.9 34.8Q213.1 36.4 211.4 36.4L211.4 36.4Q210.9 36.4 210.4 36.3L210.4 36.3L210.4 34.6L210.7 34.6Q211.3 34.6 211.7 34.4Q212.0 34.2 212.2 33.7L212.2 33.7L212.4 33.0L209.5 24.5L211.9 24.5ZM218.8 22.5L221.0 22.5L221.0 24.5L222.5 24.5L222.5 26.2L221.0 26.2L221.0 30.4Q221.0 30.9 221.2 31.1Q221.4 31.3 221.9 31.3L221.9 31.3Q222.3 31.3 222.6 31.2L222.6 31.2L222.6 33.0Q221.9 33.2 221.2 33.2L221.2 33.2Q218.8 33.2 218.8 30.8L218.8 30.8L218.8 26.2L217.5 26.2L217.5 24.5L218.8 24.5L218.8 22.5ZM225.9 21L225.9 25.5Q226.8 24.4 228.2 24.4L228.2 24.4Q231.0 24.4 231.0 27.6L231.0 27.6L231.0 33L228.7 33L228.7 27.6Q228.7 26.9 228.4 26.6Q228.1 26.2 227.4 26.2L227.4 26.2Q226.4 26.2 225.9 27.0L225.9 27.0L225.9 33L223.7 33L223.7 21L225.9 21ZM232.3 28.8L232.3 28.7Q232.3 27.4 232.8 26.5Q233.3 25.5 234.2 24.9Q235.1 24.4 236.3 24.4L236.3 24.4Q238.0 24.4 239.1 25.4Q240.2 26.5 240.3 28.3L240.3 28.3L240.4 28.9Q240.4 30.8 239.3 32.0Q238.2 33.2 236.4 33.2Q234.5 33.2 233.4 32.0Q232.3 30.8 232.3 28.8L232.3 28.8ZM234.6 28.9L234.6 28.9Q234.6 30.1 235.1 30.7Q235.5 31.3 236.4 31.3L236.4 31.3Q237.2 31.3 237.6 30.7Q238.1 30.1 238.1 28.7L238.1 28.7Q238.1 27.5 237.6 26.9Q237.2 26.2 236.3 26.2L236.3 26.2Q235.5 26.2 235.1 26.9Q234.6 27.5 234.6 28.9ZM241.7 24.5L243.8 24.5L243.9 25.5Q244.8 24.4 246.3 24.4L246.3 24.4Q247.7 24.4 248.3 25.2Q249.0 26.0 249.0 27.5L249.0 27.5L249.0 33L246.7 33L246.7 27.6Q246.7 26.9 246.4 26.6Q246.1 26.2 245.4 26.2L245.4 26.2Q244.4 26.2 244.0 27.0L244.0 27.0L244.0 33L241.7 33L241.7 24.5Z "/></g><mask id="satori_om-id-1-1-2"><rect x="259" y="18" width="43" height="19" fill="#fff"/></mask><g  ><path fill="#57606a" d="M264.7 21.6L264.7 33L263.2 33L263.2 23.4L260.3 24.4L260.3 23.1L264.5 21.6L264.7 21.6ZM271.0 27.8L271.0 26.6L272.1 26.6Q273.1 26.6 273.7 26.1Q274.3 25.5 274.3 24.7L274.3 24.7Q274.3 22.7 272.3 22.7L272.3 22.7Q271.4 22.7 270.8 23.2Q270.3 23.7 270.3 24.6L270.3 24.6L268.8 24.6Q268.8 23.3 269.8 22.4Q270.8 21.5 272.3 21.5L272.3 21.5Q273.9 21.5 274.8 22.3Q275.8 23.2 275.8 24.7L275.8 24.7Q275.8 25.4 275.3 26.1Q274.8 26.8 274.0 27.2L274.0 27.2Q274.9 27.5 275.4 28.1Q275.9 28.8 275.9 29.8L275.9 29.8Q275.9 31.4 274.9 32.3Q273.9 33.2 272.3 33.2Q270.7 33.2 269.7 32.3Q268.7 31.4 268.7 30L268.7 30L270.2 30Q270.2 30.9 270.8 31.4Q271.3 32.0 272.3 32.0L272.3 32.0Q273.4 32.0 273.9 31.4Q274.5 30.9 274.5 29.9L274.5 29.9Q274.5 28.9 273.9 28.3Q273.3 27.8 272.1 27.8L272.1 27.8L271.0 27.8ZM278.1 32.2L278.1 32.2Q278.1 31.9 278.3 31.6Q278.5 31.4 279.0 31.4Q279.4 31.4 279.7 31.6Q279.9 31.9 279.9 32.2L279.9 32.2Q279.9 32.6 279.7 32.8Q279.4 33.1 279.0 33.1Q278.5 33.1 278.3 32.8Q278.1 32.6 278.1 32.2ZM289.3 26.3L289.3 28.1Q289.3 30.7 288.4 31.9Q287.5 33.2 285.7 33.2L285.7 33.2Q283.9 33.2 283.0 31.9Q282.1 30.7 282.1 28.3L282.1 28.3L282.1 26.4Q282.1 23.9 282.9 22.7Q283.8 21.5 285.7 21.5L285.7 21.5Q287.5 21.5 288.4 22.6Q289.2 23.8 289.3 26.3L289.3 26.3ZM287.8 28.5L287.8 26.2Q287.8 24.3 287.3 23.5Q286.8 22.7 285.7 22.7L285.7 22.7Q284.6 22.7 284.0 23.5Q283.5 24.3 283.5 26.1L283.5 26.1L283.5 28.4Q283.5 30.2 284.1 31.1Q284.6 32.0 285.7 32.0L285.7 32.0Q286.8 32.0 287.3 31.1Q287.8 30.3 287.8 28.5L287.8 28.5ZM291.0 24.4L291.0 23.8Q291.0 22.8 291.6 22.1Q292.3 21.5 293.3 21.5L293.3 21.5Q294.4 21.5 295.0 22.1Q295.6 22.8 295.6 23.9L295.6 23.9L295.6 24.4Q295.6 25.4 295.0 26.1Q294.3 26.8 293.3 26.8L293.3 26.8Q292.3 26.8 291.6 26.1Q291.0 25.4 291.0 24.4L291.0 24.4ZM292.1 23.8L292.1 24.4Q292.1 25.0 292.4 25.4Q292.8 25.8 293.3 25.8L293.3 25.8Q293.9 25.8 294.2 25.4Q294.6 25.0 294.6 24.4L294.6 24.4L294.6 23.8Q294.6 23.2 294.2 22.8Q293.9 22.4 293.3 22.4Q292.7 22.4 292.4 22.8Q292.1 23.2 292.1 23.8L292.1 23.8ZM296.5 30.8L296.5 30.2Q296.5 29.2 297.2 28.5Q297.8 27.9 298.9 27.9Q299.9 27.9 300.5 28.5Q301.2 29.2 301.2 30.3L301.2 30.3L301.2 30.8Q301.2 31.8 300.5 32.5Q299.9 33.2 298.9 33.2Q297.9 33.2 297.2 32.5Q296.5 31.9 296.5 30.8L296.5 30.8ZM297.6 30.2L297.6 30.8Q297.6 31.4 297.9 31.8Q298.3 32.2 298.9 32.2L298.9 32.2Q299.4 32.2 299.8 31.8Q300.1 31.5 300.1 30.8L300.1 30.8L300.1 30.2Q300.1 29.6 299.8 29.2Q299.4 28.8 298.9 28.8L298.9 28.8Q298.3 28.8 297.9 29.2Q297.6 29.6 297.6 30.2L297.6 30.2ZM299.2 23.3L293.7 32.1L292.8 31.6L298.4 22.7L299.2 23.3Z "/></g><mask id="satori_om-id-1-2"><rect x="0" y="47" width="109" height="19" fill="#fff"/></mask><mask id="satori_om-id-1-2-0"><rect x="0" y="49" width="16" height="16" fill="#fff"/></mask><mask id="satori_om-id-1-2-0-0"><rect x="4" y="53" width="8" height="8" fill="#fff"/></mask><path x="4" y="53" width="8" height="8" fill="#701516" d="M8,53 h0 a4,4 0 0 1 4,4 v0 a4,4 0 0 1 -4,4 h0 a4,4 0 0 1 -4,-4 v0 a4,4 0 0 1 4,-4"/><mask id="satori_om-id-1-2-1"><rect x="29" y="47" width="37" height="19" fill="#fff"/></mask><g  ><path fill="#24292f" d="M36.4 62L34.2 57.8L32.4 57.8L32.4 62L30.0 62L30.0 50.6L34.2 50.6Q36.3 50.6 37.4 51.5Q38.4 52.4 38.4 54.1L38.4 54.1Q38.4 55.2 37.9 56.0Q37.4 56.8 36.4 57.2L36.4 57.2L38.9 61.9L38.9 62L36.4 62ZM32.4 52.5L32.4 55.9L34.3 55.9Q35.1 55.9 35.6 55.5Q36.1 55.0 36.1 54.3L36.1 54.3Q36.1 53.4 35.6 53.0Q35.2 52.5 34.2 52.5L34.2 52.5L32.4 52.5ZM45.2 62L45.1 61.1Q44.3 62.2 42.8 62.2L42.8 62.2Q41.5 62.2 40.8 61.4Q40.0 60.6 40.0 59.1L40.0 59.1L40.0 53.5L42.3 53.5L42.3 59.0Q42.3 60.3 43.5 60.3L43.5 60.3Q44.6 60.3 45.1 59.5L45.1 59.5L45.1 53.5L47.3 53.5L47.3 62L45.2 62ZM56.6 57.7L56.6 57.9Q56.6 59.9 55.8 61.0Q54.9 62.2 53.4 62.2L53.4 62.2Q52.0 62.2 51.2 61.1L51.2 61.1L51.1 62L49.0 62L49.0 50L51.3 50L51.3 54.3Q52.1 53.4 53.3 53.4L53.3 53.4Q54.9 53.4 55.8 54.5Q56.6 55.7 56.6 57.7L56.6 57.7ZM54.4 57.7L54.4 57.7Q54.4 56.4 54.0 55.8Q53.6 55.2 52.8 55.2L52.8 55.2Q51.7 55.2 51.3 56.1L51.3 56.1L51.3 59.4Q51.7 60.3 52.8 60.3L52.8 60.3Q53.9 60.3 54.2 59.3L54.2 59.3Q54.4 58.7 54.4 57.7ZM59.5 53.5L61.1 58.8L62.7 53.5L65.1 53.5L61.7 63.3L61.5 63.8Q60.8 65.4 59.0 65.4L59.0 65.4Q58.5 65.4 58.0 65.3L58.0 65.3L58.0 63.6L58.4 63.6Q59.0 63.6 59.3 63.4Q59.6 63.2 59.8 62.7L59.8 62.7L60.1 62.0L57.1 53.5L59.5 53.5Z "/></g><mask id="satori_om-id-1-2-2"><rect x="75" y="47" width="34" height="19" fill="#fff"/></mask><g  ><path fill="#57606a" d="M81.5 57L81.5 57Q81.0 57.5 80.4 57.9Q79.8 58.2 79.0 58.2L79.0 58.2Q78.0 58.2 77.3 57.7Q76.6 57.2 76.2 56.3Q75.8 55.5 75.8 54.4L75.8 54.4Q75.8 53.3 76.2 52.4Q76.6 51.4 77.4 51.0Q78.2 50.5 79.3 50.5L79.3 50.5Q81.0 50.5 82.0 51.7Q82.9 53.0 82.9 55.2L82.9 55.2L82.9 55.6Q82.9 58.9 81.6 60.4Q80.3 62.0 77.7 62.0L77.7 62.0L77.4 62.0L77.4 60.8L77.7 60.8Q79.5 60.8 80.4 59.9Q81.4 59.0 81.5 57ZM79.3 57L79.3 57Q80.0 57 80.6 56.6Q81.2 56.1 81.5 55.5L81.5 55.5L81.5 54.9Q81.5 53.5 80.9 52.6Q80.3 51.7 79.3 51.7L79.3 51.7Q78.4 51.7 77.8 52.4Q77.2 53.1 77.2 54.3L77.2 54.3Q77.2 55.5 77.8 56.2Q78.3 57 79.3 57ZM85.1 61.2L85.1 61.2Q85.1 60.9 85.3 60.6Q85.6 60.4 86 60.4Q86.4 60.4 86.7 60.6Q86.9 60.9 86.9 61.2L86.9 61.2Q86.9 61.6 86.7 61.8Q86.4 62.1 86 62.1Q85.6 62.1 85.3 61.8Q85.1 61.6 85.1 61.2ZM96.0 53.6L96.0 53.6Q96.0 54.4 95.6 55.1Q95.1 55.8 94.4 56.1L94.4 56.1Q95.3 56.5 95.8 57.3Q96.3 58 96.3 58.9L96.3 58.9Q96.3 60.4 95.3 61.3Q94.3 62.2 92.7 62.2L92.7 62.2Q91.0 62.2 90.1 61.3Q89.1 60.4 89.1 58.9L89.1 58.9Q89.1 58.0 89.6 57.3Q90.1 56.5 91.0 56.1L91.0 56.1Q90.2 55.8 89.8 55.1Q89.3 54.4 89.3 53.6L89.3 53.6Q89.3 52.2 90.3 51.3Q91.2 50.5 92.7 50.5L92.7 50.5Q94.2 50.5 95.1 51.3Q96.0 52.2 96.0 53.6ZM94.9 58.9L94.9 58.9Q94.9 57.9 94.3 57.3Q93.6 56.7 92.7 56.7Q91.7 56.7 91.1 57.3Q90.5 57.9 90.5 58.9Q90.5 59.9 91.1 60.4Q91.7 61.0 92.7 61.0L92.7 61.0Q93.7 61.0 94.3 60.4Q94.9 59.9 94.9 58.9ZM92.7 51.7L92.7 51.7Q91.8 51.7 91.3 52.2Q90.8 52.7 90.8 53.6L90.8 53.6Q90.8 54.5 91.3 55.0Q91.8 55.6 92.7 55.6Q93.6 55.6 94.1 55.0Q94.6 54.5 94.6 53.6Q94.6 52.8 94.1 52.2Q93.5 51.7 92.7 51.7ZM98 53.4L98 52.8Q98 51.8 98.7 51.1Q99.3 50.5 100.3 50.5L100.3 50.5Q101.4 50.5 102.0 51.1Q102.7 51.8 102.7 52.9L102.7 52.9L102.7 53.4Q102.7 54.4 102.0 55.1Q101.4 55.8 100.3 55.8L100.3 55.8Q99.3 55.8 98.7 55.1Q98 54.4 98 53.4L98 53.4ZM99.1 52.8L99.1 53.4Q99.1 54.0 99.4 54.4Q99.8 54.8 100.3 54.8L100.3 54.8Q100.9 54.8 101.2 54.4Q101.6 54.0 101.6 53.4L101.6 53.4L101.6 52.8Q101.6 52.2 101.2 51.8Q100.9 51.4 100.3 51.4Q99.8 51.4 99.4 51.8Q99.1 52.2 99.1 52.8L99.1 52.8ZM103.5 59.8L103.5 59.2Q103.5 58.2 104.2 57.5Q104.8 56.9 105.9 56.9Q106.9 56.9 107.5 57.5Q108.2 58.2 108.2 59.3L108.2 59.3L108.2 59.8Q108.2 60.8 107.6 61.5Q106.9 62.2 105.9 62.2Q104.9 62.2 104.2 61.5Q103.5 60.9 103.5 59.8L103.5 59.8ZM104.6 59.2L104.6 59.8Q104.6 60.4 105.0 60.8Q105.3 61.2 105.9 61.2L105.9 61.2Q106.4 61.2 106.8 60.8Q107.1 60.5 107.1 59.8L107.1 59.8L107.1 59.2Q107.1 58.6 106.8 58.2Q106.4 57.8 105.9 57.8L105.9 57.8Q105.3 57.8 105.0 58.2Q104.6 58.6 104.6 59.2L104.6 59.2ZM106.2 52.3L100.7 61.1L99.9 60.6L105.4 51.7L106.2 52.3Z "/></g><mask id="satori_om-id-1-3"><rect x="119" y="47" width="92" height="19" fill="#fff"/></mask><mask id="satori_om-id-1-3-0"><rect x="119" y="49" width="16" height="16" fill="#fff"/></mask><mask id="satori_om-id-1-3-0-0"><rect x="123" y="53" width="8" height="8" fill="#fff"/></mask><path x="123" y="53" width="8" height="8" fill="#00ADD8" d="M127,53 h0 a4,4 0 0 1 4,4 v0 a4,4 0 0 1 -4,4 h0 a4,4 0 0 1 -4,-4 v0 a4,4 0 0 1 4,-4"/><mask id="satori_om-id-1-3-1"><rect x="148" y="47" width="20" height="19" fill="#fff"/></mask><g  ><path fill="#24292f" d="M158.0 56.0L158.0 60.6Q157.4 61.3 156.2 61.7Q155.1 62.2 153.7 62.2L153.7 62.2Q152.2 62.2 151.1 61.5Q150.0 60.9 149.4 59.6Q148.8 58.4 148.7 56.8L148.7 56.8L148.7 56.0Q148.7 54.3 149.3 53.0Q149.9 51.8 151.0 51.1Q152.0 50.5 153.5 50.5L153.5 50.5Q155.5 50.5 156.7 51.4Q157.8 52.4 158.0 54.2L158.0 54.2L155.7 54.2Q155.6 53.3 155.0 52.8Q154.5 52.4 153.6 52.4L153.6 52.4Q152.4 52.4 151.8 53.3Q151.1 54.2 151.1 55.9L151.1 55.9L151.1 56.7Q151.1 58.4 151.8 59.4Q152.5 60.3 153.8 60.3L153.8 60.3Q155.1 60.3 155.7 59.7L155.7 59.7L155.7 57.8L153.5 57.8L153.5 56.0L158.0 56.0ZM159.4 57.8L159.4 57.7Q159.4 56.4 159.9 55.5Q160.4 54.5 161.3 53.9Q162.2 53.4 163.4 53.4L163.4 53.4Q165.1 53.4 166.2 54.4Q167.3 55.5 167.4 57.3L167.4 57.3L167.4 57.9Q167.4 59.8 166.3 61.0Q165.3 62.2 163.4 62.2Q161.6 62.2 160.5 61.0Q159.4 59.8 159.4 57.8L159.4 57.8ZM161.7 57.9L161.7 57.9Q161.7 59.1 162.1 59.7Q162.6 60.3 163.4 60.3L163.4 60.3Q164.2 60.3 164.7 59.7Q165.2 59.1 165.2 57.7L165.2 57.7Q165.2 56.5 164.7 55.9Q164.2 55.2 163.4 55.2L163.4 55.2Q162.6 55.2 162.1 55.9Q161.7 56.5 161.7 57.9Z "/></g><mask id="satori_om-id-1-3-2"><rect x="177" y="47" width="34" height="19" fill="#fff"/></mask><g  ><path fill="#57606a" d="M183.4 50.6L183.6 50.6L183.6 51.8L183.4 51.8Q181.7 51.9 180.7 52.8Q179.7 53.8 179.5 55.6L179.5 55.6Q180.4 54.5 182.0 54.5L182.0 54.5Q183.4 54.5 184.3 55.6Q185.2 56.6 185.2 58.3L185.2 58.3Q185.2 60.0 184.3 61.1Q183.3 62.2 181.7 62.2L181.7 62.2Q180.1 62.2 179.0 60.9Q178.0 59.6 178.0 57.7L178.0 57.7L178.0 57.1Q178.0 54.0 179.4 52.3Q180.7 50.7 183.4 50.6L183.4 50.6ZM181.7 55.7L181.7 55.7Q181.0 55.7 180.4 56.2Q179.7 56.6 179.5 57.3L179.5 57.3L179.5 57.8Q179.5 59.2 180.1 60.1Q180.8 61.0 181.7 61.0L181.7 61.0Q182.7 61.0 183.2 60.2Q183.8 59.5 183.8 58.4L183.8 58.4Q183.8 57.2 183.2 56.5Q182.7 55.7 181.7 55.7ZM187.1 61.2L187.1 61.2Q187.1 60.9 187.3 60.6Q187.6 60.4 188 60.4Q188.4 60.4 188.7 60.6Q188.9 60.9 188.9 61.2L188.9 61.2Q188.9 61.6 188.7 61.8Q188.4 62.1 188 62.1Q187.6 62.1 187.3 61.8Q187.1 61.6 187.1 61.2ZM193.0 56.6L191.8 56.3L192.4 50.6L198.2 50.6L198.2 52.0L193.6 52.0L193.3 55.1Q194.1 54.6 195.2 54.6L195.2 54.6Q196.7 54.6 197.6 55.6Q198.5 56.6 198.5 58.4L198.5 58.4Q198.5 60.1 197.6 61.1Q196.6 62.2 194.9 62.2L194.9 62.2Q193.4 62.2 192.5 61.3Q191.5 60.5 191.4 59.0L191.4 59.0L192.8 59.0Q192.9 60.0 193.5 60.5Q194.0 61.0 194.9 61.0L194.9 61.0Q196.0 61.0 196.5 60.3Q197.1 59.6 197.1 58.4L197.1 58.4Q197.1 57.3 196.5 56.6Q195.9 55.9 194.8 55.9L194.8 55.9Q193.9 55.9 193.3 56.3L193.3 56.3L193.0 56.6ZM200 53.4L200 52.8Q200 51.8 200.7 51.1Q201.3 50.5 202.3 50.5L202.3 50.5Q203.4 50.5 204.0 51.1Q204.7 51.8 204.7 52.9L204.7 52.9L204.7 53.4Q204.7 54.4 204.0 55.1Q203.4 55.8 202.3 55.8L202.3 55.8Q201.3 55.8 200.7 55.1Q200 54.4 200 53.4L200 53.4ZM201.1 52.8L201.1 53.4Q201.1 54.0 201.4 54.4Q201.8 54.8 202.3 54.8L202.3 54.8Q202.9 54.8 203.2 54.4Q203.6 54.0 203.6 53.4L203.6 53.4L203.6 52.8Q203.6 52.2 203.2 51.8Q202.9 51.4 202.3 51.4Q201.8 51.4 201.4 51.8Q201.1 52.2 201.1 52.8L201.1 52.8ZM205.5 59.8L205.5 59.2Q205.5 58.2 206.2 57.5Q206.8 56.9 207.9 56.9Q208.9 56.9 209.5 57.5Q210.2 58.2 210.2 59.3L210.2 59.3L210.2 59.8Q210.2 60.8 209.6 61.5Q208.9 62.2 207.9 62.2Q206.9 62.2 206.2 61.5Q205.5 60.9 205.5 59.8L205.5 59.8ZM206.6 59.2L206.6 59.8Q206.6 60.4 207.0 60.8Q207.3 61.2 207.9 61.2L207.9 61.2Q208.4 61.2 208.8 60.8Q209.1 60.5 209.1 59.8L209.1 59.8L209.1 59.2Q209.1 58.6 208.8 58.2Q208.4 57.8 207.9 57.8L207.9 57.8Q207.3 57.8 207.0 58.2Q206.6 58.6 206.6 59.2L206.6 59.2ZM208.2 52.3L202.7 61.1L201.9 60.6L207.4 51.7L208.2 52.3Z "/></g><mask id="satori_om-id-1-4"><rect x="221" y="47" width="116" height="19" fill="#fff"/></mask><mask id="satori_om-id-1-4-0"><rect x="221" y="49" width="16" height="16" fill="#fff"/></mask><mask id="satori_om-id-1-4-0-0"><rect x="225" y="53" width="8" height="8" fill="#fff"/></mask><path x="225" y="53" width="8" height="8" fill="#e34c26" d="M229,53 h0 a4,4 0 0 1 4,4 v0 a4,4 0 0 1 -4,4 h0 a4,4 0 0 1 -4,-4 v0 a4,4 0 0 1 4,-4"/><mask id="satori_om-id-1-4-1"><rect x="250" y="47" width="44" height="19" fill="#fff"/></mask><g  ><path fill="#24292f" d="M260.3 50.6L260.3 62L257.9 62L257.9 57.1L253.4 57.1L253.4 62L251.0 62L251.0 50.6L253.4 50.6L253.4 55.2L257.9 55.2L257.9 50.6L260.3 50.6ZM270.7 50.6L270.7 52.5L267.2 52.5L267.2 62L264.8 62L264.8 52.5L261.4 52.5L261.4 50.6L270.7 50.6ZM272.0 50.6L275.1 50.6L278.0 58.9L280.9 50.6L284.0 50.6L284.0 62L281.6 62L281.6 58.9L281.8 53.5L278.8 62L277.2 62L274.1 53.5L274.3 58.9L274.3 62L272.0 62L272.0 50.6ZM288.4 50.6L288.4 60.1L293.3 60.1L293.3 62L286.0 62L286.0 50.6L288.4 50.6Z "/></g><mask id="satori_om-id-1-4-2"><rect x="303" y="47" width="34" height="19" fill="#fff"/></mask><g  ><path fill="#57606a" d="M306.0 56.8L306.0 55.6L307.1 55.6Q308.2 55.6 308.7 55.1Q309.3 54.5 309.3 53.7L309.3 53.7Q309.3 51.7 307.3 51.7L307.3 51.7Q306.4 51.7 305.8 52.2Q305.3 52.7 305.3 53.6L305.3 53.6L303.8 53.6Q303.8 52.3 304.8 51.4Q305.8 50.5 307.3 50.5L307.3 50.5Q308.9 50.5 309.9 51.3Q310.8 52.2 310.8 53.7L310.8 53.7Q310.8 54.4 310.3 55.1Q309.8 55.8 309.0 56.2L309.0 56.2Q309.9 56.5 310.4 57.1Q310.9 57.8 310.9 58.8L310.9 58.8Q310.9 60.4 309.9 61.3Q308.9 62.2 307.3 62.2Q305.7 62.2 304.7 61.3Q303.7 60.4 303.7 59L303.7 59L305.2 59Q305.2 59.9 305.8 60.4Q306.4 61.0 307.3 61.0L307.3 61.0Q308.4 61.0 308.9 60.4Q309.5 59.9 309.5 58.9L309.5 58.9Q309.5 57.9 308.9 57.3Q308.3 56.8 307.1 56.8L307.1 56.8L306.0 56.8ZM313.1 61.2L313.1 61.2Q313.1 60.9 313.3 60.6Q313.6 60.4 314 60.4Q314.4 60.4 314.7 60.6Q314.9 60.9 314.9 61.2L314.9 61.2Q314.9 61.6 314.7 61.8Q314.4 62.1 314 62.1Q313.6 62.1 313.3 61.8Q313.1 61.6 313.1 61.2ZM322.7 57L322.7 57Q322.2 57.5 321.6 57.9Q321.0 58.2 320.2 58.2L320.2 58.2Q319.2 58.2 318.5 57.7Q317.8 57.2 317.4 56.3Q317.0 55.5 317.0 54.4L317.0 54.4Q317.0 53.3 317.4 52.4Q317.8 51.4 318.6 51.0Q319.4 50.5 320.5 50.5L320.5 50.5Q322.2 50.5 323.2 51.7Q324.1 53.0 324.1 55.2L324.1 55.2L324.1 55.6Q324.1 58.9 322.8 60.4Q321.5 62.0 318.9 62.0L318.9 62.0L318.6 62.0L318.6 60.8L318.9 60.8Q320.7 60.8 321.6 59.9Q322.6 59.0 322.7 57ZM320.5 57L320.5 57Q321.2 57 321.8 56.6Q322.4 56.1 322.7 55.5L322.7 55.5L322.7 54.9Q322.7 53.5 322.1 52.6Q321.5 51.7 320.5 51.7L320.5 51.7Q319.6 51.7 319.0 52.4Q318.4 53.1 318.4 54.3L318.4 54.3Q318.4 55.5 319.0 56.2Q319.5 57 320.5 57ZM326 53.4L326 52.8Q326 51.8 326.7 51.1Q327.3 50.5 328.3 50.5L328.3 50.5Q329.4 50.5 330.0 51.1Q330.7 51.8 330.7 52.9L330.7 52.9L330.7 53.4Q330.7 54.4 330.0 55.1Q329.4 55.8 328.3 55.8L328.3 55.8Q327.3 55.8 326.7 55.1Q326 54.4 326 53.4L326 53.4ZM327.1 52.8L327.1 53.4Q327.1 54.0 327.4 54.4Q327.8 54.8 328.3 54.8L328.3 54.8Q328.9 54.8 329.2 54.4Q329.6 54.0 329.6 53.4L329.6 53.4L329.6 52.8Q329.6 52.2 329.2 51.8Q328.9 51.4 328.3 51.4Q327.8 51.4 327.4 51.8Q327.1 52.2 327.1 52.8L327.1 52.8ZM331.5 59.8L331.5 59.2Q331.5 58.2 332.2 57.5Q332.8 56.9 333.9 56.9Q334.9 56.9 335.5 57.5Q336.2 58.2 336.2 59.3L336.2 59.3L336.2 59.8Q336.2 60.8 335.6 61.5Q334.9 62.2 333.9 62.2Q332.9 62.2 332.2 61.5Q331.5 60.9 331.5 59.8L331.5 59.8ZM332.6 59.2L332.6 59.8Q332.6 60.4 333.0 60.8Q333.3 61.2 333.9 61.2L333.9 61.2Q334.4 61.2 334.8 60.8Q335.1 60.5 335.1 59.8L335.1 59.8L335.1 59.2Q335.1 58.6 334.8 58.2Q334.4 57.8 333.9 57.8L333.9 57.8Q333.3 57.8 333.0 58.2Q332.6 58.6 332.6 59.2L332.6 59.2ZM334.2 52.3L328.7 61.1L327.9 60.6L333.4 51.7L334.2 52.3Z "/></g><mask id="satori_om-id-1-5"><rect x="0" y="76" width="103" height="19" fill="#fff"/></mask><mask id="satori_om-id-1-5-0"><rect x="0" y="78" width="16" height="16" fill="#fff"/></mask><mask id="satori_om-id-1-5-0-0"><rect x="4" y="82" width="8" height="8" fill="#fff"/></mask><path x="4" y="82" width="8" height="8" fill="#844FBA" d="M8,82 h0 a4,4 0 0 1 4,4 v0 a4,4 0 0 1 -4,4 h0 a4,4 0 0 1 -4,-4 v0 a4,4 0 0 1 4,-4"/><mask id="satori_om-id-1-5-1"><rect x="29" y="76" width="31" height="19" fill="#fff"/></mask><g  ><path fill="#24292f" d="M39.3 79.6L39.3 91L36.9 91L36.9 86.1L32.4 86.1L32.4 91L30.0 91L30.0 79.6L32.4 79.6L32.4 84.2L36.9 84.2L36.9 79.6L39.3 79.6ZM47.9 87.2L50.3 87.2Q50.1 89.0 48.9 90.1Q47.7 91.2 45.7 91.2L45.7 91.2Q43.5 91.2 42.2 89.7Q41.0 88.2 41.0 85.6L41.0 85.6L41.0 84.9Q41.0 83.3 41.6 82.1Q42.1 80.8 43.2 80.1Q44.3 79.5 45.7 79.5L45.7 79.5Q47.7 79.5 48.9 80.5Q50.1 81.6 50.3 83.5L50.3 83.5L47.9 83.5Q47.8 82.4 47.3 81.9Q46.8 81.4 45.7 81.4L45.7 81.4Q44.5 81.4 43.9 82.2Q43.4 83.1 43.4 84.8L43.4 84.8L43.4 85.7Q43.4 87.5 43.9 88.4Q44.5 89.2 45.7 89.2L45.7 89.2Q46.8 89.2 47.3 88.7Q47.8 88.3 47.9 87.2L47.9 87.2ZM54.1 79.6L54.1 89.1L59.1 89.1L59.1 91L51.8 91L51.8 79.6L54.1 79.6Z "/></g><mask id="satori_om-id-1-5-2"><rect x="69" y="76" width="34" height="19" fill="#fff"/></mask><g  ><path fill="#57606a" d="M72.0 85.8L72.0 84.6L73.1 84.6Q74.2 84.6 74.7 84.1Q75.3 83.5 75.3 82.7L75.3 82.7Q75.3 80.7 73.3 80.7L73.3 80.7Q72.4 80.7 71.8 81.2Q71.3 81.7 71.3 82.6L71.3 82.6L69.8 82.6Q69.8 81.3 70.8 80.4Q71.8 79.5 73.3 79.5L73.3 79.5Q74.9 79.5 75.9 80.3Q76.8 81.2 76.8 82.7L76.8 82.7Q76.8 83.4 76.3 84.1Q75.8 84.8 75.0 85.2L75.0 85.2Q75.9 85.5 76.4 86.1Q76.9 86.8 76.9 87.8L76.9 87.8Q76.9 89.4 75.9 90.3Q74.9 91.2 73.3 91.2Q71.7 91.2 70.7 90.3Q69.7 89.4 69.7 88L69.7 88L71.2 88Q71.2 88.9 71.8 89.4Q72.4 90.0 73.3 90.0L73.3 90.0Q74.4 90.0 74.9 89.4Q75.5 88.9 75.5 87.9L75.5 87.9Q75.5 86.9 74.9 86.3Q74.3 85.8 73.1 85.8L73.1 85.8L72.0 85.8ZM79.1 90.2L79.1 90.2Q79.1 89.9 79.3 89.6Q79.6 89.4 80 89.4Q80.4 89.4 80.7 89.6Q80.9 89.9 80.9 90.2L80.9 90.2Q80.9 90.6 80.7 90.8Q80.4 91.1 80 91.1Q79.6 91.1 79.3 90.8Q79.1 90.6 79.1 90.2ZM90.3 84.3L90.3 86.1Q90.3 88.7 89.4 89.9Q88.5 91.2 86.7 91.2L86.7 91.2Q84.9 91.2 84 89.9Q83.1 88.7 83.1 86.3L83.1 86.3L83.1 84.4Q83.1 81.9 84.0 80.7Q84.8 79.5 86.7 79.5L86.7 79.5Q88.5 79.5 89.4 80.6Q90.3 81.8 90.3 84.3L90.3 84.3ZM88.8 86.5L88.8 84.2Q88.8 82.3 88.3 81.5Q87.8 80.7 86.7 80.7L86.7 80.7Q85.6 80.7 85.1 81.5Q84.6 82.3 84.5 84.1L84.5 84.1L84.5 86.4Q84.5 88.2 85.1 89.1Q85.6 90.0 86.7 90.0L86.7 90.0Q87.8 90.0 88.3 89.1Q88.8 88.3 88.8 86.5L88.8 86.5ZM92 82.4L92 81.8Q92 80.8 92.7 80.1Q93.3 79.5 94.3 79.5L94.3 79.5Q95.4 79.5 96.0 80.1Q96.7 80.8 96.7 81.9L96.7 81.9L96.7 82.4Q96.7 83.4 96.0 84.1Q95.4 84.8 94.3 84.8L94.3 84.8Q93.3 84.8 92.7 84.1Q92 83.4 92 82.4L92 82.4ZM93.1 81.8L93.1 82.4Q93.1 83.0 93.4 83.4Q93.8 83.8 94.3 83.8L94.3 83.8Q94.9 83.8 95.2 83.4Q95.6 83.0 95.6 82.4L95.6 82.4L95.6 81.8Q95.6 81.2 95.2 80.8Q94.9 80.4 94.3 80.4Q93.8 80.4 93.4 80.8Q93.1 81.2 93.1 81.8L93.1 81.8ZM97.5 88.8L97.5 88.2Q97.5 87.2 98.2 86.5Q98.8 85.9 99.9 85.9Q100.9 85.9 101.5 86.5Q102.2 87.2 102.2 88.3L102.2 88.3L102.2 88.8Q102.2 89.8 101.6 90.5Q100.9 91.2 99.9 91.2Q98.9 91.2 98.2 90.5Q97.5 89.9 97.5 88.8L97.5 88.8ZM98.6 88.2L98.6 88.8Q98.6 89.4 99.0 89.8Q99.3 90.2 99.9 90.2L99.9 90.2Q100.4 90.2 100.8 89.8Q101.1 89.5 101.1 88.8L101.1 88.8L101.1 88.2Q101.1 87.6 100.8 87.2Q100.4 86.8 99.9 86.8L99.9 86.8Q99.3 86.8 99.0 87.2Q98.6 87.6 98.6 88.2L98.6 88.2ZM100.2 81.3L94.7 90.1L93.9 89.6L99.4 80.7L100.2 81.3Z "/></g><mask id="satori_om-id-1-6"><rect x="113" y="76" width="149" height="19" fill="#fff"/></mask><mask id="satori_om-id-1-6-0"><rect x="113" y="78" width="16" height="16" fill="#fff"/></mask><mask id="satori_om-id-1-6-0-0"><rect x="117" y="82" width="8" height="8" fill="#fff"/></mask><path x="117" y="82" width="8" height="8" fill="#f1e05a" d="M121,82 h0 a4,4 0 0 1 4,4 v0 a4,4 0 0 1 -4,4 h0 a4,4 0 0 1 -4,-4 v0 a4,4 0 0 1 4,-4"/><mask id="satori_om-id-1-6-1"><rect x="142" y="76" width="77" height="19" fill="#fff"/></mask><g  ><path fill="#24292f" d="M147.6 87.5L147.6 79.6L149.9 79.6L149.9 87.5Q149.9 88.6 149.5 89.4Q149.0 90.3 148.1 90.7Q147.2 91.2 146.1 91.2L146.1 91.2Q144.3 91.2 143.3 90.2Q142.3 89.3 142.3 87.6L142.3 87.6L144.7 87.6Q144.7 88.5 145.0 88.9Q145.4 89.3 146.1 89.3L146.1 89.3Q146.8 89.3 147.2 88.8Q147.6 88.4 147.6 87.5L147.6 87.5ZM159.0 91L156.7 91Q156.5 90.7 156.5 90.2L156.5 90.2Q155.7 91.2 154.3 91.2L154.3 91.2Q153.1 91.2 152.3 90.4Q151.5 89.7 151.5 88.6L151.5 88.6Q151.5 87.3 152.5 86.6Q153.5 85.8 155.3 85.8L155.3 85.8L156.4 85.8L156.4 85.4Q156.4 84.8 156.1 84.4Q155.8 84.1 155.1 84.1L155.1 84.1Q154.6 84.1 154.2 84.3Q153.9 84.6 153.9 85.1L153.9 85.1L151.7 85.1Q151.7 84.4 152.1 83.7Q152.6 83.1 153.4 82.7Q154.2 82.4 155.3 82.4L155.3 82.4Q156.8 82.4 157.7 83.2Q158.6 84.0 158.6 85.4L158.6 85.4L158.6 89.0Q158.7 90.3 159.0 90.9L159.0 90.9L159.0 91ZM154.8 89.4L154.8 89.4Q155.3 89.4 155.8 89.2Q156.2 89.0 156.4 88.6L156.4 88.6L156.4 87.2L155.5 87.2Q153.8 87.2 153.7 88.3L153.7 88.3L153.7 88.5Q153.7 88.9 154.0 89.2Q154.3 89.4 154.8 89.4ZM161.9 82.5L163.4 88.2L165 82.5L167.4 82.5L164.5 91L162.4 91L159.5 82.5L161.9 82.5ZM175.4 91L173.1 91Q173.0 90.7 172.9 90.2L172.9 90.2Q172.1 91.2 170.8 91.2L170.8 91.2Q169.5 91.2 168.7 90.4Q167.9 89.7 167.9 88.6L167.9 88.6Q167.9 87.3 168.9 86.6Q169.9 85.8 171.8 85.8L171.8 85.8L172.8 85.8L172.8 85.4Q172.8 84.8 172.5 84.4Q172.2 84.1 171.6 84.1L171.6 84.1Q171.0 84.1 170.7 84.3Q170.3 84.6 170.3 85.1L170.3 85.1L168.1 85.1Q168.1 84.4 168.5 83.7Q169.0 83.1 169.8 82.7Q170.6 82.4 171.7 82.4L171.7 82.4Q173.2 82.4 174.2 83.2Q175.1 84.0 175.1 85.4L175.1 85.4L175.1 89.0Q175.1 90.3 175.4 90.9L175.4 90.9L175.4 91ZM171.3 89.4L171.3 89.4Q171.8 89.4 172.2 89.2Q172.6 89.0 172.8 88.6L172.8 88.6L172.8 87.2L172.0 87.2Q170.3 87.2 170.2 88.3L170.2 88.3L170.2 88.5Q170.2 88.9 170.5 89.2Q170.8 89.4 171.3 89.4ZM182.9 88.0L182.9 88.0Q182.9 87.4 182.4 87.0Q181.9 86.6 180.7 86.2Q179.5 85.9 178.8 85.5L178.8 85.5Q176.8 84.4 176.8 82.6L176.8 82.6Q176.8 81.7 177.4 81.0Q177.9 80.3 178.8 79.9Q179.8 79.5 181.0 79.5L181.0 79.5Q182.3 79.5 183.2 79.9Q184.2 80.4 184.7 81.2Q185.2 82.0 185.2 83.0L185.2 83.0L182.9 83.0Q182.9 82.2 182.4 81.8Q181.9 81.3 181.0 81.3L181.0 81.3Q180.1 81.3 179.7 81.7Q179.2 82.1 179.2 82.7L179.2 82.7Q179.2 83.2 179.7 83.6Q180.3 84.0 181.4 84.3L181.4 84.3Q183.4 84.9 184.3 85.8Q185.2 86.7 185.2 88L185.2 88Q185.2 89.5 184.1 90.3Q183.0 91.2 181.1 91.2L181.1 91.2Q179.8 91.2 178.7 90.7Q177.6 90.2 177.1 89.4Q176.5 88.5 176.5 87.4L176.5 87.4L178.8 87.4Q178.8 89.3 181.1 89.3L181.1 89.3Q181.9 89.3 182.4 89.0Q182.9 88.6 182.9 88.0ZM190.2 89.3L190.2 89.3Q190.8 89.3 191.2 89.0Q191.6 88.6 191.6 88.1L191.6 88.1L193.7 88.1Q193.7 88.9 193.2 89.7Q192.8 90.4 192.0 90.8Q191.2 91.2 190.2 91.2L190.2 91.2Q188.4 91.2 187.3 90.0Q186.3 88.9 186.3 86.8L186.3 86.8L186.3 86.7Q186.3 84.7 187.3 83.6Q188.4 82.4 190.2 82.4L190.2 82.4Q191.8 82.4 192.7 83.3Q193.7 84.2 193.7 85.7L193.7 85.7L191.6 85.7Q191.6 85.0 191.2 84.6Q190.8 84.2 190.1 84.2L190.1 84.2Q189.4 84.2 189.0 84.8Q188.6 85.4 188.6 86.7L188.6 86.7L188.6 86.9Q188.6 88.2 189.0 88.8Q189.4 89.3 190.2 89.3ZM199.8 82.5L199.7 84.7Q199.3 84.6 198.9 84.6L198.9 84.6Q197.6 84.6 197.3 85.5L197.3 85.5L197.3 91L195.0 91L195.0 82.5L197.1 82.5L197.2 83.6Q197.9 82.4 199.1 82.4L199.1 82.4Q199.4 82.4 199.8 82.5L199.8 82.5ZM203.2 82.5L203.2 91L200.9 91L200.9 82.5L203.2 82.5ZM200.8 80.4L200.8 80.4Q200.8 79.9 201.2 79.5Q201.5 79.2 202.1 79.2L202.1 79.2Q202.7 79.2 203 79.5Q203.3 79.9 203.3 80.4L203.3 80.4Q203.3 80.9 203.0 81.2Q202.6 81.5 202.1 81.5Q201.5 81.5 201.2 81.2Q200.8 80.9 200.8 80.4ZM212.7 86.7L212.7 86.9Q212.7 88.8 211.8 90.0Q210.9 91.2 209.4 91.2L209.4 91.2Q208.1 91.2 207.3 90.3L207.3 90.3L207.3 94.3L205.1 94.3L205.1 82.5L207.2 82.5L207.2 83.4Q208.1 82.4 209.4 82.4L209.4 82.4Q210.9 82.4 211.8 83.5Q212.7 84.7 212.7 86.7L212.7 86.7ZM210.4 86.7L210.4 86.7Q210.4 85.5 210.0 84.9Q209.6 84.2 208.8 84.2L208.8 84.2Q207.7 84.2 207.3 85.0L207.3 85.0L207.3 88.5Q207.7 89.3 208.8 89.3L208.8 89.3Q210.4 89.3 210.4 86.7ZM214.5 80.5L216.8 80.5L216.8 82.5L218.2 82.5L218.2 84.2L216.8 84.2L216.8 88.4Q216.8 88.9 217.0 89.1Q217.1 89.3 217.6 89.3L217.6 89.3Q218.0 89.3 218.3 89.2L218.3 89.2L218.3 91.0Q217.6 91.2 216.9 91.2L216.9 91.2Q214.6 91.2 214.5 88.8L214.5 88.8L214.5 84.2L213.3 84.2L213.3 82.5L214.5 82.5L214.5 80.5Z "/></g><mask id="satori_om-id-1-6-2"><rect x="228" y="76" width="34" height="19" fill="#fff"/></mask><g  ><path fill="#57606a" d="M236.4 89.8L236.4 91L228.9 91L228.9 90.0L232.9 85.6Q233.8 84.6 234.1 84.0Q234.4 83.4 234.4 82.7L234.4 82.7Q234.4 81.8 233.9 81.2Q233.3 80.7 232.4 80.7L232.4 80.7Q231.4 80.7 230.8 81.3Q230.2 81.9 230.2 83.0L230.2 83.0L228.7 83.0Q228.7 81.4 229.7 80.4Q230.8 79.5 232.4 79.5L232.4 79.5Q234.0 79.5 235.0 80.3Q235.9 81.1 235.9 82.5L235.9 82.5Q235.9 84.2 233.7 86.5L233.7 86.5L230.7 89.8L236.4 89.8ZM238.1 90.2L238.1 90.2Q238.1 89.9 238.3 89.6Q238.6 89.4 239 89.4Q239.4 89.4 239.7 89.6Q239.9 89.9 239.9 90.2L239.9 90.2Q239.9 90.6 239.7 90.8Q239.4 91.1 239 91.1Q238.6 91.1 238.3 90.8Q238.1 90.6 238.1 90.2ZM249.5 79.6L249.5 80.4L244.8 91L243.3 91L248.0 80.8L241.8 80.8L241.8 79.6L249.5 79.6ZM251 82.4L251 81.8Q251 80.8 251.7 80.1Q252.3 79.5 253.3 79.5L253.3 79.5Q254.4 79.5 255.0 80.1Q255.7 80.8 255.7 81.9L255.7 81.9L255.7 82.4Q255.7 83.4 255.0 84.1Q254.4 84.8 253.3 84.8L253.3 84.8Q252.3 84.8 251.7 84.1Q251 83.4 251 82.4L251 82.4ZM252.1 81.8L252.1 82.4Q252.1 83.0 252.4 83.4Q252.8 83.8 253.3 83.8L253.3 83.8Q253.9 83.8 254.2 83.4Q254.6 83.0 254.6 82.4L254.6 82.4L254.6 81.8Q254.6 81.2 254.2 80.8Q253.9 80.4 253.3 80.4Q252.8 80.4 252.4 80.8Q252.1 81.2 252.1 81.8L252.1 81.8ZM256.5 88.8L256.5 88.2Q256.5 87.2 257.2 86.5Q257.8 85.9 258.9 85.9Q259.9 85.9 260.5 86.5Q261.2 87.2 261.2 88.3L261.2 88.3L261.2 88.8Q261.2 89.8 260.6 90.5Q259.9 91.2 258.9 91.2Q257.9 91.2 257.2 90.5Q256.5 89.9 256.5 88.8L256.5 88.8ZM257.6 88.2L257.6 88.8Q257.6 89.4 258.0 89.8Q258.3 90.2 258.9 90.2L258.9 90.2Q259.4 90.2 259.8 89.8Q260.1 89.5 260.1 88.8L260.1 88.8L260.1 88.2Q260.1 87.6 259.8 87.2Q259.4 86.8 258.9 86.8L258.9 86.8Q258.3 86.8 258.0 87.2Q257.6 87.6 257.6 88.2L257.6 88.2ZM259.2 81.3L253.7 90.1L252.9 89.6L258.4 80.7L259.2 81.3Z "/></g><mask id="satori_om-id-1-7"><rect x="272" y="76" width="103" height="19" fill="#fff"/></mask><mask id="satori_om-id-1-7-0"><rect x="272" y="78" width="16" height="16" fill="#fff"/></mask><mask id="satori_om-id-1-7-0-0"><rect x="276" y="82" width="8" height="8" fill="#fff"/></mask><path x="276" y="82" width="8" height="8" fill="#663399" d="M280,82 h0 a4,4 0 0 1 4,4 v0 a4,4 0 0 1 -4,4 h0 a4,4 0 0 1 -4,-4 v0 a4,4 0 0 1 4,-4"/><mask id="satori_om-id-1-7-1"><rect x="301" y="76" width="31" height="19" fill="#fff"/></mask><g  ><path fill="#24292f" d="M308.6 87.2L310.9 87.2Q310.8 89.0 309.6 90.1Q308.4 91.2 306.4 91.2L306.4 91.2Q304.2 91.2 302.9 89.7Q301.7 88.2 301.7 85.6L301.7 85.6L301.7 84.9Q301.7 83.3 302.3 82.1Q302.8 80.8 303.9 80.1Q305.0 79.5 306.4 79.5L306.4 79.5Q308.4 79.5 309.6 80.5Q310.8 81.6 311.0 83.5L311.0 83.5L308.6 83.5Q308.5 82.4 308.0 81.9Q307.5 81.4 306.4 81.4L306.4 81.4Q305.2 81.4 304.6 82.2Q304.1 83.1 304.0 84.8L304.0 84.8L304.0 85.7Q304.0 87.5 304.6 88.4Q305.2 89.2 306.4 89.2L306.4 89.2Q307.5 89.2 308.0 88.7Q308.5 88.3 308.6 87.2L308.6 87.2ZM318.4 88.0L318.4 88.0Q318.4 87.4 317.9 87.0Q317.4 86.6 316.2 86.2Q315.0 85.9 314.3 85.5L314.3 85.5Q312.4 84.4 312.4 82.6L312.4 82.6Q312.4 81.7 312.9 81.0Q313.4 80.3 314.4 79.9Q315.3 79.5 316.6 79.5L316.6 79.5Q317.8 79.5 318.7 79.9Q319.7 80.4 320.2 81.2Q320.7 82.0 320.7 83.0L320.7 83.0L318.4 83.0Q318.4 82.2 317.9 81.8Q317.4 81.3 316.5 81.3L316.5 81.3Q315.7 81.3 315.2 81.7Q314.7 82.1 314.7 82.7L314.7 82.7Q314.7 83.2 315.3 83.6Q315.8 84.0 316.9 84.3L316.9 84.3Q318.9 84.9 319.8 85.8Q320.7 86.7 320.7 88L320.7 88Q320.7 89.5 319.6 90.3Q318.5 91.2 316.6 91.2L316.6 91.2Q315.3 91.2 314.2 90.7Q313.1 90.2 312.6 89.4Q312.0 88.5 312.0 87.4L312.0 87.4L314.4 87.4Q314.4 89.3 316.6 89.3L316.6 89.3Q317.4 89.3 317.9 89.0Q318.4 88.6 318.4 88.0ZM328.2 88.0L328.2 88.0Q328.2 87.4 327.8 87.0Q327.3 86.6 326.1 86.2Q324.8 85.9 324.1 85.5L324.1 85.5Q322.2 84.4 322.2 82.6L322.2 82.6Q322.2 81.7 322.7 81.0Q323.2 80.3 324.2 79.9Q325.2 79.5 326.4 79.5L326.4 79.5Q327.6 79.5 328.6 79.9Q329.5 80.4 330.0 81.2Q330.6 82.0 330.6 83.0L330.6 83.0L328.2 83.0Q328.2 82.2 327.7 81.8Q327.2 81.3 326.4 81.3L326.4 81.3Q325.5 81.3 325.0 81.7Q324.5 82.1 324.5 82.7L324.5 82.7Q324.5 83.2 325.1 83.6Q325.7 84.0 326.7 84.3L326.7 84.3Q328.7 84.9 329.7 85.8Q330.6 86.7 330.6 88L330.6 88Q330.6 89.5 329.5 90.3Q328.3 91.2 326.4 91.2L326.4 91.2Q325.1 91.2 324.1 90.7Q323.0 90.2 322.4 89.4Q321.8 88.5 321.8 87.4L321.8 87.4L324.2 87.4Q324.2 89.3 326.4 89.3L326.4 89.3Q327.3 89.3 327.8 89.0Q328.2 88.6 328.2 88.0Z "/></g><mask id="satori_om-id-1-7-2"><rect x="341" y="76" width="34" height="19" fill="#fff"/></mask><g  ><path fill="#57606a" d="M349.4 89.8L349.4 91L341.9 91L341.9 90.0L345.9 85.6Q346.8 84.6 347.1 84.0Q347.4 83.4 347.4 82.7L347.4 82.7Q347.4 81.8 346.9 81.2Q346.3 80.7 345.4 80.7L345.4 80.7Q344.4 80.7 343.8 81.3Q343.2 81.9 343.2 83.0L343.2 83.0L341.7 83.0Q341.7 81.4 342.7 80.4Q343.8 79.5 345.4 79.5L345.4 79.5Q347.0 79.5 348.0 80.3Q348.9 81.1 348.9 82.5L348.9 82.5Q348.9 84.2 346.7 86.5L346.7 86.5L343.7 89.8L349.4 89.8ZM351.1 90.2L351.1 90.2Q351.1 89.9 351.3 89.6Q351.6 89.4 352 89.4Q352.4 89.4 352.7 89.6Q352.9 89.9 352.9 90.2L352.9 90.2Q352.9 90.6 352.7 90.8Q352.4 91.1 352 91.1Q351.6 91.1 351.3 90.8Q351.1 90.6 351.1 90.2ZM360.6 79.6L360.8 79.6L360.8 80.8L360.5 80.8Q358.9 80.9 357.9 81.8Q356.9 82.8 356.7 84.6L356.7 84.6Q357.6 83.5 359.2 83.5L359.2 83.5Q360.6 83.5 361.5 84.6Q362.4 85.6 362.4 87.3L362.4 87.3Q362.4 89.0 361.5 90.1Q360.5 91.2 358.9 91.2L358.9 91.2Q357.3 91.2 356.2 89.9Q355.2 88.6 355.2 86.7L355.2 86.7L355.2 86.1Q355.2 83.0 356.6 81.3Q357.9 79.7 360.6 79.6L360.6 79.6ZM358.9 84.7L358.9 84.7Q358.2 84.7 357.5 85.2Q356.9 85.6 356.7 86.3L356.7 86.3L356.7 86.8Q356.7 88.2 357.3 89.1Q357.9 90.0 358.9 90.0L358.9 90.0Q359.9 90.0 360.4 89.2Q361.0 88.5 361.0 87.4L361.0 87.4Q361.0 86.2 360.4 85.5Q359.9 84.7 358.9 84.7ZM364 82.4L364 81.8Q364 80.8 364.7 80.1Q365.3 79.5 366.3 79.5L366.3 79.5Q367.4 79.5 368.0 80.1Q368.7 80.8 368.7 81.9L368.7 81.9L368.7 82.4Q368.7 83.4 368.0 84.1Q367.4 84.8 366.3 84.8L366.3 84.8Q365.3 84.8 364.7 84.1Q364 83.4 364 82.4L364 82.4ZM365.1 81.8L365.1 82.4Q365.1 83.0 365.4 83.4Q365.8 83.8 366.3 83.8L366.3 83.8Q366.9 83.8 367.2 83.4Q367.6 83.0 367.6 82.4L367.6 82.4L367.6 81.8Q367.6 81.2 367.2 80.8Q366.9 80.4 366.3 80.4Q365.8 80.4 365.4 80.8Q365.1 81.2 365.1 81.8L365.1 81.8ZM369.5 88.8L369.5 88.2Q369.5 87.2 370.2 86.5Q370.8 85.9 371.9 85.9Q372.9 85.9 373.5 86.5Q374.2 87.2 374.2 88.3L374.2 88.3L374.2 88.8Q374.2 89.8 373.6 90.5Q372.9 91.2 371.9 91.2Q370.9 91.2 370.2 90.5Q369.5 89.9 369.5 88.8L369.5 88.8ZM370.6 88.2L370.6 88.8Q370.6 89.4 371.0 89.8Q371.3 90.2 371.9 90.2L371.9 90.2Q372.4 90.2 372.8 89.8Q373.1 89.5 373.1 88.8L373.1 88.8L373.1 88.2Q373.1 87.6 372.8 87.2Q372.4 86.8 371.9 86.8L371.9 86.8Q371.3 86.8 371.0 87.2Q370.6 87.6 370.6 88.2L370.6 88.2ZM372.2 81.3L366.7 90.1L365.9 89.6L371.4 80.7L372.2 81.3Z "/></g><mask id="satori_om-id-1-8"><rect x="0" y="105" width="112" height="19" fill="#fff"/></mask><mask id="satori_om-id-1-8-0"><rect x="0" y="107" width="16" height="16" fill="#fff"/></mask><mask id="satori_om-id-1-8-0-0"><rect x="4" y="111" width="8" height="8" fill="#fff"/></mask><path x="4" y="111" width="8" height="8" fill="#ff5a03" d="M8,111 h0 a4,4 0 0 1 4,4 v0 a4,4 0 0 1 -4,4 h0 a4,4 0 0 1 -4,-4 v0 a4,4 0 0 1 4,-4"/><mask id="satori_om-id-1-8-1"><rect x="29" y="105" width="40" height="19" fill="#fff"/></mask><g  ><path fill="#24292f" d="M37.2 120L36.4 117.7L32.3 117.7L31.5 120L29.1 120L33.3 108.6L35.5 108.6L39.7 120L37.2 120ZM34.4 111.5L33.0 115.8L35.8 115.8L34.4 111.5ZM45.2 117.7L45.2 117.7Q45.2 117.3 44.8 117.0Q44.4 116.8 43.5 116.6L43.5 116.6Q40.5 116.0 40.5 114.0L40.5 114.0Q40.5 112.9 41.4 112.1Q42.3 111.4 43.8 111.4L43.8 111.4Q45.5 111.4 46.4 112.1Q47.4 112.9 47.4 114.1L47.4 114.1L45.1 114.1Q45.1 113.6 44.8 113.3Q44.5 113 43.8 113L43.8 113Q43.3 113 43.0 113.3Q42.6 113.5 42.6 113.9L42.6 113.9Q42.6 114.3 43.0 114.5Q43.4 114.8 44.2 114.9Q45.0 115.1 45.6 115.3L45.6 115.3Q47.4 116.0 47.4 117.6L47.4 117.6Q47.4 118.7 46.4 119.4Q45.4 120.2 43.9 120.2L43.9 120.2Q42.8 120.2 42.0 119.8Q41.1 119.4 40.7 118.7Q40.2 118.1 40.2 117.3L40.2 117.3L42.3 117.3Q42.4 117.9 42.8 118.2Q43.2 118.6 43.9 118.6L43.9 118.6Q44.5 118.6 44.9 118.3Q45.2 118.1 45.2 117.7ZM49.3 109.5L51.6 109.5L51.6 111.5L53.0 111.5L53.0 113.2L51.6 113.2L51.6 117.4Q51.6 117.9 51.7 118.1Q51.9 118.3 52.4 118.3L52.4 118.3Q52.8 118.3 53.1 118.2L53.1 118.2L53.1 120.0Q52.4 120.2 51.7 120.2L51.7 120.2Q49.4 120.2 49.3 117.8L49.3 117.8L49.3 113.2L48.1 113.2L48.1 111.5L49.3 111.5L49.3 109.5ZM59.0 111.5L59.0 113.7Q58.6 113.6 58.2 113.6L58.2 113.6Q56.9 113.6 56.5 114.5L56.5 114.5L56.5 120L54.3 120L54.3 111.5L56.4 111.5L56.5 112.6Q57.1 111.4 58.3 111.4L58.3 111.4Q58.7 111.4 59.0 111.5L59.0 111.5ZM59.5 115.8L59.5 115.7Q59.5 114.4 60.0 113.5Q60.4 112.5 61.3 111.9Q62.3 111.4 63.5 111.4L63.5 111.4Q65.2 111.4 66.3 112.4Q67.3 113.5 67.5 115.3L67.5 115.3L67.5 115.9Q67.5 117.8 66.4 119.0Q65.3 120.2 63.5 120.2Q61.6 120.2 60.6 119.0Q59.5 117.8 59.5 115.8L59.5 115.8ZM61.7 115.9L61.7 115.9Q61.7 117.1 62.2 117.7Q62.6 118.3 63.5 118.3L63.5 118.3Q64.3 118.3 64.8 117.7Q65.2 117.1 65.2 115.7L65.2 115.7Q65.2 114.5 64.8 113.9Q64.3 113.2 63.5 113.2L63.5 113.2Q62.6 113.2 62.2 113.9Q61.7 114.5 61.7 115.9Z "/></g><mask id="satori_om-id-1-8-2"><rect x="78" y="105" width="34" height="19" fill="#fff"/></mask><g  ><path fill="#57606a" d="M83.7 108.6L83.7 120L82.2 120L82.2 110.4L79.3 111.4L79.3 110.1L83.5 108.6L83.7 108.6ZM88.1 119.2L88.1 119.2Q88.1 118.9 88.3 118.6Q88.6 118.4 89 118.4Q89.4 118.4 89.7 118.6Q89.9 118.9 89.9 119.2L89.9 119.2Q89.9 119.6 89.7 119.8Q89.4 120.1 89 120.1Q88.6 120.1 88.3 119.8Q88.1 119.6 88.1 119.2ZM99.0 111.6L99.0 111.6Q99.0 112.4 98.6 113.1Q98.1 113.8 97.4 114.1L97.4 114.1Q98.3 114.5 98.8 115.3Q99.3 116 99.3 116.9L99.3 116.9Q99.3 118.4 98.3 119.3Q97.3 120.2 95.7 120.2L95.7 120.2Q94.0 120.2 93.1 119.3Q92.1 118.4 92.1 116.9L92.1 116.9Q92.1 116.0 92.6 115.3Q93.1 114.5 94.0 114.1L94.0 114.1Q93.2 113.8 92.8 113.1Q92.3 112.4 92.3 111.6L92.3 111.6Q92.3 110.2 93.3 109.3Q94.2 108.5 95.7 108.5L95.7 108.5Q97.2 108.5 98.1 109.3Q99.0 110.2 99.0 111.6ZM97.9 116.9L97.9 116.9Q97.9 115.9 97.3 115.3Q96.6 114.7 95.7 114.7Q94.7 114.7 94.1 115.3Q93.5 115.9 93.5 116.9Q93.5 117.9 94.1 118.4Q94.7 119.0 95.7 119.0L95.7 119.0Q96.7 119.0 97.3 118.4Q97.9 117.9 97.9 116.9ZM95.7 109.7L95.7 109.7Q94.8 109.7 94.3 110.2Q93.8 110.7 93.8 111.6L93.8 111.6Q93.8 112.5 94.3 113.0Q94.8 113.6 95.7 113.6Q96.6 113.6 97.1 113.0Q97.6 112.5 97.6 111.6Q97.6 110.8 97.1 110.2Q96.5 109.7 95.7 109.7ZM101 111.4L101 110.8Q101 109.8 101.7 109.1Q102.3 108.5 103.3 108.5L103.3 108.5Q104.4 108.5 105.0 109.1Q105.7 109.8 105.7 110.9L105.7 110.9L105.7 111.4Q105.7 112.4 105.0 113.1Q104.4 113.8 103.3 113.8L103.3 113.8Q102.3 113.8 101.7 113.1Q101 112.4 101 111.4L101 111.4ZM102.1 110.8L102.1 111.4Q102.1 112.0 102.4 112.4Q102.8 112.8 103.3 112.8L103.3 112.8Q103.9 112.8 104.2 112.4Q104.6 112.0 104.6 111.4L104.6 111.4L104.6 110.8Q104.6 110.2 104.2 109.8Q103.9 109.4 103.3 109.4Q102.8 109.4 102.4 109.8Q102.1 110.2 102.1 110.8L102.1 110.8ZM106.5 117.8L106.5 117.2Q106.5 116.2 107.2 115.5Q107.8 114.9 108.9 114.9Q109.9 114.9 110.5 115.5Q111.2 116.2 111.2 117.3L111.2 117.3L111.2 117.8Q111.2 118.8 110.6 119.5Q109.9 120.2 108.9 120.2Q107.9 120.2 107.2 119.5Q106.5 118.9 106.5 117.8L106.5 117.8ZM107.6 117.2L107.6 117.8Q107.6 118.4 108.0 118.8Q108.3 119.2 108.9 119.2L108.9 119.2Q109.4 119.2 109.8 118.8Q110.1 118.5 110.1 117.8L110.1 117.8L110.1 117.2Q110.1 116.6 109.8 116.2Q109.4 115.8 108.9 115.8L108.9 115.8Q108.3 115.8 108.0 116.2Q107.6 116.6 107.6 117.2L107.6 117.2ZM109.2 110.3L103.7 119.1L102.9 118.6L108.4 109.7L109.2 110.3Z "/></g><mask id="satori_om-id-1-9"><rect x="122" y="105" width="105" height="19" fill="#fff"/></mask><mask id="satori_om-id-1-9-0"><rect x="122" y="107" width="16" height="16" fill="#fff"/></mask><mask id="satori_om-id-1-9-0-0"><rect x="126" y="111" width="8" height="8" fill="#fff"/></mask><path x="126" y="111" width="8" height="8" fill="#dea584" d="M130,111 h0 a4,4 0 0 1 4,4 v0 a4,4 0 0 1 -4,4 h0 a4,4 0 0 1 -4,-4 v0 a4,4 0 0 1 4,-4"/><mask id="satori_om-id-1-9-1"><rect x="151" y="105" width="33" height="19" fill="#fff"/></mask><g  ><path fill="#24292f" d="M158.4 120L156.2 115.8L154.4 115.8L154.4 120L152.0 120L152.0 108.6L156.2 108.6Q158.3 108.6 159.4 109.5Q160.4 110.4 160.4 112.1L160.4 112.1Q160.4 113.2 159.9 114.0Q159.4 114.8 158.4 115.2L158.4 115.2L160.9 119.9L160.9 120L158.4 120ZM154.4 110.5L154.4 113.9L156.3 113.9Q157.1 113.9 157.6 113.5Q158.1 113.0 158.1 112.3L158.1 112.3Q158.1 111.4 157.6 111.0Q157.2 110.5 156.2 110.5L156.2 110.5L154.4 110.5ZM167.2 120L167.1 119.1Q166.3 120.2 164.8 120.2L164.8 120.2Q163.5 120.2 162.8 119.4Q162.0 118.6 162.0 117.1L162.0 117.1L162.0 111.5L164.3 111.5L164.3 117.0Q164.3 118.3 165.5 118.3L165.5 118.3Q166.6 118.3 167.1 117.5L167.1 117.5L167.1 111.5L169.3 111.5L169.3 120L167.2 120ZM175.6 117.7L175.6 117.7Q175.6 117.3 175.2 117.0Q174.8 116.8 173.9 116.6L173.9 116.6Q170.9 116.0 170.9 114.0L170.9 114.0Q170.9 112.9 171.8 112.1Q172.7 111.4 174.2 111.4L174.2 111.4Q175.9 111.4 176.8 112.1Q177.8 112.9 177.8 114.1L177.8 114.1L175.5 114.1Q175.5 113.6 175.2 113.3Q174.9 113 174.2 113L174.2 113Q173.7 113 173.4 113.3Q173.0 113.5 173.0 113.9L173.0 113.9Q173.0 114.3 173.4 114.5Q173.8 114.8 174.6 114.9Q175.4 115.1 176.0 115.3L176.0 115.3Q177.8 116.0 177.8 117.6L177.8 117.6Q177.8 118.7 176.8 119.4Q175.8 120.2 174.3 120.2L174.3 120.2Q173.2 120.2 172.4 119.8Q171.5 119.4 171.1 118.7Q170.6 118.1 170.6 117.3L170.6 117.3L172.7 117.3Q172.8 117.9 173.2 118.2Q173.6 118.6 174.3 118.6L174.3 118.6Q174.9 118.6 175.3 118.3Q175.6 118.1 175.6 117.7ZM179.7 109.5L182.0 109.5L182.0 111.5L183.4 111.5L183.4 113.2L182.0 113.2L182.0 117.4Q182.0 117.9 182.1 118.1Q182.3 118.3 182.8 118.3L182.8 118.3Q183.2 118.3 183.5 118.2L183.5 118.2L183.5 120.0Q182.8 120.2 182.1 120.2L182.1 120.2Q179.8 120.2 179.7 117.8L179.7 117.8L179.7 113.2L178.5 113.2L178.5 111.5L179.7 111.5L179.7 109.5Z "/></g><mask id="satori_om-id-1-9-2"><rect x="193" y="105" width="34" height="19" fill="#fff"/></mask><g  ><path fill="#57606a" d="M198.7 108.6L198.7 120L197.2 120L197.2 110.4L194.3 111.4L194.3 110.1L198.5 108.6L198.7 108.6ZM203.1 119.2L203.1 119.2Q203.1 118.9 203.3 118.6Q203.6 118.4 204 118.4Q204.4 118.4 204.7 118.6Q204.9 118.9 204.9 119.2L204.9 119.2Q204.9 119.6 204.7 119.8Q204.4 120.1 204 120.1Q203.6 120.1 203.3 119.8Q203.1 119.6 203.1 119.2ZM214.0 111.6L214.0 111.6Q214.0 112.4 213.6 113.1Q213.1 113.8 212.4 114.1L212.4 114.1Q213.3 114.5 213.8 115.3Q214.3 116 214.3 116.9L214.3 116.9Q214.3 118.4 213.3 119.3Q212.3 120.2 210.7 120.2L210.7 120.2Q209.0 120.2 208.1 119.3Q207.1 118.4 207.1 116.9L207.1 116.9Q207.1 116.0 207.6 115.3Q208.1 114.5 209.0 114.1L209.0 114.1Q208.2 113.8 207.8 113.1Q207.3 112.4 207.3 111.6L207.3 111.6Q207.3 110.2 208.3 109.3Q209.2 108.5 210.7 108.5L210.7 108.5Q212.2 108.5 213.1 109.3Q214.0 110.2 214.0 111.6ZM212.9 116.9L212.9 116.9Q212.9 115.9 212.3 115.3Q211.6 114.7 210.7 114.7Q209.7 114.7 209.1 115.3Q208.5 115.9 208.5 116.9Q208.5 117.9 209.1 118.4Q209.7 119.0 210.7 119.0L210.7 119.0Q211.7 119.0 212.3 118.4Q212.9 117.9 212.9 116.9ZM210.7 109.7L210.7 109.7Q209.8 109.7 209.3 110.2Q208.8 110.7 208.8 111.6L208.8 111.6Q208.8 112.5 209.3 113.0Q209.8 113.6 210.7 113.6Q211.6 113.6 212.1 113.0Q212.6 112.5 212.6 111.6Q212.6 110.8 212.1 110.2Q211.5 109.7 210.7 109.7ZM216 111.4L216 110.8Q216 109.8 216.7 109.1Q217.3 108.5 218.3 108.5L218.3 108.5Q219.4 108.5 220.0 109.1Q220.7 109.8 220.7 110.9L220.7 110.9L220.7 111.4Q220.7 112.4 220.0 113.1Q219.4 113.8 218.3 113.8L218.3 113.8Q217.3 113.8 216.7 113.1Q216 112.4 216 111.4L216 111.4ZM217.1 110.8L217.1 111.4Q217.1 112.0 217.4 112.4Q217.8 112.8 218.3 112.8L218.3 112.8Q218.9 112.8 219.2 112.4Q219.6 112.0 219.6 111.4L219.6 111.4L219.6 110.8Q219.6 110.2 219.2 109.8Q218.9 109.4 218.3 109.4Q217.8 109.4 217.4 109.8Q217.1 110.2 217.1 110.8L217.1 110.8ZM221.5 117.8L221.5 117.2Q221.5 116.2 222.2 115.5Q222.8 114.9 223.9 114.9Q224.9 114.9 225.5 115.5Q226.2 116.2 226.2 117.3L226.2 117.3L226.2 117.8Q226.2 118.8 225.6 119.5Q224.9 120.2 223.9 120.2Q222.9 120.2 222.2 119.5Q221.5 118.9 221.5 117.8L221.5 117.8ZM222.6 117.2L222.6 117.8Q222.6 118.4 223.0 118.8Q223.3 119.2 223.9 119.2L223.9 119.2Q224.4 119.2 224.8 118.8Q225.1 118.5 225.1 117.8L225.1 117.8L225.1 117.2Q225.1 116.6 224.8 116.2Q224.4 115.8 223.9 115.8L223.9 115.8Q223.3 115.8 223.0 116.2Q222.6 116.6 222.6 117.2L222.6 117.2ZM224.2 110.3L218.7 119.1L217.9 118.6L223.4 109.7L224.2 110.3Z "/></g></svg>