<svg width="375" height="200" viewBox="0 0 375 200" xmlns="http://www.w3.org/2000/svg"><mask id="satori_om-id"><rect x="0" y="0" width="375" height="124" fill="#fff"/></mask><clipPath id="satori_cp-id-0"><path x="0" y="0" width="375" height="8" d="M4,0 h367 a4,4 0 0 1 4,4 v0 a4,4 0 0 1 -4,4 h-367 a4,4 0 0 1 -4,-4 v0 a4,4 0 0 1 4,-4"/></clipPath><mask id="satori_om-id-0"><rect x="0" y="0" width="375" height="8" fill="#fff"/></mask><mask id="satori_om-id-0-0"><rect x="0" y="0" width="224" height="8" fill="#fff" mask="url(#satori_om-id-0)"/></mask><rect x="0" y="0" width="224" height="8" fill="#3178c6" clip-path="url(#satori_cp-id-0)" mask="url(#satori_om-id-0)"/><mask id="satori_om-id-0-1"><rect x="224" y="0" width="37" height="8" fill="#fff" mask="url(#satori_om-id-0)"/></mask><rect x="224" y="0" width="37" height="8" fill="#3572A5" clip-path="url(#satori_cp-id-0)" mask="url(#satori_om-id-0)"/><mask id="satori_om-id-0-2"><rect x="261" y="0" width="29" height="8" fill="#fff" mask="url(#satori_om-id-0)"/></mask><rect x="261" y="0" width="29" height="8" fill="#701516" clip-path="url(#satori_cp-id-0)" mask="url(#satori_om-id-0)"/><mask id="satori_om-id-0-3"><rect x="290" y="0" width="18" height="8" fill="#fff" mask="url(#satori_om-id-0)"/></mask><rect x="290" y="0" width="18" height="8" fill="#00ADD8" clip-path="url(#satori_cp-id-0)" mask="url(#satori_om-id-0)"/><mask id="satori_om-id-0-4"><rect x="308" y="0" width="11" height="8" fill="#fff" mask="url(#satori_om-id-0)"/></mask><rect x="308" y="0" width="11" height="8" fill="#e34c26" clip-path="url(#satori_cp-id-0)" mask="url(#satori_om-id-0)"/><mask id="satori_om-id-0-5"><rect x="319" y="0" width="10" height="8" fill="#fff" mask="url(#satori_om-id-0)"/></mask><rect x="319" y="0" width="10" height="8" fill="#663399" clip-path="url(#satori_cp-id-0)" mask="url(#satori_om-id-0)"/><mask id="satori_om-id-0-6"><rect x="329" y="0" width="9" height="8" fill="#fff" mask="url(#satori_om-id-0)"/></mask><rect x="329" y="0" width="9" height="8" fill="#844FBA" clip-path="url(#satori_cp-id-0)" mask="url(#satori_om-id-0)"/><mask id="satori_om-id-0-7"><rect x="338" y="0" width="7" height="8" fill="#fff" mask="url(#satori_om-id-0)"/></mask><rect x="338" y="0" width="7" height="8" fill="#f1e05a" clip-path="url(#satori_cp-id-0)" mask="url(#satori_om-id-0)"/><mask id="satori_om-id-0-8"><rect x="345" y="0" width="5" height="8" fill="#fff" mask="url(#satori_om-id-0)"/></mask><rect x="345" y="0" width="5" height="8" fill="#ff5a03" clip-path="url(#satori_cp-id-0)" mask="url(#satori_om-id-0)"/><mask id="satori_om-id-0-9"><rect x="350" y="0" width="5" height="8" fill="#fff" mask="url(#satori_om-id-0)"/></mask><rect x="350" y="0" width="5" height="8" fill="#dea584" clip-path="url(#satori_cp-id-0)" mask="url(#satori_om-id-0)"/><mask id="satori_om-id-1"><rect x="0" y="18" width="375" height="106" fill="#fff"/></mask><mask id="satori_om-id-1-0"><rect x="0" y="18" width="160" height="19" fill="#fff"/></mask><mask id="satori_om-id-1-0-0"><rect x="0" y="20" width="16" height="16" fill="#fff"/></mask><mask id="satori_om-id-1-0-0-0"><rect x="4" y="24" width="8" height="8" fill="#fff"/></mask><path x="4" y="24" width="8" height="8" fill="#3178c6" d="M8,24 h0 a4,4 0 0 1 4,4 v0 a4,4 0 0 1 -4,4 h0 a4,4 0 0 1 -4,-4 v0 a4,4 0 0 1 4,-4"/><mask id="satori_om-id-1-0-1"><rect x="29" y="18" width="79" height="19" fill="#fff"/></mask><g  ><path fill="#24292f" d="M38.6 21.6L38.6 23.5L35.1 23.5L35.1 33L32.8 33L32.8 23.5L29.3 23.5L29.3 21.6L38.6 21.6ZM40.7 24.5L42.3 29.8L43.8 24.5L46.3 24.5L42.9 34.3L42.7 34.8Q41.9 36.4 40.2 36.4L40.2 36.4Q39.7 36.4 39.2 36.3L39.2 36.3L39.2 34.6L39.5 34.6Q40.2 34.6 40.5 34.4Q40.8 34.2 41.0 33.7L41.0 33.7L41.2 33.0L38.3 24.5L40.7 24.5ZM54.8 28.7L54.8 28.9Q54.8 30.8 53.9 32.0Q53.0 33.2 51.5 33.2L51.5 33.2Q50.2 33.2 49.4 32.3L49.4 32.3L49.4 36.3L47.2 36.3L47.2 24.5L49.3 24.5L49.3 25.4Q50.1 24.4 51.5 24.4L51.5 24.4Q53.0 24.4 53.9 25.5Q54.8 26.7 54.8 28.7L54.8 28.7ZM52.5 28.7L52.5 28.7Q52.5 27.5 52.1 26.9Q51.7 26.2 50.9 26.2L50.9 26.2Q49.8 26.2 49.4 27.0L49.4 27.0L49.4 30.5Q49.8 31.3 50.9 31.3L50.9 31.3Q52.5 31.3 52.5 28.7ZM60.1 33.2L60.1 33.2Q58.2 33.2 57.0 32.0Q55.9 30.9 55.9 29.0L55.9 29.0L55.9 28.8Q55.9 27.5 56.4 26.5Q56.8 25.5 57.7 24.9Q58.6 24.4 59.8 24.4L59.8 24.4Q61.5 24.4 62.5 25.5Q63.5 26.6 63.5 28.6L63.5 28.6L63.5 29.5L58.1 29.5Q58.3 30.3 58.8 30.8Q59.4 31.3 60.2 31.3L60.2 31.3Q61.5 31.3 62.2 30.4L62.2 30.4L63.4 31.6Q62.8 32.4 62.0 32.8Q61.1 33.2 60.1 33.2ZM59.8 26.2L59.8 26.2Q59.1 26.2 58.7 26.7Q58.3 27.1 58.2 28.0L58.2 28.0L61.3 28.0L61.3 27.8Q61.3 27.0 60.9 26.6Q60.5 26.2 59.8 26.2ZM70.9 30.0L70.9 30.0Q70.9 29.4 70.4 29.0Q69.9 28.6 68.7 28.2Q67.5 27.9 66.8 27.5L66.8 27.5Q64.8 26.4 64.8 24.6L64.8 24.6Q64.8 23.7 65.4 23.0Q65.9 22.3 66.8 21.9Q67.8 21.5 69.0 21.5L69.0 21.5Q70.3 21.5 71.2 21.9Q72.2 22.4 72.7 23.2Q73.2 24.0 73.2 25.0L73.2 25.0L70.9 25.0Q70.9 24.2 70.4 23.8Q69.9 23.3 69.0 23.3L69.0 23.3Q68.1 23.3 67.7 23.7Q67.2 24.1 67.2 24.7L67.2 24.7Q67.2 25.2 67.7 25.6Q68.3 26.0 69.4 26.3L69.4 26.3Q71.4 26.9 72.3 27.8Q73.2 28.7 73.2 30L73.2 30Q73.2 31.5 72.1 32.3Q71.0 33.2 69.1 33.2L69.1 33.2Q67.8 33.2 66.7 32.7Q65.6 32.2 65.1 31.4Q64.5 30.5 64.5 29.4L64.5 29.4L66.8 29.4Q66.8 31.3 69.1 31.3L69.1 31.3Q69.9 31.3 70.4 31.0Q70.9 30.6 70.9 30.0ZM78.2 31.3L78.2 31.3Q78.8 31.3 79.2 31.0Q79.6 30.6 79.6 30.1L79.6 30.1L81.7 30.1Q81.7 30.9 81.2 31.7Q80.8 32.4 80.0 32.8Q79.2 33.2 78.2 33.2L78.2 33.2Q76.4 33.2 75.3 32.0Q74.3 30.9 74.3 28.8L74.3 28.8L74.3 28.7Q74.3 26.7 75.3 25.6Q76.4 24.4 78.2 24.4L78.2 24.4Q79.8 24.4 80.7 25.3Q81.7 26.2 81.7 27.7L81.7 27.7L79.6 27.7Q79.6 27.0 79.2 26.6Q78.8 26.2 78.1 26.2L78.1 26.2Q77.4 26.2 77.0 26.8Q76.6 27.4 76.6 28.7L76.6 28.7L76.6 28.9Q76.6 30.2 77.0 30.8Q77.4 31.3 78.2 31.3ZM87.8 24.5L87.7 26.7Q87.3 26.6 86.9 26.6L86.9 26.6Q85.6 26.6 85.3 27.5L85.3 27.5L85.3 33L83.0 33L83.0 24.5L85.1 24.5L85.2 25.6Q85.9 24.4 87.1 24.4L87.1 24.4Q87.4 24.4 87.8 24.5L87.8 24.5ZM91.2 24.5L91.2 33L88.9 33L88.9 24.5L91.2 24.5ZM88.8 22.4L88.8 22.4Q88.8 21.9 89.2 21.5Q89.5 21.2 90.1 21.2L90.1 21.2Q90.7 21.2 91 21.5Q91.3 21.9 91.3 22.4L91.3 22.4Q91.3 22.9 91.0 23.2Q90.6 23.5 90.1 23.5Q89.5 23.5 89.2 23.2Q88.8 22.9 88.8 22.4ZM100.7 28.7L100.7 28.9Q100.7 30.8 99.8 32.0Q98.9 33.2 97.4 33.2L97.4 33.2Q96.1 33.2 95.3 32.3L95.3 32.3L95.3 36.3L93.1 36.3L93.1 24.5L95.2 24.5L95.2 25.4Q96.1 24.4 97.4 24.4L97.4 24.4Q98.9 24.4 99.8 25.5Q100.7 26.7 100.7 28.7L100.7 28.7ZM98.4 28.7L98.4 28.7Q98.4 27.5 98.0 26.9Q97.6 26.2 96.8 26.2L96.8 26.2Q95.7 26.2 95.3 27.0L95.3 27.0L95.3 30.5Q95.7 31.3 96.8 31.3L96.8 31.3Q98.4 31.3 98.4 28.7ZM102.5 22.5L104.8 22.5L104.8 24.5L106.2 24.5L106.2 26.2L104.8 26.2L104.8 30.4Q104.8 30.9 105.0 31.1Q105.1 31.3 105.6 31.3L105.6 31.3Q106.0 31.3 106.3 31.2L106.3 31.2L106.3 33.0Q105.6 33.2 104.9 33.2L104.9 33.2Q102.6 33.2 102.5 30.8L102.5 30.8L102.5 26.2L101.3 26.2L101.3 24.5L102.5 24.5L102.5 22.5Z "/></g><mask id="satori_om-id-1-0-2"><rect x="117" y="18" width="43" height="19" fill="#fff"/></mask><g  ><path fill="#57606a" d="M119.8 27.6L118.6 27.3L119.2 21.6L125.0 21.6L125.0 23.0L120.4 23.0L120.1 26.1Q120.9 25.6 122.0 25.6L122.0 25.6Q123.5 25.6 124.4 26.6Q125.4 27.6 125.4 29.4L125.4 29.4Q125.4 31.1 124.4 32.1Q123.5 33.2 121.8 33.2L121.8 33.2Q120.2 33.2 119.3 32.3Q118.3 31.5 118.2 30.0L118.2 30.0L119.6 30.0Q119.7 31.0 120.3 31.5Q120.8 32.0 121.8 32.0L121.8 32.0Q122.8 32.0 123.3 31.3Q123.9 30.6 123.9 29.4L123.9 29.4Q123.9 28.3 123.3 27.6Q122.7 26.9 121.6 26.9L121.6 26.9Q120.7 26.9 120.1 27.3L120.1 27.3L119.8 27.6ZM132.5 28L132.5 28Q132.0 28.5 131.4 28.9Q130.8 29.2 130.0 29.2L130.0 29.2Q129.0 29.2 128.3 28.7Q127.6 28.2 127.2 27.3Q126.8 26.5 126.8 25.4L126.8 25.4Q126.8 24.3 127.2 23.4Q127.6 22.4 128.4 22.0Q129.2 21.5 130.3 21.5L130.3 21.5Q132.0 21.5 132.9 22.7Q133.9 24.0 133.9 26.2L133.9 26.2L133.9 26.6Q133.9 29.9 132.6 31.4Q131.3 33.0 128.6 33.0L128.6 33.0L128.4 33.0L128.4 31.8L128.7 31.8Q130.5 31.8 131.4 30.9Q132.4 30.0 132.5 28ZM130.2 28L130.2 28Q131.0 28 131.6 27.6Q132.2 27.1 132.5 26.5L132.5 26.5L132.5 25.9Q132.5 24.5 131.9 23.6Q131.2 22.7 130.3 22.7L130.3 22.7Q129.3 22.7 128.8 23.4Q128.2 24.1 128.2 25.3L128.2 25.3Q128.2 26.5 128.7 27.2Q129.3 28 130.2 28ZM136.1 32.2L136.1 32.2Q136.1 31.9 136.3 31.6Q136.5 31.4 137.0 31.4Q137.4 31.4 137.7 31.6Q137.9 31.9 137.9 32.2L137.9 32.2Q137.9 32.6 137.7 32.8Q137.4 33.1 137.0 33.1Q136.5 33.1 136.3 32.8Q136.1 32.6 136.1 32.2ZM147.0 24.6L147.0 24.6Q147.0 25.4 146.6 26.1Q146.1 26.8 145.4 27.1L145.4 27.1Q146.3 27.5 146.8 28.3Q147.3 29 147.3 29.9L147.3 29.9Q147.3 31.4 146.3 32.3Q145.3 33.2 143.7 33.2L143.7 33.2Q142.0 33.2 141.0 32.3Q140.1 31.4 140.1 29.9L140.1 29.9Q140.1 29.0 140.6 28.3Q141.1 27.5 142.0 27.1L142.0 27.1Q141.2 26.8 140.8 26.1Q140.3 25.4 140.3 24.6L140.3 24.6Q140.3 23.2 141.2 22.3Q142.2 21.5 143.7 21.5L143.7 21.5Q145.2 21.5 146.1 22.3Q147.0 23.2 147.0 24.6ZM145.8 29.9L145.8 29.9Q145.8 28.9 145.2 28.3Q144.6 27.7 143.7 27.7Q142.7 27.7 142.1 28.3Q141.5 28.9 141.5 29.9Q141.5 30.9 142.1 31.4Q142.6 32.0 143.7 32.0L143.7 32.0Q144.7 32.0 145.3 31.4Q145.8 30.9 145.8 29.9ZM143.7 22.7L143.7 22.7Q142.8 22.7 142.3 23.2Q141.8 23.7 141.8 24.6L141.8 24.6Q141.8 25.5 142.3 26.0Q142.8 26.6 143.7 26.6Q144.5 26.6 145.1 26.0Q145.6 25.5 145.6 24.6Q145.6 23.8 145.0 23.2Q144.5 22.7 143.7 22.7ZM149.0 24.4L149.0 23.8Q149.0 22.8 149.6 22.1Q150.3 21.5 151.3 21.5L151.3 21.5Q152.4 21.5 153.0 22.1Q153.6 22.8 153.6 23.9L153.6 23.9L153.6 24.4Q153.6 25.4 153.0 26.1Q152.3 26.8 151.3 26.8L151.3 26.8Q150.3 26.8 149.6 26.1Q149.0 25.4 149.0 24.4L149.0 24.4ZM150.1 23.8L150.1 24.4Q150.1 25.0 150.4 25.4Q150.8 25.8 151.3 25.8L151.3 25.8Q151.9 25.8 152.2 25.4Q152.6 25.0 152.6 24.4L152.6 24.4L152.6 23.8Q152.6 23.2 152.2 22.8Q151.9 22.4 151.3 22.4Q150.7 22.4 150.4 22.8Q150.1 23.2 150.1 23.8L150.1 23.8ZM154.5 30.8L154.5 30.2Q154.5 29.2 155.2 28.5Q155.8 27.9 156.9 27.9Q157.9 27.9 158.5 28.5Q159.2 29.2 159.2 30.3L159.2 30.3L159.2 30.8Q159.2 31.8 158.5 32.5Q157.9 33.2 156.9 33.2Q155.9 33.2 155.2 32.5Q154.5 31.9 154.5 30.8L154.5 30.8ZM155.6 30.2L155.6 30.8Q155.6 31.4 155.9 31.8Q156.3 32.2 156.9 32.2L156.9 32.2Q157.4 32.2 157.8 31.8Q158.1 31.5 158.1 30.8L158.1 30.8L158.1 30.2Q158.1 29.6 157.8 29.2Q157.4 28.8 156.9 28.8L156.9 28.8Q156.3 28.8 155.9 29.2Q155.6 29.6 155.6 30.2L155.6 30.2ZM157.2 23.3L151.7 32.1L150.8 31.6L156.4 22.7L157.2 23.3Z "/></g><mask id="satori_om-id-1-1"><rect x="170" y="18" width="123" height="19" fill="#fff"/></mask><mask id="satori_om-id-1-1-0"><rect x="170" y="20" width="16" height="16" fill="#fff"/></mask><mask id="satori_om-id-1-1-0-0"><rect x="174" y="24" width="8" height="8" fill="#fff"/></mask><path x="174" y="24" width="8" height="8" fill="#3572A5" d="M178,24 h0 a4,4 0 0 1 4,4 v0 a4,4 0 0 1 -4,4 h0 a4,4 0 0 1 -4,-4 v0 a4,4 0 0 1 4,-4"/><mask id="satori_om-id-1-1-1"><rect x="199" y="18" width="51" height="19" fill="#fff"/></mask><g  ><path fill="#24292f" d="M204.4 29.0L202.4 29.0L202.4 33L200.0 33L200.0 21.6L204.5 21.6Q205.7 21.6 206.7 22.1Q207.7 22.6 208.2 23.4Q208.7 24.3 208.7 25.4L208.7 25.4Q208.7 27.1 207.6 28.0Q206.4 29.0 204.4 29.0L204.4 29.0ZM202.4 23.5L202.4 27.1L204.5 27.1Q205.4 27.1 205.9 26.7Q206.4 26.2 206.4 25.4L206.4 25.4Q206.4 24.6 205.9 24.1Q205.4 23.5 204.5 23.5L204.5 23.5L202.4 23.5ZM211.9 24.5L213.5 29.8L215.0 24.5L217.4 24.5L214.0 34.3L213.9 34.8Q213.1 36.4 211.4 36.4L211.4 36.4Q210.9 36.4 210.4 36.3L210.4 36.3L210.4 34.6L210.7 34.6Q211.3 34.6 211.7 34.4Q212.0 34.2 212.2 33.7L212.2 33.7L212.4 33.0L209.5 24.5L211.9 24.5ZM218.8 22.5L221.0 22.5L221.0 24.5L222.5 24.5L222.5 26.2L221.0 26.2L221.0 30.4Q221.0 30.9 221.2 31.1Q221.4 31.3 221.9 31.3L221.9 31.3Q222.3 31.3 222.6 31.2L222.6 31.2L222.6 33.0Q221.9 33.2 221.2 33.2L221.2 33.2Q218.8 33.2 218.8 30.8L218.8 30.8L218.8 26.2L217.5 26.2L217.5 24.5L218.8 24.5L218.8 22.5ZM225.9 21L225.9 25.5Q226.8 24.4 228.2 24.4L228.2 24.4Q231.0 24.4 231.0 27.6L231.0 27.6L231.0 33L228.7 33L228.7 27.6Q228.7 26.9 228.4 26.6Q228.1 26.2 227.4 26.2L227.4 26.2Q226.4 26.2 225.9 27.0L225.9 27.0L225.9 33L223.7 33L223.7 21L225.9 21ZM232.3 28.8L232.3 28.7Q232.3 27.4 232.8 26.5Q233.3 25.5 234.2 24.9Q235.1 24.4 236.3 24.4L236.3 24.4Q238.0 24.4 239.1 25.4Q240.2 26.5 240.3 28.3L240.3 28.3L240.4 28.9Q240.4 30.8 239.3 32.0Q238.2 33.2 236.4 33.2Q234.5 33.2 233.4 32.0Q232.3 30.8 232.3 28.8L232.3 28.8ZM234.6 28.9L234.6 28.9Q234.6 30.1 235.1 30.7Q235.5 31.3 236.4 31.3L236.4 31.3Q237.2 31.3 237.6 30.7Q238.1 30.1 238.1 28.7L238.1 28.7Q238.1 27.5 237.6 26.9Q237.2 26.2 236.3 26.2L236.3 26.2Q235.5 26.2 235.1 26.9Q234.6 27.5 234.6 28.9ZM241.7 24.5L243.8 24.5L243.9 25.5Q244.8 24.4 246.3 24.4L246.3 24.4Q247.7 24.4 248.3 25.2Q249.0 26.0 249.0 27.5L249.0 27.5L249.0 33L246.7 33L246.7 27.6Q246.7 26.9 246.4 26.6Q246.1 26.2 245.4 26.2L245.4 26.2Q244.4 26.2 244.0 27.0L244.0 27.0L244.0 33L241.7 33L241.7 24.5Z "/></g><mask id="satori_om-id-1-1-2"><rect x="259" y="18" width="34" height="19" fill="#fff"/></mask><g  ><path fill="#57606a" d="M265.5 28L265.5 28Q265.0 28.5 264.4 28.9Q263.8 29.2 263.0 29.2L263.0 29.2Q262.0 29.2 261.3 28.7Q260.6 28.2 260.2 27.3Q259.8 26.5 259.8 25.4L259.8 25.4Q259.8 24.3 260.2 23.4Q260.6 22.4 261.4 22.0Q262.2 21.5 263.3 21.5L263.3 21.5Q265.0 21.5 266.0 22.7Q266.9 24.0 266.9 26.2L266.9 26.2L266.9 26.6Q266.9 29.9 265.6 31.4Q264.3 33.0 261.7 33.0L261.7 33.0L261.4 33.0L261.4 31.8L261.7 31.8Q263.5 31.8 264.4 30.9Q265.4 30.0 265.5 28ZM263.3 28L263.3 28Q264.0 28 264.6 27.6Q265.2 27.1 265.5 26.5L265.5 26.5L265.5 25.9Q265.5 24.5 264.9 23.6Q264.3 22.7 263.3 22.7L263.3 22.7Q262.4 22.7 261.8 23.4Q261.2 24.1 261.2 25.3L261.2 25.3Q261.2 26.5 261.8 27.2Q262.3 28 263.3 28ZM269.1 32.2L269.1 32.2Q269.1 31.9 269.3 31.6Q269.6 31.4 270 31.4Q270.4 31.4 270.7 31.6Q270.9 31.9 270.9 32.2L270.9 32.2Q270.9 32.6 270.7 32.8Q270.4 33.1 270 33.1Q269.6 33.1 269.3 32.8Q269.1 32.6 269.1 32.2ZM280.5 21.6L280.5 22.4L275.8 33L274.3 33L279.0 22.8L272.8 22.8L272.8 21.6L280.5 21.6ZM282 24.4L282 23.8Q282 22.8 282.7 22.1Q283.3 21.5 284.3 21.5L284.3 21.5Q285.4 21.5 286.0 22.1Q286.7 22.8 286.7 23.9L286.7 23.9L286.7 24.4Q286.7 25.4 286.0 26.1Q285.4 26.8 284.3 26.8L284.3 26.8Q283.3 26.8 282.7 26.1Q282 25.4 282 24.4L282 24.4ZM283.1 23.8L283.1 24.4Q283.1 25.0 283.4 25.4Q283.8 25.8 284.3 25.8L284.3 25.8Q284.9 25.8 285.2 25.4Q285.6 25.0 285.6 24.4L285.6 24.4L285.6 23.8Q285.6 23.2 285.2 22.8Q284.9 22.4 284.3 22.4Q283.8 22.4 283.4 22.8Q283.1 23.2 283.1 23.8L283.1 23.8ZM287.5 30.8L287.5 30.2Q287.5 29.2 288.2 28.5Q288.8 27.9 289.9 27.9Q290.9 27.9 291.5 28.5Q292.2 29.2 292.2 30.3L292.2 30.3L292.2 30.8Q292.2 31.8 291.6 32.5Q290.9 33.2 289.9 33.2Q288.9 33.2 288.2 32.5Q287.5 31.9 287.5 30.8L287.5 30.8ZM288.6 30.2L288.6 30.8Q288.6 31.4 289.0 31.8Q289.3 32.2 289.9 32.2L289.9 32.2Q290.4 32.2 290.8 31.8Q291.1 31.5 291.1 30.8L291.1 30.8L291.1 30.2Q291.1 29.6 290.8 29.2Q290.4 28.8 289.9 28.8L289.9 28.8Q289.3 28.8 289.0 29.2Q288.6 29.6 288.6 30.2L288.6 30.2ZM290.2 23.3L284.7 32.1L283.9 31.6L289.4 22.7L290.2 23.3Z "/></g><mask id="satori_om-id-1-2"><rect x="0" y="47" width="109" height="19" fill="#fff"/></mask><mask id="satori_om-id-1-2-0"><rect x="0" y="49" width="16" height="16" fill="#fff"/></mask><mask id="satori_om-id-1-2-0-0"><rect x="4" y="53" width="8" height="8" fill="#fff"/></mask><path x="4" y="53" width="8" height="8" fill="#701516" d="M8,53 h0 a4,4 0 0 1 4,4 v0 a4,4 0 0 1 -4,4 h0 a4,4 0 0 1 -4,-4 v0 a4,4 0 0 1 4,-4"/><mask id="satori_om-id-1-2-1"><rect x="29" y="47" width="37" height="19" fill="#fff"/></mask><g  ><path fill="#24292f" d="M36.4 62L34.2 57.8L32.4 57.8L32.4 62L30.0 62L30.0 50.6L34.2 50.6Q36.3 50.6 37.4 51.5Q38.4 52.4 38.4 54.1L38.4 54.1Q38.4 55.2 37.9 56.0Q37.4 56.8 36.4 57.2L36.4 57.2L38.9 61.9L38.9 62L36.4 62ZM32.4 52.5L32.4 55.9L34.3 55.9Q35.1 55.9 35.6 55.5Q36.1 55.0 36.1 54.3L36.1 54.3Q36.1 53.4 35.6 53.0Q35.2 52.5 34.2 52.5L34.2 52.5L32.4 52.5ZM45.2 62L45.1 61.1Q44.3 62.2 42.8 62.2L42.8 62.2Q41.5 62.2 40.8 61.4Q40.0 60.6 40.0 59.1L40.0 59.1L40.0 53.5L42.3 53.5L42.3 59.0Q42.3 60.3 43.5 60.3L43.5 60.3Q44.6 60.3 45.1 59.5L45.1 59.5L45.1 53.5L47.3 53.5L47.3 62L45.2 62ZM56.6 57.7L56.6 57.9Q56.6 59.9 55.8 61.0Q54.9 62.2 53.4 62.2L53.4 62.2Q52.0 62.2 51.2 61.1L51.2 61.1L51.1 62L49.0 62L49.0 50L51.3 50L51.3 54.3Q52.1 53.4 53.3 53.4L53.3 53.4Q54.9 53.4 55.8 54.5Q56.6 55.7 56.6 57.7L56.6 57.7ZM54.4 57.7L54.4 57.7Q54.4 56.4 54.0 55.8Q53.6 55.2 52.8 55.2L52.8 55.2Q51.7 55.2 51.3 56.1L51.3 56.1L51.3 59.4Q51.7 60.3 52.8 60.3L52.8 60.3Q53.9 60.3 54.2 59.3L54.2 59.3Q54.4 58.7 54.4 57.7ZM59.5 53.5L61.1 58.8L62.7 53.5L65.1 53.5L61.7 63.3L61.5 63.8Q60.8 65.4 59.0 65.4L59.0 65.4Q58.5 65.4 58.0 65.3L58.0 65.3L58.0 63.6L58.4 63.6Q59.0 63.6 59.3 63.4Q59.6 63.2 59.8 62.7L59.8 62.7L60.1 62.0L57.1 53.5L59.5 53.5Z "/></g><mask id="satori_om-id-1-2-2"><rect x="75" y="47" width="34" height="19" fill="#fff"/></mask><g  ><path fill="#57606a" d="M83.3 50.6L83.3 51.4L78.6 62L77.1 62L81.8 51.8L75.6 51.8L75.6 50.6L83.3 50.6ZM85.1 61.2L85.1 61.2Q85.1 60.9 85.3 60.6Q85.6 60.4 86 60.4Q86.4 60.4 86.7 60.6Q86.9 60.9 86.9 61.2L86.9 61.2Q86.9 61.6 86.7 61.8Q86.4 62.1 86 62.1Q85.6 62.1 85.3 61.8Q85.1 61.6 85.1 61.2ZM94.7 57L94.7 57Q94.2 57.5 93.6 57.9Q93.0 58.2 92.2 58.2L92.2 58.2Q91.2 58.2 90.5 57.7Q89.8 57.2 89.4 56.3Q89.0 55.5 89.0 54.4L89.0 54.4Q89.0 53.3 89.4 52.4Q89.8 51.4 90.6 51.0Q91.4 50.5 92.5 50.5L92.5 50.5Q94.2 50.5 95.2 51.7Q96.1 53.0 96.1 55.2L96.1 55.2L96.1 55.6Q96.1 58.9 94.8 60.4Q93.5 62.0 90.9 62.0L90.9 62.0L90.6 62.0L90.6 60.8L90.9 60.8Q92.7 60.8 93.6 59.9Q94.6 59.0 94.7 57ZM92.5 57L92.5 57Q93.2 57 93.8 56.6Q94.4 56.1 94.7 55.5L94.7 55.5L94.7 54.9Q94.7 53.5 94.1 52.6Q93.5 51.7 92.5 51.7L92.5 51.7Q91.6 51.7 91.0 52.4Q90.4 53.1 90.4 54.3L90.4 54.3Q90.4 55.5 91.0 56.2Q91.5 57 92.5 57ZM98 53.4L98 52.8Q98 51.8 98.7 51.1Q99.3 50.5 100.3 50.5L100.3 50.5Q101.4 50.5 102.0 51.1Q102.7 51.8 102.7 52.9L102.7 52.9L102.7 53.4Q102.7 54.4 102.0 55.1Q101.4 55.8 100.3 55.8L100.3 55.8Q99.3 55.8 98.7 55.1Q98 54.4 98 53.4L98 53.4ZM99.1 52.8L99.1 53.4Q99.1 54.0 99.4 54.4Q99.8 54.8 100.3 54.8L100.3 54.8Q100.9 54.8 101.2 54.4Q101.6 54.0 101.6 53.4L101.6 53.4L101.6 52.8Q101.6 52.2 101.2 51.8Q100.9 51.4 100.3 51.4Q99.8 51.4 99.4 51.8Q99.1 52.2 99.1 52.8L99.1 52.8ZM103.5 59.8L103.5 59.2Q103.5 58.2 104.2 57.5Q104.8 56.9 105.9 56.9Q106.9 56.9 107.5 57.5Q108.2 58.2 108.2 59.3L108.2 59.3L108.2 59.8Q108.2 60.8 107.6 61.5Q106.9 62.2 105.9 62.2Q104.9 62.2 104.2 61.5Q103.5 60.9 103.5 59.8L103.5 59.8ZM104.6 59.2L104.6 59.8Q104.6 60.4 105.0 60.8Q105.3 61.2 105.9 61.2L105.9 61.2Q106.4 61.2 106.8 60.8Q107.1 60.5 107.1 59.8L107.1 59.8L107.1 59.2Q107.1 58.6 106.8 58.2Q106.4 57.8 105.9 57.8L105.9 57.8Q105.3 57.8 105.0 58.2Q104.6 58.6 104.6 59.2L104.6 59.2ZM106.2 52.3L100.7 61.1L99.9 60.6L105.4 51.7L106.2 52.3Z "/></g><mask id="satori_om-id-1-3"><rect x="119" y="47" width="92" height="19" fill="#fff"/></mask><mask id="satori_om-id-1-3-0"><rect x="119" y="49" width="16" height="16" fill="#fff"/></mask><mask id="satori_om-id-1-3-0-0"><rect x="123" y="53" width="8" height="8" fill="#fff"/></mask><path x="123" y="53" width="8" height="8" fill="#00ADD8" d="M127,53 h0 a4,4 0 0 1 4,4 v0 a4,4 0 0 1 -4,4 h0 a4,4 0 0 1 -4,-4 v0 a4,4 0 0 1 4,-4"/><mask id="satori_om-id-1-3-1"><rect x="148" y="47" width="20" height="19" fill="#fff"/></mask><g  ><path fill="#24292f" d="M158.0 56.0L158.0 60.6Q157.4 61.3 156.2 61.7Q155.1 62.2 153.7 62.2L153.7 62.2Q152.2 62.2 151.1 61.5Q150.0 60.9 149.4 59.6Q148.8 58.4 148.7 56.8L148.7 56.8L148.7 56.0Q148.7 54.3 149.3 53.0Q149.9 51.8 151.0 51.1Q152.0 50.5 153.5 50.5L153.5 50.5Q155.5 50.5 156.7 51.4Q157.8 52.4 158.0 54.2L158.0 54.2L155.7 54.2Q155.6 53.3 155.0 52.8Q154.5 52.4 153.6 52.4L153.6 52.4Q152.4 52.4 151.8 53.3Q151.1 54.2 151.1 55.9L151.1 55.9L151.1 56.7Q151.1 58.4 151.8 59.4Q152.5 60.3 153.8 60.3L153.8 60.3Q155.1 60.3 155.7 59.7L155.7 59.7L155.7 57.8L153.5 57.8L153.5 56.0L158.0 56.0ZM159.4 57.8L159.4 57.7Q159.4 56.4 159.9 55.5Q160.4 54.5 161.3 53.9Q162.2 53.4 163.4 53.4L163.4 53.4Q165.1 53.4 166.2 54.4Q167.3 55.5 167.4 57.3L167.4 57.3L167.4 57.9Q167.4 59.8 166.3 61.0Q165.3 62.2 163.4 62.2Q161.6 62.2 160.5 61.0Q159.4 59.8 159.4 57.8L159.4 57.8ZM161.7 57.9L161.7 57.9Q161.7 59.1 162.1 59.7Q162.6 60.3 163.4 60.3L163.4 60.3Q164.2 60.3 164.7 59.7Q165.2 59.1 165.2 57.7L165.2 57.7Q165.2 56.5 164.7 55.9Q164.2 55.2 163.4 55.2L163.4 55.2Q162.6 55.2 162.1 55.9Q161.7 56.5 161.7 57.9Z "/></g><mask id="satori_om-id-1-3-2"><rect x="177" y="47" width="34" height="19" fill="#fff"/></mask><g  ><path fill="#57606a" d="M184.0 50.6L184.0 58.2L185.6 58.2L185.6 59.4L184.0 59.4L184.0 62L182.6 62L182.6 59.4L177.4 59.4L177.4 58.5L182.5 50.6L184.0 50.6ZM182.4 52.9L179.1 58.2L182.6 58.2L182.6 52.6L182.4 52.9ZM187.1 61.2L187.1 61.2Q187.1 60.9 187.3 60.6Q187.6 60.4 188 60.4Q188.4 60.4 188.7 60.6Q188.9 60.9 188.9 61.2L188.9 61.2Q188.9 61.6 188.7 61.8Q188.4 62.1 188 62.1Q187.6 62.1 187.3 61.8Q187.1 61.6 187.1 61.2ZM198.0 53.6L198.0 53.6Q198.0 54.4 197.6 55.1Q197.1 55.8 196.4 56.1L196.4 56.1Q197.3 56.5 197.8 57.3Q198.3 58 198.3 58.9L198.3 58.9Q198.3 60.4 197.3 61.3Q196.3 62.2 194.7 62.2L194.7 62.2Q193.0 62.2 192.1 61.3Q191.1 60.4 191.1 58.9L191.1 58.9Q191.1 58.0 191.6 57.3Q192.1 56.5 193.0 56.1L193.0 56.1Q192.2 55.8 191.8 55.1Q191.3 54.4 191.3 53.6L191.3 53.6Q191.3 52.2 192.3 51.3Q193.2 50.5 194.7 50.5L194.7 50.5Q196.2 50.5 197.1 51.3Q198.0 52.2 198.0 53.6ZM196.9 58.9L196.9 58.9Q196.9 57.9 196.3 57.3Q195.6 56.7 194.7 56.7Q193.7 56.7 193.1 57.3Q192.5 57.9 192.5 58.9Q192.5 59.9 193.1 60.4Q193.7 61.0 194.7 61.0L194.7 61.0Q195.7 61.0 196.3 60.4Q196.9 59.9 196.9 58.9ZM194.7 51.7L194.7 51.7Q193.8 51.7 193.3 52.2Q192.8 52.7 192.8 53.6L192.8 53.6Q192.8 54.5 193.3 55.0Q193.8 55.6 194.7 55.6Q195.6 55.6 196.1 55.0Q196.6 54.5 196.6 53.6Q196.6 52.8 196.1 52.2Q195.5 51.7 194.7 51.7ZM200 53.4L200 52.8Q200 51.8 200.7 51.1Q201.3 50.5 202.3 50.5L202.3 50.5Q203.4 50.5 204.0 51.1Q204.7 51.8 204.7 52.9L204.7 52.9L204.7 53.4Q204.7 54.4 204.0 55.1Q203.4 55.8 202.3 55.8L202.3 55.8Q201.3 55.8 200.7 55.1Q200 54.4 200 53.4L200 53.4ZM201.1 52.8L201.1 53.4Q201.1 54.0 201.4 54.4Q201.8 54.8 202.3 54.8L202.3 54.8Q202.9 54.8 203.2 54.4Q203.6 54.0 203.6 53.4L203.6 53.4L203.6 52.8Q203.6 52.2 203.2 51.8Q202.9 51.4 202.3 51.4Q201.8 51.4 201.4 51.8Q201.1 52.2 201.1 52.8L201.1 52.8ZM205.5 59.8L205.5 59.2Q205.5 58.2 206.2 57.5Q206.8 56.9 207.9 56.9Q208.9 56.9 209.5 57.5Q210.2 58.2 210.2 59.3L210.2 59.3L210.2 59.8Q210.2 60.8 209.6 61.5Q208.9 62.2 207.9 62.2Q206.9 62.2 206.2 61.5Q205.5 60.9 205.5 59.8L205.5 59.8ZM206.6 59.2L206.6 59.8Q206.6 60.4 207.0 60.8Q207.3 61.2 207.9 61.2L207.9 61.2Q208.4 61.2 208.8 60.8Q209.1 60.5 209.1 59.8L209.1 59.8L209.1 59.2Q209.1 58.6 208.8 58.2Q208.4 57.8 207.9 57.8L207.9 57.8Q207.3 57.8 207.0 58.2Q206.6 58.6 206.6 59.2L206.6 59.2ZM208.2 52.3L202.7 61.1L201.9 60.6L207.4 51.7L208.2 52.3Z "/></g><mask id="satori_om-id-1-4"><rect x="221" y="47" width="116" height="19" fill="#fff"/></mask><mask id="satori_om-id-1-4-0"><rect x="221" y="49" width="16" height="16" fill="#fff"/></mask><mask id="satori_om-id-1-4-0-0"><rect x="225" y="53" width="8" height="8" fill="#fff"/></mask><path x="225" y="53" width="8" height="8" fill="#e34c26" d="M229,53 h0 a4,4 0 0 1 4,4 v0 a4,4 0 0 1 -4,4 h0 a4,4 0 0 1 -4,-4 v0 a4,4 0 0 1 4,-4"/><mask id="satori_om-id-1-4-1"><rect x="250" y="47" width="44" height="19" fill="#fff"/></mask><g  ><path fill="#24292f" d="M260.3 50.6L260.3 62L257.9 62L257.9 57.1L253.4 57.1L253.4 62L251.0 62L251.0 50.6L253.4 50.6L253.4 55.2L257.9 55.2L257.9 50.6L260.3 50.6ZM270.7 50.6L270.7 52.5L267.2 52.5L267.2 62L264.8 62L264.8 52.5L261.4 52.5L261.4 50.6L270.7 50.6ZM272.0 50.6L275.1 50.6L278.0 58.9L280.9 50.6L284.0 50.6L284.0 62L281.6 62L281.6 58.9L281.8 53.5L278.8 62L277.2 62L274.1 53.5L274.3 58.9L274.3 62L272.0 62L272.0 50.6ZM288.4 50.6L288.4 60.1L293.3 60.1L293.3 62L286.0 62L286.0 50.6L288.4 50.6Z "/></g><mask id="satori_om-id-1-4-2"><rect x="303" y="47" width="34" height="19" fill="#fff"/></mask><g  ><path fill="#57606a" d="M311.4 60.8L311.4 62L303.9 62L303.9 61.0L307.9 56.6Q308.8 55.6 309.1 55.0Q309.4 54.4 309.4 53.7L309.4 53.7Q309.4 52.8 308.9 52.2Q308.3 51.7 307.4 51.7L307.4 51.7Q306.4 51.7 305.8 52.3Q305.2 52.9 305.2 54.0L305.2 54.0L303.7 54.0Q303.7 52.4 304.7 51.4Q305.8 50.5 307.4 50.5L307.4 50.5Q309.0 50.5 310.0 51.3Q310.9 52.1 310.9 53.5L310.9 53.5Q310.9 55.2 308.7 57.5L308.7 57.5L305.7 60.8L311.4 60.8ZM313.1 61.2L313.1 61.2Q313.1 60.9 313.3 60.6Q313.6 60.4 314 60.4Q314.4 60.4 314.7 60.6Q314.9 60.9 314.9 61.2L314.9 61.2Q314.9 61.6 314.7 61.8Q314.4 62.1 314 62.1Q313.6 62.1 313.3 61.8Q313.1 61.6 313.1 61.2ZM322.7 57L322.7 57Q322.2 57.5 321.6 57.9Q321.0 58.2 320.2 58.2L320.2 58.2Q319.2 58.2 318.5 57.7Q317.8 57.2 317.4 56.3Q317.0 55.5 317.0 54.4L317.0 54.4Q317.0 53.3 317.4 52.4Q317.8 51.4 318.6 51.0Q319.4 50.5 320.5 50.5L320.5 50.5Q322.2 50.5 323.2 51.7Q324.1 53.0 324.1 55.2L324.1 55.2L324.1 55.6Q324.1 58.9 322.8 60.4Q321.5 62.0 318.9 62.0L318.9 62.0L318.6 62.0L318.6 60.8L318.9 60.8Q320.7 60.8 321.6 59.9Q322.6 59.0 322.7 57ZM320.5 57L320.5 57Q321.2 57 321.8 56.6Q322.4 56.1 322.7 55.5L322.7 55.5L322.7 54.9Q322.7 53.5 322.1 52.6Q321.5 51.7 320.5 51.7L320.5 51.7Q319.6 51.7 319.0 52.4Q318.4 53.1 318.4 54.3L318.4 54.3Q318.4 55.5 319.0 56.2Q319.5 57 320.5 57ZM326 53.4L326 52.8Q326 51.8 326.7 51.1Q327.3 50.5 328.3 50.5L328.3 50.5Q329.4 50.5 330.0 51.1Q330.7 51.8 330.7 52.9L330.7 52.9L330.7 53.4Q330.7 54.4 330.0 55.1Q329.4 55.8 328.3 55.8L328.3 55.8Q327.3 55.8 326.7 55.1Q326 54.4 326 53.4L326 53.4ZM327.1 52.8L327.1 53.4Q327.1 54.0 327.4 54.4Q327.8 54.8 328.3 54.8L328.3 54.8Q328.9 54.8 329.2 54.4Q329.6 54.0 329.6 53.4L329.6 53.4L329.6 52.8Q329.6 52.2 329.2 51.8Q328.9 51.4 328.3 51.4Q327.8 51.4 327.4 51.8Q327.1 52.2 327.1 52.8L327.1 52.8ZM331.5 59.8L331.5 59.2Q331.5 58.2 332.2 57.5Q332.8 56.9 333.9 56.9Q334.9 56.9 335.5 57.5Q336.2 58.2 336.2 59.3L336.2 59.3L336.2 59.8Q336.2 60.8 335.6 61.5Q334.9 62.2 333.9 62.2Q332.9 62.2 332.2 61.5Q331.5 60.9 331.5 59.8L331.5 59.8ZM332.6 59.2L332.6 59.8Q332.6 60.4 333.0 60.8Q333.3 61.2 333.9 61.2L333.9 61.2Q334.4 61.2 334.8 60.8Q335.1 60.5 335.1 59.8L335.1 59.8L335.1 59.2Q335.1 58.6 334.8 58.2Q334.4 57.8 333.9 57.8L333.9 57.8Q333.3 57.8 333.0 58.2Q332.6 58.6 332.6 59.2L332.6 59.2ZM334.2 52.3L328.7 61.1L327.9 60.6L333.4 51.7L334.2 52.3Z "/></g><mask id="satori_om-id-1-5"><rect x="0" y="76" width="103" height="19" fill="#fff"/></mask><mask id="satori_om-id-1-5-0"><rect x="0" y="78" width="16" height="16" fill="#fff"/></mask><mask id="satori_om-id-1-5-0-0"><rect x="4" y="82" width="8" height="8" fill="#fff"/></mask><path x="4" y="82" width="8" height="8" fill="#663399" d="M8,82 h0 a4,4 0 0 1 4,4 v0 a4,4 0 0 1 -4,4 h0 a4,4 0 0 1 -4,-4 v0 a4,4 0 0 1 4,-4"/><mask id="satori_om-id-1-5-1"><rect x="29" y="76" width="31" height="19" fill="#fff"/></mask><g  ><path fill="#24292f" d="M36.6 87.2L38.9 87.2Q38.8 89.0 37.6 90.1Q36.4 91.2 34.4 91.2L34.4 91.2Q32.2 91.2 30.9 89.7Q29.7 88.2 29.7 85.6L29.7 85.6L29.7 84.9Q29.7 83.3 30.3 82.1Q30.8 80.8 31.9 80.1Q33.0 79.5 34.4 79.5L34.4 79.5Q36.4 79.5 37.6 80.5Q38.8 81.6 39.0 83.5L39.0 83.5L36.6 83.5Q36.5 82.4 36.0 81.9Q35.5 81.4 34.4 81.4L34.4 81.4Q33.2 81.4 32.6 82.2Q32.1 83.1 32.0 84.8L32.0 84.8L32.0 85.7Q32.0 87.5 32.6 88.4Q33.2 89.2 34.4 89.2L34.4 89.2Q35.5 89.2 36.0 88.7Q36.5 88.3 36.6 87.2L36.6 87.2ZM46.4 88.0L46.4 88.0Q46.4 87.4 45.9 87.0Q45.4 86.6 44.2 86.2Q43.0 85.9 42.3 85.5L42.3 85.5Q40.4 84.4 40.4 82.6L40.4 82.6Q40.4 81.7 40.9 81.0Q41.4 80.3 42.4 79.9Q43.3 79.5 44.6 79.5L44.6 79.5Q45.8 79.5 46.7 79.9Q47.7 80.4 48.2 81.2Q48.7 82.0 48.7 83.0L48.7 83.0L46.4 83.0Q46.4 82.2 45.9 81.8Q45.4 81.3 44.5 81.3L44.5 81.3Q43.7 81.3 43.2 81.7Q42.7 82.1 42.7 82.7L42.7 82.7Q42.7 83.2 43.3 83.6Q43.8 84.0 44.9 84.3L44.9 84.3Q46.9 84.9 47.8 85.8Q48.7 86.7 48.7 88L48.7 88Q48.7 89.5 47.6 90.3Q46.5 91.2 44.6 91.2L44.6 91.2Q43.3 91.2 42.2 90.7Q41.1 90.2 40.6 89.4Q40.0 88.5 40.0 87.4L40.0 87.4L42.4 87.4Q42.4 89.3 44.6 89.3L44.6 89.3Q45.4 89.3 45.9 89.0Q46.4 88.6 46.4 88.0ZM56.2 88.0L56.2 88.0Q56.2 87.4 55.8 87.0Q55.3 86.6 54.1 86.2Q52.8 85.9 52.1 85.5L52.1 85.5Q50.2 84.4 50.2 82.6L50.2 82.6Q50.2 81.7 50.7 81.0Q51.2 80.3 52.2 79.9Q53.2 79.5 54.4 79.5L54.4 79.5Q55.6 79.5 56.6 79.9Q57.5 80.4 58.0 81.2Q58.6 82.0 58.6 83.0L58.6 83.0L56.2 83.0Q56.2 82.2 55.7 81.8Q55.2 81.3 54.4 81.3L54.4 81.3Q53.5 81.3 53.0 81.7Q52.5 82.1 52.5 82.7L52.5 82.7Q52.5 83.2 53.1 83.6Q53.7 84.0 54.7 84.3L54.7 84.3Q56.7 84.9 57.7 85.8Q58.6 86.7 58.6 88L58.6 88Q58.6 89.5 57.5 90.3Q56.3 91.2 54.4 91.2L54.4 91.2Q53.1 91.2 52.1 90.7Q51.0 90.2 50.4 89.4Q49.8 88.5 49.8 87.4L49.8 87.4L52.2 87.4Q52.2 89.3 54.4 89.3L54.4 89.3Q55.3 89.3 55.8 89.0Q56.2 88.6 56.2 88.0Z "/></g><mask id="satori_om-id-1-5-2"><rect x="69" y="76" width="34" height="19" fill="#fff"/></mask><g  ><path fill="#57606a" d="M77.4 89.8L77.4 91L69.9 91L69.9 90.0L73.9 85.6Q74.8 84.6 75.1 84.0Q75.4 83.4 75.4 82.7L75.4 82.7Q75.4 81.8 74.9 81.2Q74.3 80.7 73.4 80.7L73.4 80.7Q72.4 80.7 71.8 81.3Q71.2 81.9 71.2 83.0L71.2 83.0L69.7 83.0Q69.7 81.4 70.7 80.4Q71.8 79.5 73.4 79.5L73.4 79.5Q75.0 79.5 76.0 80.3Q76.9 81.1 76.9 82.5L76.9 82.5Q76.9 84.2 74.7 86.5L74.7 86.5L71.7 89.8L77.4 89.8ZM79.1 90.2L79.1 90.2Q79.1 89.9 79.3 89.6Q79.6 89.4 80 89.4Q80.4 89.4 80.7 89.6Q80.9 89.9 80.9 90.2L80.9 90.2Q80.9 90.6 80.7 90.8Q80.4 91.1 80 91.1Q79.6 91.1 79.3 90.8Q79.1 90.6 79.1 90.2ZM88.6 79.6L88.8 79.6L88.8 80.8L88.5 80.8Q86.9 80.9 85.9 81.8Q84.9 82.8 84.7 84.6L84.7 84.6Q85.6 83.5 87.2 83.5L87.2 83.5Q88.6 83.5 89.5 84.6Q90.4 85.6 90.4 87.3L90.4 87.3Q90.4 89.0 89.5 90.1Q88.5 91.2 86.9 91.2L86.9 91.2Q85.3 91.2 84.2 89.9Q83.2 88.6 83.2 86.7L83.2 86.7L83.2 86.1Q83.2 83.0 84.6 81.3Q85.9 79.7 88.6 79.6L88.6 79.6ZM86.9 84.7L86.9 84.7Q86.2 84.7 85.5 85.2Q84.9 85.6 84.7 86.3L84.7 86.3L84.7 86.8Q84.7 88.2 85.3 89.1Q85.9 90.0 86.9 90.0L86.9 90.0Q87.9 90.0 88.4 89.2Q89.0 88.5 89.0 87.4L89.0 87.4Q89.0 86.2 88.4 85.5Q87.9 84.7 86.9 84.7ZM92 82.4L92 81.8Q92 80.8 92.7 80.1Q93.3 79.5 94.3 79.5L94.3 79.5Q95.4 79.5 96.0 80.1Q96.7 80.8 96.7 81.9L96.7 81.9L96.7 82.4Q96.7 83.4 96.0 84.1Q95.4 84.8 94.3 84.8L94.3 84.8Q93.3 84.8 92.7 84.1Q92 83.4 92 82.4L92 82.4ZM93.1 81.8L93.1 82.4Q93.1 83.0 93.4 83.4Q93.8 83.8 94.3 83.8L94.3 83.8Q94.9 83.8 95.2 83.4Q95.6 83.0 95.6 82.4L95.6 82.4L95.6 81.8Q95.6 81.2 95.2 80.8Q94.9 80.4 94.3 80.4Q93.8 80.4 93.4 80.8Q93.1 81.2 93.1 81.8L93.1 81.8ZM97.5 88.8L97.5 88.2Q97.5 87.2 98.2 86.5Q98.8 85.9 99.9 85.9Q100.9 85.9 101.5 86.5Q102.2 87.2 102.2 88.3L102.2 88.3L102.2 88.8Q102.2 89.8 101.6 90.5Q100.9 91.2 99.9 91.2Q98.9 91.2 98.2 90.5Q97.5 89.9 97.5 88.8L97.5 88.8ZM98.6 88.2L98.6 88.8Q98.6 89.4 99.0 89.8Q99.3 90.2 99.9 90.2L99.9 90.2Q100.4 90.2 100.8 89.8Q101.1 89.5 101.1 88.8L101.1 88.8L101.1 88.2Q101.1 87.6 100.8 87.2Q100.4 86.8 99.9 86.8L99.9 86.8Q99.3 86.8 99.0 87.2Q98.6 87.6 98.6 88.2L98.6 88.2ZM100.2 81.3L94.7 90.1L93.9 89.6L99.4 80.7L100.2 81.3Z "/></g><mask id="satori_om-id-1-6"><rect x="113" y="76" width="103" height="19" fill="#fff"/></mask><mask id="satori_om-id-1-6-0"><rect x="113" y="78" width="16" height="16" fill="#fff"/></mask><mask id="satori_om-id-1-6-0-0"><rect x="117" y="82" width="8" height="8" fill="#fff"/></mask><path x="117" y="82" width="8" height="8" fill="#844FBA" d="M121,82 h0 a4,4 0 0 1 4,4 v0 a4,4 0 0 1 -4,4 h0 a4,4 0 0 1 -4,-4 v0 a4,4 0 0 1 4,-4"/><mask id="satori_om-id-1-6-1"><rect x="142" y="76" width="31" height="19" fill="#fff"/></mask><g  ><path fill="#24292f" d="M152.3 79.6L152.3 91L149.9 91L149.9 86.1L145.4 86.1L145.4 91L143.0 91L143.0 79.6L145.4 79.6L145.4 84.2L149.9 84.2L149.9 79.6L152.3 79.6ZM160.9 87.2L163.3 87.2Q163.1 89.0 161.9 90.1Q160.7 91.2 158.7 91.2L158.7 91.2Q156.5 91.2 155.2 89.7Q154.0 88.2 154.0 85.6L154.0 85.6L154.0 84.9Q154.0 83.3 154.6 82.1Q155.1 80.8 156.2 80.1Q157.3 79.5 158.7 79.5L158.7 79.5Q160.7 79.5 161.9 80.5Q163.1 81.6 163.3 83.5L163.3 83.5L160.9 83.5Q160.8 82.4 160.3 81.9Q159.8 81.4 158.7 81.4L158.7 81.4Q157.5 81.4 156.9 82.2Q156.4 83.1 156.4 84.8L156.4 84.8L156.4 85.7Q156.4 87.5 156.9 88.4Q157.5 89.2 158.7 89.2L158.7 89.2Q159.8 89.2 160.3 88.7Q160.8 88.3 160.9 87.2L160.9 87.2ZM167.1 79.6L167.1 89.1L172.1 89.1L172.1 91L164.8 91L164.8 79.6L167.1 79.6Z "/></g><mask id="satori_om-id-1-6-2"><rect x="182" y="76" width="34" height="19" fill="#fff"/></mask><g  ><path fill="#57606a" d="M190.4 89.8L190.4 91L182.9 91L182.9 90.0L186.9 85.6Q187.8 84.6 188.1 84.0Q188.4 83.4 188.4 82.7L188.4 82.7Q188.4 81.8 187.9 81.2Q187.3 80.7 186.4 80.7L186.4 80.7Q185.4 80.7 184.8 81.3Q184.2 81.9 184.2 83.0L184.2 83.0L182.7 83.0Q182.7 81.4 183.7 80.4Q184.8 79.5 186.4 79.5L186.4 79.5Q188.0 79.5 189.0 80.3Q189.9 81.1 189.9 82.5L189.9 82.5Q189.9 84.2 187.7 86.5L187.7 86.5L184.7 89.8L190.4 89.8ZM192.1 90.2L192.1 90.2Q192.1 89.9 192.3 89.6Q192.6 89.4 193 89.4Q193.4 89.4 193.7 89.6Q193.9 89.9 193.9 90.2L193.9 90.2Q193.9 90.6 193.7 90.8Q193.4 91.1 193 91.1Q192.6 91.1 192.3 90.8Q192.1 90.6 192.1 90.2ZM203.6 89.8L203.6 91L196.1 91L196.1 90.0L200.1 85.6Q201.0 84.6 201.3 84.0Q201.6 83.4 201.6 82.7L201.6 82.7Q201.6 81.8 201.1 81.2Q200.5 80.7 199.6 80.7L199.6 80.7Q198.6 80.7 198.0 81.3Q197.4 81.9 197.4 83.0L197.4 83.0L195.9 83.0Q195.9 81.4 196.9 80.4Q197.9 79.5 199.6 79.5L199.6 79.5Q201.2 79.5 202.1 80.3Q203.1 81.1 203.1 82.5L203.1 82.5Q203.1 84.2 200.9 86.5L200.9 86.5L197.9 89.8L203.6 89.8ZM205 82.4L205 81.8Q205 80.8 205.7 80.1Q206.3 79.5 207.3 79.5L207.3 79.5Q208.4 79.5 209.0 80.1Q209.7 80.8 209.7 81.9L209.7 81.9L209.7 82.4Q209.7 83.4 209.0 84.1Q208.4 84.8 207.3 84.8L207.3 84.8Q206.3 84.8 205.7 84.1Q205 83.4 205 82.4L205 82.4ZM206.1 81.8L206.1 82.4Q206.1 83.0 206.4 83.4Q206.8 83.8 207.3 83.8L207.3 83.8Q207.9 83.8 208.2 83.4Q208.6 83.0 208.6 82.4L208.6 82.4L208.6 81.8Q208.6 81.2 208.2 80.8Q207.9 80.4 207.3 80.4Q206.8 80.4 206.4 80.8Q206.1 81.2 206.1 81.8L206.1 81.8ZM210.5 88.8L210.5 88.2Q210.5 87.2 211.2 86.5Q211.8 85.9 212.9 85.9Q213.9 85.9 214.5 86.5Q215.2 87.2 215.2 88.3L215.2 88.3L215.2 88.8Q215.2 89.8 214.6 90.5Q213.9 91.2 212.9 91.2Q211.9 91.2 211.2 90.5Q210.5 89.9 210.5 88.8L210.5 88.8ZM211.6 88.2L211.6 88.8Q211.6 89.4 212.0 89.8Q212.3 90.2 212.9 90.2L212.9 90.2Q213.4 90.2 213.8 89.8Q214.1 89.5 214.1 88.8L214.1 88.8L214.1 88.2Q214.1 87.6 213.8 87.2Q213.4 86.8 212.9 86.8L212.9 86.8Q212.3 86.8 212.0 87.2Q211.6 87.6 211.6 88.2L211.6 88.2ZM213.2 81.3L207.7 90.1L206.9 89.6L212.4 80.7L213.2 81.3Z "/></g><mask id="satori_om-id-1-7"><rect x="226" y="76" width="149" height="19" fill="#fff"/></mask><mask id="satori_om-id-1-7-0"><rect x="226" y="78" width="16" height="16" fill="#fff"/></mask><mask id="satori_om-id-1-7-0-0"><rect x="230" y="82" width="8" height="8" fill="#fff"/></mask><path x="230" y="82" width="8" height="8" fill="#f1e05a" d="M234,82 h0 a4,4 0 0 1 4,4 v0 a4,4 0 0 1 -4,4 h0 a4,4 0 0 1 -4,-4 v0 a4,4 0 0 1 4,-4"/><mask id="satori_om-id-1-7-1"><rect x="255" y="76" width="77" height="19" fill="#fff"/></mask><g  ><path fill="#24292f" d="M260.6 87.5L260.6 79.6L262.9 79.6L262.9 87.5Q262.9 88.6 262.5 89.4Q262.0 90.3 261.1 90.7Q260.2 91.2 259.1 91.2L259.1 91.2Q257.3 91.2 256.3 90.2Q255.3 89.3 255.3 87.6L255.3 87.6L257.7 87.6Q257.7 88.5 258.0 88.9Q258.4 89.3 259.1 89.3L259.1 89.3Q259.8 89.3 260.2 88.8Q260.6 88.4 260.6 87.5L260.6 87.5ZM272.0 91L269.7 91Q269.5 90.7 269.5 90.2L269.5 90.2Q268.7 91.2 267.3 91.2L267.3 91.2Q266.1 91.2 265.3 90.4Q264.5 89.7 264.5 88.6L264.5 88.6Q264.5 87.3 265.5 86.6Q266.5 85.8 268.3 85.8L268.3 85.8L269.4 85.8L269.4 85.4Q269.4 84.8 269.1 84.4Q268.8 84.1 268.1 84.1L268.1 84.1Q267.6 84.1 267.2 84.3Q266.9 84.6 266.9 85.1L266.9 85.1L264.7 85.1Q264.7 84.4 265.1 83.7Q265.6 83.1 266.4 82.7Q267.2 82.4 268.3 82.4L268.3 82.4Q269.8 82.4 270.7 83.2Q271.6 84.0 271.6 85.4L271.6 85.4L271.6 89.0Q271.7 90.3 272.0 90.9L272.0 90.9L272.0 91ZM267.8 89.4L267.8 89.4Q268.3 89.4 268.8 89.2Q269.2 89.0 269.4 88.6L269.4 88.6L269.4 87.2L268.5 87.2Q266.8 87.2 266.7 88.3L266.7 88.3L266.7 88.5Q266.7 88.9 267.0 89.2Q267.3 89.4 267.8 89.4ZM274.9 82.5L276.4 88.2L278 82.5L280.4 82.5L277.5 91L275.4 91L272.5 82.5L274.9 82.5ZM288.4 91L286.1 91Q286.0 90.7 285.9 90.2L285.9 90.2Q285.1 91.2 283.8 91.2L283.8 91.2Q282.5 91.2 281.7 90.4Q280.9 89.7 280.9 88.6L280.9 88.6Q280.9 87.3 281.9 86.6Q282.9 85.8 284.8 85.8L284.8 85.8L285.8 85.8L285.8 85.4Q285.8 84.8 285.5 84.4Q285.2 84.1 284.6 84.1L284.6 84.1Q284.0 84.1 283.7 84.3Q283.3 84.6 283.3 85.1L283.3 85.1L281.1 85.1Q281.1 84.4 281.5 83.7Q282.0 83.1 282.8 82.7Q283.6 82.4 284.7 82.4L284.7 82.4Q286.2 82.4 287.2 83.2Q288.1 84.0 288.1 85.4L288.1 85.4L288.1 89.0Q288.1 90.3 288.4 90.9L288.4 90.9L288.4 91ZM284.3 89.4L284.3 89.4Q284.8 89.4 285.2 89.2Q285.6 89.0 285.8 88.6L285.8 88.6L285.8 87.2L285.0 87.2Q283.3 87.2 283.2 88.3L283.2 88.3L283.2 88.5Q283.2 88.9 283.5 89.2Q283.8 89.4 284.3 89.4ZM295.9 88.0L295.9 88.0Q295.9 87.4 295.4 87.0Q294.9 86.6 293.7 86.2Q292.5 85.9 291.8 85.5L291.8 85.5Q289.8 84.4 289.8 82.6L289.8 82.6Q289.8 81.7 290.4 81.0Q290.9 80.3 291.8 79.9Q292.8 79.5 294.0 79.5L294.0 79.5Q295.3 79.5 296.2 79.9Q297.2 80.4 297.7 81.2Q298.2 82.0 298.2 83.0L298.2 83.0L295.9 83.0Q295.9 82.2 295.4 81.8Q294.9 81.3 294.0 81.3L294.0 81.3Q293.1 81.3 292.7 81.7Q292.2 82.1 292.2 82.7L292.2 82.7Q292.2 83.2 292.7 83.6Q293.3 84.0 294.4 84.3L294.4 84.3Q296.4 84.9 297.3 85.8Q298.2 86.7 298.2 88L298.2 88Q298.2 89.5 297.1 90.3Q296.0 91.2 294.1 91.2L294.1 91.2Q292.8 91.2 291.7 90.7Q290.6 90.2 290.1 89.4Q289.5 88.5 289.5 87.4L289.5 87.4L291.8 87.4Q291.8 89.3 294.1 89.3L294.1 89.3Q294.9 89.3 295.4 89.0Q295.9 88.6 295.9 88.0ZM303.2 89.3L303.2 89.3Q303.8 89.3 304.2 89.0Q304.6 88.6 304.6 88.1L304.6 88.1L306.7 88.1Q306.7 88.9 306.2 89.7Q305.8 90.4 305.0 90.8Q304.2 91.2 303.2 91.2L303.2 91.2Q301.4 91.2 300.3 90.0Q299.3 88.9 299.3 86.8L299.3 86.8L299.3 86.7Q299.3 84.7 300.3 83.6Q301.4 82.4 303.2 82.4L303.2 82.4Q304.8 82.4 305.7 83.3Q306.7 84.2 306.7 85.7L306.7 85.7L304.6 85.7Q304.6 85.0 304.2 84.6Q303.8 84.2 303.1 84.2L303.1 84.2Q302.4 84.2 302.0 84.8Q301.6 85.4 301.6 86.7L301.6 86.7L301.6 86.9Q301.6 88.2 302.0 88.8Q302.4 89.3 303.2 89.3ZM312.8 82.5L312.7 84.7Q312.3 84.6 311.9 84.6L311.9 84.6Q310.6 84.6 310.3 85.5L310.3 85.5L310.3 91L308.0 91L308.0 82.5L310.1 82.5L310.2 83.6Q310.9 82.4 312.1 82.4L312.1 82.4Q312.4 82.4 312.8 82.5L312.8 82.5ZM316.2 82.5L316.2 91L313.9 91L313.9 82.5L316.2 82.5ZM313.8 80.4L313.8 80.4Q313.8 79.9 314.2 79.5Q314.5 79.2 315.1 79.2L315.1 79.2Q315.7 79.2 316 79.5Q316.3 79.9 316.3 80.4L316.3 80.4Q316.3 80.9 316.0 81.2Q315.6 81.5 315.1 81.5Q314.5 81.5 314.2 81.2Q313.8 80.9 313.8 80.4ZM325.7 86.7L325.7 86.9Q325.7 88.8 324.8 90.0Q323.9 91.2 322.4 91.2L322.4 91.2Q321.1 91.2 320.3 90.3L320.3 90.3L320.3 94.3L318.1 94.3L318.1 82.5L320.2 82.5L320.2 83.4Q321.1 82.4 322.4 82.4L322.4 82.4Q323.9 82.4 324.8 83.5Q325.7 84.7 325.7 86.7L325.7 86.7ZM323.4 86.7L323.4 86.7Q323.4 85.5 323.0 84.9Q322.6 84.2 321.8 84.2L321.8 84.2Q320.7 84.2 320.3 85.0L320.3 85.0L320.3 88.5Q320.7 89.3 321.8 89.3L321.8 89.3Q323.4 89.3 323.4 86.7ZM327.5 80.5L329.8 80.5L329.8 82.5L331.2 82.5L331.2 84.2L329.8 84.2L329.8 88.4Q329.8 88.9 330.0 89.1Q330.1 89.3 330.6 89.3L330.6 89.3Q331.0 89.3 331.3 89.2L331.3 89.2L331.3 91.0Q330.6 91.2 329.9 91.2L329.9 91.2Q327.6 91.2 327.5 88.8L327.5 88.8L327.5 84.2L326.3 84.2L326.3 82.5L327.5 82.5L327.5 80.5Z "/></g><mask id="satori_om-id-1-7-2"><rect x="341" y="76" width="34" height="19" fill="#fff"/></mask><g  ><path fill="#57606a" d="M349.4 89.8L349.4 91L341.9 91L341.9 90.0L345.9 85.6Q346.8 84.6 347.1 84.0Q347.4 83.4 347.4 82.7L347.4 82.7Q347.4 81.8 346.9 81.2Q346.3 80.7 345.4 80.7L345.4 80.7Q344.4 80.7 343.8 81.3Q343.2 81.9 343.2 83.0L343.2 83.0L341.7 83.0Q341.7 81.4 342.7 80.4Q343.8 79.5 345.4 79.5L345.4 79.5Q347.0 79.5 348.0 80.3Q348.9 81.1 348.9 82.5L348.9 82.5Q348.9 84.2 346.7 86.5L346.7 86.5L343.7 89.8L349.4 89.8ZM351.1 90.2L351.1 90.2Q351.1 89.9 351.3 89.6Q351.6 89.4 352 89.4Q352.4 89.4 352.7 89.6Q352.9 89.9 352.9 90.2L352.9 90.2Q352.9 90.6 352.7 90.8Q352.4 91.1 352 91.1Q351.6 91.1 351.3 90.8Q351.1 90.6 351.1 90.2ZM362.3 84.3L362.3 86.1Q362.3 88.7 361.4 89.9Q360.5 91.2 358.7 91.2L358.7 91.2Q356.9 91.2 356 89.9Q355.1 88.7 355.1 86.3L355.1 86.3L355.1 84.4Q355.1 81.9 356.0 80.7Q356.8 79.5 358.7 79.5L358.7 79.5Q360.5 79.5 361.4 80.6Q362.3 81.8 362.3 84.3L362.3 84.3ZM360.8 86.5L360.8 84.2Q360.8 82.3 360.3 81.5Q359.8 80.7 358.7 80.7L358.7 80.7Q357.6 80.7 357.1 81.5Q356.6 82.3 356.5 84.1L356.5 84.1L356.5 86.4Q356.5 88.2 357.1 89.1Q357.6 90.0 358.7 90.0L358.7 90.0Q359.8 90.0 360.3 89.1Q360.8 88.3 360.8 86.5L360.8 86.5ZM364 82.4L364 81.8Q364 80.8 364.7 80.1Q365.3 79.5 366.3 79.5L366.3 79.5Q367.4 79.5 368.0 80.1Q368.7 80.8 368.7 81.9L368.7 81.9L368.7 82.4Q368.7 83.4 368.0 84.1Q367.4 84.8 366.3 84.8L366.3 84.8Q365.3 84.8 364.7 84.1Q364 83.4 364 82.4L364 82.4ZM365.1 81.8L365.1 82.4Q365.1 83.0 365.4 83.4Q365.8 83.8 366.3 83.8L366.3 83.8Q366.9 83.8 367.2 83.4Q367.6 83.0 367.6 82.4L367.6 82.4L367.6 81.8Q367.6 81.2 367.2 80.8Q366.9 80.4 366.3 80.4Q365.8 80.4 365.4 80.8Q365.1 81.2 365.1 81.8L365.1 81.8ZM369.5 88.8L369.5 88.2Q369.5 87.2 370.2 86.5Q370.8 85.9 371.9 85.9Q372.9 85.9 373.5 86.5Q374.2 87.2 374.2 88.3L374.2 88.3L374.2 88.8Q374.2 89.8 373.6 90.5Q372.9 91.2 371.9 91.2Q370.9 91.2 370.2 90.5Q369.5 89.9 369.5 88.8L369.5 88.8ZM370.6 88.2L370.6 88.8Q370.6 89.4 371.0 89.8Q371.3 90.2 371.9 90.2L371.9 90.2Q372.4 90.2 372.8 89.8Q373.1 89.5 373.1 88.8L373.1 88.8L373.1 88.2Q373.1 87.6 372.8 87.2Q372.4 86.8 371.9 86.8L371.9 86.8Q371.3 86.8 371.0 87.2Q370.6 87.6 370.6 88.2L370.6 88.2ZM372.2 81.3L366.7 90.1L365.9 89.6L371.4 80.7L372.2 81.3Z "/></g><mask id="satori_om-id-1-8"><rect x="0" y="105" width="112" height="19" fill="#fff"/></mask><mask id="satori_om-id-1-8-0"><rect x="0" y="107" width="16" height="16" fill="#fff"/></mask><mask id="satori_om-id-1-8-0-0"><rect x="4" y="111" width="8" height="8" fill="#fff"/></mask><path x="4" y="111" width="8" height="8" fill="#ff5a03" d="M8,111 h0 a4,4 0 0 1 4,4 v0 a4,4 0 0 1 -4,4 h0 a4,4 0 0 1 -4,-4 v0 a4,4 0 0 1 4,-4"/><mask id="satori_om-id-1-8-1"><rect x="29" y="105" width="40" height="19" fill="#fff"/></mask><g  ><path fill="#24292f" d="M37.2 120L36.4 117.7L32.3 117.7L31.5 120L29.1 120L33.3 108.6L35.5 108.6L39.7 120L37.2 120ZM34.4 111.5L33.0 115.8L35.8 115.8L34.4 111.5ZM45.2 117.7L45.2 117.7Q45.2 117.3 44.8 117.0Q44.4 116.8 43.5 116.6L43.5 116.6Q40.5 116.0 40.5 114.0L40.5 114.0Q40.5 112.9 41.4 112.1Q42.3 111.4 43.8 111.4L43.8 111.4Q45.5 111.4 46.4 112.1Q47.4 112.9 47.4 114.1L47.4 114.1L45.1 114.1Q45.1 113.6 44.8 113.3Q44.5 113 43.8 113L43.8 113Q43.3 113 43.0 113.3Q42.6 113.5 42.6 113.9L42.6 113.9Q42.6 114.3 43.0 114.5Q43.4 114.8 44.2 114.9Q45.0 115.1 45.6 115.3L45.6 115.3Q47.4 116.0 47.4 117.6L47.4 117.6Q47.4 118.7 46.4 119.4Q45.4 120.2 43.9 120.2L43.9 120.2Q42.8 120.2 42.0 119.8Q41.1 119.4 40.7 118.7Q40.2 118.1 40.2 117.3L40.2 117.3L42.3 117.3Q42.4 117.9 42.8 118.2Q43.2 118.6 43.9 118.6L43.9 118.6Q44.5 118.6 44.9 118.3Q45.2 118.1 45.2 117.7ZM49.3 109.5L51.6 109.5L51.6 111.5L53.0 111.5L53.0 113.2L51.6 113.2L51.6 117.4Q51.6 117.9 51.7 118.1Q51.9 118.3 52.4 118.3L52.4 118.3Q52.8 118.3 53.1 118.2L53.1 118.2L53.1 120.0Q52.4 120.2 51.7 120.2L51.7 120.2Q49.4 120.2 49.3 117.8L49.3 117.8L49.3 113.2L48.1 113.2L48.1 111.5L49.3 111.5L49.3 109.5ZM59.0 111.5L59.0 113.7Q58.6 113.6 58.2 113.6L58.2 113.6Q56.9 113.6 56.5 114.5L56.5 114.5L56.5 120L54.3 120L54.3 111.5L56.4 111.5L56.5 112.6Q57.1 111.4 58.3 111.4L58.3 111.4Q58.7 111.4 59.0 111.5L59.0 111.5ZM59.5 115.8L59.5 115.7Q59.5 114.4 60.0 113.5Q60.4 112.5 61.3 111.9Q62.3 111.4 63.5 111.4L63.5 111.4Q65.2 111.4 66.3 112.4Q67.3 113.5 67.5 115.3L67.5 115.3L67.5 115.9Q67.5 117.8 66.4 119.0Q65.3 120.2 63.5 120.2Q61.6 120.2 60.6 119.0Q59.5 117.8 59.5 115.8L59.5 115.8ZM61.7 115.9L61.7 115.9Q61.7 117.1 62.2 117.7Q62.6 118.3 63.5 118.3L63.5 118.3Q64.3 118.3 64.8 117.7Q65.2 117.1 65.2 115.7L65.2 115.7Q65.2 114.5 64.8 113.9Q64.3 113.2 63.5 113.2L63.5 113.2Q62.6 113.2 62.2 113.9Q61.7 114.5 61.7 115.9Z "/></g><mask id="satori_om-id-1-8-2"><rect x="78" y="105" width="34" height="19" fill="#fff"/></mask><g  ><path fill="#57606a" d="M83.7 108.6L83.7 120L82.2 120L82.2 110.4L79.3 111.4L79.3 110.1L83.5 108.6L83.7 108.6ZM88.1 119.2L88.1 119.2Q88.1 118.9 88.3 118.6Q88.6 118.4 89 118.4Q89.4 118.4 89.7 118.6Q89.9 118.9 89.9 119.2L89.9 119.2Q89.9 119.6 89.7 119.8Q89.4 120.1 89 120.1Q88.6 120.1 88.3 119.8Q88.1 119.6 88.1 119.2ZM94.2 114.8L94.2 113.6L95.3 113.6Q96.4 113.6 96.9 113.1Q97.5 112.5 97.5 111.7L97.5 111.7Q97.5 109.7 95.5 109.7L95.5 109.7Q94.6 109.7 94.0 110.2Q93.5 110.7 93.5 111.6L93.5 111.6L92.0 111.6Q92.0 110.3 93.0 109.4Q94.0 108.5 95.5 108.5L95.5 108.5Q97.1 108.5 98.1 109.3Q99.0 110.2 99.0 111.7L99.0 111.7Q99.0 112.4 98.5 113.1Q98.0 113.8 97.2 114.2L97.2 114.2Q98.1 114.5 98.6 115.1Q99.1 115.8 99.1 116.8L99.1 116.8Q99.1 118.4 98.1 119.3Q97.1 120.2 95.5 120.2Q93.9 120.2 92.9 119.3Q91.9 118.4 91.9 117L91.9 117L93.4 117Q93.4 117.9 94.0 118.4Q94.6 119.0 95.5 119.0L95.5 119.0Q96.6 119.0 97.1 118.4Q97.7 117.9 97.7 116.9L97.7 116.9Q97.7 115.9 97.1 115.3Q96.5 114.8 95.3 114.8L95.3 114.8L94.2 114.8ZM101 111.4L101 110.8Q101 109.8 101.7 109.1Q102.3 108.5 103.3 108.5L103.3 108.5Q104.4 108.5 105.0 109.1Q105.7 109.8 105.7 110.9L105.7 110.9L105.7 111.4Q105.7 112.4 105.0 113.1Q104.4 113.8 103.3 113.8L103.3 113.8Q102.3 113.8 101.7 113.1Q101 112.4 101 111.4L101 111.4ZM102.1 110.8L102.1 111.4Q102.1 112.0 102.4 112.4Q102.8 112.8 103.3 112.8L103.3 112.8Q103.9 112.8 104.2 112.4Q104.6 112.0 104.6 111.4L104.6 111.4L104.6 110.8Q104.6 110.2 104.2 109.8Q103.9 109.4 103.3 109.4Q102.8 109.4 102.4 109.8Q102.1 110.2 102.1 110.8L102.1 110.8ZM106.5 117.8L106.5 117.2Q106.5 116.2 107.2 115.5Q107.8 114.9 108.9 114.9Q109.9 114.9 110.5 115.5Q111.2 116.2 111.2 117.3L111.2 117.3L111.2 117.8Q111.2 118.8 110.6 119.5Q109.9 120.2 108.9 120.2Q107.9 120.2 107.2 119.5Q106.5 118.9 106.5 117.8L106.5 117.8ZM107.6 117.2L107.6 117.8Q107.6 118.4 108.0 118.8Q108.3 119.2 108.9 119.2L108.9 119.2Q109.4 119.2 109.8 118.8Q110.1 118.5 110.1 117.8L110.1 117.8L110.1 117.2Q110.1 116.6 109.8 116.2Q109.4 115.8 108.9 115.8L108.9 115.8Q108.3 115.8 108.0 116.2Q107.6 116.6 107.6 117.2L107.6 117.2ZM109.2 110.3L103.7 119.1L102.9 118.6L108.4 109.7L109.2 110.3Z "/></g><mask id="satori_om-id-1-9"><rect x="122" y="105" width="105" height="19" fill="#fff"/></mask><mask id="satori_om-id-1-9-0"><rect x="122" y="107" width="16" height="16" fill="#fff"/></mask><mask id="satori_om-id-1-9-0-0"><rect x="126" y="111" width="8" height="8" fill="#fff"/></mask><path x="126" y="111" width="8" height="8" fill="#dea584" d="M130,111 h0 a4,4 0 0 1 4,4 v0 a4,4 0 0 1 -4,4 h0 a4,4 0 0 1 -4,-4 v0 a4,4 0 0 1 4,-4"/><mask id="satori_om-id-1-9-1"><rect x="151" y="105" width="33" height="19" fill="#fff"/></mask><g  ><path fill="#24292f" d="M158.4 120L156.2 115.8L154.4 115.8L154.4 120L152.0 120L152.0 108.6L156.2 108.6Q158.3 108.6 159.4 109.5Q160.4 110.4 160.4 112.1L160.4 112.1Q160.4 113.2 159.9 114.0Q159.4 114.8 158.4 115.2L158.4 115.2L160.9 119.9L160.9 120L158.4 120ZM154.4 110.5L154.4 113.9L156.3 113.9Q157.1 113.9 157.6 113.5Q158.1 113.0 158.1 112.3L158.1 112.3Q158.1 111.4 157.6 111.0Q157.2 110.5 156.2 110.5L156.2 110.5L154.4 110.5ZM167.2 120L167.1 119.1Q166.3 120.2 164.8 120.2L164.8 120.2Q163.5 120.2 162.8 119.4Q162.0 118.6 162.0 117.1L162.0 117.1L162.0 111.5L164.3 111.5L164.3 117.0Q164.3 118.3 165.5 118.3L165.5 118.3Q166.6 118.3 167.1 117.5L167.1 117.5L167.1 111.5L169.3 111.5L169.3 120L167.2 120ZM175.6 117.7L175.6 117.7Q175.6 117.3 175.2 117.0Q174.8 116.8 173.9 116.6L173.9 116.6Q170.9 116.0 170.9 114.0L170.9 114.0Q170.9 112.9 171.8 112.1Q172.7 111.4 174.2 111.4L174.2 111.4Q175.9 111.4 176.8 112.1Q177.8 112.9 177.8 114.1L177.8 114.1L175.5 114.1Q175.5 113.6 175.2 113.3Q174.9 113 174.2 113L174.2 113Q173.7 113 173.4 113.3Q173.0 113.5 173.0 113.9L173.0 113.9Q173.0 114.3 173.4 114.5Q173.8 114.8 174.6 114.9Q175.4 115.1 176.0 115.3L176.0 115.3Q177.8 116.0 177.8 117.6L177.8 117.6Q177.8 118.7 176.8 119.4Q175.8 120.2 174.3 120.2L174.3 120.2Q173.2 120.2 172.4 119.8Q171.5 119.4 171.1 118.7Q170.6 118.1 170.6 117.3L170.6 117.3L172.7 117.3Q172.8 117.9 173.2 118.2Q173.6 118.6 174.3 118.6L174.3 118.6Q174.9 118.6 175.3 118.3Q175.6 118.1 175.6 117.7ZM179.7 109.5L182.0 109.5L182.0 111.5L183.4 111.5L183.4 113.2L182.0 113.2L182.0 117.4Q182.0 117.9 182.1 118.1Q182.3 118.3 182.8 118.3L182.8 118.3Q183.2 118.3 183.5 118.2L183.5 118.2L183.5 120.0Q182.8 120.2 182.1 120.2L182.1 120.2Q179.8 120.2 179.7 117.8L179.7 117.8L179.7 113.2L178.5 113.2L178.5 111.5L179.7 111.5L179.7 109.5Z "/></g><mask id="satori_om-id-1-9-2"><rect x="193" y="105" width="34" height="19" fill="#fff"/></mask><g  ><path fill="#57606a" d="M198.7 108.6L198.7 120L197.2 120L197.2 110.4L194.3 111.4L194.3 110.1L198.5 108.6L198.7 108.6ZM203.1 119.2L203.1 119.2Q203.1 118.9 203.3 118.6Q203.6 118.4 204 118.4Q204.4 118.4 204.7 118.6Q204.9 118.9 204.9 119.2L204.9 119.2Q204.9 119.6 204.7 119.8Q204.4 120.1 204 120.1Q203.6 120.1 203.3 119.8Q203.1 119.6 203.1 119.2ZM209.2 114.8L209.2 113.6L210.3 113.6Q211.4 113.6 211.9 113.1Q212.5 112.5 212.5 111.7L212.5 111.7Q212.5 109.7 210.5 109.7L210.5 109.7Q209.6 109.7 209.0 110.2Q208.5 110.7 208.5 111.6L208.5 111.6L207.0 111.6Q207.0 110.3 208.0 109.4Q209.0 108.5 210.5 108.5L210.5 108.5Q212.1 108.5 213.1 109.3Q214.0 110.2 214.0 111.7L214.0 111.7Q214.0 112.4 213.5 113.1Q213.0 113.8 212.2 114.2L212.2 114.2Q213.1 114.5 213.6 115.1Q214.1 115.8 214.1 116.8L214.1 116.8Q214.1 118.4 213.1 119.3Q212.1 120.2 210.5 120.2Q208.9 120.2 207.9 119.3Q206.9 118.4 206.9 117L206.9 117L208.4 117Q208.4 117.9 209.0 118.4Q209.6 119.0 210.5 119.0L210.5 119.0Q211.6 119.0 212.1 118.4Q212.7 117.9 212.7 116.9L212.7 116.9Q212.7 115.9 212.1 115.3Q211.5 114.8 210.3 114.8L210.3 114.8L209.2 114.8ZM216 111.4L216 110.8Q216 109.8 216.7 109.1Q217.3 108.5 218.3 108.5L218.3 108.5Q219.4 108.5 220.0 109.1Q220.7 109.8 220.7 110.9L220.7 110.9L220.7 111.4Q220.7 112.4 220.0 113.1Q219.4 113.8 218.3 113.8L218.3 113.8Q217.3 113.8 216.7 113.1Q216 112.4 216 111.4L216 111.4ZM217.1 110.8L217.1 111.4Q217.1 112.0 217.4 112.4Q217.8 112.8 218.3 112.8L218.3 112.8Q218.9 112.8 219.2 112.4Q219.6 112.0 219.6 111.4L219.6 111.4L219.6 110.8Q219.6 110.2 219.2 109.8Q218.9 109.4 218.3 109.4Q217.8 109.4 217.4 109.8Q217.1 110.2 217.1 110.8L217.1 110.8ZM221.5 117.8L221.5 117.2Q221.5 116.2 222.2 115.5Q222.8 114.9 223.9 114.9Q224.9 114.9 225.5 115.5Q226.2 116.2 226.2 117.3L226.2 117.3L226.2 117.8Q226.2 118.8 225.6 119.5Q224.9 120.2 223.9 120.2Q222.9 120.2 222.2 119.5Q221.5 118.9 221.5 117.8L221.5 117.8ZM222.6 117.2L222.6 117.8Q222.6 118.4 223.0 118.8Q223.3 119.2 223.9 119.2L223.9 119.2Q224.4 119.2 224.8 118.8Q225.1 118.5 225.1 117.8L225.1 117.8L225.1 117.2Q225.1 116.6 224.8 116.2Q224.4 115.8 223.9 115.8L223.9 115.8Q223.3 115.8 223.0 116.2Q222.6 116.6 222.6 117.2L222.6 117.2ZM224.2 110.3L218.7 119.1L217.9 118.6L223.4 109.7L224.2 110.3Z "/></g></svg>