<svg width="375" height="200" viewBox="0 0 375 200" xmlns="http://www.w3.org/2000/svg"><mask id="satori_om-id"><rect x="0" y="0" width="375" height="152" fill="#fff"/></mask><clipPath id="satori_cp-id-0"><path x="0" y="0" width="375" height="8" d="M4,0 h367 a4,4 0 0 1 4,4 v0 a4,4 0 0 1 -4,4 h-367 a4,4 0 0 1 -4,-4 v0 a4,4 0 0 1 4,-4"/></clipPath><mask id="satori_om-id-0"><rect x="0" y="0" width="375" height="8" fill="#fff"/></mask><mask id="satori_om-id-0-0"><rect x="0" y="0" width="244" height="8" fill="#fff" mask="url(#satori_om-id-0)"/></mask><rect x="0" y="0" width="244" height="8" fill="#3178c6" clip-path="url(#satori_cp-id-0)" mask="url(#satori_om-id-0)"/><mask id="satori_om-id-0-1"><rect x="244" y="0" width="31" height="8" fill="#fff" mask="url(#satori_om-id-0)"/></mask><rect x="244" y="0" width="31" height="8" fill="#ff3e00" clip-path="url(#satori_cp-id-0)" mask="url(#satori_om-id-0)"/><mask id="satori_om-id-0-2"><rect x="275" y="0" width="26" height="8" fill="#fff" mask="url(#satori_om-id-0)"/></mask><rect x="275" y="0" width="26" height="8" fill="#e34c26" clip-path="url(#satori_cp-id-0)" mask="url(#satori_om-id-0)"/><mask id="satori_om-id-0-3"><rect x="301" y="0" width="26" height="8" fill="#fff" mask="url(#satori_om-id-0)"/></mask><rect x="301" y="0" width="26" height="8" fill="#00ADD8" clip-path="url(#satori_cp-id-0)" mask="url(#satori_om-id-0)"/><mask id="satori_om-id-0-4"><rect x="327" y="0" width="17" height="8" fill="#fff" mask="url(#satori_om-id-0)"/></mask><rect x="327" y="0" width="17" height="8" fill="#f1e05a" clip-path="url(#satori_cp-id-0)" mask="url(#satori_om-id-0)"/><mask id="satori_om-id-0-5"><rect x="344" y="0" width="17" height="8" fill="#fff" mask="url(#satori_om-id-0)"/></mask><rect x="344" y="0" width="17" height="8" fill="#ff5a03" clip-path="url(#satori_cp-id-0)" mask="url(#satori_om-id-0)"/><mask id="satori_om-id-0-6"><rect x="361" y="0" width="8" height="8" fill="#fff" mask="url(#satori_om-id-0)"/></mask><rect x="361" y="0" width="8" height="8" fill="#844FBA" clip-path="url(#satori_cp-id-0)" mask="url(#satori_om-id-0)"/><mask id="satori_om-id-0-7"><rect x="369" y="0" width="3" height="8" fill="#fff" mask="url(#satori_om-id-0)"/></mask><rect x="369" y="0" width="3" height="8" fill="#555555" clip-path="url(#satori_cp-id-0)" mask="url(#satori_om-id-0)"/><mask id="satori_om-id-0-8"><rect x="372" y="0" width="3" height="8" fill="#fff" mask="url(#satori_om-id-0)"/></mask><rect x="372" y="0" width="3" height="8" fill="#563d7c" clip-path="url(#satori_cp-id-0)" mask="url(#satori_om-id-0)"/><mask id="satori_om-id-0-9"><rect x="375" y="0" width="0" height="8" fill="#fff" mask="url(#satori_om-id-0)"/></mask><rect x="375" y="0" width="0" height="8" fill="#384d54" clip-path="url(#satori_cp-id-0)" mask="url(#satori_om-id-0)"/><mask id="satori_om-id-1"><rect x="0" y="18" width="375" height="134" fill="#fff"/></mask><mask id="satori_om-id-1-0"><rect x="0" y="18" width="159" height="19" fill="#fff"/></mask><mask id="satori_om-id-1-0-0"><rect x="0" y="19" width="16" height="16" fill="#fff"/></mask><mask id="satori_om-id-1-0-0-0"><rect x="4" y="23" width="8" height="8" fill="#fff"/></mask><path x="4" y="23" width="8" height="8" fill="#3178c6" d="M8,23 h0 a4,4 0 0 1 4,4 v0 a4,4 0 0 1 -4,4 h0 a4,4 0 0 1 -4,-4 v0 a4,4 0 0 1 4,-4"/><mask id="satori_om-id-1-0-1"><rect x="29" y="18" width="78" height="19" fill="#fff"/></mask><path fill="#24292f" d="M38.6 22.1L38.6 24.0L35.1 24.0L35.1 33.5L32.8 33.5L32.8 24.0L29.3 24.0L29.3 22.1L38.6 22.1ZM40.7 25.0L42.3 30.3L43.8 25.0L46.3 25.0L42.9 34.8L42.7 35.2Q41.9 36.9 40.2 36.9L40.2 36.9Q39.7 36.9 39.2 36.7L39.2 36.7L39.2 35.0L39.5 35.0Q40.2 35.0 40.5 34.9Q40.8 34.7 41.0 34.2L41.0 34.2L41.2 33.5L38.3 25.0L40.7 25.0ZM54.8 29.2L54.8 29.3Q54.8 31.3 53.9 32.5Q53.0 33.6 51.5 33.6L51.5 33.6Q50.2 33.6 49.4 32.7L49.4 32.7L49.4 36.7L47.2 36.7L47.2 25.0L49.3 25.0L49.3 25.9Q50.1 24.9 51.5 24.9L51.5 24.9Q53.0 24.9 53.9 26.0Q54.8 27.2 54.8 29.2L54.8 29.2ZM52.5 29.2L52.5 29.2Q52.5 28.0 52.1 27.4Q51.7 26.7 50.9 26.7L50.9 26.7Q49.8 26.7 49.4 27.5L49.4 27.5L49.4 31.0Q49.8 31.8 50.9 31.8L50.9 31.8Q52.5 31.8 52.5 29.2ZM60.1 33.6L60.1 33.6Q58.2 33.6 57.0 32.5Q55.9 31.4 55.9 29.5L55.9 29.5L55.9 29.2Q55.9 28.0 56.4 27.0Q56.8 26.0 57.7 25.4Q58.6 24.9 59.8 24.9L59.8 24.9Q61.5 24.9 62.5 26.0Q63.5 27.1 63.5 29.1L63.5 29.1L63.5 30.0L58.1 30.0Q58.3 30.8 58.8 31.3Q59.4 31.8 60.2 31.8L60.2 31.8Q61.5 31.8 62.2 30.9L62.2 30.9L63.4 32.1Q62.8 32.8 62.0 33.2Q61.1 33.6 60.1 33.6ZM59.8 26.7L59.8 26.7Q59.1 26.7 58.7 27.2Q58.3 27.6 58.2 28.5L58.2 28.5L61.3 28.5L61.3 28.3Q61.3 27.5 60.9 27.1Q60.5 26.7 59.8 26.7ZM70.9 30.5L70.9 30.5Q70.9 29.8 70.4 29.5Q69.9 29.1 68.7 28.7Q67.5 28.3 66.8 28.0L66.8 28.0Q64.8 26.9 64.8 25.1L64.8 25.1Q64.8 24.2 65.4 23.5Q65.9 22.8 66.8 22.4Q67.8 22.0 69.0 22.0L69.0 22.0Q70.3 22.0 71.2 22.4Q72.2 22.8 72.7 23.6Q73.2 24.4 73.2 25.5L73.2 25.5L70.9 25.5Q70.9 24.7 70.4 24.3Q69.9 23.8 69.0 23.8L69.0 23.8Q68.1 23.8 67.7 24.2Q67.2 24.5 67.2 25.1L67.2 25.1Q67.2 25.7 67.7 26.1Q68.3 26.4 69.4 26.8L69.4 26.8Q71.4 27.4 72.3 28.3Q73.2 29.2 73.2 30.5L73.2 30.5Q73.2 32.0 72.1 32.8Q71.0 33.6 69.1 33.6L69.1 33.6Q67.8 33.6 66.7 33.2Q65.6 32.7 65.1 31.8Q64.5 31.0 64.5 29.9L64.5 29.9L66.8 29.9Q66.8 31.8 69.1 31.8L69.1 31.8Q69.9 31.8 70.4 31.4Q70.9 31.1 70.9 30.5ZM78.2 31.8L78.2 31.8Q78.8 31.8 79.2 31.5Q79.6 31.1 79.6 30.6L79.6 30.6L81.7 30.6Q81.7 31.4 81.2 32.1Q80.8 32.9 80.0 33.2Q79.2 33.6 78.2 33.6L78.2 33.6Q76.4 33.6 75.3 32.5Q74.3 31.3 74.3 29.3L74.3 29.3L74.3 29.2Q74.3 27.2 75.3 26.0Q76.4 24.9 78.2 24.9L78.2 24.9Q79.8 24.9 80.7 25.8Q81.7 26.7 81.7 28.2L81.7 28.2L79.6 28.2Q79.6 27.5 79.2 27.1Q78.8 26.7 78.1 26.7L78.1 26.7Q77.4 26.7 77.0 27.3Q76.6 27.9 76.6 29.1L76.6 29.1L76.6 29.4Q76.6 30.7 77.0 31.2Q77.4 31.8 78.2 31.8ZM87.8 25.0L87.7 27.1Q87.3 27.1 86.9 27.1L86.9 27.1Q85.6 27.1 85.3 28.0L85.3 28.0L85.3 33.5L83.0 33.5L83.0 25.0L85.1 25.0L85.2 26.0Q85.9 24.9 87.1 24.9L87.1 24.9Q87.4 24.9 87.8 25.0L87.8 25.0ZM91.2 25.0L91.2 33.5L88.9 33.5L88.9 25.0L91.2 25.0ZM88.8 22.8L88.8 22.8Q88.8 22.3 89.2 22.0Q89.5 21.7 90.1 21.7L90.1 21.7Q90.7 21.7 91 22.0Q91.3 22.3 91.3 22.8L91.3 22.8Q91.3 23.4 91.0 23.7Q90.6 24.0 90.1 24.0Q89.5 24.0 89.2 23.7Q88.8 23.4 88.8 22.8ZM100.7 29.2L100.7 29.3Q100.7 31.3 99.8 32.5Q98.9 33.6 97.4 33.6L97.4 33.6Q96.1 33.6 95.3 32.7L95.3 32.7L95.3 36.7L93.1 36.7L93.1 25.0L95.2 25.0L95.2 25.9Q96.1 24.9 97.4 24.9L97.4 24.9Q98.9 24.9 99.8 26.0Q100.7 27.2 100.7 29.2L100.7 29.2ZM98.4 29.2L98.4 29.2Q98.4 28.0 98.0 27.4Q97.6 26.7 96.8 26.7L96.8 26.7Q95.7 26.7 95.3 27.5L95.3 27.5L95.3 31.0Q95.7 31.8 96.8 31.8L96.8 31.8Q98.4 31.8 98.4 29.2ZM102.5 23.0L104.8 23.0L104.8 25.0L106.2 25.0L106.2 26.7L104.8 26.7L104.8 30.9Q104.8 31.4 105.0 31.6Q105.1 31.8 105.6 31.8L105.6 31.8Q106.0 31.8 106.3 31.7L106.3 31.7L106.3 33.4Q105.6 33.6 104.9 33.6L104.9 33.6Q102.6 33.6 102.5 31.2L102.5 31.2L102.5 26.7L101.3 26.7L101.3 25.0L102.5 25.0L102.5 23.0Z "/><mask id="satori_om-id-1-0-2"><rect x="116" y="18" width="43" height="19" fill="#fff"/></mask><path fill="#57606a" d="M122.4 22.1L122.6 22.1L122.6 23.3L122.4 23.3Q120.7 23.4 119.7 24.3Q118.7 25.3 118.5 27.1L118.5 27.1Q119.4 26.0 121.0 26.0L121.0 26.0Q122.4 26.0 123.3 27.1Q124.2 28.1 124.2 29.8L124.2 29.8Q124.2 31.5 123.3 32.6Q122.3 33.6 120.7 33.6L120.7 33.6Q119.1 33.6 118.0 32.4Q117.0 31.1 117.0 29.2L117.0 29.2L117.0 28.6Q117.0 25.5 118.4 23.8Q119.7 22.1 122.4 22.1L122.4 22.1ZM120.7 27.2L120.7 27.2Q120.0 27.2 119.4 27.7Q118.7 28.1 118.5 28.8L118.5 28.8L118.5 29.3Q118.5 30.7 119.1 31.6Q119.8 32.4 120.7 32.4L120.7 32.4Q121.7 32.4 122.2 31.7Q122.8 31.0 122.8 29.8L122.8 29.8Q122.8 28.7 122.2 27.9Q121.7 27.2 120.7 27.2ZM127.8 28.1L126.6 27.8L127.2 22.1L133 22.1L133 23.4L128.4 23.4L128.1 26.5Q128.9 26.1 130.0 26.1L130.0 26.1Q131.5 26.1 132.4 27.1Q133.3 28.1 133.3 29.9L133.3 29.9Q133.3 31.6 132.4 32.6Q131.4 33.6 129.7 33.6L129.7 33.6Q128.2 33.6 127.3 32.8Q126.3 32.0 126.2 30.5L126.2 30.5L127.6 30.5Q127.7 31.5 128.3 32.0Q128.8 32.5 129.7 32.5L129.7 32.5Q130.7 32.5 131.3 31.8Q131.9 31.1 131.9 29.9L131.9 29.9Q131.9 28.7 131.3 28.0Q130.6 27.4 129.6 27.4L129.6 27.4Q128.7 27.4 128.1 27.8L128.1 27.8L127.8 28.1ZM135.1 32.7L135.1 32.7Q135.1 32.4 135.3 32.1Q135.5 31.9 136.0 31.9Q136.4 31.9 136.7 32.1Q136.9 32.4 136.9 32.7L136.9 32.7Q136.9 33.1 136.7 33.3Q136.4 33.6 136.0 33.6Q135.5 33.6 135.3 33.3Q135.1 33.1 135.1 32.7ZM146.6 32.3L146.6 33.5L139.1 33.5L139.1 32.4L143.1 28.1Q143.9 27.1 144.3 26.5Q144.6 25.8 144.6 25.2L144.6 25.2Q144.6 24.3 144.1 23.7Q143.5 23.1 142.6 23.1L142.6 23.1Q141.5 23.1 140.9 23.8Q140.4 24.4 140.4 25.5L140.4 25.5L138.9 25.5Q138.9 23.9 139.9 22.9Q140.9 22.0 142.6 22.0L142.6 22.0Q144.2 22.0 145.1 22.8Q146.1 23.6 146.1 25.0L146.1 25.0Q146.1 26.7 143.9 29.0L143.9 29.0L140.9 32.3L146.6 32.3ZM148.0 24.8L148.0 24.3Q148.0 23.3 148.6 22.6Q149.3 21.9 150.3 21.9L150.3 21.9Q151.4 21.9 152.0 22.6Q152.6 23.3 152.6 24.3L152.6 24.3L152.6 24.9Q152.6 25.9 152.0 26.6Q151.3 27.2 150.3 27.2L150.3 27.2Q149.3 27.2 148.6 26.6Q148.0 25.9 148.0 24.8L148.0 24.8ZM149.1 24.3L149.1 24.9Q149.1 25.5 149.4 25.9Q149.8 26.3 150.3 26.3L150.3 26.3Q150.9 26.3 151.2 25.9Q151.6 25.5 151.6 24.9L151.6 24.9L151.6 24.3Q151.6 23.7 151.2 23.3Q150.9 22.9 150.3 22.9Q149.7 22.9 149.4 23.3Q149.1 23.7 149.1 24.3L149.1 24.3ZM153.5 31.3L153.5 30.7Q153.5 29.7 154.2 29.0Q154.8 28.4 155.9 28.4Q156.9 28.4 157.5 29.0Q158.2 29.7 158.2 30.7L158.2 30.7L158.2 31.3Q158.2 32.3 157.5 33.0Q156.9 33.6 155.9 33.6Q154.9 33.6 154.2 33.0Q153.5 32.3 153.5 31.3L153.5 31.3ZM154.6 30.7L154.6 31.3Q154.6 31.9 154.9 32.3Q155.3 32.7 155.9 32.7L155.9 32.7Q156.4 32.7 156.8 32.3Q157.1 31.9 157.1 31.3L157.1 31.3L157.1 30.7Q157.1 30.1 156.8 29.7Q156.4 29.3 155.9 29.3L155.9 29.3Q155.3 29.3 154.9 29.7Q154.6 30.1 154.6 30.7L154.6 30.7ZM156.2 23.7L150.7 32.6L149.8 32.1L155.4 23.2L156.2 23.7Z "/><mask id="satori_om-id-1-1"><rect x="169" y="18" width="117" height="19" fill="#fff"/></mask><mask id="satori_om-id-1-1-0"><rect x="169" y="19" width="16" height="16" fill="#fff"/></mask><mask id="satori_om-id-1-1-0-0"><rect x="173" y="23" width="8" height="8" fill="#fff"/></mask><path x="173" y="23" width="8" height="8" fill="#ff3e00" d="M177,23 h0 a4,4 0 0 1 4,4 v0 a4,4 0 0 1 -4,4 h0 a4,4 0 0 1 -4,-4 v0 a4,4 0 0 1 4,-4"/><mask id="satori_om-id-1-1-1"><rect x="198" y="18" width="45" height="19" fill="#fff"/></mask><path fill="#24292f" d="M204.9 30.5L204.9 30.5Q204.9 29.8 204.4 29.5Q204.0 29.1 202.8 28.7Q201.5 28.3 200.8 28.0L200.8 28.0Q198.9 26.9 198.9 25.1L198.9 25.1Q198.9 24.2 199.4 23.5Q199.9 22.8 200.9 22.4Q201.9 22.0 203.1 22.0L203.1 22.0Q204.3 22.0 205.3 22.4Q206.2 22.8 206.7 23.6Q207.3 24.4 207.3 25.5L207.3 25.5L204.9 25.5Q204.9 24.7 204.4 24.3Q203.9 23.8 203.0 23.8L203.0 23.8Q202.2 23.8 201.7 24.2Q201.2 24.5 201.2 25.1L201.2 25.1Q201.2 25.7 201.8 26.1Q202.4 26.4 203.4 26.8L203.4 26.8Q205.4 27.4 206.4 28.3Q207.3 29.2 207.3 30.5L207.3 30.5Q207.3 32.0 206.1 32.8Q205.0 33.6 203.1 33.6L203.1 33.6Q201.8 33.6 200.8 33.2Q199.7 32.7 199.1 31.8Q198.5 31.0 198.5 29.9L198.5 29.9L200.9 29.9Q200.9 31.8 203.1 31.8L203.1 31.8Q204.0 31.8 204.4 31.4Q204.9 31.1 204.9 30.5ZM210.3 25.0L211.9 30.7L213.4 25.0L215.8 25.0L212.9 33.5L210.8 33.5L207.9 25.0L210.3 25.0ZM220.6 33.6L220.6 33.6Q218.7 33.6 217.6 32.5Q216.4 31.4 216.4 29.5L216.4 29.5L216.4 29.2Q216.4 28.0 216.9 27.0Q217.4 26.0 218.3 25.4Q219.2 24.9 220.3 24.9L220.3 24.9Q222.1 24.9 223.1 26.0Q224.1 27.1 224.1 29.1L224.1 29.1L224.1 30.0L218.7 30.0Q218.8 30.8 219.3 31.3Q219.9 31.8 220.7 31.8L220.7 31.8Q222.0 31.8 222.8 30.9L222.8 30.9L223.9 32.1Q223.4 32.8 222.5 33.2Q221.6 33.6 220.6 33.6ZM220.3 26.7L220.3 26.7Q219.6 26.7 219.2 27.2Q218.8 27.6 218.7 28.5L218.7 28.5L221.8 28.5L221.8 28.3Q221.8 27.5 221.4 27.1Q221.0 26.7 220.3 26.7ZM227.7 21.5L227.7 33.5L225.5 33.5L225.5 21.5L227.7 21.5ZM230.0 23.0L232.3 23.0L232.3 25.0L233.7 25.0L233.7 26.7L232.3 26.7L232.3 30.9Q232.3 31.4 232.5 31.6Q232.6 31.8 233.1 31.8L233.1 31.8Q233.5 31.8 233.8 31.7L233.8 31.7L233.8 33.4Q233.1 33.6 232.4 33.6L232.4 33.6Q230.1 33.6 230.0 31.2L230.0 31.2L230.0 26.7L228.8 26.7L228.8 25.0L230.0 25.0L230.0 23.0ZM238.9 33.6L238.9 33.6Q237.0 33.6 235.8 32.5Q234.7 31.4 234.7 29.5L234.7 29.5L234.7 29.2Q234.7 28.0 235.2 27.0Q235.7 26.0 236.6 25.4Q237.5 24.9 238.6 24.9L238.6 24.9Q240.4 24.9 241.4 26.0Q242.4 27.1 242.4 29.1L242.4 29.1L242.4 30.0L237.0 30.0Q237.1 30.8 237.6 31.3Q238.2 31.8 239.0 31.8L239.0 31.8Q240.3 31.8 241.1 30.9L241.1 30.9L242.2 32.1Q241.7 32.8 240.8 33.2Q239.9 33.6 238.9 33.6ZM238.6 26.7L238.6 26.7Q237.9 26.7 237.5 27.2Q237.1 27.6 237.0 28.5L237.0 28.5L240.1 28.5L240.1 28.3Q240.1 27.5 239.7 27.1Q239.3 26.7 238.6 26.7Z "/><mask id="satori_om-id-1-1-2"><rect x="252" y="18" width="34" height="19" fill="#fff"/></mask><path fill="#57606a" d="M259.8 25.1L259.8 25.1Q259.8 25.9 259.4 26.6Q258.9 27.3 258.2 27.6L258.2 27.6Q259.1 28.0 259.6 28.7Q260.1 29.5 260.1 30.4L260.1 30.4Q260.1 31.9 259.1 32.8Q258.1 33.6 256.5 33.6L256.5 33.6Q254.9 33.6 253.9 32.8Q252.9 31.9 252.9 30.4L252.9 30.4Q252.9 29.5 253.4 28.7Q253.9 28.0 254.8 27.6L254.8 27.6Q254.0 27.2 253.6 26.6Q253.1 25.9 253.1 25.1L253.1 25.1Q253.1 23.6 254.1 22.8Q255.0 22.0 256.5 22.0L256.5 22.0Q258.0 22.0 258.9 22.8Q259.8 23.6 259.8 25.1ZM258.7 30.4L258.7 30.4Q258.7 29.4 258.1 28.8Q257.5 28.2 256.5 28.2Q255.5 28.2 254.9 28.8Q254.3 29.4 254.3 30.4Q254.3 31.4 254.9 31.9Q255.5 32.5 256.5 32.5L256.5 32.5Q257.5 32.5 258.1 31.9Q258.7 31.3 258.7 30.4ZM256.5 23.1L256.5 23.1Q255.6 23.1 255.1 23.7Q254.6 24.2 254.6 25.1L254.6 25.1Q254.6 26.0 255.1 26.5Q255.6 27.0 256.5 27.0Q257.4 27.0 257.9 26.5Q258.4 26.0 258.4 25.1Q258.4 24.2 257.9 23.7Q257.3 23.1 256.5 23.1ZM262.1 32.7L262.1 32.7Q262.1 32.4 262.3 32.1Q262.6 31.9 263 31.9Q263.4 31.9 263.7 32.1Q263.9 32.4 263.9 32.7L263.9 32.7Q263.9 33.1 263.7 33.3Q263.4 33.6 263 33.6Q262.6 33.6 262.3 33.3Q262.1 33.1 262.1 32.7ZM273.3 26.8L273.3 28.6Q273.3 31.2 272.4 32.4Q271.5 33.6 269.7 33.6L269.7 33.6Q267.9 33.6 267 32.4Q266.1 31.2 266.1 28.8L266.1 28.8L266.1 26.9Q266.1 24.4 267.0 23.2Q267.8 22.0 269.7 22.0L269.7 22.0Q271.5 22.0 272.4 23.1Q273.3 24.3 273.3 26.8L273.3 26.8ZM271.8 29.0L271.8 26.7Q271.8 24.8 271.3 24.0Q270.8 23.1 269.7 23.1L269.7 23.1Q268.6 23.1 268.1 24.0Q267.6 24.8 267.5 26.5L267.5 26.5L267.5 28.9Q267.5 30.7 268.1 31.6Q268.6 32.5 269.7 32.5L269.7 32.5Q270.8 32.5 271.3 31.6Q271.8 30.8 271.8 29.0L271.8 29.0ZM275 24.8L275 24.3Q275 23.3 275.7 22.6Q276.3 21.9 277.3 21.9L277.3 21.9Q278.4 21.9 279.0 22.6Q279.7 23.3 279.7 24.3L279.7 24.3L279.7 24.9Q279.7 25.9 279.0 26.6Q278.4 27.2 277.3 27.2L277.3 27.2Q276.3 27.2 275.7 26.6Q275 25.9 275 24.8L275 24.8ZM276.1 24.3L276.1 24.9Q276.1 25.5 276.4 25.9Q276.8 26.3 277.3 26.3L277.3 26.3Q277.9 26.3 278.2 25.9Q278.6 25.5 278.6 24.9L278.6 24.9L278.6 24.3Q278.6 23.7 278.2 23.3Q277.9 22.9 277.3 22.9Q276.8 22.9 276.4 23.3Q276.1 23.7 276.1 24.3L276.1 24.3ZM280.5 31.3L280.5 30.7Q280.5 29.7 281.2 29.0Q281.8 28.4 282.9 28.4Q283.9 28.4 284.5 29.0Q285.2 29.7 285.2 30.7L285.2 30.7L285.2 31.3Q285.2 32.3 284.6 33.0Q283.9 33.6 282.9 33.6Q281.9 33.6 281.2 33.0Q280.5 32.3 280.5 31.3L280.5 31.3ZM281.6 30.7L281.6 31.3Q281.6 31.9 282.0 32.3Q282.3 32.7 282.9 32.7L282.9 32.7Q283.4 32.7 283.8 32.3Q284.1 31.9 284.1 31.3L284.1 31.3L284.1 30.7Q284.1 30.1 283.8 29.7Q283.4 29.3 282.9 29.3L282.9 29.3Q282.3 29.3 282.0 29.7Q281.6 30.1 281.6 30.7L281.6 30.7ZM283.2 23.7L277.7 32.6L276.9 32.1L282.4 23.2L283.2 23.7Z "/><mask id="satori_om-id-1-2"><rect x="0" y="47" width="116" height="19" fill="#fff"/></mask><mask id="satori_om-id-1-2-0"><rect x="0" y="48" width="16" height="16" fill="#fff"/></mask><mask id="satori_om-id-1-2-0-0"><rect x="4" y="52" width="8" height="8" fill="#fff"/></mask><path x="4" y="52" width="8" height="8" fill="#e34c26" d="M8,52 h0 a4,4 0 0 1 4,4 v0 a4,4 0 0 1 -4,4 h0 a4,4 0 0 1 -4,-4 v0 a4,4 0 0 1 4,-4"/><mask id="satori_om-id-1-2-1"><rect x="29" y="47" width="44" height="19" fill="#fff"/></mask><path fill="#24292f" d="M39.3 51.1L39.3 62.5L36.9 62.5L36.9 57.6L32.4 57.6L32.4 62.5L30.0 62.5L30.0 51.1L32.4 51.1L32.4 55.7L36.9 55.7L36.9 51.1L39.3 51.1ZM49.7 51.1L49.7 53.0L46.2 53.0L46.2 62.5L43.8 62.5L43.8 53.0L40.4 53.0L40.4 51.1L49.7 51.1ZM51.0 51.1L54.1 51.1L57.0 59.4L59.9 51.1L63.0 51.1L63.0 62.5L60.6 62.5L60.6 59.4L60.8 54.0L57.8 62.5L56.2 62.5L53.1 54.0L53.3 59.4L53.3 62.5L51.0 62.5L51.0 51.1ZM67.4 51.1L67.4 60.6L72.3 60.6L72.3 62.5L65.0 62.5L65.0 51.1L67.4 51.1Z "/><mask id="satori_om-id-1-2-2"><rect x="82" y="47" width="34" height="19" fill="#fff"/></mask><path fill="#57606a" d="M90.3 51.1L90.3 51.9L85.6 62.5L84.1 62.5L88.8 52.3L82.6 52.3L82.6 51.1L90.3 51.1ZM92.1 61.7L92.1 61.7Q92.1 61.4 92.3 61.1Q92.6 60.9 93 60.9Q93.4 60.9 93.7 61.1Q93.9 61.4 93.9 61.7L93.9 61.7Q93.9 62.1 93.7 62.3Q93.4 62.6 93 62.6Q92.6 62.6 92.3 62.3Q92.1 62.1 92.1 61.7ZM100.9 51.1L100.9 62.5L99.4 62.5L99.4 52.9L96.5 53.9L96.5 52.6L100.7 51.1L100.9 51.1ZM105 53.8L105 53.3Q105 52.3 105.7 51.6Q106.3 50.9 107.3 50.9L107.3 50.9Q108.4 50.9 109.0 51.6Q109.7 52.3 109.7 53.3L109.7 53.3L109.7 53.9Q109.7 54.9 109.0 55.6Q108.4 56.2 107.3 56.2L107.3 56.2Q106.3 56.2 105.7 55.6Q105 54.9 105 53.8L105 53.8ZM106.1 53.3L106.1 53.9Q106.1 54.5 106.4 54.9Q106.8 55.3 107.3 55.3L107.3 55.3Q107.9 55.3 108.2 54.9Q108.6 54.5 108.6 53.9L108.6 53.9L108.6 53.3Q108.6 52.7 108.2 52.3Q107.9 51.9 107.3 51.9Q106.8 51.9 106.4 52.3Q106.1 52.7 106.1 53.3L106.1 53.3ZM110.5 60.3L110.5 59.7Q110.5 58.7 111.2 58.0Q111.8 57.4 112.9 57.4Q113.9 57.4 114.5 58.0Q115.2 58.7 115.2 59.7L115.2 59.7L115.2 60.3Q115.2 61.3 114.6 62.0Q113.9 62.6 112.9 62.6Q111.9 62.6 111.2 62.0Q110.5 61.3 110.5 60.3L110.5 60.3ZM111.6 59.7L111.6 60.3Q111.6 60.9 112.0 61.3Q112.3 61.7 112.9 61.7L112.9 61.7Q113.4 61.7 113.8 61.3Q114.1 60.9 114.1 60.3L114.1 60.3L114.1 59.7Q114.1 59.1 113.8 58.7Q113.4 58.3 112.9 58.3L112.9 58.3Q112.3 58.3 112.0 58.7Q111.6 59.1 111.6 59.7L111.6 59.7ZM113.2 52.7L107.7 61.6L106.9 61.1L112.4 52.2L113.2 52.7Z "/><mask id="satori_om-id-1-3"><rect x="126" y="47" width="92" height="19" fill="#fff"/></mask><mask id="satori_om-id-1-3-0"><rect x="126" y="48" width="16" height="16" fill="#fff"/></mask><mask id="satori_om-id-1-3-0-0"><rect x="130" y="52" width="8" height="8" fill="#fff"/></mask><path x="130" y="52" width="8" height="8" fill="#00ADD8" d="M134,52 h0 a4,4 0 0 1 4,4 v0 a4,4 0 0 1 -4,4 h0 a4,4 0 0 1 -4,-4 v0 a4,4 0 0 1 4,-4"/><mask id="satori_om-id-1-3-1"><rect x="155" y="47" width="20" height="19" fill="#fff"/></mask><path fill="#24292f" d="M165.0 56.5L165.0 61.0Q164.4 61.8 163.2 62.2Q162.1 62.6 160.7 62.6L160.7 62.6Q159.2 62.6 158.1 62.0Q157.0 61.4 156.4 60.1Q155.8 58.9 155.7 57.2L155.7 57.2L155.7 56.5Q155.7 54.8 156.3 53.5Q156.9 52.3 158.0 51.6Q159.0 51.0 160.5 51.0L160.5 51.0Q162.5 51.0 163.7 51.9Q164.8 52.9 165.0 54.7L165.0 54.7L162.7 54.7Q162.6 53.7 162.0 53.3Q161.5 52.8 160.6 52.8L160.6 52.8Q159.4 52.8 158.8 53.7Q158.1 54.6 158.1 56.4L158.1 56.4L158.1 57.1Q158.1 58.9 158.8 59.8Q159.5 60.8 160.8 60.8L160.8 60.8Q162.1 60.8 162.7 60.2L162.7 60.2L162.7 58.2L160.5 58.2L160.5 56.5L165.0 56.5ZM166.4 58.3L166.4 58.2Q166.4 56.9 166.9 55.9Q167.4 55.0 168.3 54.4Q169.2 53.9 170.4 53.9L170.4 53.9Q172.1 53.9 173.2 54.9Q174.3 56.0 174.4 57.8L174.4 57.8L174.4 58.3Q174.4 60.3 173.3 61.5Q172.3 62.6 170.4 62.6Q168.6 62.6 167.5 61.5Q166.4 60.3 166.4 58.3L166.4 58.3ZM168.7 58.3L168.7 58.3Q168.7 59.5 169.1 60.2Q169.6 60.8 170.4 60.8L170.4 60.8Q171.2 60.8 171.7 60.2Q172.2 59.6 172.2 58.2L172.2 58.2Q172.2 57.0 171.7 56.4Q171.2 55.7 170.4 55.7L170.4 55.7Q169.6 55.7 169.1 56.3Q168.7 57.0 168.7 58.3Z "/><mask id="satori_om-id-1-3-2"><rect x="184" y="47" width="34" height="19" fill="#fff"/></mask><path fill="#57606a" d="M190.4 51.1L190.6 51.1L190.6 52.3L190.4 52.3Q188.7 52.4 187.7 53.3Q186.7 54.3 186.5 56.1L186.5 56.1Q187.4 55.0 189.0 55.0L189.0 55.0Q190.4 55.0 191.3 56.1Q192.2 57.1 192.2 58.8L192.2 58.8Q192.2 60.5 191.3 61.6Q190.3 62.6 188.7 62.6L188.7 62.6Q187.1 62.6 186.0 61.4Q185.0 60.1 185.0 58.2L185.0 58.2L185.0 57.6Q185.0 54.5 186.4 52.8Q187.7 51.1 190.4 51.1L190.4 51.1ZM188.7 56.2L188.7 56.2Q188.0 56.2 187.4 56.7Q186.7 57.1 186.5 57.8L186.5 57.8L186.5 58.3Q186.5 59.7 187.1 60.6Q187.8 61.4 188.7 61.4L188.7 61.4Q189.7 61.4 190.2 60.7Q190.8 60.0 190.8 58.8L190.8 58.8Q190.8 57.7 190.2 56.9Q189.7 56.2 188.7 56.2ZM194.1 61.7L194.1 61.7Q194.1 61.4 194.3 61.1Q194.6 60.9 195 60.9Q195.4 60.9 195.7 61.1Q195.9 61.4 195.9 61.7L195.9 61.7Q195.9 62.1 195.7 62.3Q195.4 62.6 195 62.6Q194.6 62.6 194.3 62.3Q194.1 62.1 194.1 61.7ZM203.7 57.5L203.7 57.5Q203.2 58.0 202.6 58.4Q202.0 58.7 201.2 58.7L201.2 58.7Q200.2 58.7 199.5 58.2Q198.8 57.7 198.4 56.8Q198.0 56.0 198.0 54.9L198.0 54.9Q198.0 53.7 198.4 52.8Q198.8 51.9 199.6 51.4Q200.4 51.0 201.5 51.0L201.5 51.0Q203.2 51.0 204.2 52.2Q205.1 53.5 205.1 55.7L205.1 55.7L205.1 56.1Q205.1 59.4 203.8 60.9Q202.5 62.5 199.9 62.5L199.9 62.5L199.6 62.5L199.6 61.3L199.9 61.3Q201.7 61.2 202.6 60.3Q203.6 59.4 203.7 57.5ZM201.5 57.5L201.5 57.5Q202.2 57.5 202.8 57.0Q203.4 56.6 203.7 55.9L203.7 55.9L203.7 55.4Q203.7 53.9 203.1 53.0Q202.5 52.2 201.5 52.2L201.5 52.2Q200.6 52.2 200.0 52.9Q199.4 53.6 199.4 54.8L199.4 54.8Q199.4 56.0 200.0 56.7Q200.5 57.5 201.5 57.5ZM207 53.8L207 53.3Q207 52.3 207.7 51.6Q208.3 50.9 209.3 50.9L209.3 50.9Q210.4 50.9 211.0 51.6Q211.7 52.3 211.7 53.3L211.7 53.3L211.7 53.9Q211.7 54.9 211.0 55.6Q210.4 56.2 209.3 56.2L209.3 56.2Q208.3 56.2 207.7 55.6Q207 54.9 207 53.8L207 53.8ZM208.1 53.3L208.1 53.9Q208.1 54.5 208.4 54.9Q208.8 55.3 209.3 55.3L209.3 55.3Q209.9 55.3 210.2 54.9Q210.6 54.5 210.6 53.9L210.6 53.9L210.6 53.3Q210.6 52.7 210.2 52.3Q209.9 51.9 209.3 51.9Q208.8 51.9 208.4 52.3Q208.1 52.7 208.1 53.3L208.1 53.3ZM212.5 60.3L212.5 59.7Q212.5 58.7 213.2 58.0Q213.8 57.4 214.9 57.4Q215.9 57.4 216.5 58.0Q217.2 58.7 217.2 59.7L217.2 59.7L217.2 60.3Q217.2 61.3 216.6 62.0Q215.9 62.6 214.9 62.6Q213.9 62.6 213.2 62.0Q212.5 61.3 212.5 60.3L212.5 60.3ZM213.6 59.7L213.6 60.3Q213.6 60.9 214.0 61.3Q214.3 61.7 214.9 61.7L214.9 61.7Q215.4 61.7 215.8 61.3Q216.1 60.9 216.1 60.3L216.1 60.3L216.1 59.7Q216.1 59.1 215.8 58.7Q215.4 58.3 214.9 58.3L214.9 58.3Q214.3 58.3 214.0 58.7Q213.6 59.1 213.6 59.7L213.6 59.7ZM215.2 52.7L209.7 61.6L208.9 61.1L214.4 52.2L215.2 52.7Z "/><mask id="satori_om-id-1-4"><rect x="0" y="76" width="149" height="18" fill="#fff"/></mask><mask id="satori_om-id-1-4-0"><rect x="0" y="77" width="16" height="16" fill="#fff"/></mask><mask id="satori_om-id-1-4-0-0"><rect x="4" y="81" width="8" height="8" fill="#fff"/></mask><path x="4" y="81" width="8" height="8" fill="#f1e05a" d="M8,81 h0 a4,4 0 0 1 4,4 v0 a4,4 0 0 1 -4,4 h0 a4,4 0 0 1 -4,-4 v0 a4,4 0 0 1 4,-4"/><mask id="satori_om-id-1-4-1"><rect x="29" y="76" width="77" height="18" fill="#fff"/></mask><path fill="#24292f" d="M34.6 88.0L34.6 80.1L36.9 80.1L36.9 88.0Q36.9 89.1 36.5 89.9Q36.0 90.7 35.1 91.2Q34.2 91.6 33.1 91.6L33.1 91.6Q31.3 91.6 30.3 90.7Q29.3 89.8 29.3 88.1L29.3 88.1L31.7 88.1Q31.7 89.0 32.0 89.4Q32.4 89.8 33.1 89.8L33.1 89.8Q33.8 89.8 34.2 89.3Q34.6 88.8 34.6 88.0L34.6 88.0ZM46.0 91.5L43.7 91.5Q43.5 91.2 43.5 90.7L43.5 90.7Q42.7 91.6 41.3 91.6L41.3 91.6Q40.1 91.6 39.3 90.9Q38.5 90.2 38.5 89.1L38.5 89.1Q38.5 87.8 39.5 87.0Q40.5 86.3 42.3 86.3L42.3 86.3L43.4 86.3L43.4 85.8Q43.4 85.2 43.1 84.9Q42.8 84.5 42.1 84.5L42.1 84.5Q41.6 84.5 41.2 84.8Q40.9 85.1 40.9 85.6L40.9 85.6L38.7 85.6Q38.7 84.8 39.1 84.2Q39.6 83.6 40.4 83.2Q41.2 82.9 42.3 82.9L42.3 82.9Q43.8 82.9 44.7 83.7Q45.6 84.4 45.6 85.9L45.6 85.9L45.6 89.5Q45.7 90.7 46.0 91.4L46.0 91.4L46.0 91.5ZM41.8 89.9L41.8 89.9Q42.3 89.9 42.8 89.7Q43.2 89.5 43.4 89.1L43.4 89.1L43.4 87.6L42.5 87.6Q40.8 87.6 40.7 88.8L40.7 88.8L40.7 88.9Q40.7 89.4 41.0 89.6Q41.3 89.9 41.8 89.9ZM48.9 83.0L50.4 88.7L52 83.0L54.4 83.0L51.5 91.5L49.4 91.5L46.5 83.0L48.9 83.0ZM62.4 91.5L60.1 91.5Q60.0 91.2 59.9 90.7L59.9 90.7Q59.1 91.6 57.8 91.6L57.8 91.6Q56.5 91.6 55.7 90.9Q54.9 90.2 54.9 89.1L54.9 89.1Q54.9 87.8 55.9 87.0Q56.9 86.3 58.8 86.3L58.8 86.3L59.8 86.3L59.8 85.8Q59.8 85.2 59.5 84.9Q59.2 84.5 58.6 84.5L58.6 84.5Q58.0 84.5 57.7 84.8Q57.3 85.1 57.3 85.6L57.3 85.6L55.1 85.6Q55.1 84.8 55.5 84.2Q56.0 83.6 56.8 83.2Q57.6 82.9 58.7 82.9L58.7 82.9Q60.2 82.9 61.2 83.7Q62.1 84.4 62.1 85.9L62.1 85.9L62.1 89.5Q62.1 90.7 62.4 91.4L62.4 91.4L62.4 91.5ZM58.3 89.9L58.3 89.9Q58.8 89.9 59.2 89.7Q59.6 89.5 59.8 89.1L59.8 89.1L59.8 87.6L59.0 87.6Q57.3 87.6 57.2 88.8L57.2 88.8L57.2 88.9Q57.2 89.4 57.5 89.6Q57.8 89.9 58.3 89.9ZM69.9 88.5L69.9 88.5Q69.9 87.8 69.4 87.5Q68.9 87.1 67.7 86.7Q66.5 86.3 65.8 86.0L65.8 86.0Q63.8 84.9 63.8 83.1L63.8 83.1Q63.8 82.2 64.4 81.5Q64.9 80.8 65.8 80.4Q66.8 80.0 68.0 80.0L68.0 80.0Q69.3 80.0 70.2 80.4Q71.2 80.8 71.7 81.6Q72.2 82.4 72.2 83.5L72.2 83.5L69.9 83.5Q69.9 82.7 69.4 82.3Q68.9 81.8 68.0 81.8L68.0 81.8Q67.1 81.8 66.7 82.2Q66.2 82.5 66.2 83.1L66.2 83.1Q66.2 83.7 66.7 84.1Q67.3 84.4 68.4 84.8L68.4 84.8Q70.4 85.4 71.3 86.3Q72.2 87.2 72.2 88.5L72.2 88.5Q72.2 90.0 71.1 90.8Q70.0 91.6 68.1 91.6L68.1 91.6Q66.8 91.6 65.7 91.2Q64.6 90.7 64.1 89.8Q63.5 89.0 63.5 87.9L63.5 87.9L65.8 87.9Q65.8 89.8 68.1 89.8L68.1 89.8Q68.9 89.8 69.4 89.4Q69.9 89.1 69.9 88.5ZM77.2 89.8L77.2 89.8Q77.8 89.8 78.2 89.5Q78.6 89.1 78.6 88.6L78.6 88.6L80.7 88.6Q80.7 89.4 80.2 90.1Q79.8 90.9 79.0 91.2Q78.2 91.6 77.2 91.6L77.2 91.6Q75.4 91.6 74.3 90.5Q73.3 89.3 73.3 87.3L73.3 87.3L73.3 87.2Q73.3 85.2 74.3 84.0Q75.4 82.9 77.2 82.9L77.2 82.9Q78.8 82.9 79.7 83.8Q80.7 84.7 80.7 86.2L80.7 86.2L78.6 86.2Q78.6 85.5 78.2 85.1Q77.8 84.7 77.1 84.7L77.1 84.7Q76.4 84.7 76.0 85.3Q75.6 85.9 75.6 87.1L75.6 87.1L75.6 87.4Q75.6 88.7 76.0 89.2Q76.4 89.8 77.2 89.8ZM86.8 83.0L86.7 85.1Q86.3 85.1 85.9 85.1L85.9 85.1Q84.6 85.1 84.3 86.0L84.3 86.0L84.3 91.5L82.0 91.5L82.0 83.0L84.1 83.0L84.2 84.0Q84.9 82.9 86.1 82.9L86.1 82.9Q86.4 82.9 86.8 83.0L86.8 83.0ZM90.2 83.0L90.2 91.5L87.9 91.5L87.9 83.0L90.2 83.0ZM87.8 80.8L87.8 80.8Q87.8 80.3 88.2 80.0Q88.5 79.7 89.1 79.7L89.1 79.7Q89.7 79.7 90 80.0Q90.3 80.3 90.3 80.8L90.3 80.8Q90.3 81.4 90.0 81.7Q89.6 82.0 89.1 82.0Q88.5 82.0 88.2 81.7Q87.8 81.4 87.8 80.8ZM99.7 87.2L99.7 87.3Q99.7 89.3 98.8 90.5Q97.9 91.6 96.4 91.6L96.4 91.6Q95.1 91.6 94.3 90.7L94.3 90.7L94.3 94.7L92.1 94.7L92.1 83.0L94.2 83.0L94.2 83.9Q95.1 82.9 96.4 82.9L96.4 82.9Q97.9 82.9 98.8 84.0Q99.7 85.2 99.7 87.2L99.7 87.2ZM97.4 87.2L97.4 87.2Q97.4 86.0 97.0 85.4Q96.6 84.7 95.8 84.7L95.8 84.7Q94.7 84.7 94.3 85.5L94.3 85.5L94.3 89.0Q94.7 89.8 95.8 89.8L95.8 89.8Q97.4 89.8 97.4 87.2ZM101.5 81.0L103.8 81.0L103.8 83.0L105.2 83.0L105.2 84.7L103.8 84.7L103.8 88.9Q103.8 89.4 104.0 89.6Q104.1 89.8 104.6 89.8L104.6 89.8Q105.0 89.8 105.3 89.7L105.3 89.7L105.3 91.4Q104.6 91.6 103.9 91.6L103.9 91.6Q101.6 91.6 101.5 89.2L101.5 89.2L101.5 84.7L100.3 84.7L100.3 83.0L101.5 83.0L101.5 81.0Z "/><mask id="satori_om-id-1-4-2"><rect x="115" y="76" width="34" height="18" fill="#fff"/></mask><path fill="#57606a" d="M122.0 80.1L122.0 87.7L123.6 87.7L123.6 88.8L122.0 88.8L122.0 91.5L120.6 91.5L120.6 88.8L115.4 88.8L115.4 88.0L120.5 80.1L122.0 80.1ZM120.4 82.4L117.1 87.7L120.6 87.7L120.6 82.1L120.4 82.4ZM125.1 90.7L125.1 90.7Q125.1 90.4 125.3 90.1Q125.6 89.9 126 89.9Q126.4 89.9 126.7 90.1Q126.9 90.4 126.9 90.7L126.9 90.7Q126.9 91.1 126.7 91.3Q126.4 91.6 126 91.6Q125.6 91.6 125.3 91.3Q125.1 91.1 125.1 90.7ZM134.6 80.1L134.8 80.1L134.8 81.3L134.5 81.3Q132.9 81.4 131.9 82.3Q130.9 83.3 130.7 85.1L130.7 85.1Q131.6 84.0 133.2 84.0L133.2 84.0Q134.6 84.0 135.5 85.1Q136.4 86.1 136.4 87.8L136.4 87.8Q136.4 89.5 135.5 90.6Q134.5 91.6 132.9 91.6L132.9 91.6Q131.3 91.6 130.2 90.4Q129.2 89.1 129.2 87.2L129.2 87.2L129.2 86.6Q129.2 83.5 130.6 81.8Q131.9 80.1 134.6 80.1L134.6 80.1ZM132.9 85.2L132.9 85.2Q132.2 85.2 131.5 85.7Q130.9 86.1 130.7 86.8L130.7 86.8L130.7 87.3Q130.7 88.7 131.3 89.6Q131.9 90.4 132.9 90.4L132.9 90.4Q133.9 90.4 134.4 89.7Q135.0 89.0 135.0 87.8L135.0 87.8Q135.0 86.7 134.4 85.9Q133.9 85.2 132.9 85.2ZM138 82.8L138 82.3Q138 81.3 138.7 80.6Q139.3 79.9 140.3 79.9L140.3 79.9Q141.4 79.9 142.0 80.6Q142.7 81.3 142.7 82.3L142.7 82.3L142.7 82.9Q142.7 83.9 142.0 84.6Q141.4 85.2 140.3 85.2L140.3 85.2Q139.3 85.2 138.7 84.6Q138 83.9 138 82.8L138 82.8ZM139.1 82.3L139.1 82.9Q139.1 83.5 139.4 83.9Q139.8 84.3 140.3 84.3L140.3 84.3Q140.9 84.3 141.2 83.9Q141.6 83.5 141.6 82.9L141.6 82.9L141.6 82.3Q141.6 81.7 141.2 81.3Q140.9 80.9 140.3 80.9Q139.8 80.9 139.4 81.3Q139.1 81.7 139.1 82.3L139.1 82.3ZM143.5 89.3L143.5 88.7Q143.5 87.7 144.2 87.0Q144.8 86.4 145.9 86.4Q146.9 86.4 147.5 87.0Q148.2 87.7 148.2 88.7L148.2 88.7L148.2 89.3Q148.2 90.3 147.6 91.0Q146.9 91.6 145.9 91.6Q144.9 91.6 144.2 91.0Q143.5 90.3 143.5 89.3L143.5 89.3ZM144.6 88.7L144.6 89.3Q144.6 89.9 145.0 90.3Q145.3 90.7 145.9 90.7L145.9 90.7Q146.4 90.7 146.8 90.3Q147.1 89.9 147.1 89.3L147.1 89.3L147.1 88.7Q147.1 88.1 146.8 87.7Q146.4 87.3 145.9 87.3L145.9 87.3Q145.3 87.3 145.0 87.7Q144.6 88.1 144.6 88.7L144.6 88.7ZM146.2 81.7L140.7 90.6L139.9 90.1L145.4 81.2L146.2 81.7Z "/><mask id="satori_om-id-1-5"><rect x="159" y="76" width="111" height="18" fill="#fff"/></mask><mask id="satori_om-id-1-5-0"><rect x="159" y="77" width="16" height="16" fill="#fff"/></mask><mask id="satori_om-id-1-5-0-0"><rect x="163" y="81" width="8" height="8" fill="#fff"/></mask><path x="163" y="81" width="8" height="8" fill="#ff5a03" d="M167,81 h0 a4,4 0 0 1 4,4 v0 a4,4 0 0 1 -4,4 h0 a4,4 0 0 1 -4,-4 v0 a4,4 0 0 1 4,-4"/><mask id="satori_om-id-1-5-1"><rect x="188" y="76" width="39" height="18" fill="#fff"/></mask><path fill="#24292f" d="M196.2 91.5L195.4 89.1L191.3 89.1L190.5 91.5L188.1 91.5L192.3 80.1L194.5 80.1L198.7 91.5L196.2 91.5ZM193.4 83.0L192.0 87.2L194.8 87.2L193.4 83.0ZM204.2 89.1L204.2 89.1Q204.2 88.7 203.8 88.5Q203.4 88.3 202.5 88.1L202.5 88.1Q199.5 87.4 199.5 85.5L199.5 85.5Q199.5 84.4 200.4 83.6Q201.3 82.9 202.8 82.9L202.8 82.9Q204.5 82.9 205.4 83.6Q206.4 84.4 206.4 85.6L206.4 85.6L204.1 85.6Q204.1 85.1 203.8 84.8Q203.5 84.5 202.8 84.5L202.8 84.5Q202.3 84.5 202.0 84.7Q201.6 85.0 201.6 85.4L201.6 85.4Q201.6 85.8 202.0 86.0Q202.4 86.2 203.2 86.4Q204.0 86.6 204.6 86.8L204.6 86.8Q206.4 87.4 206.4 89.1L206.4 89.1Q206.4 90.2 205.4 90.9Q204.4 91.6 202.9 91.6L202.9 91.6Q201.8 91.6 201.0 91.3Q200.1 90.9 199.7 90.2Q199.2 89.6 199.2 88.8L199.2 88.8L201.3 88.8Q201.4 89.4 201.8 89.7Q202.2 90.0 202.9 90.0L202.9 90.0Q203.5 90.0 203.9 89.8Q204.2 89.5 204.2 89.1ZM208.3 81.0L210.6 81.0L210.6 83.0L212.0 83.0L212.0 84.7L210.6 84.7L210.6 88.9Q210.6 89.4 210.7 89.6Q210.9 89.8 211.4 89.8L211.4 89.8Q211.8 89.8 212.1 89.7L212.1 89.7L212.1 91.4Q211.4 91.6 210.7 91.6L210.7 91.6Q208.4 91.6 208.3 89.2L208.3 89.2L208.3 84.7L207.1 84.7L207.1 83.0L208.3 83.0L208.3 81.0ZM218.0 83.0L218.0 85.1Q217.6 85.1 217.2 85.1L217.2 85.1Q215.9 85.1 215.5 86.0L215.5 86.0L215.5 91.5L213.3 91.5L213.3 83.0L215.4 83.0L215.5 84.0Q216.1 82.9 217.3 82.9L217.3 82.9Q217.7 82.9 218.0 83.0L218.0 83.0ZM218.5 87.3L218.5 87.2Q218.5 85.9 219.0 84.9Q219.4 84.0 220.3 83.4Q221.3 82.9 222.5 82.9L222.5 82.9Q224.2 82.9 225.3 83.9Q226.3 85.0 226.5 86.8L226.5 86.8L226.5 87.3Q226.5 89.3 225.4 90.5Q224.3 91.6 222.5 91.6Q220.6 91.6 219.6 90.5Q218.5 89.3 218.5 87.3L218.5 87.3ZM220.7 87.3L220.7 87.3Q220.7 88.5 221.2 89.2Q221.6 89.8 222.5 89.8L222.5 89.8Q223.3 89.8 223.8 89.2Q224.2 88.6 224.2 87.2L224.2 87.2Q224.2 86.0 223.8 85.4Q223.3 84.7 222.5 84.7L222.5 84.7Q221.6 84.7 221.2 85.3Q220.7 86.0 220.7 87.3Z "/><mask id="satori_om-id-1-5-2"><rect x="236" y="76" width="34" height="18" fill="#fff"/></mask><path fill="#57606a" d="M243.0 80.1L243.0 87.7L244.6 87.7L244.6 88.8L243.0 88.8L243.0 91.5L241.6 91.5L241.6 88.8L236.4 88.8L236.4 88.0L241.5 80.1L243.0 80.1ZM241.4 82.4L238.1 87.7L241.6 87.7L241.6 82.1L241.4 82.4ZM246.1 90.7L246.1 90.7Q246.1 90.4 246.3 90.1Q246.6 89.9 247 89.9Q247.4 89.9 247.7 90.1Q247.9 90.4 247.9 90.7L247.9 90.7Q247.9 91.1 247.7 91.3Q247.4 91.6 247 91.6Q246.6 91.6 246.3 91.3Q246.1 91.1 246.1 90.7ZM252.0 86.1L250.8 85.8L251.4 80.1L257.2 80.1L257.2 81.4L252.6 81.4L252.3 84.5Q253.1 84.1 254.2 84.1L254.2 84.1Q255.7 84.1 256.6 85.1Q257.5 86.1 257.5 87.9L257.5 87.9Q257.5 89.6 256.6 90.6Q255.6 91.6 253.9 91.6L253.9 91.6Q252.4 91.6 251.5 90.8Q250.5 90.0 250.4 88.5L250.4 88.5L251.8 88.5Q251.9 89.5 252.5 90.0Q253.0 90.5 253.9 90.5L253.9 90.5Q255.0 90.5 255.5 89.8Q256.1 89.1 256.1 87.9L256.1 87.9Q256.1 86.7 255.5 86.0Q254.9 85.4 253.8 85.4L253.8 85.4Q252.9 85.4 252.3 85.8L252.3 85.8L252.0 86.1ZM259 82.8L259 82.3Q259 81.3 259.7 80.6Q260.3 79.9 261.3 79.9L261.3 79.9Q262.4 79.9 263.0 80.6Q263.7 81.3 263.7 82.3L263.7 82.3L263.7 82.9Q263.7 83.9 263.0 84.6Q262.4 85.2 261.3 85.2L261.3 85.2Q260.3 85.2 259.7 84.6Q259 83.9 259 82.8L259 82.8ZM260.1 82.3L260.1 82.9Q260.1 83.5 260.4 83.9Q260.8 84.3 261.3 84.3L261.3 84.3Q261.9 84.3 262.2 83.9Q262.6 83.5 262.6 82.9L262.6 82.9L262.6 82.3Q262.6 81.7 262.2 81.3Q261.9 80.9 261.3 80.9Q260.8 80.9 260.4 81.3Q260.1 81.7 260.1 82.3L260.1 82.3ZM264.5 89.3L264.5 88.7Q264.5 87.7 265.2 87.0Q265.8 86.4 266.9 86.4Q267.9 86.4 268.5 87.0Q269.2 87.7 269.2 88.7L269.2 88.7L269.2 89.3Q269.2 90.3 268.6 91.0Q267.9 91.6 266.9 91.6Q265.9 91.6 265.2 91.0Q264.5 90.3 264.5 89.3L264.5 89.3ZM265.6 88.7L265.6 89.3Q265.6 89.9 266.0 90.3Q266.3 90.7 266.9 90.7L266.9 90.7Q267.4 90.7 267.8 90.3Q268.1 89.9 268.1 89.3L268.1 89.3L268.1 88.7Q268.1 88.1 267.8 87.7Q267.4 87.3 266.9 87.3L266.9 87.3Q266.3 87.3 266.0 87.7Q265.6 88.1 265.6 88.7L265.6 88.7ZM267.2 81.7L261.7 90.6L260.9 90.1L266.4 81.2L267.2 81.7Z "/><mask id="satori_om-id-1-6"><rect x="0" y="104" width="102" height="19" fill="#fff"/></mask><mask id="satori_om-id-1-6-0"><rect x="0" y="105" width="16" height="16" fill="#fff"/></mask><mask id="satori_om-id-1-6-0-0"><rect x="4" y="109" width="8" height="8" fill="#fff"/></mask><path x="4" y="109" width="8" height="8" fill="#844FBA" d="M8,109 h0 a4,4 0 0 1 4,4 v0 a4,4 0 0 1 -4,4 h0 a4,4 0 0 1 -4,-4 v0 a4,4 0 0 1 4,-4"/><mask id="satori_om-id-1-6-1"><rect x="29" y="104" width="30" height="19" fill="#fff"/></mask><path fill="#24292f" d="M39.3 108.1L39.3 119.5L36.9 119.5L36.9 114.6L32.4 114.6L32.4 119.5L30.0 119.5L30.0 108.1L32.4 108.1L32.4 112.7L36.9 112.7L36.9 108.1L39.3 108.1ZM47.9 115.7L50.3 115.7Q50.1 117.5 48.9 118.6Q47.7 119.6 45.7 119.6L45.7 119.6Q43.5 119.6 42.2 118.2Q41.0 116.7 41.0 114.1L41.0 114.1L41.0 113.4Q41.0 111.8 41.6 110.5Q42.1 109.3 43.2 108.6Q44.3 108.0 45.7 108.0L45.7 108.0Q47.7 108.0 48.9 109.0Q50.1 110.1 50.3 112.0L50.3 112.0L47.9 112.0Q47.8 110.9 47.3 110.4Q46.8 109.9 45.7 109.9L45.7 109.9Q44.5 109.9 43.9 110.7Q43.4 111.6 43.4 113.3L43.4 113.3L43.4 114.2Q43.4 116.0 43.9 116.9Q44.5 117.7 45.7 117.7L45.7 117.7Q46.8 117.7 47.3 117.2Q47.8 116.7 47.9 115.7L47.9 115.7ZM54.1 108.1L54.1 117.6L59.1 117.6L59.1 119.5L51.8 119.5L51.8 108.1L54.1 108.1Z "/><mask id="satori_om-id-1-6-2"><rect x="68" y="104" width="34" height="19" fill="#fff"/></mask><path fill="#57606a" d="M73.7 108.1L73.7 119.5L72.2 119.5L72.2 109.9L69.3 110.9L69.3 109.6L73.5 108.1L73.7 108.1ZM78.1 118.7L78.1 118.7Q78.1 118.4 78.3 118.1Q78.6 117.9 79 117.9Q79.4 117.9 79.7 118.1Q79.9 118.4 79.9 118.7L79.9 118.7Q79.9 119.1 79.7 119.3Q79.4 119.6 79 119.6Q78.6 119.6 78.3 119.3Q78.1 119.1 78.1 118.7ZM87.7 114.5L87.7 114.5Q87.2 115.0 86.6 115.4Q86.0 115.7 85.2 115.7L85.2 115.7Q84.2 115.7 83.5 115.2Q82.8 114.7 82.4 113.8Q82.0 113.0 82.0 111.9L82.0 111.9Q82.0 110.7 82.4 109.8Q82.8 108.9 83.6 108.4Q84.4 108.0 85.5 108.0L85.5 108.0Q87.2 108.0 88.2 109.2Q89.1 110.5 89.1 112.7L89.1 112.7L89.1 113.1Q89.1 116.4 87.8 117.9Q86.5 119.5 83.9 119.5L83.9 119.5L83.6 119.5L83.6 118.3L83.9 118.3Q85.7 118.2 86.6 117.3Q87.6 116.4 87.7 114.5ZM85.5 114.5L85.5 114.5Q86.2 114.5 86.8 114.0Q87.4 113.6 87.7 112.9L87.7 112.9L87.7 112.4Q87.7 110.9 87.1 110.0Q86.5 109.2 85.5 109.2L85.5 109.2Q84.6 109.2 84.0 109.9Q83.4 110.6 83.4 111.8L83.4 111.8Q83.4 113.0 84.0 113.7Q84.5 114.5 85.5 114.5ZM91 110.8L91 110.3Q91 109.3 91.7 108.6Q92.3 107.9 93.3 107.9L93.3 107.9Q94.4 107.9 95.0 108.6Q95.7 109.3 95.7 110.3L95.7 110.3L95.7 110.9Q95.7 111.9 95.0 112.6Q94.4 113.2 93.3 113.2L93.3 113.2Q92.3 113.2 91.7 112.6Q91 111.9 91 110.8L91 110.8ZM92.1 110.3L92.1 110.9Q92.1 111.5 92.4 111.9Q92.8 112.3 93.3 112.3L93.3 112.3Q93.9 112.3 94.2 111.9Q94.6 111.5 94.6 110.9L94.6 110.9L94.6 110.3Q94.6 109.7 94.2 109.3Q93.9 108.9 93.3 108.9Q92.8 108.9 92.4 109.3Q92.1 109.7 92.1 110.3L92.1 110.3ZM96.5 117.3L96.5 116.7Q96.5 115.7 97.2 115.0Q97.8 114.4 98.9 114.4Q99.9 114.4 100.5 115.0Q101.2 115.7 101.2 116.7L101.2 116.7L101.2 117.3Q101.2 118.3 100.6 119.0Q99.9 119.6 98.9 119.6Q97.9 119.6 97.2 119.0Q96.5 118.3 96.5 117.3L96.5 117.3ZM97.6 116.7L97.6 117.3Q97.6 117.9 98.0 118.3Q98.3 118.7 98.9 118.7L98.9 118.7Q99.4 118.7 99.8 118.3Q100.1 117.9 100.1 117.3L100.1 117.3L100.1 116.7Q100.1 116.1 99.8 115.7Q99.4 115.3 98.9 115.3L98.9 115.3Q98.3 115.3 98.0 115.7Q97.6 116.1 97.6 116.7L97.6 116.7ZM99.2 109.7L93.7 118.6L92.9 118.1L98.4 109.2L99.2 109.7Z "/><mask id="satori_om-id-1-7"><rect x="112" y="104" width="83" height="19" fill="#fff"/></mask><mask id="satori_om-id-1-7-0"><rect x="112" y="105" width="16" height="16" fill="#fff"/></mask><mask id="satori_om-id-1-7-0-0"><rect x="116" y="109" width="8" height="8" fill="#fff"/></mask><path x="116" y="109" width="8" height="8" fill="#555555" d="M120,109 h0 a4,4 0 0 1 4,4 v0 a4,4 0 0 1 -4,4 h0 a4,4 0 0 1 -4,-4 v0 a4,4 0 0 1 4,-4"/><mask id="satori_om-id-1-7-1"><rect x="141" y="104" width="11" height="19" fill="#fff"/></mask><path fill="#24292f" d="M148.6 115.7L150.9 115.7Q150.8 117.5 149.6 118.6Q148.4 119.6 146.4 119.6L146.4 119.6Q144.2 119.6 142.9 118.2Q141.7 116.7 141.7 114.1L141.7 114.1L141.7 113.4Q141.7 111.8 142.3 110.5Q142.8 109.3 143.9 108.6Q145.0 108.0 146.4 108.0L146.4 108.0Q148.4 108.0 149.6 109.0Q150.8 110.1 151.0 112.0L151.0 112.0L148.6 112.0Q148.5 110.9 148.0 110.4Q147.5 109.9 146.4 109.9L146.4 109.9Q145.2 109.9 144.6 110.7Q144.1 111.6 144.0 113.3L144.0 113.3L144.0 114.2Q144.0 116.0 144.6 116.9Q145.2 117.7 146.4 117.7L146.4 117.7Q147.5 117.7 148.0 117.2Q148.5 116.7 148.6 115.7L148.6 115.7Z "/><mask id="satori_om-id-1-7-2"><rect x="160" y="104" width="34" height="19" fill="#fff"/></mask><path fill="#57606a" d="M168.1 112.8L168.1 114.6Q168.1 117.2 167.2 118.4Q166.3 119.6 164.5 119.6L164.5 119.6Q162.7 119.6 161.8 118.4Q160.9 117.2 160.9 114.8L160.9 114.8L160.9 112.9Q160.9 110.4 161.8 109.2Q162.6 108.0 164.5 108.0L164.5 108.0Q166.3 108.0 167.2 109.1Q168.1 110.3 168.1 112.8L168.1 112.8ZM166.6 115.0L166.6 112.7Q166.6 110.8 166.1 110.0Q165.6 109.1 164.5 109.1L164.5 109.1Q163.4 109.1 162.9 110.0Q162.4 110.8 162.3 112.5L162.3 112.5L162.3 114.9Q162.3 116.7 162.9 117.6Q163.4 118.5 164.5 118.5L164.5 118.5Q165.6 118.5 166.1 117.6Q166.6 116.8 166.6 115.0L166.6 115.0ZM170.1 118.7L170.1 118.7Q170.1 118.4 170.3 118.1Q170.6 117.9 171 117.9Q171.4 117.9 171.7 118.1Q171.9 118.4 171.9 118.7L171.9 118.7Q171.9 119.1 171.7 119.3Q171.4 119.6 171 119.6Q170.6 119.6 170.3 119.3Q170.1 119.1 170.1 118.7ZM179.7 114.5L179.7 114.5Q179.2 115.0 178.6 115.4Q178.0 115.7 177.2 115.7L177.2 115.7Q176.2 115.7 175.5 115.2Q174.8 114.7 174.4 113.8Q174.0 113.0 174.0 111.9L174.0 111.9Q174.0 110.7 174.4 109.8Q174.8 108.9 175.6 108.4Q176.4 108.0 177.5 108.0L177.5 108.0Q179.2 108.0 180.2 109.2Q181.1 110.5 181.1 112.7L181.1 112.7L181.1 113.1Q181.1 116.4 179.8 117.9Q178.5 119.5 175.9 119.5L175.9 119.5L175.6 119.5L175.6 118.3L175.9 118.3Q177.7 118.2 178.6 117.3Q179.6 116.4 179.7 114.5ZM177.5 114.5L177.5 114.5Q178.2 114.5 178.8 114.0Q179.4 113.6 179.7 112.9L179.7 112.9L179.7 112.4Q179.7 110.9 179.1 110.0Q178.5 109.2 177.5 109.2L177.5 109.2Q176.6 109.2 176.0 109.9Q175.4 110.6 175.4 111.8L175.4 111.8Q175.4 113.0 176.0 113.7Q176.5 114.5 177.5 114.5ZM183 110.8L183 110.3Q183 109.3 183.7 108.6Q184.3 107.9 185.3 107.9L185.3 107.9Q186.4 107.9 187.0 108.6Q187.7 109.3 187.7 110.3L187.7 110.3L187.7 110.9Q187.7 111.9 187.0 112.6Q186.4 113.2 185.3 113.2L185.3 113.2Q184.3 113.2 183.7 112.6Q183 111.9 183 110.8L183 110.8ZM184.1 110.3L184.1 110.9Q184.1 111.5 184.4 111.9Q184.8 112.3 185.3 112.3L185.3 112.3Q185.9 112.3 186.2 111.9Q186.6 111.5 186.6 110.9L186.6 110.9L186.6 110.3Q186.6 109.7 186.2 109.3Q185.9 108.9 185.3 108.9Q184.8 108.9 184.4 109.3Q184.1 109.7 184.1 110.3L184.1 110.3ZM188.5 117.3L188.5 116.7Q188.5 115.7 189.2 115.0Q189.8 114.4 190.9 114.4Q191.9 114.4 192.5 115.0Q193.2 115.7 193.2 116.7L193.2 116.7L193.2 117.3Q193.2 118.3 192.6 119.0Q191.9 119.6 190.9 119.6Q189.9 119.6 189.2 119.0Q188.5 118.3 188.5 117.3L188.5 117.3ZM189.6 116.7L189.6 117.3Q189.6 117.9 190.0 118.3Q190.3 118.7 190.9 118.7L190.9 118.7Q191.4 118.7 191.8 118.3Q192.1 117.9 192.1 117.3L192.1 117.3L192.1 116.7Q192.1 116.1 191.8 115.7Q191.4 115.3 190.9 115.3L190.9 115.3Q190.3 115.3 190.0 115.7Q189.6 116.1 189.6 116.7L189.6 116.7ZM191.2 109.7L185.7 118.6L184.9 118.1L190.4 109.2L191.2 109.7Z "/><mask id="satori_om-id-1-8"><rect x="205" y="104" width="102" height="19" fill="#fff"/></mask><mask id="satori_om-id-1-8-0"><rect x="205" y="105" width="16" height="16" fill="#fff"/></mask><mask id="satori_om-id-1-8-0-0"><rect x="209" y="109" width="8" height="8" fill="#fff"/></mask><path x="209" y="109" width="8" height="8" fill="#563d7c" d="M213,109 h0 a4,4 0 0 1 4,4 v0 a4,4 0 0 1 -4,4 h0 a4,4 0 0 1 -4,-4 v0 a4,4 0 0 1 4,-4"/><mask id="satori_om-id-1-8-1"><rect x="234" y="104" width="30" height="19" fill="#fff"/></mask><path fill="#24292f" d="M241.6 115.7L243.9 115.7Q243.8 117.5 242.6 118.6Q241.4 119.6 239.4 119.6L239.4 119.6Q237.2 119.6 235.9 118.2Q234.7 116.7 234.7 114.1L234.7 114.1L234.7 113.4Q234.7 111.8 235.3 110.5Q235.8 109.3 236.9 108.6Q238.0 108.0 239.4 108.0L239.4 108.0Q241.4 108.0 242.6 109.0Q243.8 110.1 244.0 112.0L244.0 112.0L241.6 112.0Q241.5 110.9 241.0 110.4Q240.5 109.9 239.4 109.9L239.4 109.9Q238.2 109.9 237.6 110.7Q237.1 111.6 237.0 113.3L237.0 113.3L237.0 114.2Q237.0 116.0 237.6 116.9Q238.2 117.7 239.4 117.7L239.4 117.7Q240.5 117.7 241.0 117.2Q241.5 116.7 241.6 115.7L241.6 115.7ZM251.4 116.5L251.4 116.5Q251.4 115.8 250.9 115.5Q250.4 115.1 249.2 114.7Q248.0 114.3 247.3 114.0L247.3 114.0Q245.4 112.9 245.4 111.1L245.4 111.1Q245.4 110.2 245.9 109.5Q246.4 108.8 247.4 108.4Q248.3 108.0 249.6 108.0L249.6 108.0Q250.8 108.0 251.7 108.4Q252.7 108.8 253.2 109.6Q253.7 110.4 253.7 111.5L253.7 111.5L251.4 111.5Q251.4 110.7 250.9 110.3Q250.4 109.8 249.5 109.8L249.5 109.8Q248.7 109.8 248.2 110.2Q247.7 110.5 247.7 111.1L247.7 111.1Q247.7 111.7 248.3 112.1Q248.8 112.4 249.9 112.8L249.9 112.8Q251.9 113.4 252.8 114.3Q253.7 115.2 253.7 116.5L253.7 116.5Q253.7 118.0 252.6 118.8Q251.5 119.6 249.6 119.6L249.6 119.6Q248.3 119.6 247.2 119.2Q246.1 118.7 245.6 117.8Q245.0 117.0 245.0 115.9L245.0 115.9L247.4 115.9Q247.4 117.8 249.6 117.8L249.6 117.8Q250.4 117.8 250.9 117.4Q251.4 117.1 251.4 116.5ZM261.2 116.5L261.2 116.5Q261.2 115.8 260.8 115.5Q260.3 115.1 259.1 114.7Q257.8 114.3 257.1 114.0L257.1 114.0Q255.2 112.9 255.2 111.1L255.2 111.1Q255.2 110.2 255.7 109.5Q256.2 108.8 257.2 108.4Q258.2 108.0 259.4 108.0L259.4 108.0Q260.6 108.0 261.6 108.4Q262.5 108.8 263.0 109.6Q263.6 110.4 263.6 111.5L263.6 111.5L261.2 111.5Q261.2 110.7 260.7 110.3Q260.2 109.8 259.4 109.8L259.4 109.8Q258.5 109.8 258.0 110.2Q257.5 110.5 257.5 111.1L257.5 111.1Q257.5 111.7 258.1 112.1Q258.7 112.4 259.7 112.8L259.7 112.8Q261.7 113.4 262.7 114.3Q263.6 115.2 263.6 116.5L263.6 116.5Q263.6 118.0 262.5 118.8Q261.3 119.6 259.4 119.6L259.4 119.6Q258.1 119.6 257.1 119.2Q256.0 118.7 255.4 117.8Q254.8 117.0 254.8 115.9L254.8 115.9L257.2 115.9Q257.2 117.8 259.4 117.8L259.4 117.8Q260.3 117.8 260.8 117.4Q261.2 117.1 261.2 116.5Z "/><mask id="satori_om-id-1-8-2"><rect x="273" y="104" width="34" height="19" fill="#fff"/></mask><path fill="#57606a" d="M281.1 112.8L281.1 114.6Q281.1 117.2 280.2 118.4Q279.3 119.6 277.5 119.6L277.5 119.6Q275.7 119.6 274.8 118.4Q273.9 117.2 273.9 114.8L273.9 114.8L273.9 112.9Q273.9 110.4 274.8 109.2Q275.6 108.0 277.5 108.0L277.5 108.0Q279.3 108.0 280.2 109.1Q281.1 110.3 281.1 112.8L281.1 112.8ZM279.6 115.0L279.6 112.7Q279.6 110.8 279.1 110.0Q278.6 109.1 277.5 109.1L277.5 109.1Q276.4 109.1 275.9 110.0Q275.4 110.8 275.3 112.5L275.3 112.5L275.3 114.9Q275.3 116.7 275.9 117.6Q276.4 118.5 277.5 118.5L277.5 118.5Q278.6 118.5 279.1 117.6Q279.6 116.8 279.6 115.0L279.6 115.0ZM283.1 118.7L283.1 118.7Q283.1 118.4 283.3 118.1Q283.6 117.9 284 117.9Q284.4 117.9 284.7 118.1Q284.9 118.4 284.9 118.7L284.9 118.7Q284.9 119.1 284.7 119.3Q284.4 119.6 284 119.6Q283.6 119.6 283.3 119.3Q283.1 119.1 283.1 118.7ZM294.5 108.1L294.5 108.9L289.8 119.5L288.3 119.5L293.0 109.3L286.8 109.3L286.8 108.1L294.5 108.1ZM296 110.8L296 110.3Q296 109.3 296.7 108.6Q297.3 107.9 298.3 107.9L298.3 107.9Q299.4 107.9 300.0 108.6Q300.7 109.3 300.7 110.3L300.7 110.3L300.7 110.9Q300.7 111.9 300.0 112.6Q299.4 113.2 298.3 113.2L298.3 113.2Q297.3 113.2 296.7 112.6Q296 111.9 296 110.8L296 110.8ZM297.1 110.3L297.1 110.9Q297.1 111.5 297.4 111.9Q297.8 112.3 298.3 112.3L298.3 112.3Q298.9 112.3 299.2 111.9Q299.6 111.5 299.6 110.9L299.6 110.9L299.6 110.3Q299.6 109.7 299.2 109.3Q298.9 108.9 298.3 108.9Q297.8 108.9 297.4 109.3Q297.1 109.7 297.1 110.3L297.1 110.3ZM301.5 117.3L301.5 116.7Q301.5 115.7 302.2 115.0Q302.8 114.4 303.9 114.4Q304.9 114.4 305.5 115.0Q306.2 115.7 306.2 116.7L306.2 116.7L306.2 117.3Q306.2 118.3 305.6 119.0Q304.9 119.6 303.9 119.6Q302.9 119.6 302.2 119.0Q301.5 118.3 301.5 117.3L301.5 117.3ZM302.6 116.7L302.6 117.3Q302.6 117.9 303.0 118.3Q303.3 118.7 303.9 118.7L303.9 118.7Q304.4 118.7 304.8 118.3Q305.1 117.9 305.1 117.3L305.1 117.3L305.1 116.7Q305.1 116.1 304.8 115.7Q304.4 115.3 303.9 115.3L303.9 115.3Q303.3 115.3 303.0 115.7Q302.6 116.1 302.6 116.7L302.6 116.7ZM304.2 109.7L298.7 118.6L297.9 118.1L303.4 109.2L304.2 109.7Z "/><mask id="satori_om-id-1-9"><rect x="0" y="133" width="146" height="19" fill="#fff"/></mask><mask id="satori_om-id-1-9-0"><rect x="0" y="134" width="16" height="16" fill="#fff"/></mask><mask id="satori_om-id-1-9-0-0"><rect x="4" y="138" width="8" height="8" fill="#fff"/></mask><path x="4" y="138" width="8" height="8" fill="#384d54" d="M8,138 h0 a4,4 0 0 1 4,4 v0 a4,4 0 0 1 -4,4 h0 a4,4 0 0 1 -4,-4 v0 a4,4 0 0 1 4,-4"/><mask id="satori_om-id-1-9-1"><rect x="29" y="133" width="74" height="19" fill="#fff"/></mask><path fill="#24292f" d="M33.5 148.5L30.0 148.5L30.0 137.1L33.5 137.1Q35.0 137.1 36.2 137.8Q37.4 138.5 38.0 139.7Q38.7 141.0 38.7 142.5L38.7 142.5L38.7 143.1Q38.7 144.6 38.1 145.9Q37.4 147.1 36.2 147.8Q35.0 148.5 33.5 148.5L33.5 148.5ZM33.5 139.0L32.4 139.0L32.4 146.6L33.5 146.6Q34.9 146.6 35.6 145.7Q36.3 144.8 36.3 143.1L36.3 143.1L36.3 142.5Q36.3 140.8 35.6 139.9Q34.9 139.0 33.5 139.0L33.5 139.0ZM39.9 144.3L39.9 144.2Q39.9 142.9 40.4 141.9Q40.9 141.0 41.8 140.4Q42.7 139.9 43.9 139.9L43.9 139.9Q45.6 139.9 46.7 140.9Q47.8 142.0 47.9 143.8L47.9 143.8L47.9 144.3Q47.9 146.3 46.8 147.5Q45.8 148.6 43.9 148.6Q42.1 148.6 41.0 147.5Q39.9 146.3 39.9 144.3L39.9 144.3ZM42.2 144.3L42.2 144.3Q42.2 145.5 42.6 146.2Q43.1 146.8 43.9 146.8L43.9 146.8Q44.7 146.8 45.2 146.2Q45.7 145.6 45.7 144.2L45.7 144.2Q45.7 143.0 45.2 142.4Q44.7 141.7 43.9 141.7L43.9 141.7Q43.1 141.7 42.6 142.3Q42.2 143.0 42.2 144.3ZM52.8 146.8L52.8 146.8Q53.5 146.8 53.8 146.5Q54.2 146.1 54.3 145.6L54.3 145.6L56.4 145.6Q56.4 146.4 55.9 147.1Q55.4 147.9 54.6 148.2Q53.8 148.6 52.9 148.6L52.9 148.6Q51.1 148.6 50.0 147.5Q49.0 146.3 49.0 144.3L49.0 144.3L49.0 144.2Q49.0 142.2 50 141.0Q51.0 139.9 52.9 139.9L52.9 139.9Q54.4 139.9 55.4 140.8Q56.4 141.7 56.4 143.2L56.4 143.2L54.3 143.2Q54.2 142.5 53.8 142.1Q53.5 141.7 52.8 141.7L52.8 141.7Q52.0 141.7 51.6 142.3Q51.2 142.9 51.2 144.1L51.2 144.1L51.2 144.4Q51.2 145.7 51.6 146.2Q52.0 146.8 52.8 146.8ZM62.9 148.5L60.7 145.1L59.9 145.9L59.9 148.5L57.7 148.5L57.7 136.5L59.9 136.5L59.9 143.1L60.4 142.6L62.5 140.0L65.2 140.0L62.2 143.6L65.5 148.5L62.9 148.5ZM69.9 148.6L69.9 148.6Q68.1 148.6 66.9 147.5Q65.7 146.4 65.7 144.5L65.7 144.5L65.7 144.2Q65.7 143.0 66.2 142.0Q66.7 141.0 67.6 140.4Q68.5 139.9 69.7 139.9L69.7 139.9Q71.4 139.9 72.4 141.0Q73.4 142.1 73.4 144.1L73.4 144.1L73.4 145.0L68.0 145.0Q68.1 145.8 68.7 146.3Q69.2 146.8 70.1 146.8L70.1 146.8Q71.4 146.8 72.1 145.9L72.1 145.9L73.2 147.1Q72.7 147.8 71.9 148.2Q71.0 148.6 69.9 148.6ZM69.7 141.7L69.7 141.7Q69.0 141.7 68.6 142.2Q68.2 142.6 68.1 143.5L68.1 143.5L71.2 143.5L71.2 143.3Q71.2 142.5 70.8 142.1Q70.4 141.7 69.7 141.7ZM79.5 140.0L79.4 142.1Q79.0 142.1 78.6 142.1L78.6 142.1Q77.4 142.1 77.0 143.0L77.0 143.0L77.0 148.5L74.7 148.5L74.7 140.0L76.8 140.0L76.9 141.0Q77.6 139.9 78.8 139.9L78.8 139.9Q79.1 139.9 79.5 140.0L79.5 140.0ZM83.6 148.5L81.3 148.5L81.3 141.7L80.0 141.7L80.0 140.0L81.3 140.0L81.3 139.3Q81.3 137.9 82.1 137.1Q82.9 136.3 84.4 136.3L84.4 136.3Q84.9 136.3 85.6 136.5L85.6 136.5L85.5 138.2Q85.3 138.2 84.8 138.2L84.8 138.2Q83.6 138.2 83.6 139.4L83.6 139.4L83.6 140.0L85.3 140.0L85.3 141.7L83.6 141.7L83.6 148.5ZM88.8 140.0L88.8 148.5L86.5 148.5L86.5 140.0L88.8 140.0ZM86.4 137.8L86.4 137.8Q86.4 137.3 86.7 137.0Q87.1 136.7 87.7 136.7L87.7 136.7Q88.3 136.7 88.6 137.0Q88.9 137.3 88.9 137.8L88.9 137.8Q88.9 138.4 88.6 138.7Q88.2 139.0 87.7 139.0Q87.1 139.0 86.8 138.7Q86.4 138.4 86.4 137.8ZM93.0 136.5L93.0 148.5L90.8 148.5L90.8 136.5L93.0 136.5ZM98.8 148.6L98.8 148.6Q96.9 148.6 95.8 147.5Q94.6 146.4 94.6 144.5L94.6 144.5L94.6 144.2Q94.6 143.0 95.1 142.0Q95.6 141.0 96.5 140.4Q97.4 139.9 98.5 139.9L98.5 139.9Q100.3 139.9 101.3 141.0Q102.3 142.1 102.3 144.1L102.3 144.1L102.3 145.0L96.9 145.0Q97 145.8 97.6 146.3Q98.1 146.8 98.9 146.8L98.9 146.8Q100.3 146.8 101.0 145.9L101.0 145.9L102.1 147.1Q101.6 147.8 100.7 148.2Q99.9 148.6 98.8 148.6ZM98.5 141.7L98.5 141.7Q97.9 141.7 97.4 142.2Q97.0 142.6 96.9 143.5L96.9 143.5L100.1 143.5L100.1 143.3Q100.0 142.5 99.6 142.1Q99.3 141.7 98.5 141.7Z "/><mask id="satori_om-id-1-9-2"><rect x="112" y="133" width="34" height="19" fill="#fff"/></mask><path fill="#57606a" d="M120.1 141.8L120.1 143.6Q120.1 146.2 119.2 147.4Q118.3 148.6 116.5 148.6L116.5 148.6Q114.7 148.6 113.8 147.4Q112.9 146.2 112.9 143.8L112.9 143.8L112.9 141.9Q112.9 139.4 113.8 138.2Q114.6 137.0 116.5 137.0L116.5 137.0Q118.3 137.0 119.2 138.1Q120.1 139.3 120.1 141.8L120.1 141.8ZM118.6 144.0L118.6 141.7Q118.6 139.8 118.1 139.0Q117.6 138.1 116.5 138.1L116.5 138.1Q115.4 138.1 114.9 139.0Q114.4 139.8 114.3 141.5L114.3 141.5L114.3 143.9Q114.3 145.7 114.9 146.6Q115.4 147.5 116.5 147.5L116.5 147.5Q117.6 147.5 118.1 146.6Q118.6 145.8 118.6 144.0L118.6 144.0ZM122.1 147.7L122.1 147.7Q122.1 147.4 122.3 147.1Q122.6 146.9 123 146.9Q123.4 146.9 123.7 147.1Q123.9 147.4 123.9 147.7L123.9 147.7Q123.9 148.1 123.7 148.3Q123.4 148.6 123 148.6Q122.6 148.6 122.3 148.3Q122.1 148.1 122.1 147.7ZM130.9 137.1L130.9 148.5L129.4 148.5L129.4 138.9L126.5 139.9L126.5 138.6L130.7 137.1L130.9 137.1ZM135 139.8L135 139.3Q135 138.3 135.7 137.6Q136.3 136.9 137.3 136.9L137.3 136.9Q138.4 136.9 139.0 137.6Q139.7 138.3 139.7 139.3L139.7 139.3L139.7 139.9Q139.7 140.9 139.0 141.6Q138.4 142.2 137.3 142.2L137.3 142.2Q136.3 142.2 135.7 141.6Q135 140.9 135 139.8L135 139.8ZM136.1 139.3L136.1 139.9Q136.1 140.5 136.4 140.9Q136.8 141.3 137.3 141.3L137.3 141.3Q137.9 141.3 138.2 140.9Q138.6 140.5 138.6 139.9L138.6 139.9L138.6 139.3Q138.6 138.7 138.2 138.3Q137.9 137.9 137.3 137.9Q136.8 137.9 136.4 138.3Q136.1 138.7 136.1 139.3L136.1 139.3ZM140.5 146.3L140.5 145.7Q140.5 144.7 141.2 144.0Q141.8 143.4 142.9 143.4Q143.9 143.4 144.5 144.0Q145.2 144.7 145.2 145.7L145.2 145.7L145.2 146.3Q145.2 147.3 144.6 148.0Q143.9 148.6 142.9 148.6Q141.9 148.6 141.2 148.0Q140.5 147.3 140.5 146.3L140.5 146.3ZM141.6 145.7L141.6 146.3Q141.6 146.9 142.0 147.3Q142.3 147.7 142.9 147.7L142.9 147.7Q143.4 147.7 143.8 147.3Q144.1 146.9 144.1 146.3L144.1 146.3L144.1 145.7Q144.1 145.1 143.8 144.7Q143.4 144.3 142.9 144.3L142.9 144.3Q142.3 144.3 142.0 144.7Q141.6 145.1 141.6 145.7L141.6 145.7ZM143.2 138.7L137.7 147.6L136.9 147.1L142.4 138.2L143.2 138.7Z "/></svg>