<svg width="375" height="200" viewBox="0 0 375 200" xmlns="http://www.w3.org/2000/svg"><mask id="satori_om-id"><rect x="0" y="0" width="375" height="123" fill="#fff"/></mask><clipPath id="satori_cp-id-0"><path x="0" y="0" width="375" height="8" d="M4,0 h367 a4,4 0 0 1 4,4 v0 a4,4 0 0 1 -4,4 h-367 a4,4 0 0 1 -4,-4 v0 a4,4 0 0 1 4,-4"/></clipPath><mask id="satori_om-id-0"><rect x="0" y="0" width="375" height="8" fill="#fff"/></mask><mask id="satori_om-id-0-0"><rect x="0" y="0" width="237" height="8" fill="#fff" mask="url(#satori_om-id-0)"/></mask><rect x="0" y="0" width="237" height="8" fill="#3178c6" clip-path="url(#satori_cp-id-0)" mask="url(#satori_om-id-0)"/><mask id="satori_om-id-0-1"><rect x="237" y="0" width="29" height="8" fill="#fff" mask="url(#satori_om-id-0)"/></mask><rect x="237" y="0" width="29" height="8" fill="#ff3e00" clip-path="url(#satori_cp-id-0)" mask="url(#satori_om-id-0)"/><mask id="satori_om-id-0-2"><rect x="266" y="0" width="25" height="8" fill="#fff" mask="url(#satori_om-id-0)"/></mask><rect x="266" y="0" width="25" height="8" fill="#e34c26" clip-path="url(#satori_cp-id-0)" mask="url(#satori_om-id-0)"/><mask id="satori_om-id-0-3"><rect x="291" y="0" width="25" height="8" fill="#fff" mask="url(#satori_om-id-0)"/></mask><rect x="291" y="0" width="25" height="8" fill="#00ADD8" clip-path="url(#satori_cp-id-0)" mask="url(#satori_om-id-0)"/><mask id="satori_om-id-0-4"><rect x="316" y="0" width="20" height="8" fill="#fff" mask="url(#satori_om-id-0)"/></mask><rect x="316" y="0" width="20" height="8" fill="#3572A5" clip-path="url(#satori_cp-id-0)" mask="url(#satori_om-id-0)"/><mask id="satori_om-id-0-5"><rect x="336" y="0" width="16" height="8" fill="#fff" mask="url(#satori_om-id-0)"/></mask><rect x="336" y="0" width="16" height="8" fill="#ff5a03" clip-path="url(#satori_cp-id-0)" mask="url(#satori_om-id-0)"/><mask id="satori_om-id-0-6"><rect x="352" y="0" width="15" height="8" fill="#fff" mask="url(#satori_om-id-0)"/></mask><rect x="352" y="0" width="15" height="8" fill="#f1e05a" clip-path="url(#satori_cp-id-0)" mask="url(#satori_om-id-0)"/><mask id="satori_om-id-0-7"><rect x="367" y="0" width="3" height="8" fill="#fff" mask="url(#satori_om-id-0)"/></mask><rect x="367" y="0" width="3" height="8" fill="#555555" clip-path="url(#satori_cp-id-0)" mask="url(#satori_om-id-0)"/><mask id="satori_om-id-0-8"><rect x="370" y="0" width="3" height="8" fill="#fff" mask="url(#satori_om-id-0)"/></mask><rect x="370" y="0" width="3" height="8" fill="#563d7c" clip-path="url(#satori_cp-id-0)" mask="url(#satori_om-id-0)"/><mask id="satori_om-id-0-9"><rect x="373" y="0" width="2" height="8" fill="#fff" mask="url(#satori_om-id-0)"/></mask><rect x="373" y="0" width="2" height="8" fill="#844FBA" clip-path="url(#satori_cp-id-0)" mask="url(#satori_om-id-0)"/><mask id="satori_om-id-1"><rect x="0" y="18" width="375" height="105" fill="#fff"/></mask><mask id="satori_om-id-1-0"><rect x="0" y="18" width="159" height="19" fill="#fff"/></mask><mask id="satori_om-id-1-0-0"><rect x="0" y="19" width="16" height="16" fill="#fff"/></mask><mask id="satori_om-id-1-0-0-0"><rect x="4" y="23" width="8" height="8" fill="#fff"/></mask><path x="4" y="23" width="8" height="8" fill="#3178c6" d="M8,23 h0 a4,4 0 0 1 4,4 v0 a4,4 0 0 1 -4,4 h0 a4,4 0 0 1 -4,-4 v0 a4,4 0 0 1 4,-4"/><mask id="satori_om-id-1-0-1"><rect x="29" y="18" width="78" height="19" fill="#fff"/></mask><path fill="#24292f" d="M38.6 22.1L38.6 24.0L35.1 24.0L35.1 33.5L32.8 33.5L32.8 24.0L29.3 24.0L29.3 22.1L38.6 22.1ZM40.7 25.0L42.3 30.3L43.8 25.0L46.3 25.0L42.9 34.8L42.7 35.2Q41.9 36.9 40.2 36.9L40.2 36.9Q39.7 36.9 39.2 36.7L39.2 36.7L39.2 35.0L39.5 35.0Q40.2 35.0 40.5 34.9Q40.8 34.7 41.0 34.2L41.0 34.2L41.2 33.5L38.3 25.0L40.7 25.0ZM54.8 29.2L54.8 29.3Q54.8 31.3 53.9 32.5Q53.0 33.6 51.5 33.6L51.5 33.6Q50.2 33.6 49.4 32.7L49.4 32.7L49.4 36.7L47.2 36.7L47.2 25.0L49.3 25.0L49.3 25.9Q50.1 24.9 51.5 24.9L51.5 24.9Q53.0 24.9 53.9 26.0Q54.8 27.2 54.8 29.2L54.8 29.2ZM52.5 29.2L52.5 29.2Q52.5 28.0 52.1 27.4Q51.7 26.7 50.9 26.7L50.9 26.7Q49.8 26.7 49.4 27.5L49.4 27.5L49.4 31.0Q49.8 31.8 50.9 31.8L50.9 31.8Q52.5 31.8 52.5 29.2ZM60.1 33.6L60.1 33.6Q58.2 33.6 57.0 32.5Q55.9 31.4 55.9 29.5L55.9 29.5L55.9 29.2Q55.9 28.0 56.4 27.0Q56.8 26.0 57.7 25.4Q58.6 24.9 59.8 24.9L59.8 24.9Q61.5 24.9 62.5 26.0Q63.5 27.1 63.5 29.1L63.5 29.1L63.5 30.0L58.1 30.0Q58.3 30.8 58.8 31.3Q59.4 31.8 60.2 31.8L60.2 31.8Q61.5 31.8 62.2 30.9L62.2 30.9L63.4 32.1Q62.8 32.8 62.0 33.2Q61.1 33.6 60.1 33.6ZM59.8 26.7L59.8 26.7Q59.1 26.7 58.7 27.2Q58.3 27.6 58.2 28.5L58.2 28.5L61.3 28.5L61.3 28.3Q61.3 27.5 60.9 27.1Q60.5 26.7 59.8 26.7ZM70.9 30.5L70.9 30.5Q70.9 29.8 70.4 29.5Q69.9 29.1 68.7 28.7Q67.5 28.3 66.8 28.0L66.8 28.0Q64.8 26.9 64.8 25.1L64.8 25.1Q64.8 24.2 65.4 23.5Q65.9 22.8 66.8 22.4Q67.8 22.0 69.0 22.0L69.0 22.0Q70.3 22.0 71.2 22.4Q72.2 22.8 72.7 23.6Q73.2 24.4 73.2 25.5L73.2 25.5L70.9 25.5Q70.9 24.7 70.4 24.3Q69.9 23.8 69.0 23.8L69.0 23.8Q68.1 23.8 67.7 24.2Q67.2 24.5 67.2 25.1L67.2 25.1Q67.2 25.7 67.7 26.1Q68.3 26.4 69.4 26.8L69.4 26.8Q71.4 27.4 72.3 28.3Q73.2 29.2 73.2 30.5L73.2 30.5Q73.2 32.0 72.1 32.8Q71.0 33.6 69.1 33.6L69.1 33.6Q67.8 33.6 66.7 33.2Q65.6 32.7 65.1 31.8Q64.5 31.0 64.5 29.9L64.5 29.9L66.8 29.9Q66.8 31.8 69.1 31.8L69.1 31.8Q69.9 31.8 70.4 31.4Q70.9 31.1 70.9 30.5ZM78.2 31.8L78.2 31.8Q78.8 31.8 79.2 31.5Q79.6 31.1 79.6 30.6L79.6 30.6L81.7 30.6Q81.7 31.4 81.2 32.1Q80.8 32.9 80.0 33.2Q79.2 33.6 78.2 33.6L78.2 33.6Q76.4 33.6 75.3 32.5Q74.3 31.3 74.3 29.3L74.3 29.3L74.3 29.2Q74.3 27.2 75.3 26.0Q76.4 24.9 78.2 24.9L78.2 24.9Q79.8 24.9 80.7 25.8Q81.7 26.7 81.7 28.2L81.7 28.2L79.6 28.2Q79.6 27.5 79.2 27.1Q78.8 26.7 78.1 26.7L78.1 26.7Q77.4 26.7 77.0 27.3Q76.6 27.9 76.6 29.1L76.6 29.1L76.6 29.4Q76.6 30.7 77.0 31.2Q77.4 31.8 78.2 31.8ZM87.8 25.0L87.7 27.1Q87.3 27.1 86.9 27.1L86.9 27.1Q85.6 27.1 85.3 28.0L85.3 28.0L85.3 33.5L83.0 33.5L83.0 25.0L85.1 25.0L85.2 26.0Q85.9 24.9 87.1 24.9L87.1 24.9Q87.4 24.9 87.8 25.0L87.8 25.0ZM91.2 25.0L91.2 33.5L88.9 33.5L88.9 25.0L91.2 25.0ZM88.8 22.8L88.8 22.8Q88.8 22.3 89.2 22.0Q89.5 21.7 90.1 21.7L90.1 21.7Q90.7 21.7 91 22.0Q91.3 22.3 91.3 22.8L91.3 22.8Q91.3 23.4 91.0 23.7Q90.6 24.0 90.1 24.0Q89.5 24.0 89.2 23.7Q88.8 23.4 88.8 22.8ZM100.7 29.2L100.7 29.3Q100.7 31.3 99.8 32.5Q98.9 33.6 97.4 33.6L97.4 33.6Q96.1 33.6 95.3 32.7L95.3 32.7L95.3 36.7L93.1 36.7L93.1 25.0L95.2 25.0L95.2 25.9Q96.1 24.9 97.4 24.9L97.4 24.9Q98.9 24.9 99.8 26.0Q100.7 27.2 100.7 29.2L100.7 29.2ZM98.4 29.2L98.4 29.2Q98.4 28.0 98.0 27.4Q97.6 26.7 96.8 26.7L96.8 26.7Q95.7 26.7 95.3 27.5L95.3 27.5L95.3 31.0Q95.7 31.8 96.8 31.8L96.8 31.8Q98.4 31.8 98.4 29.2ZM102.5 23.0L104.8 23.0L104.8 25.0L106.2 25.0L106.2 26.7L104.8 26.7L104.8 30.9Q104.8 31.4 105.0 31.6Q105.1 31.8 105.6 31.8L105.6 31.8Q106.0 31.8 106.3 31.7L106.3 31.7L106.3 33.4Q105.6 33.6 104.9 33.6L104.9 33.6Q102.6 33.6 102.5 31.2L102.5 31.2L102.5 26.7L101.3 26.7L101.3 25.0L102.5 25.0L102.5 23.0Z "/><mask id="satori_om-id-1-0-2"><rect x="116" y="18" width="43" height="19" fill="#fff"/></mask><path fill="#57606a" d="M122.4 22.1L122.6 22.1L122.6 23.3L122.4 23.3Q120.7 23.4 119.7 24.3Q118.7 25.3 118.5 27.1L118.5 27.1Q119.4 26.0 121.0 26.0L121.0 26.0Q122.4 26.0 123.3 27.1Q124.2 28.1 124.2 29.8L124.2 29.8Q124.2 31.5 123.3 32.6Q122.3 33.6 120.7 33.6L120.7 33.6Q119.1 33.6 118.0 32.4Q117.0 31.1 117.0 29.2L117.0 29.2L117.0 28.6Q117.0 25.5 118.4 23.8Q119.7 22.1 122.4 22.1L122.4 22.1ZM120.7 27.2L120.7 27.2Q120.0 27.2 119.4 27.7Q118.7 28.1 118.5 28.8L118.5 28.8L118.5 29.3Q118.5 30.7 119.1 31.6Q119.8 32.4 120.7 32.4L120.7 32.4Q121.7 32.4 122.2 31.7Q122.8 31.0 122.8 29.8L122.8 29.8Q122.8 28.7 122.2 27.9Q121.7 27.2 120.7 27.2ZM128.0 28.3L128.0 27.1L129.1 27.1Q130.1 27.1 130.7 26.6Q131.3 26.0 131.3 25.1L131.3 25.1Q131.3 23.1 129.3 23.1L129.3 23.1Q128.4 23.1 127.8 23.7Q127.3 24.2 127.3 25.1L127.3 25.1L125.8 25.1Q125.8 23.7 126.8 22.8Q127.8 22.0 129.3 22.0L129.3 22.0Q130.9 22.0 131.8 22.8Q132.8 23.7 132.8 25.2L132.8 25.2Q132.8 25.9 132.3 26.6Q131.8 27.3 131.0 27.6L131.0 27.6Q131.9 27.9 132.4 28.6Q132.9 29.3 132.9 30.3L132.9 30.3Q132.9 31.8 131.9 32.7Q130.9 33.6 129.3 33.6Q127.7 33.6 126.7 32.8Q125.7 31.9 125.7 30.5L125.7 30.5L127.2 30.5Q127.2 31.4 127.8 31.9Q128.3 32.5 129.3 32.5L129.3 32.5Q130.4 32.5 130.9 31.9Q131.5 31.4 131.5 30.3L131.5 30.3Q131.5 29.4 130.9 28.8Q130.3 28.3 129.1 28.3L129.1 28.3L128.0 28.3ZM135.1 32.7L135.1 32.7Q135.1 32.4 135.3 32.1Q135.5 31.9 136.0 31.9Q136.4 31.9 136.7 32.1Q136.9 32.4 136.9 32.7L136.9 32.7Q136.9 33.1 136.7 33.3Q136.4 33.6 136.0 33.6Q135.5 33.6 135.3 33.3Q135.1 33.1 135.1 32.7ZM141.2 28.3L141.2 27.1L142.3 27.1Q143.3 27.1 143.9 26.6Q144.5 26.0 144.5 25.1L144.5 25.1Q144.5 23.1 142.5 23.1L142.5 23.1Q141.6 23.1 141.0 23.7Q140.5 24.2 140.5 25.1L140.5 25.1L139.0 25.1Q139.0 23.7 140.0 22.8Q141.0 22.0 142.5 22.0L142.5 22.0Q144.1 22.0 145.0 22.8Q146.0 23.7 146.0 25.2L146.0 25.2Q146.0 25.9 145.5 26.6Q145.0 27.3 144.2 27.6L144.2 27.6Q145.1 27.9 145.6 28.6Q146.1 29.3 146.1 30.3L146.1 30.3Q146.1 31.8 145.1 32.7Q144.1 33.6 142.5 33.6Q140.9 33.6 139.9 32.8Q138.9 31.9 138.9 30.5L138.9 30.5L140.4 30.5Q140.4 31.4 141.0 31.9Q141.5 32.5 142.5 32.5L142.5 32.5Q143.6 32.5 144.1 31.9Q144.7 31.4 144.7 30.3L144.7 30.3Q144.7 29.4 144.1 28.8Q143.5 28.3 142.3 28.3L142.3 28.3L141.2 28.3ZM148.0 24.8L148.0 24.3Q148.0 23.3 148.6 22.6Q149.3 21.9 150.3 21.9L150.3 21.9Q151.4 21.9 152.0 22.6Q152.6 23.3 152.6 24.3L152.6 24.3L152.6 24.9Q152.6 25.9 152.0 26.6Q151.3 27.2 150.3 27.2L150.3 27.2Q149.3 27.2 148.6 26.6Q148.0 25.9 148.0 24.8L148.0 24.8ZM149.1 24.3L149.1 24.9Q149.1 25.5 149.4 25.9Q149.8 26.3 150.3 26.3L150.3 26.3Q150.9 26.3 151.2 25.9Q151.6 25.5 151.6 24.9L151.6 24.9L151.6 24.3Q151.6 23.7 151.2 23.3Q150.9 22.9 150.3 22.9Q149.7 22.9 149.4 23.3Q149.1 23.7 149.1 24.3L149.1 24.3ZM153.5 31.3L153.5 30.7Q153.5 29.7 154.2 29.0Q154.8 28.4 155.9 28.4Q156.9 28.4 157.5 29.0Q158.2 29.7 158.2 30.7L158.2 30.7L158.2 31.3Q158.2 32.3 157.5 33.0Q156.9 33.6 155.9 33.6Q154.9 33.6 154.2 33.0Q153.5 32.3 153.5 31.3L153.5 31.3ZM154.6 30.7L154.6 31.3Q154.6 31.9 154.9 32.3Q155.3 32.7 155.9 32.7L155.9 32.7Q156.4 32.7 156.8 32.3Q157.1 31.9 157.1 31.3L157.1 31.3L157.1 30.7Q157.1 30.1 156.8 29.7Q156.4 29.3 155.9 29.3L155.9 29.3Q155.3 29.3 154.9 29.7Q154.6 30.1 154.6 30.7L154.6 30.7ZM156.2 23.7L150.7 32.6L149.8 32.1L155.4 23.2L156.2 23.7Z "/><mask id="satori_om-id-1-1"><rect x="169" y="18" width="117" height="19" fill="#fff"/></mask><mask id="satori_om-id-1-1-0"><rect x="169" y="19" width="16" height="16" fill="#fff"/></mask><mask id="satori_om-id-1-1-0-0"><rect x="173" y="23" width="8" height="8" fill="#fff"/></mask><path x="173" y="23" width="8" height="8" fill="#ff3e00" d="M177,23 h0 a4,4 0 0 1 4,4 v0 a4,4 0 0 1 -4,4 h0 a4,4 0 0 1 -4,-4 v0 a4,4 0 0 1 4,-4"/><mask id="satori_om-id-1-1-1"><rect x="198" y="18" width="45" height="19" fill="#fff"/></mask><path fill="#24292f" d="M204.9 30.5L204.9 30.5Q204.9 29.8 204.4 29.5Q204.0 29.1 202.8 28.7Q201.5 28.3 200.8 28.0L200.8 28.0Q198.9 26.9 198.9 25.1L198.9 25.1Q198.9 24.2 199.4 23.5Q199.9 22.8 200.9 22.4Q201.9 22.0 203.1 22.0L203.1 22.0Q204.3 22.0 205.3 22.4Q206.2 22.8 206.7 23.6Q207.3 24.4 207.3 25.5L207.3 25.5L204.9 25.5Q204.9 24.7 204.4 24.3Q203.9 23.8 203.0 23.8L203.0 23.8Q202.2 23.8 201.7 24.2Q201.2 24.5 201.2 25.1L201.2 25.1Q201.2 25.7 201.8 26.1Q202.4 26.4 203.4 26.8L203.4 26.8Q205.4 27.4 206.4 28.3Q207.3 29.2 207.3 30.5L207.3 30.5Q207.3 32.0 206.1 32.8Q205.0 33.6 203.1 33.6L203.1 33.6Q201.8 33.6 200.8 33.2Q199.7 32.7 199.1 31.8Q198.5 31.0 198.5 29.9L198.5 29.9L200.9 29.9Q200.9 31.8 203.1 31.8L203.1 31.8Q204.0 31.8 204.4 31.4Q204.9 31.1 204.9 30.5ZM210.3 25.0L211.9 30.7L213.4 25.0L215.8 25.0L212.9 33.5L210.8 33.5L207.9 25.0L210.3 25.0ZM220.6 33.6L220.6 33.6Q218.7 33.6 217.6 32.5Q216.4 31.4 216.4 29.5L216.4 29.5L216.4 29.2Q216.4 28.0 216.9 27.0Q217.4 26.0 218.3 25.4Q219.2 24.9 220.3 24.9L220.3 24.9Q222.1 24.9 223.1 26.0Q224.1 27.1 224.1 29.1L224.1 29.1L224.1 30.0L218.7 30.0Q218.8 30.8 219.3 31.3Q219.9 31.8 220.7 31.8L220.7 31.8Q222.0 31.8 222.8 30.9L222.8 30.9L223.9 32.1Q223.4 32.8 222.5 33.2Q221.6 33.6 220.6 33.6ZM220.3 26.7L220.3 26.7Q219.6 26.7 219.2 27.2Q218.8 27.6 218.7 28.5L218.7 28.5L221.8 28.5L221.8 28.3Q221.8 27.5 221.4 27.1Q221.0 26.7 220.3 26.7ZM227.7 21.5L227.7 33.5L225.5 33.5L225.5 21.5L227.7 21.5ZM230.0 23.0L232.3 23.0L232.3 25.0L233.7 25.0L233.7 26.7L232.3 26.7L232.3 30.9Q232.3 31.4 232.5 31.6Q232.6 31.8 233.1 31.8L233.1 31.8Q233.5 31.8 233.8 31.7L233.8 31.7L233.8 33.4Q233.1 33.6 232.4 33.6L232.4 33.6Q230.1 33.6 230.0 31.2L230.0 31.2L230.0 26.7L228.8 26.7L228.8 25.0L230.0 25.0L230.0 23.0ZM238.9 33.6L238.9 33.6Q237.0 33.6 235.8 32.5Q234.7 31.4 234.7 29.5L234.7 29.5L234.7 29.2Q234.7 28.0 235.2 27.0Q235.7 26.0 236.6 25.4Q237.5 24.9 238.6 24.9L238.6 24.9Q240.4 24.9 241.4 26.0Q242.4 27.1 242.4 29.1L242.4 29.1L242.4 30.0L237.0 30.0Q237.1 30.8 237.6 31.3Q238.2 31.8 239.0 31.8L239.0 31.8Q240.3 31.8 241.1 30.9L241.1 30.9L242.2 32.1Q241.7 32.8 240.8 33.2Q239.9 33.6 238.9 33.6ZM238.6 26.7L238.6 26.7Q237.9 26.7 237.5 27.2Q237.1 27.6 237.0 28.5L237.0 28.5L240.1 28.5L240.1 28.3Q240.1 27.5 239.7 27.1Q239.3 26.7 238.6 26.7Z "/><mask id="satori_om-id-1-1-2"><rect x="252" y="18" width="34" height="19" fill="#fff"/></mask><path fill="#57606a" d="M260.3 22.1L260.3 22.9L255.6 33.5L254.1 33.5L258.8 23.3L252.6 23.3L252.6 22.1L260.3 22.1ZM262.1 32.7L262.1 32.7Q262.1 32.4 262.3 32.1Q262.6 31.9 263 31.9Q263.4 31.9 263.7 32.1Q263.9 32.4 263.9 32.7L263.9 32.7Q263.9 33.1 263.7 33.3Q263.4 33.6 263 33.6Q262.6 33.6 262.3 33.3Q262.1 33.1 262.1 32.7ZM271.6 22.1L271.8 22.1L271.8 23.3L271.5 23.3Q269.9 23.4 268.9 24.3Q267.9 25.3 267.7 27.1L267.7 27.1Q268.6 26.0 270.2 26.0L270.2 26.0Q271.6 26.0 272.5 27.1Q273.4 28.1 273.4 29.8L273.4 29.8Q273.4 31.5 272.5 32.6Q271.5 33.6 269.9 33.6L269.9 33.6Q268.3 33.6 267.2 32.4Q266.2 31.1 266.2 29.2L266.2 29.2L266.2 28.6Q266.2 25.5 267.6 23.8Q268.9 22.1 271.6 22.1L271.6 22.1ZM269.9 27.2L269.9 27.2Q269.2 27.2 268.5 27.7Q267.9 28.1 267.7 28.8L267.7 28.8L267.7 29.3Q267.7 30.7 268.3 31.6Q268.9 32.4 269.9 32.4L269.9 32.4Q270.9 32.4 271.4 31.7Q272.0 31.0 272.0 29.8L272.0 29.8Q272.0 28.7 271.4 27.9Q270.9 27.2 269.9 27.2ZM275 24.8L275 24.3Q275 23.3 275.7 22.6Q276.3 21.9 277.3 21.9L277.3 21.9Q278.4 21.9 279.0 22.6Q279.7 23.3 279.7 24.3L279.7 24.3L279.7 24.9Q279.7 25.9 279.0 26.6Q278.4 27.2 277.3 27.2L277.3 27.2Q276.3 27.2 275.7 26.6Q275 25.9 275 24.8L275 24.8ZM276.1 24.3L276.1 24.9Q276.1 25.5 276.4 25.9Q276.8 26.3 277.3 26.3L277.3 26.3Q277.9 26.3 278.2 25.9Q278.6 25.5 278.6 24.9L278.6 24.9L278.6 24.3Q278.6 23.7 278.2 23.3Q277.9 22.9 277.3 22.9Q276.8 22.9 276.4 23.3Q276.1 23.7 276.1 24.3L276.1 24.3ZM280.5 31.3L280.5 30.7Q280.5 29.7 281.2 29.0Q281.8 28.4 282.9 28.4Q283.9 28.4 284.5 29.0Q285.2 29.7 285.2 30.7L285.2 30.7L285.2 31.3Q285.2 32.3 284.6 33.0Q283.9 33.6 282.9 33.6Q281.9 33.6 281.2 33.0Q280.5 32.3 280.5 31.3L280.5 31.3ZM281.6 30.7L281.6 31.3Q281.6 31.9 282.0 32.3Q282.3 32.7 282.9 32.7L282.9 32.7Q283.4 32.7 283.8 32.3Q284.1 31.9 284.1 31.3L284.1 31.3L284.1 30.7Q284.1 30.1 283.8 29.7Q283.4 29.3 282.9 29.3L282.9 29.3Q282.3 29.3 282.0 29.7Q281.6 30.1 281.6 30.7L281.6 30.7ZM283.2 23.7L277.7 32.6L276.9 32.1L282.4 23.2L283.2 23.7Z "/><mask id="satori_om-id-1-2"><rect x="0" y="47" width="116" height="19" fill="#fff"/></mask><mask id="satori_om-id-1-2-0"><rect x="0" y="48" width="16" height="16" fill="#fff"/></mask><mask id="satori_om-id-1-2-0-0"><rect x="4" y="52" width="8" height="8" fill="#fff"/></mask><path x="4" y="52" width="8" height="8" fill="#e34c26" d="M8,52 h0 a4,4 0 0 1 4,4 v0 a4,4 0 0 1 -4,4 h0 a4,4 0 0 1 -4,-4 v0 a4,4 0 0 1 4,-4"/><mask id="satori_om-id-1-2-1"><rect x="29" y="47" width="44" height="19" fill="#fff"/></mask><path fill="#24292f" d="M39.3 51.1L39.3 62.5L36.9 62.5L36.9 57.6L32.4 57.6L32.4 62.5L30.0 62.5L30.0 51.1L32.4 51.1L32.4 55.7L36.9 55.7L36.9 51.1L39.3 51.1ZM49.7 51.1L49.7 53.0L46.2 53.0L46.2 62.5L43.8 62.5L43.8 53.0L40.4 53.0L40.4 51.1L49.7 51.1ZM51.0 51.1L54.1 51.1L57.0 59.4L59.9 51.1L63.0 51.1L63.0 62.5L60.6 62.5L60.6 59.4L60.8 54.0L57.8 62.5L56.2 62.5L53.1 54.0L53.3 59.4L53.3 62.5L51.0 62.5L51.0 51.1ZM67.4 51.1L67.4 60.6L72.3 60.6L72.3 62.5L65.0 62.5L65.0 51.1L67.4 51.1Z "/><mask id="satori_om-id-1-2-2"><rect x="82" y="47" width="34" height="19" fill="#fff"/></mask><path fill="#57606a" d="M88.4 51.1L88.6 51.1L88.6 52.3L88.4 52.3Q86.7 52.4 85.7 53.3Q84.7 54.3 84.5 56.1L84.5 56.1Q85.4 55.0 87.0 55.0L87.0 55.0Q88.4 55.0 89.3 56.1Q90.2 57.1 90.2 58.8L90.2 58.8Q90.2 60.5 89.3 61.6Q88.3 62.6 86.7 62.6L86.7 62.6Q85.1 62.6 84.0 61.4Q83.0 60.1 83.0 58.2L83.0 58.2L83.0 57.6Q83.0 54.5 84.4 52.8Q85.7 51.1 88.4 51.1L88.4 51.1ZM86.7 56.2L86.7 56.2Q86.0 56.2 85.4 56.7Q84.7 57.1 84.5 57.8L84.5 57.8L84.5 58.3Q84.5 59.7 85.1 60.6Q85.8 61.4 86.7 61.4L86.7 61.4Q87.7 61.4 88.2 60.7Q88.8 60.0 88.8 58.8L88.8 58.8Q88.8 57.7 88.2 56.9Q87.7 56.2 86.7 56.2ZM92.1 61.7L92.1 61.7Q92.1 61.4 92.3 61.1Q92.6 60.9 93 60.9Q93.4 60.9 93.7 61.1Q93.9 61.4 93.9 61.7L93.9 61.7Q93.9 62.1 93.7 62.3Q93.4 62.6 93 62.6Q92.6 62.6 92.3 62.3Q92.1 62.1 92.1 61.7ZM103.0 54.1L103.0 54.1Q103.0 54.9 102.6 55.6Q102.1 56.3 101.4 56.6L101.4 56.6Q102.3 57.0 102.8 57.7Q103.3 58.5 103.3 59.4L103.3 59.4Q103.3 60.9 102.3 61.8Q101.3 62.6 99.7 62.6L99.7 62.6Q98.0 62.6 97.1 61.8Q96.1 60.9 96.1 59.4L96.1 59.4Q96.1 58.5 96.6 57.7Q97.1 57.0 98.0 56.6L98.0 56.6Q97.2 56.2 96.8 55.6Q96.3 54.9 96.3 54.1L96.3 54.1Q96.3 52.6 97.3 51.8Q98.2 51.0 99.7 51.0L99.7 51.0Q101.2 51.0 102.1 51.8Q103.0 52.6 103.0 54.1ZM101.9 59.4L101.9 59.4Q101.9 58.4 101.3 57.8Q100.6 57.2 99.7 57.2Q98.7 57.2 98.1 57.8Q97.5 58.4 97.5 59.4Q97.5 60.4 98.1 60.9Q98.7 61.5 99.7 61.5L99.7 61.5Q100.7 61.5 101.3 60.9Q101.9 60.3 101.9 59.4ZM99.7 52.1L99.7 52.1Q98.8 52.1 98.3 52.7Q97.8 53.2 97.8 54.1L97.8 54.1Q97.8 55.0 98.3 55.5Q98.8 56.0 99.7 56.0Q100.6 56.0 101.1 55.5Q101.6 55.0 101.6 54.1Q101.6 53.2 101.1 52.7Q100.5 52.1 99.7 52.1ZM105 53.8L105 53.3Q105 52.3 105.7 51.6Q106.3 50.9 107.3 50.9L107.3 50.9Q108.4 50.9 109.0 51.6Q109.7 52.3 109.7 53.3L109.7 53.3L109.7 53.9Q109.7 54.9 109.0 55.6Q108.4 56.2 107.3 56.2L107.3 56.2Q106.3 56.2 105.7 55.6Q105 54.9 105 53.8L105 53.8ZM106.1 53.3L106.1 53.9Q106.1 54.5 106.4 54.9Q106.8 55.3 107.3 55.3L107.3 55.3Q107.9 55.3 108.2 54.9Q108.6 54.5 108.6 53.9L108.6 53.9L108.6 53.3Q108.6 52.7 108.2 52.3Q107.9 51.9 107.3 51.9Q106.8 51.9 106.4 52.3Q106.1 52.7 106.1 53.3L106.1 53.3ZM110.5 60.3L110.5 59.7Q110.5 58.7 111.2 58.0Q111.8 57.4 112.9 57.4Q113.9 57.4 114.5 58.0Q115.2 58.7 115.2 59.7L115.2 59.7L115.2 60.3Q115.2 61.3 114.6 62.0Q113.9 62.6 112.9 62.6Q111.9 62.6 111.2 62.0Q110.5 61.3 110.5 60.3L110.5 60.3ZM111.6 59.7L111.6 60.3Q111.6 60.9 112.0 61.3Q112.3 61.7 112.9 61.7L112.9 61.7Q113.4 61.7 113.8 61.3Q114.1 60.9 114.1 60.3L114.1 60.3L114.1 59.7Q114.1 59.1 113.8 58.7Q113.4 58.3 112.9 58.3L112.9 58.3Q112.3 58.3 112.0 58.7Q111.6 59.1 111.6 59.7L111.6 59.7ZM113.2 52.7L107.7 61.6L106.9 61.1L112.4 52.2L113.2 52.7Z "/><mask id="satori_om-id-1-3"><rect x="126" y="47" width="92" height="19" fill="#fff"/></mask><mask id="satori_om-id-1-3-0"><rect x="126" y="48" width="16" height="16" fill="#fff"/></mask><mask id="satori_om-id-1-3-0-0"><rect x="130" y="52" width="8" height="8" fill="#fff"/></mask><path x="130" y="52" width="8" height="8" fill="#00ADD8" d="M134,52 h0 a4,4 0 0 1 4,4 v0 a4,4 0 0 1 -4,4 h0 a4,4 0 0 1 -4,-4 v0 a4,4 0 0 1 4,-4"/><mask id="satori_om-id-1-3-1"><rect x="155" y="47" width="20" height="19" fill="#fff"/></mask><path fill="#24292f" d="M165.0 56.5L165.0 61.0Q164.4 61.8 163.2 62.2Q162.1 62.6 160.7 62.6L160.7 62.6Q159.2 62.6 158.1 62.0Q157.0 61.4 156.4 60.1Q155.8 58.9 155.7 57.2L155.7 57.2L155.7 56.5Q155.7 54.8 156.3 53.5Q156.9 52.3 158.0 51.6Q159.0 51.0 160.5 51.0L160.5 51.0Q162.5 51.0 163.7 51.9Q164.8 52.9 165.0 54.7L165.0 54.7L162.7 54.7Q162.6 53.7 162.0 53.3Q161.5 52.8 160.6 52.8L160.6 52.8Q159.4 52.8 158.8 53.7Q158.1 54.6 158.1 56.4L158.1 56.4L158.1 57.1Q158.1 58.9 158.8 59.8Q159.5 60.8 160.8 60.8L160.8 60.8Q162.1 60.8 162.7 60.2L162.7 60.2L162.7 58.2L160.5 58.2L160.5 56.5L165.0 56.5ZM166.4 58.3L166.4 58.2Q166.4 56.9 166.9 55.9Q167.4 55.0 168.3 54.4Q169.2 53.9 170.4 53.9L170.4 53.9Q172.1 53.9 173.2 54.9Q174.3 56.0 174.4 57.8L174.4 57.8L174.4 58.3Q174.4 60.3 173.3 61.5Q172.3 62.6 170.4 62.6Q168.6 62.6 167.5 61.5Q166.4 60.3 166.4 58.3L166.4 58.3ZM168.7 58.3L168.7 58.3Q168.7 59.5 169.1 60.2Q169.6 60.8 170.4 60.8L170.4 60.8Q171.2 60.8 171.7 60.2Q172.2 59.6 172.2 58.2L172.2 58.2Q172.2 57.0 171.7 56.4Q171.2 55.7 170.4 55.7L170.4 55.7Q169.6 55.7 169.1 56.3Q168.7 57.0 168.7 58.3Z "/><mask id="satori_om-id-1-3-2"><rect x="184" y="47" width="34" height="19" fill="#fff"/></mask><path fill="#57606a" d="M190.4 51.1L190.6 51.1L190.6 52.3L190.4 52.3Q188.7 52.4 187.7 53.3Q186.7 54.3 186.5 56.1L186.5 56.1Q187.4 55.0 189.0 55.0L189.0 55.0Q190.4 55.0 191.3 56.1Q192.2 57.1 192.2 58.8L192.2 58.8Q192.2 60.5 191.3 61.6Q190.3 62.6 188.7 62.6L188.7 62.6Q187.1 62.6 186.0 61.4Q185.0 60.1 185.0 58.2L185.0 58.2L185.0 57.6Q185.0 54.5 186.4 52.8Q187.7 51.1 190.4 51.1L190.4 51.1ZM188.7 56.2L188.7 56.2Q188.0 56.2 187.4 56.7Q186.7 57.1 186.5 57.8L186.5 57.8L186.5 58.3Q186.5 59.7 187.1 60.6Q187.8 61.4 188.7 61.4L188.7 61.4Q189.7 61.4 190.2 60.7Q190.8 60.0 190.8 58.8L190.8 58.8Q190.8 57.7 190.2 56.9Q189.7 56.2 188.7 56.2ZM194.1 61.7L194.1 61.7Q194.1 61.4 194.3 61.1Q194.6 60.9 195 60.9Q195.4 60.9 195.7 61.1Q195.9 61.4 195.9 61.7L195.9 61.7Q195.9 62.1 195.7 62.3Q195.4 62.6 195 62.6Q194.6 62.6 194.3 62.3Q194.1 62.1 194.1 61.7ZM203.6 51.1L203.8 51.1L203.8 52.3L203.5 52.3Q201.9 52.4 200.9 53.3Q199.9 54.3 199.7 56.1L199.7 56.1Q200.6 55.0 202.2 55.0L202.2 55.0Q203.6 55.0 204.5 56.1Q205.4 57.1 205.4 58.8L205.4 58.8Q205.4 60.5 204.5 61.6Q203.5 62.6 201.9 62.6L201.9 62.6Q200.3 62.6 199.2 61.4Q198.2 60.1 198.2 58.2L198.2 58.2L198.2 57.6Q198.2 54.5 199.6 52.8Q200.9 51.1 203.6 51.1L203.6 51.1ZM201.9 56.2L201.9 56.2Q201.2 56.2 200.5 56.7Q199.9 57.1 199.7 57.8L199.7 57.8L199.7 58.3Q199.7 59.7 200.3 60.6Q200.9 61.4 201.9 61.4L201.9 61.4Q202.9 61.4 203.4 60.7Q204.0 60.0 204.0 58.8L204.0 58.8Q204.0 57.7 203.4 56.9Q202.9 56.2 201.9 56.2ZM207 53.8L207 53.3Q207 52.3 207.7 51.6Q208.3 50.9 209.3 50.9L209.3 50.9Q210.4 50.9 211.0 51.6Q211.7 52.3 211.7 53.3L211.7 53.3L211.7 53.9Q211.7 54.9 211.0 55.6Q210.4 56.2 209.3 56.2L209.3 56.2Q208.3 56.2 207.7 55.6Q207 54.9 207 53.8L207 53.8ZM208.1 53.3L208.1 53.9Q208.1 54.5 208.4 54.9Q208.8 55.3 209.3 55.3L209.3 55.3Q209.9 55.3 210.2 54.9Q210.6 54.5 210.6 53.9L210.6 53.9L210.6 53.3Q210.6 52.7 210.2 52.3Q209.9 51.9 209.3 51.9Q208.8 51.9 208.4 52.3Q208.1 52.7 208.1 53.3L208.1 53.3ZM212.5 60.3L212.5 59.7Q212.5 58.7 213.2 58.0Q213.8 57.4 214.9 57.4Q215.9 57.4 216.5 58.0Q217.2 58.7 217.2 59.7L217.2 59.7L217.2 60.3Q217.2 61.3 216.6 62.0Q215.9 62.6 214.9 62.6Q213.9 62.6 213.2 62.0Q212.5 61.3 212.5 60.3L212.5 60.3ZM213.6 59.7L213.6 60.3Q213.6 60.9 214.0 61.3Q214.3 61.7 214.9 61.7L214.9 61.7Q215.4 61.7 215.8 61.3Q216.1 60.9 216.1 60.3L216.1 60.3L216.1 59.7Q216.1 59.1 215.8 58.7Q215.4 58.3 214.9 58.3L214.9 58.3Q214.3 58.3 214.0 58.7Q213.6 59.1 213.6 59.7L213.6 59.7ZM215.2 52.7L209.7 61.6L208.9 61.1L214.4 52.2L215.2 52.7Z "/><mask id="satori_om-id-1-4"><rect x="228" y="47" width="122" height="19" fill="#fff"/></mask><mask id="satori_om-id-1-4-0"><rect x="228" y="48" width="16" height="16" fill="#fff"/></mask><mask id="satori_om-id-1-4-0-0"><rect x="232" y="52" width="8" height="8" fill="#fff"/></mask><path x="232" y="52" width="8" height="8" fill="#3572A5" d="M236,52 h0 a4,4 0 0 1 4,4 v0 a4,4 0 0 1 -4,4 h0 a4,4 0 0 1 -4,-4 v0 a4,4 0 0 1 4,-4"/><mask id="satori_om-id-1-4-1"><rect x="257" y="47" width="50" height="19" fill="#fff"/></mask><path fill="#24292f" d="M262.4 58.5L260.4 58.5L260.4 62.5L258.0 62.5L258.0 51.1L262.5 51.1Q263.7 51.1 264.7 51.6Q265.7 52.0 266.2 52.9Q266.7 53.8 266.7 54.9L266.7 54.9Q266.7 56.5 265.6 57.5Q264.4 58.5 262.4 58.5L262.4 58.5ZM260.4 53.0L260.4 56.6L262.5 56.6Q263.4 56.6 263.9 56.1Q264.4 55.7 264.4 54.9L264.4 54.9Q264.4 54.1 263.9 53.5Q263.4 53.0 262.5 53.0L262.5 53.0L260.4 53.0ZM269.9 54.0L271.5 59.3L273.0 54.0L275.4 54.0L272.0 63.8L271.9 64.2Q271.1 65.9 269.4 65.9L269.4 65.9Q268.9 65.9 268.4 65.7L268.4 65.7L268.4 64.0L268.7 64.0Q269.3 64.0 269.7 63.9Q270.0 63.7 270.2 63.2L270.2 63.2L270.4 62.5L267.5 54.0L269.9 54.0ZM276.8 52.0L279.0 52.0L279.0 54.0L280.5 54.0L280.5 55.7L279.0 55.7L279.0 59.9Q279.0 60.4 279.2 60.6Q279.4 60.8 279.9 60.8L279.9 60.8Q280.3 60.8 280.6 60.7L280.6 60.7L280.6 62.4Q279.9 62.6 279.2 62.6L279.2 62.6Q276.8 62.6 276.8 60.2L276.8 60.2L276.8 55.7L275.5 55.7L275.5 54.0L276.8 54.0L276.8 52.0ZM283.9 50.5L283.9 55.0Q284.8 53.9 286.2 53.9L286.2 53.9Q289.0 53.9 289.0 57.1L289.0 57.1L289.0 62.5L286.7 62.5L286.7 57.1Q286.7 56.4 286.4 56.1Q286.1 55.7 285.4 55.7L285.4 55.7Q284.4 55.7 283.9 56.5L283.9 56.5L283.9 62.5L281.7 62.5L281.7 50.5L283.9 50.5ZM290.3 58.3L290.3 58.2Q290.3 56.9 290.8 55.9Q291.3 55.0 292.2 54.4Q293.1 53.9 294.3 53.9L294.3 53.9Q296.0 53.9 297.1 54.9Q298.2 56.0 298.3 57.8L298.3 57.8L298.4 58.3Q298.4 60.3 297.3 61.5Q296.2 62.6 294.4 62.6Q292.5 62.6 291.4 61.5Q290.3 60.3 290.3 58.3L290.3 58.3ZM292.6 58.3L292.6 58.3Q292.6 59.5 293.1 60.2Q293.5 60.8 294.4 60.8L294.4 60.8Q295.2 60.8 295.6 60.2Q296.1 59.6 296.1 58.2L296.1 58.2Q296.1 57.0 295.6 56.4Q295.2 55.7 294.3 55.7L294.3 55.7Q293.5 55.7 293.1 56.3Q292.6 57.0 292.6 58.3ZM299.7 54.0L301.8 54.0L301.9 55.0Q302.8 53.9 304.3 53.9L304.3 53.9Q305.7 53.9 306.3 54.7Q307.0 55.5 307.0 57.0L307.0 57.0L307.0 62.5L304.7 62.5L304.7 57.1Q304.7 56.4 304.4 56.0Q304.1 55.7 303.4 55.7L303.4 55.7Q302.4 55.7 302.0 56.5L302.0 56.5L302.0 62.5L299.7 62.5L299.7 54.0Z "/><mask id="satori_om-id-1-4-2"><rect x="317" y="47" width="34" height="19" fill="#fff"/></mask><path fill="#57606a" d="M319.8 57.1L318.6 56.8L319.2 51.1L325.0 51.1L325.0 52.4L320.4 52.4L320.1 55.5Q320.9 55.1 322.0 55.1L322.0 55.1Q323.5 55.1 324.4 56.1Q325.4 57.1 325.4 58.9L325.4 58.9Q325.4 60.6 324.4 61.6Q323.5 62.6 321.8 62.6L321.8 62.6Q320.2 62.6 319.3 61.8Q318.3 61.0 318.2 59.5L318.2 59.5L319.6 59.5Q319.7 60.5 320.3 61.0Q320.8 61.5 321.8 61.5L321.8 61.5Q322.8 61.5 323.3 60.8Q323.9 60.1 323.9 58.9L323.9 58.9Q323.9 57.7 323.3 57.0Q322.7 56.4 321.6 56.4L321.6 56.4Q320.7 56.4 320.1 56.8L320.1 56.8L319.8 57.1ZM327.1 61.7L327.1 61.7Q327.1 61.4 327.3 61.1Q327.6 60.9 328 60.9Q328.4 60.9 328.7 61.1Q328.9 61.4 328.9 61.7L328.9 61.7Q328.9 62.1 328.7 62.3Q328.4 62.6 328 62.6Q327.6 62.6 327.3 62.3Q327.1 62.1 327.1 61.7ZM337.2 51.1L337.2 58.7L338.8 58.7L338.8 59.8L337.2 59.8L337.2 62.5L335.8 62.5L335.8 59.8L330.6 59.8L330.6 59.0L335.7 51.1L337.2 51.1ZM335.6 53.4L332.3 58.7L335.8 58.7L335.8 53.1L335.6 53.4ZM340 53.8L340 53.3Q340 52.3 340.7 51.6Q341.3 50.9 342.3 50.9L342.3 50.9Q343.4 50.9 344.0 51.6Q344.7 52.3 344.7 53.3L344.7 53.3L344.7 53.9Q344.7 54.9 344.0 55.6Q343.4 56.2 342.3 56.2L342.3 56.2Q341.3 56.2 340.7 55.6Q340 54.9 340 53.8L340 53.8ZM341.1 53.3L341.1 53.9Q341.1 54.5 341.4 54.9Q341.8 55.3 342.3 55.3L342.3 55.3Q342.9 55.3 343.2 54.9Q343.6 54.5 343.6 53.9L343.6 53.9L343.6 53.3Q343.6 52.7 343.2 52.3Q342.9 51.9 342.3 51.9Q341.8 51.9 341.4 52.3Q341.1 52.7 341.1 53.3L341.1 53.3ZM345.5 60.3L345.5 59.7Q345.5 58.7 346.2 58.0Q346.8 57.4 347.9 57.4Q348.9 57.4 349.5 58.0Q350.2 58.7 350.2 59.7L350.2 59.7L350.2 60.3Q350.2 61.3 349.6 62.0Q348.9 62.6 347.9 62.6Q346.9 62.6 346.2 62.0Q345.5 61.3 345.5 60.3L345.5 60.3ZM346.6 59.7L346.6 60.3Q346.6 60.9 347.0 61.3Q347.3 61.7 347.9 61.7L347.9 61.7Q348.4 61.7 348.8 61.3Q349.1 60.9 349.1 60.3L349.1 60.3L349.1 59.7Q349.1 59.1 348.8 58.7Q348.4 58.3 347.9 58.3L347.9 58.3Q347.3 58.3 347.0 58.7Q346.6 59.1 346.6 59.7L346.6 59.7ZM348.2 52.7L342.7 61.6L341.9 61.1L347.4 52.2L348.2 52.7Z "/><mask id="satori_om-id-1-5"><rect x="0" y="76" width="111" height="18" fill="#fff"/></mask><mask id="satori_om-id-1-5-0"><rect x="0" y="77" width="16" height="16" fill="#fff"/></mask><mask id="satori_om-id-1-5-0-0"><rect x="4" y="81" width="8" height="8" fill="#fff"/></mask><path x="4" y="81" width="8" height="8" fill="#ff5a03" d="M8,81 h0 a4,4 0 0 1 4,4 v0 a4,4 0 0 1 -4,4 h0 a4,4 0 0 1 -4,-4 v0 a4,4 0 0 1 4,-4"/><mask id="satori_om-id-1-5-1"><rect x="29" y="76" width="39" height="18" fill="#fff"/></mask><path fill="#24292f" d="M37.2 91.5L36.4 89.1L32.3 89.1L31.5 91.5L29.1 91.5L33.3 80.1L35.5 80.1L39.7 91.5L37.2 91.5ZM34.4 83.0L33.0 87.2L35.8 87.2L34.4 83.0ZM45.2 89.1L45.2 89.1Q45.2 88.7 44.8 88.5Q44.4 88.3 43.5 88.1L43.5 88.1Q40.5 87.4 40.5 85.5L40.5 85.5Q40.5 84.4 41.4 83.6Q42.3 82.9 43.8 82.9L43.8 82.9Q45.5 82.9 46.4 83.6Q47.4 84.4 47.4 85.6L47.4 85.6L45.1 85.6Q45.1 85.1 44.8 84.8Q44.5 84.5 43.8 84.5L43.8 84.5Q43.3 84.5 43.0 84.7Q42.6 85.0 42.6 85.4L42.6 85.4Q42.6 85.8 43.0 86.0Q43.4 86.2 44.2 86.4Q45.0 86.6 45.6 86.8L45.6 86.8Q47.4 87.4 47.4 89.1L47.4 89.1Q47.4 90.2 46.4 90.9Q45.4 91.6 43.9 91.6L43.9 91.6Q42.8 91.6 42.0 91.3Q41.1 90.9 40.7 90.2Q40.2 89.6 40.2 88.8L40.2 88.8L42.3 88.8Q42.4 89.4 42.8 89.7Q43.2 90.0 43.9 90.0L43.9 90.0Q44.5 90.0 44.9 89.8Q45.2 89.5 45.2 89.1ZM49.3 81.0L51.6 81.0L51.6 83.0L53.0 83.0L53.0 84.7L51.6 84.7L51.6 88.9Q51.6 89.4 51.7 89.6Q51.9 89.8 52.4 89.8L52.4 89.8Q52.8 89.8 53.1 89.7L53.1 89.7L53.1 91.4Q52.4 91.6 51.7 91.6L51.7 91.6Q49.4 91.6 49.3 89.2L49.3 89.2L49.3 84.7L48.1 84.7L48.1 83.0L49.3 83.0L49.3 81.0ZM59.0 83.0L59.0 85.1Q58.6 85.1 58.2 85.1L58.2 85.1Q56.9 85.1 56.5 86.0L56.5 86.0L56.5 91.5L54.3 91.5L54.3 83.0L56.4 83.0L56.5 84.0Q57.1 82.9 58.3 82.9L58.3 82.9Q58.7 82.9 59.0 83.0L59.0 83.0ZM59.5 87.3L59.5 87.2Q59.5 85.9 60.0 84.9Q60.4 84.0 61.3 83.4Q62.3 82.9 63.5 82.9L63.5 82.9Q65.2 82.9 66.3 83.9Q67.3 85.0 67.5 86.8L67.5 86.8L67.5 87.3Q67.5 89.3 66.4 90.5Q65.3 91.6 63.5 91.6Q61.6 91.6 60.6 90.5Q59.5 89.3 59.5 87.3L59.5 87.3ZM61.7 87.3L61.7 87.3Q61.7 88.5 62.2 89.2Q62.6 89.8 63.5 89.8L63.5 89.8Q64.3 89.8 64.8 89.2Q65.2 88.6 65.2 87.2L65.2 87.2Q65.2 86.0 64.8 85.4Q64.3 84.7 63.5 84.7L63.5 84.7Q62.6 84.7 62.2 85.3Q61.7 86.0 61.7 87.3Z "/><mask id="satori_om-id-1-5-2"><rect x="77" y="76" width="34" height="18" fill="#fff"/></mask><path fill="#57606a" d="M84.0 80.1L84.0 87.7L85.6 87.7L85.6 88.8L84.0 88.8L84.0 91.5L82.6 91.5L82.6 88.8L77.4 88.8L77.4 88.0L82.5 80.1L84.0 80.1ZM82.4 82.4L79.1 87.7L82.6 87.7L82.6 82.1L82.4 82.4ZM87.1 90.7L87.1 90.7Q87.1 90.4 87.3 90.1Q87.6 89.9 88 89.9Q88.4 89.9 88.7 90.1Q88.9 90.4 88.9 90.7L88.9 90.7Q88.9 91.1 88.7 91.3Q88.4 91.6 88 91.6Q87.6 91.6 87.3 91.3Q87.1 91.1 87.1 90.7ZM93.2 86.3L93.2 85.1L94.3 85.1Q95.4 85.1 95.9 84.6Q96.5 84.0 96.5 83.1L96.5 83.1Q96.5 81.1 94.5 81.1L94.5 81.1Q93.6 81.1 93.0 81.7Q92.5 82.2 92.5 83.1L92.5 83.1L91.0 83.1Q91.0 81.7 92.0 80.8Q93.0 80.0 94.5 80.0L94.5 80.0Q96.1 80.0 97.1 80.8Q98.0 81.7 98.0 83.2L98.0 83.2Q98.0 83.9 97.5 84.6Q97.0 85.3 96.2 85.6L96.2 85.6Q97.1 85.9 97.6 86.6Q98.1 87.3 98.1 88.3L98.1 88.3Q98.1 89.8 97.1 90.7Q96.1 91.6 94.5 91.6Q92.9 91.6 91.9 90.8Q90.9 89.9 90.9 88.5L90.9 88.5L92.4 88.5Q92.4 89.4 93.0 89.9Q93.6 90.5 94.5 90.5L94.5 90.5Q95.6 90.5 96.1 89.9Q96.7 89.4 96.7 88.3L96.7 88.3Q96.7 87.4 96.1 86.8Q95.5 86.3 94.3 86.3L94.3 86.3L93.2 86.3ZM100 82.8L100 82.3Q100 81.3 100.7 80.6Q101.3 79.9 102.3 79.9L102.3 79.9Q103.4 79.9 104.0 80.6Q104.7 81.3 104.7 82.3L104.7 82.3L104.7 82.9Q104.7 83.9 104.0 84.6Q103.4 85.2 102.3 85.2L102.3 85.2Q101.3 85.2 100.7 84.6Q100 83.9 100 82.8L100 82.8ZM101.1 82.3L101.1 82.9Q101.1 83.5 101.4 83.9Q101.8 84.3 102.3 84.3L102.3 84.3Q102.9 84.3 103.2 83.9Q103.6 83.5 103.6 82.9L103.6 82.9L103.6 82.3Q103.6 81.7 103.2 81.3Q102.9 80.9 102.3 80.9Q101.8 80.9 101.4 81.3Q101.1 81.7 101.1 82.3L101.1 82.3ZM105.5 89.3L105.5 88.7Q105.5 87.7 106.2 87.0Q106.8 86.4 107.9 86.4Q108.9 86.4 109.5 87.0Q110.2 87.7 110.2 88.7L110.2 88.7L110.2 89.3Q110.2 90.3 109.6 91.0Q108.9 91.6 107.9 91.6Q106.9 91.6 106.2 91.0Q105.5 90.3 105.5 89.3L105.5 89.3ZM106.6 88.7L106.6 89.3Q106.6 89.9 107.0 90.3Q107.3 90.7 107.9 90.7L107.9 90.7Q108.4 90.7 108.8 90.3Q109.1 89.9 109.1 89.3L109.1 89.3L109.1 88.7Q109.1 88.1 108.8 87.7Q108.4 87.3 107.9 87.3L107.9 87.3Q107.3 87.3 107.0 87.7Q106.6 88.1 106.6 88.7L106.6 88.7ZM108.2 81.7L102.7 90.6L101.9 90.1L107.4 81.2L108.2 81.7Z "/><mask id="satori_om-id-1-6"><rect x="121" y="76" width="149" height="18" fill="#fff"/></mask><mask id="satori_om-id-1-6-0"><rect x="121" y="77" width="16" height="16" fill="#fff"/></mask><mask id="satori_om-id-1-6-0-0"><rect x="125" y="81" width="8" height="8" fill="#fff"/></mask><path x="125" y="81" width="8" height="8" fill="#f1e05a" d="M129,81 h0 a4,4 0 0 1 4,4 v0 a4,4 0 0 1 -4,4 h0 a4,4 0 0 1 -4,-4 v0 a4,4 0 0 1 4,-4"/><mask id="satori_om-id-1-6-1"><rect x="150" y="76" width="77" height="18" fill="#fff"/></mask><path fill="#24292f" d="M155.6 88.0L155.6 80.1L157.9 80.1L157.9 88.0Q157.9 89.1 157.5 89.9Q157.0 90.7 156.1 91.2Q155.2 91.6 154.1 91.6L154.1 91.6Q152.3 91.6 151.3 90.7Q150.3 89.8 150.3 88.1L150.3 88.1L152.7 88.1Q152.7 89.0 153.0 89.4Q153.4 89.8 154.1 89.8L154.1 89.8Q154.8 89.8 155.2 89.3Q155.6 88.8 155.6 88.0L155.6 88.0ZM167.0 91.5L164.7 91.5Q164.5 91.2 164.5 90.7L164.5 90.7Q163.7 91.6 162.3 91.6L162.3 91.6Q161.1 91.6 160.3 90.9Q159.5 90.2 159.5 89.1L159.5 89.1Q159.5 87.8 160.5 87.0Q161.5 86.3 163.3 86.3L163.3 86.3L164.4 86.3L164.4 85.8Q164.4 85.2 164.1 84.9Q163.8 84.5 163.1 84.5L163.1 84.5Q162.6 84.5 162.2 84.8Q161.9 85.1 161.9 85.6L161.9 85.6L159.7 85.6Q159.7 84.8 160.1 84.2Q160.6 83.6 161.4 83.2Q162.2 82.9 163.3 82.9L163.3 82.9Q164.8 82.9 165.7 83.7Q166.6 84.4 166.6 85.9L166.6 85.9L166.6 89.5Q166.7 90.7 167.0 91.4L167.0 91.4L167.0 91.5ZM162.8 89.9L162.8 89.9Q163.3 89.9 163.8 89.7Q164.2 89.5 164.4 89.1L164.4 89.1L164.4 87.6L163.5 87.6Q161.8 87.6 161.7 88.8L161.7 88.8L161.7 88.9Q161.7 89.4 162.0 89.6Q162.3 89.9 162.8 89.9ZM169.9 83.0L171.4 88.7L173 83.0L175.4 83.0L172.5 91.5L170.4 91.5L167.5 83.0L169.9 83.0ZM183.4 91.5L181.1 91.5Q181.0 91.2 180.9 90.7L180.9 90.7Q180.1 91.6 178.8 91.6L178.8 91.6Q177.5 91.6 176.7 90.9Q175.9 90.2 175.9 89.1L175.9 89.1Q175.9 87.8 176.9 87.0Q177.9 86.3 179.8 86.3L179.8 86.3L180.8 86.3L180.8 85.8Q180.8 85.2 180.5 84.9Q180.2 84.5 179.6 84.5L179.6 84.5Q179.0 84.5 178.7 84.8Q178.3 85.1 178.3 85.6L178.3 85.6L176.1 85.6Q176.1 84.8 176.5 84.2Q177.0 83.6 177.8 83.2Q178.6 82.9 179.7 82.9L179.7 82.9Q181.2 82.9 182.2 83.7Q183.1 84.4 183.1 85.9L183.1 85.9L183.1 89.5Q183.1 90.7 183.4 91.4L183.4 91.4L183.4 91.5ZM179.3 89.9L179.3 89.9Q179.8 89.9 180.2 89.7Q180.6 89.5 180.8 89.1L180.8 89.1L180.8 87.6L180.0 87.6Q178.3 87.6 178.2 88.8L178.2 88.8L178.2 88.9Q178.2 89.4 178.5 89.6Q178.8 89.9 179.3 89.9ZM190.9 88.5L190.9 88.5Q190.9 87.8 190.4 87.5Q189.9 87.1 188.7 86.7Q187.5 86.3 186.8 86.0L186.8 86.0Q184.8 84.9 184.8 83.1L184.8 83.1Q184.8 82.2 185.4 81.5Q185.9 80.8 186.8 80.4Q187.8 80.0 189.0 80.0L189.0 80.0Q190.3 80.0 191.2 80.4Q192.2 80.8 192.7 81.6Q193.2 82.4 193.2 83.5L193.2 83.5L190.9 83.5Q190.9 82.7 190.4 82.3Q189.9 81.8 189.0 81.8L189.0 81.8Q188.1 81.8 187.7 82.2Q187.2 82.5 187.2 83.1L187.2 83.1Q187.2 83.7 187.7 84.1Q188.3 84.4 189.4 84.8L189.4 84.8Q191.4 85.4 192.3 86.3Q193.2 87.2 193.2 88.5L193.2 88.5Q193.2 90.0 192.1 90.8Q191.0 91.6 189.1 91.6L189.1 91.6Q187.8 91.6 186.7 91.2Q185.6 90.7 185.1 89.8Q184.5 89.0 184.5 87.9L184.5 87.9L186.8 87.9Q186.8 89.8 189.1 89.8L189.1 89.8Q189.9 89.8 190.4 89.4Q190.9 89.1 190.9 88.5ZM198.2 89.8L198.2 89.8Q198.8 89.8 199.2 89.5Q199.6 89.1 199.6 88.6L199.6 88.6L201.7 88.6Q201.7 89.4 201.2 90.1Q200.8 90.9 200.0 91.2Q199.2 91.6 198.2 91.6L198.2 91.6Q196.4 91.6 195.3 90.5Q194.3 89.3 194.3 87.3L194.3 87.3L194.3 87.2Q194.3 85.2 195.3 84.0Q196.4 82.9 198.2 82.9L198.2 82.9Q199.8 82.9 200.7 83.8Q201.7 84.7 201.7 86.2L201.7 86.2L199.6 86.2Q199.6 85.5 199.2 85.1Q198.8 84.7 198.1 84.7L198.1 84.7Q197.4 84.7 197.0 85.3Q196.6 85.9 196.6 87.1L196.6 87.1L196.6 87.4Q196.6 88.7 197.0 89.2Q197.4 89.8 198.2 89.8ZM207.8 83.0L207.7 85.1Q207.3 85.1 206.9 85.1L206.9 85.1Q205.6 85.1 205.3 86.0L205.3 86.0L205.3 91.5L203.0 91.5L203.0 83.0L205.1 83.0L205.2 84.0Q205.9 82.9 207.1 82.9L207.1 82.9Q207.4 82.9 207.8 83.0L207.8 83.0ZM211.2 83.0L211.2 91.5L208.9 91.5L208.9 83.0L211.2 83.0ZM208.8 80.8L208.8 80.8Q208.8 80.3 209.2 80.0Q209.5 79.7 210.1 79.7L210.1 79.7Q210.7 79.7 211 80.0Q211.3 80.3 211.3 80.8L211.3 80.8Q211.3 81.4 211.0 81.7Q210.6 82.0 210.1 82.0Q209.5 82.0 209.2 81.7Q208.8 81.4 208.8 80.8ZM220.7 87.2L220.7 87.3Q220.7 89.3 219.8 90.5Q218.9 91.6 217.4 91.6L217.4 91.6Q216.1 91.6 215.3 90.7L215.3 90.7L215.3 94.7L213.1 94.7L213.1 83.0L215.2 83.0L215.2 83.9Q216.1 82.9 217.4 82.9L217.4 82.9Q218.9 82.9 219.8 84.0Q220.7 85.2 220.7 87.2L220.7 87.2ZM218.4 87.2L218.4 87.2Q218.4 86.0 218.0 85.4Q217.6 84.7 216.8 84.7L216.8 84.7Q215.7 84.7 215.3 85.5L215.3 85.5L215.3 89.0Q215.7 89.8 216.8 89.8L216.8 89.8Q218.4 89.8 218.4 87.2ZM222.5 81.0L224.8 81.0L224.8 83.0L226.2 83.0L226.2 84.7L224.8 84.7L224.8 88.9Q224.8 89.4 225.0 89.6Q225.1 89.8 225.6 89.8L225.6 89.8Q226.0 89.8 226.3 89.7L226.3 89.7L226.3 91.4Q225.6 91.6 224.9 91.6L224.9 91.6Q222.6 91.6 222.5 89.2L222.5 89.2L222.5 84.7L221.3 84.7L221.3 83.0L222.5 83.0L222.5 81.0Z "/><mask id="satori_om-id-1-6-2"><rect x="236" y="76" width="34" height="18" fill="#fff"/></mask><path fill="#57606a" d="M243.0 80.1L243.0 87.7L244.6 87.7L244.6 88.8L243.0 88.8L243.0 91.5L241.6 91.5L241.6 88.8L236.4 88.8L236.4 88.0L241.5 80.1L243.0 80.1ZM241.4 82.4L238.1 87.7L241.6 87.7L241.6 82.1L241.4 82.4ZM246.1 90.7L246.1 90.7Q246.1 90.4 246.3 90.1Q246.6 89.9 247 89.9Q247.4 89.9 247.7 90.1Q247.9 90.4 247.9 90.7L247.9 90.7Q247.9 91.1 247.7 91.3Q247.4 91.6 247 91.6Q246.6 91.6 246.3 91.3Q246.1 91.1 246.1 90.7ZM257.3 84.8L257.3 86.6Q257.3 89.2 256.4 90.4Q255.5 91.6 253.7 91.6L253.7 91.6Q251.9 91.6 251 90.4Q250.1 89.2 250.1 86.8L250.1 86.8L250.1 84.9Q250.1 82.4 251.0 81.2Q251.8 80.0 253.7 80.0L253.7 80.0Q255.5 80.0 256.4 81.1Q257.3 82.3 257.3 84.8L257.3 84.8ZM255.8 87.0L255.8 84.7Q255.8 82.8 255.3 82.0Q254.8 81.1 253.7 81.1L253.7 81.1Q252.6 81.1 252.1 82.0Q251.6 82.8 251.5 84.5L251.5 84.5L251.5 86.9Q251.5 88.7 252.1 89.6Q252.6 90.5 253.7 90.5L253.7 90.5Q254.8 90.5 255.3 89.6Q255.8 88.8 255.8 87.0L255.8 87.0ZM259 82.8L259 82.3Q259 81.3 259.7 80.6Q260.3 79.9 261.3 79.9L261.3 79.9Q262.4 79.9 263.0 80.6Q263.7 81.3 263.7 82.3L263.7 82.3L263.7 82.9Q263.7 83.9 263.0 84.6Q262.4 85.2 261.3 85.2L261.3 85.2Q260.3 85.2 259.7 84.6Q259 83.9 259 82.8L259 82.8ZM260.1 82.3L260.1 82.9Q260.1 83.5 260.4 83.9Q260.8 84.3 261.3 84.3L261.3 84.3Q261.9 84.3 262.2 83.9Q262.6 83.5 262.6 82.9L262.6 82.9L262.6 82.3Q262.6 81.7 262.2 81.3Q261.9 80.9 261.3 80.9Q260.8 80.9 260.4 81.3Q260.1 81.7 260.1 82.3L260.1 82.3ZM264.5 89.3L264.5 88.7Q264.5 87.7 265.2 87.0Q265.8 86.4 266.9 86.4Q267.9 86.4 268.5 87.0Q269.2 87.7 269.2 88.7L269.2 88.7L269.2 89.3Q269.2 90.3 268.6 91.0Q267.9 91.6 266.9 91.6Q265.9 91.6 265.2 91.0Q264.5 90.3 264.5 89.3L264.5 89.3ZM265.6 88.7L265.6 89.3Q265.6 89.9 266.0 90.3Q266.3 90.7 266.9 90.7L266.9 90.7Q267.4 90.7 267.8 90.3Q268.1 89.9 268.1 89.3L268.1 89.3L268.1 88.7Q268.1 88.1 267.8 87.7Q267.4 87.3 266.9 87.3L266.9 87.3Q266.3 87.3 266.0 87.7Q265.6 88.1 265.6 88.7L265.6 88.7ZM267.2 81.7L261.7 90.6L260.9 90.1L266.4 81.2L267.2 81.7Z "/><mask id="satori_om-id-1-7"><rect x="280" y="76" width="82" height="18" fill="#fff"/></mask><mask id="satori_om-id-1-7-0"><rect x="280" y="77" width="16" height="16" fill="#fff"/></mask><mask id="satori_om-id-1-7-0-0"><rect x="284" y="81" width="8" height="8" fill="#fff"/></mask><path x="284" y="81" width="8" height="8" fill="#555555" d="M288,81 h0 a4,4 0 0 1 4,4 v0 a4,4 0 0 1 -4,4 h0 a4,4 0 0 1 -4,-4 v0 a4,4 0 0 1 4,-4"/><mask id="satori_om-id-1-7-1"><rect x="309" y="76" width="10" height="18" fill="#fff"/></mask><path fill="#24292f" d="M316.6 87.7L318.9 87.7Q318.8 89.5 317.6 90.6Q316.4 91.6 314.4 91.6L314.4 91.6Q312.2 91.6 310.9 90.2Q309.7 88.7 309.7 86.1L309.7 86.1L309.7 85.4Q309.7 83.8 310.3 82.5Q310.8 81.3 311.9 80.6Q313.0 80.0 314.4 80.0L314.4 80.0Q316.4 80.0 317.6 81.0Q318.8 82.1 319.0 84.0L319.0 84.0L316.6 84.0Q316.5 82.9 316.0 82.4Q315.5 81.9 314.4 81.9L314.4 81.9Q313.2 81.9 312.6 82.7Q312.1 83.6 312.0 85.3L312.0 85.3L312.0 86.2Q312.0 88.0 312.6 88.9Q313.2 89.7 314.4 89.7L314.4 89.7Q315.5 89.7 316.0 89.2Q316.5 88.7 316.6 87.7L316.6 87.7Z "/><mask id="satori_om-id-1-7-2"><rect x="328" y="76" width="34" height="18" fill="#fff"/></mask><path fill="#57606a" d="M336.1 84.8L336.1 86.6Q336.1 89.2 335.2 90.4Q334.3 91.6 332.5 91.6L332.5 91.6Q330.7 91.6 329.8 90.4Q328.9 89.2 328.9 86.8L328.9 86.8L328.9 84.9Q328.9 82.4 329.8 81.2Q330.6 80.0 332.5 80.0L332.5 80.0Q334.3 80.0 335.2 81.1Q336.1 82.3 336.1 84.8L336.1 84.8ZM334.6 87.0L334.6 84.7Q334.6 82.8 334.1 82.0Q333.6 81.1 332.5 81.1L332.5 81.1Q331.4 81.1 330.9 82.0Q330.4 82.8 330.3 84.5L330.3 84.5L330.3 86.9Q330.3 88.7 330.9 89.6Q331.4 90.5 332.5 90.5L332.5 90.5Q333.6 90.5 334.1 89.6Q334.6 88.8 334.6 87.0L334.6 87.0ZM338.1 90.7L338.1 90.7Q338.1 90.4 338.3 90.1Q338.6 89.9 339 89.9Q339.4 89.9 339.7 90.1Q339.9 90.4 339.9 90.7L339.9 90.7Q339.9 91.1 339.7 91.3Q339.4 91.6 339 91.6Q338.6 91.6 338.3 91.3Q338.1 91.1 338.1 90.7ZM347.7 86.5L347.7 86.5Q347.2 87.0 346.6 87.4Q346.0 87.7 345.2 87.7L345.2 87.7Q344.2 87.7 343.5 87.2Q342.8 86.7 342.4 85.8Q342.0 85.0 342.0 83.9L342.0 83.9Q342.0 82.7 342.4 81.8Q342.8 80.9 343.6 80.4Q344.4 80.0 345.5 80.0L345.5 80.0Q347.2 80.0 348.2 81.2Q349.1 82.5 349.1 84.7L349.1 84.7L349.1 85.1Q349.1 88.4 347.8 89.9Q346.5 91.5 343.9 91.5L343.9 91.5L343.6 91.5L343.6 90.3L343.9 90.3Q345.7 90.2 346.6 89.3Q347.6 88.4 347.7 86.5ZM345.5 86.5L345.5 86.5Q346.2 86.5 346.8 86.0Q347.4 85.6 347.7 84.9L347.7 84.9L347.7 84.4Q347.7 82.9 347.1 82.0Q346.5 81.2 345.5 81.2L345.5 81.2Q344.6 81.2 344.0 81.9Q343.4 82.6 343.4 83.8L343.4 83.8Q343.4 85.0 344.0 85.7Q344.5 86.5 345.5 86.5ZM351 82.8L351 82.3Q351 81.3 351.7 80.6Q352.3 79.9 353.3 79.9L353.3 79.9Q354.4 79.9 355.0 80.6Q355.7 81.3 355.7 82.3L355.7 82.3L355.7 82.9Q355.7 83.9 355.0 84.6Q354.4 85.2 353.3 85.2L353.3 85.2Q352.3 85.2 351.7 84.6Q351 83.9 351 82.8L351 82.8ZM352.1 82.3L352.1 82.9Q352.1 83.5 352.4 83.9Q352.8 84.3 353.3 84.3L353.3 84.3Q353.9 84.3 354.2 83.9Q354.6 83.5 354.6 82.9L354.6 82.9L354.6 82.3Q354.6 81.7 354.2 81.3Q353.9 80.9 353.3 80.9Q352.8 80.9 352.4 81.3Q352.1 81.7 352.1 82.3L352.1 82.3ZM356.5 89.3L356.5 88.7Q356.5 87.7 357.2 87.0Q357.8 86.4 358.9 86.4Q359.9 86.4 360.5 87.0Q361.2 87.7 361.2 88.7L361.2 88.7L361.2 89.3Q361.2 90.3 360.6 91.0Q359.9 91.6 358.9 91.6Q357.9 91.6 357.2 91.0Q356.5 90.3 356.5 89.3L356.5 89.3ZM357.6 88.7L357.6 89.3Q357.6 89.9 358.0 90.3Q358.3 90.7 358.9 90.7L358.9 90.7Q359.4 90.7 359.8 90.3Q360.1 89.9 360.1 89.3L360.1 89.3L360.1 88.7Q360.1 88.1 359.8 87.7Q359.4 87.3 358.9 87.3L358.9 87.3Q358.3 87.3 358.0 87.7Q357.6 88.1 357.6 88.7L357.6 88.7ZM359.2 81.7L353.7 90.6L352.9 90.1L358.4 81.2L359.2 81.7Z "/><mask id="satori_om-id-1-8"><rect x="0" y="104" width="102" height="19" fill="#fff"/></mask><mask id="satori_om-id-1-8-0"><rect x="0" y="105" width="16" height="16" fill="#fff"/></mask><mask id="satori_om-id-1-8-0-0"><rect x="4" y="109" width="8" height="8" fill="#fff"/></mask><path x="4" y="109" width="8" height="8" fill="#563d7c" d="M8,109 h0 a4,4 0 0 1 4,4 v0 a4,4 0 0 1 -4,4 h0 a4,4 0 0 1 -4,-4 v0 a4,4 0 0 1 4,-4"/><mask id="satori_om-id-1-8-1"><rect x="29" y="104" width="30" height="19" fill="#fff"/></mask><path fill="#24292f" d="M36.6 115.7L38.9 115.7Q38.8 117.5 37.6 118.6Q36.4 119.6 34.4 119.6L34.4 119.6Q32.2 119.6 30.9 118.2Q29.7 116.7 29.7 114.1L29.7 114.1L29.7 113.4Q29.7 111.8 30.3 110.5Q30.8 109.3 31.9 108.6Q33.0 108.0 34.4 108.0L34.4 108.0Q36.4 108.0 37.6 109.0Q38.8 110.1 39.0 112.0L39.0 112.0L36.6 112.0Q36.5 110.9 36.0 110.4Q35.5 109.9 34.4 109.9L34.4 109.9Q33.2 109.9 32.6 110.7Q32.1 111.6 32.0 113.3L32.0 113.3L32.0 114.2Q32.0 116.0 32.6 116.9Q33.2 117.7 34.4 117.7L34.4 117.7Q35.5 117.7 36.0 117.2Q36.5 116.7 36.6 115.7L36.6 115.7ZM46.4 116.5L46.4 116.5Q46.4 115.8 45.9 115.5Q45.4 115.1 44.2 114.7Q43.0 114.3 42.3 114.0L42.3 114.0Q40.4 112.9 40.4 111.1L40.4 111.1Q40.4 110.2 40.9 109.5Q41.4 108.8 42.4 108.4Q43.3 108.0 44.6 108.0L44.6 108.0Q45.8 108.0 46.7 108.4Q47.7 108.8 48.2 109.6Q48.7 110.4 48.7 111.5L48.7 111.5L46.4 111.5Q46.4 110.7 45.9 110.3Q45.4 109.8 44.5 109.8L44.5 109.8Q43.7 109.8 43.2 110.2Q42.7 110.5 42.7 111.1L42.7 111.1Q42.7 111.7 43.3 112.1Q43.8 112.4 44.9 112.8L44.9 112.8Q46.9 113.4 47.8 114.3Q48.7 115.2 48.7 116.5L48.7 116.5Q48.7 118.0 47.6 118.8Q46.5 119.6 44.6 119.6L44.6 119.6Q43.3 119.6 42.2 119.2Q41.1 118.7 40.6 117.8Q40.0 117.0 40.0 115.9L40.0 115.9L42.4 115.9Q42.4 117.8 44.6 117.8L44.6 117.8Q45.4 117.8 45.9 117.4Q46.4 117.1 46.4 116.5ZM56.2 116.5L56.2 116.5Q56.2 115.8 55.8 115.5Q55.3 115.1 54.1 114.7Q52.8 114.3 52.1 114.0L52.1 114.0Q50.2 112.9 50.2 111.1L50.2 111.1Q50.2 110.2 50.7 109.5Q51.2 108.8 52.2 108.4Q53.2 108.0 54.4 108.0L54.4 108.0Q55.6 108.0 56.6 108.4Q57.5 108.8 58.0 109.6Q58.6 110.4 58.6 111.5L58.6 111.5L56.2 111.5Q56.2 110.7 55.7 110.3Q55.2 109.8 54.4 109.8L54.4 109.8Q53.5 109.8 53.0 110.2Q52.5 110.5 52.5 111.1L52.5 111.1Q52.5 111.7 53.1 112.1Q53.7 112.4 54.7 112.8L54.7 112.8Q56.7 113.4 57.7 114.3Q58.6 115.2 58.6 116.5L58.6 116.5Q58.6 118.0 57.5 118.8Q56.3 119.6 54.4 119.6L54.4 119.6Q53.1 119.6 52.1 119.2Q51.0 118.7 50.4 117.8Q49.8 117.0 49.8 115.9L49.8 115.9L52.2 115.9Q52.2 117.8 54.4 117.8L54.4 117.8Q55.3 117.8 55.8 117.4Q56.2 117.1 56.2 116.5Z "/><mask id="satori_om-id-1-8-2"><rect x="68" y="104" width="34" height="19" fill="#fff"/></mask><path fill="#57606a" d="M76.1 112.8L76.1 114.6Q76.1 117.2 75.2 118.4Q74.3 119.6 72.5 119.6L72.5 119.6Q70.7 119.6 69.8 118.4Q68.9 117.2 68.9 114.8L68.9 114.8L68.9 112.9Q68.9 110.4 69.8 109.2Q70.6 108.0 72.5 108.0L72.5 108.0Q74.3 108.0 75.2 109.1Q76.1 110.3 76.1 112.8L76.1 112.8ZM74.6 115.0L74.6 112.7Q74.6 110.8 74.1 110.0Q73.6 109.1 72.5 109.1L72.5 109.1Q71.4 109.1 70.9 110.0Q70.4 110.8 70.3 112.5L70.3 112.5L70.3 114.9Q70.3 116.7 70.9 117.6Q71.4 118.5 72.5 118.5L72.5 118.5Q73.6 118.5 74.1 117.6Q74.6 116.8 74.6 115.0L74.6 115.0ZM78.1 118.7L78.1 118.7Q78.1 118.4 78.3 118.1Q78.6 117.9 79 117.9Q79.4 117.9 79.7 118.1Q79.9 118.4 79.9 118.7L79.9 118.7Q79.9 119.1 79.7 119.3Q79.4 119.6 79 119.6Q78.6 119.6 78.3 119.3Q78.1 119.1 78.1 118.7ZM87.6 108.1L87.8 108.1L87.8 109.3L87.5 109.3Q85.9 109.4 84.9 110.3Q83.9 111.3 83.7 113.1L83.7 113.1Q84.6 112.0 86.2 112.0L86.2 112.0Q87.6 112.0 88.5 113.1Q89.4 114.1 89.4 115.8L89.4 115.8Q89.4 117.5 88.5 118.6Q87.5 119.6 85.9 119.6L85.9 119.6Q84.3 119.6 83.2 118.4Q82.2 117.1 82.2 115.2L82.2 115.2L82.2 114.6Q82.2 111.5 83.6 109.8Q84.9 108.1 87.6 108.1L87.6 108.1ZM85.9 113.2L85.9 113.2Q85.2 113.2 84.5 113.7Q83.9 114.1 83.7 114.8L83.7 114.8L83.7 115.3Q83.7 116.7 84.3 117.6Q84.9 118.4 85.9 118.4L85.9 118.4Q86.9 118.4 87.4 117.7Q88.0 117.0 88.0 115.8L88.0 115.8Q88.0 114.7 87.4 113.9Q86.9 113.2 85.9 113.2ZM91 110.8L91 110.3Q91 109.3 91.7 108.6Q92.3 107.9 93.3 107.9L93.3 107.9Q94.4 107.9 95.0 108.6Q95.7 109.3 95.7 110.3L95.7 110.3L95.7 110.9Q95.7 111.9 95.0 112.6Q94.4 113.2 93.3 113.2L93.3 113.2Q92.3 113.2 91.7 112.6Q91 111.9 91 110.8L91 110.8ZM92.1 110.3L92.1 110.9Q92.1 111.5 92.4 111.9Q92.8 112.3 93.3 112.3L93.3 112.3Q93.9 112.3 94.2 111.9Q94.6 111.5 94.6 110.9L94.6 110.9L94.6 110.3Q94.6 109.7 94.2 109.3Q93.9 108.9 93.3 108.9Q92.8 108.9 92.4 109.3Q92.1 109.7 92.1 110.3L92.1 110.3ZM96.5 117.3L96.5 116.7Q96.5 115.7 97.2 115.0Q97.8 114.4 98.9 114.4Q99.9 114.4 100.5 115.0Q101.2 115.7 101.2 116.7L101.2 116.7L101.2 117.3Q101.2 118.3 100.6 119.0Q99.9 119.6 98.9 119.6Q97.9 119.6 97.2 119.0Q96.5 118.3 96.5 117.3L96.5 117.3ZM97.6 116.7L97.6 117.3Q97.6 117.9 98.0 118.3Q98.3 118.7 98.9 118.7L98.9 118.7Q99.4 118.7 99.8 118.3Q100.1 117.9 100.1 117.3L100.1 117.3L100.1 116.7Q100.1 116.1 99.8 115.7Q99.4 115.3 98.9 115.3L98.9 115.3Q98.3 115.3 98.0 115.7Q97.6 116.1 97.6 116.7L97.6 116.7ZM99.2 109.7L93.7 118.6L92.9 118.1L98.4 109.2L99.2 109.7Z "/><mask id="satori_om-id-1-9"><rect x="112" y="104" width="102" height="19" fill="#fff"/></mask><mask id="satori_om-id-1-9-0"><rect x="112" y="105" width="16" height="16" fill="#fff"/></mask><mask id="satori_om-id-1-9-0-0"><rect x="116" y="109" width="8" height="8" fill="#fff"/></mask><path x="116" y="109" width="8" height="8" fill="#844FBA" d="M120,109 h0 a4,4 0 0 1 4,4 v0 a4,4 0 0 1 -4,4 h0 a4,4 0 0 1 -4,-4 v0 a4,4 0 0 1 4,-4"/><mask id="satori_om-id-1-9-1"><rect x="141" y="104" width="30" height="19" fill="#fff"/></mask><path fill="#24292f" d="M151.3 108.1L151.3 119.5L148.9 119.5L148.9 114.6L144.4 114.6L144.4 119.5L142.0 119.5L142.0 108.1L144.4 108.1L144.4 112.7L148.9 112.7L148.9 108.1L151.3 108.1ZM159.9 115.7L162.3 115.7Q162.1 117.5 160.9 118.6Q159.7 119.6 157.7 119.6L157.7 119.6Q155.5 119.6 154.2 118.2Q153.0 116.7 153.0 114.1L153.0 114.1L153.0 113.4Q153.0 111.8 153.6 110.5Q154.1 109.3 155.2 108.6Q156.3 108.0 157.7 108.0L157.7 108.0Q159.7 108.0 160.9 109.0Q162.1 110.1 162.3 112.0L162.3 112.0L159.9 112.0Q159.8 110.9 159.3 110.4Q158.8 109.9 157.7 109.9L157.7 109.9Q156.5 109.9 155.9 110.7Q155.4 111.6 155.4 113.3L155.4 113.3L155.4 114.2Q155.4 116.0 155.9 116.9Q156.5 117.7 157.7 117.7L157.7 117.7Q158.8 117.7 159.3 117.2Q159.8 116.7 159.9 115.7L159.9 115.7ZM166.1 108.1L166.1 117.6L171.1 117.6L171.1 119.5L163.8 119.5L163.8 108.1L166.1 108.1Z "/><mask id="satori_om-id-1-9-2"><rect x="180" y="104" width="34" height="19" fill="#fff"/></mask><path fill="#57606a" d="M188.1 112.8L188.1 114.6Q188.1 117.2 187.2 118.4Q186.3 119.6 184.5 119.6L184.5 119.6Q182.7 119.6 181.8 118.4Q180.9 117.2 180.9 114.8L180.9 114.8L180.9 112.9Q180.9 110.4 181.8 109.2Q182.6 108.0 184.5 108.0L184.5 108.0Q186.3 108.0 187.2 109.1Q188.1 110.3 188.1 112.8L188.1 112.8ZM186.6 115.0L186.6 112.7Q186.6 110.8 186.1 110.0Q185.6 109.1 184.5 109.1L184.5 109.1Q183.4 109.1 182.9 110.0Q182.4 110.8 182.3 112.5L182.3 112.5L182.3 114.9Q182.3 116.7 182.9 117.6Q183.4 118.5 184.5 118.5L184.5 118.5Q185.6 118.5 186.1 117.6Q186.6 116.8 186.6 115.0L186.6 115.0ZM190.1 118.7L190.1 118.7Q190.1 118.4 190.3 118.1Q190.6 117.9 191 117.9Q191.4 117.9 191.7 118.1Q191.9 118.4 191.9 118.7L191.9 118.7Q191.9 119.1 191.7 119.3Q191.4 119.6 191 119.6Q190.6 119.6 190.3 119.3Q190.1 119.1 190.1 118.7ZM199.6 108.1L199.8 108.1L199.8 109.3L199.5 109.3Q197.9 109.4 196.9 110.3Q195.9 111.3 195.7 113.1L195.7 113.1Q196.6 112.0 198.2 112.0L198.2 112.0Q199.6 112.0 200.5 113.1Q201.4 114.1 201.4 115.8L201.4 115.8Q201.4 117.5 200.5 118.6Q199.5 119.6 197.9 119.6L197.9 119.6Q196.3 119.6 195.2 118.4Q194.2 117.1 194.2 115.2L194.2 115.2L194.2 114.6Q194.2 111.5 195.6 109.8Q196.9 108.1 199.6 108.1L199.6 108.1ZM197.9 113.2L197.9 113.2Q197.2 113.2 196.5 113.7Q195.9 114.1 195.7 114.8L195.7 114.8L195.7 115.3Q195.7 116.7 196.3 117.6Q196.9 118.4 197.9 118.4L197.9 118.4Q198.9 118.4 199.4 117.7Q200.0 117.0 200.0 115.8L200.0 115.8Q200.0 114.7 199.4 113.9Q198.9 113.2 197.9 113.2ZM203 110.8L203 110.3Q203 109.3 203.7 108.6Q204.3 107.9 205.3 107.9L205.3 107.9Q206.4 107.9 207.0 108.6Q207.7 109.3 207.7 110.3L207.7 110.3L207.7 110.9Q207.7 111.9 207.0 112.6Q206.4 113.2 205.3 113.2L205.3 113.2Q204.3 113.2 203.7 112.6Q203 111.9 203 110.8L203 110.8ZM204.1 110.3L204.1 110.9Q204.1 111.5 204.4 111.9Q204.8 112.3 205.3 112.3L205.3 112.3Q205.9 112.3 206.2 111.9Q206.6 111.5 206.6 110.9L206.6 110.9L206.6 110.3Q206.6 109.7 206.2 109.3Q205.9 108.9 205.3 108.9Q204.8 108.9 204.4 109.3Q204.1 109.7 204.1 110.3L204.1 110.3ZM208.5 117.3L208.5 116.7Q208.5 115.7 209.2 115.0Q209.8 114.4 210.9 114.4Q211.9 114.4 212.5 115.0Q213.2 115.7 213.2 116.7L213.2 116.7L213.2 117.3Q213.2 118.3 212.6 119.0Q211.9 119.6 210.9 119.6Q209.9 119.6 209.2 119.0Q208.5 118.3 208.5 117.3L208.5 117.3ZM209.6 116.7L209.6 117.3Q209.6 117.9 210.0 118.3Q210.3 118.7 210.9 118.7L210.9 118.7Q211.4 118.7 211.8 118.3Q212.1 117.9 212.1 117.3L212.1 117.3L212.1 116.7Q212.1 116.1 211.8 115.7Q211.4 115.3 210.9 115.3L210.9 115.3Q210.3 115.3 210.0 115.7Q209.6 116.1 209.6 116.7L209.6 116.7ZM211.2 109.7L205.7 118.6L204.9 118.1L210.4 109.2L211.2 109.7Z "/></svg>