<svg width="320" height="200" viewBox="0 0 320 200" xmlns="http://www.w3.org/2000/svg"><mask id="satori_om-id"><rect x="0" y="0" width="300" height="181" fill="#fff"/></mask><clipPath id="satori_cp-id-0"><path x="0" y="0" width="300" height="8" d="M4,0 h292 a4,4 0 0 1 4,4 v0 a4,4 0 0 1 -4,4 h-292 a4,4 0 0 1 -4,-4 v0 a4,4 0 0 1 4,-4"/></clipPath><mask id="satori_om-id-0"><rect x="0" y="0" width="300" height="8" fill="#fff"/></mask><mask id="satori_om-id-0-0"><rect x="0" y="0" width="177" height="8" fill="#fff" mask="url(#satori_om-id-0)"/></mask><rect x="0" y="0" width="177" height="8" fill="#3178c6" clip-path="url(#satori_cp-id-0)" mask="url(#satori_om-id-0)"/><mask id="satori_om-id-0-1"><rect x="177" y="0" width="32" height="8" fill="#fff" mask="url(#satori_om-id-0)"/></mask><rect x="177" y="0" width="32" height="8" fill="#00ADD8" clip-path="url(#satori_cp-id-0)" mask="url(#satori_om-id-0)"/><mask id="satori_om-id-0-2"><rect x="209" y="0" width="26" height="8" fill="#fff" mask="url(#satori_om-id-0)"/></mask><rect x="209" y="0" width="26" height="8" fill="#ff3e00" clip-path="url(#satori_cp-id-0)" mask="url(#satori_om-id-0)"/><mask id="satori_om-id-0-3"><rect x="235" y="0" width="20" height="8" fill="#fff" mask="url(#satori_om-id-0)"/></mask><rect x="235" y="0" width="20" height="8" fill="#f1e05a" clip-path="url(#satori_cp-id-0)" mask="url(#satori_om-id-0)"/><mask id="satori_om-id-0-4"><rect x="255" y="0" width="18" height="8" fill="#fff" mask="url(#satori_om-id-0)"/></mask><rect x="255" y="0" width="18" height="8" fill="#555555" clip-path="url(#satori_cp-id-0)" mask="url(#satori_om-id-0)"/><mask id="satori_om-id-0-5"><rect x="273" y="0" width="14" height="8" fill="#fff" mask="url(#satori_om-id-0)"/></mask><rect x="273" y="0" width="14" height="8" fill="#ff5a03" clip-path="url(#satori_cp-id-0)" mask="url(#satori_om-id-0)"/><mask id="satori_om-id-0-6"><rect x="287" y="0" width="6" height="8" fill="#fff" mask="url(#satori_om-id-0)"/></mask><rect x="287" y="0" width="6" height="8" fill="#563d7c" clip-path="url(#satori_cp-id-0)" mask="url(#satori_om-id-0)"/><mask id="satori_om-id-0-7"><rect x="293" y="0" width="5" height="8" fill="#fff" mask="url(#satori_om-id-0)"/></mask><rect x="293" y="0" width="5" height="8" fill="#844FBA" clip-path="url(#satori_cp-id-0)" mask="url(#satori_om-id-0)"/><mask id="satori_om-id-0-8"><rect x="298" y="0" width="2" height="8" fill="#fff" mask="url(#satori_om-id-0)"/></mask><rect x="298" y="0" width="2" height="8" fill="#e34c26" clip-path="url(#satori_cp-id-0)" mask="url(#satori_om-id-0)"/><mask id="satori_om-id-0-9"><rect x="300" y="0" width="0" height="8" fill="#fff" mask="url(#satori_om-id-0)"/></mask><rect x="300" y="0" width="0" height="8" fill="#384d54" clip-path="url(#satori_cp-id-0)" mask="url(#satori_om-id-0)"/><mask id="satori_om-id-0-10"><rect x="300" y="0" width="0" height="8" fill="#fff" mask="url(#satori_om-id-0)"/></mask><rect x="300" y="0" width="0" height="8" fill="#427819" clip-path="url(#satori_cp-id-0)" mask="url(#satori_om-id-0)"/><mask id="satori_om-id-1"><rect x="0" y="18" width="300" height="163" fill="#fff"/></mask><mask id="satori_om-id-1-0"><rect x="0" y="18" width="159" height="19" fill="#fff"/></mask><mask id="satori_om-id-1-0-0"><rect x="0" y="19" width="16" height="16" fill="#fff"/></mask><mask id="satori_om-id-1-0-0-0"><rect x="4" y="23" width="8" height="8" fill="#fff"/></mask><path x="4" y="23" width="8" height="8" fill="#3178c6" d="M8,23 h0 a4,4 0 0 1 4,4 v0 a4,4 0 0 1 -4,4 h0 a4,4 0 0 1 -4,-4 v0 a4,4 0 0 1 4,-4"/><mask id="satori_om-id-1-0-1"><rect x="29" y="18" width="78" height="19" fill="#fff"/></mask><path fill="#fff" d="M38.6 22.1L38.6 24.0L35.1 24.0L35.1 33.5L32.8 33.5L32.8 24.0L29.3 24.0L29.3 22.1L38.6 22.1ZM40.7 25.0L42.3 30.3L43.8 25.0L46.3 25.0L42.9 34.8L42.7 35.2Q41.9 36.9 40.2 36.9L40.2 36.9Q39.7 36.9 39.2 36.7L39.2 36.7L39.2 35.0L39.5 35.0Q40.2 35.0 40.5 34.9Q40.8 34.7 41.0 34.2L41.0 34.2L41.2 33.5L38.3 25.0L40.7 25.0ZM54.8 29.2L54.8 29.3Q54.8 31.3 53.9 32.5Q53.0 33.6 51.5 33.6L51.5 33.6Q50.2 33.6 49.4 32.7L49.4 32.7L49.4 36.7L47.2 36.7L47.2 25.0L49.3 25.0L49.3 25.9Q50.1 24.9 51.5 24.9L51.5 24.9Q53.0 24.9 53.9 26.0Q54.8 27.2 54.8 29.2L54.8 29.2ZM52.5 29.2L52.5 29.2Q52.5 28.0 52.1 27.4Q51.7 26.7 50.9 26.7L50.9 26.7Q49.8 26.7 49.4 27.5L49.4 27.5L49.4 31.0Q49.8 31.8 50.9 31.8L50.9 31.8Q52.5 31.8 52.5 29.2ZM60.1 33.6L60.1 33.6Q58.2 33.6 57.0 32.5Q55.9 31.4 55.9 29.5L55.9 29.5L55.9 29.2Q55.9 28.0 56.4 27.0Q56.8 26.0 57.7 25.4Q58.6 24.9 59.8 24.9L59.8 24.9Q61.5 24.9 62.5 26.0Q63.5 27.1 63.5 29.1L63.5 29.1L63.5 30.0L58.1 30.0Q58.3 30.8 58.8 31.3Q59.4 31.8 60.2 31.8L60.2 31.8Q61.5 31.8 62.2 30.9L62.2 30.9L63.4 32.1Q62.8 32.8 62.0 33.2Q61.1 33.6 60.1 33.6ZM59.8 26.7L59.8 26.7Q59.1 26.7 58.7 27.2Q58.3 27.6 58.2 28.5L58.2 28.5L61.3 28.5L61.3 28.3Q61.3 27.5 60.9 27.1Q60.5 26.7 59.8 26.7ZM70.9 30.5L70.9 30.5Q70.9 29.8 70.4 29.5Q69.9 29.1 68.7 28.7Q67.5 28.3 66.8 28.0L66.8 28.0Q64.8 26.9 64.8 25.1L64.8 25.1Q64.8 24.2 65.4 23.5Q65.9 22.8 66.8 22.4Q67.8 22.0 69.0 22.0L69.0 22.0Q70.3 22.0 71.2 22.4Q72.2 22.8 72.7 23.6Q73.2 24.4 73.2 25.5L73.2 25.5L70.9 25.5Q70.9 24.7 70.4 24.3Q69.9 23.8 69.0 23.8L69.0 23.8Q68.1 23.8 67.7 24.2Q67.2 24.5 67.2 25.1L67.2 25.1Q67.2 25.7 67.7 26.1Q68.3 26.4 69.4 26.8L69.4 26.8Q71.4 27.4 72.3 28.3Q73.2 29.2 73.2 30.5L73.2 30.5Q73.2 32.0 72.1 32.8Q71.0 33.6 69.1 33.6L69.1 33.6Q67.8 33.6 66.7 33.2Q65.6 32.7 65.1 31.8Q64.5 31.0 64.5 29.9L64.5 29.9L66.8 29.9Q66.8 31.8 69.1 31.8L69.1 31.8Q69.9 31.8 70.4 31.4Q70.9 31.1 70.9 30.5ZM78.2 31.8L78.2 31.8Q78.8 31.8 79.2 31.5Q79.6 31.1 79.6 30.6L79.6 30.6L81.7 30.6Q81.7 31.4 81.2 32.1Q80.8 32.9 80.0 33.2Q79.2 33.6 78.2 33.6L78.2 33.6Q76.4 33.6 75.3 32.5Q74.3 31.3 74.3 29.3L74.3 29.3L74.3 29.2Q74.3 27.2 75.3 26.0Q76.4 24.9 78.2 24.9L78.2 24.9Q79.8 24.9 80.7 25.8Q81.7 26.7 81.7 28.2L81.7 28.2L79.6 28.2Q79.6 27.5 79.2 27.1Q78.8 26.7 78.1 26.7L78.1 26.7Q77.4 26.7 77.0 27.3Q76.6 27.9 76.6 29.1L76.6 29.1L76.6 29.4Q76.6 30.7 77.0 31.2Q77.4 31.8 78.2 31.8ZM87.8 25.0L87.7 27.1Q87.3 27.1 86.9 27.1L86.9 27.1Q85.6 27.1 85.3 28.0L85.3 28.0L85.3 33.5L83.0 33.5L83.0 25.0L85.1 25.0L85.2 26.0Q85.9 24.9 87.1 24.9L87.1 24.9Q87.4 24.9 87.8 25.0L87.8 25.0ZM91.2 25.0L91.2 33.5L88.9 33.5L88.9 25.0L91.2 25.0ZM88.8 22.8L88.8 22.8Q88.8 22.3 89.2 22.0Q89.5 21.7 90.1 21.7L90.1 21.7Q90.7 21.7 91 22.0Q91.3 22.3 91.3 22.8L91.3 22.8Q91.3 23.4 91.0 23.7Q90.6 24.0 90.1 24.0Q89.5 24.0 89.2 23.7Q88.8 23.4 88.8 22.8ZM100.7 29.2L100.7 29.3Q100.7 31.3 99.8 32.5Q98.9 33.6 97.4 33.6L97.4 33.6Q96.1 33.6 95.3 32.7L95.3 32.7L95.3 36.7L93.1 36.7L93.1 25.0L95.2 25.0L95.2 25.9Q96.1 24.9 97.4 24.9L97.4 24.9Q98.9 24.9 99.8 26.0Q100.7 27.2 100.7 29.2L100.7 29.2ZM98.4 29.2L98.4 29.2Q98.4 28.0 98.0 27.4Q97.6 26.7 96.8 26.7L96.8 26.7Q95.7 26.7 95.3 27.5L95.3 27.5L95.3 31.0Q95.7 31.8 96.8 31.8L96.8 31.8Q98.4 31.8 98.4 29.2ZM102.5 23.0L104.8 23.0L104.8 25.0L106.2 25.0L106.2 26.7L104.8 26.7L104.8 30.9Q104.8 31.4 105.0 31.6Q105.1 31.8 105.6 31.8L105.6 31.8Q106.0 31.8 106.3 31.7L106.3 31.7L106.3 33.4Q105.6 33.6 104.9 33.6L104.9 33.6Q102.6 33.6 102.5 31.2L102.5 31.2L102.5 26.7L101.3 26.7L101.3 25.0L102.5 25.0L102.5 23.0Z "/><mask id="satori_om-id-1-0-2"><rect x="116" y="18" width="43" height="19" fill="#fff"/></mask><path fill="#7d8590" d="M118.8 28.1L117.6 27.8L118.2 22.1L124.0 22.1L124.0 23.4L119.4 23.4L119.1 26.5Q119.9 26.1 121.0 26.1L121.0 26.1Q122.5 26.1 123.4 27.1Q124.4 28.1 124.4 29.9L124.4 29.9Q124.4 31.6 123.4 32.6Q122.5 33.6 120.8 33.6L120.8 33.6Q119.2 33.6 118.3 32.8Q117.3 32.0 117.2 30.5L117.2 30.5L118.6 30.5Q118.7 31.5 119.3 32.0Q119.8 32.5 120.8 32.5L120.8 32.5Q121.8 32.5 122.3 31.8Q122.9 31.1 122.9 29.9L122.9 29.9Q122.9 28.7 122.3 28.0Q121.7 27.4 120.6 27.4L120.6 27.4Q119.7 27.4 119.1 27.8L119.1 27.8L118.8 28.1ZM132.8 25.1L132.8 25.1Q132.8 25.9 132.4 26.6Q131.9 27.3 131.2 27.6L131.2 27.6Q132.1 28.0 132.6 28.7Q133.1 29.5 133.1 30.4L133.1 30.4Q133.1 31.9 132.1 32.8Q131.1 33.6 129.5 33.6L129.5 33.6Q127.8 33.6 126.8 32.8Q125.9 31.9 125.9 30.4L125.9 30.4Q125.9 29.5 126.4 28.7Q126.9 28.0 127.8 27.6L127.8 27.6Q127 27.2 126.6 26.6Q126.1 25.9 126.1 25.1L126.1 25.1Q126.1 23.6 127.0 22.8Q128.0 22.0 129.5 22.0L129.5 22.0Q131.0 22.0 131.9 22.8Q132.8 23.6 132.8 25.1ZM131.6 30.4L131.6 30.4Q131.6 29.4 131.0 28.8Q130.4 28.2 129.5 28.2Q128.5 28.2 127.9 28.8Q127.3 29.4 127.3 30.4Q127.3 31.4 127.9 31.9Q128.5 32.5 129.5 32.5L129.5 32.5Q130.5 32.5 131.1 31.9Q131.6 31.3 131.6 30.4ZM129.5 23.1L129.5 23.1Q128.6 23.1 128.1 23.7Q127.6 24.2 127.6 25.1L127.6 25.1Q127.6 26.0 128.1 26.5Q128.6 27.0 129.5 27.0Q130.3 27.0 130.9 26.5Q131.4 26.0 131.4 25.1Q131.4 24.2 130.8 23.7Q130.3 23.1 129.5 23.1ZM135.1 32.7L135.1 32.7Q135.1 32.4 135.3 32.1Q135.5 31.9 136.0 31.9Q136.4 31.9 136.7 32.1Q136.9 32.4 136.9 32.7L136.9 32.7Q136.9 33.1 136.7 33.3Q136.4 33.6 136.0 33.6Q135.5 33.6 135.3 33.3Q135.1 33.1 135.1 32.7ZM146.0 25.1L146.0 25.1Q146.0 25.9 145.6 26.6Q145.1 27.3 144.4 27.6L144.4 27.6Q145.3 28.0 145.8 28.7Q146.3 29.5 146.3 30.4L146.3 30.4Q146.3 31.9 145.3 32.8Q144.3 33.6 142.7 33.6L142.7 33.6Q141.0 33.6 140.0 32.8Q139.1 31.9 139.1 30.4L139.1 30.4Q139.1 29.5 139.6 28.7Q140.1 28.0 141.0 27.6L141.0 27.6Q140.2 27.2 139.8 26.6Q139.3 25.9 139.3 25.1L139.3 25.1Q139.3 23.6 140.2 22.8Q141.2 22.0 142.7 22.0L142.7 22.0Q144.2 22.0 145.1 22.8Q146.0 23.6 146.0 25.1ZM144.8 30.4L144.8 30.4Q144.8 29.4 144.2 28.8Q143.6 28.2 142.7 28.2Q141.7 28.2 141.1 28.8Q140.5 29.4 140.5 30.4Q140.5 31.4 141.1 31.9Q141.6 32.5 142.7 32.5L142.7 32.5Q143.7 32.5 144.3 31.9Q144.8 31.3 144.8 30.4ZM142.7 23.1L142.7 23.1Q141.8 23.1 141.3 23.7Q140.8 24.2 140.8 25.1L140.8 25.1Q140.8 26.0 141.3 26.5Q141.8 27.0 142.7 27.0Q143.5 27.0 144.1 26.5Q144.6 26.0 144.6 25.1Q144.6 24.2 144.0 23.7Q143.5 23.1 142.7 23.1ZM148.0 24.8L148.0 24.3Q148.0 23.3 148.6 22.6Q149.3 21.9 150.3 21.9L150.3 21.9Q151.4 21.9 152.0 22.6Q152.6 23.3 152.6 24.3L152.6 24.3L152.6 24.9Q152.6 25.9 152.0 26.6Q151.3 27.2 150.3 27.2L150.3 27.2Q149.3 27.2 148.6 26.6Q148.0 25.9 148.0 24.8L148.0 24.8ZM149.1 24.3L149.1 24.9Q149.1 25.5 149.4 25.9Q149.8 26.3 150.3 26.3L150.3 26.3Q150.9 26.3 151.2 25.9Q151.6 25.5 151.6 24.9L151.6 24.9L151.6 24.3Q151.6 23.7 151.2 23.3Q150.9 22.9 150.3 22.9Q149.7 22.9 149.4 23.3Q149.1 23.7 149.1 24.3L149.1 24.3ZM153.5 31.3L153.5 30.7Q153.5 29.7 154.2 29.0Q154.8 28.4 155.9 28.4Q156.9 28.4 157.5 29.0Q158.2 29.7 158.2 30.7L158.2 30.7L158.2 31.3Q158.2 32.3 157.5 33.0Q156.9 33.6 155.9 33.6Q154.9 33.6 154.2 33.0Q153.5 32.3 153.5 31.3L153.5 31.3ZM154.6 30.7L154.6 31.3Q154.6 31.9 154.9 32.3Q155.3 32.7 155.9 32.7L155.9 32.7Q156.4 32.7 156.8 32.3Q157.1 31.9 157.1 31.3L157.1 31.3L157.1 30.7Q157.1 30.1 156.8 29.7Q156.4 29.3 155.9 29.3L155.9 29.3Q155.3 29.3 154.9 29.7Q154.6 30.1 154.6 30.7L154.6 30.7ZM156.2 23.7L150.7 32.6L149.8 32.1L155.4 23.2L156.2 23.7Z "/><mask id="satori_om-id-1-1"><rect x="169" y="18" width="101" height="19" fill="#fff"/></mask><mask id="satori_om-id-1-1-0"><rect x="169" y="19" width="16" height="16" fill="#fff"/></mask><mask id="satori_om-id-1-1-0-0"><rect x="173" y="23" width="8" height="8" fill="#fff"/></mask><path x="173" y="23" width="8" height="8" fill="#00ADD8" d="M177,23 h0 a4,4 0 0 1 4,4 v0 a4,4 0 0 1 -4,4 h0 a4,4 0 0 1 -4,-4 v0 a4,4 0 0 1 4,-4"/><mask id="satori_om-id-1-1-1"><rect x="198" y="18" width="20" height="19" fill="#fff"/></mask><path fill="#fff" d="M208.0 27.5L208.0 32.0Q207.4 32.8 206.2 33.2Q205.1 33.6 203.7 33.6L203.7 33.6Q202.2 33.6 201.1 33.0Q200.0 32.4 199.4 31.1Q198.8 29.9 198.7 28.2L198.7 28.2L198.7 27.5Q198.7 25.8 199.3 24.5Q199.9 23.3 201.0 22.6Q202.0 22.0 203.5 22.0L203.5 22.0Q205.5 22.0 206.7 22.9Q207.8 23.9 208.0 25.7L208.0 25.7L205.7 25.7Q205.6 24.7 205.0 24.3Q204.5 23.8 203.6 23.8L203.6 23.8Q202.4 23.8 201.8 24.7Q201.1 25.6 201.1 27.4L201.1 27.4L201.1 28.1Q201.1 29.9 201.8 30.8Q202.5 31.8 203.8 31.8L203.8 31.8Q205.1 31.8 205.7 31.2L205.7 31.2L205.7 29.2L203.5 29.2L203.5 27.5L208.0 27.5ZM209.4 29.3L209.4 29.2Q209.4 27.9 209.9 26.9Q210.4 26.0 211.3 25.4Q212.2 24.9 213.4 24.9L213.4 24.9Q215.1 24.9 216.2 25.9Q217.3 27.0 217.4 28.8L217.4 28.8L217.4 29.3Q217.4 31.3 216.3 32.5Q215.3 33.6 213.4 33.6Q211.6 33.6 210.5 32.5Q209.4 31.3 209.4 29.3L209.4 29.3ZM211.7 29.3L211.7 29.3Q211.7 30.5 212.1 31.2Q212.6 31.8 213.4 31.8L213.4 31.8Q214.2 31.8 214.7 31.2Q215.2 30.6 215.2 29.2L215.2 29.2Q215.2 28.0 214.7 27.4Q214.2 26.7 213.4 26.7L213.4 26.7Q212.6 26.7 212.1 27.3Q211.7 28.0 211.7 29.3Z "/><mask id="satori_om-id-1-1-2"><rect x="227" y="18" width="43" height="19" fill="#fff"/></mask><path fill="#7d8590" d="M232.7 22.1L232.7 33.5L231.2 33.5L231.2 23.9L228.3 24.9L228.3 23.6L232.5 22.1L232.7 22.1ZM244.1 26.8L244.1 28.6Q244.1 31.2 243.2 32.4Q242.3 33.6 240.5 33.6L240.5 33.6Q238.7 33.6 237.8 32.4Q236.9 31.2 236.9 28.8L236.9 28.8L236.9 26.9Q236.9 24.4 237.8 23.2Q238.6 22.0 240.5 22.0L240.5 22.0Q242.3 22.0 243.2 23.1Q244.0 24.3 244.1 26.8L244.1 26.8ZM242.6 29.0L242.6 26.7Q242.6 24.8 242.1 24.0Q241.6 23.1 240.5 23.1L240.5 23.1Q239.4 23.1 238.9 24.0Q238.3 24.8 238.3 26.5L238.3 26.5L238.3 28.9Q238.3 30.7 238.9 31.6Q239.4 32.5 240.5 32.5L240.5 32.5Q241.6 32.5 242.1 31.6Q242.6 30.8 242.6 29.0L242.6 29.0ZM246.1 32.7L246.1 32.7Q246.1 32.4 246.3 32.1Q246.5 31.9 247.0 31.9Q247.4 31.9 247.7 32.1Q247.9 32.4 247.9 32.7L247.9 32.7Q247.9 33.1 247.7 33.3Q247.4 33.6 247.0 33.6Q246.5 33.6 246.3 33.3Q246.1 33.1 246.1 32.7ZM257.0 25.1L257.0 25.1Q257.0 25.9 256.6 26.6Q256.1 27.3 255.4 27.6L255.4 27.6Q256.3 28.0 256.8 28.7Q257.3 29.5 257.3 30.4L257.3 30.4Q257.3 31.9 256.3 32.8Q255.3 33.6 253.7 33.6L253.7 33.6Q252.0 33.6 251.0 32.8Q250.1 31.9 250.1 30.4L250.1 30.4Q250.1 29.5 250.6 28.7Q251.1 28.0 252.0 27.6L252.0 27.6Q251.2 27.2 250.8 26.6Q250.3 25.9 250.3 25.1L250.3 25.1Q250.3 23.6 251.2 22.8Q252.2 22.0 253.7 22.0L253.7 22.0Q255.2 22.0 256.1 22.8Q257.0 23.6 257.0 25.1ZM255.8 30.4L255.8 30.4Q255.8 29.4 255.2 28.8Q254.6 28.2 253.7 28.2Q252.7 28.2 252.1 28.8Q251.5 29.4 251.5 30.4Q251.5 31.4 252.1 31.9Q252.6 32.5 253.7 32.5L253.7 32.5Q254.7 32.5 255.3 31.9Q255.8 31.3 255.8 30.4ZM253.7 23.1L253.7 23.1Q252.8 23.1 252.3 23.7Q251.8 24.2 251.8 25.1L251.8 25.1Q251.8 26.0 252.3 26.5Q252.8 27.0 253.7 27.0Q254.5 27.0 255.1 26.5Q255.6 26.0 255.6 25.1Q255.6 24.2 255.0 23.7Q254.5 23.1 253.7 23.1ZM259.0 24.8L259.0 24.3Q259.0 23.3 259.6 22.6Q260.3 21.9 261.3 21.9L261.3 21.9Q262.4 21.9 263.0 22.6Q263.6 23.3 263.6 24.3L263.6 24.3L263.6 24.9Q263.6 25.9 263.0 26.6Q262.3 27.2 261.3 27.2L261.3 27.2Q260.3 27.2 259.6 26.6Q259.0 25.9 259.0 24.8L259.0 24.8ZM260.1 24.3L260.1 24.9Q260.1 25.5 260.4 25.9Q260.8 26.3 261.3 26.3L261.3 26.3Q261.9 26.3 262.2 25.9Q262.6 25.5 262.6 24.9L262.6 24.9L262.6 24.3Q262.6 23.7 262.2 23.3Q261.9 22.9 261.3 22.9Q260.7 22.9 260.4 23.3Q260.1 23.7 260.1 24.3L260.1 24.3ZM264.5 31.3L264.5 30.7Q264.5 29.7 265.2 29.0Q265.8 28.4 266.9 28.4Q267.9 28.4 268.5 29.0Q269.2 29.7 269.2 30.7L269.2 30.7L269.2 31.3Q269.2 32.3 268.5 33.0Q267.9 33.6 266.9 33.6Q265.9 33.6 265.2 33.0Q264.5 32.3 264.5 31.3L264.5 31.3ZM265.6 30.7L265.6 31.3Q265.6 31.9 265.9 32.3Q266.3 32.7 266.9 32.7L266.9 32.7Q267.4 32.7 267.8 32.3Q268.1 31.9 268.1 31.3L268.1 31.3L268.1 30.7Q268.1 30.1 267.8 29.7Q267.4 29.3 266.9 29.3L266.9 29.3Q266.3 29.3 265.9 29.7Q265.6 30.1 265.6 30.7L265.6 30.7ZM267.2 23.7L261.7 32.6L260.8 32.1L266.4 23.2L267.2 23.7Z "/><mask id="satori_om-id-1-2"><rect x="0" y="47" width="117" height="19" fill="#fff"/></mask><mask id="satori_om-id-1-2-0"><rect x="0" y="48" width="16" height="16" fill="#fff"/></mask><mask id="satori_om-id-1-2-0-0"><rect x="4" y="52" width="8" height="8" fill="#fff"/></mask><path x="4" y="52" width="8" height="8" fill="#ff3e00" d="M8,52 h0 a4,4 0 0 1 4,4 v0 a4,4 0 0 1 -4,4 h0 a4,4 0 0 1 -4,-4 v0 a4,4 0 0 1 4,-4"/><mask id="satori_om-id-1-2-1"><rect x="29" y="47" width="45" height="19" fill="#fff"/></mask><path fill="#fff" d="M35.9 59.5L35.9 59.5Q35.9 58.8 35.4 58.5Q35.0 58.1 33.8 57.7Q32.5 57.3 31.8 57.0L31.8 57.0Q29.9 55.9 29.9 54.1L29.9 54.1Q29.9 53.2 30.4 52.5Q30.9 51.8 31.9 51.4Q32.9 51.0 34.1 51.0L34.1 51.0Q35.3 51.0 36.3 51.4Q37.2 51.8 37.7 52.6Q38.3 53.4 38.3 54.5L38.3 54.5L35.9 54.5Q35.9 53.7 35.4 53.3Q34.9 52.8 34.0 52.8L34.0 52.8Q33.2 52.8 32.7 53.2Q32.2 53.5 32.2 54.1L32.2 54.1Q32.2 54.7 32.8 55.1Q33.4 55.4 34.4 55.8L34.4 55.8Q36.4 56.4 37.4 57.3Q38.3 58.2 38.3 59.5L38.3 59.5Q38.3 61.0 37.1 61.8Q36.0 62.6 34.1 62.6L34.1 62.6Q32.8 62.6 31.8 62.2Q30.7 61.7 30.1 60.8Q29.5 60.0 29.5 58.9L29.5 58.9L31.9 58.9Q31.9 60.8 34.1 60.8L34.1 60.8Q35.0 60.8 35.4 60.4Q35.9 60.1 35.9 59.5ZM41.3 54.0L42.9 59.7L44.4 54.0L46.8 54.0L43.9 62.5L41.8 62.5L38.9 54.0L41.3 54.0ZM51.6 62.6L51.6 62.6Q49.7 62.6 48.6 61.5Q47.4 60.4 47.4 58.5L47.4 58.5L47.4 58.2Q47.4 57.0 47.9 56.0Q48.4 55.0 49.3 54.4Q50.2 53.9 51.3 53.9L51.3 53.9Q53.1 53.9 54.1 55.0Q55.1 56.1 55.1 58.1L55.1 58.1L55.1 59.0L49.7 59.0Q49.8 59.8 50.3 60.3Q50.9 60.8 51.7 60.8L51.7 60.8Q53.0 60.8 53.8 59.9L53.8 59.9L54.9 61.1Q54.4 61.8 53.5 62.2Q52.6 62.6 51.6 62.6ZM51.3 55.7L51.3 55.7Q50.6 55.7 50.2 56.2Q49.8 56.6 49.7 57.5L49.7 57.5L52.8 57.5L52.8 57.3Q52.8 56.5 52.4 56.1Q52.0 55.7 51.3 55.7ZM58.7 50.5L58.7 62.5L56.5 62.5L56.5 50.5L58.7 50.5ZM61.0 52.0L63.3 52.0L63.3 54.0L64.7 54.0L64.7 55.7L63.3 55.7L63.3 59.9Q63.3 60.4 63.5 60.6Q63.6 60.8 64.1 60.8L64.1 60.8Q64.5 60.8 64.8 60.7L64.8 60.7L64.8 62.4Q64.1 62.6 63.4 62.6L63.4 62.6Q61.1 62.6 61.0 60.2L61.0 60.2L61.0 55.7L59.8 55.7L59.8 54.0L61.0 54.0L61.0 52.0ZM69.9 62.6L69.9 62.6Q68.0 62.6 66.8 61.5Q65.7 60.4 65.7 58.5L65.7 58.5L65.7 58.2Q65.7 57.0 66.2 56.0Q66.7 55.0 67.6 54.4Q68.5 53.9 69.6 53.9L69.6 53.9Q71.4 53.9 72.4 55.0Q73.4 56.1 73.4 58.1L73.4 58.1L73.4 59.0L68.0 59.0Q68.1 59.8 68.6 60.3Q69.2 60.8 70.0 60.8L70.0 60.8Q71.3 60.8 72.1 59.9L72.1 59.9L73.2 61.1Q72.7 61.8 71.8 62.2Q70.9 62.6 69.9 62.6ZM69.6 55.7L69.6 55.7Q68.9 55.7 68.5 56.2Q68.1 56.6 68.0 57.5L68.0 57.5L71.1 57.5L71.1 57.3Q71.1 56.5 70.7 56.1Q70.3 55.7 69.6 55.7Z "/><mask id="satori_om-id-1-2-2"><rect x="83" y="47" width="34" height="19" fill="#fff"/></mask><path fill="#7d8590" d="M90.8 54.1L90.8 54.1Q90.8 54.9 90.4 55.6Q89.9 56.3 89.2 56.6L89.2 56.6Q90.1 57.0 90.6 57.7Q91.1 58.5 91.1 59.4L91.1 59.4Q91.1 60.9 90.1 61.8Q89.1 62.6 87.5 62.6L87.5 62.6Q85.9 62.6 84.9 61.8Q83.9 60.9 83.9 59.4L83.9 59.4Q83.9 58.5 84.4 57.7Q84.9 57.0 85.8 56.6L85.8 56.6Q85.0 56.2 84.6 55.6Q84.1 54.9 84.1 54.1L84.1 54.1Q84.1 52.6 85.1 51.8Q86.0 51.0 87.5 51.0L87.5 51.0Q89.0 51.0 89.9 51.8Q90.8 52.6 90.8 54.1ZM89.7 59.4L89.7 59.4Q89.7 58.4 89.1 57.8Q88.5 57.2 87.5 57.2Q86.5 57.2 85.9 57.8Q85.3 58.4 85.3 59.4Q85.3 60.4 85.9 60.9Q86.5 61.5 87.5 61.5L87.5 61.5Q88.5 61.5 89.1 60.9Q89.7 60.3 89.7 59.4ZM87.5 52.1L87.5 52.1Q86.6 52.1 86.1 52.7Q85.6 53.2 85.6 54.1L85.6 54.1Q85.6 55.0 86.1 55.5Q86.6 56.0 87.5 56.0Q88.4 56.0 88.9 55.5Q89.4 55.0 89.4 54.1Q89.4 53.2 88.9 52.7Q88.3 52.1 87.5 52.1ZM93.1 61.7L93.1 61.7Q93.1 61.4 93.3 61.1Q93.6 60.9 94 60.9Q94.4 60.9 94.7 61.1Q94.9 61.4 94.9 61.7L94.9 61.7Q94.9 62.1 94.7 62.3Q94.4 62.6 94 62.6Q93.6 62.6 93.3 62.3Q93.1 62.1 93.1 61.7ZM99.0 57.1L97.8 56.8L98.4 51.1L104.2 51.1L104.2 52.4L99.6 52.4L99.3 55.5Q100.1 55.1 101.2 55.1L101.2 55.1Q102.7 55.1 103.6 56.1Q104.5 57.1 104.5 58.9L104.5 58.9Q104.5 60.6 103.6 61.6Q102.6 62.6 100.9 62.6L100.9 62.6Q99.4 62.6 98.5 61.8Q97.5 61.0 97.4 59.5L97.4 59.5L98.8 59.5Q98.9 60.5 99.5 61.0Q100.0 61.5 100.9 61.5L100.9 61.5Q102.0 61.5 102.5 60.8Q103.1 60.1 103.1 58.9L103.1 58.9Q103.1 57.7 102.5 57.0Q101.9 56.4 100.8 56.4L100.8 56.4Q99.9 56.4 99.3 56.8L99.3 56.8L99.0 57.1ZM106 53.8L106 53.3Q106 52.3 106.7 51.6Q107.3 50.9 108.3 50.9L108.3 50.9Q109.4 50.9 110.0 51.6Q110.7 52.3 110.7 53.3L110.7 53.3L110.7 53.9Q110.7 54.9 110.0 55.6Q109.4 56.2 108.3 56.2L108.3 56.2Q107.3 56.2 106.7 55.6Q106 54.9 106 53.8L106 53.8ZM107.1 53.3L107.1 53.9Q107.1 54.5 107.4 54.9Q107.8 55.3 108.3 55.3L108.3 55.3Q108.9 55.3 109.2 54.9Q109.6 54.5 109.6 53.9L109.6 53.9L109.6 53.3Q109.6 52.7 109.2 52.3Q108.9 51.9 108.3 51.9Q107.8 51.9 107.4 52.3Q107.1 52.7 107.1 53.3L107.1 53.3ZM111.5 60.3L111.5 59.7Q111.5 58.7 112.2 58.0Q112.8 57.4 113.9 57.4Q114.9 57.4 115.5 58.0Q116.2 58.7 116.2 59.7L116.2 59.7L116.2 60.3Q116.2 61.3 115.6 62.0Q114.9 62.6 113.9 62.6Q112.9 62.6 112.2 62.0Q111.5 61.3 111.5 60.3L111.5 60.3ZM112.6 59.7L112.6 60.3Q112.6 60.9 113.0 61.3Q113.3 61.7 113.9 61.7L113.9 61.7Q114.4 61.7 114.8 61.3Q115.1 60.9 115.1 60.3L115.1 60.3L115.1 59.7Q115.1 59.1 114.8 58.7Q114.4 58.3 113.9 58.3L113.9 58.3Q113.3 58.3 113.0 58.7Q112.6 59.1 112.6 59.7L112.6 59.7ZM114.2 52.7L108.7 61.6L107.9 61.1L113.4 52.2L114.2 52.7Z "/><mask id="satori_om-id-1-3"><rect x="127" y="47" width="149" height="19" fill="#fff"/></mask><mask id="satori_om-id-1-3-0"><rect x="127" y="48" width="16" height="16" fill="#fff"/></mask><mask id="satori_om-id-1-3-0-0"><rect x="131" y="52" width="8" height="8" fill="#fff"/></mask><path x="131" y="52" width="8" height="8" fill="#f1e05a" d="M135,52 h0 a4,4 0 0 1 4,4 v0 a4,4 0 0 1 -4,4 h0 a4,4 0 0 1 -4,-4 v0 a4,4 0 0 1 4,-4"/><mask id="satori_om-id-1-3-1"><rect x="156" y="47" width="77" height="19" fill="#fff"/></mask><path fill="#fff" d="M161.6 59.0L161.6 51.1L163.9 51.1L163.9 59.0Q163.9 60.1 163.5 60.9Q163.0 61.7 162.1 62.2Q161.2 62.6 160.1 62.6L160.1 62.6Q158.3 62.6 157.3 61.7Q156.3 60.8 156.3 59.1L156.3 59.1L158.7 59.1Q158.7 60.0 159.0 60.4Q159.4 60.8 160.1 60.8L160.1 60.8Q160.8 60.8 161.2 60.3Q161.6 59.8 161.6 59.0L161.6 59.0ZM173.0 62.5L170.7 62.5Q170.5 62.2 170.5 61.7L170.5 61.7Q169.7 62.6 168.3 62.6L168.3 62.6Q167.1 62.6 166.3 61.9Q165.5 61.2 165.5 60.1L165.5 60.1Q165.5 58.8 166.5 58.0Q167.5 57.3 169.3 57.3L169.3 57.3L170.4 57.3L170.4 56.8Q170.4 56.2 170.1 55.9Q169.8 55.5 169.1 55.5L169.1 55.5Q168.6 55.5 168.2 55.8Q167.9 56.1 167.9 56.6L167.9 56.6L165.7 56.6Q165.7 55.8 166.1 55.2Q166.6 54.6 167.4 54.2Q168.2 53.9 169.3 53.9L169.3 53.9Q170.8 53.9 171.7 54.7Q172.6 55.4 172.6 56.9L172.6 56.9L172.6 60.5Q172.7 61.7 173.0 62.4L173.0 62.4L173.0 62.5ZM168.8 60.9L168.8 60.9Q169.3 60.9 169.8 60.7Q170.2 60.5 170.4 60.1L170.4 60.1L170.4 58.6L169.5 58.6Q167.8 58.6 167.7 59.8L167.7 59.8L167.7 59.9Q167.7 60.4 168.0 60.6Q168.3 60.9 168.8 60.9ZM175.9 54.0L177.4 59.7L179 54.0L181.4 54.0L178.5 62.5L176.4 62.5L173.5 54.0L175.9 54.0ZM189.4 62.5L187.1 62.5Q187.0 62.2 186.9 61.7L186.9 61.7Q186.1 62.6 184.8 62.6L184.8 62.6Q183.5 62.6 182.7 61.9Q181.9 61.2 181.9 60.1L181.9 60.1Q181.9 58.8 182.9 58.0Q183.9 57.3 185.8 57.3L185.8 57.3L186.8 57.3L186.8 56.8Q186.8 56.2 186.5 55.9Q186.2 55.5 185.6 55.5L185.6 55.5Q185.0 55.5 184.7 55.8Q184.3 56.1 184.3 56.6L184.3 56.6L182.1 56.6Q182.1 55.8 182.5 55.2Q183.0 54.6 183.8 54.2Q184.6 53.9 185.7 53.9L185.7 53.9Q187.2 53.9 188.2 54.7Q189.1 55.4 189.1 56.9L189.1 56.9L189.1 60.5Q189.1 61.7 189.4 62.4L189.4 62.4L189.4 62.5ZM185.3 60.9L185.3 60.9Q185.8 60.9 186.2 60.7Q186.6 60.5 186.8 60.1L186.8 60.1L186.8 58.6L186.0 58.6Q184.3 58.6 184.2 59.8L184.2 59.8L184.2 59.9Q184.2 60.4 184.5 60.6Q184.8 60.9 185.3 60.9ZM196.9 59.5L196.9 59.5Q196.9 58.8 196.4 58.5Q195.9 58.1 194.7 57.7Q193.5 57.3 192.8 57.0L192.8 57.0Q190.8 55.9 190.8 54.1L190.8 54.1Q190.8 53.2 191.4 52.5Q191.9 51.8 192.8 51.4Q193.8 51.0 195.0 51.0L195.0 51.0Q196.3 51.0 197.2 51.4Q198.2 51.8 198.7 52.6Q199.2 53.4 199.2 54.5L199.2 54.5L196.9 54.5Q196.9 53.7 196.4 53.3Q195.9 52.8 195.0 52.8L195.0 52.8Q194.1 52.8 193.7 53.2Q193.2 53.5 193.2 54.1L193.2 54.1Q193.2 54.7 193.7 55.1Q194.3 55.4 195.4 55.8L195.4 55.8Q197.4 56.4 198.3 57.3Q199.2 58.2 199.2 59.5L199.2 59.5Q199.2 61.0 198.1 61.8Q197.0 62.6 195.1 62.6L195.1 62.6Q193.8 62.6 192.7 62.2Q191.6 61.7 191.1 60.8Q190.5 60.0 190.5 58.9L190.5 58.9L192.8 58.9Q192.8 60.8 195.1 60.8L195.1 60.8Q195.9 60.8 196.4 60.4Q196.9 60.1 196.9 59.5ZM204.2 60.8L204.2 60.8Q204.8 60.8 205.2 60.5Q205.6 60.1 205.6 59.6L205.6 59.6L207.7 59.6Q207.7 60.4 207.2 61.1Q206.8 61.9 206.0 62.2Q205.2 62.6 204.2 62.6L204.2 62.6Q202.4 62.6 201.3 61.5Q200.3 60.3 200.3 58.3L200.3 58.3L200.3 58.2Q200.3 56.2 201.3 55.0Q202.4 53.9 204.2 53.9L204.2 53.9Q205.8 53.9 206.7 54.8Q207.7 55.7 207.7 57.2L207.7 57.2L205.6 57.2Q205.6 56.5 205.2 56.1Q204.8 55.7 204.1 55.7L204.1 55.7Q203.4 55.7 203.0 56.3Q202.6 56.9 202.6 58.1L202.6 58.1L202.6 58.4Q202.6 59.7 203.0 60.2Q203.4 60.8 204.2 60.8ZM213.8 54.0L213.7 56.1Q213.3 56.1 212.9 56.1L212.9 56.1Q211.6 56.1 211.3 57.0L211.3 57.0L211.3 62.5L209.0 62.5L209.0 54.0L211.1 54.0L211.2 55.0Q211.9 53.9 213.1 53.9L213.1 53.9Q213.4 53.9 213.8 54.0L213.8 54.0ZM217.2 54.0L217.2 62.5L214.9 62.5L214.9 54.0L217.2 54.0ZM214.8 51.8L214.8 51.8Q214.8 51.3 215.2 51.0Q215.5 50.7 216.1 50.7L216.1 50.7Q216.7 50.7 217 51.0Q217.3 51.3 217.3 51.8L217.3 51.8Q217.3 52.4 217.0 52.7Q216.6 53.0 216.1 53.0Q215.5 53.0 215.2 52.7Q214.8 52.4 214.8 51.8ZM226.7 58.2L226.7 58.3Q226.7 60.3 225.8 61.5Q224.9 62.6 223.4 62.6L223.4 62.6Q222.1 62.6 221.3 61.7L221.3 61.7L221.3 65.7L219.1 65.7L219.1 54.0L221.2 54.0L221.2 54.9Q222.1 53.9 223.4 53.9L223.4 53.9Q224.9 53.9 225.8 55.0Q226.7 56.2 226.7 58.2L226.7 58.2ZM224.4 58.2L224.4 58.2Q224.4 57.0 224.0 56.4Q223.6 55.7 222.8 55.7L222.8 55.7Q221.7 55.7 221.3 56.5L221.3 56.5L221.3 60.0Q221.7 60.8 222.8 60.8L222.8 60.8Q224.4 60.8 224.4 58.2ZM228.5 52.0L230.8 52.0L230.8 54.0L232.2 54.0L232.2 55.7L230.8 55.7L230.8 59.9Q230.8 60.4 231.0 60.6Q231.1 60.8 231.6 60.8L231.6 60.8Q232.0 60.8 232.3 60.7L232.3 60.7L232.3 62.4Q231.6 62.6 230.9 62.6L230.9 62.6Q228.6 62.6 228.5 60.2L228.5 60.2L228.5 55.7L227.3 55.7L227.3 54.0L228.5 54.0L228.5 52.0Z "/><mask id="satori_om-id-1-3-2"><rect x="242" y="47" width="34" height="19" fill="#fff"/></mask><path fill="#7d8590" d="M248.4 51.1L248.6 51.1L248.6 52.3L248.4 52.3Q246.7 52.4 245.7 53.3Q244.7 54.3 244.5 56.1L244.5 56.1Q245.4 55.0 247.0 55.0L247.0 55.0Q248.4 55.0 249.3 56.1Q250.2 57.1 250.2 58.8L250.2 58.8Q250.2 60.5 249.3 61.6Q248.3 62.6 246.7 62.6L246.7 62.6Q245.1 62.6 244.0 61.4Q243.0 60.1 243.0 58.2L243.0 58.2L243.0 57.6Q243.0 54.5 244.4 52.8Q245.7 51.1 248.4 51.1L248.4 51.1ZM246.7 56.2L246.7 56.2Q246.0 56.2 245.4 56.7Q244.7 57.1 244.5 57.8L244.5 57.8L244.5 58.3Q244.5 59.7 245.1 60.6Q245.8 61.4 246.7 61.4L246.7 61.4Q247.7 61.4 248.2 60.7Q248.8 60.0 248.8 58.8L248.8 58.8Q248.8 57.7 248.2 56.9Q247.7 56.2 246.7 56.2ZM252.1 61.7L252.1 61.7Q252.1 61.4 252.3 61.1Q252.6 60.9 253 60.9Q253.4 60.9 253.7 61.1Q253.9 61.4 253.9 61.7L253.9 61.7Q253.9 62.1 253.7 62.3Q253.4 62.6 253 62.6Q252.6 62.6 252.3 62.3Q252.1 62.1 252.1 61.7ZM261.7 57.5L261.7 57.5Q261.2 58.0 260.6 58.4Q260.0 58.7 259.2 58.7L259.2 58.7Q258.2 58.7 257.5 58.2Q256.8 57.7 256.4 56.8Q256.0 56.0 256.0 54.9L256.0 54.9Q256.0 53.7 256.4 52.8Q256.8 51.9 257.6 51.4Q258.4 51.0 259.5 51.0L259.5 51.0Q261.2 51.0 262.2 52.2Q263.1 53.5 263.1 55.7L263.1 55.7L263.1 56.1Q263.1 59.4 261.8 60.9Q260.5 62.5 257.9 62.5L257.9 62.5L257.6 62.5L257.6 61.3L257.9 61.3Q259.7 61.2 260.6 60.3Q261.6 59.4 261.7 57.5ZM259.5 57.5L259.5 57.5Q260.2 57.5 260.8 57.0Q261.4 56.6 261.7 55.9L261.7 55.9L261.7 55.4Q261.7 53.9 261.1 53.0Q260.5 52.2 259.5 52.2L259.5 52.2Q258.6 52.2 258.0 52.9Q257.4 53.6 257.4 54.8L257.4 54.8Q257.4 56.0 258.0 56.7Q258.5 57.5 259.5 57.5ZM265 53.8L265 53.3Q265 52.3 265.7 51.6Q266.3 50.9 267.3 50.9L267.3 50.9Q268.4 50.9 269.0 51.6Q269.7 52.3 269.7 53.3L269.7 53.3L269.7 53.9Q269.7 54.9 269.0 55.6Q268.4 56.2 267.3 56.2L267.3 56.2Q266.3 56.2 265.7 55.6Q265 54.9 265 53.8L265 53.8ZM266.1 53.3L266.1 53.9Q266.1 54.5 266.4 54.9Q266.8 55.3 267.3 55.3L267.3 55.3Q267.9 55.3 268.2 54.9Q268.6 54.5 268.6 53.9L268.6 53.9L268.6 53.3Q268.6 52.7 268.2 52.3Q267.9 51.9 267.3 51.9Q266.8 51.9 266.4 52.3Q266.1 52.7 266.1 53.3L266.1 53.3ZM270.5 60.3L270.5 59.7Q270.5 58.7 271.2 58.0Q271.8 57.4 272.9 57.4Q273.9 57.4 274.5 58.0Q275.2 58.7 275.2 59.7L275.2 59.7L275.2 60.3Q275.2 61.3 274.6 62.0Q273.9 62.6 272.9 62.6Q271.9 62.6 271.2 62.0Q270.5 61.3 270.5 60.3L270.5 60.3ZM271.6 59.7L271.6 60.3Q271.6 60.9 272.0 61.3Q272.3 61.7 272.9 61.7L272.9 61.7Q273.4 61.7 273.8 61.3Q274.1 60.9 274.1 60.3L274.1 60.3L274.1 59.7Q274.1 59.1 273.8 58.7Q273.4 58.3 272.9 58.3L272.9 58.3Q272.3 58.3 272.0 58.7Q271.6 59.1 271.6 59.7L271.6 59.7ZM273.2 52.7L267.7 61.6L266.9 61.1L272.4 52.2L273.2 52.7Z "/><mask id="satori_om-id-1-4"><rect x="0" y="76" width="82" height="18" fill="#fff"/></mask><mask id="satori_om-id-1-4-0"><rect x="0" y="77" width="16" height="16" fill="#fff"/></mask><mask id="satori_om-id-1-4-0-0"><rect x="4" y="81" width="8" height="8" fill="#fff"/></mask><path x="4" y="81" width="8" height="8" fill="#555555" d="M8,81 h0 a4,4 0 0 1 4,4 v0 a4,4 0 0 1 -4,4 h0 a4,4 0 0 1 -4,-4 v0 a4,4 0 0 1 4,-4"/><mask id="satori_om-id-1-4-1"><rect x="29" y="76" width="10" height="18" fill="#fff"/></mask><path fill="#fff" d="M36.6 87.7L38.9 87.7Q38.8 89.5 37.6 90.6Q36.4 91.6 34.4 91.6L34.4 91.6Q32.2 91.6 30.9 90.2Q29.7 88.7 29.7 86.1L29.7 86.1L29.7 85.4Q29.7 83.8 30.3 82.5Q30.8 81.3 31.9 80.6Q33.0 80.0 34.4 80.0L34.4 80.0Q36.4 80.0 37.6 81.0Q38.8 82.1 39.0 84.0L39.0 84.0L36.6 84.0Q36.5 82.9 36.0 82.4Q35.5 81.9 34.4 81.9L34.4 81.9Q33.2 81.9 32.6 82.7Q32.1 83.6 32.0 85.3L32.0 85.3L32.0 86.2Q32.0 88.0 32.6 88.9Q33.2 89.7 34.4 89.7L34.4 89.7Q35.5 89.7 36.0 89.2Q36.5 88.7 36.6 87.7L36.6 87.7Z "/><mask id="satori_om-id-1-4-2"><rect x="48" y="76" width="34" height="18" fill="#fff"/></mask><path fill="#7d8590" d="M54.4 80.1L54.6 80.1L54.6 81.3L54.4 81.3Q52.7 81.4 51.7 82.3Q50.7 83.3 50.5 85.1L50.5 85.1Q51.4 84.0 53.0 84.0L53.0 84.0Q54.4 84.0 55.3 85.1Q56.2 86.1 56.2 87.8L56.2 87.8Q56.2 89.5 55.3 90.6Q54.3 91.6 52.7 91.6L52.7 91.6Q51.1 91.6 50.0 90.4Q49.0 89.1 49.0 87.2L49.0 87.2L49.0 86.6Q49.0 83.5 50.4 81.8Q51.7 80.1 54.4 80.1L54.4 80.1ZM52.7 85.2L52.7 85.2Q52.0 85.2 51.4 85.7Q50.7 86.1 50.5 86.8L50.5 86.8L50.5 87.3Q50.5 88.7 51.1 89.6Q51.8 90.4 52.7 90.4L52.7 90.4Q53.7 90.4 54.2 89.7Q54.8 89.0 54.8 87.8L54.8 87.8Q54.8 86.7 54.2 85.9Q53.7 85.2 52.7 85.2ZM58.1 90.7L58.1 90.7Q58.1 90.4 58.3 90.1Q58.6 89.9 59 89.9Q59.4 89.9 59.7 90.1Q59.9 90.4 59.9 90.7L59.9 90.7Q59.9 91.1 59.7 91.3Q59.4 91.6 59 91.6Q58.6 91.6 58.3 91.3Q58.1 91.1 58.1 90.7ZM69.3 84.8L69.3 86.6Q69.3 89.2 68.4 90.4Q67.5 91.6 65.7 91.6L65.7 91.6Q63.9 91.6 63 90.4Q62.1 89.2 62.1 86.8L62.1 86.8L62.1 84.9Q62.1 82.4 63.0 81.2Q63.8 80.0 65.7 80.0L65.7 80.0Q67.5 80.0 68.4 81.1Q69.3 82.3 69.3 84.8L69.3 84.8ZM67.8 87.0L67.8 84.7Q67.8 82.8 67.3 82.0Q66.8 81.1 65.7 81.1L65.7 81.1Q64.6 81.1 64.1 82.0Q63.6 82.8 63.5 84.5L63.5 84.5L63.5 86.9Q63.5 88.7 64.1 89.6Q64.6 90.5 65.7 90.5L65.7 90.5Q66.8 90.5 67.3 89.6Q67.8 88.8 67.8 87.0L67.8 87.0ZM71 82.8L71 82.3Q71 81.3 71.7 80.6Q72.3 79.9 73.3 79.9L73.3 79.9Q74.4 79.9 75.0 80.6Q75.7 81.3 75.7 82.3L75.7 82.3L75.7 82.9Q75.7 83.9 75.0 84.6Q74.4 85.2 73.3 85.2L73.3 85.2Q72.3 85.2 71.7 84.6Q71 83.9 71 82.8L71 82.8ZM72.1 82.3L72.1 82.9Q72.1 83.5 72.4 83.9Q72.8 84.3 73.3 84.3L73.3 84.3Q73.9 84.3 74.2 83.9Q74.6 83.5 74.6 82.9L74.6 82.9L74.6 82.3Q74.6 81.7 74.2 81.3Q73.9 80.9 73.3 80.9Q72.8 80.9 72.4 81.3Q72.1 81.7 72.1 82.3L72.1 82.3ZM76.5 89.3L76.5 88.7Q76.5 87.7 77.2 87.0Q77.8 86.4 78.9 86.4Q79.9 86.4 80.5 87.0Q81.2 87.7 81.2 88.7L81.2 88.7L81.2 89.3Q81.2 90.3 80.6 91.0Q79.9 91.6 78.9 91.6Q77.9 91.6 77.2 91.0Q76.5 90.3 76.5 89.3L76.5 89.3ZM77.6 88.7L77.6 89.3Q77.6 89.9 78.0 90.3Q78.3 90.7 78.9 90.7L78.9 90.7Q79.4 90.7 79.8 90.3Q80.1 89.9 80.1 89.3L80.1 89.3L80.1 88.7Q80.1 88.1 79.8 87.7Q79.4 87.3 78.9 87.3L78.9 87.3Q78.3 87.3 78.0 87.7Q77.6 88.1 77.6 88.7L77.6 88.7ZM79.2 81.7L73.7 90.6L72.9 90.1L78.4 81.2L79.2 81.7Z "/><mask id="satori_om-id-1-5"><rect x="92" y="76" width="112" height="18" fill="#fff"/></mask><mask id="satori_om-id-1-5-0"><rect x="92" y="77" width="16" height="16" fill="#fff"/></mask><mask id="satori_om-id-1-5-0-0"><rect x="96" y="81" width="8" height="8" fill="#fff"/></mask><path x="96" y="81" width="8" height="8" fill="#ff5a03" d="M100,81 h0 a4,4 0 0 1 4,4 v0 a4,4 0 0 1 -4,4 h0 a4,4 0 0 1 -4,-4 v0 a4,4 0 0 1 4,-4"/><mask id="satori_om-id-1-5-1"><rect x="121" y="76" width="40" height="18" fill="#fff"/></mask><path fill="#fff" d="M129.2 91.5L128.4 89.1L124.3 89.1L123.5 91.5L121.1 91.5L125.3 80.1L127.5 80.1L131.7 91.5L129.2 91.5ZM126.4 83.0L125.0 87.2L127.8 87.2L126.4 83.0ZM137.2 89.1L137.2 89.1Q137.2 88.7 136.8 88.5Q136.4 88.3 135.5 88.1L135.5 88.1Q132.5 87.4 132.5 85.5L132.5 85.5Q132.5 84.4 133.4 83.6Q134.3 82.9 135.8 82.9L135.8 82.9Q137.5 82.9 138.4 83.6Q139.4 84.4 139.4 85.6L139.4 85.6L137.1 85.6Q137.1 85.1 136.8 84.8Q136.5 84.5 135.8 84.5L135.8 84.5Q135.3 84.5 135.0 84.7Q134.6 85.0 134.6 85.4L134.6 85.4Q134.6 85.8 135.0 86.0Q135.4 86.2 136.2 86.4Q137.0 86.6 137.6 86.8L137.6 86.8Q139.4 87.4 139.4 89.1L139.4 89.1Q139.4 90.2 138.4 90.9Q137.4 91.6 135.9 91.6L135.9 91.6Q134.8 91.6 134.0 91.3Q133.1 90.9 132.7 90.2Q132.2 89.6 132.2 88.8L132.2 88.8L134.3 88.8Q134.4 89.4 134.8 89.7Q135.2 90.0 135.9 90.0L135.9 90.0Q136.5 90.0 136.9 89.8Q137.2 89.5 137.2 89.1ZM141.3 81.0L143.6 81.0L143.6 83.0L145.0 83.0L145.0 84.7L143.6 84.7L143.6 88.9Q143.6 89.4 143.7 89.6Q143.9 89.8 144.4 89.8L144.4 89.8Q144.8 89.8 145.1 89.7L145.1 89.7L145.1 91.4Q144.4 91.6 143.7 91.6L143.7 91.6Q141.4 91.6 141.3 89.2L141.3 89.2L141.3 84.7L140.1 84.7L140.1 83.0L141.3 83.0L141.3 81.0ZM151.0 83.0L151.0 85.1Q150.6 85.1 150.2 85.1L150.2 85.1Q148.9 85.1 148.5 86.0L148.5 86.0L148.5 91.5L146.3 91.5L146.3 83.0L148.4 83.0L148.5 84.0Q149.1 82.9 150.3 82.9L150.3 82.9Q150.7 82.9 151.0 83.0L151.0 83.0ZM151.5 87.3L151.5 87.2Q151.5 85.9 152.0 84.9Q152.4 84.0 153.3 83.4Q154.3 82.9 155.5 82.9L155.5 82.9Q157.2 82.9 158.3 83.9Q159.3 85.0 159.5 86.8L159.5 86.8L159.5 87.3Q159.5 89.3 158.4 90.5Q157.3 91.6 155.5 91.6Q153.6 91.6 152.6 90.5Q151.5 89.3 151.5 87.3L151.5 87.3ZM153.7 87.3L153.7 87.3Q153.7 88.5 154.2 89.2Q154.6 89.8 155.5 89.8L155.5 89.8Q156.3 89.8 156.8 89.2Q157.2 88.6 157.2 87.2L157.2 87.2Q157.2 86.0 156.8 85.4Q156.3 84.7 155.5 84.7L155.5 84.7Q154.6 84.7 154.2 85.3Q153.7 86.0 153.7 87.3Z "/><mask id="satori_om-id-1-5-2"><rect x="169" y="76" width="34" height="18" fill="#fff"/></mask><path fill="#7d8590" d="M176.0 80.1L176.0 87.7L177.6 87.7L177.6 88.8L176.0 88.8L176.0 91.5L174.6 91.5L174.6 88.8L169.4 88.8L169.4 88.0L174.5 80.1L176.0 80.1ZM174.4 82.4L171.1 87.7L174.6 87.7L174.6 82.1L174.4 82.4ZM179.1 90.7L179.1 90.7Q179.1 90.4 179.3 90.1Q179.6 89.9 180 89.9Q180.4 89.9 180.7 90.1Q180.9 90.4 180.9 90.7L180.9 90.7Q180.9 91.1 180.7 91.3Q180.4 91.6 180 91.6Q179.6 91.6 179.3 91.3Q179.1 91.1 179.1 90.7ZM190.5 80.1L190.5 80.9L185.8 91.5L184.3 91.5L189.0 81.3L182.8 81.3L182.8 80.1L190.5 80.1ZM192 82.8L192 82.3Q192 81.3 192.7 80.6Q193.3 79.9 194.3 79.9L194.3 79.9Q195.4 79.9 196.0 80.6Q196.7 81.3 196.7 82.3L196.7 82.3L196.7 82.9Q196.7 83.9 196.0 84.6Q195.4 85.2 194.3 85.2L194.3 85.2Q193.3 85.2 192.7 84.6Q192 83.9 192 82.8L192 82.8ZM193.1 82.3L193.1 82.9Q193.1 83.5 193.4 83.9Q193.8 84.3 194.3 84.3L194.3 84.3Q194.9 84.3 195.2 83.9Q195.6 83.5 195.6 82.9L195.6 82.9L195.6 82.3Q195.6 81.7 195.2 81.3Q194.9 80.9 194.3 80.9Q193.8 80.9 193.4 81.3Q193.1 81.7 193.1 82.3L193.1 82.3ZM197.5 89.3L197.5 88.7Q197.5 87.7 198.2 87.0Q198.8 86.4 199.9 86.4Q200.9 86.4 201.5 87.0Q202.2 87.7 202.2 88.7L202.2 88.7L202.2 89.3Q202.2 90.3 201.6 91.0Q200.9 91.6 199.9 91.6Q198.9 91.6 198.2 91.0Q197.5 90.3 197.5 89.3L197.5 89.3ZM198.6 88.7L198.6 89.3Q198.6 89.9 199.0 90.3Q199.3 90.7 199.9 90.7L199.9 90.7Q200.4 90.7 200.8 90.3Q201.1 89.9 201.1 89.3L201.1 89.3L201.1 88.7Q201.1 88.1 200.8 87.7Q200.4 87.3 199.9 87.3L199.9 87.3Q199.3 87.3 199.0 87.7Q198.6 88.1 198.6 88.7L198.6 88.7ZM200.2 81.7L194.7 90.6L193.9 90.1L199.4 81.2L200.2 81.7Z "/><mask id="satori_om-id-1-6"><rect x="0" y="104" width="102" height="19" fill="#fff"/></mask><mask id="satori_om-id-1-6-0"><rect x="0" y="105" width="16" height="16" fill="#fff"/></mask><mask id="satori_om-id-1-6-0-0"><rect x="4" y="109" width="8" height="8" fill="#fff"/></mask><path x="4" y="109" width="8" height="8" fill="#563d7c" d="M8,109 h0 a4,4 0 0 1 4,4 v0 a4,4 0 0 1 -4,4 h0 a4,4 0 0 1 -4,-4 v0 a4,4 0 0 1 4,-4"/><mask id="satori_om-id-1-6-1"><rect x="29" y="104" width="30" height="19" fill="#fff"/></mask><path fill="#fff" d="M36.6 115.7L38.9 115.7Q38.8 117.5 37.6 118.6Q36.4 119.6 34.4 119.6L34.4 119.6Q32.2 119.6 30.9 118.2Q29.7 116.7 29.7 114.1L29.7 114.1L29.7 113.4Q29.7 111.8 30.3 110.5Q30.8 109.3 31.9 108.6Q33.0 108.0 34.4 108.0L34.4 108.0Q36.4 108.0 37.6 109.0Q38.8 110.1 39.0 112.0L39.0 112.0L36.6 112.0Q36.5 110.9 36.0 110.4Q35.5 109.9 34.4 109.9L34.4 109.9Q33.2 109.9 32.6 110.7Q32.1 111.6 32.0 113.3L32.0 113.3L32.0 114.2Q32.0 116.0 32.6 116.9Q33.2 117.7 34.4 117.7L34.4 117.7Q35.5 117.7 36.0 117.2Q36.5 116.7 36.6 115.7L36.6 115.7ZM46.4 116.5L46.4 116.5Q46.4 115.8 45.9 115.5Q45.4 115.1 44.2 114.7Q43.0 114.3 42.3 114.0L42.3 114.0Q40.4 112.9 40.4 111.1L40.4 111.1Q40.4 110.2 40.9 109.5Q41.4 108.8 42.4 108.4Q43.3 108.0 44.6 108.0L44.6 108.0Q45.8 108.0 46.7 108.4Q47.7 108.8 48.2 109.6Q48.7 110.4 48.7 111.5L48.7 111.5L46.4 111.5Q46.4 110.7 45.9 110.3Q45.4 109.8 44.5 109.8L44.5 109.8Q43.7 109.8 43.2 110.2Q42.7 110.5 42.7 111.1L42.7 111.1Q42.7 111.7 43.3 112.1Q43.8 112.4 44.9 112.8L44.9 112.8Q46.9 113.4 47.8 114.3Q48.7 115.2 48.7 116.5L48.7 116.5Q48.7 118.0 47.6 118.8Q46.5 119.6 44.6 119.6L44.6 119.6Q43.3 119.6 42.2 119.2Q41.1 118.7 40.6 117.8Q40.0 117.0 40.0 115.9L40.0 115.9L42.4 115.9Q42.4 117.8 44.6 117.8L44.6 117.8Q45.4 117.8 45.9 117.4Q46.4 117.1 46.4 116.5ZM56.2 116.5L56.2 116.5Q56.2 115.8 55.8 115.5Q55.3 115.1 54.1 114.7Q52.8 114.3 52.1 114.0L52.1 114.0Q50.2 112.9 50.2 111.1L50.2 111.1Q50.2 110.2 50.7 109.5Q51.2 108.8 52.2 108.4Q53.2 108.0 54.4 108.0L54.4 108.0Q55.6 108.0 56.6 108.4Q57.5 108.8 58.0 109.6Q58.6 110.4 58.6 111.5L58.6 111.5L56.2 111.5Q56.2 110.7 55.7 110.3Q55.2 109.8 54.4 109.8L54.4 109.8Q53.5 109.8 53.0 110.2Q52.5 110.5 52.5 111.1L52.5 111.1Q52.5 111.7 53.1 112.1Q53.7 112.4 54.7 112.8L54.7 112.8Q56.7 113.4 57.7 114.3Q58.6 115.2 58.6 116.5L58.6 116.5Q58.6 118.0 57.5 118.8Q56.3 119.6 54.4 119.6L54.4 119.6Q53.1 119.6 52.1 119.2Q51.0 118.7 50.4 117.8Q49.8 117.0 49.8 115.9L49.8 115.9L52.2 115.9Q52.2 117.8 54.4 117.8L54.4 117.8Q55.3 117.8 55.8 117.4Q56.2 117.1 56.2 116.5Z "/><mask id="satori_om-id-1-6-2"><rect x="68" y="104" width="34" height="19" fill="#fff"/></mask><path fill="#7d8590" d="M73.7 108.1L73.7 119.5L72.2 119.5L72.2 109.9L69.3 110.9L69.3 109.6L73.5 108.1L73.7 108.1ZM78.1 118.7L78.1 118.7Q78.1 118.4 78.3 118.1Q78.6 117.9 79 117.9Q79.4 117.9 79.7 118.1Q79.9 118.4 79.9 118.7L79.9 118.7Q79.9 119.1 79.7 119.3Q79.4 119.6 79 119.6Q78.6 119.6 78.3 119.3Q78.1 119.1 78.1 118.7ZM89.0 111.1L89.0 111.1Q89.0 111.9 88.6 112.6Q88.1 113.3 87.4 113.6L87.4 113.6Q88.3 114.0 88.8 114.7Q89.3 115.5 89.3 116.4L89.3 116.4Q89.3 117.9 88.3 118.8Q87.3 119.6 85.7 119.6L85.7 119.6Q84.0 119.6 83.1 118.8Q82.1 117.9 82.1 116.4L82.1 116.4Q82.1 115.5 82.6 114.7Q83.1 114.0 84.0 113.6L84.0 113.6Q83.2 113.2 82.8 112.6Q82.3 111.9 82.3 111.1L82.3 111.1Q82.3 109.6 83.3 108.8Q84.2 108.0 85.7 108.0L85.7 108.0Q87.2 108.0 88.1 108.8Q89.0 109.6 89.0 111.1ZM87.9 116.4L87.9 116.4Q87.9 115.4 87.3 114.8Q86.6 114.2 85.7 114.2Q84.7 114.2 84.1 114.8Q83.5 115.4 83.5 116.4Q83.5 117.4 84.1 117.9Q84.7 118.5 85.7 118.5L85.7 118.5Q86.7 118.5 87.3 117.9Q87.9 117.3 87.9 116.4ZM85.7 109.1L85.7 109.1Q84.8 109.1 84.3 109.7Q83.8 110.2 83.8 111.1L83.8 111.1Q83.8 112.0 84.3 112.5Q84.8 113.0 85.7 113.0Q86.6 113.0 87.1 112.5Q87.6 112.0 87.6 111.1Q87.6 110.2 87.1 109.7Q86.5 109.1 85.7 109.1ZM91 110.8L91 110.3Q91 109.3 91.7 108.6Q92.3 107.9 93.3 107.9L93.3 107.9Q94.4 107.9 95.0 108.6Q95.7 109.3 95.7 110.3L95.7 110.3L95.7 110.9Q95.7 111.9 95.0 112.6Q94.4 113.2 93.3 113.2L93.3 113.2Q92.3 113.2 91.7 112.6Q91 111.9 91 110.8L91 110.8ZM92.1 110.3L92.1 110.9Q92.1 111.5 92.4 111.9Q92.8 112.3 93.3 112.3L93.3 112.3Q93.9 112.3 94.2 111.9Q94.6 111.5 94.6 110.9L94.6 110.9L94.6 110.3Q94.6 109.7 94.2 109.3Q93.9 108.9 93.3 108.9Q92.8 108.9 92.4 109.3Q92.1 109.7 92.1 110.3L92.1 110.3ZM96.5 117.3L96.5 116.7Q96.5 115.7 97.2 115.0Q97.8 114.4 98.9 114.4Q99.9 114.4 100.5 115.0Q101.2 115.7 101.2 116.7L101.2 116.7L101.2 117.3Q101.2 118.3 100.6 119.0Q99.9 119.6 98.9 119.6Q97.9 119.6 97.2 119.0Q96.5 118.3 96.5 117.3L96.5 117.3ZM97.6 116.7L97.6 117.3Q97.6 117.9 98.0 118.3Q98.3 118.7 98.9 118.7L98.9 118.7Q99.4 118.7 99.8 118.3Q100.1 117.9 100.1 117.3L100.1 117.3L100.1 116.7Q100.1 116.1 99.8 115.7Q99.4 115.3 98.9 115.3L98.9 115.3Q98.3 115.3 98.0 115.7Q97.6 116.1 97.6 116.7L97.6 116.7ZM99.2 109.7L93.7 118.6L92.9 118.1L98.4 109.2L99.2 109.7Z "/><mask id="satori_om-id-1-7"><rect x="112" y="104" width="102" height="19" fill="#fff"/></mask><mask id="satori_om-id-1-7-0"><rect x="112" y="105" width="16" height="16" fill="#fff"/></mask><mask id="satori_om-id-1-7-0-0"><rect x="116" y="109" width="8" height="8" fill="#fff"/></mask><path x="116" y="109" width="8" height="8" fill="#844FBA" d="M120,109 h0 a4,4 0 0 1 4,4 v0 a4,4 0 0 1 -4,4 h0 a4,4 0 0 1 -4,-4 v0 a4,4 0 0 1 4,-4"/><mask id="satori_om-id-1-7-1"><rect x="141" y="104" width="30" height="19" fill="#fff"/></mask><path fill="#fff" d="M151.3 108.1L151.3 119.5L148.9 119.5L148.9 114.6L144.4 114.6L144.4 119.5L142.0 119.5L142.0 108.1L144.4 108.1L144.4 112.7L148.9 112.7L148.9 108.1L151.3 108.1ZM159.9 115.7L162.3 115.7Q162.1 117.5 160.9 118.6Q159.7 119.6 157.7 119.6L157.7 119.6Q155.5 119.6 154.2 118.2Q153.0 116.7 153.0 114.1L153.0 114.1L153.0 113.4Q153.0 111.8 153.6 110.5Q154.1 109.3 155.2 108.6Q156.3 108.0 157.7 108.0L157.7 108.0Q159.7 108.0 160.9 109.0Q162.1 110.1 162.3 112.0L162.3 112.0L159.9 112.0Q159.8 110.9 159.3 110.4Q158.8 109.9 157.7 109.9L157.7 109.9Q156.5 109.9 155.9 110.7Q155.4 111.6 155.4 113.3L155.4 113.3L155.4 114.2Q155.4 116.0 155.9 116.9Q156.5 117.7 157.7 117.7L157.7 117.7Q158.8 117.7 159.3 117.2Q159.8 116.7 159.9 115.7L159.9 115.7ZM166.1 108.1L166.1 117.6L171.1 117.6L171.1 119.5L163.8 119.5L163.8 108.1L166.1 108.1Z "/><mask id="satori_om-id-1-7-2"><rect x="180" y="104" width="34" height="19" fill="#fff"/></mask><path fill="#7d8590" d="M185.7 108.1L185.7 119.5L184.2 119.5L184.2 109.9L181.3 110.9L181.3 109.6L185.5 108.1L185.7 108.1ZM190.1 118.7L190.1 118.7Q190.1 118.4 190.3 118.1Q190.6 117.9 191 117.9Q191.4 117.9 191.7 118.1Q191.9 118.4 191.9 118.7L191.9 118.7Q191.9 119.1 191.7 119.3Q191.4 119.6 191 119.6Q190.6 119.6 190.3 119.3Q190.1 119.1 190.1 118.7ZM201.5 108.1L201.5 108.9L196.8 119.5L195.3 119.5L200.0 109.3L193.8 109.3L193.8 108.1L201.5 108.1ZM203 110.8L203 110.3Q203 109.3 203.7 108.6Q204.3 107.9 205.3 107.9L205.3 107.9Q206.4 107.9 207.0 108.6Q207.7 109.3 207.7 110.3L207.7 110.3L207.7 110.9Q207.7 111.9 207.0 112.6Q206.4 113.2 205.3 113.2L205.3 113.2Q204.3 113.2 203.7 112.6Q203 111.9 203 110.8L203 110.8ZM204.1 110.3L204.1 110.9Q204.1 111.5 204.4 111.9Q204.8 112.3 205.3 112.3L205.3 112.3Q205.9 112.3 206.2 111.9Q206.6 111.5 206.6 110.9L206.6 110.9L206.6 110.3Q206.6 109.7 206.2 109.3Q205.9 108.9 205.3 108.9Q204.8 108.9 204.4 109.3Q204.1 109.7 204.1 110.3L204.1 110.3ZM208.5 117.3L208.5 116.7Q208.5 115.7 209.2 115.0Q209.8 114.4 210.9 114.4Q211.9 114.4 212.5 115.0Q213.2 115.7 213.2 116.7L213.2 116.7L213.2 117.3Q213.2 118.3 212.6 119.0Q211.9 119.6 210.9 119.6Q209.9 119.6 209.2 119.0Q208.5 118.3 208.5 117.3L208.5 117.3ZM209.6 116.7L209.6 117.3Q209.6 117.9 210.0 118.3Q210.3 118.7 210.9 118.7L210.9 118.7Q211.4 118.7 211.8 118.3Q212.1 117.9 212.1 117.3L212.1 117.3L212.1 116.7Q212.1 116.1 211.8 115.7Q211.4 115.3 210.9 115.3L210.9 115.3Q210.3 115.3 210.0 115.7Q209.6 116.1 209.6 116.7L209.6 116.7ZM211.2 109.7L205.7 118.6L204.9 118.1L210.4 109.2L211.2 109.7Z "/><mask id="satori_om-id-1-8"><rect x="0" y="133" width="116" height="19" fill="#fff"/></mask><mask id="satori_om-id-1-8-0"><rect x="0" y="134" width="16" height="16" fill="#fff"/></mask><mask id="satori_om-id-1-8-0-0"><rect x="4" y="138" width="8" height="8" fill="#fff"/></mask><path x="4" y="138" width="8" height="8" fill="#e34c26" d="M8,138 h0 a4,4 0 0 1 4,4 v0 a4,4 0 0 1 -4,4 h0 a4,4 0 0 1 -4,-4 v0 a4,4 0 0 1 4,-4"/><mask id="satori_om-id-1-8-1"><rect x="29" y="133" width="44" height="19" fill="#fff"/></mask><path fill="#fff" d="M39.3 137.1L39.3 148.5L36.9 148.5L36.9 143.6L32.4 143.6L32.4 148.5L30.0 148.5L30.0 137.1L32.4 137.1L32.4 141.7L36.9 141.7L36.9 137.1L39.3 137.1ZM49.7 137.1L49.7 139.0L46.2 139.0L46.2 148.5L43.8 148.5L43.8 139.0L40.4 139.0L40.4 137.1L49.7 137.1ZM51.0 137.1L54.1 137.1L57.0 145.4L59.9 137.1L63.0 137.1L63.0 148.5L60.6 148.5L60.6 145.4L60.8 140.0L57.8 148.5L56.2 148.5L53.1 140.0L53.3 145.4L53.3 148.5L51.0 148.5L51.0 137.1ZM67.4 137.1L67.4 146.6L72.3 146.6L72.3 148.5L65.0 148.5L65.0 137.1L67.4 137.1Z "/><mask id="satori_om-id-1-8-2"><rect x="82" y="133" width="34" height="19" fill="#fff"/></mask><path fill="#7d8590" d="M90.1 141.8L90.1 143.6Q90.1 146.2 89.2 147.4Q88.3 148.6 86.5 148.6L86.5 148.6Q84.7 148.6 83.8 147.4Q82.9 146.2 82.9 143.8L82.9 143.8L82.9 141.9Q82.9 139.4 83.8 138.2Q84.6 137.0 86.5 137.0L86.5 137.0Q88.3 137.0 89.2 138.1Q90.1 139.3 90.1 141.8L90.1 141.8ZM88.6 144.0L88.6 141.7Q88.6 139.8 88.1 139.0Q87.6 138.1 86.5 138.1L86.5 138.1Q85.4 138.1 84.9 139.0Q84.4 139.8 84.3 141.5L84.3 141.5L84.3 143.9Q84.3 145.7 84.9 146.6Q85.4 147.5 86.5 147.5L86.5 147.5Q87.6 147.5 88.1 146.6Q88.6 145.8 88.6 144.0L88.6 144.0ZM92.1 147.7L92.1 147.7Q92.1 147.4 92.3 147.1Q92.6 146.9 93 146.9Q93.4 146.9 93.7 147.1Q93.9 147.4 93.9 147.7L93.9 147.7Q93.9 148.1 93.7 148.3Q93.4 148.6 93 148.6Q92.6 148.6 92.3 148.3Q92.1 148.1 92.1 147.7ZM98.0 143.1L96.8 142.8L97.4 137.1L103.2 137.1L103.2 138.4L98.6 138.4L98.3 141.5Q99.1 141.1 100.2 141.1L100.2 141.1Q101.7 141.1 102.6 142.1Q103.5 143.1 103.5 144.9L103.5 144.9Q103.5 146.6 102.6 147.6Q101.6 148.6 99.9 148.6L99.9 148.6Q98.4 148.6 97.5 147.8Q96.5 147.0 96.4 145.5L96.4 145.5L97.8 145.5Q97.9 146.5 98.5 147.0Q99.0 147.5 99.9 147.5L99.9 147.5Q101.0 147.5 101.5 146.8Q102.1 146.1 102.1 144.9L102.1 144.9Q102.1 143.7 101.5 143.0Q100.9 142.4 99.8 142.4L99.8 142.4Q98.9 142.4 98.3 142.8L98.3 142.8L98.0 143.1ZM105 139.8L105 139.3Q105 138.3 105.7 137.6Q106.3 136.9 107.3 136.9L107.3 136.9Q108.4 136.9 109.0 137.6Q109.7 138.3 109.7 139.3L109.7 139.3L109.7 139.9Q109.7 140.9 109.0 141.6Q108.4 142.2 107.3 142.2L107.3 142.2Q106.3 142.2 105.7 141.6Q105 140.9 105 139.8L105 139.8ZM106.1 139.3L106.1 139.9Q106.1 140.5 106.4 140.9Q106.8 141.3 107.3 141.3L107.3 141.3Q107.9 141.3 108.2 140.9Q108.6 140.5 108.6 139.9L108.6 139.9L108.6 139.3Q108.6 138.7 108.2 138.3Q107.9 137.9 107.3 137.9Q106.8 137.9 106.4 138.3Q106.1 138.7 106.1 139.3L106.1 139.3ZM110.5 146.3L110.5 145.7Q110.5 144.7 111.2 144.0Q111.8 143.4 112.9 143.4Q113.9 143.4 114.5 144.0Q115.2 144.7 115.2 145.7L115.2 145.7L115.2 146.3Q115.2 147.3 114.6 148.0Q113.9 148.6 112.9 148.6Q111.9 148.6 111.2 148.0Q110.5 147.3 110.5 146.3L110.5 146.3ZM111.6 145.7L111.6 146.3Q111.6 146.9 112.0 147.3Q112.3 147.7 112.9 147.7L112.9 147.7Q113.4 147.7 113.8 147.3Q114.1 146.9 114.1 146.3L114.1 146.3L114.1 145.7Q114.1 145.1 113.8 144.7Q113.4 144.3 112.9 144.3L112.9 144.3Q112.3 144.3 112.0 144.7Q111.6 145.1 111.6 145.7L111.6 145.7ZM113.2 138.7L107.7 147.6L106.9 147.1L112.4 138.2L113.2 138.7Z "/><mask id="satori_om-id-1-9"><rect x="126" y="133" width="145" height="19" fill="#fff"/></mask><mask id="satori_om-id-1-9-0"><rect x="126" y="134" width="16" height="16" fill="#fff"/></mask><mask id="satori_om-id-1-9-0-0"><rect x="130" y="138" width="8" height="8" fill="#fff"/></mask><path x="130" y="138" width="8" height="8" fill="#384d54" d="M134,138 h0 a4,4 0 0 1 4,4 v0 a4,4 0 0 1 -4,4 h0 a4,4 0 0 1 -4,-4 v0 a4,4 0 0 1 4,-4"/><mask id="satori_om-id-1-9-1"><rect x="155" y="133" width="73" height="19" fill="#fff"/></mask><path fill="#fff" d="M159.5 148.5L156.0 148.5L156.0 137.1L159.5 137.1Q161.0 137.1 162.2 137.8Q163.4 138.5 164.0 139.7Q164.7 141.0 164.7 142.5L164.7 142.5L164.7 143.1Q164.7 144.6 164.1 145.9Q163.4 147.1 162.2 147.8Q161.0 148.5 159.5 148.5L159.5 148.5ZM159.5 139.0L158.4 139.0L158.4 146.6L159.5 146.6Q160.9 146.6 161.6 145.7Q162.3 144.8 162.3 143.1L162.3 143.1L162.3 142.5Q162.3 140.8 161.6 139.9Q160.9 139.0 159.5 139.0L159.5 139.0ZM165.9 144.3L165.9 144.2Q165.9 142.9 166.4 141.9Q166.9 141.0 167.8 140.4Q168.7 139.9 169.9 139.9L169.9 139.9Q171.6 139.9 172.7 140.9Q173.8 142.0 173.9 143.8L173.9 143.8L173.9 144.3Q173.9 146.3 172.8 147.5Q171.8 148.6 169.9 148.6Q168.1 148.6 167.0 147.5Q165.9 146.3 165.9 144.3L165.9 144.3ZM168.2 144.3L168.2 144.3Q168.2 145.5 168.6 146.2Q169.1 146.8 169.9 146.8L169.9 146.8Q170.7 146.8 171.2 146.2Q171.7 145.6 171.7 144.2L171.7 144.2Q171.7 143.0 171.2 142.4Q170.7 141.7 169.9 141.7L169.9 141.7Q169.1 141.7 168.6 142.3Q168.2 143.0 168.2 144.3ZM178.8 146.8L178.8 146.8Q179.5 146.8 179.8 146.5Q180.2 146.1 180.3 145.6L180.3 145.6L182.4 145.6Q182.4 146.4 181.9 147.1Q181.4 147.9 180.6 148.2Q179.8 148.6 178.9 148.6L178.9 148.6Q177.1 148.6 176.0 147.5Q175.0 146.3 175.0 144.3L175.0 144.3L175.0 144.2Q175.0 142.2 176 141.0Q177.0 139.9 178.9 139.9L178.9 139.9Q180.4 139.9 181.4 140.8Q182.4 141.7 182.4 143.2L182.4 143.2L180.3 143.2Q180.2 142.5 179.8 142.1Q179.5 141.7 178.8 141.7L178.8 141.7Q178.0 141.7 177.6 142.3Q177.2 142.9 177.2 144.1L177.2 144.1L177.2 144.4Q177.2 145.7 177.6 146.2Q178.0 146.8 178.8 146.8ZM188.9 148.5L186.7 145.1L185.9 145.9L185.9 148.5L183.7 148.5L183.7 136.5L185.9 136.5L185.9 143.1L186.4 142.6L188.5 140.0L191.2 140.0L188.2 143.6L191.5 148.5L188.9 148.5ZM195.9 148.6L195.9 148.6Q194.1 148.6 192.9 147.5Q191.7 146.4 191.7 144.5L191.7 144.5L191.7 144.2Q191.7 143.0 192.2 142.0Q192.7 141.0 193.6 140.4Q194.5 139.9 195.7 139.9L195.7 139.9Q197.4 139.9 198.4 141.0Q199.4 142.1 199.4 144.1L199.4 144.1L199.4 145.0L194.0 145.0Q194.1 145.8 194.7 146.3Q195.2 146.8 196.1 146.8L196.1 146.8Q197.4 146.8 198.1 145.9L198.1 145.9L199.2 147.1Q198.7 147.8 197.9 148.2Q197.0 148.6 195.9 148.6ZM195.7 141.7L195.7 141.7Q195.0 141.7 194.6 142.2Q194.2 142.6 194.1 143.5L194.1 143.5L197.2 143.5L197.2 143.3Q197.2 142.5 196.8 142.1Q196.4 141.7 195.7 141.7ZM205.5 140.0L205.4 142.1Q205.0 142.1 204.6 142.1L204.6 142.1Q203.4 142.1 203.0 143.0L203.0 143.0L203.0 148.5L200.7 148.5L200.7 140.0L202.8 140.0L202.9 141.0Q203.6 139.9 204.8 139.9L204.8 139.9Q205.1 139.9 205.5 140.0L205.5 140.0ZM209.6 148.5L207.3 148.5L207.3 141.7L206.0 141.7L206.0 140.0L207.3 140.0L207.3 139.3Q207.3 137.9 208.1 137.1Q208.9 136.3 210.4 136.3L210.4 136.3Q210.9 136.3 211.6 136.5L211.6 136.5L211.5 138.2Q211.3 138.2 210.8 138.2L210.8 138.2Q209.6 138.2 209.6 139.4L209.6 139.4L209.6 140.0L211.3 140.0L211.3 141.7L209.6 141.7L209.6 148.5ZM214.8 140.0L214.8 148.5L212.5 148.5L212.5 140.0L214.8 140.0ZM212.4 137.8L212.4 137.8Q212.4 137.3 212.7 137.0Q213.1 136.7 213.7 136.7L213.7 136.7Q214.3 136.7 214.6 137.0Q214.9 137.3 214.9 137.8L214.9 137.8Q214.9 138.4 214.6 138.7Q214.2 139.0 213.7 139.0Q213.1 139.0 212.8 138.7Q212.4 138.4 212.4 137.8ZM219.0 136.5L219.0 148.5L216.8 148.5L216.8 136.5L219.0 136.5ZM224.8 148.6L224.8 148.6Q222.9 148.6 221.8 147.5Q220.6 146.4 220.6 144.5L220.6 144.5L220.6 144.2Q220.6 143.0 221.1 142.0Q221.6 141.0 222.5 140.4Q223.4 139.9 224.5 139.9L224.5 139.9Q226.3 139.9 227.3 141.0Q228.3 142.1 228.3 144.1L228.3 144.1L228.3 145.0L222.9 145.0Q223 145.8 223.6 146.3Q224.1 146.8 224.9 146.8L224.9 146.8Q226.3 146.8 227.0 145.9L227.0 145.9L228.1 147.1Q227.6 147.8 226.7 148.2Q225.9 148.6 224.8 148.6ZM224.5 141.7L224.5 141.7Q223.9 141.7 223.4 142.2Q223.0 142.6 222.9 143.5L222.9 143.5L226.1 143.5L226.1 143.3Q226.0 142.5 225.6 142.1Q225.3 141.7 224.5 141.7Z "/><mask id="satori_om-id-1-9-2"><rect x="238" y="133" width="34" height="19" fill="#fff"/></mask><path fill="#7d8590" d="M246.1 141.8L246.1 143.6Q246.1 146.2 245.2 147.4Q244.3 148.6 242.5 148.6L242.5 148.6Q240.7 148.6 239.8 147.4Q238.9 146.2 238.9 143.8L238.9 143.8L238.9 141.9Q238.9 139.4 239.8 138.2Q240.6 137.0 242.5 137.0L242.5 137.0Q244.3 137.0 245.2 138.1Q246.1 139.3 246.1 141.8L246.1 141.8ZM244.6 144.0L244.6 141.7Q244.6 139.8 244.1 139.0Q243.6 138.1 242.5 138.1L242.5 138.1Q241.4 138.1 240.9 139.0Q240.4 139.8 240.3 141.5L240.3 141.5L240.3 143.9Q240.3 145.7 240.9 146.6Q241.4 147.5 242.5 147.5L242.5 147.5Q243.6 147.5 244.1 146.6Q244.6 145.8 244.6 144.0L244.6 144.0ZM248.1 147.7L248.1 147.7Q248.1 147.4 248.3 147.1Q248.6 146.9 249 146.9Q249.4 146.9 249.7 147.1Q249.9 147.4 249.9 147.7L249.9 147.7Q249.9 148.1 249.7 148.3Q249.4 148.6 249 148.6Q248.6 148.6 248.3 148.3Q248.1 148.1 248.1 147.7ZM256.9 137.1L256.9 148.5L255.4 148.5L255.4 138.9L252.5 139.9L252.5 138.6L256.7 137.1L256.9 137.1ZM261 139.8L261 139.3Q261 138.3 261.7 137.6Q262.3 136.9 263.3 136.9L263.3 136.9Q264.4 136.9 265.0 137.6Q265.7 138.3 265.7 139.3L265.7 139.3L265.7 139.9Q265.7 140.9 265.0 141.6Q264.4 142.2 263.3 142.2L263.3 142.2Q262.3 142.2 261.7 141.6Q261 140.9 261 139.8L261 139.8ZM262.1 139.3L262.1 139.9Q262.1 140.5 262.4 140.9Q262.8 141.3 263.3 141.3L263.3 141.3Q263.9 141.3 264.2 140.9Q264.6 140.5 264.6 139.9L264.6 139.9L264.6 139.3Q264.6 138.7 264.2 138.3Q263.9 137.9 263.3 137.9Q262.8 137.9 262.4 138.3Q262.1 138.7 262.1 139.3L262.1 139.3ZM266.5 146.3L266.5 145.7Q266.5 144.7 267.2 144.0Q267.8 143.4 268.9 143.4Q269.9 143.4 270.5 144.0Q271.2 144.7 271.2 145.7L271.2 145.7L271.2 146.3Q271.2 147.3 270.6 148.0Q269.9 148.6 268.9 148.6Q267.9 148.6 267.2 148.0Q266.5 147.3 266.5 146.3L266.5 146.3ZM267.6 145.7L267.6 146.3Q267.6 146.9 268.0 147.3Q268.3 147.7 268.9 147.7L268.9 147.7Q269.4 147.7 269.8 147.3Q270.1 146.9 270.1 146.3L270.1 146.3L270.1 145.7Q270.1 145.1 269.8 144.7Q269.4 144.3 268.9 144.3L268.9 144.3Q268.3 144.3 268.0 144.7Q267.6 145.1 267.6 145.7L267.6 145.7ZM269.2 138.7L263.7 147.6L262.9 147.1L268.4 138.2L269.2 138.7Z "/><mask id="satori_om-id-1-10"><rect x="0" y="162" width="135" height="19" fill="#fff"/></mask><mask id="satori_om-id-1-10-0"><rect x="0" y="163" width="16" height="16" fill="#fff"/></mask><mask id="satori_om-id-1-10-0-0"><rect x="4" y="167" width="8" height="8" fill="#fff"/></mask><path x="4" y="167" width="8" height="8" fill="#427819" d="M8,167 h0 a4,4 0 0 1 4,4 v0 a4,4 0 0 1 -4,4 h0 a4,4 0 0 1 -4,-4 v0 a4,4 0 0 1 4,-4"/><mask id="satori_om-id-1-10-1"><rect x="29" y="162" width="63" height="19" fill="#fff"/></mask><path fill="#fff" d="M30.0 166.1L33.1 166.1L36 174.4L38.9 166.1L42.0 166.1L42.0 177.5L39.6 177.5L39.6 174.4L39.9 169.0L36.8 177.5L35.2 177.5L32.1 169.0L32.4 174.4L32.4 177.5L30.0 177.5L30.0 166.1ZM51.1 177.5L48.8 177.5Q48.6 177.2 48.6 176.7L48.6 176.7Q47.7 177.6 46.4 177.6L46.4 177.6Q45.2 177.6 44.4 176.9Q43.5 176.2 43.5 175.1L43.5 175.1Q43.5 173.8 44.5 173.0Q45.5 172.3 47.4 172.3L47.4 172.3L48.5 172.3L48.5 171.8Q48.5 171.2 48.2 170.9Q47.9 170.5 47.2 170.5L47.2 170.5Q46.6 170.5 46.3 170.8Q46.0 171.1 46.0 171.6L46.0 171.6L43.7 171.6Q43.7 170.8 44.2 170.2Q44.6 169.6 45.5 169.2Q46.3 168.9 47.3 168.9L47.3 168.9Q48.9 168.9 49.8 169.7Q50.7 170.4 50.7 171.9L50.7 171.9L50.7 175.5Q50.7 176.7 51.1 177.4L51.1 177.4L51.1 177.5ZM46.9 175.9L46.9 175.9Q47.4 175.9 47.8 175.7Q48.3 175.5 48.5 175.1L48.5 175.1L48.5 173.6L47.6 173.6Q45.9 173.6 45.8 174.8L45.8 174.8L45.8 174.9Q45.8 175.4 46.1 175.6Q46.4 175.9 46.9 175.9ZM57.7 177.5L55.5 174.1L54.7 174.9L54.7 177.5L52.5 177.5L52.5 165.5L54.7 165.5L54.7 172.1L55.2 171.6L57.3 169.0L60.0 169.0L57.0 172.6L60.3 177.5L57.7 177.5ZM64.7 177.6L64.7 177.6Q62.9 177.6 61.7 176.5Q60.5 175.4 60.5 173.5L60.5 173.5L60.5 173.2Q60.5 172.0 61.0 171.0Q61.5 170.0 62.4 169.4Q63.3 168.9 64.5 168.9L64.5 168.9Q66.2 168.9 67.2 170.0Q68.2 171.1 68.2 173.1L68.2 173.1L68.2 174.0L62.8 174.0Q62.9 174.8 63.5 175.3Q64.0 175.8 64.9 175.8L64.9 175.8Q66.2 175.8 66.9 174.9L66.9 174.9L68.0 176.1Q67.5 176.8 66.7 177.2Q65.8 177.6 64.7 177.6ZM64.5 170.7L64.5 170.7Q63.8 170.7 63.4 171.2Q63.0 171.6 62.9 172.5L62.9 172.5L66 172.5L66 172.3Q66.0 171.5 65.6 171.1Q65.2 170.7 64.5 170.7ZM72.4 177.5L70.1 177.5L70.1 170.7L68.9 170.7L68.9 169.0L70.1 169.0L70.1 168.3Q70.1 166.9 70.9 166.1Q71.8 165.3 73.2 165.3L73.2 165.3Q73.7 165.3 74.4 165.5L74.4 165.5L74.3 167.2Q74.1 167.2 73.7 167.2L73.7 167.2Q72.4 167.2 72.4 168.4L72.4 168.4L72.4 169.0L74.1 169.0L74.1 170.7L72.4 170.7L72.4 177.5ZM77.6 169.0L77.6 177.5L75.4 177.5L75.4 169.0L77.6 169.0ZM75.2 166.8L75.2 166.8Q75.2 166.3 75.6 166.0Q75.9 165.7 76.5 165.7L76.5 165.7Q77.1 165.7 77.4 166.0Q77.8 166.3 77.8 166.8L77.8 166.8Q77.8 167.4 77.4 167.7Q77.1 168.0 76.5 168.0Q75.9 168.0 75.6 167.7Q75.2 167.4 75.2 166.8ZM81.9 165.5L81.9 177.5L79.6 177.5L79.6 165.5L81.9 165.5ZM87.6 177.6L87.6 177.6Q85.8 177.6 84.6 176.5Q83.4 175.4 83.4 173.5L83.4 173.5L83.4 173.2Q83.4 172.0 83.9 171.0Q84.4 170.0 85.3 169.4Q86.2 168.9 87.4 168.9L87.4 168.9Q89.1 168.9 90.1 170.0Q91.1 171.1 91.1 173.1L91.1 173.1L91.1 174.0L85.7 174.0Q85.8 174.8 86.4 175.3Q86.9 175.8 87.8 175.8L87.8 175.8Q89.1 175.8 89.8 174.9L89.8 174.9L90.9 176.1Q90.4 176.8 89.5 177.2Q88.7 177.6 87.6 177.6ZM87.4 170.7L87.4 170.7Q86.7 170.7 86.3 171.2Q85.8 171.6 85.7 172.5L85.7 172.5L88.9 172.5L88.9 172.3Q88.9 171.5 88.5 171.1Q88.1 170.7 87.4 170.7Z "/><mask id="satori_om-id-1-10-2"><rect x="101" y="162" width="34" height="19" fill="#fff"/></mask><path fill="#7d8590" d="M109.1 170.8L109.1 172.6Q109.1 175.2 108.2 176.4Q107.3 177.6 105.5 177.6L105.5 177.6Q103.7 177.6 102.8 176.4Q101.9 175.2 101.9 172.8L101.9 172.8L101.9 170.9Q101.9 168.4 102.8 167.2Q103.6 166.0 105.5 166.0L105.5 166.0Q107.3 166.0 108.2 167.1Q109.1 168.3 109.1 170.8L109.1 170.8ZM107.6 173.0L107.6 170.7Q107.6 168.8 107.1 168.0Q106.6 167.1 105.5 167.1L105.5 167.1Q104.4 167.1 103.9 168.0Q103.4 168.8 103.3 170.5L103.3 170.5L103.3 172.9Q103.3 174.7 103.9 175.6Q104.4 176.5 105.5 176.5L105.5 176.5Q106.6 176.5 107.1 175.6Q107.6 174.8 107.6 173.0L107.6 173.0ZM111.1 176.7L111.1 176.7Q111.1 176.4 111.3 176.1Q111.6 175.9 112 175.9Q112.4 175.9 112.7 176.1Q112.9 176.4 112.9 176.7L112.9 176.7Q112.9 177.1 112.7 177.3Q112.4 177.6 112 177.6Q111.6 177.6 111.3 177.3Q111.1 177.1 111.1 176.7ZM122.3 170.8L122.3 172.6Q122.3 175.2 121.4 176.4Q120.5 177.6 118.7 177.6L118.7 177.6Q116.9 177.6 116 176.4Q115.1 175.2 115.1 172.8L115.1 172.8L115.1 170.9Q115.1 168.4 116.0 167.2Q116.8 166.0 118.7 166.0L118.7 166.0Q120.5 166.0 121.4 167.1Q122.3 168.3 122.3 170.8L122.3 170.8ZM120.8 173.0L120.8 170.7Q120.8 168.8 120.3 168.0Q119.8 167.1 118.7 167.1L118.7 167.1Q117.6 167.1 117.1 168.0Q116.6 168.8 116.5 170.5L116.5 170.5L116.5 172.9Q116.5 174.7 117.1 175.6Q117.6 176.5 118.7 176.5L118.7 176.5Q119.8 176.5 120.3 175.6Q120.8 174.8 120.8 173.0L120.8 173.0ZM124 168.8L124 168.3Q124 167.3 124.7 166.6Q125.3 165.9 126.3 165.9L126.3 165.9Q127.4 165.9 128.0 166.6Q128.7 167.3 128.7 168.3L128.7 168.3L128.7 168.9Q128.7 169.9 128.0 170.6Q127.4 171.2 126.3 171.2L126.3 171.2Q125.3 171.2 124.7 170.6Q124 169.9 124 168.8L124 168.8ZM125.1 168.3L125.1 168.9Q125.1 169.5 125.4 169.9Q125.8 170.3 126.3 170.3L126.3 170.3Q126.9 170.3 127.2 169.9Q127.6 169.5 127.6 168.9L127.6 168.9L127.6 168.3Q127.6 167.7 127.2 167.3Q126.9 166.9 126.3 166.9Q125.8 166.9 125.4 167.3Q125.1 167.7 125.1 168.3L125.1 168.3ZM129.5 175.3L129.5 174.7Q129.5 173.7 130.2 173.0Q130.8 172.4 131.9 172.4Q132.9 172.4 133.5 173.0Q134.2 173.7 134.2 174.7L134.2 174.7L134.2 175.3Q134.2 176.3 133.6 177.0Q132.9 177.6 131.9 177.6Q130.9 177.6 130.2 177.0Q129.5 176.3 129.5 175.3L129.5 175.3ZM130.6 174.7L130.6 175.3Q130.6 175.9 131.0 176.3Q131.3 176.7 131.9 176.7L131.9 176.7Q132.4 176.7 132.8 176.3Q133.1 175.9 133.1 175.3L133.1 175.3L133.1 174.7Q133.1 174.1 132.8 173.7Q132.4 173.3 131.9 173.3L131.9 173.3Q131.3 173.3 131.0 173.7Q130.6 174.1 130.6 174.7L130.6 174.7ZM132.2 167.7L126.7 176.6L125.9 176.1L131.4 167.2L132.2 167.7Z "/></svg>