<svg width="375" height="200" viewBox="0 0 375 200" xmlns="http://www.w3.org/2000/svg"><mask id="satori_om-id"><rect x="0" y="0" width="375" height="123" fill="#fff"/></mask><clipPath id="satori_cp-id-0"><path x="0" y="0" width="375" height="8" d="M4,0 h367 a4,4 0 0 1 4,4 v0 a4,4 0 0 1 -4,4 h-367 a4,4 0 0 1 -4,-4 v0 a4,4 0 0 1 4,-4"/></clipPath><mask id="satori_om-id-0"><rect x="0" y="0" width="375" height="8" fill="#fff"/></mask><mask id="satori_om-id-0-0"><rect x="0" y="0" width="274" height="8" fill="#fff" mask="url(#satori_om-id-0)"/></mask><rect x="0" y="0" width="274" height="8" fill="#3178c6" clip-path="url(#satori_cp-id-0)" mask="url(#satori_om-id-0)"/><mask id="satori_om-id-0-1"><rect x="274" y="0" width="24" height="8" fill="#fff" mask="url(#satori_om-id-0)"/></mask><rect x="274" y="0" width="24" height="8" fill="#ff3e00" clip-path="url(#satori_cp-id-0)" mask="url(#satori_om-id-0)"/><mask id="satori_om-id-0-2"><rect x="298" y="0" width="18" height="8" fill="#fff" mask="url(#satori_om-id-0)"/></mask><rect x="298" y="0" width="18" height="8" fill="#e34c26" clip-path="url(#satori_cp-id-0)" mask="url(#satori_om-id-0)"/><mask id="satori_om-id-0-3"><rect x="316" y="0" width="17" height="8" fill="#fff" mask="url(#satori_om-id-0)"/></mask><rect x="316" y="0" width="17" height="8" fill="#00ADD8" clip-path="url(#satori_cp-id-0)" mask="url(#satori_om-id-0)"/><mask id="satori_om-id-0-4"><rect x="333" y="0" width="14" height="8" fill="#fff" mask="url(#satori_om-id-0)"/></mask><rect x="333" y="0" width="14" height="8" fill="#3572A5" clip-path="url(#satori_cp-id-0)" mask="url(#satori_om-id-0)"/><mask id="satori_om-id-0-5"><rect x="347" y="0" width="13" height="8" fill="#fff" mask="url(#satori_om-id-0)"/></mask><rect x="347" y="0" width="13" height="8" fill="#f1e05a" clip-path="url(#satori_cp-id-0)" mask="url(#satori_om-id-0)"/><mask id="satori_om-id-0-6"><rect x="360" y="0" width="11" height="8" fill="#fff" mask="url(#satori_om-id-0)"/></mask><rect x="360" y="0" width="11" height="8" fill="#ff5a03" clip-path="url(#satori_cp-id-0)" mask="url(#satori_om-id-0)"/><mask id="satori_om-id-0-7"><rect x="371" y="0" width="2" height="8" fill="#fff" mask="url(#satori_om-id-0)"/></mask><rect x="371" y="0" width="2" height="8" fill="#844FBA" clip-path="url(#satori_cp-id-0)" mask="url(#satori_om-id-0)"/><mask id="satori_om-id-0-8"><rect x="373" y="0" width="2" height="8" fill="#fff" mask="url(#satori_om-id-0)"/></mask><rect x="373" y="0" width="2" height="8" fill="#563d7c" clip-path="url(#satori_cp-id-0)" mask="url(#satori_om-id-0)"/><mask id="satori_om-id-1"><rect x="0" y="18" width="375" height="105" fill="#fff"/></mask><mask id="satori_om-id-1-0"><rect x="0" y="18" width="160" height="19" fill="#fff"/></mask><mask id="satori_om-id-1-0-0"><rect x="0" y="19" width="16" height="16" fill="#fff"/></mask><mask id="satori_om-id-1-0-0-0"><rect x="4" y="23" width="8" height="8" fill="#fff"/></mask><path x="4" y="23" width="8" height="8" fill="#3178c6" d="M8,23 h0 a4,4 0 0 1 4,4 v0 a4,4 0 0 1 -4,4 h0 a4,4 0 0 1 -4,-4 v0 a4,4 0 0 1 4,-4"/><mask id="satori_om-id-1-0-1"><rect x="29" y="18" width="79" height="19" fill="#fff"/></mask><path fill="#fff" d="M38.6 22.1L38.6 24.0L35.1 24.0L35.1 33.5L32.8 33.5L32.8 24.0L29.3 24.0L29.3 22.1L38.6 22.1ZM40.7 25.0L42.3 30.3L43.8 25.0L46.3 25.0L42.9 34.8L42.7 35.2Q41.9 36.9 40.2 36.9L40.2 36.9Q39.7 36.9 39.2 36.7L39.2 36.7L39.2 35.0L39.5 35.0Q40.2 35.0 40.5 34.9Q40.8 34.7 41.0 34.2L41.0 34.2L41.2 33.5L38.3 25.0L40.7 25.0ZM54.8 29.2L54.8 29.3Q54.8 31.3 53.9 32.5Q53.0 33.6 51.5 33.6L51.5 33.6Q50.2 33.6 49.4 32.7L49.4 32.7L49.4 36.7L47.2 36.7L47.2 25.0L49.3 25.0L49.3 25.9Q50.1 24.9 51.5 24.9L51.5 24.9Q53.0 24.9 53.9 26.0Q54.8 27.2 54.8 29.2L54.8 29.2ZM52.5 29.2L52.5 29.2Q52.5 28.0 52.1 27.4Q51.7 26.7 50.9 26.7L50.9 26.7Q49.8 26.7 49.4 27.5L49.4 27.5L49.4 31.0Q49.8 31.8 50.9 31.8L50.9 31.8Q52.5 31.8 52.5 29.2ZM60.1 33.6L60.1 33.6Q58.2 33.6 57.0 32.5Q55.9 31.4 55.9 29.5L55.9 29.5L55.9 29.2Q55.9 28.0 56.4 27.0Q56.8 26.0 57.7 25.4Q58.6 24.9 59.8 24.9L59.8 24.9Q61.5 24.9 62.5 26.0Q63.5 27.1 63.5 29.1L63.5 29.1L63.5 30.0L58.1 30.0Q58.3 30.8 58.8 31.3Q59.4 31.8 60.2 31.8L60.2 31.8Q61.5 31.8 62.2 30.9L62.2 30.9L63.4 32.1Q62.8 32.8 62.0 33.2Q61.1 33.6 60.1 33.6ZM59.8 26.7L59.8 26.7Q59.1 26.7 58.7 27.2Q58.3 27.6 58.2 28.5L58.2 28.5L61.3 28.5L61.3 28.3Q61.3 27.5 60.9 27.1Q60.5 26.7 59.8 26.7ZM70.9 30.5L70.9 30.5Q70.9 29.8 70.4 29.5Q69.9 29.1 68.7 28.7Q67.5 28.3 66.8 28.0L66.8 28.0Q64.8 26.9 64.8 25.1L64.8 25.1Q64.8 24.2 65.4 23.5Q65.9 22.8 66.8 22.4Q67.8 22.0 69.0 22.0L69.0 22.0Q70.3 22.0 71.2 22.4Q72.2 22.8 72.7 23.6Q73.2 24.4 73.2 25.5L73.2 25.5L70.9 25.5Q70.9 24.7 70.4 24.3Q69.9 23.8 69.0 23.8L69.0 23.8Q68.1 23.8 67.7 24.2Q67.2 24.5 67.2 25.1L67.2 25.1Q67.2 25.7 67.7 26.1Q68.3 26.4 69.4 26.8L69.4 26.8Q71.4 27.4 72.3 28.3Q73.2 29.2 73.2 30.5L73.2 30.5Q73.2 32.0 72.1 32.8Q71.0 33.6 69.1 33.6L69.1 33.6Q67.8 33.6 66.7 33.2Q65.6 32.7 65.1 31.8Q64.5 31.0 64.5 29.9L64.5 29.9L66.8 29.9Q66.8 31.8 69.1 31.8L69.1 31.8Q69.9 31.8 70.4 31.4Q70.9 31.1 70.9 30.5ZM78.2 31.8L78.2 31.8Q78.8 31.8 79.2 31.5Q79.6 31.1 79.6 30.6L79.6 30.6L81.7 30.6Q81.7 31.4 81.2 32.1Q80.8 32.9 80.0 33.2Q79.2 33.6 78.2 33.6L78.2 33.6Q76.4 33.6 75.3 32.5Q74.3 31.3 74.3 29.3L74.3 29.3L74.3 29.2Q74.3 27.2 75.3 26.0Q76.4 24.9 78.2 24.9L78.2 24.9Q79.8 24.9 80.7 25.8Q81.7 26.7 81.7 28.2L81.7 28.2L79.6 28.2Q79.6 27.5 79.2 27.1Q78.8 26.7 78.1 26.7L78.1 26.7Q77.4 26.7 77.0 27.3Q76.6 27.9 76.6 29.1L76.6 29.1L76.6 29.4Q76.6 30.7 77.0 31.2Q77.4 31.8 78.2 31.8ZM87.8 25.0L87.7 27.1Q87.3 27.1 86.9 27.1L86.9 27.1Q85.6 27.1 85.3 28.0L85.3 28.0L85.3 33.5L83.0 33.5L83.0 25.0L85.1 25.0L85.2 26.0Q85.9 24.9 87.1 24.9L87.1 24.9Q87.4 24.9 87.8 25.0L87.8 25.0ZM91.2 25.0L91.2 33.5L88.9 33.5L88.9 25.0L91.2 25.0ZM88.8 22.8L88.8 22.8Q88.8 22.3 89.2 22.0Q89.5 21.7 90.1 21.7L90.1 21.7Q90.7 21.7 91 22.0Q91.3 22.3 91.3 22.8L91.3 22.8Q91.3 23.4 91.0 23.7Q90.6 24.0 90.1 24.0Q89.5 24.0 89.2 23.7Q88.8 23.4 88.8 22.8ZM100.7 29.2L100.7 29.3Q100.7 31.3 99.8 32.5Q98.9 33.6 97.4 33.6L97.4 33.6Q96.1 33.6 95.3 32.7L95.3 32.7L95.3 36.7L93.1 36.7L93.1 25.0L95.2 25.0L95.2 25.9Q96.1 24.9 97.4 24.9L97.4 24.9Q98.9 24.9 99.8 26.0Q100.7 27.2 100.7 29.2L100.7 29.2ZM98.4 29.2L98.4 29.2Q98.4 28.0 98.0 27.4Q97.6 26.7 96.8 26.7L96.8 26.7Q95.7 26.7 95.3 27.5L95.3 27.5L95.3 31.0Q95.7 31.8 96.8 31.8L96.8 31.8Q98.4 31.8 98.4 29.2ZM102.5 23.0L104.8 23.0L104.8 25.0L106.2 25.0L106.2 26.7L104.8 26.7L104.8 30.9Q104.8 31.4 105.0 31.6Q105.1 31.8 105.6 31.8L105.6 31.8Q106.0 31.8 106.3 31.7L106.3 31.7L106.3 33.4Q105.6 33.6 104.9 33.6L104.9 33.6Q102.6 33.6 102.5 31.2L102.5 31.2L102.5 26.7L101.3 26.7L101.3 25.0L102.5 25.0L102.5 23.0Z "/><mask id="satori_om-id-1-0-2"><rect x="117" y="18" width="43" height="19" fill="#fff"/></mask><path fill="#7d8590" d="M125.3 22.1L125.3 22.9L120.6 33.5L119.1 33.5L123.8 23.3L117.6 23.3L117.6 22.1L125.3 22.1ZM129.0 28.3L129.0 27.1L130.1 27.1Q131.1 27.1 131.7 26.6Q132.3 26.0 132.3 25.1L132.3 25.1Q132.3 23.1 130.3 23.1L130.3 23.1Q129.4 23.1 128.8 23.7Q128.3 24.2 128.3 25.1L128.3 25.1L126.8 25.1Q126.8 23.7 127.8 22.8Q128.8 22.0 130.3 22.0L130.3 22.0Q131.9 22.0 132.8 22.8Q133.8 23.7 133.8 25.2L133.8 25.2Q133.8 25.9 133.3 26.6Q132.8 27.3 132.0 27.6L132.0 27.6Q132.9 27.9 133.4 28.6Q133.9 29.3 133.9 30.3L133.9 30.3Q133.9 31.8 132.9 32.7Q131.9 33.6 130.3 33.6Q128.7 33.6 127.7 32.8Q126.7 31.9 126.7 30.5L126.7 30.5L128.2 30.5Q128.2 31.4 128.8 31.9Q129.3 32.5 130.3 32.5L130.3 32.5Q131.4 32.5 131.9 31.9Q132.5 31.4 132.5 30.3L132.5 30.3Q132.5 29.4 131.9 28.8Q131.3 28.3 130.1 28.3L130.1 28.3L129.0 28.3ZM136.1 32.7L136.1 32.7Q136.1 32.4 136.3 32.1Q136.5 31.9 137.0 31.9Q137.4 31.9 137.7 32.1Q137.9 32.4 137.9 32.7L137.9 32.7Q137.9 33.1 137.7 33.3Q137.4 33.6 137.0 33.6Q136.5 33.6 136.3 33.3Q136.1 33.1 136.1 32.7ZM144.9 22.1L144.9 33.5L143.4 33.5L143.4 23.9L140.5 24.9L140.5 23.6L144.6 22.1L144.9 22.1ZM149.0 24.8L149.0 24.3Q149.0 23.3 149.6 22.6Q150.3 21.9 151.3 21.9L151.3 21.9Q152.4 21.9 153.0 22.6Q153.6 23.3 153.6 24.3L153.6 24.3L153.6 24.9Q153.6 25.9 153.0 26.6Q152.3 27.2 151.3 27.2L151.3 27.2Q150.3 27.2 149.6 26.6Q149.0 25.9 149.0 24.8L149.0 24.8ZM150.1 24.3L150.1 24.9Q150.1 25.5 150.4 25.9Q150.8 26.3 151.3 26.3L151.3 26.3Q151.9 26.3 152.2 25.9Q152.6 25.5 152.6 24.9L152.6 24.9L152.6 24.3Q152.6 23.7 152.2 23.3Q151.9 22.9 151.3 22.9Q150.7 22.9 150.4 23.3Q150.1 23.7 150.1 24.3L150.1 24.3ZM154.5 31.3L154.5 30.7Q154.5 29.7 155.2 29.0Q155.8 28.4 156.9 28.4Q157.9 28.4 158.5 29.0Q159.2 29.7 159.2 30.7L159.2 30.7L159.2 31.3Q159.2 32.3 158.5 33.0Q157.9 33.6 156.9 33.6Q155.9 33.6 155.2 33.0Q154.5 32.3 154.5 31.3L154.5 31.3ZM155.6 30.7L155.6 31.3Q155.6 31.9 155.9 32.3Q156.3 32.7 156.9 32.7L156.9 32.7Q157.4 32.7 157.8 32.3Q158.1 31.9 158.1 31.3L158.1 31.3L158.1 30.7Q158.1 30.1 157.8 29.7Q157.4 29.3 156.9 29.3L156.9 29.3Q156.3 29.3 155.9 29.7Q155.6 30.1 155.6 30.7L155.6 30.7ZM157.2 23.7L151.7 32.6L150.8 32.1L156.4 23.2L157.2 23.7Z "/><mask id="satori_om-id-1-1"><rect x="170" y="18" width="117" height="19" fill="#fff"/></mask><mask id="satori_om-id-1-1-0"><rect x="170" y="19" width="16" height="16" fill="#fff"/></mask><mask id="satori_om-id-1-1-0-0"><rect x="174" y="23" width="8" height="8" fill="#fff"/></mask><path x="174" y="23" width="8" height="8" fill="#ff3e00" d="M178,23 h0 a4,4 0 0 1 4,4 v0 a4,4 0 0 1 -4,4 h0 a4,4 0 0 1 -4,-4 v0 a4,4 0 0 1 4,-4"/><mask id="satori_om-id-1-1-1"><rect x="199" y="18" width="45" height="19" fill="#fff"/></mask><path fill="#fff" d="M205.9 30.5L205.9 30.5Q205.9 29.8 205.4 29.5Q205.0 29.1 203.8 28.7Q202.5 28.3 201.8 28.0L201.8 28.0Q199.9 26.9 199.9 25.1L199.9 25.1Q199.9 24.2 200.4 23.5Q200.9 22.8 201.9 22.4Q202.9 22.0 204.1 22.0L204.1 22.0Q205.3 22.0 206.3 22.4Q207.2 22.8 207.7 23.6Q208.3 24.4 208.3 25.5L208.3 25.5L205.9 25.5Q205.9 24.7 205.4 24.3Q204.9 23.8 204.0 23.8L204.0 23.8Q203.2 23.8 202.7 24.2Q202.2 24.5 202.2 25.1L202.2 25.1Q202.2 25.7 202.8 26.1Q203.4 26.4 204.4 26.8L204.4 26.8Q206.4 27.4 207.4 28.3Q208.3 29.2 208.3 30.5L208.3 30.5Q208.3 32.0 207.1 32.8Q206.0 33.6 204.1 33.6L204.1 33.6Q202.8 33.6 201.8 33.2Q200.7 32.7 200.1 31.8Q199.5 31.0 199.5 29.9L199.5 29.9L201.9 29.9Q201.9 31.8 204.1 31.8L204.1 31.8Q205.0 31.8 205.4 31.4Q205.9 31.1 205.9 30.5ZM211.3 25.0L212.9 30.7L214.4 25.0L216.8 25.0L213.9 33.5L211.8 33.5L208.9 25.0L211.3 25.0ZM221.6 33.6L221.6 33.6Q219.7 33.6 218.6 32.5Q217.4 31.4 217.4 29.5L217.4 29.5L217.4 29.2Q217.4 28.0 217.9 27.0Q218.4 26.0 219.3 25.4Q220.2 24.9 221.3 24.9L221.3 24.9Q223.1 24.9 224.1 26.0Q225.1 27.1 225.1 29.1L225.1 29.1L225.1 30.0L219.7 30.0Q219.8 30.8 220.3 31.3Q220.9 31.8 221.7 31.8L221.7 31.8Q223.0 31.8 223.8 30.9L223.8 30.9L224.9 32.1Q224.4 32.8 223.5 33.2Q222.6 33.6 221.6 33.6ZM221.3 26.7L221.3 26.7Q220.6 26.7 220.2 27.2Q219.8 27.6 219.7 28.5L219.7 28.5L222.8 28.5L222.8 28.3Q222.8 27.5 222.4 27.1Q222.0 26.7 221.3 26.7ZM228.7 21.5L228.7 33.5L226.5 33.5L226.5 21.5L228.7 21.5ZM231.0 23.0L233.3 23.0L233.3 25.0L234.7 25.0L234.7 26.7L233.3 26.7L233.3 30.9Q233.3 31.4 233.5 31.6Q233.6 31.8 234.1 31.8L234.1 31.8Q234.5 31.8 234.8 31.7L234.8 31.7L234.8 33.4Q234.1 33.6 233.4 33.6L233.4 33.6Q231.1 33.6 231.0 31.2L231.0 31.2L231.0 26.7L229.8 26.7L229.8 25.0L231.0 25.0L231.0 23.0ZM239.9 33.6L239.9 33.6Q238.0 33.6 236.8 32.5Q235.7 31.4 235.7 29.5L235.7 29.5L235.7 29.2Q235.7 28.0 236.2 27.0Q236.7 26.0 237.6 25.4Q238.5 24.9 239.6 24.9L239.6 24.9Q241.4 24.9 242.4 26.0Q243.4 27.1 243.4 29.1L243.4 29.1L243.4 30.0L238.0 30.0Q238.1 30.8 238.6 31.3Q239.2 31.8 240.0 31.8L240.0 31.8Q241.3 31.8 242.1 30.9L242.1 30.9L243.2 32.1Q242.7 32.8 241.8 33.2Q240.9 33.6 239.9 33.6ZM239.6 26.7L239.6 26.7Q238.9 26.7 238.5 27.2Q238.1 27.6 238.0 28.5L238.0 28.5L241.1 28.5L241.1 28.3Q241.1 27.5 240.7 27.1Q240.3 26.7 239.6 26.7Z "/><mask id="satori_om-id-1-1-2"><rect x="253" y="18" width="34" height="19" fill="#fff"/></mask><path fill="#7d8590" d="M259.4 22.1L259.6 22.1L259.6 23.3L259.4 23.3Q257.7 23.4 256.7 24.3Q255.7 25.3 255.5 27.1L255.5 27.1Q256.4 26.0 258.0 26.0L258.0 26.0Q259.4 26.0 260.3 27.1Q261.2 28.1 261.2 29.8L261.2 29.8Q261.2 31.5 260.3 32.6Q259.3 33.6 257.7 33.6L257.7 33.6Q256.1 33.6 255.0 32.4Q254.0 31.1 254.0 29.2L254.0 29.2L254.0 28.6Q254.0 25.5 255.4 23.8Q256.7 22.1 259.4 22.1L259.4 22.1ZM257.7 27.2L257.7 27.2Q257.0 27.2 256.4 27.7Q255.7 28.1 255.5 28.8L255.5 28.8L255.5 29.3Q255.5 30.7 256.1 31.6Q256.8 32.4 257.7 32.4L257.7 32.4Q258.7 32.4 259.2 31.7Q259.8 31.0 259.8 29.8L259.8 29.8Q259.8 28.7 259.2 27.9Q258.7 27.2 257.7 27.2ZM263.1 32.7L263.1 32.7Q263.1 32.4 263.3 32.1Q263.6 31.9 264 31.9Q264.4 31.9 264.7 32.1Q264.9 32.4 264.9 32.7L264.9 32.7Q264.9 33.1 264.7 33.3Q264.4 33.6 264 33.6Q263.6 33.6 263.3 33.3Q263.1 33.1 263.1 32.7ZM269.0 28.1L267.8 27.8L268.4 22.1L274.2 22.1L274.2 23.4L269.6 23.4L269.3 26.5Q270.1 26.1 271.2 26.1L271.2 26.1Q272.7 26.1 273.6 27.1Q274.5 28.1 274.5 29.9L274.5 29.9Q274.5 31.6 273.6 32.6Q272.6 33.6 270.9 33.6L270.9 33.6Q269.4 33.6 268.5 32.8Q267.5 32.0 267.4 30.5L267.4 30.5L268.8 30.5Q268.9 31.5 269.5 32.0Q270.0 32.5 270.9 32.5L270.9 32.5Q272.0 32.5 272.5 31.8Q273.1 31.1 273.1 29.9L273.1 29.9Q273.1 28.7 272.5 28.0Q271.9 27.4 270.8 27.4L270.8 27.4Q269.9 27.4 269.3 27.8L269.3 27.8L269.0 28.1ZM276 24.8L276 24.3Q276 23.3 276.7 22.6Q277.3 21.9 278.3 21.9L278.3 21.9Q279.4 21.9 280.0 22.6Q280.7 23.3 280.7 24.3L280.7 24.3L280.7 24.9Q280.7 25.9 280.0 26.6Q279.4 27.2 278.3 27.2L278.3 27.2Q277.3 27.2 276.7 26.6Q276 25.9 276 24.8L276 24.8ZM277.1 24.3L277.1 24.9Q277.1 25.5 277.4 25.9Q277.8 26.3 278.3 26.3L278.3 26.3Q278.9 26.3 279.2 25.9Q279.6 25.5 279.6 24.9L279.6 24.9L279.6 24.3Q279.6 23.7 279.2 23.3Q278.9 22.9 278.3 22.9Q277.8 22.9 277.4 23.3Q277.1 23.7 277.1 24.3L277.1 24.3ZM281.5 31.3L281.5 30.7Q281.5 29.7 282.2 29.0Q282.8 28.4 283.9 28.4Q284.9 28.4 285.5 29.0Q286.2 29.7 286.2 30.7L286.2 30.7L286.2 31.3Q286.2 32.3 285.6 33.0Q284.9 33.6 283.9 33.6Q282.9 33.6 282.2 33.0Q281.5 32.3 281.5 31.3L281.5 31.3ZM282.6 30.7L282.6 31.3Q282.6 31.9 283.0 32.3Q283.3 32.7 283.9 32.7L283.9 32.7Q284.4 32.7 284.8 32.3Q285.1 31.9 285.1 31.3L285.1 31.3L285.1 30.7Q285.1 30.1 284.8 29.7Q284.4 29.3 283.9 29.3L283.9 29.3Q283.3 29.3 283.0 29.7Q282.6 30.1 282.6 30.7L282.6 30.7ZM284.2 23.7L278.7 32.6L277.9 32.1L283.4 23.2L284.2 23.7Z "/><mask id="satori_om-id-1-2"><rect x="0" y="47" width="116" height="19" fill="#fff"/></mask><mask id="satori_om-id-1-2-0"><rect x="0" y="48" width="16" height="16" fill="#fff"/></mask><mask id="satori_om-id-1-2-0-0"><rect x="4" y="52" width="8" height="8" fill="#fff"/></mask><path x="4" y="52" width="8" height="8" fill="#e34c26" d="M8,52 h0 a4,4 0 0 1 4,4 v0 a4,4 0 0 1 -4,4 h0 a4,4 0 0 1 -4,-4 v0 a4,4 0 0 1 4,-4"/><mask id="satori_om-id-1-2-1"><rect x="29" y="47" width="44" height="19" fill="#fff"/></mask><path fill="#fff" d="M39.3 51.1L39.3 62.5L36.9 62.5L36.9 57.6L32.4 57.6L32.4 62.5L30.0 62.5L30.0 51.1L32.4 51.1L32.4 55.7L36.9 55.7L36.9 51.1L39.3 51.1ZM49.7 51.1L49.7 53.0L46.2 53.0L46.2 62.5L43.8 62.5L43.8 53.0L40.4 53.0L40.4 51.1L49.7 51.1ZM51.0 51.1L54.1 51.1L57.0 59.4L59.9 51.1L63.0 51.1L63.0 62.5L60.6 62.5L60.6 59.4L60.8 54.0L57.8 62.5L56.2 62.5L53.1 54.0L53.3 59.4L53.3 62.5L51.0 62.5L51.0 51.1ZM67.4 51.1L67.4 60.6L72.3 60.6L72.3 62.5L65.0 62.5L65.0 51.1L67.4 51.1Z "/><mask id="satori_om-id-1-2-2"><rect x="82" y="47" width="34" height="19" fill="#fff"/></mask><path fill="#7d8590" d="M89.0 51.1L89.0 58.7L90.6 58.7L90.6 59.8L89.0 59.8L89.0 62.5L87.6 62.5L87.6 59.8L82.4 59.8L82.4 59.0L87.5 51.1L89.0 51.1ZM87.4 53.4L84.1 58.7L87.6 58.7L87.6 53.1L87.4 53.4ZM92.1 61.7L92.1 61.7Q92.1 61.4 92.3 61.1Q92.6 60.9 93 60.9Q93.4 60.9 93.7 61.1Q93.9 61.4 93.9 61.7L93.9 61.7Q93.9 62.1 93.7 62.3Q93.4 62.6 93 62.6Q92.6 62.6 92.3 62.3Q92.1 62.1 92.1 61.7ZM103.5 51.1L103.5 51.9L98.8 62.5L97.3 62.5L102.0 52.3L95.8 52.3L95.8 51.1L103.5 51.1ZM105 53.8L105 53.3Q105 52.3 105.7 51.6Q106.3 50.9 107.3 50.9L107.3 50.9Q108.4 50.9 109.0 51.6Q109.7 52.3 109.7 53.3L109.7 53.3L109.7 53.9Q109.7 54.9 109.0 55.6Q108.4 56.2 107.3 56.2L107.3 56.2Q106.3 56.2 105.7 55.6Q105 54.9 105 53.8L105 53.8ZM106.1 53.3L106.1 53.9Q106.1 54.5 106.4 54.9Q106.8 55.3 107.3 55.3L107.3 55.3Q107.9 55.3 108.2 54.9Q108.6 54.5 108.6 53.9L108.6 53.9L108.6 53.3Q108.6 52.7 108.2 52.3Q107.9 51.9 107.3 51.9Q106.8 51.9 106.4 52.3Q106.1 52.7 106.1 53.3L106.1 53.3ZM110.5 60.3L110.5 59.7Q110.5 58.7 111.2 58.0Q111.8 57.4 112.9 57.4Q113.9 57.4 114.5 58.0Q115.2 58.7 115.2 59.7L115.2 59.7L115.2 60.3Q115.2 61.3 114.6 62.0Q113.9 62.6 112.9 62.6Q111.9 62.6 111.2 62.0Q110.5 61.3 110.5 60.3L110.5 60.3ZM111.6 59.7L111.6 60.3Q111.6 60.9 112.0 61.3Q112.3 61.7 112.9 61.7L112.9 61.7Q113.4 61.7 113.8 61.3Q114.1 60.9 114.1 60.3L114.1 60.3L114.1 59.7Q114.1 59.1 113.8 58.7Q113.4 58.3 112.9 58.3L112.9 58.3Q112.3 58.3 112.0 58.7Q111.6 59.1 111.6 59.7L111.6 59.7ZM113.2 52.7L107.7 61.6L106.9 61.1L112.4 52.2L113.2 52.7Z "/><mask id="satori_om-id-1-3"><rect x="126" y="47" width="92" height="19" fill="#fff"/></mask><mask id="satori_om-id-1-3-0"><rect x="126" y="48" width="16" height="16" fill="#fff"/></mask><mask id="satori_om-id-1-3-0-0"><rect x="130" y="52" width="8" height="8" fill="#fff"/></mask><path x="130" y="52" width="8" height="8" fill="#00ADD8" d="M134,52 h0 a4,4 0 0 1 4,4 v0 a4,4 0 0 1 -4,4 h0 a4,4 0 0 1 -4,-4 v0 a4,4 0 0 1 4,-4"/><mask id="satori_om-id-1-3-1"><rect x="155" y="47" width="20" height="19" fill="#fff"/></mask><path fill="#fff" d="M165.0 56.5L165.0 61.0Q164.4 61.8 163.2 62.2Q162.1 62.6 160.7 62.6L160.7 62.6Q159.2 62.6 158.1 62.0Q157.0 61.4 156.4 60.1Q155.8 58.9 155.7 57.2L155.7 57.2L155.7 56.5Q155.7 54.8 156.3 53.5Q156.9 52.3 158.0 51.6Q159.0 51.0 160.5 51.0L160.5 51.0Q162.5 51.0 163.7 51.9Q164.8 52.9 165.0 54.7L165.0 54.7L162.7 54.7Q162.6 53.7 162.0 53.3Q161.5 52.8 160.6 52.8L160.6 52.8Q159.4 52.8 158.8 53.7Q158.1 54.6 158.1 56.4L158.1 56.4L158.1 57.1Q158.1 58.9 158.8 59.8Q159.5 60.8 160.8 60.8L160.8 60.8Q162.1 60.8 162.7 60.2L162.7 60.2L162.7 58.2L160.5 58.2L160.5 56.5L165.0 56.5ZM166.4 58.3L166.4 58.2Q166.4 56.9 166.9 55.9Q167.4 55.0 168.3 54.4Q169.2 53.9 170.4 53.9L170.4 53.9Q172.1 53.9 173.2 54.9Q174.3 56.0 174.4 57.8L174.4 57.8L174.4 58.3Q174.4 60.3 173.3 61.5Q172.3 62.6 170.4 62.6Q168.6 62.6 167.5 61.5Q166.4 60.3 166.4 58.3L166.4 58.3ZM168.7 58.3L168.7 58.3Q168.7 59.5 169.1 60.2Q169.6 60.8 170.4 60.8L170.4 60.8Q171.2 60.8 171.7 60.2Q172.2 59.6 172.2 58.2L172.2 58.2Q172.2 57.0 171.7 56.4Q171.2 55.7 170.4 55.7L170.4 55.7Q169.6 55.7 169.1 56.3Q168.7 57.0 168.7 58.3Z "/><mask id="satori_om-id-1-3-2"><rect x="184" y="47" width="34" height="19" fill="#fff"/></mask><path fill="#7d8590" d="M191.0 51.1L191.0 58.7L192.6 58.7L192.6 59.8L191.0 59.8L191.0 62.5L189.6 62.5L189.6 59.8L184.4 59.8L184.4 59.0L189.5 51.1L191.0 51.1ZM189.4 53.4L186.1 58.7L189.6 58.7L189.6 53.1L189.4 53.4ZM194.1 61.7L194.1 61.7Q194.1 61.4 194.3 61.1Q194.6 60.9 195 60.9Q195.4 60.9 195.7 61.1Q195.9 61.4 195.9 61.7L195.9 61.7Q195.9 62.1 195.7 62.3Q195.4 62.6 195 62.6Q194.6 62.6 194.3 62.3Q194.1 62.1 194.1 61.7ZM200.0 57.1L198.8 56.8L199.4 51.1L205.2 51.1L205.2 52.4L200.6 52.4L200.3 55.5Q201.1 55.1 202.2 55.1L202.2 55.1Q203.7 55.1 204.6 56.1Q205.5 57.1 205.5 58.9L205.5 58.9Q205.5 60.6 204.6 61.6Q203.6 62.6 201.9 62.6L201.9 62.6Q200.4 62.6 199.5 61.8Q198.5 61.0 198.4 59.5L198.4 59.5L199.8 59.5Q199.9 60.5 200.5 61.0Q201.0 61.5 201.9 61.5L201.9 61.5Q203.0 61.5 203.5 60.8Q204.1 60.1 204.1 58.9L204.1 58.9Q204.1 57.7 203.5 57.0Q202.9 56.4 201.8 56.4L201.8 56.4Q200.9 56.4 200.3 56.8L200.3 56.8L200.0 57.1ZM207 53.8L207 53.3Q207 52.3 207.7 51.6Q208.3 50.9 209.3 50.9L209.3 50.9Q210.4 50.9 211.0 51.6Q211.7 52.3 211.7 53.3L211.7 53.3L211.7 53.9Q211.7 54.9 211.0 55.6Q210.4 56.2 209.3 56.2L209.3 56.2Q208.3 56.2 207.7 55.6Q207 54.9 207 53.8L207 53.8ZM208.1 53.3L208.1 53.9Q208.1 54.5 208.4 54.9Q208.8 55.3 209.3 55.3L209.3 55.3Q209.9 55.3 210.2 54.9Q210.6 54.5 210.6 53.9L210.6 53.9L210.6 53.3Q210.6 52.7 210.2 52.3Q209.9 51.9 209.3 51.9Q208.8 51.9 208.4 52.3Q208.1 52.7 208.1 53.3L208.1 53.3ZM212.5 60.3L212.5 59.7Q212.5 58.7 213.2 58.0Q213.8 57.4 214.9 57.4Q215.9 57.4 216.5 58.0Q217.2 58.7 217.2 59.7L217.2 59.7L217.2 60.3Q217.2 61.3 216.6 62.0Q215.9 62.6 214.9 62.6Q213.9 62.6 213.2 62.0Q212.5 61.3 212.5 60.3L212.5 60.3ZM213.6 59.7L213.6 60.3Q213.6 60.9 214.0 61.3Q214.3 61.7 214.9 61.7L214.9 61.7Q215.4 61.7 215.8 61.3Q216.1 60.9 216.1 60.3L216.1 60.3L216.1 59.7Q216.1 59.1 215.8 58.7Q215.4 58.3 214.9 58.3L214.9 58.3Q214.3 58.3 214.0 58.7Q213.6 59.1 213.6 59.7L213.6 59.7ZM215.2 52.7L209.7 61.6L208.9 61.1L214.4 52.2L215.2 52.7Z "/><mask id="satori_om-id-1-4"><rect x="228" y="47" width="123" height="19" fill="#fff"/></mask><mask id="satori_om-id-1-4-0"><rect x="228" y="48" width="16" height="16" fill="#fff"/></mask><mask id="satori_om-id-1-4-0-0"><rect x="232" y="52" width="8" height="8" fill="#fff"/></mask><path x="232" y="52" width="8" height="8" fill="#3572A5" d="M236,52 h0 a4,4 0 0 1 4,4 v0 a4,4 0 0 1 -4,4 h0 a4,4 0 0 1 -4,-4 v0 a4,4 0 0 1 4,-4"/><mask id="satori_om-id-1-4-1"><rect x="257" y="47" width="51" height="19" fill="#fff"/></mask><path fill="#fff" d="M262.4 58.5L260.4 58.5L260.4 62.5L258.0 62.5L258.0 51.1L262.5 51.1Q263.7 51.1 264.7 51.6Q265.7 52.0 266.2 52.9Q266.7 53.8 266.7 54.9L266.7 54.9Q266.7 56.5 265.6 57.5Q264.4 58.5 262.4 58.5L262.4 58.5ZM260.4 53.0L260.4 56.6L262.5 56.6Q263.4 56.6 263.9 56.1Q264.4 55.7 264.4 54.9L264.4 54.9Q264.4 54.1 263.9 53.5Q263.4 53.0 262.5 53.0L262.5 53.0L260.4 53.0ZM269.9 54.0L271.5 59.3L273.0 54.0L275.4 54.0L272.0 63.8L271.9 64.2Q271.1 65.9 269.4 65.9L269.4 65.9Q268.9 65.9 268.4 65.7L268.4 65.7L268.4 64.0L268.7 64.0Q269.3 64.0 269.7 63.9Q270.0 63.7 270.2 63.2L270.2 63.2L270.4 62.5L267.5 54.0L269.9 54.0ZM276.8 52.0L279.0 52.0L279.0 54.0L280.5 54.0L280.5 55.7L279.0 55.7L279.0 59.9Q279.0 60.4 279.2 60.6Q279.4 60.8 279.9 60.8L279.9 60.8Q280.3 60.8 280.6 60.7L280.6 60.7L280.6 62.4Q279.9 62.6 279.2 62.6L279.2 62.6Q276.8 62.6 276.8 60.2L276.8 60.2L276.8 55.7L275.5 55.7L275.5 54.0L276.8 54.0L276.8 52.0ZM283.9 50.5L283.9 55.0Q284.8 53.9 286.2 53.9L286.2 53.9Q289.0 53.9 289.0 57.1L289.0 57.1L289.0 62.5L286.7 62.5L286.7 57.1Q286.7 56.4 286.4 56.1Q286.1 55.7 285.4 55.7L285.4 55.7Q284.4 55.7 283.9 56.5L283.9 56.5L283.9 62.5L281.7 62.5L281.7 50.5L283.9 50.5ZM290.3 58.3L290.3 58.2Q290.3 56.9 290.8 55.9Q291.3 55.0 292.2 54.4Q293.1 53.9 294.3 53.9L294.3 53.9Q296.0 53.9 297.1 54.9Q298.2 56.0 298.3 57.8L298.3 57.8L298.4 58.3Q298.4 60.3 297.3 61.5Q296.2 62.6 294.4 62.6Q292.5 62.6 291.4 61.5Q290.3 60.3 290.3 58.3L290.3 58.3ZM292.6 58.3L292.6 58.3Q292.6 59.5 293.1 60.2Q293.5 60.8 294.4 60.8L294.4 60.8Q295.2 60.8 295.6 60.2Q296.1 59.6 296.1 58.2L296.1 58.2Q296.1 57.0 295.6 56.4Q295.2 55.7 294.3 55.7L294.3 55.7Q293.5 55.7 293.1 56.3Q292.6 57.0 292.6 58.3ZM299.7 54.0L301.8 54.0L301.9 55.0Q302.8 53.9 304.3 53.9L304.3 53.9Q305.7 53.9 306.3 54.7Q307.0 55.5 307.0 57.0L307.0 57.0L307.0 62.5L304.7 62.5L304.7 57.1Q304.7 56.4 304.4 56.0Q304.1 55.7 303.4 55.7L303.4 55.7Q302.4 55.7 302.0 56.5L302.0 56.5L302.0 62.5L299.7 62.5L299.7 54.0Z "/><mask id="satori_om-id-1-4-2"><rect x="317" y="47" width="34" height="19" fill="#fff"/></mask><path fill="#7d8590" d="M320.0 57.3L320.0 56.1L321.1 56.1Q322.2 56.1 322.7 55.6Q323.3 55.0 323.3 54.1L323.3 54.1Q323.3 52.1 321.3 52.1L321.3 52.1Q320.4 52.1 319.8 52.7Q319.3 53.2 319.3 54.1L319.3 54.1L317.8 54.1Q317.8 52.7 318.8 51.8Q319.8 51.0 321.3 51.0L321.3 51.0Q322.9 51.0 323.9 51.8Q324.8 52.7 324.8 54.2L324.8 54.2Q324.8 54.9 324.3 55.6Q323.8 56.3 323.0 56.6L323.0 56.6Q323.9 56.9 324.4 57.6Q324.9 58.3 324.9 59.3L324.9 59.3Q324.9 60.8 323.9 61.7Q322.9 62.6 321.3 62.6Q319.7 62.6 318.7 61.8Q317.7 60.9 317.7 59.5L317.7 59.5L319.2 59.5Q319.2 60.4 319.8 60.9Q320.4 61.5 321.3 61.5L321.3 61.5Q322.4 61.5 322.9 60.9Q323.5 60.4 323.5 59.3L323.5 59.3Q323.5 58.4 322.9 57.8Q322.3 57.3 321.1 57.3L321.1 57.3L320.0 57.3ZM327.1 61.7L327.1 61.7Q327.1 61.4 327.3 61.1Q327.6 60.9 328 60.9Q328.4 60.9 328.7 61.1Q328.9 61.4 328.9 61.7L328.9 61.7Q328.9 62.1 328.7 62.3Q328.4 62.6 328 62.6Q327.6 62.6 327.3 62.3Q327.1 62.1 327.1 61.7ZM338.5 51.1L338.5 51.9L333.8 62.5L332.3 62.5L337.0 52.3L330.8 52.3L330.8 51.1L338.5 51.1ZM340 53.8L340 53.3Q340 52.3 340.7 51.6Q341.3 50.9 342.3 50.9L342.3 50.9Q343.4 50.9 344.0 51.6Q344.7 52.3 344.7 53.3L344.7 53.3L344.7 53.9Q344.7 54.9 344.0 55.6Q343.4 56.2 342.3 56.2L342.3 56.2Q341.3 56.2 340.7 55.6Q340 54.9 340 53.8L340 53.8ZM341.1 53.3L341.1 53.9Q341.1 54.5 341.4 54.9Q341.8 55.3 342.3 55.3L342.3 55.3Q342.9 55.3 343.2 54.9Q343.6 54.5 343.6 53.9L343.6 53.9L343.6 53.3Q343.6 52.7 343.2 52.3Q342.9 51.9 342.3 51.9Q341.8 51.9 341.4 52.3Q341.1 52.7 341.1 53.3L341.1 53.3ZM345.5 60.3L345.5 59.7Q345.5 58.7 346.2 58.0Q346.8 57.4 347.9 57.4Q348.9 57.4 349.5 58.0Q350.2 58.7 350.2 59.7L350.2 59.7L350.2 60.3Q350.2 61.3 349.6 62.0Q348.9 62.6 347.9 62.6Q346.9 62.6 346.2 62.0Q345.5 61.3 345.5 60.3L345.5 60.3ZM346.6 59.7L346.6 60.3Q346.6 60.9 347.0 61.3Q347.3 61.7 347.9 61.7L347.9 61.7Q348.4 61.7 348.8 61.3Q349.1 60.9 349.1 60.3L349.1 60.3L349.1 59.7Q349.1 59.1 348.8 58.7Q348.4 58.3 347.9 58.3L347.9 58.3Q347.3 58.3 347.0 58.7Q346.6 59.1 346.6 59.7L346.6 59.7ZM348.2 52.7L342.7 61.6L341.9 61.1L347.4 52.2L348.2 52.7Z "/><mask id="satori_om-id-1-5"><rect x="0" y="76" width="149" height="18" fill="#fff"/></mask><mask id="satori_om-id-1-5-0"><rect x="0" y="77" width="16" height="16" fill="#fff"/></mask><mask id="satori_om-id-1-5-0-0"><rect x="4" y="81" width="8" height="8" fill="#fff"/></mask><path x="4" y="81" width="8" height="8" fill="#f1e05a" d="M8,81 h0 a4,4 0 0 1 4,4 v0 a4,4 0 0 1 -4,4 h0 a4,4 0 0 1 -4,-4 v0 a4,4 0 0 1 4,-4"/><mask id="satori_om-id-1-5-1"><rect x="29" y="76" width="77" height="18" fill="#fff"/></mask><path fill="#fff" d="M34.6 88.0L34.6 80.1L36.9 80.1L36.9 88.0Q36.9 89.1 36.5 89.9Q36.0 90.7 35.1 91.2Q34.2 91.6 33.1 91.6L33.1 91.6Q31.3 91.6 30.3 90.7Q29.3 89.8 29.3 88.1L29.3 88.1L31.7 88.1Q31.7 89.0 32.0 89.4Q32.4 89.8 33.1 89.8L33.1 89.8Q33.8 89.8 34.2 89.3Q34.6 88.8 34.6 88.0L34.6 88.0ZM46.0 91.5L43.7 91.5Q43.5 91.2 43.5 90.7L43.5 90.7Q42.7 91.6 41.3 91.6L41.3 91.6Q40.1 91.6 39.3 90.9Q38.5 90.2 38.5 89.1L38.5 89.1Q38.5 87.8 39.5 87.0Q40.5 86.3 42.3 86.3L42.3 86.3L43.4 86.3L43.4 85.8Q43.4 85.2 43.1 84.9Q42.8 84.5 42.1 84.5L42.1 84.5Q41.6 84.5 41.2 84.8Q40.9 85.1 40.9 85.6L40.9 85.6L38.7 85.6Q38.7 84.8 39.1 84.2Q39.6 83.6 40.4 83.2Q41.2 82.9 42.3 82.9L42.3 82.9Q43.8 82.9 44.7 83.7Q45.6 84.4 45.6 85.9L45.6 85.9L45.6 89.5Q45.7 90.7 46.0 91.4L46.0 91.4L46.0 91.5ZM41.8 89.9L41.8 89.9Q42.3 89.9 42.8 89.7Q43.2 89.5 43.4 89.1L43.4 89.1L43.4 87.6L42.5 87.6Q40.8 87.6 40.7 88.8L40.7 88.8L40.7 88.9Q40.7 89.4 41.0 89.6Q41.3 89.9 41.8 89.9ZM48.9 83.0L50.4 88.7L52 83.0L54.4 83.0L51.5 91.5L49.4 91.5L46.5 83.0L48.9 83.0ZM62.4 91.5L60.1 91.5Q60.0 91.2 59.9 90.7L59.9 90.7Q59.1 91.6 57.8 91.6L57.8 91.6Q56.5 91.6 55.7 90.9Q54.9 90.2 54.9 89.1L54.9 89.1Q54.9 87.8 55.9 87.0Q56.9 86.3 58.8 86.3L58.8 86.3L59.8 86.3L59.8 85.8Q59.8 85.2 59.5 84.9Q59.2 84.5 58.6 84.5L58.6 84.5Q58.0 84.5 57.7 84.8Q57.3 85.1 57.3 85.6L57.3 85.6L55.1 85.6Q55.1 84.8 55.5 84.2Q56.0 83.6 56.8 83.2Q57.6 82.9 58.7 82.9L58.7 82.9Q60.2 82.9 61.2 83.7Q62.1 84.4 62.1 85.9L62.1 85.9L62.1 89.5Q62.1 90.7 62.4 91.4L62.4 91.4L62.4 91.5ZM58.3 89.9L58.3 89.9Q58.8 89.9 59.2 89.7Q59.6 89.5 59.8 89.1L59.8 89.1L59.8 87.6L59.0 87.6Q57.3 87.6 57.2 88.8L57.2 88.8L57.2 88.9Q57.2 89.4 57.5 89.6Q57.8 89.9 58.3 89.9ZM69.9 88.5L69.9 88.5Q69.9 87.8 69.4 87.5Q68.9 87.1 67.7 86.7Q66.5 86.3 65.8 86.0L65.8 86.0Q63.8 84.9 63.8 83.1L63.8 83.1Q63.8 82.2 64.4 81.5Q64.9 80.8 65.8 80.4Q66.8 80.0 68.0 80.0L68.0 80.0Q69.3 80.0 70.2 80.4Q71.2 80.8 71.7 81.6Q72.2 82.4 72.2 83.5L72.2 83.5L69.9 83.5Q69.9 82.7 69.4 82.3Q68.9 81.8 68.0 81.8L68.0 81.8Q67.1 81.8 66.7 82.2Q66.2 82.5 66.2 83.1L66.2 83.1Q66.2 83.7 66.7 84.1Q67.3 84.4 68.4 84.8L68.4 84.8Q70.4 85.4 71.3 86.3Q72.2 87.2 72.2 88.5L72.2 88.5Q72.2 90.0 71.1 90.8Q70.0 91.6 68.1 91.6L68.1 91.6Q66.8 91.6 65.7 91.2Q64.6 90.7 64.1 89.8Q63.5 89.0 63.5 87.9L63.5 87.9L65.8 87.9Q65.8 89.8 68.1 89.8L68.1 89.8Q68.9 89.8 69.4 89.4Q69.9 89.1 69.9 88.5ZM77.2 89.8L77.2 89.8Q77.8 89.8 78.2 89.5Q78.6 89.1 78.6 88.6L78.6 88.6L80.7 88.6Q80.7 89.4 80.2 90.1Q79.8 90.9 79.0 91.2Q78.2 91.6 77.2 91.6L77.2 91.6Q75.4 91.6 74.3 90.5Q73.3 89.3 73.3 87.3L73.3 87.3L73.3 87.2Q73.3 85.2 74.3 84.0Q75.4 82.9 77.2 82.9L77.2 82.9Q78.8 82.9 79.7 83.8Q80.7 84.7 80.7 86.2L80.7 86.2L78.6 86.2Q78.6 85.5 78.2 85.1Q77.8 84.7 77.1 84.7L77.1 84.7Q76.4 84.7 76.0 85.3Q75.6 85.9 75.6 87.1L75.6 87.1L75.6 87.4Q75.6 88.7 76.0 89.2Q76.4 89.8 77.2 89.8ZM86.8 83.0L86.7 85.1Q86.3 85.1 85.9 85.1L85.9 85.1Q84.6 85.1 84.3 86.0L84.3 86.0L84.3 91.5L82.0 91.5L82.0 83.0L84.1 83.0L84.2 84.0Q84.9 82.9 86.1 82.9L86.1 82.9Q86.4 82.9 86.8 83.0L86.8 83.0ZM90.2 83.0L90.2 91.5L87.9 91.5L87.9 83.0L90.2 83.0ZM87.8 80.8L87.8 80.8Q87.8 80.3 88.2 80.0Q88.5 79.7 89.1 79.7L89.1 79.7Q89.7 79.7 90 80.0Q90.3 80.3 90.3 80.8L90.3 80.8Q90.3 81.4 90.0 81.7Q89.6 82.0 89.1 82.0Q88.5 82.0 88.2 81.7Q87.8 81.4 87.8 80.8ZM99.7 87.2L99.7 87.3Q99.7 89.3 98.8 90.5Q97.9 91.6 96.4 91.6L96.4 91.6Q95.1 91.6 94.3 90.7L94.3 90.7L94.3 94.7L92.1 94.7L92.1 83.0L94.2 83.0L94.2 83.9Q95.1 82.9 96.4 82.9L96.4 82.9Q97.9 82.9 98.8 84.0Q99.7 85.2 99.7 87.2L99.7 87.2ZM97.4 87.2L97.4 87.2Q97.4 86.0 97.0 85.4Q96.6 84.7 95.8 84.7L95.8 84.7Q94.7 84.7 94.3 85.5L94.3 85.5L94.3 89.0Q94.7 89.8 95.8 89.8L95.8 89.8Q97.4 89.8 97.4 87.2ZM101.5 81.0L103.8 81.0L103.8 83.0L105.2 83.0L105.2 84.7L103.8 84.7L103.8 88.9Q103.8 89.4 104.0 89.6Q104.1 89.8 104.6 89.8L104.6 89.8Q105.0 89.8 105.3 89.7L105.3 89.7L105.3 91.4Q104.6 91.6 103.9 91.6L103.9 91.6Q101.6 91.6 101.5 89.2L101.5 89.2L101.5 84.7L100.3 84.7L100.3 83.0L101.5 83.0L101.5 81.0Z "/><mask id="satori_om-id-1-5-2"><rect x="115" y="76" width="34" height="18" fill="#fff"/></mask><path fill="#7d8590" d="M118.0 86.3L118.0 85.1L119.1 85.1Q120.2 85.1 120.7 84.6Q121.3 84.0 121.3 83.1L121.3 83.1Q121.3 81.1 119.3 81.1L119.3 81.1Q118.4 81.1 117.8 81.7Q117.3 82.2 117.3 83.1L117.3 83.1L115.8 83.1Q115.8 81.7 116.8 80.8Q117.8 80.0 119.3 80.0L119.3 80.0Q120.9 80.0 121.9 80.8Q122.8 81.7 122.8 83.2L122.8 83.2Q122.8 83.9 122.3 84.6Q121.8 85.3 121.0 85.6L121.0 85.6Q121.9 85.9 122.4 86.6Q122.9 87.3 122.9 88.3L122.9 88.3Q122.9 89.8 121.9 90.7Q120.9 91.6 119.3 91.6Q117.7 91.6 116.7 90.8Q115.7 89.9 115.7 88.5L115.7 88.5L117.2 88.5Q117.2 89.4 117.8 89.9Q118.4 90.5 119.3 90.5L119.3 90.5Q120.4 90.5 120.9 89.9Q121.5 89.4 121.5 88.3L121.5 88.3Q121.5 87.4 120.9 86.8Q120.3 86.3 119.1 86.3L119.1 86.3L118.0 86.3ZM125.1 90.7L125.1 90.7Q125.1 90.4 125.3 90.1Q125.6 89.9 126 89.9Q126.4 89.9 126.7 90.1Q126.9 90.4 126.9 90.7L126.9 90.7Q126.9 91.1 126.7 91.3Q126.4 91.6 126 91.6Q125.6 91.6 125.3 91.3Q125.1 91.1 125.1 90.7ZM131.0 86.1L129.8 85.8L130.4 80.1L136.2 80.1L136.2 81.4L131.6 81.4L131.3 84.5Q132.1 84.1 133.2 84.1L133.2 84.1Q134.7 84.1 135.6 85.1Q136.5 86.1 136.5 87.9L136.5 87.9Q136.5 89.6 135.6 90.6Q134.6 91.6 132.9 91.6L132.9 91.6Q131.4 91.6 130.5 90.8Q129.5 90.0 129.4 88.5L129.4 88.5L130.8 88.5Q130.9 89.5 131.5 90.0Q132.0 90.5 132.9 90.5L132.9 90.5Q134.0 90.5 134.5 89.8Q135.1 89.1 135.1 87.9L135.1 87.9Q135.1 86.7 134.5 86.0Q133.9 85.4 132.8 85.4L132.8 85.4Q131.9 85.4 131.3 85.8L131.3 85.8L131.0 86.1ZM138 82.8L138 82.3Q138 81.3 138.7 80.6Q139.3 79.9 140.3 79.9L140.3 79.9Q141.4 79.9 142.0 80.6Q142.7 81.3 142.7 82.3L142.7 82.3L142.7 82.9Q142.7 83.9 142.0 84.6Q141.4 85.2 140.3 85.2L140.3 85.2Q139.3 85.2 138.7 84.6Q138 83.9 138 82.8L138 82.8ZM139.1 82.3L139.1 82.9Q139.1 83.5 139.4 83.9Q139.8 84.3 140.3 84.3L140.3 84.3Q140.9 84.3 141.2 83.9Q141.6 83.5 141.6 82.9L141.6 82.9L141.6 82.3Q141.6 81.7 141.2 81.3Q140.9 80.9 140.3 80.9Q139.8 80.9 139.4 81.3Q139.1 81.7 139.1 82.3L139.1 82.3ZM143.5 89.3L143.5 88.7Q143.5 87.7 144.2 87.0Q144.8 86.4 145.9 86.4Q146.9 86.4 147.5 87.0Q148.2 87.7 148.2 88.7L148.2 88.7L148.2 89.3Q148.2 90.3 147.6 91.0Q146.9 91.6 145.9 91.6Q144.9 91.6 144.2 91.0Q143.5 90.3 143.5 89.3L143.5 89.3ZM144.6 88.7L144.6 89.3Q144.6 89.9 145.0 90.3Q145.3 90.7 145.9 90.7L145.9 90.7Q146.4 90.7 146.8 90.3Q147.1 89.9 147.1 89.3L147.1 89.3L147.1 88.7Q147.1 88.1 146.8 87.7Q146.4 87.3 145.9 87.3L145.9 87.3Q145.3 87.3 145.0 87.7Q144.6 88.1 144.6 88.7L144.6 88.7ZM146.2 81.7L140.7 90.6L139.9 90.1L145.4 81.2L146.2 81.7Z "/><mask id="satori_om-id-1-6"><rect x="159" y="76" width="112" height="18" fill="#fff"/></mask><mask id="satori_om-id-1-6-0"><rect x="159" y="77" width="16" height="16" fill="#fff"/></mask><mask id="satori_om-id-1-6-0-0"><rect x="163" y="81" width="8" height="8" fill="#fff"/></mask><path x="163" y="81" width="8" height="8" fill="#ff5a03" d="M167,81 h0 a4,4 0 0 1 4,4 v0 a4,4 0 0 1 -4,4 h0 a4,4 0 0 1 -4,-4 v0 a4,4 0 0 1 4,-4"/><mask id="satori_om-id-1-6-1"><rect x="188" y="76" width="40" height="18" fill="#fff"/></mask><path fill="#fff" d="M196.2 91.5L195.4 89.1L191.3 89.1L190.5 91.5L188.1 91.5L192.3 80.1L194.5 80.1L198.7 91.5L196.2 91.5ZM193.4 83.0L192.0 87.2L194.8 87.2L193.4 83.0ZM204.2 89.1L204.2 89.1Q204.2 88.7 203.8 88.5Q203.4 88.3 202.5 88.1L202.5 88.1Q199.5 87.4 199.5 85.5L199.5 85.5Q199.5 84.4 200.4 83.6Q201.3 82.9 202.8 82.9L202.8 82.9Q204.5 82.9 205.4 83.6Q206.4 84.4 206.4 85.6L206.4 85.6L204.1 85.6Q204.1 85.1 203.8 84.8Q203.5 84.5 202.8 84.5L202.8 84.5Q202.3 84.5 202.0 84.7Q201.6 85.0 201.6 85.4L201.6 85.4Q201.6 85.8 202.0 86.0Q202.4 86.2 203.2 86.4Q204.0 86.6 204.6 86.8L204.6 86.8Q206.4 87.4 206.4 89.1L206.4 89.1Q206.4 90.2 205.4 90.9Q204.4 91.6 202.9 91.6L202.9 91.6Q201.8 91.6 201.0 91.3Q200.1 90.9 199.7 90.2Q199.2 89.6 199.2 88.8L199.2 88.8L201.3 88.8Q201.4 89.4 201.8 89.7Q202.2 90.0 202.9 90.0L202.9 90.0Q203.5 90.0 203.9 89.8Q204.2 89.5 204.2 89.1ZM208.3 81.0L210.6 81.0L210.6 83.0L212.0 83.0L212.0 84.7L210.6 84.7L210.6 88.9Q210.6 89.4 210.7 89.6Q210.9 89.8 211.4 89.8L211.4 89.8Q211.8 89.8 212.1 89.7L212.1 89.7L212.1 91.4Q211.4 91.6 210.7 91.6L210.7 91.6Q208.4 91.6 208.3 89.2L208.3 89.2L208.3 84.7L207.1 84.7L207.1 83.0L208.3 83.0L208.3 81.0ZM218.0 83.0L218.0 85.1Q217.6 85.1 217.2 85.1L217.2 85.1Q215.9 85.1 215.5 86.0L215.5 86.0L215.5 91.5L213.3 91.5L213.3 83.0L215.4 83.0L215.5 84.0Q216.1 82.9 217.3 82.9L217.3 82.9Q217.7 82.9 218.0 83.0L218.0 83.0ZM218.5 87.3L218.5 87.2Q218.5 85.9 219.0 84.9Q219.4 84.0 220.3 83.4Q221.3 82.9 222.5 82.9L222.5 82.9Q224.2 82.9 225.3 83.9Q226.3 85.0 226.5 86.8L226.5 86.8L226.5 87.3Q226.5 89.3 225.4 90.5Q224.3 91.6 222.5 91.6Q220.6 91.6 219.6 90.5Q218.5 89.3 218.5 87.3L218.5 87.3ZM220.7 87.3L220.7 87.3Q220.7 88.5 221.2 89.2Q221.6 89.8 222.5 89.8L222.5 89.8Q223.3 89.8 223.8 89.2Q224.2 88.6 224.2 87.2L224.2 87.2Q224.2 86.0 223.8 85.4Q223.3 84.7 222.5 84.7L222.5 84.7Q221.6 84.7 221.2 85.3Q220.7 86.0 220.7 87.3Z "/><mask id="satori_om-id-1-6-2"><rect x="237" y="76" width="34" height="18" fill="#fff"/></mask><path fill="#7d8590" d="M240.0 86.3L240.0 85.1L241.1 85.1Q242.2 85.1 242.7 84.6Q243.3 84.0 243.3 83.1L243.3 83.1Q243.3 81.1 241.3 81.1L241.3 81.1Q240.4 81.1 239.8 81.7Q239.3 82.2 239.3 83.1L239.3 83.1L237.8 83.1Q237.8 81.7 238.8 80.8Q239.8 80.0 241.3 80.0L241.3 80.0Q242.9 80.0 243.9 80.8Q244.8 81.7 244.8 83.2L244.8 83.2Q244.8 83.9 244.3 84.6Q243.8 85.3 243.0 85.6L243.0 85.6Q243.9 85.9 244.4 86.6Q244.9 87.3 244.9 88.3L244.9 88.3Q244.9 89.8 243.9 90.7Q242.9 91.6 241.3 91.6Q239.7 91.6 238.7 90.8Q237.7 89.9 237.7 88.5L237.7 88.5L239.2 88.5Q239.2 89.4 239.8 89.9Q240.4 90.5 241.3 90.5L241.3 90.5Q242.4 90.5 242.9 89.9Q243.5 89.4 243.5 88.3L243.5 88.3Q243.5 87.4 242.9 86.8Q242.3 86.3 241.1 86.3L241.1 86.3L240.0 86.3ZM247.1 90.7L247.1 90.7Q247.1 90.4 247.3 90.1Q247.6 89.9 248 89.9Q248.4 89.9 248.7 90.1Q248.9 90.4 248.9 90.7L248.9 90.7Q248.9 91.1 248.7 91.3Q248.4 91.6 248 91.6Q247.6 91.6 247.3 91.3Q247.1 91.1 247.1 90.7ZM258.3 84.8L258.3 86.6Q258.3 89.2 257.4 90.4Q256.5 91.6 254.7 91.6L254.7 91.6Q252.9 91.6 252 90.4Q251.1 89.2 251.1 86.8L251.1 86.8L251.1 84.9Q251.1 82.4 252.0 81.2Q252.8 80.0 254.7 80.0L254.7 80.0Q256.5 80.0 257.4 81.1Q258.3 82.3 258.3 84.8L258.3 84.8ZM256.8 87.0L256.8 84.7Q256.8 82.8 256.3 82.0Q255.8 81.1 254.7 81.1L254.7 81.1Q253.6 81.1 253.1 82.0Q252.6 82.8 252.5 84.5L252.5 84.5L252.5 86.9Q252.5 88.7 253.1 89.6Q253.6 90.5 254.7 90.5L254.7 90.5Q255.8 90.5 256.3 89.6Q256.8 88.8 256.8 87.0L256.8 87.0ZM260 82.8L260 82.3Q260 81.3 260.7 80.6Q261.3 79.9 262.3 79.9L262.3 79.9Q263.4 79.9 264.0 80.6Q264.7 81.3 264.7 82.3L264.7 82.3L264.7 82.9Q264.7 83.9 264.0 84.6Q263.4 85.2 262.3 85.2L262.3 85.2Q261.3 85.2 260.7 84.6Q260 83.9 260 82.8L260 82.8ZM261.1 82.3L261.1 82.9Q261.1 83.5 261.4 83.9Q261.8 84.3 262.3 84.3L262.3 84.3Q262.9 84.3 263.2 83.9Q263.6 83.5 263.6 82.9L263.6 82.9L263.6 82.3Q263.6 81.7 263.2 81.3Q262.9 80.9 262.3 80.9Q261.8 80.9 261.4 81.3Q261.1 81.7 261.1 82.3L261.1 82.3ZM265.5 89.3L265.5 88.7Q265.5 87.7 266.2 87.0Q266.8 86.4 267.9 86.4Q268.9 86.4 269.5 87.0Q270.2 87.7 270.2 88.7L270.2 88.7L270.2 89.3Q270.2 90.3 269.6 91.0Q268.9 91.6 267.9 91.6Q266.9 91.6 266.2 91.0Q265.5 90.3 265.5 89.3L265.5 89.3ZM266.6 88.7L266.6 89.3Q266.6 89.9 267.0 90.3Q267.3 90.7 267.9 90.7L267.9 90.7Q268.4 90.7 268.8 90.3Q269.1 89.9 269.1 89.3L269.1 89.3L269.1 88.7Q269.1 88.1 268.8 87.7Q268.4 87.3 267.9 87.3L267.9 87.3Q267.3 87.3 267.0 87.7Q266.6 88.1 266.6 88.7L266.6 88.7ZM268.2 81.7L262.7 90.6L261.9 90.1L267.4 81.2L268.2 81.7Z "/><mask id="satori_om-id-1-7"><rect x="0" y="104" width="103" height="19" fill="#fff"/></mask><mask id="satori_om-id-1-7-0"><rect x="0" y="105" width="16" height="16" fill="#fff"/></mask><mask id="satori_om-id-1-7-0-0"><rect x="4" y="109" width="8" height="8" fill="#fff"/></mask><path x="4" y="109" width="8" height="8" fill="#844FBA" d="M8,109 h0 a4,4 0 0 1 4,4 v0 a4,4 0 0 1 -4,4 h0 a4,4 0 0 1 -4,-4 v0 a4,4 0 0 1 4,-4"/><mask id="satori_om-id-1-7-1"><rect x="29" y="104" width="31" height="19" fill="#fff"/></mask><path fill="#fff" d="M39.3 108.1L39.3 119.5L36.9 119.5L36.9 114.6L32.4 114.6L32.4 119.5L30.0 119.5L30.0 108.1L32.4 108.1L32.4 112.7L36.9 112.7L36.9 108.1L39.3 108.1ZM47.9 115.7L50.3 115.7Q50.1 117.5 48.9 118.6Q47.7 119.6 45.7 119.6L45.7 119.6Q43.5 119.6 42.2 118.2Q41.0 116.7 41.0 114.1L41.0 114.1L41.0 113.4Q41.0 111.8 41.6 110.5Q42.1 109.3 43.2 108.6Q44.3 108.0 45.7 108.0L45.7 108.0Q47.7 108.0 48.9 109.0Q50.1 110.1 50.3 112.0L50.3 112.0L47.9 112.0Q47.8 110.9 47.3 110.4Q46.8 109.9 45.7 109.9L45.7 109.9Q44.5 109.9 43.9 110.7Q43.4 111.6 43.4 113.3L43.4 113.3L43.4 114.2Q43.4 116.0 43.9 116.9Q44.5 117.7 45.7 117.7L45.7 117.7Q46.8 117.7 47.3 117.2Q47.8 116.7 47.9 115.7L47.9 115.7ZM54.1 108.1L54.1 117.6L59.1 117.6L59.1 119.5L51.8 119.5L51.8 108.1L54.1 108.1Z "/><mask id="satori_om-id-1-7-2"><rect x="69" y="104" width="34" height="19" fill="#fff"/></mask><path fill="#7d8590" d="M77.1 112.8L77.1 114.6Q77.1 117.2 76.2 118.4Q75.3 119.6 73.5 119.6L73.5 119.6Q71.7 119.6 70.8 118.4Q69.9 117.2 69.9 114.8L69.9 114.8L69.9 112.9Q69.9 110.4 70.8 109.2Q71.6 108.0 73.5 108.0L73.5 108.0Q75.3 108.0 76.2 109.1Q77.1 110.3 77.1 112.8L77.1 112.8ZM75.6 115.0L75.6 112.7Q75.6 110.8 75.1 110.0Q74.6 109.1 73.5 109.1L73.5 109.1Q72.4 109.1 71.9 110.0Q71.4 110.8 71.3 112.5L71.3 112.5L71.3 114.9Q71.3 116.7 71.9 117.6Q72.4 118.5 73.5 118.5L73.5 118.5Q74.6 118.5 75.1 117.6Q75.6 116.8 75.6 115.0L75.6 115.0ZM79.1 118.7L79.1 118.7Q79.1 118.4 79.3 118.1Q79.6 117.9 80 117.9Q80.4 117.9 80.7 118.1Q80.9 118.4 80.9 118.7L80.9 118.7Q80.9 119.1 80.7 119.3Q80.4 119.6 80 119.6Q79.6 119.6 79.3 119.3Q79.1 119.1 79.1 118.7ZM88.6 108.1L88.8 108.1L88.8 109.3L88.5 109.3Q86.9 109.4 85.9 110.3Q84.9 111.3 84.7 113.1L84.7 113.1Q85.6 112.0 87.2 112.0L87.2 112.0Q88.6 112.0 89.5 113.1Q90.4 114.1 90.4 115.8L90.4 115.8Q90.4 117.5 89.5 118.6Q88.5 119.6 86.9 119.6L86.9 119.6Q85.3 119.6 84.2 118.4Q83.2 117.1 83.2 115.2L83.2 115.2L83.2 114.6Q83.2 111.5 84.6 109.8Q85.9 108.1 88.6 108.1L88.6 108.1ZM86.9 113.2L86.9 113.2Q86.2 113.2 85.5 113.7Q84.9 114.1 84.7 114.8L84.7 114.8L84.7 115.3Q84.7 116.7 85.3 117.6Q85.9 118.4 86.9 118.4L86.9 118.4Q87.9 118.4 88.4 117.7Q89.0 117.0 89.0 115.8L89.0 115.8Q89.0 114.7 88.4 113.9Q87.9 113.2 86.9 113.2ZM92 110.8L92 110.3Q92 109.3 92.7 108.6Q93.3 107.9 94.3 107.9L94.3 107.9Q95.4 107.9 96.0 108.6Q96.7 109.3 96.7 110.3L96.7 110.3L96.7 110.9Q96.7 111.9 96.0 112.6Q95.4 113.2 94.3 113.2L94.3 113.2Q93.3 113.2 92.7 112.6Q92 111.9 92 110.8L92 110.8ZM93.1 110.3L93.1 110.9Q93.1 111.5 93.4 111.9Q93.8 112.3 94.3 112.3L94.3 112.3Q94.9 112.3 95.2 111.9Q95.6 111.5 95.6 110.9L95.6 110.9L95.6 110.3Q95.6 109.7 95.2 109.3Q94.9 108.9 94.3 108.9Q93.8 108.9 93.4 109.3Q93.1 109.7 93.1 110.3L93.1 110.3ZM97.5 117.3L97.5 116.7Q97.5 115.7 98.2 115.0Q98.8 114.4 99.9 114.4Q100.9 114.4 101.5 115.0Q102.2 115.7 102.2 116.7L102.2 116.7L102.2 117.3Q102.2 118.3 101.6 119.0Q100.9 119.6 99.9 119.6Q98.9 119.6 98.2 119.0Q97.5 118.3 97.5 117.3L97.5 117.3ZM98.6 116.7L98.6 117.3Q98.6 117.9 99.0 118.3Q99.3 118.7 99.9 118.7L99.9 118.7Q100.4 118.7 100.8 118.3Q101.1 117.9 101.1 117.3L101.1 117.3L101.1 116.7Q101.1 116.1 100.8 115.7Q100.4 115.3 99.9 115.3L99.9 115.3Q99.3 115.3 99.0 115.7Q98.6 116.1 98.6 116.7L98.6 116.7ZM100.2 109.7L94.7 118.6L93.9 118.1L99.4 109.2L100.2 109.7Z "/><mask id="satori_om-id-1-8"><rect x="113" y="104" width="103" height="19" fill="#fff"/></mask><mask id="satori_om-id-1-8-0"><rect x="113" y="105" width="16" height="16" fill="#fff"/></mask><mask id="satori_om-id-1-8-0-0"><rect x="117" y="109" width="8" height="8" fill="#fff"/></mask><path x="117" y="109" width="8" height="8" fill="#563d7c" d="M121,109 h0 a4,4 0 0 1 4,4 v0 a4,4 0 0 1 -4,4 h0 a4,4 0 0 1 -4,-4 v0 a4,4 0 0 1 4,-4"/><mask id="satori_om-id-1-8-1"><rect x="142" y="104" width="31" height="19" fill="#fff"/></mask><path fill="#fff" d="M149.6 115.7L151.9 115.7Q151.8 117.5 150.6 118.6Q149.4 119.6 147.4 119.6L147.4 119.6Q145.2 119.6 143.9 118.2Q142.7 116.7 142.7 114.1L142.7 114.1L142.7 113.4Q142.7 111.8 143.3 110.5Q143.8 109.3 144.9 108.6Q146.0 108.0 147.4 108.0L147.4 108.0Q149.4 108.0 150.6 109.0Q151.8 110.1 152.0 112.0L152.0 112.0L149.6 112.0Q149.5 110.9 149.0 110.4Q148.5 109.9 147.4 109.9L147.4 109.9Q146.2 109.9 145.6 110.7Q145.1 111.6 145.0 113.3L145.0 113.3L145.0 114.2Q145.0 116.0 145.6 116.9Q146.2 117.7 147.4 117.7L147.4 117.7Q148.5 117.7 149.0 117.2Q149.5 116.7 149.6 115.7L149.6 115.7ZM159.4 116.5L159.4 116.5Q159.4 115.8 158.9 115.5Q158.4 115.1 157.2 114.7Q156.0 114.3 155.3 114.0L155.3 114.0Q153.4 112.9 153.4 111.1L153.4 111.1Q153.4 110.2 153.9 109.5Q154.4 108.8 155.4 108.4Q156.3 108.0 157.6 108.0L157.6 108.0Q158.8 108.0 159.7 108.4Q160.7 108.8 161.2 109.6Q161.7 110.4 161.7 111.5L161.7 111.5L159.4 111.5Q159.4 110.7 158.9 110.3Q158.4 109.8 157.5 109.8L157.5 109.8Q156.7 109.8 156.2 110.2Q155.7 110.5 155.7 111.1L155.7 111.1Q155.7 111.7 156.3 112.1Q156.8 112.4 157.9 112.8L157.9 112.8Q159.9 113.4 160.8 114.3Q161.7 115.2 161.7 116.5L161.7 116.5Q161.7 118.0 160.6 118.8Q159.5 119.6 157.6 119.6L157.6 119.6Q156.3 119.6 155.2 119.2Q154.1 118.7 153.6 117.8Q153.0 117.0 153.0 115.9L153.0 115.9L155.4 115.9Q155.4 117.8 157.6 117.8L157.6 117.8Q158.4 117.8 158.9 117.4Q159.4 117.1 159.4 116.5ZM169.2 116.5L169.2 116.5Q169.2 115.8 168.8 115.5Q168.3 115.1 167.1 114.7Q165.8 114.3 165.1 114.0L165.1 114.0Q163.2 112.9 163.2 111.1L163.2 111.1Q163.2 110.2 163.7 109.5Q164.2 108.8 165.2 108.4Q166.2 108.0 167.4 108.0L167.4 108.0Q168.6 108.0 169.6 108.4Q170.5 108.8 171.0 109.6Q171.6 110.4 171.6 111.5L171.6 111.5L169.2 111.5Q169.2 110.7 168.7 110.3Q168.2 109.8 167.4 109.8L167.4 109.8Q166.5 109.8 166.0 110.2Q165.5 110.5 165.5 111.1L165.5 111.1Q165.5 111.7 166.1 112.1Q166.7 112.4 167.7 112.8L167.7 112.8Q169.7 113.4 170.7 114.3Q171.6 115.2 171.6 116.5L171.6 116.5Q171.6 118.0 170.5 118.8Q169.3 119.6 167.4 119.6L167.4 119.6Q166.1 119.6 165.1 119.2Q164.0 118.7 163.4 117.8Q162.8 117.0 162.8 115.9L162.8 115.9L165.2 115.9Q165.2 117.8 167.4 117.8L167.4 117.8Q168.3 117.8 168.8 117.4Q169.2 117.1 169.2 116.5Z "/><mask id="satori_om-id-1-8-2"><rect x="182" y="104" width="34" height="19" fill="#fff"/></mask><path fill="#7d8590" d="M190.1 112.8L190.1 114.6Q190.1 117.2 189.2 118.4Q188.3 119.6 186.5 119.6L186.5 119.6Q184.7 119.6 183.8 118.4Q182.9 117.2 182.9 114.8L182.9 114.8L182.9 112.9Q182.9 110.4 183.8 109.2Q184.6 108.0 186.5 108.0L186.5 108.0Q188.3 108.0 189.2 109.1Q190.1 110.3 190.1 112.8L190.1 112.8ZM188.6 115.0L188.6 112.7Q188.6 110.8 188.1 110.0Q187.6 109.1 186.5 109.1L186.5 109.1Q185.4 109.1 184.9 110.0Q184.4 110.8 184.3 112.5L184.3 112.5L184.3 114.9Q184.3 116.7 184.9 117.6Q185.4 118.5 186.5 118.5L186.5 118.5Q187.6 118.5 188.1 117.6Q188.6 116.8 188.6 115.0L188.6 115.0ZM192.1 118.7L192.1 118.7Q192.1 118.4 192.3 118.1Q192.6 117.9 193 117.9Q193.4 117.9 193.7 118.1Q193.9 118.4 193.9 118.7L193.9 118.7Q193.9 119.1 193.7 119.3Q193.4 119.6 193 119.6Q192.6 119.6 192.3 119.3Q192.1 119.1 192.1 118.7ZM202.2 108.1L202.2 115.7L203.8 115.7L203.8 116.8L202.2 116.8L202.2 119.5L200.8 119.5L200.8 116.8L195.6 116.8L195.6 116.0L200.7 108.1L202.2 108.1ZM200.6 110.4L197.3 115.7L200.8 115.7L200.8 110.1L200.6 110.4ZM205 110.8L205 110.3Q205 109.3 205.7 108.6Q206.3 107.9 207.3 107.9L207.3 107.9Q208.4 107.9 209.0 108.6Q209.7 109.3 209.7 110.3L209.7 110.3L209.7 110.9Q209.7 111.9 209.0 112.6Q208.4 113.2 207.3 113.2L207.3 113.2Q206.3 113.2 205.7 112.6Q205 111.9 205 110.8L205 110.8ZM206.1 110.3L206.1 110.9Q206.1 111.5 206.4 111.9Q206.8 112.3 207.3 112.3L207.3 112.3Q207.9 112.3 208.2 111.9Q208.6 111.5 208.6 110.9L208.6 110.9L208.6 110.3Q208.6 109.7 208.2 109.3Q207.9 108.9 207.3 108.9Q206.8 108.9 206.4 109.3Q206.1 109.7 206.1 110.3L206.1 110.3ZM210.5 117.3L210.5 116.7Q210.5 115.7 211.2 115.0Q211.8 114.4 212.9 114.4Q213.9 114.4 214.5 115.0Q215.2 115.7 215.2 116.7L215.2 116.7L215.2 117.3Q215.2 118.3 214.6 119.0Q213.9 119.6 212.9 119.6Q211.9 119.6 211.2 119.0Q210.5 118.3 210.5 117.3L210.5 117.3ZM211.6 116.7L211.6 117.3Q211.6 117.9 212.0 118.3Q212.3 118.7 212.9 118.7L212.9 118.7Q213.4 118.7 213.8 118.3Q214.1 117.9 214.1 117.3L214.1 117.3L214.1 116.7Q214.1 116.1 213.8 115.7Q213.4 115.3 212.9 115.3L212.9 115.3Q212.3 115.3 212.0 115.7Q211.6 116.1 211.6 116.7L211.6 116.7ZM213.2 109.7L207.7 118.6L206.9 118.1L212.4 109.2L213.2 109.7Z "/></svg>