<svg width="375" height="200" viewBox="0 0 375 200" xmlns="http://www.w3.org/2000/svg"><mask id="satori_om-id"><rect x="0" y="0" width="375" height="152" fill="#fff"/></mask><clipPath id="satori_cp-id-0"><path x="0" y="0" width="375" height="8" d="M4,0 h367 a4,4 0 0 1 4,4 v0 a4,4 0 0 1 -4,4 h-367 a4,4 0 0 1 -4,-4 v0 a4,4 0 0 1 4,-4"/></clipPath><mask id="satori_om-id-0"><rect x="0" y="0" width="375" height="8" fill="#fff"/></mask><mask id="satori_om-id-0-0"><rect x="0" y="0" width="218" height="8" fill="#fff" mask="url(#satori_om-id-0)"/></mask><rect x="0" y="0" width="218" height="8" fill="#3178c6" clip-path="url(#satori_cp-id-0)" mask="url(#satori_om-id-0)"/><mask id="satori_om-id-0-1"><rect x="218" y="0" width="39" height="8" fill="#fff" mask="url(#satori_om-id-0)"/></mask><rect x="218" y="0" width="39" height="8" fill="#00ADD8" clip-path="url(#satori_cp-id-0)" mask="url(#satori_om-id-0)"/><mask id="satori_om-id-0-2"><rect x="257" y="0" width="32" height="8" fill="#fff" mask="url(#satori_om-id-0)"/></mask><rect x="257" y="0" width="32" height="8" fill="#ff3e00" clip-path="url(#satori_cp-id-0)" mask="url(#satori_om-id-0)"/><mask id="satori_om-id-0-3"><rect x="289" y="0" width="25" height="8" fill="#fff" mask="url(#satori_om-id-0)"/></mask><rect x="289" y="0" width="25" height="8" fill="#555555" clip-path="url(#satori_cp-id-0)" mask="url(#satori_om-id-0)"/><mask id="satori_om-id-0-4"><rect x="314" y="0" width="26" height="8" fill="#fff" mask="url(#satori_om-id-0)"/></mask><rect x="314" y="0" width="26" height="8" fill="#f1e05a" clip-path="url(#satori_cp-id-0)" mask="url(#satori_om-id-0)"/><mask id="satori_om-id-0-5"><rect x="340" y="0" width="17" height="8" fill="#fff" mask="url(#satori_om-id-0)"/></mask><rect x="340" y="0" width="17" height="8" fill="#ff5a03" clip-path="url(#satori_cp-id-0)" mask="url(#satori_om-id-0)"/><mask id="satori_om-id-0-6"><rect x="357" y="0" width="9" height="8" fill="#fff" mask="url(#satori_om-id-0)"/></mask><rect x="357" y="0" width="9" height="8" fill="#563d7c" clip-path="url(#satori_cp-id-0)" mask="url(#satori_om-id-0)"/><mask id="satori_om-id-0-7"><rect x="366" y="0" width="6" height="8" fill="#fff" mask="url(#satori_om-id-0)"/></mask><rect x="366" y="0" width="6" height="8" fill="#844FBA" clip-path="url(#satori_cp-id-0)" mask="url(#satori_om-id-0)"/><mask id="satori_om-id-0-8"><rect x="372" y="0" width="2" height="8" fill="#fff" mask="url(#satori_om-id-0)"/></mask><rect x="372" y="0" width="2" height="8" fill="#e34c26" clip-path="url(#satori_cp-id-0)" mask="url(#satori_om-id-0)"/><mask id="satori_om-id-0-9"><rect x="374" y="0" width="1" height="8" fill="#fff" mask="url(#satori_om-id-0)"/></mask><rect x="374" y="0" width="1" height="8" fill="#384d54" clip-path="url(#satori_cp-id-0)" mask="url(#satori_om-id-0)"/><mask id="satori_om-id-0-10"><rect x="375" y="0" width="0" height="8" fill="#fff" mask="url(#satori_om-id-0)"/></mask><rect x="375" y="0" width="0" height="8" fill="#427819" clip-path="url(#satori_cp-id-0)" mask="url(#satori_om-id-0)"/><mask id="satori_om-id-1"><rect x="0" y="18" width="375" height="134" fill="#fff"/></mask><mask id="satori_om-id-1-0"><rect x="0" y="18" width="159" height="19" fill="#fff"/></mask><mask id="satori_om-id-1-0-0"><rect x="0" y="19" width="16" height="16" fill="#fff"/></mask><mask id="satori_om-id-1-0-0-0"><rect x="4" y="23" width="8" height="8" fill="#fff"/></mask><path x="4" y="23" width="8" height="8" fill="#3178c6" d="M8,23 h0 a4,4 0 0 1 4,4 v0 a4,4 0 0 1 -4,4 h0 a4,4 0 0 1 -4,-4 v0 a4,4 0 0 1 4,-4"/><mask id="satori_om-id-1-0-1"><rect x="29" y="18" width="78" height="19" fill="#fff"/></mask><path fill="#fff" d="M38.6 22.1L38.6 24.0L35.1 24.0L35.1 33.5L32.8 33.5L32.8 24.0L29.3 24.0L29.3 22.1L38.6 22.1ZM40.7 25.0L42.3 30.3L43.8 25.0L46.3 25.0L42.9 34.8L42.7 35.2Q41.9 36.9 40.2 36.9L40.2 36.9Q39.7 36.9 39.2 36.7L39.2 36.7L39.2 35.0L39.5 35.0Q40.2 35.0 40.5 34.9Q40.8 34.7 41.0 34.2L41.0 34.2L41.2 33.5L38.3 25.0L40.7 25.0ZM54.8 29.2L54.8 29.3Q54.8 31.3 53.9 32.5Q53.0 33.6 51.5 33.6L51.5 33.6Q50.2 33.6 49.4 32.7L49.4 32.7L49.4 36.7L47.2 36.7L47.2 25.0L49.3 25.0L49.3 25.9Q50.1 24.9 51.5 24.9L51.5 24.9Q53.0 24.9 53.9 26.0Q54.8 27.2 54.8 29.2L54.8 29.2ZM52.5 29.2L52.5 29.2Q52.5 28.0 52.1 27.4Q51.7 26.7 50.9 26.7L50.9 26.7Q49.8 26.7 49.4 27.5L49.4 27.5L49.4 31.0Q49.8 31.8 50.9 31.8L50.9 31.8Q52.5 31.8 52.5 29.2ZM60.1 33.6L60.1 33.6Q58.2 33.6 57.0 32.5Q55.9 31.4 55.9 29.5L55.9 29.5L55.9 29.2Q55.9 28.0 56.4 27.0Q56.8 26.0 57.7 25.4Q58.6 24.9 59.8 24.9L59.8 24.9Q61.5 24.9 62.5 26.0Q63.5 27.1 63.5 29.1L63.5 29.1L63.5 30.0L58.1 30.0Q58.3 30.8 58.8 31.3Q59.4 31.8 60.2 31.8L60.2 31.8Q61.5 31.8 62.2 30.9L62.2 30.9L63.4 32.1Q62.8 32.8 62.0 33.2Q61.1 33.6 60.1 33.6ZM59.8 26.7L59.8 26.7Q59.1 26.7 58.7 27.2Q58.3 27.6 58.2 28.5L58.2 28.5L61.3 28.5L61.3 28.3Q61.3 27.5 60.9 27.1Q60.5 26.7 59.8 26.7ZM70.9 30.5L70.9 30.5Q70.9 29.8 70.4 29.5Q69.9 29.1 68.7 28.7Q67.5 28.3 66.8 28.0L66.8 28.0Q64.8 26.9 64.8 25.1L64.8 25.1Q64.8 24.2 65.4 23.5Q65.9 22.8 66.8 22.4Q67.8 22.0 69.0 22.0L69.0 22.0Q70.3 22.0 71.2 22.4Q72.2 22.8 72.7 23.6Q73.2 24.4 73.2 25.5L73.2 25.5L70.9 25.5Q70.9 24.7 70.4 24.3Q69.9 23.8 69.0 23.8L69.0 23.8Q68.1 23.8 67.7 24.2Q67.2 24.5 67.2 25.1L67.2 25.1Q67.2 25.7 67.7 26.1Q68.3 26.4 69.4 26.8L69.4 26.8Q71.4 27.4 72.3 28.3Q73.2 29.2 73.2 30.5L73.2 30.5Q73.2 32.0 72.1 32.8Q71.0 33.6 69.1 33.6L69.1 33.6Q67.8 33.6 66.7 33.2Q65.6 32.7 65.1 31.8Q64.5 31.0 64.5 29.9L64.5 29.9L66.8 29.9Q66.8 31.8 69.1 31.8L69.1 31.8Q69.9 31.8 70.4 31.4Q70.9 31.1 70.9 30.5ZM78.2 31.8L78.2 31.8Q78.8 31.8 79.2 31.5Q79.6 31.1 79.6 30.6L79.6 30.6L81.7 30.6Q81.7 31.4 81.2 32.1Q80.8 32.9 80.0 33.2Q79.2 33.6 78.2 33.6L78.2 33.6Q76.4 33.6 75.3 32.5Q74.3 31.3 74.3 29.3L74.3 29.3L74.3 29.2Q74.3 27.2 75.3 26.0Q76.4 24.9 78.2 24.9L78.2 24.9Q79.8 24.9 80.7 25.8Q81.7 26.7 81.7 28.2L81.7 28.2L79.6 28.2Q79.6 27.5 79.2 27.1Q78.8 26.7 78.1 26.7L78.1 26.7Q77.4 26.7 77.0 27.3Q76.6 27.9 76.6 29.1L76.6 29.1L76.6 29.4Q76.6 30.7 77.0 31.2Q77.4 31.8 78.2 31.8ZM87.8 25.0L87.7 27.1Q87.3 27.1 86.9 27.1L86.9 27.1Q85.6 27.1 85.3 28.0L85.3 28.0L85.3 33.5L83.0 33.5L83.0 25.0L85.1 25.0L85.2 26.0Q85.9 24.9 87.1 24.9L87.1 24.9Q87.4 24.9 87.8 25.0L87.8 25.0ZM91.2 25.0L91.2 33.5L88.9 33.5L88.9 25.0L91.2 25.0ZM88.8 22.8L88.8 22.8Q88.8 22.3 89.2 22.0Q89.5 21.7 90.1 21.7L90.1 21.7Q90.7 21.7 91 22.0Q91.3 22.3 91.3 22.8L91.3 22.8Q91.3 23.4 91.0 23.7Q90.6 24.0 90.1 24.0Q89.5 24.0 89.2 23.7Q88.8 23.4 88.8 22.8ZM100.7 29.2L100.7 29.3Q100.7 31.3 99.8 32.5Q98.9 33.6 97.4 33.6L97.4 33.6Q96.1 33.6 95.3 32.7L95.3 32.7L95.3 36.7L93.1 36.7L93.1 25.0L95.2 25.0L95.2 25.9Q96.1 24.9 97.4 24.9L97.4 24.9Q98.9 24.9 99.8 26.0Q100.7 27.2 100.7 29.2L100.7 29.2ZM98.4 29.2L98.4 29.2Q98.4 28.0 98.0 27.4Q97.6 26.7 96.8 26.7L96.8 26.7Q95.7 26.7 95.3 27.5L95.3 27.5L95.3 31.0Q95.7 31.8 96.8 31.8L96.8 31.8Q98.4 31.8 98.4 29.2ZM102.5 23.0L104.8 23.0L104.8 25.0L106.2 25.0L106.2 26.7L104.8 26.7L104.8 30.9Q104.8 31.4 105.0 31.6Q105.1 31.8 105.6 31.8L105.6 31.8Q106.0 31.8 106.3 31.7L106.3 31.7L106.3 33.4Q105.6 33.6 104.9 33.6L104.9 33.6Q102.6 33.6 102.5 31.2L102.5 31.2L102.5 26.7L101.3 26.7L101.3 25.0L102.5 25.0L102.5 23.0Z "/><mask id="satori_om-id-1-0-2"><rect x="116" y="18" width="43" height="19" fill="#fff"/></mask><path fill="#7d8590" d="M118.8 28.1L117.6 27.8L118.2 22.1L124.0 22.1L124.0 23.4L119.4 23.4L119.1 26.5Q119.9 26.1 121.0 26.1L121.0 26.1Q122.5 26.1 123.4 27.1Q124.4 28.1 124.4 29.9L124.4 29.9Q124.4 31.6 123.4 32.6Q122.5 33.6 120.8 33.6L120.8 33.6Q119.2 33.6 118.3 32.8Q117.3 32.0 117.2 30.5L117.2 30.5L118.6 30.5Q118.7 31.5 119.3 32.0Q119.8 32.5 120.8 32.5L120.8 32.5Q121.8 32.5 122.3 31.8Q122.9 31.1 122.9 29.9L122.9 29.9Q122.9 28.7 122.3 28.0Q121.7 27.4 120.6 27.4L120.6 27.4Q119.7 27.4 119.1 27.8L119.1 27.8L118.8 28.1ZM132.8 25.1L132.8 25.1Q132.8 25.9 132.4 26.6Q131.9 27.3 131.2 27.6L131.2 27.6Q132.1 28.0 132.6 28.7Q133.1 29.5 133.1 30.4L133.1 30.4Q133.1 31.9 132.1 32.8Q131.1 33.6 129.5 33.6L129.5 33.6Q127.8 33.6 126.8 32.8Q125.9 31.9 125.9 30.4L125.9 30.4Q125.9 29.5 126.4 28.7Q126.9 28.0 127.8 27.6L127.8 27.6Q127 27.2 126.6 26.6Q126.1 25.9 126.1 25.1L126.1 25.1Q126.1 23.6 127.0 22.8Q128.0 22.0 129.5 22.0L129.5 22.0Q131.0 22.0 131.9 22.8Q132.8 23.6 132.8 25.1ZM131.6 30.4L131.6 30.4Q131.6 29.4 131.0 28.8Q130.4 28.2 129.5 28.2Q128.5 28.2 127.9 28.8Q127.3 29.4 127.3 30.4Q127.3 31.4 127.9 31.9Q128.5 32.5 129.5 32.5L129.5 32.5Q130.5 32.5 131.1 31.9Q131.6 31.3 131.6 30.4ZM129.5 23.1L129.5 23.1Q128.6 23.1 128.1 23.7Q127.6 24.2 127.6 25.1L127.6 25.1Q127.6 26.0 128.1 26.5Q128.6 27.0 129.5 27.0Q130.3 27.0 130.9 26.5Q131.4 26.0 131.4 25.1Q131.4 24.2 130.8 23.7Q130.3 23.1 129.5 23.1ZM135.1 32.7L135.1 32.7Q135.1 32.4 135.3 32.1Q135.5 31.9 136.0 31.9Q136.4 31.9 136.7 32.1Q136.9 32.4 136.9 32.7L136.9 32.7Q136.9 33.1 136.7 33.3Q136.4 33.6 136.0 33.6Q135.5 33.6 135.3 33.3Q135.1 33.1 135.1 32.7ZM146.3 26.8L146.3 28.6Q146.3 31.2 145.4 32.4Q144.5 33.6 142.7 33.6L142.7 33.6Q140.9 33.6 140.0 32.4Q139.1 31.2 139.1 28.8L139.1 28.8L139.1 26.9Q139.1 24.4 139.9 23.2Q140.8 22.0 142.7 22.0L142.7 22.0Q144.5 22.0 145.4 23.1Q146.2 24.3 146.3 26.8L146.3 26.8ZM144.8 29.0L144.8 26.7Q144.8 24.8 144.3 24.0Q143.8 23.1 142.7 23.1L142.7 23.1Q141.6 23.1 141.0 24.0Q140.5 24.8 140.5 26.5L140.5 26.5L140.5 28.9Q140.5 30.7 141.1 31.6Q141.6 32.5 142.7 32.5L142.7 32.5Q143.8 32.5 144.3 31.6Q144.8 30.8 144.8 29.0L144.8 29.0ZM148.0 24.8L148.0 24.3Q148.0 23.3 148.6 22.6Q149.3 21.9 150.3 21.9L150.3 21.9Q151.4 21.9 152.0 22.6Q152.6 23.3 152.6 24.3L152.6 24.3L152.6 24.9Q152.6 25.9 152.0 26.6Q151.3 27.2 150.3 27.2L150.3 27.2Q149.3 27.2 148.6 26.6Q148.0 25.9 148.0 24.8L148.0 24.8ZM149.1 24.3L149.1 24.9Q149.1 25.5 149.4 25.9Q149.8 26.3 150.3 26.3L150.3 26.3Q150.9 26.3 151.2 25.9Q151.6 25.5 151.6 24.9L151.6 24.9L151.6 24.3Q151.6 23.7 151.2 23.3Q150.9 22.9 150.3 22.9Q149.7 22.9 149.4 23.3Q149.1 23.7 149.1 24.3L149.1 24.3ZM153.5 31.3L153.5 30.7Q153.5 29.7 154.2 29.0Q154.8 28.4 155.9 28.4Q156.9 28.4 157.5 29.0Q158.2 29.7 158.2 30.7L158.2 30.7L158.2 31.3Q158.2 32.3 157.5 33.0Q156.9 33.6 155.9 33.6Q154.9 33.6 154.2 33.0Q153.5 32.3 153.5 31.3L153.5 31.3ZM154.6 30.7L154.6 31.3Q154.6 31.9 154.9 32.3Q155.3 32.7 155.9 32.7L155.9 32.7Q156.4 32.7 156.8 32.3Q157.1 31.9 157.1 31.3L157.1 31.3L157.1 30.7Q157.1 30.1 156.8 29.7Q156.4 29.3 155.9 29.3L155.9 29.3Q155.3 29.3 154.9 29.7Q154.6 30.1 154.6 30.7L154.6 30.7ZM156.2 23.7L150.7 32.6L149.8 32.1L155.4 23.2L156.2 23.7Z "/><mask id="satori_om-id-1-1"><rect x="169" y="18" width="101" height="19" fill="#fff"/></mask><mask id="satori_om-id-1-1-0"><rect x="169" y="19" width="16" height="16" fill="#fff"/></mask><mask id="satori_om-id-1-1-0-0"><rect x="173" y="23" width="8" height="8" fill="#fff"/></mask><path x="173" y="23" width="8" height="8" fill="#00ADD8" d="M177,23 h0 a4,4 0 0 1 4,4 v0 a4,4 0 0 1 -4,4 h0 a4,4 0 0 1 -4,-4 v0 a4,4 0 0 1 4,-4"/><mask id="satori_om-id-1-1-1"><rect x="198" y="18" width="20" height="19" fill="#fff"/></mask><path fill="#fff" d="M208.0 27.5L208.0 32.0Q207.4 32.8 206.2 33.2Q205.1 33.6 203.7 33.6L203.7 33.6Q202.2 33.6 201.1 33.0Q200.0 32.4 199.4 31.1Q198.8 29.9 198.7 28.2L198.7 28.2L198.7 27.5Q198.7 25.8 199.3 24.5Q199.9 23.3 201.0 22.6Q202.0 22.0 203.5 22.0L203.5 22.0Q205.5 22.0 206.7 22.9Q207.8 23.9 208.0 25.7L208.0 25.7L205.7 25.7Q205.6 24.7 205.0 24.3Q204.5 23.8 203.6 23.8L203.6 23.8Q202.4 23.8 201.8 24.7Q201.1 25.6 201.1 27.4L201.1 27.4L201.1 28.1Q201.1 29.9 201.8 30.8Q202.5 31.8 203.8 31.8L203.8 31.8Q205.1 31.8 205.7 31.2L205.7 31.2L205.7 29.2L203.5 29.2L203.5 27.5L208.0 27.5ZM209.4 29.3L209.4 29.2Q209.4 27.9 209.9 26.9Q210.4 26.0 211.3 25.4Q212.2 24.9 213.4 24.9L213.4 24.9Q215.1 24.9 216.2 25.9Q217.3 27.0 217.4 28.8L217.4 28.8L217.4 29.3Q217.4 31.3 216.3 32.5Q215.3 33.6 213.4 33.6Q211.6 33.6 210.5 32.5Q209.4 31.3 209.4 29.3L209.4 29.3ZM211.7 29.3L211.7 29.3Q211.7 30.5 212.1 31.2Q212.6 31.8 213.4 31.8L213.4 31.8Q214.2 31.8 214.7 31.2Q215.2 30.6 215.2 29.2L215.2 29.2Q215.2 28.0 214.7 27.4Q214.2 26.7 213.4 26.7L213.4 26.7Q212.6 26.7 212.1 27.3Q211.7 28.0 211.7 29.3Z "/><mask id="satori_om-id-1-1-2"><rect x="227" y="18" width="43" height="19" fill="#fff"/></mask><path fill="#7d8590" d="M232.7 22.1L232.7 33.5L231.2 33.5L231.2 23.9L228.3 24.9L228.3 23.6L232.5 22.1L232.7 22.1ZM244.1 26.8L244.1 28.6Q244.1 31.2 243.2 32.4Q242.3 33.6 240.5 33.6L240.5 33.6Q238.7 33.6 237.8 32.4Q236.9 31.2 236.9 28.8L236.9 28.8L236.9 26.9Q236.9 24.4 237.8 23.2Q238.6 22.0 240.5 22.0L240.5 22.0Q242.3 22.0 243.2 23.1Q244.0 24.3 244.1 26.8L244.1 26.8ZM242.6 29.0L242.6 26.7Q242.6 24.8 242.1 24.0Q241.6 23.1 240.5 23.1L240.5 23.1Q239.4 23.1 238.9 24.0Q238.3 24.8 238.3 26.5L238.3 26.5L238.3 28.9Q238.3 30.7 238.9 31.6Q239.4 32.5 240.5 32.5L240.5 32.5Q241.6 32.5 242.1 31.6Q242.6 30.8 242.6 29.0L242.6 29.0ZM246.1 32.7L246.1 32.7Q246.1 32.4 246.3 32.1Q246.5 31.9 247.0 31.9Q247.4 31.9 247.7 32.1Q247.9 32.4 247.9 32.7L247.9 32.7Q247.9 33.1 247.7 33.3Q247.4 33.6 247.0 33.6Q246.5 33.6 246.3 33.3Q246.1 33.1 246.1 32.7ZM255.5 22.1L255.8 22.1L255.8 23.3L255.5 23.3Q253.8 23.4 252.8 24.3Q251.8 25.3 251.7 27.1L251.7 27.1Q252.6 26.0 254.1 26.0L254.1 26.0Q255.6 26.0 256.5 27.1Q257.4 28.1 257.4 29.8L257.4 29.8Q257.4 31.5 256.4 32.6Q255.5 33.6 253.9 33.6L253.9 33.6Q252.2 33.6 251.2 32.4Q250.2 31.1 250.2 29.2L250.2 29.2L250.2 28.6Q250.2 25.5 251.6 23.8Q252.9 22.1 255.5 22.1L255.5 22.1ZM253.9 27.2L253.9 27.2Q253.2 27.2 252.5 27.7Q251.9 28.1 251.7 28.8L251.7 28.8L251.7 29.3Q251.7 30.7 252.3 31.6Q252.9 32.4 253.9 32.4L253.9 32.4Q254.9 32.4 255.4 31.7Q256.0 31.0 256.0 29.8L256.0 29.8Q256.0 28.7 255.4 27.9Q254.8 27.2 253.9 27.2ZM259.0 24.8L259.0 24.3Q259.0 23.3 259.6 22.6Q260.3 21.9 261.3 21.9L261.3 21.9Q262.4 21.9 263.0 22.6Q263.6 23.3 263.6 24.3L263.6 24.3L263.6 24.9Q263.6 25.9 263.0 26.6Q262.3 27.2 261.3 27.2L261.3 27.2Q260.3 27.2 259.6 26.6Q259.0 25.9 259.0 24.8L259.0 24.8ZM260.1 24.3L260.1 24.9Q260.1 25.5 260.4 25.9Q260.8 26.3 261.3 26.3L261.3 26.3Q261.9 26.3 262.2 25.9Q262.6 25.5 262.6 24.9L262.6 24.9L262.6 24.3Q262.6 23.7 262.2 23.3Q261.9 22.9 261.3 22.9Q260.7 22.9 260.4 23.3Q260.1 23.7 260.1 24.3L260.1 24.3ZM264.5 31.3L264.5 30.7Q264.5 29.7 265.2 29.0Q265.8 28.4 266.9 28.4Q267.9 28.4 268.5 29.0Q269.2 29.7 269.2 30.7L269.2 30.7L269.2 31.3Q269.2 32.3 268.5 33.0Q267.9 33.6 266.9 33.6Q265.9 33.6 265.2 33.0Q264.5 32.3 264.5 31.3L264.5 31.3ZM265.6 30.7L265.6 31.3Q265.6 31.9 265.9 32.3Q266.3 32.7 266.9 32.7L266.9 32.7Q267.4 32.7 267.8 32.3Q268.1 31.9 268.1 31.3L268.1 31.3L268.1 30.7Q268.1 30.1 267.8 29.7Q267.4 29.3 266.9 29.3L266.9 29.3Q266.3 29.3 265.9 29.7Q265.6 30.1 265.6 30.7L265.6 30.7ZM267.2 23.7L261.7 32.6L260.8 32.1L266.4 23.2L267.2 23.7Z "/><mask id="satori_om-id-1-2"><rect x="0" y="47" width="117" height="19" fill="#fff"/></mask><mask id="satori_om-id-1-2-0"><rect x="0" y="48" width="16" height="16" fill="#fff"/></mask><mask id="satori_om-id-1-2-0-0"><rect x="4" y="52" width="8" height="8" fill="#fff"/></mask><path x="4" y="52" width="8" height="8" fill="#ff3e00" d="M8,52 h0 a4,4 0 0 1 4,4 v0 a4,4 0 0 1 -4,4 h0 a4,4 0 0 1 -4,-4 v0 a4,4 0 0 1 4,-4"/><mask id="satori_om-id-1-2-1"><rect x="29" y="47" width="45" height="19" fill="#fff"/></mask><path fill="#fff" d="M35.9 59.5L35.9 59.5Q35.9 58.8 35.4 58.5Q35.0 58.1 33.8 57.7Q32.5 57.3 31.8 57.0L31.8 57.0Q29.9 55.9 29.9 54.1L29.9 54.1Q29.9 53.2 30.4 52.5Q30.9 51.8 31.9 51.4Q32.9 51.0 34.1 51.0L34.1 51.0Q35.3 51.0 36.3 51.4Q37.2 51.8 37.7 52.6Q38.3 53.4 38.3 54.5L38.3 54.5L35.9 54.5Q35.9 53.7 35.4 53.3Q34.9 52.8 34.0 52.8L34.0 52.8Q33.2 52.8 32.7 53.2Q32.2 53.5 32.2 54.1L32.2 54.1Q32.2 54.7 32.8 55.1Q33.4 55.4 34.4 55.8L34.4 55.8Q36.4 56.4 37.4 57.3Q38.3 58.2 38.3 59.5L38.3 59.5Q38.3 61.0 37.1 61.8Q36.0 62.6 34.1 62.6L34.1 62.6Q32.8 62.6 31.8 62.2Q30.7 61.7 30.1 60.8Q29.5 60.0 29.5 58.9L29.5 58.9L31.9 58.9Q31.9 60.8 34.1 60.8L34.1 60.8Q35.0 60.8 35.4 60.4Q35.9 60.1 35.9 59.5ZM41.3 54.0L42.9 59.7L44.4 54.0L46.8 54.0L43.9 62.5L41.8 62.5L38.9 54.0L41.3 54.0ZM51.6 62.6L51.6 62.6Q49.7 62.6 48.6 61.5Q47.4 60.4 47.4 58.5L47.4 58.5L47.4 58.2Q47.4 57.0 47.9 56.0Q48.4 55.0 49.3 54.4Q50.2 53.9 51.3 53.9L51.3 53.9Q53.1 53.9 54.1 55.0Q55.1 56.1 55.1 58.1L55.1 58.1L55.1 59.0L49.7 59.0Q49.8 59.8 50.3 60.3Q50.9 60.8 51.7 60.8L51.7 60.8Q53.0 60.8 53.8 59.9L53.8 59.9L54.9 61.1Q54.4 61.8 53.5 62.2Q52.6 62.6 51.6 62.6ZM51.3 55.7L51.3 55.7Q50.6 55.7 50.2 56.2Q49.8 56.6 49.7 57.5L49.7 57.5L52.8 57.5L52.8 57.3Q52.8 56.5 52.4 56.1Q52.0 55.7 51.3 55.7ZM58.7 50.5L58.7 62.5L56.5 62.5L56.5 50.5L58.7 50.5ZM61.0 52.0L63.3 52.0L63.3 54.0L64.7 54.0L64.7 55.7L63.3 55.7L63.3 59.9Q63.3 60.4 63.5 60.6Q63.6 60.8 64.1 60.8L64.1 60.8Q64.5 60.8 64.8 60.7L64.8 60.7L64.8 62.4Q64.1 62.6 63.4 62.6L63.4 62.6Q61.1 62.6 61.0 60.2L61.0 60.2L61.0 55.7L59.8 55.7L59.8 54.0L61.0 54.0L61.0 52.0ZM69.9 62.6L69.9 62.6Q68.0 62.6 66.8 61.5Q65.7 60.4 65.7 58.5L65.7 58.5L65.7 58.2Q65.7 57.0 66.2 56.0Q66.7 55.0 67.6 54.4Q68.5 53.9 69.6 53.9L69.6 53.9Q71.4 53.9 72.4 55.0Q73.4 56.1 73.4 58.1L73.4 58.1L73.4 59.0L68.0 59.0Q68.1 59.8 68.6 60.3Q69.2 60.8 70.0 60.8L70.0 60.8Q71.3 60.8 72.1 59.9L72.1 59.9L73.2 61.1Q72.7 61.8 71.8 62.2Q70.9 62.6 69.9 62.6ZM69.6 55.7L69.6 55.7Q68.9 55.7 68.5 56.2Q68.1 56.6 68.0 57.5L68.0 57.5L71.1 57.5L71.1 57.3Q71.1 56.5 70.7 56.1Q70.3 55.7 69.6 55.7Z "/><mask id="satori_om-id-1-2-2"><rect x="83" y="47" width="34" height="19" fill="#fff"/></mask><path fill="#7d8590" d="M90.8 54.1L90.8 54.1Q90.8 54.9 90.4 55.6Q89.9 56.3 89.2 56.6L89.2 56.6Q90.1 57.0 90.6 57.7Q91.1 58.5 91.1 59.4L91.1 59.4Q91.1 60.9 90.1 61.8Q89.1 62.6 87.5 62.6L87.5 62.6Q85.9 62.6 84.9 61.8Q83.9 60.9 83.9 59.4L83.9 59.4Q83.9 58.5 84.4 57.7Q84.9 57.0 85.8 56.6L85.8 56.6Q85.0 56.2 84.6 55.6Q84.1 54.9 84.1 54.1L84.1 54.1Q84.1 52.6 85.1 51.8Q86.0 51.0 87.5 51.0L87.5 51.0Q89.0 51.0 89.9 51.8Q90.8 52.6 90.8 54.1ZM89.7 59.4L89.7 59.4Q89.7 58.4 89.1 57.8Q88.5 57.2 87.5 57.2Q86.5 57.2 85.9 57.8Q85.3 58.4 85.3 59.4Q85.3 60.4 85.9 60.9Q86.5 61.5 87.5 61.5L87.5 61.5Q88.5 61.5 89.1 60.9Q89.7 60.3 89.7 59.4ZM87.5 52.1L87.5 52.1Q86.6 52.1 86.1 52.7Q85.6 53.2 85.6 54.1L85.6 54.1Q85.6 55.0 86.1 55.5Q86.6 56.0 87.5 56.0Q88.4 56.0 88.9 55.5Q89.4 55.0 89.4 54.1Q89.4 53.2 88.9 52.7Q88.3 52.1 87.5 52.1ZM93.1 61.7L93.1 61.7Q93.1 61.4 93.3 61.1Q93.6 60.9 94 60.9Q94.4 60.9 94.7 61.1Q94.9 61.4 94.9 61.7L94.9 61.7Q94.9 62.1 94.7 62.3Q94.4 62.6 94 62.6Q93.6 62.6 93.3 62.3Q93.1 62.1 93.1 61.7ZM99.2 57.3L99.2 56.1L100.3 56.1Q101.4 56.1 101.9 55.6Q102.5 55.0 102.5 54.1L102.5 54.1Q102.5 52.1 100.5 52.1L100.5 52.1Q99.6 52.1 99.0 52.7Q98.5 53.2 98.5 54.1L98.5 54.1L97.0 54.1Q97.0 52.7 98.0 51.8Q99.0 51.0 100.5 51.0L100.5 51.0Q102.1 51.0 103.1 51.8Q104.0 52.7 104.0 54.2L104.0 54.2Q104.0 54.9 103.5 55.6Q103.0 56.3 102.2 56.6L102.2 56.6Q103.1 56.9 103.6 57.6Q104.1 58.3 104.1 59.3L104.1 59.3Q104.1 60.8 103.1 61.7Q102.1 62.6 100.5 62.6Q98.9 62.6 97.9 61.8Q96.9 60.9 96.9 59.5L96.9 59.5L98.4 59.5Q98.4 60.4 99.0 60.9Q99.6 61.5 100.5 61.5L100.5 61.5Q101.6 61.5 102.1 60.9Q102.7 60.4 102.7 59.3L102.7 59.3Q102.7 58.4 102.1 57.8Q101.5 57.3 100.3 57.3L100.3 57.3L99.2 57.3ZM106 53.8L106 53.3Q106 52.3 106.7 51.6Q107.3 50.9 108.3 50.9L108.3 50.9Q109.4 50.9 110.0 51.6Q110.7 52.3 110.7 53.3L110.7 53.3L110.7 53.9Q110.7 54.9 110.0 55.6Q109.4 56.2 108.3 56.2L108.3 56.2Q107.3 56.2 106.7 55.6Q106 54.9 106 53.8L106 53.8ZM107.1 53.3L107.1 53.9Q107.1 54.5 107.4 54.9Q107.8 55.3 108.3 55.3L108.3 55.3Q108.9 55.3 109.2 54.9Q109.6 54.5 109.6 53.9L109.6 53.9L109.6 53.3Q109.6 52.7 109.2 52.3Q108.9 51.9 108.3 51.9Q107.8 51.9 107.4 52.3Q107.1 52.7 107.1 53.3L107.1 53.3ZM111.5 60.3L111.5 59.7Q111.5 58.7 112.2 58.0Q112.8 57.4 113.9 57.4Q114.9 57.4 115.5 58.0Q116.2 58.7 116.2 59.7L116.2 59.7L116.2 60.3Q116.2 61.3 115.6 62.0Q114.9 62.6 113.9 62.6Q112.9 62.6 112.2 62.0Q111.5 61.3 111.5 60.3L111.5 60.3ZM112.6 59.7L112.6 60.3Q112.6 60.9 113.0 61.3Q113.3 61.7 113.9 61.7L113.9 61.7Q114.4 61.7 114.8 61.3Q115.1 60.9 115.1 60.3L115.1 60.3L115.1 59.7Q115.1 59.1 114.8 58.7Q114.4 58.3 113.9 58.3L113.9 58.3Q113.3 58.3 113.0 58.7Q112.6 59.1 112.6 59.7L112.6 59.7ZM114.2 52.7L108.7 61.6L107.9 61.1L113.4 52.2L114.2 52.7Z "/><mask id="satori_om-id-1-3"><rect x="127" y="47" width="82" height="19" fill="#fff"/></mask><mask id="satori_om-id-1-3-0"><rect x="127" y="48" width="16" height="16" fill="#fff"/></mask><mask id="satori_om-id-1-3-0-0"><rect x="131" y="52" width="8" height="8" fill="#fff"/></mask><path x="131" y="52" width="8" height="8" fill="#555555" d="M135,52 h0 a4,4 0 0 1 4,4 v0 a4,4 0 0 1 -4,4 h0 a4,4 0 0 1 -4,-4 v0 a4,4 0 0 1 4,-4"/><mask id="satori_om-id-1-3-1"><rect x="156" y="47" width="10" height="19" fill="#fff"/></mask><path fill="#fff" d="M163.6 58.7L165.9 58.7Q165.8 60.5 164.6 61.6Q163.4 62.6 161.4 62.6L161.4 62.6Q159.2 62.6 157.9 61.2Q156.7 59.7 156.7 57.1L156.7 57.1L156.7 56.4Q156.7 54.8 157.3 53.5Q157.8 52.3 158.9 51.6Q160.0 51.0 161.4 51.0L161.4 51.0Q163.4 51.0 164.6 52.0Q165.8 53.1 166.0 55.0L166.0 55.0L163.6 55.0Q163.5 53.9 163.0 53.4Q162.5 52.9 161.4 52.9L161.4 52.9Q160.2 52.9 159.6 53.7Q159.1 54.6 159.0 56.3L159.0 56.3L159.0 57.2Q159.0 59.0 159.6 59.9Q160.2 60.7 161.4 60.7L161.4 60.7Q162.5 60.7 163.0 60.2Q163.5 59.7 163.6 58.7L163.6 58.7Z "/><mask id="satori_om-id-1-3-2"><rect x="175" y="47" width="34" height="19" fill="#fff"/></mask><path fill="#7d8590" d="M181.4 51.1L181.6 51.1L181.6 52.3L181.4 52.3Q179.7 52.4 178.7 53.3Q177.7 54.3 177.5 56.1L177.5 56.1Q178.4 55.0 180.0 55.0L180.0 55.0Q181.4 55.0 182.3 56.1Q183.2 57.1 183.2 58.8L183.2 58.8Q183.2 60.5 182.3 61.6Q181.3 62.6 179.7 62.6L179.7 62.6Q178.1 62.6 177.0 61.4Q176.0 60.1 176.0 58.2L176.0 58.2L176.0 57.6Q176.0 54.5 177.4 52.8Q178.7 51.1 181.4 51.1L181.4 51.1ZM179.7 56.2L179.7 56.2Q179.0 56.2 178.4 56.7Q177.7 57.1 177.5 57.8L177.5 57.8L177.5 58.3Q177.5 59.7 178.1 60.6Q178.8 61.4 179.7 61.4L179.7 61.4Q180.7 61.4 181.2 60.7Q181.8 60.0 181.8 58.8L181.8 58.8Q181.8 57.7 181.2 56.9Q180.7 56.2 179.7 56.2ZM185.1 61.7L185.1 61.7Q185.1 61.4 185.3 61.1Q185.6 60.9 186 60.9Q186.4 60.9 186.7 61.1Q186.9 61.4 186.9 61.7L186.9 61.7Q186.9 62.1 186.7 62.3Q186.4 62.6 186 62.6Q185.6 62.6 185.3 62.3Q185.1 62.1 185.1 61.7ZM196.0 54.1L196.0 54.1Q196.0 54.9 195.6 55.6Q195.1 56.3 194.4 56.6L194.4 56.6Q195.3 57.0 195.8 57.7Q196.3 58.5 196.3 59.4L196.3 59.4Q196.3 60.9 195.3 61.8Q194.3 62.6 192.7 62.6L192.7 62.6Q191.0 62.6 190.1 61.8Q189.1 60.9 189.1 59.4L189.1 59.4Q189.1 58.5 189.6 57.7Q190.1 57.0 191.0 56.6L191.0 56.6Q190.2 56.2 189.8 55.6Q189.3 54.9 189.3 54.1L189.3 54.1Q189.3 52.6 190.3 51.8Q191.2 51.0 192.7 51.0L192.7 51.0Q194.2 51.0 195.1 51.8Q196.0 52.6 196.0 54.1ZM194.9 59.4L194.9 59.4Q194.9 58.4 194.3 57.8Q193.6 57.2 192.7 57.2Q191.7 57.2 191.1 57.8Q190.5 58.4 190.5 59.4Q190.5 60.4 191.1 60.9Q191.7 61.5 192.7 61.5L192.7 61.5Q193.7 61.5 194.3 60.9Q194.9 60.3 194.9 59.4ZM192.7 52.1L192.7 52.1Q191.8 52.1 191.3 52.7Q190.8 53.2 190.8 54.1L190.8 54.1Q190.8 55.0 191.3 55.5Q191.8 56.0 192.7 56.0Q193.6 56.0 194.1 55.5Q194.6 55.0 194.6 54.1Q194.6 53.2 194.1 52.7Q193.5 52.1 192.7 52.1ZM198 53.8L198 53.3Q198 52.3 198.7 51.6Q199.3 50.9 200.3 50.9L200.3 50.9Q201.4 50.9 202.0 51.6Q202.7 52.3 202.7 53.3L202.7 53.3L202.7 53.9Q202.7 54.9 202.0 55.6Q201.4 56.2 200.3 56.2L200.3 56.2Q199.3 56.2 198.7 55.6Q198 54.9 198 53.8L198 53.8ZM199.1 53.3L199.1 53.9Q199.1 54.5 199.4 54.9Q199.8 55.3 200.3 55.3L200.3 55.3Q200.9 55.3 201.2 54.9Q201.6 54.5 201.6 53.9L201.6 53.9L201.6 53.3Q201.6 52.7 201.2 52.3Q200.9 51.9 200.3 51.9Q199.8 51.9 199.4 52.3Q199.1 52.7 199.1 53.3L199.1 53.3ZM203.5 60.3L203.5 59.7Q203.5 58.7 204.2 58.0Q204.8 57.4 205.9 57.4Q206.9 57.4 207.5 58.0Q208.2 58.7 208.2 59.7L208.2 59.7L208.2 60.3Q208.2 61.3 207.6 62.0Q206.9 62.6 205.9 62.6Q204.9 62.6 204.2 62.0Q203.5 61.3 203.5 60.3L203.5 60.3ZM204.6 59.7L204.6 60.3Q204.6 60.9 205.0 61.3Q205.3 61.7 205.9 61.7L205.9 61.7Q206.4 61.7 206.8 61.3Q207.1 60.9 207.1 60.3L207.1 60.3L207.1 59.7Q207.1 59.1 206.8 58.7Q206.4 58.3 205.9 58.3L205.9 58.3Q205.3 58.3 205.0 58.7Q204.6 59.1 204.6 59.7L204.6 59.7ZM206.2 52.7L200.7 61.6L199.9 61.1L205.4 52.2L206.2 52.7Z "/><mask id="satori_om-id-1-4"><rect x="219" y="47" width="149" height="19" fill="#fff"/></mask><mask id="satori_om-id-1-4-0"><rect x="219" y="48" width="16" height="16" fill="#fff"/></mask><mask id="satori_om-id-1-4-0-0"><rect x="223" y="52" width="8" height="8" fill="#fff"/></mask><path x="223" y="52" width="8" height="8" fill="#f1e05a" d="M227,52 h0 a4,4 0 0 1 4,4 v0 a4,4 0 0 1 -4,4 h0 a4,4 0 0 1 -4,-4 v0 a4,4 0 0 1 4,-4"/><mask id="satori_om-id-1-4-1"><rect x="248" y="47" width="77" height="19" fill="#fff"/></mask><path fill="#fff" d="M253.6 59.0L253.6 51.1L255.9 51.1L255.9 59.0Q255.9 60.1 255.5 60.9Q255.0 61.7 254.1 62.2Q253.2 62.6 252.1 62.6L252.1 62.6Q250.3 62.6 249.3 61.7Q248.3 60.8 248.3 59.1L248.3 59.1L250.7 59.1Q250.7 60.0 251.0 60.4Q251.4 60.8 252.1 60.8L252.1 60.8Q252.8 60.8 253.2 60.3Q253.6 59.8 253.6 59.0L253.6 59.0ZM265.0 62.5L262.7 62.5Q262.5 62.2 262.5 61.7L262.5 61.7Q261.7 62.6 260.3 62.6L260.3 62.6Q259.1 62.6 258.3 61.9Q257.5 61.2 257.5 60.1L257.5 60.1Q257.5 58.8 258.5 58.0Q259.5 57.3 261.3 57.3L261.3 57.3L262.4 57.3L262.4 56.8Q262.4 56.2 262.1 55.9Q261.8 55.5 261.1 55.5L261.1 55.5Q260.6 55.5 260.2 55.8Q259.9 56.1 259.9 56.6L259.9 56.6L257.7 56.6Q257.7 55.8 258.1 55.2Q258.6 54.6 259.4 54.2Q260.2 53.9 261.3 53.9L261.3 53.9Q262.8 53.9 263.7 54.7Q264.6 55.4 264.6 56.9L264.6 56.9L264.6 60.5Q264.7 61.7 265.0 62.4L265.0 62.4L265.0 62.5ZM260.8 60.9L260.8 60.9Q261.3 60.9 261.8 60.7Q262.2 60.5 262.4 60.1L262.4 60.1L262.4 58.6L261.5 58.6Q259.8 58.6 259.7 59.8L259.7 59.8L259.7 59.9Q259.7 60.4 260.0 60.6Q260.3 60.9 260.8 60.9ZM267.9 54.0L269.4 59.7L271 54.0L273.4 54.0L270.5 62.5L268.4 62.5L265.5 54.0L267.9 54.0ZM281.4 62.5L279.1 62.5Q279.0 62.2 278.9 61.7L278.9 61.7Q278.1 62.6 276.8 62.6L276.8 62.6Q275.5 62.6 274.7 61.9Q273.9 61.2 273.9 60.1L273.9 60.1Q273.9 58.8 274.9 58.0Q275.9 57.3 277.8 57.3L277.8 57.3L278.8 57.3L278.8 56.8Q278.8 56.2 278.5 55.9Q278.2 55.5 277.6 55.5L277.6 55.5Q277.0 55.5 276.7 55.8Q276.3 56.1 276.3 56.6L276.3 56.6L274.1 56.6Q274.1 55.8 274.5 55.2Q275.0 54.6 275.8 54.2Q276.6 53.9 277.7 53.9L277.7 53.9Q279.2 53.9 280.2 54.7Q281.1 55.4 281.1 56.9L281.1 56.9L281.1 60.5Q281.1 61.7 281.4 62.4L281.4 62.4L281.4 62.5ZM277.3 60.9L277.3 60.9Q277.8 60.9 278.2 60.7Q278.6 60.5 278.8 60.1L278.8 60.1L278.8 58.6L278.0 58.6Q276.3 58.6 276.2 59.8L276.2 59.8L276.2 59.9Q276.2 60.4 276.5 60.6Q276.8 60.9 277.3 60.9ZM288.9 59.5L288.9 59.5Q288.9 58.8 288.4 58.5Q287.9 58.1 286.7 57.7Q285.5 57.3 284.8 57.0L284.8 57.0Q282.8 55.9 282.8 54.1L282.8 54.1Q282.8 53.2 283.4 52.5Q283.9 51.8 284.8 51.4Q285.8 51.0 287.0 51.0L287.0 51.0Q288.3 51.0 289.2 51.4Q290.2 51.8 290.7 52.6Q291.2 53.4 291.2 54.5L291.2 54.5L288.9 54.5Q288.9 53.7 288.4 53.3Q287.9 52.8 287.0 52.8L287.0 52.8Q286.1 52.8 285.7 53.2Q285.2 53.5 285.2 54.1L285.2 54.1Q285.2 54.7 285.7 55.1Q286.3 55.4 287.4 55.8L287.4 55.8Q289.4 56.4 290.3 57.3Q291.2 58.2 291.2 59.5L291.2 59.5Q291.2 61.0 290.1 61.8Q289.0 62.6 287.1 62.6L287.1 62.6Q285.8 62.6 284.7 62.2Q283.6 61.7 283.1 60.8Q282.5 60.0 282.5 58.9L282.5 58.9L284.8 58.9Q284.8 60.8 287.1 60.8L287.1 60.8Q287.9 60.8 288.4 60.4Q288.9 60.1 288.9 59.5ZM296.2 60.8L296.2 60.8Q296.8 60.8 297.2 60.5Q297.6 60.1 297.6 59.6L297.6 59.6L299.7 59.6Q299.7 60.4 299.2 61.1Q298.8 61.9 298.0 62.2Q297.2 62.6 296.2 62.6L296.2 62.6Q294.4 62.6 293.3 61.5Q292.3 60.3 292.3 58.3L292.3 58.3L292.3 58.2Q292.3 56.2 293.3 55.0Q294.4 53.9 296.2 53.9L296.2 53.9Q297.8 53.9 298.7 54.8Q299.7 55.7 299.7 57.2L299.7 57.2L297.6 57.2Q297.6 56.5 297.2 56.1Q296.8 55.7 296.1 55.7L296.1 55.7Q295.4 55.7 295.0 56.3Q294.6 56.9 294.6 58.1L294.6 58.1L294.6 58.4Q294.6 59.7 295.0 60.2Q295.4 60.8 296.2 60.8ZM305.8 54.0L305.7 56.1Q305.3 56.1 304.9 56.1L304.9 56.1Q303.6 56.1 303.3 57.0L303.3 57.0L303.3 62.5L301.0 62.5L301.0 54.0L303.1 54.0L303.2 55.0Q303.9 53.9 305.1 53.9L305.1 53.9Q305.4 53.9 305.8 54.0L305.8 54.0ZM309.2 54.0L309.2 62.5L306.9 62.5L306.9 54.0L309.2 54.0ZM306.8 51.8L306.8 51.8Q306.8 51.3 307.2 51.0Q307.5 50.7 308.1 50.7L308.1 50.7Q308.7 50.7 309 51.0Q309.3 51.3 309.3 51.8L309.3 51.8Q309.3 52.4 309.0 52.7Q308.6 53.0 308.1 53.0Q307.5 53.0 307.2 52.7Q306.8 52.4 306.8 51.8ZM318.7 58.2L318.7 58.3Q318.7 60.3 317.8 61.5Q316.9 62.6 315.4 62.6L315.4 62.6Q314.1 62.6 313.3 61.7L313.3 61.7L313.3 65.7L311.1 65.7L311.1 54.0L313.2 54.0L313.2 54.9Q314.1 53.9 315.4 53.9L315.4 53.9Q316.9 53.9 317.8 55.0Q318.7 56.2 318.7 58.2L318.7 58.2ZM316.4 58.2L316.4 58.2Q316.4 57.0 316.0 56.4Q315.6 55.7 314.8 55.7L314.8 55.7Q313.7 55.7 313.3 56.5L313.3 56.5L313.3 60.0Q313.7 60.8 314.8 60.8L314.8 60.8Q316.4 60.8 316.4 58.2ZM320.5 52.0L322.8 52.0L322.8 54.0L324.2 54.0L324.2 55.7L322.8 55.7L322.8 59.9Q322.8 60.4 323.0 60.6Q323.1 60.8 323.6 60.8L323.6 60.8Q324.0 60.8 324.3 60.7L324.3 60.7L324.3 62.4Q323.6 62.6 322.9 62.6L322.9 62.6Q320.6 62.6 320.5 60.2L320.5 60.2L320.5 55.7L319.3 55.7L319.3 54.0L320.5 54.0L320.5 52.0Z "/><mask id="satori_om-id-1-4-2"><rect x="334" y="47" width="34" height="19" fill="#fff"/></mask><path fill="#7d8590" d="M340.4 51.1L340.6 51.1L340.6 52.3L340.4 52.3Q338.7 52.4 337.7 53.3Q336.7 54.3 336.5 56.1L336.5 56.1Q337.4 55.0 339.0 55.0L339.0 55.0Q340.4 55.0 341.3 56.1Q342.2 57.1 342.2 58.8L342.2 58.8Q342.2 60.5 341.3 61.6Q340.3 62.6 338.7 62.6L338.7 62.6Q337.1 62.6 336.0 61.4Q335.0 60.1 335.0 58.2L335.0 58.2L335.0 57.6Q335.0 54.5 336.4 52.8Q337.7 51.1 340.4 51.1L340.4 51.1ZM338.7 56.2L338.7 56.2Q338.0 56.2 337.4 56.7Q336.7 57.1 336.5 57.8L336.5 57.8L336.5 58.3Q336.5 59.7 337.1 60.6Q337.8 61.4 338.7 61.4L338.7 61.4Q339.7 61.4 340.2 60.7Q340.8 60.0 340.8 58.8L340.8 58.8Q340.8 57.7 340.2 56.9Q339.7 56.2 338.7 56.2ZM344.1 61.7L344.1 61.7Q344.1 61.4 344.3 61.1Q344.6 60.9 345 60.9Q345.4 60.9 345.7 61.1Q345.9 61.4 345.9 61.7L345.9 61.7Q345.9 62.1 345.7 62.3Q345.4 62.6 345 62.6Q344.6 62.6 344.3 62.3Q344.1 62.1 344.1 61.7ZM355.0 54.1L355.0 54.1Q355.0 54.9 354.6 55.6Q354.1 56.3 353.4 56.6L353.4 56.6Q354.3 57.0 354.8 57.7Q355.3 58.5 355.3 59.4L355.3 59.4Q355.3 60.9 354.3 61.8Q353.3 62.6 351.7 62.6L351.7 62.6Q350.0 62.6 349.1 61.8Q348.1 60.9 348.1 59.4L348.1 59.4Q348.1 58.5 348.6 57.7Q349.1 57.0 350.0 56.6L350.0 56.6Q349.2 56.2 348.8 55.6Q348.3 54.9 348.3 54.1L348.3 54.1Q348.3 52.6 349.3 51.8Q350.2 51.0 351.7 51.0L351.7 51.0Q353.2 51.0 354.1 51.8Q355.0 52.6 355.0 54.1ZM353.9 59.4L353.9 59.4Q353.9 58.4 353.3 57.8Q352.6 57.2 351.7 57.2Q350.7 57.2 350.1 57.8Q349.5 58.4 349.5 59.4Q349.5 60.4 350.1 60.9Q350.7 61.5 351.7 61.5L351.7 61.5Q352.7 61.5 353.3 60.9Q353.9 60.3 353.9 59.4ZM351.7 52.1L351.7 52.1Q350.8 52.1 350.3 52.7Q349.8 53.2 349.8 54.1L349.8 54.1Q349.8 55.0 350.3 55.5Q350.8 56.0 351.7 56.0Q352.6 56.0 353.1 55.5Q353.6 55.0 353.6 54.1Q353.6 53.2 353.1 52.7Q352.5 52.1 351.7 52.1ZM357 53.8L357 53.3Q357 52.3 357.7 51.6Q358.3 50.9 359.3 50.9L359.3 50.9Q360.4 50.9 361.0 51.6Q361.7 52.3 361.7 53.3L361.7 53.3L361.7 53.9Q361.7 54.9 361.0 55.6Q360.4 56.2 359.3 56.2L359.3 56.2Q358.3 56.2 357.7 55.6Q357 54.9 357 53.8L357 53.8ZM358.1 53.3L358.1 53.9Q358.1 54.5 358.4 54.9Q358.8 55.3 359.3 55.3L359.3 55.3Q359.9 55.3 360.2 54.9Q360.6 54.5 360.6 53.9L360.6 53.9L360.6 53.3Q360.6 52.7 360.2 52.3Q359.9 51.9 359.3 51.9Q358.8 51.9 358.4 52.3Q358.1 52.7 358.1 53.3L358.1 53.3ZM362.5 60.3L362.5 59.7Q362.5 58.7 363.2 58.0Q363.8 57.4 364.9 57.4Q365.9 57.4 366.5 58.0Q367.2 58.7 367.2 59.7L367.2 59.7L367.2 60.3Q367.2 61.3 366.6 62.0Q365.9 62.6 364.9 62.6Q363.9 62.6 363.2 62.0Q362.5 61.3 362.5 60.3L362.5 60.3ZM363.6 59.7L363.6 60.3Q363.6 60.9 364.0 61.3Q364.3 61.7 364.9 61.7L364.9 61.7Q365.4 61.7 365.8 61.3Q366.1 60.9 366.1 60.3L366.1 60.3L366.1 59.7Q366.1 59.1 365.8 58.7Q365.4 58.3 364.9 58.3L364.9 58.3Q364.3 58.3 364.0 58.7Q363.6 59.1 363.6 59.7L363.6 59.7ZM365.2 52.7L359.7 61.6L358.9 61.1L364.4 52.2L365.2 52.7Z "/><mask id="satori_om-id-1-5"><rect x="0" y="76" width="111" height="18" fill="#fff"/></mask><mask id="satori_om-id-1-5-0"><rect x="0" y="77" width="16" height="16" fill="#fff"/></mask><mask id="satori_om-id-1-5-0-0"><rect x="4" y="81" width="8" height="8" fill="#fff"/></mask><path x="4" y="81" width="8" height="8" fill="#ff5a03" d="M8,81 h0 a4,4 0 0 1 4,4 v0 a4,4 0 0 1 -4,4 h0 a4,4 0 0 1 -4,-4 v0 a4,4 0 0 1 4,-4"/><mask id="satori_om-id-1-5-1"><rect x="29" y="76" width="39" height="18" fill="#fff"/></mask><path fill="#fff" d="M37.2 91.5L36.4 89.1L32.3 89.1L31.5 91.5L29.1 91.5L33.3 80.1L35.5 80.1L39.7 91.5L37.2 91.5ZM34.4 83.0L33.0 87.2L35.8 87.2L34.4 83.0ZM45.2 89.1L45.2 89.1Q45.2 88.7 44.8 88.5Q44.4 88.3 43.5 88.1L43.5 88.1Q40.5 87.4 40.5 85.5L40.5 85.5Q40.5 84.4 41.4 83.6Q42.3 82.9 43.8 82.9L43.8 82.9Q45.5 82.9 46.4 83.6Q47.4 84.4 47.4 85.6L47.4 85.6L45.1 85.6Q45.1 85.1 44.8 84.8Q44.5 84.5 43.8 84.5L43.8 84.5Q43.3 84.5 43.0 84.7Q42.6 85.0 42.6 85.4L42.6 85.4Q42.6 85.8 43.0 86.0Q43.4 86.2 44.2 86.4Q45.0 86.6 45.6 86.8L45.6 86.8Q47.4 87.4 47.4 89.1L47.4 89.1Q47.4 90.2 46.4 90.9Q45.4 91.6 43.9 91.6L43.9 91.6Q42.8 91.6 42.0 91.3Q41.1 90.9 40.7 90.2Q40.2 89.6 40.2 88.8L40.2 88.8L42.3 88.8Q42.4 89.4 42.8 89.7Q43.2 90.0 43.9 90.0L43.9 90.0Q44.5 90.0 44.9 89.8Q45.2 89.5 45.2 89.1ZM49.3 81.0L51.6 81.0L51.6 83.0L53.0 83.0L53.0 84.7L51.6 84.7L51.6 88.9Q51.6 89.4 51.7 89.6Q51.9 89.8 52.4 89.8L52.4 89.8Q52.8 89.8 53.1 89.7L53.1 89.7L53.1 91.4Q52.4 91.6 51.7 91.6L51.7 91.6Q49.4 91.6 49.3 89.2L49.3 89.2L49.3 84.7L48.1 84.7L48.1 83.0L49.3 83.0L49.3 81.0ZM59.0 83.0L59.0 85.1Q58.6 85.1 58.2 85.1L58.2 85.1Q56.9 85.1 56.5 86.0L56.5 86.0L56.5 91.5L54.3 91.5L54.3 83.0L56.4 83.0L56.5 84.0Q57.1 82.9 58.3 82.9L58.3 82.9Q58.7 82.9 59.0 83.0L59.0 83.0ZM59.5 87.3L59.5 87.2Q59.5 85.9 60.0 84.9Q60.4 84.0 61.3 83.4Q62.3 82.9 63.5 82.9L63.5 82.9Q65.2 82.9 66.3 83.9Q67.3 85.0 67.5 86.8L67.5 86.8L67.5 87.3Q67.5 89.3 66.4 90.5Q65.3 91.6 63.5 91.6Q61.6 91.6 60.6 90.5Q59.5 89.3 59.5 87.3L59.5 87.3ZM61.7 87.3L61.7 87.3Q61.7 88.5 62.2 89.2Q62.6 89.8 63.5 89.8L63.5 89.8Q64.3 89.8 64.8 89.2Q65.2 88.6 65.2 87.2L65.2 87.2Q65.2 86.0 64.8 85.4Q64.3 84.7 63.5 84.7L63.5 84.7Q62.6 84.7 62.2 85.3Q61.7 86.0 61.7 87.3Z "/><mask id="satori_om-id-1-5-2"><rect x="77" y="76" width="34" height="18" fill="#fff"/></mask><path fill="#7d8590" d="M84.0 80.1L84.0 87.7L85.6 87.7L85.6 88.8L84.0 88.8L84.0 91.5L82.6 91.5L82.6 88.8L77.4 88.8L77.4 88.0L82.5 80.1L84.0 80.1ZM82.4 82.4L79.1 87.7L82.6 87.7L82.6 82.1L82.4 82.4ZM87.1 90.7L87.1 90.7Q87.1 90.4 87.3 90.1Q87.6 89.9 88 89.9Q88.4 89.9 88.7 90.1Q88.9 90.4 88.9 90.7L88.9 90.7Q88.9 91.1 88.7 91.3Q88.4 91.6 88 91.6Q87.6 91.6 87.3 91.3Q87.1 91.1 87.1 90.7ZM96.6 80.1L96.8 80.1L96.8 81.3L96.5 81.3Q94.9 81.4 93.9 82.3Q92.9 83.3 92.7 85.1L92.7 85.1Q93.6 84.0 95.2 84.0L95.2 84.0Q96.6 84.0 97.5 85.1Q98.4 86.1 98.4 87.8L98.4 87.8Q98.4 89.5 97.5 90.6Q96.5 91.6 94.9 91.6L94.9 91.6Q93.3 91.6 92.2 90.4Q91.2 89.1 91.2 87.2L91.2 87.2L91.2 86.6Q91.2 83.5 92.6 81.8Q93.9 80.1 96.6 80.1L96.6 80.1ZM94.9 85.2L94.9 85.2Q94.2 85.2 93.5 85.7Q92.9 86.1 92.7 86.8L92.7 86.8L92.7 87.3Q92.7 88.7 93.3 89.6Q93.9 90.4 94.9 90.4L94.9 90.4Q95.9 90.4 96.4 89.7Q97.0 89.0 97.0 87.8L97.0 87.8Q97.0 86.7 96.4 85.9Q95.9 85.2 94.9 85.2ZM100 82.8L100 82.3Q100 81.3 100.7 80.6Q101.3 79.9 102.3 79.9L102.3 79.9Q103.4 79.9 104.0 80.6Q104.7 81.3 104.7 82.3L104.7 82.3L104.7 82.9Q104.7 83.9 104.0 84.6Q103.4 85.2 102.3 85.2L102.3 85.2Q101.3 85.2 100.7 84.6Q100 83.9 100 82.8L100 82.8ZM101.1 82.3L101.1 82.9Q101.1 83.5 101.4 83.9Q101.8 84.3 102.3 84.3L102.3 84.3Q102.9 84.3 103.2 83.9Q103.6 83.5 103.6 82.9L103.6 82.9L103.6 82.3Q103.6 81.7 103.2 81.3Q102.9 80.9 102.3 80.9Q101.8 80.9 101.4 81.3Q101.1 81.7 101.1 82.3L101.1 82.3ZM105.5 89.3L105.5 88.7Q105.5 87.7 106.2 87.0Q106.8 86.4 107.9 86.4Q108.9 86.4 109.5 87.0Q110.2 87.7 110.2 88.7L110.2 88.7L110.2 89.3Q110.2 90.3 109.6 91.0Q108.9 91.6 107.9 91.6Q106.9 91.6 106.2 91.0Q105.5 90.3 105.5 89.3L105.5 89.3ZM106.6 88.7L106.6 89.3Q106.6 89.9 107.0 90.3Q107.3 90.7 107.9 90.7L107.9 90.7Q108.4 90.7 108.8 90.3Q109.1 89.9 109.1 89.3L109.1 89.3L109.1 88.7Q109.1 88.1 108.8 87.7Q108.4 87.3 107.9 87.3L107.9 87.3Q107.3 87.3 107.0 87.7Q106.6 88.1 106.6 88.7L106.6 88.7ZM108.2 81.7L102.7 90.6L101.9 90.1L107.4 81.2L108.2 81.7Z "/><mask id="satori_om-id-1-6"><rect x="121" y="76" width="102" height="18" fill="#fff"/></mask><mask id="satori_om-id-1-6-0"><rect x="121" y="77" width="16" height="16" fill="#fff"/></mask><mask id="satori_om-id-1-6-0-0"><rect x="125" y="81" width="8" height="8" fill="#fff"/></mask><path x="125" y="81" width="8" height="8" fill="#563d7c" d="M129,81 h0 a4,4 0 0 1 4,4 v0 a4,4 0 0 1 -4,4 h0 a4,4 0 0 1 -4,-4 v0 a4,4 0 0 1 4,-4"/><mask id="satori_om-id-1-6-1"><rect x="150" y="76" width="30" height="18" fill="#fff"/></mask><path fill="#fff" d="M157.6 87.7L159.9 87.7Q159.8 89.5 158.6 90.6Q157.4 91.6 155.4 91.6L155.4 91.6Q153.2 91.6 151.9 90.2Q150.7 88.7 150.7 86.1L150.7 86.1L150.7 85.4Q150.7 83.8 151.3 82.5Q151.8 81.3 152.9 80.6Q154.0 80.0 155.4 80.0L155.4 80.0Q157.4 80.0 158.6 81.0Q159.8 82.1 160.0 84.0L160.0 84.0L157.6 84.0Q157.5 82.9 157.0 82.4Q156.5 81.9 155.4 81.9L155.4 81.9Q154.2 81.9 153.6 82.7Q153.1 83.6 153.0 85.3L153.0 85.3L153.0 86.2Q153.0 88.0 153.6 88.9Q154.2 89.7 155.4 89.7L155.4 89.7Q156.5 89.7 157.0 89.2Q157.5 88.7 157.6 87.7L157.6 87.7ZM167.4 88.5L167.4 88.5Q167.4 87.8 166.9 87.5Q166.4 87.1 165.2 86.7Q164.0 86.3 163.3 86.0L163.3 86.0Q161.4 84.9 161.4 83.1L161.4 83.1Q161.4 82.2 161.9 81.5Q162.4 80.8 163.4 80.4Q164.3 80.0 165.6 80.0L165.6 80.0Q166.8 80.0 167.7 80.4Q168.7 80.8 169.2 81.6Q169.7 82.4 169.7 83.5L169.7 83.5L167.4 83.5Q167.4 82.7 166.9 82.3Q166.4 81.8 165.5 81.8L165.5 81.8Q164.7 81.8 164.2 82.2Q163.7 82.5 163.7 83.1L163.7 83.1Q163.7 83.7 164.3 84.1Q164.8 84.4 165.9 84.8L165.9 84.8Q167.9 85.4 168.8 86.3Q169.7 87.2 169.7 88.5L169.7 88.5Q169.7 90.0 168.6 90.8Q167.5 91.6 165.6 91.6L165.6 91.6Q164.3 91.6 163.2 91.2Q162.1 90.7 161.6 89.8Q161.0 89.0 161.0 87.9L161.0 87.9L163.4 87.9Q163.4 89.8 165.6 89.8L165.6 89.8Q166.4 89.8 166.9 89.4Q167.4 89.1 167.4 88.5ZM177.2 88.5L177.2 88.5Q177.2 87.8 176.8 87.5Q176.3 87.1 175.1 86.7Q173.8 86.3 173.1 86.0L173.1 86.0Q171.2 84.9 171.2 83.1L171.2 83.1Q171.2 82.2 171.7 81.5Q172.2 80.8 173.2 80.4Q174.2 80.0 175.4 80.0L175.4 80.0Q176.6 80.0 177.6 80.4Q178.5 80.8 179.0 81.6Q179.6 82.4 179.6 83.5L179.6 83.5L177.2 83.5Q177.2 82.7 176.7 82.3Q176.2 81.8 175.4 81.8L175.4 81.8Q174.5 81.8 174.0 82.2Q173.5 82.5 173.5 83.1L173.5 83.1Q173.5 83.7 174.1 84.1Q174.7 84.4 175.7 84.8L175.7 84.8Q177.7 85.4 178.7 86.3Q179.6 87.2 179.6 88.5L179.6 88.5Q179.6 90.0 178.5 90.8Q177.3 91.6 175.4 91.6L175.4 91.6Q174.1 91.6 173.1 91.2Q172.0 90.7 171.4 89.8Q170.8 89.0 170.8 87.9L170.8 87.9L173.2 87.9Q173.2 89.8 175.4 89.8L175.4 89.8Q176.3 89.8 176.8 89.4Q177.2 89.1 177.2 88.5Z "/><mask id="satori_om-id-1-6-2"><rect x="189" y="76" width="34" height="18" fill="#fff"/></mask><path fill="#7d8590" d="M197.4 90.3L197.4 91.5L189.9 91.5L189.9 90.4L193.9 86.1Q194.8 85.1 195.1 84.5Q195.4 83.8 195.4 83.2L195.4 83.2Q195.4 82.3 194.9 81.7Q194.3 81.1 193.4 81.1L193.4 81.1Q192.4 81.1 191.8 81.8Q191.2 82.4 191.2 83.5L191.2 83.5L189.7 83.5Q189.7 81.9 190.7 80.9Q191.8 80.0 193.4 80.0L193.4 80.0Q195.0 80.0 196.0 80.8Q196.9 81.6 196.9 83.0L196.9 83.0Q196.9 84.7 194.7 87.0L194.7 87.0L191.7 90.3L197.4 90.3ZM199.1 90.7L199.1 90.7Q199.1 90.4 199.3 90.1Q199.6 89.9 200 89.9Q200.4 89.9 200.7 90.1Q200.9 90.4 200.9 90.7L200.9 90.7Q200.9 91.1 200.7 91.3Q200.4 91.6 200 91.6Q199.6 91.6 199.3 91.3Q199.1 91.1 199.1 90.7ZM209.2 80.1L209.2 87.7L210.8 87.7L210.8 88.8L209.2 88.8L209.2 91.5L207.8 91.5L207.8 88.8L202.6 88.8L202.6 88.0L207.7 80.1L209.2 80.1ZM207.6 82.4L204.3 87.7L207.8 87.7L207.8 82.1L207.6 82.4ZM212 82.8L212 82.3Q212 81.3 212.7 80.6Q213.3 79.9 214.3 79.9L214.3 79.9Q215.4 79.9 216.0 80.6Q216.7 81.3 216.7 82.3L216.7 82.3L216.7 82.9Q216.7 83.9 216.0 84.6Q215.4 85.2 214.3 85.2L214.3 85.2Q213.3 85.2 212.7 84.6Q212 83.9 212 82.8L212 82.8ZM213.1 82.3L213.1 82.9Q213.1 83.5 213.4 83.9Q213.8 84.3 214.3 84.3L214.3 84.3Q214.9 84.3 215.2 83.9Q215.6 83.5 215.6 82.9L215.6 82.9L215.6 82.3Q215.6 81.7 215.2 81.3Q214.9 80.9 214.3 80.9Q213.8 80.9 213.4 81.3Q213.1 81.7 213.1 82.3L213.1 82.3ZM217.5 89.3L217.5 88.7Q217.5 87.7 218.2 87.0Q218.8 86.4 219.9 86.4Q220.9 86.4 221.5 87.0Q222.2 87.7 222.2 88.7L222.2 88.7L222.2 89.3Q222.2 90.3 221.6 91.0Q220.9 91.6 219.9 91.6Q218.9 91.6 218.2 91.0Q217.5 90.3 217.5 89.3L217.5 89.3ZM218.6 88.7L218.6 89.3Q218.6 89.9 219.0 90.3Q219.3 90.7 219.9 90.7L219.9 90.7Q220.4 90.7 220.8 90.3Q221.1 89.9 221.1 89.3L221.1 89.3L221.1 88.7Q221.1 88.1 220.8 87.7Q220.4 87.3 219.9 87.3L219.9 87.3Q219.3 87.3 219.0 87.7Q218.6 88.1 218.6 88.7L218.6 88.7ZM220.2 81.7L214.7 90.6L213.9 90.1L219.4 81.2L220.2 81.7Z "/><mask id="satori_om-id-1-7"><rect x="233" y="76" width="103" height="18" fill="#fff"/></mask><mask id="satori_om-id-1-7-0"><rect x="233" y="77" width="16" height="16" fill="#fff"/></mask><mask id="satori_om-id-1-7-0-0"><rect x="237" y="81" width="8" height="8" fill="#fff"/></mask><path x="237" y="81" width="8" height="8" fill="#844FBA" d="M241,81 h0 a4,4 0 0 1 4,4 v0 a4,4 0 0 1 -4,4 h0 a4,4 0 0 1 -4,-4 v0 a4,4 0 0 1 4,-4"/><mask id="satori_om-id-1-7-1"><rect x="262" y="76" width="31" height="18" fill="#fff"/></mask><path fill="#fff" d="M272.3 80.1L272.3 91.5L269.9 91.5L269.9 86.6L265.4 86.6L265.4 91.5L263.0 91.5L263.0 80.1L265.4 80.1L265.4 84.7L269.9 84.7L269.9 80.1L272.3 80.1ZM280.9 87.7L283.3 87.7Q283.1 89.5 281.9 90.6Q280.7 91.6 278.7 91.6L278.7 91.6Q276.5 91.6 275.2 90.2Q274.0 88.7 274.0 86.1L274.0 86.1L274.0 85.4Q274.0 83.8 274.6 82.5Q275.1 81.3 276.2 80.6Q277.3 80.0 278.7 80.0L278.7 80.0Q280.7 80.0 281.9 81.0Q283.1 82.1 283.3 84.0L283.3 84.0L280.9 84.0Q280.8 82.9 280.3 82.4Q279.8 81.9 278.7 81.9L278.7 81.9Q277.5 81.9 276.9 82.7Q276.4 83.6 276.4 85.3L276.4 85.3L276.4 86.2Q276.4 88.0 276.9 88.9Q277.5 89.7 278.7 89.7L278.7 89.7Q279.8 89.7 280.3 89.2Q280.8 88.7 280.9 87.7L280.9 87.7ZM287.1 80.1L287.1 89.6L292.1 89.6L292.1 91.5L284.8 91.5L284.8 80.1L287.1 80.1Z "/><mask id="satori_om-id-1-7-2"><rect x="301" y="76" width="34" height="18" fill="#fff"/></mask><path fill="#7d8590" d="M306.7 80.1L306.7 91.5L305.2 91.5L305.2 81.9L302.3 82.9L302.3 81.6L306.5 80.1L306.7 80.1ZM311.1 90.7L311.1 90.7Q311.1 90.4 311.3 90.1Q311.6 89.9 312 89.9Q312.4 89.9 312.7 90.1Q312.9 90.4 312.9 90.7L312.9 90.7Q312.9 91.1 312.7 91.3Q312.4 91.6 312 91.6Q311.6 91.6 311.3 91.3Q311.1 91.1 311.1 90.7ZM322.5 80.1L322.5 80.9L317.8 91.5L316.3 91.5L321.0 81.3L314.8 81.3L314.8 80.1L322.5 80.1ZM324 82.8L324 82.3Q324 81.3 324.7 80.6Q325.3 79.9 326.3 79.9L326.3 79.9Q327.4 79.9 328.0 80.6Q328.7 81.3 328.7 82.3L328.7 82.3L328.7 82.9Q328.7 83.9 328.0 84.6Q327.4 85.2 326.3 85.2L326.3 85.2Q325.3 85.2 324.7 84.6Q324 83.9 324 82.8L324 82.8ZM325.1 82.3L325.1 82.9Q325.1 83.5 325.4 83.9Q325.8 84.3 326.3 84.3L326.3 84.3Q326.9 84.3 327.2 83.9Q327.6 83.5 327.6 82.9L327.6 82.9L327.6 82.3Q327.6 81.7 327.2 81.3Q326.9 80.9 326.3 80.9Q325.8 80.9 325.4 81.3Q325.1 81.7 325.1 82.3L325.1 82.3ZM329.5 89.3L329.5 88.7Q329.5 87.7 330.2 87.0Q330.8 86.4 331.9 86.4Q332.9 86.4 333.5 87.0Q334.2 87.7 334.2 88.7L334.2 88.7L334.2 89.3Q334.2 90.3 333.6 91.0Q332.9 91.6 331.9 91.6Q330.9 91.6 330.2 91.0Q329.5 90.3 329.5 89.3L329.5 89.3ZM330.6 88.7L330.6 89.3Q330.6 89.9 331.0 90.3Q331.3 90.7 331.9 90.7L331.9 90.7Q332.4 90.7 332.8 90.3Q333.1 89.9 333.1 89.3L333.1 89.3L333.1 88.7Q333.1 88.1 332.8 87.7Q332.4 87.3 331.9 87.3L331.9 87.3Q331.3 87.3 331.0 87.7Q330.6 88.1 330.6 88.7L330.6 88.7ZM332.2 81.7L326.7 90.6L325.9 90.1L331.4 81.2L332.2 81.7Z "/><mask id="satori_om-id-1-8"><rect x="0" y="104" width="116" height="19" fill="#fff"/></mask><mask id="satori_om-id-1-8-0"><rect x="0" y="105" width="16" height="16" fill="#fff"/></mask><mask id="satori_om-id-1-8-0-0"><rect x="4" y="109" width="8" height="8" fill="#fff"/></mask><path x="4" y="109" width="8" height="8" fill="#e34c26" d="M8,109 h0 a4,4 0 0 1 4,4 v0 a4,4 0 0 1 -4,4 h0 a4,4 0 0 1 -4,-4 v0 a4,4 0 0 1 4,-4"/><mask id="satori_om-id-1-8-1"><rect x="29" y="104" width="44" height="19" fill="#fff"/></mask><path fill="#fff" d="M39.3 108.1L39.3 119.5L36.9 119.5L36.9 114.6L32.4 114.6L32.4 119.5L30.0 119.5L30.0 108.1L32.4 108.1L32.4 112.7L36.9 112.7L36.9 108.1L39.3 108.1ZM49.7 108.1L49.7 110.0L46.2 110.0L46.2 119.5L43.8 119.5L43.8 110.0L40.4 110.0L40.4 108.1L49.7 108.1ZM51.0 108.1L54.1 108.1L57.0 116.4L59.9 108.1L63.0 108.1L63.0 119.5L60.6 119.5L60.6 116.4L60.8 111.0L57.8 119.5L56.2 119.5L53.1 111.0L53.3 116.4L53.3 119.5L51.0 119.5L51.0 108.1ZM67.4 108.1L67.4 117.6L72.3 117.6L72.3 119.5L65.0 119.5L65.0 108.1L67.4 108.1Z "/><mask id="satori_om-id-1-8-2"><rect x="82" y="104" width="34" height="19" fill="#fff"/></mask><path fill="#7d8590" d="M90.1 112.8L90.1 114.6Q90.1 117.2 89.2 118.4Q88.3 119.6 86.5 119.6L86.5 119.6Q84.7 119.6 83.8 118.4Q82.9 117.2 82.9 114.8L82.9 114.8L82.9 112.9Q82.9 110.4 83.8 109.2Q84.6 108.0 86.5 108.0L86.5 108.0Q88.3 108.0 89.2 109.1Q90.1 110.3 90.1 112.8L90.1 112.8ZM88.6 115.0L88.6 112.7Q88.6 110.8 88.1 110.0Q87.6 109.1 86.5 109.1L86.5 109.1Q85.4 109.1 84.9 110.0Q84.4 110.8 84.3 112.5L84.3 112.5L84.3 114.9Q84.3 116.7 84.9 117.6Q85.4 118.5 86.5 118.5L86.5 118.5Q87.6 118.5 88.1 117.6Q88.6 116.8 88.6 115.0L88.6 115.0ZM92.1 118.7L92.1 118.7Q92.1 118.4 92.3 118.1Q92.6 117.9 93 117.9Q93.4 117.9 93.7 118.1Q93.9 118.4 93.9 118.7L93.9 118.7Q93.9 119.1 93.7 119.3Q93.4 119.6 93 119.6Q92.6 119.6 92.3 119.3Q92.1 119.1 92.1 118.7ZM101.6 108.1L101.8 108.1L101.8 109.3L101.5 109.3Q99.9 109.4 98.9 110.3Q97.9 111.3 97.7 113.1L97.7 113.1Q98.6 112.0 100.2 112.0L100.2 112.0Q101.6 112.0 102.5 113.1Q103.4 114.1 103.4 115.8L103.4 115.8Q103.4 117.5 102.5 118.6Q101.5 119.6 99.9 119.6L99.9 119.6Q98.3 119.6 97.2 118.4Q96.2 117.1 96.2 115.2L96.2 115.2L96.2 114.6Q96.2 111.5 97.6 109.8Q98.9 108.1 101.6 108.1L101.6 108.1ZM99.9 113.2L99.9 113.2Q99.2 113.2 98.5 113.7Q97.9 114.1 97.7 114.8L97.7 114.8L97.7 115.3Q97.7 116.7 98.3 117.6Q98.9 118.4 99.9 118.4L99.9 118.4Q100.9 118.4 101.4 117.7Q102.0 117.0 102.0 115.8L102.0 115.8Q102.0 114.7 101.4 113.9Q100.9 113.2 99.9 113.2ZM105 110.8L105 110.3Q105 109.3 105.7 108.6Q106.3 107.9 107.3 107.9L107.3 107.9Q108.4 107.9 109.0 108.6Q109.7 109.3 109.7 110.3L109.7 110.3L109.7 110.9Q109.7 111.9 109.0 112.6Q108.4 113.2 107.3 113.2L107.3 113.2Q106.3 113.2 105.7 112.6Q105 111.9 105 110.8L105 110.8ZM106.1 110.3L106.1 110.9Q106.1 111.5 106.4 111.9Q106.8 112.3 107.3 112.3L107.3 112.3Q107.9 112.3 108.2 111.9Q108.6 111.5 108.6 110.9L108.6 110.9L108.6 110.3Q108.6 109.7 108.2 109.3Q107.9 108.9 107.3 108.9Q106.8 108.9 106.4 109.3Q106.1 109.7 106.1 110.3L106.1 110.3ZM110.5 117.3L110.5 116.7Q110.5 115.7 111.2 115.0Q111.8 114.4 112.9 114.4Q113.9 114.4 114.5 115.0Q115.2 115.7 115.2 116.7L115.2 116.7L115.2 117.3Q115.2 118.3 114.6 119.0Q113.9 119.6 112.9 119.6Q111.9 119.6 111.2 119.0Q110.5 118.3 110.5 117.3L110.5 117.3ZM111.6 116.7L111.6 117.3Q111.6 117.9 112.0 118.3Q112.3 118.7 112.9 118.7L112.9 118.7Q113.4 118.7 113.8 118.3Q114.1 117.9 114.1 117.3L114.1 117.3L114.1 116.7Q114.1 116.1 113.8 115.7Q113.4 115.3 112.9 115.3L112.9 115.3Q112.3 115.3 112.0 115.7Q111.6 116.1 111.6 116.7L111.6 116.7ZM113.2 109.7L107.7 118.6L106.9 118.1L112.4 109.2L113.2 109.7Z "/><mask id="satori_om-id-1-9"><rect x="126" y="104" width="145" height="19" fill="#fff"/></mask><mask id="satori_om-id-1-9-0"><rect x="126" y="105" width="16" height="16" fill="#fff"/></mask><mask id="satori_om-id-1-9-0-0"><rect x="130" y="109" width="8" height="8" fill="#fff"/></mask><path x="130" y="109" width="8" height="8" fill="#384d54" d="M134,109 h0 a4,4 0 0 1 4,4 v0 a4,4 0 0 1 -4,4 h0 a4,4 0 0 1 -4,-4 v0 a4,4 0 0 1 4,-4"/><mask id="satori_om-id-1-9-1"><rect x="155" y="104" width="73" height="19" fill="#fff"/></mask><path fill="#fff" d="M159.5 119.5L156.0 119.5L156.0 108.1L159.5 108.1Q161.0 108.1 162.2 108.8Q163.4 109.5 164.0 110.7Q164.7 112.0 164.7 113.5L164.7 113.5L164.7 114.1Q164.7 115.6 164.1 116.9Q163.4 118.1 162.2 118.8Q161.0 119.5 159.5 119.5L159.5 119.5ZM159.5 110.0L158.4 110.0L158.4 117.6L159.5 117.6Q160.9 117.6 161.6 116.7Q162.3 115.8 162.3 114.1L162.3 114.1L162.3 113.5Q162.3 111.8 161.6 110.9Q160.9 110.0 159.5 110.0L159.5 110.0ZM165.9 115.3L165.9 115.2Q165.9 113.9 166.4 112.9Q166.9 112.0 167.8 111.4Q168.7 110.9 169.9 110.9L169.9 110.9Q171.6 110.9 172.7 111.9Q173.8 113.0 173.9 114.8L173.9 114.8L173.9 115.3Q173.9 117.3 172.8 118.5Q171.8 119.6 169.9 119.6Q168.1 119.6 167.0 118.5Q165.9 117.3 165.9 115.3L165.9 115.3ZM168.2 115.3L168.2 115.3Q168.2 116.5 168.6 117.2Q169.1 117.8 169.9 117.8L169.9 117.8Q170.7 117.8 171.2 117.2Q171.7 116.6 171.7 115.2L171.7 115.2Q171.7 114.0 171.2 113.4Q170.7 112.7 169.9 112.7L169.9 112.7Q169.1 112.7 168.6 113.3Q168.2 114.0 168.2 115.3ZM178.8 117.8L178.8 117.8Q179.5 117.8 179.8 117.5Q180.2 117.1 180.3 116.6L180.3 116.6L182.4 116.6Q182.4 117.4 181.9 118.1Q181.4 118.9 180.6 119.2Q179.8 119.6 178.9 119.6L178.9 119.6Q177.1 119.6 176.0 118.5Q175.0 117.3 175.0 115.3L175.0 115.3L175.0 115.2Q175.0 113.2 176 112.0Q177.0 110.9 178.9 110.9L178.9 110.9Q180.4 110.9 181.4 111.8Q182.4 112.7 182.4 114.2L182.4 114.2L180.3 114.2Q180.2 113.5 179.8 113.1Q179.5 112.7 178.8 112.7L178.8 112.7Q178.0 112.7 177.6 113.3Q177.2 113.9 177.2 115.1L177.2 115.1L177.2 115.4Q177.2 116.7 177.6 117.2Q178.0 117.8 178.8 117.8ZM188.9 119.5L186.7 116.1L185.9 116.9L185.9 119.5L183.7 119.5L183.7 107.5L185.9 107.5L185.9 114.1L186.4 113.6L188.5 111.0L191.2 111.0L188.2 114.6L191.5 119.5L188.9 119.5ZM195.9 119.6L195.9 119.6Q194.1 119.6 192.9 118.5Q191.7 117.4 191.7 115.5L191.7 115.5L191.7 115.2Q191.7 114.0 192.2 113.0Q192.7 112.0 193.6 111.4Q194.5 110.9 195.7 110.9L195.7 110.9Q197.4 110.9 198.4 112.0Q199.4 113.1 199.4 115.1L199.4 115.1L199.4 116.0L194.0 116.0Q194.1 116.8 194.7 117.3Q195.2 117.8 196.1 117.8L196.1 117.8Q197.4 117.8 198.1 116.9L198.1 116.9L199.2 118.1Q198.7 118.8 197.9 119.2Q197.0 119.6 195.9 119.6ZM195.7 112.7L195.7 112.7Q195.0 112.7 194.6 113.2Q194.2 113.6 194.1 114.5L194.1 114.5L197.2 114.5L197.2 114.3Q197.2 113.5 196.8 113.1Q196.4 112.7 195.7 112.7ZM205.5 111.0L205.4 113.1Q205.0 113.1 204.6 113.1L204.6 113.1Q203.4 113.1 203.0 114.0L203.0 114.0L203.0 119.5L200.7 119.5L200.7 111.0L202.8 111.0L202.9 112.0Q203.6 110.9 204.8 110.9L204.8 110.9Q205.1 110.9 205.5 111.0L205.5 111.0ZM209.6 119.5L207.3 119.5L207.3 112.7L206.0 112.7L206.0 111.0L207.3 111.0L207.3 110.3Q207.3 108.9 208.1 108.1Q208.9 107.3 210.4 107.3L210.4 107.3Q210.9 107.3 211.6 107.5L211.6 107.5L211.5 109.2Q211.3 109.2 210.8 109.2L210.8 109.2Q209.6 109.2 209.6 110.4L209.6 110.4L209.6 111.0L211.3 111.0L211.3 112.7L209.6 112.7L209.6 119.5ZM214.8 111.0L214.8 119.5L212.5 119.5L212.5 111.0L214.8 111.0ZM212.4 108.8L212.4 108.8Q212.4 108.3 212.7 108.0Q213.1 107.7 213.7 107.7L213.7 107.7Q214.3 107.7 214.6 108.0Q214.9 108.3 214.9 108.8L214.9 108.8Q214.9 109.4 214.6 109.7Q214.2 110.0 213.7 110.0Q213.1 110.0 212.8 109.7Q212.4 109.4 212.4 108.8ZM219.0 107.5L219.0 119.5L216.8 119.5L216.8 107.5L219.0 107.5ZM224.8 119.6L224.8 119.6Q222.9 119.6 221.8 118.5Q220.6 117.4 220.6 115.5L220.6 115.5L220.6 115.2Q220.6 114.0 221.1 113.0Q221.6 112.0 222.5 111.4Q223.4 110.9 224.5 110.9L224.5 110.9Q226.3 110.9 227.3 112.0Q228.3 113.1 228.3 115.1L228.3 115.1L228.3 116.0L222.9 116.0Q223 116.8 223.6 117.3Q224.1 117.8 224.9 117.8L224.9 117.8Q226.3 117.8 227.0 116.9L227.0 116.9L228.1 118.1Q227.6 118.8 226.7 119.2Q225.9 119.6 224.8 119.6ZM224.5 112.7L224.5 112.7Q223.9 112.7 223.4 113.2Q223.0 113.6 222.9 114.5L222.9 114.5L226.1 114.5L226.1 114.3Q226.0 113.5 225.6 113.1Q225.3 112.7 224.5 112.7Z "/><mask id="satori_om-id-1-9-2"><rect x="238" y="104" width="34" height="19" fill="#fff"/></mask><path fill="#7d8590" d="M246.1 112.8L246.1 114.6Q246.1 117.2 245.2 118.4Q244.3 119.6 242.5 119.6L242.5 119.6Q240.7 119.6 239.8 118.4Q238.9 117.2 238.9 114.8L238.9 114.8L238.9 112.9Q238.9 110.4 239.8 109.2Q240.6 108.0 242.5 108.0L242.5 108.0Q244.3 108.0 245.2 109.1Q246.1 110.3 246.1 112.8L246.1 112.8ZM244.6 115.0L244.6 112.7Q244.6 110.8 244.1 110.0Q243.6 109.1 242.5 109.1L242.5 109.1Q241.4 109.1 240.9 110.0Q240.4 110.8 240.3 112.5L240.3 112.5L240.3 114.9Q240.3 116.7 240.9 117.6Q241.4 118.5 242.5 118.5L242.5 118.5Q243.6 118.5 244.1 117.6Q244.6 116.8 244.6 115.0L244.6 115.0ZM248.1 118.7L248.1 118.7Q248.1 118.4 248.3 118.1Q248.6 117.9 249 117.9Q249.4 117.9 249.7 118.1Q249.9 118.4 249.9 118.7L249.9 118.7Q249.9 119.1 249.7 119.3Q249.4 119.6 249 119.6Q248.6 119.6 248.3 119.3Q248.1 119.1 248.1 118.7ZM256.9 108.1L256.9 119.5L255.4 119.5L255.4 109.9L252.5 110.9L252.5 109.6L256.7 108.1L256.9 108.1ZM261 110.8L261 110.3Q261 109.3 261.7 108.6Q262.3 107.9 263.3 107.9L263.3 107.9Q264.4 107.9 265.0 108.6Q265.7 109.3 265.7 110.3L265.7 110.3L265.7 110.9Q265.7 111.9 265.0 112.6Q264.4 113.2 263.3 113.2L263.3 113.2Q262.3 113.2 261.7 112.6Q261 111.9 261 110.8L261 110.8ZM262.1 110.3L262.1 110.9Q262.1 111.5 262.4 111.9Q262.8 112.3 263.3 112.3L263.3 112.3Q263.9 112.3 264.2 111.9Q264.6 111.5 264.6 110.9L264.6 110.9L264.6 110.3Q264.6 109.7 264.2 109.3Q263.9 108.9 263.3 108.9Q262.8 108.9 262.4 109.3Q262.1 109.7 262.1 110.3L262.1 110.3ZM266.5 117.3L266.5 116.7Q266.5 115.7 267.2 115.0Q267.8 114.4 268.9 114.4Q269.9 114.4 270.5 115.0Q271.2 115.7 271.2 116.7L271.2 116.7L271.2 117.3Q271.2 118.3 270.6 119.0Q269.9 119.6 268.9 119.6Q267.9 119.6 267.2 119.0Q266.5 118.3 266.5 117.3L266.5 117.3ZM267.6 116.7L267.6 117.3Q267.6 117.9 268.0 118.3Q268.3 118.7 268.9 118.7L268.9 118.7Q269.4 118.7 269.8 118.3Q270.1 117.9 270.1 117.3L270.1 117.3L270.1 116.7Q270.1 116.1 269.8 115.7Q269.4 115.3 268.9 115.3L268.9 115.3Q268.3 115.3 268.0 115.7Q267.6 116.1 267.6 116.7L267.6 116.7ZM269.2 109.7L263.7 118.6L262.9 118.1L268.4 109.2L269.2 109.7Z "/><mask id="satori_om-id-1-10"><rect x="0" y="133" width="135" height="19" fill="#fff"/></mask><mask id="satori_om-id-1-10-0"><rect x="0" y="134" width="16" height="16" fill="#fff"/></mask><mask id="satori_om-id-1-10-0-0"><rect x="4" y="138" width="8" height="8" fill="#fff"/></mask><path x="4" y="138" width="8" height="8" fill="#427819" d="M8,138 h0 a4,4 0 0 1 4,4 v0 a4,4 0 0 1 -4,4 h0 a4,4 0 0 1 -4,-4 v0 a4,4 0 0 1 4,-4"/><mask id="satori_om-id-1-10-1"><rect x="29" y="133" width="63" height="19" fill="#fff"/></mask><path fill="#fff" d="M30.0 137.1L33.1 137.1L36 145.4L38.9 137.1L42.0 137.1L42.0 148.5L39.6 148.5L39.6 145.4L39.9 140.0L36.8 148.5L35.2 148.5L32.1 140.0L32.4 145.4L32.4 148.5L30.0 148.5L30.0 137.1ZM51.1 148.5L48.8 148.5Q48.6 148.2 48.6 147.7L48.6 147.7Q47.7 148.6 46.4 148.6L46.4 148.6Q45.2 148.6 44.4 147.9Q43.5 147.2 43.5 146.1L43.5 146.1Q43.5 144.8 44.5 144.0Q45.5 143.3 47.4 143.3L47.4 143.3L48.5 143.3L48.5 142.8Q48.5 142.2 48.2 141.9Q47.9 141.5 47.2 141.5L47.2 141.5Q46.6 141.5 46.3 141.8Q46.0 142.1 46.0 142.6L46.0 142.6L43.7 142.6Q43.7 141.8 44.2 141.2Q44.6 140.6 45.5 140.2Q46.3 139.9 47.3 139.9L47.3 139.9Q48.9 139.9 49.8 140.7Q50.7 141.4 50.7 142.9L50.7 142.9L50.7 146.5Q50.7 147.7 51.1 148.4L51.1 148.4L51.1 148.5ZM46.9 146.9L46.9 146.9Q47.4 146.9 47.8 146.7Q48.3 146.5 48.5 146.1L48.5 146.1L48.5 144.6L47.6 144.6Q45.9 144.6 45.8 145.8L45.8 145.8L45.8 145.9Q45.8 146.4 46.1 146.6Q46.4 146.9 46.9 146.9ZM57.7 148.5L55.5 145.1L54.7 145.9L54.7 148.5L52.5 148.5L52.5 136.5L54.7 136.5L54.7 143.1L55.2 142.6L57.3 140.0L60.0 140.0L57.0 143.6L60.3 148.5L57.7 148.5ZM64.7 148.6L64.7 148.6Q62.9 148.6 61.7 147.5Q60.5 146.4 60.5 144.5L60.5 144.5L60.5 144.2Q60.5 143.0 61.0 142.0Q61.5 141.0 62.4 140.4Q63.3 139.9 64.5 139.9L64.5 139.9Q66.2 139.9 67.2 141.0Q68.2 142.1 68.2 144.1L68.2 144.1L68.2 145.0L62.8 145.0Q62.9 145.8 63.5 146.3Q64.0 146.8 64.9 146.8L64.9 146.8Q66.2 146.8 66.9 145.9L66.9 145.9L68.0 147.1Q67.5 147.8 66.7 148.2Q65.8 148.6 64.7 148.6ZM64.5 141.7L64.5 141.7Q63.8 141.7 63.4 142.2Q63.0 142.6 62.9 143.5L62.9 143.5L66 143.5L66 143.3Q66.0 142.5 65.6 142.1Q65.2 141.7 64.5 141.7ZM72.4 148.5L70.1 148.5L70.1 141.7L68.9 141.7L68.9 140.0L70.1 140.0L70.1 139.3Q70.1 137.9 70.9 137.1Q71.8 136.3 73.2 136.3L73.2 136.3Q73.7 136.3 74.4 136.5L74.4 136.5L74.3 138.2Q74.1 138.2 73.7 138.2L73.7 138.2Q72.4 138.2 72.4 139.4L72.4 139.4L72.4 140.0L74.1 140.0L74.1 141.7L72.4 141.7L72.4 148.5ZM77.6 140.0L77.6 148.5L75.4 148.5L75.4 140.0L77.6 140.0ZM75.2 137.8L75.2 137.8Q75.2 137.3 75.6 137.0Q75.9 136.7 76.5 136.7L76.5 136.7Q77.1 136.7 77.4 137.0Q77.8 137.3 77.8 137.8L77.8 137.8Q77.8 138.4 77.4 138.7Q77.1 139.0 76.5 139.0Q75.9 139.0 75.6 138.7Q75.2 138.4 75.2 137.8ZM81.9 136.5L81.9 148.5L79.6 148.5L79.6 136.5L81.9 136.5ZM87.6 148.6L87.6 148.6Q85.8 148.6 84.6 147.5Q83.4 146.4 83.4 144.5L83.4 144.5L83.4 144.2Q83.4 143.0 83.9 142.0Q84.4 141.0 85.3 140.4Q86.2 139.9 87.4 139.9L87.4 139.9Q89.1 139.9 90.1 141.0Q91.1 142.1 91.1 144.1L91.1 144.1L91.1 145.0L85.7 145.0Q85.8 145.8 86.4 146.3Q86.9 146.8 87.8 146.8L87.8 146.8Q89.1 146.8 89.8 145.9L89.8 145.9L90.9 147.1Q90.4 147.8 89.5 148.2Q88.7 148.6 87.6 148.6ZM87.4 141.7L87.4 141.7Q86.7 141.7 86.3 142.2Q85.8 142.6 85.7 143.5L85.7 143.5L88.9 143.5L88.9 143.3Q88.9 142.5 88.5 142.1Q88.1 141.7 87.4 141.7Z "/><mask id="satori_om-id-1-10-2"><rect x="101" y="133" width="34" height="19" fill="#fff"/></mask><path fill="#7d8590" d="M109.1 141.8L109.1 143.6Q109.1 146.2 108.2 147.4Q107.3 148.6 105.5 148.6L105.5 148.6Q103.7 148.6 102.8 147.4Q101.9 146.2 101.9 143.8L101.9 143.8L101.9 141.9Q101.9 139.4 102.8 138.2Q103.6 137.0 105.5 137.0L105.5 137.0Q107.3 137.0 108.2 138.1Q109.1 139.3 109.1 141.8L109.1 141.8ZM107.6 144.0L107.6 141.7Q107.6 139.8 107.1 139.0Q106.6 138.1 105.5 138.1L105.5 138.1Q104.4 138.1 103.9 139.0Q103.4 139.8 103.3 141.5L103.3 141.5L103.3 143.9Q103.3 145.7 103.9 146.6Q104.4 147.5 105.5 147.5L105.5 147.5Q106.6 147.5 107.1 146.6Q107.6 145.8 107.6 144.0L107.6 144.0ZM111.1 147.7L111.1 147.7Q111.1 147.4 111.3 147.1Q111.6 146.9 112 146.9Q112.4 146.9 112.7 147.1Q112.9 147.4 112.9 147.7L112.9 147.7Q112.9 148.1 112.7 148.3Q112.4 148.6 112 148.6Q111.6 148.6 111.3 148.3Q111.1 148.1 111.1 147.7ZM122.3 141.8L122.3 143.6Q122.3 146.2 121.4 147.4Q120.5 148.6 118.7 148.6L118.7 148.6Q116.9 148.6 116 147.4Q115.1 146.2 115.1 143.8L115.1 143.8L115.1 141.9Q115.1 139.4 116.0 138.2Q116.8 137.0 118.7 137.0L118.7 137.0Q120.5 137.0 121.4 138.1Q122.3 139.3 122.3 141.8L122.3 141.8ZM120.8 144.0L120.8 141.7Q120.8 139.8 120.3 139.0Q119.8 138.1 118.7 138.1L118.7 138.1Q117.6 138.1 117.1 139.0Q116.6 139.8 116.5 141.5L116.5 141.5L116.5 143.9Q116.5 145.7 117.1 146.6Q117.6 147.5 118.7 147.5L118.7 147.5Q119.8 147.5 120.3 146.6Q120.8 145.8 120.8 144.0L120.8 144.0ZM124 139.8L124 139.3Q124 138.3 124.7 137.6Q125.3 136.9 126.3 136.9L126.3 136.9Q127.4 136.9 128.0 137.6Q128.7 138.3 128.7 139.3L128.7 139.3L128.7 139.9Q128.7 140.9 128.0 141.6Q127.4 142.2 126.3 142.2L126.3 142.2Q125.3 142.2 124.7 141.6Q124 140.9 124 139.8L124 139.8ZM125.1 139.3L125.1 139.9Q125.1 140.5 125.4 140.9Q125.8 141.3 126.3 141.3L126.3 141.3Q126.9 141.3 127.2 140.9Q127.6 140.5 127.6 139.9L127.6 139.9L127.6 139.3Q127.6 138.7 127.2 138.3Q126.9 137.9 126.3 137.9Q125.8 137.9 125.4 138.3Q125.1 138.7 125.1 139.3L125.1 139.3ZM129.5 146.3L129.5 145.7Q129.5 144.7 130.2 144.0Q130.8 143.4 131.9 143.4Q132.9 143.4 133.5 144.0Q134.2 144.7 134.2 145.7L134.2 145.7L134.2 146.3Q134.2 147.3 133.6 148.0Q132.9 148.6 131.9 148.6Q130.9 148.6 130.2 148.0Q129.5 147.3 129.5 146.3L129.5 146.3ZM130.6 145.7L130.6 146.3Q130.6 146.9 131.0 147.3Q131.3 147.7 131.9 147.7L131.9 147.7Q132.4 147.7 132.8 147.3Q133.1 146.9 133.1 146.3L133.1 146.3L133.1 145.7Q133.1 145.1 132.8 144.7Q132.4 144.3 131.9 144.3L131.9 144.3Q131.3 144.3 131.0 144.7Q130.6 145.1 130.6 145.7L130.6 145.7ZM132.2 138.7L126.7 147.6L125.9 147.1L131.4 138.2L132.2 138.7Z "/></svg>